<svg width="79" height="79" viewBox="0 0 79 79" fill="none" xmlns="http://www.w3.org/2000/svg">
<g filter="url(#filter0_d_53_30673)">
<circle cx="39.1129" cy="35.1129" r="33.1129" fill="#FFF8DF"/>
</g>
<g clip-path="url(#clip0_53_30673)">
<path d="M39.1111 21.1035C29.9666 21.1035 22.5547 27.1245 22.5547 34.5558C22.5781 36.1389 22.9161 37.7015 23.549 39.1528C24.182 40.604 25.0972 41.9149 26.2415 43.0091C25.5272 45.3076 24.3174 47.4214 22.6973 49.2014C22.6272 49.2751 22.5806 49.368 22.5633 49.4683C22.546 49.5685 22.5589 49.6716 22.6002 49.7646C22.6392 49.8573 22.7049 49.9363 22.789 49.9916C22.8731 50.0469 22.9717 50.0759 23.0723 50.0749C26.3903 50.0185 29.593 48.8478 32.1653 46.7511C34.3874 47.5839 36.7416 48.0089 39.1147 48.0056C48.2592 48.0056 55.6712 41.9846 55.6712 34.5534C55.6712 27.1221 48.2556 21.1035 39.1111 21.1035ZM30.8329 36.6203C30.4237 36.6203 30.0236 36.4989 29.6833 36.2715C29.343 36.0441 29.0778 35.721 28.9212 35.3429C28.7646 34.9647 28.7236 34.5487 28.8034 34.1473C28.8833 33.7459 29.0803 33.3771 29.3697 33.0878C29.6591 32.7984 30.0278 32.6013 30.4292 32.5214C30.8306 32.4416 31.2467 32.4826 31.6248 32.6392C32.0029 32.7958 32.3261 33.061 32.5534 33.4013C32.7808 33.7416 32.9022 34.1417 32.9022 34.551C32.9025 34.8228 32.8492 35.092 32.7453 35.3432C32.6414 35.5944 32.489 35.8227 32.2968 36.0149C32.1046 36.2071 31.8764 36.3595 31.6252 36.4634C31.374 36.5673 31.1047 36.6206 30.8329 36.6203ZM39.1111 36.6203C38.7019 36.6203 38.3018 36.4989 37.9615 36.2715C37.6212 36.0441 37.356 35.721 37.1994 35.3429C37.0428 34.9647 37.0018 34.5487 37.0816 34.1473C37.1615 33.7459 37.3586 33.3771 37.648 33.0878C37.9373 32.7984 38.306 32.6013 38.7074 32.5214C39.1088 32.4416 39.5249 32.4826 39.903 32.6392C40.2811 32.7958 40.6043 33.061 40.8317 33.4013C41.059 33.7416 41.1804 34.1417 41.1804 34.551C41.1807 34.8228 41.1274 35.092 41.0235 35.3432C40.9196 35.5944 40.7672 35.8227 40.575 36.0149C40.3828 36.2071 40.1546 36.3595 39.9034 36.4634C39.6522 36.5673 39.383 36.6206 39.1111 36.6203ZM47.3894 36.6203C46.9801 36.6203 46.58 36.4989 46.2397 36.2715C45.8995 36.0441 45.6342 35.721 45.4776 35.3429C45.321 34.9647 45.28 34.5487 45.3599 34.1473C45.4397 33.7459 45.6368 33.3771 45.9262 33.0878C46.2156 32.7984 46.5843 32.6013 46.9857 32.5214C47.3871 32.4416 47.8031 32.4826 48.1812 32.6392C48.5593 32.7958 48.8825 33.061 49.1099 33.4013C49.3373 33.7416 49.4586 34.1417 49.4586 34.551C49.4589 34.8228 49.4056 35.092 49.3017 35.3432C49.1979 35.5944 49.0455 35.8227 48.8533 36.0149C48.661 36.2071 48.4328 36.3595 48.1816 36.4634C47.9304 36.5673 47.6612 36.6206 47.3894 36.6203Z" fill="#FFBF26"/>
</g>
<defs>
<filter id="filter0_d_53_30673" x="0" y="0" width="78.2266" height="78.2256" filterUnits="userSpaceOnUse" color-interpolation-filters="sRGB">
<feFlood flood-opacity="0" result="BackgroundImageFix"/>
<feColorMatrix in="SourceAlpha" type="matrix" values="0 0 0 0 0 0 0 0 0 0 0 0 0 0 0 0 0 0 127 0" result="hardAlpha"/>
<feOffset dy="4"/>
<feGaussianBlur stdDeviation="3"/>
<feComposite in2="hardAlpha" operator="out"/>
<feColorMatrix type="matrix" values="0 0 0 0 0.916667 0 0 0 0 0.797194 0 0 0 0 0.565278 0 0 0 0.4 0"/>
<feBlend mode="normal" in2="BackgroundImageFix" result="effect1_dropShadow_53_30673"/>
<feBlend mode="normal" in="SourceGraphic" in2="effect1_dropShadow_53_30673" result="shape"/>
</filter>
<clipPath id="clip0_53_30673">
<rect width="33.1129" height="28.9738" fill="white" transform="translate(22.5547 21.1035)"/>
</clipPath>
</defs>
</svg>
