<svg width="55" height="46" viewBox="0 0 55 46" fill="none" xmlns="http://www.w3.org/2000/svg">
<path d="M13.2932 24.5645L21.1957 36.73C21.1957 36.73 8.92372 45.1168 8.37367 45.214C8.31165 45.2353 8.24506 45.2397 8.18079 45.2267C8.11652 45.2137 8.05684 45.1839 8.00794 45.1402C7.95904 45.0965 7.92267 45.0406 7.90254 44.9782C7.88241 44.9158 7.87932 44.8491 7.89348 44.7851C7.89348 44.7851 8.51765 36.9304 8.53248 36.7347C8.53825 36.6803 8.52515 36.6257 8.49538 36.5798C8.46561 36.534 8.42096 36.4998 8.36897 36.483L0.216437 33.3691C-0.101238 33.2474 0.114498 33.1001 0.114498 33.1001L13.2932 24.5645Z" fill="black"/>
<path d="M41.0989 24.0141L33.1964 36.1796C33.1964 36.1796 45.4701 44.564 46.0207 44.6604C46.0826 44.6814 46.149 44.6857 46.2131 44.6727C46.2772 44.6597 46.3366 44.6299 46.3854 44.5863C46.4342 44.5428 46.4706 44.4871 46.4908 44.4249C46.511 44.3626 46.5143 44.2962 46.5003 44.2323C46.5003 44.2323 45.8761 36.3776 45.8613 36.1818C45.8555 36.1275 45.8686 36.0728 45.8984 36.027C45.9282 35.9812 45.9728 35.947 46.0248 35.9301L54.1748 32.8146C54.4894 32.6921 54.2759 32.5451 54.2759 32.5451L41.0989 24.0141Z" fill="black"/>
<path d="M27.244 39C36.909 39 44.744 31.165 44.744 21.5C44.744 11.835 36.909 4 27.244 4C17.579 4 9.74402 11.835 9.74402 21.5C9.74402 31.165 17.579 39 27.244 39Z" fill="#D8B692"/>
<path d="M27.244 35C34.6999 35 40.744 28.9558 40.744 21.5C40.744 14.0442 34.6999 8 27.244 8C19.7882 8 13.744 14.0442 13.744 21.5C13.744 28.9558 19.7882 35 27.244 35Z" fill="#B99168"/>
<path d="M26.1734 22.356H26.8874C28.5704 22.356 29.6074 23.206 29.5564 24.464C29.5054 25.535 28.7064 26.47 27.5504 26.47C26.2414 26.47 25.5784 25.756 25.3914 24.685H23.0114C23.1474 26.929 24.9494 28.442 27.4484 28.442C30.3214 28.442 31.9024 26.878 31.9024 24.583C31.9024 23.257 31.1544 21.727 29.4884 21.319C30.9164 20.86 31.7494 19.551 31.7494 18.293C31.7494 16.202 30.2364 14.587 27.5334 14.587C25.0684 14.587 23.5214 15.981 23.2834 18.208H25.6464C25.8334 17.137 26.4624 16.525 27.5844 16.525C28.6044 16.525 29.3864 17.324 29.3864 18.412C29.3864 19.5 28.5534 20.384 26.8874 20.384H26.1734V22.356Z" fill="white"/>
</svg>
