<svg width="19" height="19" viewBox="0 0 19 19" fill="none" xmlns="http://www.w3.org/2000/svg">
<path d="M6.53126 10.4897H6.03647C4.94329 10.4897 4.0573 11.3772 4.0573 12.4725V14.4443C4.0573 15.5393 4.94329 16.4272 6.03647 16.4272H6.53126C7.0777 16.4272 7.52084 15.9831 7.52084 15.4357V11.4811C7.52084 10.9334 7.0777 10.4897 6.53126 10.4897ZM12.9636 10.4897H12.4688C11.9223 10.4897 11.4792 10.9334 11.4792 11.4811V15.4357C11.4792 15.9831 11.9223 16.4272 12.4688 16.4272H12.9636C14.0567 16.4272 14.9427 15.5393 14.9427 14.4443V12.4725C14.9427 11.3775 14.0567 10.4897 12.9636 10.4897ZM9.50001 2.573C5.07503 2.573 1.72467 6.25703 1.58334 10.4897V13.9532C1.58334 14.2266 1.80476 14.448 2.07814 14.448H2.57293C2.8463 14.448 3.06772 14.2266 3.06772 13.9532V10.4897C3.06772 6.94355 5.9539 4.06356 9.50001 4.06294C13.0461 4.06356 15.9323 6.94355 15.9323 10.4897V13.9532C15.9323 14.2266 16.1537 14.448 16.4271 14.448H16.9219C17.1953 14.448 17.4167 14.2266 17.4167 13.9532V10.4897C17.2754 6.25703 13.925 2.573 9.50001 2.573Z" fill="#474747"/>
</svg>
