<svg width="12" height="12" viewBox="0 0 12 12" fill="none" xmlns="http://www.w3.org/2000/svg">
<path d="M10.8105 4.72656C10.8867 4.66602 11 4.72266 11 4.81836V8.8125C11 9.33008 10.5801 9.75 10.0625 9.75H1.9375C1.41992 9.75 1 9.33008 1 8.8125V4.82031C1 4.72266 1.11133 4.66797 1.18945 4.72852C1.62695 5.06836 2.20703 5.5 4.19922 6.94727C4.61133 7.24805 5.30664 7.88086 6 7.87695C6.69727 7.88281 7.40625 7.23633 7.80273 6.94727C9.79492 5.5 10.373 5.06641 10.8105 4.72656ZM6 7.25C6.45312 7.25781 7.10547 6.67969 7.43359 6.44141C10.0254 4.56055 10.2227 4.39648 10.8203 3.92773C10.9336 3.83984 11 3.70312 11 3.55859V3.1875C11 2.66992 10.5801 2.25 10.0625 2.25H1.9375C1.41992 2.25 1 2.66992 1 3.1875V3.55859C1 3.70312 1.06641 3.83789 1.17969 3.92773C1.77734 4.39453 1.97461 4.56055 4.56641 6.44141C4.89453 6.67969 5.54688 7.25781 6 7.25Z" fill="#7F7F7F"/>
</svg>
