<svg width="26" height="22" viewBox="0 0 26 22" fill="none" xmlns="http://www.w3.org/2000/svg">
<g clip-path="url(#clip0_81:29808)">
<path d="M5.67397 8.11841C5.49682 8.11841 5.32364 8.16633 5.17635 8.25612C5.02905 8.3459 4.91424 8.47352 4.84645 8.62283C4.77865 8.77214 4.76092 8.93644 4.79548 9.09494C4.83004 9.25345 4.91535 9.39905 5.04061 9.51333C5.16588 9.6276 5.32548 9.70543 5.49923 9.73695C5.67298 9.76848 5.85307 9.7523 6.01674 9.69046C6.18041 9.62861 6.3203 9.52388 6.41872 9.3895C6.51715 9.25513 6.56968 9.09714 6.56968 8.93553C6.56968 8.71881 6.47531 8.51098 6.30733 8.35774C6.13935 8.2045 5.91153 8.11841 5.67397 8.11841Z" fill="#474747"/>
<path d="M14.5171 9.7912C15.0495 9.7912 15.4811 9.39744 15.4811 8.91171C15.4811 8.42599 15.0495 8.03223 14.5171 8.03223C13.9846 8.03223 13.553 8.42599 13.553 8.91171C13.553 9.39744 13.9846 9.7912 14.5171 9.7912Z" fill="#474747"/>
<path d="M22.5224 0H3.47766C2.55517 0.00042396 1.67062 0.335029 1.01848 0.930252C0.366346 1.52548 7.51233e-06 2.33259 7.62939e-06 3.17415V13.485C7.62939e-06 14.3264 0.3664 15.1333 1.01859 15.7283C1.67077 16.3233 2.55533 16.6575 3.47766 16.6575H10.2051L12.4926 21.5794C12.4926 21.5794 12.6503 22.0064 13.0307 22.0064C13.411 22.0064 13.5688 21.5794 13.5688 21.5794L15.8475 16.6623H22.5083C23.4308 16.6623 24.3156 16.3281 24.968 15.7332C25.6205 15.1383 25.9873 14.3313 25.9877 13.4898V3.17415C25.9877 2.33453 25.6231 1.5291 24.9736 0.934198C24.3241 0.339295 23.4427 0.00338388 22.5224 0ZM8.16828 9.1147C8.15776 11 6.02104 11.0544 6.02104 11.0544C5.77979 11.055 5.5409 11.011 5.31885 10.925C5.09679 10.8389 4.89619 10.7127 4.72919 10.5539V10.8945H3.17266V5.04187C3.26907 5.05466 4.72919 5.04187 4.72919 5.04187V7.28057C5.09554 6.7129 6.1525 6.72089 6.1525 6.72089C8.4575 6.91278 8.17179 9.1147 8.17179 9.1147H8.16828ZM10.908 6.89679V10.9041H9.38476V6.93676C9.38476 6.39628 8.65031 6.24757 8.65031 6.24757V4.84838C11.0833 4.93793 10.908 6.89679 10.908 6.89679ZM14.5171 11.0544C13.1148 11.0544 11.9649 10.0949 11.9649 8.91002C11.9649 7.72511 13.1078 6.76566 14.5171 6.76566C15.9264 6.76566 17.071 7.72511 17.071 8.91002C17.071 10.0949 15.9281 11.0576 14.5171 11.0576V11.0544ZM22.8607 11.0544C22.8607 11.0544 22.8817 13.09 20.6135 13.09H19.9246V11.7708H20.3401C20.3401 11.7708 21.2936 11.8507 21.2831 10.5107C21.2831 10.5107 21.0955 11.0544 19.7599 11.0544C19.7599 11.0544 17.865 10.9296 17.865 9.24263V8.603C17.865 8.603 17.9089 6.85361 19.9895 6.71289C20.242 6.69729 20.4948 6.73841 20.7258 6.83263C20.9569 6.92686 21.159 7.07133 21.3146 7.25338V6.82323H22.8607V11.0544Z" fill="#474747"/>
<path d="M20.4382 9.77013C20.9581 9.77013 21.3795 9.38568 21.3795 8.91143C21.3795 8.43719 20.9581 8.05273 20.4382 8.05273C19.9184 8.05273 19.4969 8.43719 19.4969 8.91143C19.4969 9.38568 19.9184 9.77013 20.4382 9.77013Z" fill="#474747"/>
</g>
<defs>
<clipPath id="clip0_81:29808">
<rect width="26" height="22" fill="white"/>
</clipPath>
</defs>
</svg>
