<svg width="27" height="27" viewBox="0 0 27 27" fill="none" xmlns="http://www.w3.org/2000/svg">
<path d="M22.4372 8.91728C22.4515 9.11715 22.4515 9.31705 22.4515 9.51692C22.4515 15.613 17.8116 22.6372 9.33124 22.6372C6.71859 22.6372 4.29157 21.8805 2.25 20.5671C2.62121 20.6099 2.97809 20.6242 3.36358 20.6242C5.51932 20.6242 7.50381 19.8961 9.08853 18.654C7.06124 18.6112 5.36231 17.2834 4.77695 15.456C5.06251 15.4988 5.34802 15.5274 5.64786 15.5274C6.06187 15.5274 6.47593 15.4703 6.86137 15.3704C4.74843 14.942 3.16367 13.0861 3.16367 10.8446V10.7876C3.77754 11.1302 4.49144 11.3443 5.24805 11.3729C4.00597 10.5448 3.19223 9.13143 3.19223 7.53243C3.19223 6.67584 3.42062 5.89063 3.82039 5.20534C6.09039 8.00357 9.50254 9.83095 13.3287 10.0309C13.2573 9.68822 13.2144 9.33134 13.2144 8.97441C13.2144 6.43313 15.2703 4.36304 17.8258 4.36304C19.1535 4.36304 20.3528 4.91983 21.1951 5.81926C22.2373 5.61939 23.2367 5.2339 24.1218 4.70568C23.7792 5.77646 23.0511 6.67589 22.0945 7.24692C23.0225 7.14703 23.922 6.88999 24.75 6.53311C24.1219 7.44678 23.3367 8.26052 22.4372 8.91728Z" fill="#474747"/>
</svg>
