<svg width="27" height="27" viewBox="0 0 27 27" fill="none" xmlns="http://www.w3.org/2000/svg">
<path d="M13.5025 7.7325C10.3101 7.7325 7.73508 10.3075 7.73508 13.4999C7.73508 16.6923 10.3101 19.2674 13.5025 19.2674C16.6949 19.2674 19.2699 16.6923 19.2699 13.4999C19.2699 10.3075 16.6949 7.7325 13.5025 7.7325ZM13.5025 17.2495C11.4395 17.2495 9.75293 15.568 9.75293 13.4999C9.75293 11.4319 11.4345 9.75035 13.5025 9.75035C15.5706 9.75035 17.2521 11.4319 17.2521 13.4999C17.2521 15.568 15.5655 17.2495 13.5025 17.2495ZM20.8511 7.49658C20.8511 8.24449 20.2487 8.84182 19.5059 8.84182C18.7579 8.84182 18.1606 8.23947 18.1606 7.49658C18.1606 6.7537 18.763 6.15135 19.5059 6.15135C20.2487 6.15135 20.8511 6.7537 20.8511 7.49658ZM24.6709 8.86189C24.5856 7.05989 24.174 5.46368 22.8539 4.14857C21.5388 2.83345 19.9426 2.42185 18.1405 2.3315C16.2833 2.22609 10.7167 2.22609 8.85945 2.3315C7.06246 2.41683 5.46625 2.82843 4.14612 4.14355C2.82599 5.45866 2.41941 7.05487 2.32905 8.85687C2.22364 10.7141 2.22364 16.2807 2.32905 18.138C2.41439 19.94 2.82599 21.5362 4.14612 22.8513C5.46625 24.1664 7.05744 24.578 8.85945 24.6684C10.7167 24.7738 16.2833 24.7738 18.1405 24.6684C19.9426 24.583 21.5388 24.1714 22.8539 22.8513C24.169 21.5362 24.5806 19.94 24.6709 18.138C24.7764 16.2807 24.7764 10.7191 24.6709 8.86189ZM22.2716 20.1307C21.8801 21.1145 21.1221 21.8725 20.1333 22.269C18.6525 22.8563 15.1389 22.7208 13.5025 22.7208C11.8661 22.7208 8.34746 22.8513 6.87172 22.269C5.88789 21.8775 5.12995 21.1196 4.7334 20.1307C4.14612 18.65 4.28165 15.1363 4.28165 13.4999C4.28165 11.8636 4.15114 8.34488 4.7334 6.86914C5.12493 5.88532 5.88287 5.12737 6.87172 4.73083C8.35248 4.14355 11.8661 4.27907 13.5025 4.27907C15.1389 4.27907 18.6576 4.14856 20.1333 4.73083C21.1171 5.12235 21.8751 5.8803 22.2716 6.86914C22.8589 8.3499 22.7234 11.8636 22.7234 13.4999C22.7234 15.1363 22.8589 18.655 22.2716 20.1307Z" fill="#474747"/>
</svg>
