<svg width="20" height="20" viewBox="0 0 20 20" fill="none" xmlns="http://www.w3.org/2000/svg">
<path d="M17.3656 10.9989C17.651 10.5155 17.8125 9.99984 17.8125 9.37647C17.8125 7.94369 16.601 6.59066 15.0189 6.59066H13.8314C13.9915 6.17367 14.1195 5.67497 14.1195 5.07568C14.1195 2.70609 12.8926 1.6665 11.0182 1.6665C9.01279 1.6665 9.12718 4.75677 8.68229 5.20166C7.94183 5.94212 7.06722 7.36465 6.44401 7.9165H3.22917C2.65387 7.9165 2.1875 8.38288 2.1875 8.95817V16.7707C2.1875 17.346 2.65387 17.8123 3.22917 17.8123H5.3125C5.7973 17.8123 6.20469 17.4812 6.3209 17.0327C7.76976 17.0653 8.76426 18.3328 12.1087 18.3328C12.3438 18.3328 12.6042 18.3332 12.832 18.3332C15.3424 18.3332 16.4774 17.0499 16.5085 15.23C16.942 14.6302 17.1692 13.8263 17.0729 13.0493C17.3937 12.4487 17.5177 11.7361 17.3656 10.9989ZM15.3555 12.7511C15.7643 13.439 15.3965 14.3595 14.9017 14.6252C15.1523 16.2131 14.3285 16.7703 13.1725 16.7703H11.9414C9.60941 16.7703 8.09932 15.5392 6.35417 15.5392V9.479H6.70964C7.63281 9.479 8.92253 7.17139 9.78711 6.30648C10.7103 5.3833 10.4027 3.84456 11.0182 3.229C12.557 3.229 12.557 4.30257 12.557 5.07568C12.557 6.35075 11.6338 6.92204 11.6338 8.15316H15.0189C15.7061 8.15316 16.2471 8.76872 16.25 9.38428C16.2529 9.99951 15.8327 10.6151 15.5251 10.6151C15.9642 11.0889 16.058 12.0876 15.3555 12.7511ZM5.05208 15.729C5.05208 16.1605 4.70231 16.5103 4.27083 16.5103C3.83936 16.5103 3.48958 16.1605 3.48958 15.729C3.48958 15.2975 3.83936 14.9478 4.27083 14.9478C4.70231 14.9478 5.05208 15.2975 5.05208 15.729Z" fill="#FFBF26"/>
</svg>
