<svg width="19" height="15" viewBox="0 0 19 15" fill="none" xmlns="http://www.w3.org/2000/svg">
<path d="M2.0625 0.5C1.33871 0.5 0.75 1.08871 0.75 1.8125V3.5625C0.75 3.80422 0.945781 4 1.1875 4H3.375V1.8125C3.375 1.08871 2.78629 0.5 2.0625 0.5ZM7.75 11.7812V10.125H15.625V3.125C15.625 1.67742 14.4476 0.5 13 0.5H3.80129C4.07883 0.86668 4.25 1.31813 4.25 1.8125V11.875C4.25 12.9379 5.19746 13.7795 6.29395 13.6009C7.15445 13.4609 7.75 12.6532 7.75 11.7812ZM8.625 11V11.875C8.625 13.3223 7.44758 14.5 6 14.5H15.1875C16.879 14.5 18.25 13.129 18.25 11.4375C18.25 11.1958 18.0542 11 17.8125 11H8.625Z" fill="#573300"/>
</svg>
