<svg width="7" height="14" viewBox="0 0 7 14" fill="none" xmlns="http://www.w3.org/2000/svg">
<path d="M3.50186 3.5C4.46677 3.5 5.25128 2.71523 5.25128 1.75C5.25128 0.784766 4.46677 0 3.50186 0C2.53694 0 1.75243 0.784766 1.75243 1.75C1.75243 2.71523 2.53694 3.5 3.50186 3.5ZM6.98157 9.69336L5.73511 4.61289C5.6449 4.24375 5.31142 3.98398 4.92053 3.95117C4.51051 4.21641 4.02395 4.375 3.49912 4.375C2.9743 4.375 2.48774 4.21641 2.07772 3.95117C1.68683 3.98398 1.35335 4.24375 1.26314 4.61289L0.0166769 9.69336C-0.0789947 10.1062 0.249022 10.5 0.691846 10.5H2.18979V13.3438C2.18979 13.7074 2.48227 14 2.84582 14H4.15789C4.52144 14 4.81393 13.7074 4.81393 13.3438V10.5H6.31187C6.75469 10.5 7.08271 10.1062 6.98157 9.69336Z" fill="#FF7856"/>
</svg>
