<svg width="38" height="38" viewBox="0 0 38 38" fill="none" xmlns="http://www.w3.org/2000/svg">
<path d="M25.5 10L19 10.5L13 15.5L10 17V24V30L12.5 31.5L26 33.5L30.5 28.5L32 19.5L31.5 15L25 13.5L25.5 10Z" fill="#FFBF26"/>
<path d="M32.9946 20.898C33.537 19.9795 33.8438 18.9998 33.8438 17.8154C33.8438 15.0931 31.5419 12.5224 28.5359 12.5224H26.2796C26.5839 11.7301 26.827 10.7826 26.827 9.64395C26.827 5.14171 24.4959 3.1665 20.9346 3.1665C17.1243 3.1665 17.3416 9.03801 16.4964 9.8833C15.0895 11.2902 13.4277 13.993 12.2436 15.0415H6.13542C5.04236 15.0415 4.15625 15.9276 4.15625 17.0207V31.8644C4.15625 32.9575 5.04236 33.8436 6.13542 33.8436H10.0938C11.0149 33.8436 11.7889 33.2143 12.0097 32.3623C14.7625 32.4242 16.6521 34.8326 23.0066 34.8326C23.4531 34.8326 23.9479 34.8332 24.3809 34.8332C29.1505 34.8332 31.3071 32.3949 31.3661 28.9371C32.1898 27.7975 32.6216 26.2701 32.4385 24.7938C33.048 23.6526 33.2836 22.2987 32.9946 20.898ZM29.1754 24.2273C29.9522 25.5342 29.2533 27.2833 28.3132 27.788C28.7895 30.805 27.2242 31.8638 25.0278 31.8638H22.6887C18.2579 31.8638 15.3887 29.5247 12.0729 29.5247V18.0103H12.7483C14.5023 18.0103 16.9528 13.6258 18.5955 11.9825C20.3495 10.2284 19.7651 7.30482 20.9346 6.13525C23.8582 6.13525 23.8582 8.17503 23.8582 9.64395C23.8582 12.0666 22.1042 13.152 22.1042 15.4911H28.5359C29.8415 15.4911 30.8694 16.6607 30.875 17.8303C30.8806 18.9992 30.0821 20.1688 29.4976 20.1688C30.3319 21.069 30.5102 22.9666 29.1754 24.2273ZM9.59896 29.8853C9.59896 30.7051 8.93439 31.3696 8.11458 31.3696C7.29478 31.3696 6.63021 30.7051 6.63021 29.8853C6.63021 29.0654 7.29478 28.4009 8.11458 28.4009C8.93439 28.4009 9.59896 29.0654 9.59896 29.8853Z" fill="#573300"/>
</svg>
