<svg width="16" height="16" viewBox="0 0 16 16" fill="none" xmlns="http://www.w3.org/2000/svg">
<path d="M8 8.9375C10.3291 8.9375 12.2188 7.04785 12.2188 4.71875C12.2188 2.38965 10.3291 0.5 8 0.5C5.6709 0.5 3.78125 2.38965 3.78125 4.71875C3.78125 7.04785 5.6709 8.9375 8 8.9375ZM11.75 9.875H10.1357C9.48535 10.1738 8.76172 10.3438 8 10.3438C7.23828 10.3438 6.51758 10.1738 5.86426 9.875H4.25C2.17871 9.875 0.5 11.5537 0.5 13.625V14.0938C0.5 14.8701 1.12988 15.5 1.90625 15.5H14.0938C14.8701 15.5 15.5 14.8701 15.5 14.0938V13.625C15.5 11.5537 13.8213 9.875 11.75 9.875Z" fill="#573300"/>
</svg>
