<svg width="13" height="13" viewBox="0 0 13 13" fill="none" xmlns="http://www.w3.org/2000/svg">
<path d="M6.5 0C7.78558 0 9.04229 0.381218 10.1112 1.09545C11.1801 1.80968 12.0132 2.82484 12.5052 4.01256C12.9972 5.20028 13.1259 6.50721 12.8751 7.76809C12.6243 9.02896 12.0052 10.1872 11.0962 11.0962C10.1872 12.0052 9.02896 12.6243 7.76809 12.8751C6.50721 13.1259 5.20028 12.9972 4.01256 12.5052C2.82484 12.0132 1.80968 11.1801 1.09545 10.1112C0.381218 9.04229 0 7.78558 0 6.5C0 4.77609 0.68482 3.12279 1.90381 1.90381C3.12279 0.68482 4.77609 0 6.5 0V0Z" fill="#666666"/>
<path d="M6.46243 6.23805C6.94109 6.22635 7.39553 6.02515 7.72596 5.67864C8.05639 5.33213 8.23578 4.86865 8.22474 4.38997C8.23562 3.9114 8.05616 3.44806 7.72575 3.10168C7.39534 2.7553 6.94098 2.55418 6.46243 2.54248C5.98377 2.55418 5.52933 2.75538 5.1989 3.10189C4.86847 3.4484 4.68908 3.91189 4.70012 4.39056C4.68923 4.86913 4.8687 5.33247 5.19911 5.67885C5.52952 6.02523 5.98387 6.22635 6.46243 6.23805ZM7.76302 6.17461L6.46243 8.44388H6.44422L5.12366 6.17461C4.63769 6.20857 4.18335 6.42798 3.85458 6.78747C3.52581 7.14696 3.34776 7.61904 3.35723 8.1061V8.70647C3.35313 8.88607 3.42049 9.05996 3.54452 9.18993C3.66854 9.3199 3.83909 9.39533 4.01869 9.39964H8.86916C9.04876 9.39533 9.21931 9.3199 9.34333 9.18993C9.46736 9.05996 9.53472 8.88607 9.53062 8.70647V8.1061C9.54007 7.61885 9.36186 7.14661 9.03284 6.78709C8.70383 6.42757 8.2492 6.20828 7.76302 6.17461Z" fill="white"/>
</svg>
