<svg width="195" height="195" viewBox="0 0 195 195" fill="none" xmlns="http://www.w3.org/2000/svg">
<path d="M97.499 16.249C52.6149 16.249 16.249 52.6149 16.249 97.499C16.249 142.383 52.6149 178.749 97.499 178.749C142.383 178.749 178.749 142.383 178.749 97.499C178.749 52.6149 142.383 16.249 97.499 16.249ZM97.499 47.7006C113.421 47.7006 126.33 60.6089 126.33 76.5313C126.33 92.4537 113.421 105.362 97.499 105.362C81.5766 105.362 68.6684 92.4537 68.6684 76.5313C68.6684 60.6089 81.5766 47.7006 97.499 47.7006ZM97.499 160.402C78.2677 160.402 61.0348 151.688 49.5026 138.058C55.6618 126.461 67.7183 118.467 81.7732 118.467C82.5595 118.467 83.3458 118.598 84.0993 118.827C88.3584 120.203 92.814 121.088 97.499 121.088C102.184 121.088 106.672 120.203 110.899 118.827C111.652 118.598 112.439 118.467 113.225 118.467C127.28 118.467 139.336 126.461 145.495 138.058C133.963 151.688 116.73 160.402 97.499 160.402Z" fill="#FFBF26"/>
</svg>
