<svg width="34" height="34" viewBox="0 0 34 34" fill="none" xmlns="http://www.w3.org/2000/svg">
<path d="M28.5104 16.9998H24.0833V13.4582C24.0833 11.5047 25.6715 9.9165 27.625 9.9165H28.0677C28.8037 9.9165 29.3958 9.32438 29.3958 8.58838V5.93213C29.3958 5.19613 28.8037 4.604 28.0677 4.604H27.625C22.7331 4.604 18.7708 8.56624 18.7708 13.4582V26.7394C18.7708 28.2059 19.9606 29.3957 21.4271 29.3957H28.5104C29.9769 29.3957 31.1666 28.2059 31.1666 26.7394V19.6561C31.1666 18.1896 29.9769 16.9998 28.5104 16.9998ZM12.5729 16.9998H8.14581V13.4582C8.14581 11.5047 9.73403 9.9165 11.6875 9.9165H12.1302C12.8662 9.9165 13.4583 9.32438 13.4583 8.58838V5.93213C13.4583 5.19613 12.8662 4.604 12.1302 4.604H11.6875C6.79555 4.604 2.83331 8.56624 2.83331 13.4582V26.7394C2.83331 28.2059 4.02309 29.3957 5.48956 29.3957H12.5729C14.0394 29.3957 15.2291 28.2059 15.2291 26.7394V19.6561C15.2291 18.1896 14.0394 16.9998 12.5729 16.9998Z" fill="#573300"/>
</svg>
