<svg width="16" height="18" viewBox="0 0 16 18" fill="none" xmlns="http://www.w3.org/2000/svg">
<path d="M15.3656 9.99886C15.651 9.51546 15.8125 8.99984 15.8125 8.37647C15.8125 6.94369 14.601 5.59066 13.0189 5.59066H11.8314C11.9915 5.17367 12.1195 4.67497 12.1195 4.07568C12.1195 1.70609 10.8926 0.666504 9.01823 0.666504C7.01279 0.666504 7.12718 3.75677 6.68229 4.20166C5.94183 4.94212 5.06722 6.36465 4.44401 6.9165H1.22917C0.653874 6.9165 0.1875 7.38288 0.1875 7.95817V15.7707C0.1875 16.346 0.653874 16.8123 1.22917 16.8123H3.3125C3.7973 16.8123 4.20469 16.4812 4.3209 16.0327C5.76976 16.0653 6.76426 17.3328 10.1087 17.3328C10.3437 17.3328 10.6042 17.3332 10.832 17.3332C13.3423 17.3332 14.4774 16.0499 14.5085 14.23C14.942 13.6302 15.1692 12.8263 15.0729 12.0493C15.3937 11.4487 15.5177 10.7361 15.3656 9.99886ZM13.3555 11.7511C13.7643 12.439 13.3965 13.3595 12.9017 13.6252C13.1523 15.2131 12.3285 15.7703 11.1725 15.7703H9.94141C7.60941 15.7703 6.09932 14.5392 4.35417 14.5392V8.479H4.70964C5.63281 8.479 6.92253 6.17139 7.78711 5.30648C8.71029 4.3833 8.40267 2.84456 9.01823 2.229C10.557 2.229 10.557 3.30257 10.557 4.07568C10.557 5.35075 9.63379 5.92204 9.63379 7.15316H13.0189C13.7061 7.15316 14.2471 7.76872 14.25 8.38428C14.2529 8.99951 13.8327 9.61507 13.5251 9.61507C13.9642 10.0889 14.058 11.0876 13.3555 11.7511V11.7511ZM3.05208 14.729C3.05208 15.1605 2.70231 15.5103 2.27083 15.5103C1.83936 15.5103 1.48958 15.1605 1.48958 14.729C1.48958 14.2975 1.83936 13.9478 2.27083 13.9478C2.70231 13.9478 3.05208 14.2975 3.05208 14.729Z" fill="#573300" fill-opacity="0.2"/>
</svg>
