<svg width="27" height="25" viewBox="0 0 27 25" fill="none" xmlns="http://www.w3.org/2000/svg">
<g clip-path="url(#clip0_226_15764)">
<path d="M13.6131 0.829102C6.26363 0.829102 0.306641 5.66817 0.306641 11.6407C0.325437 12.913 0.597087 14.1689 1.10578 15.3353C1.61448 16.5017 2.35006 17.5552 3.26973 18.4347C2.69566 20.282 1.72331 21.9808 0.421235 23.4114C0.364908 23.4707 0.327429 23.5453 0.313544 23.6259C0.299659 23.7065 0.309991 23.7893 0.343234 23.864C0.37458 23.9386 0.4274 24.0021 0.494967 24.0465C0.562535 24.0909 0.641793 24.1142 0.722648 24.1135C3.38936 24.0681 5.96335 23.1272 8.0307 21.4421C9.81664 22.1115 11.7087 22.453 13.616 22.4504C20.9654 22.4504 26.9224 17.6113 26.9224 11.6388C26.9224 5.66625 20.9625 0.829102 13.6131 0.829102ZM6.95987 13.2999C6.63094 13.2999 6.30941 13.2024 6.03592 13.0197C5.76243 12.8369 5.54927 12.5772 5.42339 12.2733C5.29752 11.9694 5.26459 11.635 5.32875 11.3124C5.39292 10.9898 5.55132 10.6934 5.7839 10.4609C6.01648 10.2283 6.31281 10.0699 6.63542 10.0057C6.95802 9.94153 7.29241 9.97446 7.59629 10.1003C7.90018 10.2262 8.15991 10.4394 8.34265 10.7129C8.52539 10.9864 8.62293 11.3079 8.62293 11.6368C8.62318 11.8553 8.58034 12.0717 8.49685 12.2736C8.41337 12.4755 8.29088 12.6589 8.13639 12.8134C7.98191 12.9679 7.79848 13.0904 7.59659 13.1739C7.39471 13.2573 7.17833 13.3002 6.95987 13.2999ZM13.6131 13.2999C13.2842 13.2999 12.9626 13.2024 12.6891 13.0197C12.4157 12.8369 12.2025 12.5772 12.0766 12.2733C11.9507 11.9694 11.9178 11.635 11.982 11.3124C12.0461 10.9898 12.2045 10.6934 12.4371 10.4609C12.6697 10.2283 12.966 10.0699 13.2886 10.0057C13.6112 9.94153 13.9456 9.97446 14.2495 10.1003C14.5534 10.2262 14.8131 10.4394 14.9959 10.7129C15.1786 10.9864 15.2762 11.3079 15.2762 11.6368C15.2764 11.8553 15.2336 12.0717 15.1501 12.2736C15.0666 12.4755 14.9441 12.6589 14.7896 12.8134C14.6351 12.9679 14.4517 13.0904 14.2498 13.1739C14.0479 13.2573 13.8316 13.3002 13.6131 13.2999ZM20.2663 13.2999C19.9374 13.2999 19.6159 13.2024 19.3424 13.0197C19.0689 12.8369 18.8557 12.5772 18.7298 12.2733C18.604 11.9694 18.571 11.635 18.6352 11.3124C18.6994 10.9898 18.8578 10.6934 19.0903 10.4609C19.3229 10.2283 19.6193 10.0699 19.9419 10.0057C20.2645 9.94153 20.5989 9.97446 20.9027 10.1003C21.2066 10.2262 21.4664 10.4394 21.6491 10.7129C21.8318 10.9864 21.9294 11.3079 21.9294 11.6368C21.9296 11.8553 21.8868 12.0717 21.8033 12.2736C21.7198 12.4755 21.5973 12.6589 21.4428 12.8134C21.2884 12.9679 21.1049 13.0904 20.903 13.1739C20.7012 13.2573 20.4848 13.3002 20.2663 13.2999Z" fill="#FFBF26"/>
</g>
<defs>
<clipPath id="clip0_226_15764">
<rect width="26.6129" height="23.2863" fill="white" transform="translate(0.306641 0.829102)"/>
</clipPath>
</defs>
</svg>
