<svg width="16" height="16" viewBox="0 0 16 16" fill="none" xmlns="http://www.w3.org/2000/svg">
<path d="M15.2781 5.00191L13.9379 6.34436C13.8722 6.41004 13.7831 6.44693 13.6902 6.44693C13.5973 6.44693 13.5081 6.41004 13.4424 6.34436L10.2089 3.11144C10.1432 3.04574 10.1063 2.95664 10.1063 2.86374C10.1063 2.77085 10.1432 2.68175 10.2089 2.61605L11.5554 1.27359C11.8181 1.01207 12.1738 0.865234 12.5445 0.865234C12.9152 0.865234 13.2709 1.01207 13.5336 1.27359L15.2781 3.02417C15.4082 3.15389 15.5115 3.30801 15.5819 3.4777C15.6524 3.64739 15.6886 3.82931 15.6886 4.01304C15.6886 4.19677 15.6524 4.37869 15.5819 4.54838C15.5115 4.71807 15.4082 4.87219 15.2781 5.00191ZM9.05099 3.76983L1.40288 11.419L0.785433 14.9586C0.766009 15.0693 0.773533 15.183 0.807367 15.2901C0.841202 15.3973 0.900351 15.4947 0.979811 15.5741C1.05927 15.6536 1.1567 15.7127 1.26386 15.7465C1.37102 15.7804 1.48475 15.7879 1.59543 15.7685L5.13708 15.1486L12.7878 7.49944C12.8534 7.43373 12.8904 7.34464 12.8904 7.25174C12.8904 7.15884 12.8534 7.06974 12.7878 7.00404L9.55291 3.76983C9.48675 3.704 9.39721 3.66704 9.30388 3.66704C9.21054 3.66704 9.121 3.704 9.05484 3.76983H9.05099ZM4.38998 10.7644C4.35191 10.7267 4.32168 10.6819 4.30106 10.6324C4.28043 10.5829 4.26981 10.5299 4.26981 10.4763C4.26981 10.4227 4.28043 10.3697 4.30106 10.3202C4.32168 10.2708 4.35191 10.2259 4.38998 10.1882L8.88283 5.69624C8.96061 5.62681 9.06201 5.58978 9.16624 5.59273C9.27046 5.59568 9.36961 5.63839 9.44334 5.7121C9.51706 5.78581 9.55978 5.88494 9.56273 5.98914C9.56568 6.09335 9.52864 6.19473 9.4592 6.27249L4.96635 10.7644C4.92863 10.8025 4.88375 10.8327 4.83428 10.8533C4.78482 10.874 4.73176 10.8846 4.67817 10.8846C4.62457 10.8846 4.57151 10.874 4.52205 10.8533C4.47258 10.8327 4.4277 10.8025 4.38998 10.7644ZM3.33994 13.2132H4.73657V14.2707L2.85728 14.5993L1.95101 13.6919L2.27963 11.813H3.33994V13.2132Z" fill="#573300"/>
</svg>
