<svg width="19" height="17" viewBox="0 0 19 17" fill="none" xmlns="http://www.w3.org/2000/svg">
<path fill-rule="evenodd" clip-rule="evenodd" d="M9.56169 1.96117C8.16991 1.96117 6.80938 2.35325 5.65216 3.08782C4.49493 3.82239 3.59298 4.86646 3.06037 6.08801C2.52776 7.30956 2.3884 8.65372 2.65993 9.9505C2.93145 11.2473 3.60166 12.4385 4.5858 13.3734C5.56994 14.3083 6.82381 14.945 8.18885 15.203C9.55389 15.4609 10.9688 15.3285 12.2546 14.8226C13.5405 14.3166 14.6395 13.4597 15.4127 12.3604C16.186 11.261 16.5987 9.96849 16.5987 8.6463C16.5987 7.76839 16.4167 6.89909 16.063 6.08801C15.7094 5.27693 15.191 4.53997 14.5376 3.9192C13.8841 3.29843 13.1084 2.806 12.2546 2.47004C11.4009 2.13409 10.4858 1.96117 9.56169 1.96117ZM4.78337 1.8526C6.19776 0.95479 7.86062 0.475586 9.56169 0.475586C10.6912 0.475586 11.8096 0.686928 12.8531 1.09754C13.8965 1.50816 14.8447 2.11001 15.6433 2.86873C16.442 3.62745 17.0755 4.52819 17.5077 5.5195C17.94 6.51082 18.1624 7.57331 18.1624 8.6463C18.1624 10.2623 17.658 11.842 16.713 13.1857C15.7679 14.5294 14.4246 15.5766 12.8531 16.1951C11.2815 16.8135 9.55215 16.9753 7.88377 16.66C6.21539 16.3447 4.68288 15.5666 3.48004 14.4239C2.27721 13.2812 1.45806 11.8253 1.1262 10.2403C0.794341 8.65536 0.964664 7.01251 1.61563 5.5195C2.26661 4.0265 3.36898 2.75041 4.78337 1.8526Z" fill="#828282"/>
<path fill-rule="evenodd" clip-rule="evenodd" d="M9.56167 3.44678C9.9935 3.44678 10.3436 3.77934 10.3436 4.18957V8.18725L13.0389 9.46753C13.4251 9.65099 13.5817 10.0972 13.3886 10.4641C13.1954 10.831 12.7258 10.9797 12.3395 10.7963L9.212 9.31069C8.94711 9.18487 8.77979 8.92767 8.77979 8.64632V4.18957C8.77979 3.77934 9.12985 3.44678 9.56167 3.44678Z" fill="#828282"/>
</svg>
