<?xml version="1.0" encoding="utf-8"?>
<!-- Generator: Adobe Illustrator 25.4.1, SVG Export Plug-In . SVG Version: 6.00 Build 0)  -->
<svg version="1.1" id="레이어_1" xmlns="http://www.w3.org/2000/svg" xmlns:xlink="http://www.w3.org/1999/xlink" x="0px"
	 y="0px" viewBox="0 0 1920 339" style="enable-background:new 0 0 1920 339;" xml:space="preserve">
<style type="text/css">
	.st0{clip-path:url(#SVGID_00000010293579311708457390000011828509747507329176_);}
	.st1{fill:#FFF9E3;}
	.st2{fill:#FFEFCB;enable-background:new    ;}
</style>
<g>
	<defs>
		<rect id="SVGID_1_" x="-1" y="2" width="1920" height="337"/>
	</defs>
	<clipPath id="SVGID_00000158026915160917741440000018311521962437191302_">
		<use xlink:href="#SVGID_1_"  style="overflow:visible;"/>
	</clipPath>
	<g style="clip-path:url(#SVGID_00000158026915160917741440000018311521962437191302_);">
		<path class="st1" d="M1299.7,338.7c4.8-7.7,8.6-15.9,9.9-25c1.4-10.1,0.5-20.1-2.4-29.8c-4.2-14.2-11.2-26.7-22.1-36.8
			c-9.5-8.9-20.9-14.5-33.2-18.3c-14.4-4.5-29.1-6.3-44.1-7c-10.3-0.5-20.7-0.5-31,0.6c-13.4,1.4-26.5,4.2-39.3,8.4
			c-3.8,1.2-6.9-0.1-8.6-3.7c-0.5-1-0.8-2.1-1.1-3.2c-0.8-3.2-1.6-6.4-2.4-9.6c-0.8-3.2-2.8-5.4-5.8-6.8c-3.2-1.4-6.4-1.5-9.7-0.6
			c-5.5,1.5-10.5,4.1-15.4,7.1c-10.3,6.2-19.9,13.5-29.5,20.7c-2.8,2.1-4.7,4.9-6,8.2c-2.1,5.3-2,10.9-1.3,16.4
			c1,7.7,3.2,15.1,5.8,22.3c5.3,15.1,12,29.6,18.7,44.2c3.8,8.2,7.5,16.3,10.2,24.9c3.3,10.6,5.7,21.4,7.9,32.3c1,5,2.1,9.9,3,14.9
			c1.2,6.5,2,13,3.2,19.5c1.4,7.3,3.5,14.5,6.6,21.3c2.3,5.1,5.9,8.2,11.3,9.7c5.8,1.6,11.8,2.1,17.8,2.2c6.6,0.1,13.1-0.4,19.6-1.3
			c7-1,10.7-5.1,10.7-12.1c0-5.7-0.9-11.4-2-17c-1.3-6.6,1.2-11.8,7.3-14.6c2.7-1.2,5.5-2.2,8.3-3c6-1.7,12-3.1,18.3-2.8
			c5.2,0.2,9.6,2,12.4,6.8c1.9,3.3,4.2,6.4,6.4,9.6c3.7,5.1,7.2,10.3,11.3,15c7.2,8.3,16.6,11.8,27.6,11.2
			c7.6-0.4,14.8-2.4,21.9-4.9c6.4-2.2,12.5-4.9,17.8-9.2c3.2-2.6,6-5.6,7.4-9.5c1.3-3.4,0.7-5.9-2.2-8c-2.1-1.6-4.5-2.9-6.8-4.1
			c-6.5-3.3-12.9-6.9-18.6-11.6c-7.4-6.1-13.7-13-17.9-21.9c1.2-0.8,2.3-1.6,3.5-2.3C1280.3,362.5,1291.4,352,1299.7,338.7z
			 M1199.7,332.9c-5.9,0-10.5-4.7-10.5-10.7c0-5.1,0-10.2,0-15.3c0-5.1,0-10.2,0-15.3c0-6,4.6-10.6,10.5-10.7
			c5.9,0,10.6,4.6,10.6,10.6c0,10.3,0,20.5,0,30.8C1210.3,328.2,1205.5,332.9,1199.7,332.9z M1257.5,332.8c-5,0.6-9.9-3-11.1-8.1
			c-0.2-0.8-0.3-1.7-0.3-2.5c0-10.3,0-20.5,0-30.8c0-5.5,4.1-10,9.4-10.5c5.6-0.5,10.4,3,11.5,8.5c0.2,0.8,0.2,1.6,0.2,2.4
			c0,5,0,10.1,0,15.1c0,5.2,0,10.4,0,15.6C1267.1,328,1263.2,332.2,1257.5,332.8z"/>
		<path class="st1" d="M1545,2.9c-13.1,7-23.1,17.3-30.8,30c-5.3,8.7-8.7,18.1-9.9,28.3c-1.1,9.1,0.5,18,3.2,26.7
			c4.7,15,12.7,27.9,23.5,39.2c1,1,1.9,2.1,2.8,3.1c-6.3,7.5-14.2,12.6-22.9,16.6c-6.7,3.1-13.7,4.9-20.9,6.4
			c-2.6,0.6-5.2,1.3-7.7,2.3c-3.4,1.3-4.6,3.6-4.2,7.2c0.4,4.2,2.3,7.8,4.8,11.1c4,5.5,9.2,9.7,14.8,13.4c6.3,4.2,12.7,8,19.9,10.3
			c10.4,3.4,20.4,2.4,29.5-3.8c5.2-3.5,9.9-7.7,14.7-11.7c3-2.4,5.9-4.9,8.6-7.6c4-3.9,8.6-4.5,13.7-3.4c6.1,1.3,11.6,4.2,16.9,7.4
			c2.5,1.5,5,3.2,7.2,5.1c5.2,4.3,6.2,10,3.3,16c-2.5,5.1-4.8,10.4-6.3,15.9c-1.8,6.8,0.7,11.7,7.2,14.4c6.1,2.5,12.2,4.7,18.6,6.3
			c5.8,1.5,11.7,2.4,17.7,2.4c5.6,0,9.9-2.2,13.4-6.5c4.7-5.8,8.6-12.2,11.8-18.9c2.9-5.9,5.3-12,8.1-18c2.1-4.6,4.5-9.1,6.7-13.6
			c4.9-9.9,9.9-19.8,15.9-29.2c4.8-7.6,10.5-14.5,16.2-21.5c10.2-12.3,20.3-24.7,29.3-38c4.3-6.4,8.4-12.9,11.3-20.1
			c2.1-5.2,3.6-10.5,2.9-16.2c-0.4-3.5-1.5-6.7-3.7-9.5c-7.5-9.4-14.9-18.9-23.3-27.5c-4-4.1-8.1-7.9-13.1-10.7
			c-3-1.7-6.1-2.5-9.6-1.9c-3.2,0.5-5.7,2.2-7.3,5.1c-1.6,2.9-3.2,5.8-4.8,8.7c-0.5,1-1.2,1.9-1.9,2.8c-2.6,3-5.9,3.5-9.3,1.4
			c-11.3-7.3-23.3-13.3-35.8-18.1c-5.1-2-10.4-3.6-15.7-5h-92.7C1546.7,2,1545.8,2.4,1545,2.9z M1598.1,94.6
			c2.6-9.9,5.2-19.9,7.9-29.8c1.5-5.8,7.3-9.1,12.9-7.5c5.7,1.5,8.9,7.2,7.4,13c-1.3,4.9-2.6,9.9-3.9,14.8
			c-1.3,4.9-2.6,9.9-3.9,14.8c-1.5,5.7-7.2,9.1-12.9,7.7C1600,106.1,1596.7,100.4,1598.1,94.6z M1564.9,43.1c5,1.8,7.7,7.2,6.4,12.6
			c-2.6,9.9-5.2,19.9-7.9,29.8c-0.2,0.8-0.5,1.6-0.9,2.3c-2.5,4.6-8.1,6.8-12.8,5c-5.3-2.1-8-7.1-6.7-12.5c1.3-5,2.6-10,4-15.1
			c1.3-4.9,2.6-9.7,3.9-14.6c0.2-0.8,0.4-1.5,0.8-2.3C1554.1,43.4,1559.7,41.2,1564.9,43.1z"/>
		<path class="st1" d="M260.1,478.3c-2.4-5.4-0.1-11.5,5.2-13.9c5.3-2.4,11.5-0.2,14,5.1c2.2,4.7,4.3,9.5,6.4,14.3
			c1,2.2,2,4.5,3,6.7h87.4c1.6-4.6,2.6-9.4,2.9-14.5c0.3-6-0.9-11.7-2.2-17.5c-0.3-1.3-0.4-2.7-0.9-4c-2.8-6.2-6.4-12.1-10.5-17.5
			c-10-13.1-22.3-23.2-37.4-29.8c-12.1-5.3-25-7.7-38.2-8.4c-25.2-1.3-49.4,3.7-72.8,12.6c-6.1,2.3-11.9,5.2-17.8,8.1
			c-12,6-23.3,13.1-33.6,21.8c-16.4,13.8-27.5,30.3-33.6,49.2h133.7C263.7,486.5,261.9,482.4,260.1,478.3z M317.7,441
			c5.2-2.1,11.1,0.3,13.4,5.3c4.3,9.6,8.6,19.1,12.8,28.7c2.2,5.1,0,11.1-5,13.5c-5.1,2.5-11.2,0.5-13.8-4.4c-0.2-0.3-0.4-0.6-0.5-1
			c-2.1-4.7-4.2-9.3-6.3-14c0,0,0,0,0.1,0c-2.2-5-4.6-9.9-6.6-14.9C309.7,449,312.5,443.1,317.7,441z"/>
		<path class="st1" d="M1693.1,9c0.5-0.9,0.9-1.7,1.3-2.4c1-1.8,2-3.4,3.2-5h-18.2c4.3,2.1,8.5,4.4,12.6,6.8
			C1692.4,8.6,1692.8,8.8,1693.1,9z"/>
		<path class="st1" d="M1880.8,423c-10.1-9.5-15.1-21.5-16.6-35.1c-0.6-5.7-0.7-11.5-1-17.2c0-0.6-0.1-1-0.8-1.2
			c-6.6-2.1-12.6-5.7-18.3-9.6c-12.7-8.9-20.2-20.9-21.5-36.5c-0.9-10.7,1.1-21,5.2-30.9c2.3-5.8,5.9-10.8,10.8-14.6
			c7.1-5.5,15.3-7.3,24.2-6.5c2.3,0.2,4.6,0.6,7,0.9c0.1-3.1,0.2-6.1,0.4-9.1c1.1-13.6,4.5-26.6,10.3-38.9
			c4.8-10.2,10.9-19.5,18.8-27.6c6.1-6.2,12.7-11.7,19.8-16.5v-41.6V1.6h-179.7c3.1,2.5,6,5.4,8.9,8.3c8.9,9.2,16.8,19.2,24.6,29.3
			c4.1,5.3,6.2,11.6,6.4,18.4c0.2,7.3-1.7,14.2-4.5,20.9c-3.4,8.2-8,15.8-13,23.1c-9,13.1-19,25.4-29.2,37.6
			c-6.8,8.2-13.7,16.5-18.8,25.9c-4.6,8.3-8.8,16.8-13.2,25.2c-1.7,3.4-3.6,6.7-5.1,10.2c-3.1,7.6-6.4,15.2-10.2,22.4
			c-3.7,7-7.9,13.6-13.2,19.6c-5.5,6.2-12.3,9.5-20.7,9.9c-6.9,0.3-13.6-0.5-20.3-2c-7.6-1.7-14.9-4.2-22.1-7
			c-4-1.6-7.7-3.6-10.7-6.8c-4.6-4.8-7.5-10.2-7.4-17c0.1-4.6,1.4-8.9,3-13.1c1.5-4,3.3-7.9,4.9-11.8c0.2-0.5,0.5-0.9-0.1-1.3
			c-5-3.6-10.4-6.6-16.3-8.4c-1.1-0.3-2-0.1-2.9,0.7c-6.4,5.5-12.7,11.1-19.2,16.4c-5.3,4.3-11.2,7.7-17.9,9.6
			c-8.7,2.4-17.3,2.5-25.9,0.1c-8.6-2.3-16.3-6.4-23.7-11.2c-7-4.6-13.6-9.6-19-16.2c-4.5-5.6-8.1-11.7-9.1-19
			c-1.1-8.6,1.4-15.8,8.8-20.8c3-2.1,6.4-3.2,9.9-4.1c5-1.2,10-2.3,14.9-3.7c5.7-1.6,11-4.3,16.1-7.6c-0.4-0.5-0.6-0.8-0.9-1.1
			c-8.9-10.8-15-23.1-19.3-36.3c-6.2-19-5.1-37.7,3-55.9c4.3-9.7,10.2-18.4,17.3-26.3c2.5-2.8,5.1-5.4,7.9-7.8H1187
			c-5.1,10.2-11.6,19.7-19.8,28.2c-8.9,9.1-18.9,16.8-30.2,22.5c-15.8,7.9-32.7,11.7-50.1,13.9c-9.2,1.2-18.5,1.7-27.7,1.7
			c-10.4,0-20.8-0.6-31.1-2.3c-2.1-0.4-4.2-0.7-6.4-1.1c-0.1,2-0.1,3.8-0.3,5.6c-1,9.9-5.5,17.5-14.3,22.5
			c-6.5,3.7-13.5,5.9-20.8,7.4c-8.6,1.9-17.4,2.5-26.2,2c-7.7-0.4-15.1-2.3-22.5-4.6c-8-2.6-15.3-6.5-21.4-12.3
			c-10.1-9.5-15.1-21.5-16.6-35.1c-0.6-5.7-0.7-11.5-1-17.2c0-0.6-0.1-1-0.8-1.2c-6.6-2.1-12.6-5.7-18.3-9.6
			c-7.9-5.5-13.8-12.2-17.4-20.3H656.8c2.9,4.3,5.5,8.8,7.8,13.6c7.4,15.6,9.6,32,7.4,49.1c-1.3,10.5-4.2,20.6-8.7,30.2
			c-8.6,18-22.1,30.9-40.6,38.6c-12.9,5.3-26.1,8.7-40.1,8.9c-0.4,0-0.9,0-1.4,0.1c0.8,6,2.2,11.8,4.7,17.2
			c2.1,4.6,4.6,9.1,6.8,13.7c1.6,3.2,2.9,6.6,3.3,10.2c1,8.9-2.8,15.5-10.1,20.2c-6.2,4-13.1,5.3-20.3,5.4
			c-8.4,0.2-16.6-1.5-24.6-3.9c-8.5-2.5-16.6-5.8-23.9-10.7c-7.4-5-12.9-11.6-16.7-19.8c-3-6.3-4.2-13-4.4-19.9
			c-0.2-8.4-0.1-16.8,0-25.3c0-1.2-0.4-2-1.4-2.6c-5.2-3.4-11-5.5-17-7c-0.7-0.2-0.9,0.3-1.1,0.8c-1.9,3.8-3.7,7.7-5.8,11.4
			c-2.2,4-4.6,7.8-8.1,10.8c-5.1,4.5-11.1,5.8-17.7,5.4c-4.4-0.2-8.3-1.7-12.1-3.8c-6.9-3.6-13.5-7.6-19.7-12.3
			c-5.5-4.1-10.5-8.7-14.7-14.1c-5.1-6.6-6.9-13.9-5.8-22.2c1.1-7.9,3.4-15.4,6.3-22.8c3-7.7,6.7-15,10.4-22.3c1.7-3.4,3-7,4.4-10.5
			c3.6-8.8,7.3-17.5,10.6-26.4c1.5-4,2.7-8,3.7-12.1H-1.1v69.9c1.1-0.2,2.3-0.3,3.5-0.4c9-0.4,16.7,3,23.4,8.8
			c1.8,1.5,3.4,3.2,5.2,4.8c1.9-2.4,3.7-4.9,5.6-7.2c8.8-10.4,19.1-19,31-25.7c9.8-5.5,20.2-9.6,31.3-11.6
			c14.8-2.7,29.6-2.5,44.5-0.3c23,3.4,44.4,11.4,64.8,22.5c1.3,0.7,2.7,1.4,4,2.1c4.9,3.2,9.8,6.4,14.7,9.6c1.8,1.4,3.6,2.7,5.4,4.1
			c13.9,10.4,26.6,22.1,36.9,36.3c15,20.6,22.2,43.8,22.9,69.2c0.5,19.8-3.5,38.6-11.6,56.6c-1.7,3.7-3.7,7.3-5.5,10.9
			c-0.2,0.3-0.3,0.6-0.4,1c-2.4,3.8-4.9,7.5-7.3,11.3c-0.2,0.2-0.4,0.3-0.6,0.6c-5.4,7.4-11.6,14.2-18.5,20.3
			c-17.1,15.3-36.4,26.2-59.2,30.4c-12.5,2.3-25.1,2.7-37.7,0.8c-17.4-2.7-33.4-9.5-48.8-17.8c-8.2-4.4-16-9.3-23.6-14.7
			c-8.5-6.1-16.6-12.6-24-20c-1.5-1.5-3-3-4.5-4.6c-1.2,1.5-2.3,3-3.5,4.4c-6.6,7.4-14.7,11.1-24.7,10c-7.4-0.8-14.4-3.1-21.2-6
			c-0.7-0.3-1.4-0.6-2-0.9v224.9h118.3c5.6-19.7,15.5-37.2,30.5-52.1c12.4-12.3,26.8-21.9,42.2-30c2-1.1,4-2.1,6-3.2
			c5.3-2.4,10.7-4.8,16-7.1c1.4-0.5,2.9-0.9,4.3-1.4c21.9-7.7,44.3-12.3,67.5-12c15,0.2,29.7,2.4,43.9,7.3
			c10.7,3.7,20.3,9.4,29.1,16.4c10.7,8.4,19.5,18.5,26.6,30.2c1.6,2.6,2.9,5.3,4.4,8c2-1.3,3.9-2.7,5.8-3.9c7.6-4.7,15.7-6.8,24.5-5
			c6.1,1.2,11.5,4.2,16.1,8.3c8,7.1,14.4,15.4,18.4,25.4c2.6,6.5,3.7,12.9,3.5,19.2h197.7c-6.2-2.5-12.2-5.4-18-8.9
			c-10.9-6.6-20.2-15.1-28.3-24.9c-14.7-17.9-22.5-38.7-25.6-61.4c-1.3-9.1-1.6-18.3-1-27.5c0-0.3-0.1-0.5-0.1-0.8
			c0.6-4.4,1.1-8.9,1.7-13.3c0.1-0.3,0.2-0.7,0.3-1c0.9-4,1.7-8,2.8-11.9c5.5-18.9,14.5-35.9,27.7-50.7c16.9-19,37.3-32,62.1-38.1
			c17-4.1,34.2-4.9,51.6-3.9c2.3,0.1,4.5,0.2,6.8,0.4c5.8,0.7,11.6,1.4,17.4,2.2c1.5,0.3,2.9,0.7,4.4,1c22.7,4.7,44.2,12.4,64,24.6
			c12.8,7.9,24.2,17.4,33.8,29c7.2,8.7,12.5,18.5,16.5,29.1c4.8,12.8,7.1,26,7.1,39.6c0,3-0.2,6.1-0.3,9.1c2.4-0.1,4.7-0.3,7-0.3
			c8.9-0.1,16.9,2.3,23.5,8.4c4.6,4.2,7.7,9.5,9.5,15.4c3.2,10.2,4.4,20.6,2.6,31.2c-2.6,15.4-11.1,26.8-24.5,34.6
			c-6,3.5-12.2,6.5-19,8.1c-0.7,0.2-0.8,0.6-0.9,1.2c-0.4,2.9-0.7,5.9-1.1,8.8h517.1c5.4-18.1,14.5-34.4,28-48.5
			c12.1-12.6,26.2-22.5,41.4-31c2-1.1,3.9-2.2,5.9-3.3c5.3-2.5,10.5-5,15.8-7.5c1.4-0.5,2.8-1,4.3-1.5c21.7-8.2,44-13.3,67.2-13.7
			c15-0.2,29.7,1.6,44,6.3c10.8,3.5,20.5,8.9,29.5,15.7c10.9,8.2,20,18.1,27.3,29.6c1.6,2.6,3.1,5.2,4.6,7.9c1.9-1.4,3.8-2.8,5.7-4
			c7.4-4.8,15.5-7.2,24.4-5.6c6.1,1.1,11.6,3.9,16.3,7.9c8.2,6.9,14.8,15,19,24.9c3.3,7.8,4.5,15.4,3.8,23h190.7v-51.2
			c-5.7-0.8-11.3-2.3-16.8-4.1C1894.2,432.7,1886.9,428.8,1880.8,423z M1296.5,388.3c4.4,2.6,9,4.9,13.4,7.4
			c3.2,1.7,6.2,3.7,8.5,6.5c5.9,6.8,6.5,14.3,3.2,22.4c-2.8,6.8-7.8,11.8-13.6,16.1c-6.8,5-14.5,8.2-22.4,10.8
			c-8.4,2.7-16.9,4.7-25.8,4.8c-8.9,0.1-17.2-2.2-25-6.7c-6-3.5-10.9-8.3-14.9-13.8c-5-6.8-9.7-13.8-14.4-20.7
			c-0.7-1-1.5-1.4-2.6-1.4c-6.2,0.2-12.1,1.8-17.9,3.9c-0.7,0.3-0.6,0.7-0.5,1.3c0.6,4.2,1.3,8.4,1.7,12.7c0.5,4.5,0.6,9-0.5,13.5
			c-1.6,6.6-5.8,11.1-11.5,14.6c-3.7,2.3-7.8,3.3-12.1,3.8c-7.7,0.9-15.4,1.5-23.2,1.2c-6.8-0.3-13.6-1.1-20.2-3.2
			c-8-2.5-13.7-7.5-17.4-14.9c-3.6-7.1-6-14.6-7.8-22.3c-1.9-8-3.1-16.1-4.2-24.3c-0.5-3.7-1.5-7.4-2.3-11.1
			c-2.1-9.3-4-18.6-6.3-27.8c-2.6-10.4-7.1-20.1-11.6-29.8c-6.7-14.4-13.3-28.8-18.6-43.8c-3-8.4-5.5-16.8-6.7-25.7
			c-1-7.2-1.1-14.3,1-21.4c1.9-6.5,5.5-12,10.9-16.1c10.1-7.8,20.3-15.4,31.2-22c6.2-3.7,12.5-7.1,19.6-8.8
			c8.9-2.1,17.3-0.8,24.7,4.9c4.7,3.6,7,8.8,8.4,14.4c0.2,0.8,0.4,1.7,0.7,2.7c0.4-0.1,0.8-0.2,1.2-0.3c12.5-3.5,25.2-5.8,38.1-6.9
			c10.3-0.9,20.5-0.6,30.8-0.1c8.7,0.4,17.3,1.3,25.8,2.7c15.1,2.6,29.6,6.8,43,14.4c15,8.6,26.1,20.8,34,36.1
			c4.9,9.4,8.4,19.3,10.1,29.8c3.3,19.7-0.5,38-11.3,54.9c-7.5,11.7-16.5,22-27.9,30.2c-0.4,0.3-0.7,0.5-1.1,0.9
			C1287,381.4,1291.4,385.3,1296.5,388.3z"/>
		<path class="st1" d="M861.8,471.5c0.3-2.1,0.1-2.1,2.2-2.6c0.7-0.1,1.4-0.3,2.1-0.5c8.4-1.6,16.2-4.6,23.4-9.2
			c7.9-5.1,13.3-12,15.5-21.2c2.3-9.7,1.1-19.2-2.2-28.4c-2.8-7.9-8.6-12.3-17.2-12.7c-4.4-0.2-8.7,0.4-13,1.2
			c-0.8,0.1-1.1,0.5-1.4,1.2c-2.9,6.8-6.5,13.1-11.2,18.9c-5.7,7-12.5,12.6-21,16.1c-9.3,3.8-19,5.9-29,7
			c-11.8,1.2-23.5,0.7-35.3-0.2c-9.6-0.8-19.3-2-28.7-4.2c-8.7-2-17.3-4.4-25.9-6.8c-13.3-3.7-25.8-9.3-37.5-16.7
			c-4.9-3.1-9.4-6.7-13.3-10.9c-2.8-3-2.7-7.3,0.2-10c2.8-2.7,7.2-2.6,9.9,0.2c4.5,4.7,9.7,8.4,15.3,11.6
			c9.5,5.4,19.7,9.5,30.2,12.6c12.2,3.6,24.6,6.4,37.2,8.2c12.2,1.7,24.5,2.6,36.8,2.8c9.4,0.2,18.6-0.8,27.5-3.6
			c11.5-3.7,20.7-10.4,27.5-20.3c3.4-4.9,5.3-10.5,7.2-16.1c0.4-1.3,1.1-2.5,1.3-3.8c0.8-6.8,0.8-13.6,0.1-20.4
			c-1.8-16.3-7.1-31.4-16.6-44.9c-7.6-10.8-17.4-19.5-28.4-26.9c-20.9-14.2-44.2-22.4-68.9-26.9c-6.4-1.2-12.9-1.7-19.4-2.2
			c-13.4-1.1-26.7-0.8-40,1.3c-32.3,5.1-57.2,21.9-75.3,48.7c-13.1,19.5-19.3,41.4-19.1,65c0.1,14.4,2.5,28.4,7.5,42
			c7.9,21.3,21.7,38.1,40.9,50.2c12.4,7.8,26.2,12,40.3,15.3c10.6,2.5,21.3,4,32.2,4.8c12.8,0.9,25.6,0.7,38.3-1.3
			c5.3-0.9,10.5-1.9,16-2.9c-0.6,1.7-1.2,3.4-1.8,5.1h91.3C860.4,484.3,861,477.9,861.8,471.5z M803.5,382.8c0-0.4,0-0.7,0.1-1.1
			c0.6-5.1,1.3-10.2,1.9-15.2c0,0,0.1,0,0.1,0c0.7-5.4,1.2-10.8,2.1-16.2c0.9-5.5,6.3-9.1,11.9-8.2c5.5,0.9,9.4,6,8.7,11.5
			c-1.3,10.4-2.6,20.8-3.9,31.2c-0.7,5.5-5.8,9.5-11.3,9C807.4,393.2,803.2,388.4,803.5,382.8z M747.1,374.9
			c1.3-10.2,2.5-20.4,3.8-30.6c0.7-5.8,5.9-9.9,11.6-9.3c5.8,0.7,9.9,5.8,9.3,11.6c-0.6,5.2-1.3,10.4-1.9,15.6
			c-0.6,5.1-1.2,10.2-1.9,15.3c-0.6,4.3-3.1,7.4-7.2,8.7c-4.2,1.3-8,0.3-11-3C747.5,380.9,746.7,378,747.1,374.9z"/>
		<path class="st1" d="M21.8,258.4c6.7,1.3,11.8-1.2,15.7-6.5c2.3-3.1,3.5-6.8,4.9-10.4c1.3-3.3,2.5-6.5,3.9-10
			c3.6,4.3,6.9,8.5,10.4,12.5c8.4,9.8,18,18.2,28.4,25.8c8.8,6.4,18,12.2,27.7,17.1c12.9,6.6,26.2,12.3,40.7,14.3
			c22.5,3.2,43.8-0.7,63.6-11.9c12.6-7.1,23.4-16.3,32.8-27.2c15.4-17.9,24.7-38.6,27.3-62c3.6-32.1-4.7-61-26-85.8
			c-8.8-10.2-18.8-19-29.7-26.8c-5.3-3.8-10.6-7.6-16.3-10.8c-21.8-12.5-44.8-21.3-70-23.9c-13.1-1.4-26.2-1.1-39,2.2
			c-15.9,4.2-29.7,12.2-41.7,23.6c-5,4.7-9.4,9.9-13.1,15.6c-0.7,1.1-1,2.5-1.5,3.8c-2.1,5.5-4.3,11-4.9,17
			c-1.3,12,1.4,23.1,7.9,33.3c5,8,11.4,14.6,18.7,20.5c9.6,7.8,19.5,15,29.9,21.6c10.7,6.8,22,12.7,33.7,17.8
			c10.1,4.4,20.4,7.8,31.2,9.8c6.4,1.2,12.7,1.7,19.2,1c3.9-0.4,7.3,2.4,7.7,6.2c0.4,3.9-2.3,7.2-6.3,7.8
			c-5.7,0.7-11.5,0.5-17.2-0.2c-13.7-1.9-26.8-5.7-39.4-11.4c-8.1-3.7-16.3-7.5-24.2-11.5c-8.6-4.4-16.7-9.7-24.6-15.3
			c-9.6-6.8-18.9-14.1-27.1-22.6c-7-7.2-13-15.1-17.7-24c-4.2-8.1-5.8-16.8-5.7-25.8c0.1-7.4,1.4-14.6,3.6-21.7
			c0.2-0.7,0.2-1.2-0.3-1.8c-2.8-3.3-5.7-6.6-9.1-9.3c-5.2-4-10.7-5.2-16.3-3.6v164.2C6,253.9,13.6,256.9,21.8,258.4z M104.8,104
			c-2.8,4.7-5.9,9.1-8.9,13.7c0,0,0,0,0.1,0c-2.8,4.3-5.6,8.6-8.4,12.9c-0.2,0.3-0.4,0.6-0.7,0.9c-3.4,4.5-9.7,5.4-14.4,2.2
			c-4.6-3.2-5.9-9.5-2.8-14.1c5.7-8.8,11.4-17.6,17.2-26.3c3-4.6,9.3-6,14.1-3.1C105.8,93,107.6,99.2,104.8,104z M152,136
			c-5.6,8.6-11.2,17.2-16.8,25.8c-1.8,2.7-4.2,4.4-7.4,4.7c-4.4,0.5-8-1.1-10.3-4.8c-2.3-3.7-2.3-7.6,0.1-11.3
			c2.7-4.4,5.6-8.6,8.4-13c2.9-4.4,5.7-8.8,8.6-13.1c3.3-4.9,9.7-6.1,14.6-2.9C153.9,124.6,155.2,131.1,152,136z"/>
		<path class="st1" d="M439.5,11.9c-3.3,10.6-7.6,20.8-11.9,31c-2,4.7-3.9,9.4-6,14c-2.7,6-5.8,11.8-8.4,17.9
			c-3,6.8-5.4,13.9-6.7,21.3c-1,5.4,0.1,10.1,3.7,14.4c3.9,4.6,8.5,8.5,13.4,11.9c5.3,3.8,11,7.1,16.8,10.1
			c6.3,3.2,11.7,1.9,15.7-3.9c3.2-4.7,5.7-9.9,8-15.1c2.7-6.2,7.7-9,14.3-7.9c2.9,0.5,5.8,1.3,8.6,2.2c5.9,2,11.6,4.3,16.6,8.1
			c4.2,3.2,6.8,7.1,6.3,12.6c-0.3,3.8-0.3,7.7-0.2,11.5c0.1,6.3,0,12.6,0.7,18.8c1.2,10.9,6.9,19.2,16.3,24.9
			c6.5,4,13.5,6.4,20.8,8.5c6.5,1.8,13.1,3.1,19.8,2.6c4.1-0.3,8.1-1.2,11.5-3.6c3-2.1,3.9-4.4,2.7-7.9c-0.9-2.5-2-5-3.3-7.3
			c-3.5-6.5-6.7-13-8.7-20.1c-2.6-9.2-3.8-18.5-2.2-28.2c1.4,0,2.8,0.1,4.2,0.1c15.6,0.9,30.7-1.4,45.1-7.5
			c8.4-3.6,16.1-8.2,22.4-14.9c7-7.5,11.9-16.2,15.1-25.9c4.6-14,6-28.3,2.8-42.9C654.1,24,648,12.9,640.1,2.8
			c-0.3-0.4-0.7-0.8-1-1.2H442.2C441.5,5,440.6,8.5,439.5,11.9z M580.9,78.4c0.3-0.8,0.7-1.5,1.2-2.2c5.8-8.4,11.7-16.9,17.6-25.3
			c3.1-4.5,9.1-5.9,13.7-3.3c4.9,2.8,6.8,8.4,4.6,13.5c-0.3,0.7-0.8,1.4-1.2,2.1c-2.9,4.1-5.7,8.3-8.6,12.4c-3,4.3-5.9,8.6-8.9,12.8
			c-3.2,4.5-8.8,5.7-13.8,3C580.9,89,579,83.3,580.9,78.4z M535.3,43.7c2.9-4.2,5.8-8.4,8.8-12.6c2.9-4.2,5.8-8.4,8.8-12.6
			c3.4-4.9,9.8-6.1,14.7-2.8c4.8,3.3,6,9.8,2.6,14.7c-5.8,8.5-11.7,16.9-17.6,25.3c-3.4,4.9-10,6-14.7,2.7
			C533,55.1,531.9,48.6,535.3,43.7z"/>
		<path class="st1" d="M886,9.1c6.8,5.2,14.3,8.8,22.5,11.1c0.7,0.2,1.4,0.4,2.1,0.6c2,0.6,1.9,0.6,2,2.7c0.3,8.6,0.3,17.3,1.3,25.8
			c2.2,18.2,12.4,29.9,30.1,35.1c6,1.8,12,3.3,18.3,3.4c12.6,0.4,24.8-1.5,36.4-6.8c6.2-2.9,8.9-7.8,9-14.4c0.1-3.9-1.1-7.6-2-11.3
			c-0.9-3.4-1.7-6.8-2.6-10.4c5.4,1.4,10.6,2.9,15.7,4.2c12.5,3.1,25.2,4.4,38.1,4.5c10.9,0.1,21.7-0.5,32.5-2.1
			c14.4-2.1,28.5-5.2,41.5-12c17.2-9,30.8-21.7,40.4-38.1H878.4C880.5,4.4,883,6.9,886,9.1z"/>
		<path class="st1" d="M440.4,478.9c-3.1-9.4-8.9-17-16.5-23.2c-6.5-5.3-13.8-6.1-21.3-2c-3.9,2.1-7.2,4.9-10.5,7.7
			c-0.6,0.5-0.7,1-0.6,1.8c1.1,7.3,1.2,14.6,0.2,21.9c-0.3,1.8-0.6,3.6-1,5.4H442C442.2,486.7,441.7,482.8,440.4,478.9z"/>
		<path class="st1" d="M1532.2,479.2c-2.5-5.3-0.4-11.5,4.8-14.1c5.2-2.5,11.5-0.5,14.1,4.8c2.3,4.7,4.5,9.4,6.8,14.2
			c1,2.2,2.1,4.3,3.1,6.5h86.8c1.9-5.2,3-10.7,3.2-16.5c0.2-6-1.2-11.7-2.6-17.5c-0.3-1.3-0.4-2.7-1-3.9c-3-6.2-6.7-11.9-10.9-17.3
			c-10.3-12.8-22.9-22.7-38.1-28.9c-12.3-5-25.2-7-38.4-7.4c-25.3-0.7-49.3,4.9-72.5,14.4c-6,2.5-11.8,5.5-17.6,8.5
			c-11.9,6.3-23,13.7-33,22.6c-14.9,13.2-25.2,28.7-31.2,46h132C1535.8,486.8,1534,483,1532.2,479.2z M1588.9,440.4
			c5.1-2.2,11.1,0,13.5,5c4.5,9.4,9,18.9,13.5,28.4c2.4,5,0.2,11.1-4.7,13.6c-5.1,2.6-11.2,0.8-13.9-4.1c-0.2-0.3-0.4-0.6-0.5-0.9
			c-2.2-4.6-4.4-9.2-6.6-13.9c0,0,0,0,0.1,0c-2.3-4.9-4.8-9.8-7-14.7C1581.1,448.7,1583.7,442.7,1588.9,440.4z"/>
		<path class="st1" d="M1712.5,475.4c-3.3-9.4-9.4-16.8-17.1-22.8c-6.7-5.2-13.9-5.8-21.4-1.5c-3.8,2.2-7.1,5-10.3,8
			c-0.6,0.5-0.7,1-0.6,1.8c1.2,7.3,1.6,14.6,0.7,21.9c-0.3,2.6-0.8,5.2-1.4,7.7h51.6C1714.7,485.6,1714.3,480.5,1712.5,475.4z"/>
		<path class="st1" d="M1902.9,326.3c-8.1-4.1-14.5-10.3-19.6-17.7c-4.2-6.1-7.3-12.7-9.6-19.7c-0.2-0.7-0.6-1.1-1.3-1.3
			c-4.2-1.1-8.4-2.1-12.8-2.3c-8.6-0.3-14.7,3.6-18.2,11.3c-4,8.9-6,18.3-4.5,28.1c1.4,9.4,6.3,16.7,13.7,22.4
			c6.8,5.2,14.3,8.8,22.5,11.1c0.7,0.2,1.4,0.4,2.1,0.6c2,0.6,1.9,0.6,2,2.7c0.3,8.6,0.3,17.3,1.3,25.8
			c2.2,18.2,12.4,29.9,30.1,35.1c3.5,1,7,2,10.6,2.6v-92.4C1913.4,331,1908.1,329,1902.9,326.3z"/>
		<path class="st1" d="M1905.6,210.4c-10.6,12.6-17.1,27.2-20.2,43.4c-1.3,6.7-1.9,13.5-1.6,20.4c0,1.3,0.6,2.6,1,3.9
			c1.5,5.7,2.9,11.5,5.8,16.7c5.9,10.5,14.6,17.9,25.7,22.5c0.9,0.4,1.8,0.7,2.7,1V197.5C1914.1,201.3,1909.7,205.6,1905.6,210.4z"
			/>
		<path class="st2" d="M1514.3,9.3c-7.1,7.9-13,16.6-17.3,26.3c-8.2,18.2-9.2,36.9-3,55.9c4.3,13.2,10.4,25.5,19.3,36.3
			c0.3,0.3,0.5,0.7,0.9,1.1c-5.1,3.3-10.4,6-16.1,7.6c-4.9,1.4-9.9,2.5-14.9,3.7c-3.5,0.9-6.9,2-9.9,4.1c-7.4,5-10,12.2-8.8,20.8
			c1,7.3,4.5,13.4,9.1,19c5.3,6.6,11.9,11.6,19,16.2c7.4,4.8,15.2,8.9,23.7,11.2c8.6,2.4,17.2,2.3,25.9-0.1
			c6.7-1.9,12.6-5.3,17.9-9.6c6.5-5.3,12.9-10.9,19.2-16.4c0.9-0.8,1.8-1,2.9-0.7c6,1.8,11.3,4.8,16.3,8.4c0.6,0.4,0.3,0.9,0.1,1.3
			c-1.7,3.9-3.4,7.8-4.9,11.8c-1.6,4.2-2.9,8.6-3,13.1c-0.1,6.8,2.8,12.2,7.4,17c3,3.2,6.7,5.2,10.7,6.8c7.2,2.9,14.5,5.3,22.1,7
			c6.7,1.5,13.4,2.4,20.3,2c8.3-0.4,15.1-3.8,20.7-9.9c5.3-5.9,9.5-12.6,13.2-19.6c3.9-7.3,7.1-14.8,10.2-22.4
			c1.4-3.5,3.3-6.8,5.1-10.2c4.4-8.4,8.6-16.9,13.2-25.2c5.2-9.4,12-17.7,18.8-25.9c10.2-12.2,20.2-24.5,29.2-37.6
			c5-7.3,9.6-14.9,13-23.1c2.8-6.7,4.7-13.6,4.5-20.9c-0.2-6.8-2.2-13-6.4-18.4C1764.9,29,1757,19,1748.1,9.9
			c-2.8-2.9-5.7-5.7-8.9-8.3h-41.5c-1.2,1.5-2.3,3.2-3.2,5c-0.4,0.8-0.8,1.5-1.3,2.4c-0.4-0.2-0.7-0.4-1-0.6
			c-4.1-2.4-8.3-4.7-12.6-6.8h-39.2c5.3,1.4,10.5,3.1,15.7,5c12.6,4.8,24.5,10.8,35.8,18.1c3.3,2.2,6.7,1.7,9.3-1.4
			c0.7-0.8,1.3-1.8,1.9-2.8c1.6-2.9,3.1-5.8,4.8-8.7c1.6-2.8,4.1-4.5,7.3-5.1c3.4-0.6,6.6,0.2,9.6,1.9c5,2.8,9.1,6.7,13.1,10.7
			c8.4,8.6,15.8,18.1,23.3,27.5c2.2,2.8,3.3,6,3.7,9.5c0.6,5.7-0.8,11-2.9,16.2c-2.9,7.2-6.9,13.7-11.3,20.1
			c-9,13.2-19.2,25.6-29.3,38c-5.7,6.9-11.4,13.8-16.2,21.5c-5.9,9.4-10.9,19.3-15.9,29.2c-2.2,4.5-4.6,9-6.7,13.6
			c-2.8,6-5.2,12.1-8.1,18c-3.3,6.7-7.1,13.1-11.8,18.9c-3.5,4.3-7.8,6.5-13.4,6.5c-6,0-11.9-1-17.7-2.4c-6.4-1.6-12.5-3.8-18.6-6.3
			c-6.6-2.7-9.1-7.6-7.2-14.4c1.5-5.5,3.8-10.8,6.3-15.9c2.9-6.1,1.9-11.7-3.3-16c-2.3-1.9-4.7-3.5-7.2-5.1
			c-5.3-3.2-10.8-6-16.9-7.4c-5.1-1.1-9.8-0.6-13.7,3.4c-2.7,2.7-5.7,5.2-8.6,7.6c-4.8,4-9.6,8.2-14.7,11.7
			c-9.1,6.2-19.1,7.2-29.5,3.8c-7.2-2.3-13.7-6.1-19.9-10.3c-5.6-3.8-10.8-7.9-14.8-13.4c-2.4-3.3-4.3-6.9-4.8-11.1
			c-0.4-3.6,0.8-5.9,4.2-7.2c2.5-1,5.1-1.7,7.7-2.3c7.2-1.6,14.2-3.4,20.9-6.4c8.7-4,16.6-9.1,22.9-16.6c-1-1-1.9-2.1-2.8-3.1
			c-10.8-11.3-18.9-24.2-23.5-39.2c-2.7-8.7-4.2-17.5-3.2-26.7c1.2-10.1,4.6-19.5,9.9-28.3c7.7-12.6,17.7-22.9,30.8-30
			c0.9-0.5,1.8-0.9,2.6-1.3h-25.5C1519.4,4,1516.8,6.6,1514.3,9.3z"/>
		<path class="st2" d="M1605.7,107.6c5.7,1.5,11.3-1.9,12.9-7.7c1.3-4.9,2.6-9.9,3.9-14.8c1.3-4.9,2.6-9.9,3.9-14.8
			c1.5-5.8-1.7-11.5-7.4-13c-5.7-1.5-11.4,1.8-12.9,7.5c-2.6,9.9-5.3,19.9-7.9,29.8C1596.7,100.4,1600,106.1,1605.7,107.6z"/>
		<path class="st2" d="M1547,65.2c-1.3,5-2.7,10-4,15.1c-1.4,5.4,1.4,10.4,6.7,12.5c4.7,1.8,10.3-0.3,12.8-5
			c0.4-0.7,0.7-1.5,0.9-2.3c2.6-9.9,5.3-19.9,7.9-29.8c1.4-5.3-1.4-10.7-6.4-12.6c-5.3-1.9-10.8,0.3-13.3,5.3
			c-0.3,0.7-0.6,1.5-0.8,2.3C1549.6,55.5,1548.3,60.4,1547,65.2z"/>
		<path class="st2" d="M413.5,40.1c-1.4,3.5-2.7,7.1-4.4,10.5c-3.8,7.3-7.4,14.7-10.4,22.3c-2.9,7.4-5.2,14.9-6.3,22.8
			c-1.1,8.2,0.7,15.6,5.8,22.2c4.2,5.5,9.3,10,14.7,14.1c6.2,4.7,12.9,8.6,19.7,12.3c3.8,2,7.8,3.5,12.1,3.8
			c6.6,0.4,12.7-0.9,17.7-5.4c3.4-3,5.9-6.8,8.1-10.8c2-3.7,3.9-7.6,5.8-11.4c0.2-0.5,0.4-0.9,1.1-0.8c6,1.5,11.8,3.6,17,7
			c1,0.6,1.4,1.4,1.4,2.6c-0.1,8.4-0.2,16.9,0,25.3c0.2,6.9,1.4,13.5,4.4,19.9c3.8,8.1,9.3,14.7,16.7,19.8c7.3,5,15.5,8.2,23.9,10.7
			c8,2.4,16.2,4.2,24.6,3.9c7.2-0.2,14.2-1.5,20.3-5.4c7.3-4.7,11.1-11.3,10.1-20.2c-0.4-3.6-1.7-7-3.3-10.2
			c-2.3-4.6-4.7-9.1-6.8-13.7c-2.5-5.4-3.9-11.1-4.7-17.2c0.6,0,1-0.1,1.4-0.1c14-0.3,27.3-3.6,40.1-8.9c18.5-7.7,32-20.6,40.6-38.6
			c4.6-9.6,7.4-19.7,8.7-30.2c2.2-17.1,0.1-33.5-7.4-49.1c-2.3-4.8-4.9-9.3-7.8-13.6h-17.7c0.3,0.4,0.7,0.8,1,1.2
			c7.9,10.2,14,21.2,16.8,33.9c3.2,14.5,1.8,28.8-2.8,42.9c-3.2,9.7-8.1,18.4-15.1,25.9c-6.2,6.7-14,11.3-22.4,14.9
			c-14.4,6.2-29.5,8.4-45.1,7.5c-1.4-0.1-2.8-0.1-4.2-0.1c-1.6,9.6-0.4,19,2.2,28.2c2,7.1,5.2,13.6,8.7,20.1
			c1.3,2.3,2.4,4.8,3.3,7.3c1.2,3.4,0.2,5.8-2.7,7.9c-3.5,2.4-7.4,3.3-11.5,3.6c-6.8,0.5-13.4-0.7-19.8-2.6
			c-7.2-2-14.3-4.5-20.8-8.5c-9.3-5.8-15.1-14-16.3-24.9c-0.7-6.2-0.6-12.5-0.7-18.8c-0.1-3.8-0.1-7.7,0.2-11.5
			c0.4-5.6-2.2-9.5-6.3-12.6c-5-3.8-10.7-6.1-16.6-8.1c-2.8-0.9-5.7-1.7-8.6-2.2c-6.6-1.2-11.6,1.7-14.3,7.9
			c-2.3,5.2-4.8,10.4-8,15.1c-4,5.8-9.3,7.1-15.7,3.9c-5.8-3-11.5-6.3-16.8-10.1c-4.9-3.5-9.4-7.3-13.4-11.9
			c-3.6-4.2-4.8-8.9-3.7-14.4c1.4-7.4,3.7-14.4,6.7-21.3c2.6-6,5.7-11.9,8.4-17.9c2.1-4.6,4-9.3,6-14c4.4-10.2,8.6-20.4,11.9-31
			c1.1-3.4,1.9-6.8,2.7-10.3h-14.4c-1,4.1-2.2,8.1-3.7,12.1C420.7,22.5,417,31.3,413.5,40.1z"/>
		<path class="st2" d="M537.8,58.5c4.8,3.3,11.3,2.2,14.7-2.7c5.9-8.4,11.7-16.9,17.6-25.3c3.4-4.9,2.2-11.4-2.6-14.7
			c-4.8-3.3-11.3-2.1-14.7,2.8c-2.9,4.2-5.8,8.4-8.8,12.6c-2.9,4.2-5.8,8.4-8.8,12.6C531.9,48.6,533,55.1,537.8,58.5z"/>
		<path class="st2" d="M585.4,91.4c5,2.7,10.6,1.5,13.8-3c3-4.2,5.9-8.5,8.9-12.8c2.9-4.1,5.7-8.3,8.6-12.4c0.5-0.7,0.9-1.3,1.2-2.1
			c2.2-5.1,0.3-10.8-4.6-13.5c-4.6-2.6-10.5-1.2-13.7,3.3c-5.9,8.4-11.7,16.9-17.6,25.3c-0.5,0.7-0.9,1.4-1.2,2.2
			C579,83.3,580.9,89,585.4,91.4z"/>
		<path class="st2" d="M1311.9,345.8c10.8-16.8,14.6-35.1,11.3-54.9c-1.7-10.5-5.2-20.4-10.1-29.8c-7.9-15.3-19-27.5-34-36.1
			c-13.4-7.7-27.9-11.9-43-14.4c-8.6-1.4-17.2-2.3-25.8-2.7c-10.3-0.5-20.5-0.7-30.8,0.1c-12.9,1.1-25.6,3.4-38.1,6.9
			c-0.4,0.1-0.7,0.2-1.2,0.3c-0.2-1-0.5-1.8-0.7-2.7c-1.4-5.6-3.7-10.7-8.4-14.4c-7.4-5.7-15.8-7-24.7-4.9
			c-7.1,1.7-13.4,5.1-19.6,8.8c-10.9,6.6-21.1,14.3-31.2,22c-5.4,4.1-8.9,9.6-10.9,16.1c-2.1,7-2,14.2-1,21.4
			c1.2,8.8,3.7,17.3,6.7,25.7c5.3,15,11.9,29.4,18.6,43.8c4.5,9.7,9,19.4,11.6,29.8c2.3,9.2,4.3,18.5,6.3,27.8
			c0.8,3.7,1.8,7.4,2.3,11.1c1.1,8.2,2.3,16.3,4.2,24.3c1.8,7.7,4.2,15.2,7.8,22.3c3.8,7.4,9.5,12.4,17.4,14.9
			c6.6,2.1,13.3,3,20.2,3.2c7.8,0.3,15.5-0.2,23.2-1.2c4.3-0.5,8.4-1.5,12.1-3.8c5.6-3.4,9.9-8,11.5-14.6c1.1-4.4,0.9-9,0.5-13.5
			c-0.5-4.2-1.2-8.5-1.7-12.7c-0.1-0.5-0.2-1,0.5-1.3c5.8-2.2,11.7-3.8,17.9-3.9c1.2,0,2,0.4,2.6,1.4c4.8,6.9,9.5,13.9,14.4,20.7
			c4.1,5.5,8.9,10.3,14.9,13.8c7.8,4.5,16.1,6.8,25,6.7c8.9-0.1,17.4-2.1,25.8-4.8c8-2.6,15.6-5.8,22.4-10.8
			c5.8-4.3,10.8-9.3,13.6-16.1c3.3-8.1,2.6-15.6-3.2-22.4c-2.4-2.8-5.4-4.7-8.5-6.5c-4.5-2.5-9-4.8-13.4-7.4c-5.1-3-9.5-7-13.6-11.5
			c0.5-0.4,0.8-0.6,1.1-0.9C1295.4,367.8,1304.4,357.5,1311.9,345.8z M1281.3,394.8c5.7,4.7,12,8.2,18.6,11.6
			c2.4,1.2,4.7,2.6,6.8,4.1c2.9,2.2,3.5,4.6,2.2,8c-1.5,4-4.2,6.9-7.4,9.5c-5.3,4.3-11.4,7-17.8,9.2c-7.1,2.5-14.3,4.5-21.9,4.9
			c-11,0.6-20.4-2.9-27.6-11.2c-4.1-4.7-7.6-10-11.3-15c-2.2-3.1-4.5-6.3-6.4-9.6c-2.8-4.8-7.2-6.5-12.4-6.8
			c-6.3-0.3-12.3,1.1-18.3,2.8c-2.8,0.8-5.6,1.8-8.3,3c-6.1,2.8-8.6,8-7.3,14.6c1.1,5.6,2,11.2,2,17c0,7-3.6,11.2-10.7,12.1
			c-6.5,0.9-13,1.4-19.6,1.3c-6-0.1-11.9-0.6-17.8-2.2c-5.4-1.4-9-4.6-11.3-9.7c-3.1-6.9-5.2-14-6.6-21.3c-1.3-6.5-2.1-13-3.2-19.5
			c-0.9-5-2-9.9-3-14.9c-2.2-10.9-4.5-21.7-7.9-32.3c-2.7-8.6-6.5-16.7-10.2-24.9c-6.7-14.5-13.4-29.1-18.7-44.2
			c-2.6-7.3-4.8-14.6-5.8-22.3c-0.7-5.6-0.8-11.1,1.3-16.4c1.3-3.3,3.2-6.1,6-8.2c9.6-7.2,19.2-14.5,29.5-20.7
			c4.9-2.9,9.9-5.6,15.4-7.1c3.3-0.9,6.6-0.8,9.7,0.6c3,1.3,4.9,3.6,5.8,6.8c0.8,3.2,1.6,6.4,2.4,9.6c0.3,1.1,0.6,2.2,1.1,3.2
			c1.7,3.6,4.8,4.9,8.6,3.7c12.8-4.1,25.9-6.9,39.3-8.4c10.3-1.1,20.7-1,31-0.6c15,0.7,29.7,2.5,44.1,7c12.3,3.8,23.6,9.4,33.2,18.3
			c10.9,10.1,17.9,22.6,22.1,36.8c2.9,9.8,3.8,19.7,2.4,29.8c-1.3,9.1-5,17.3-9.9,25c-8.3,13.3-19.4,23.7-32.8,31.9
			c-1.2,0.7-2.3,1.5-3.5,2.3C1267.6,381.8,1273.9,388.7,1281.3,394.8z"/>
		<path class="st2" d="M1199.7,280.8c-5.9,0-10.5,4.7-10.5,10.7c0,5.1,0,10.2,0,15.3c0,5.1,0,10.2,0,15.3c0,5.9,4.6,10.7,10.5,10.7
			c5.8,0,10.5-4.7,10.6-10.6c0-10.3,0-20.5,0-30.8C1210.3,285.5,1205.6,280.8,1199.7,280.8z"/>
		<path class="st2" d="M1267.2,306.8c0-5,0-10.1,0-15.1c0-0.8,0-1.6-0.2-2.4c-1.1-5.5-5.9-9-11.5-8.5c-5.3,0.5-9.3,5-9.4,10.5
			c0,10.3,0,20.5,0,30.8c0,0.8,0.1,1.7,0.3,2.5c1.2,5.1,6.1,8.7,11.1,8.1c5.7-0.7,9.6-4.9,9.6-10.4
			C1267.2,317.2,1267.2,312,1267.2,306.8z"/>
		<path class="st2" d="M1908.4,422.5c-17.6-5.2-27.9-16.9-30.1-35.1c-1-8.5-0.9-17.2-1.3-25.8c-0.1-2.1,0-2.1-2-2.7
			c-0.7-0.2-1.4-0.4-2.1-0.6c-8.2-2.3-15.8-5.9-22.5-11.1c-7.4-5.7-12.3-13-13.7-22.4c-1.5-9.8,0.4-19.2,4.5-28.1
			c3.5-7.7,9.6-11.6,18.2-11.3c4.4,0.2,8.6,1.2,12.8,2.3c0.8,0.2,1.1,0.6,1.3,1.3c2.3,7,5.4,13.6,9.6,19.7
			c5.1,7.4,11.5,13.6,19.6,17.7c5.2,2.6,10.6,4.7,16.1,6.3v-14.4c-0.9-0.3-1.8-0.7-2.7-1c-11.1-4.6-19.8-12-25.7-22.5
			c-2.9-5.2-4.4-10.9-5.8-16.7c-0.3-1.3-0.9-2.6-1-3.9c-0.2-6.8,0.3-13.6,1.6-20.4c3.1-16.1,9.7-30.7,20.2-43.4
			c4-4.8,8.5-9.1,13.3-12.9v-17.3c-7.1,4.8-13.8,10.3-19.8,16.5c-7.9,8.1-14,17.4-18.8,27.6c-5.8,12.3-9.2,25.3-10.3,38.9
			c-0.2,3-0.3,6.1-0.4,9.1c-2.3-0.3-4.6-0.7-7-0.9c-8.8-0.8-17.1,0.9-24.2,6.5c-4.9,3.8-8.4,8.8-10.8,14.6c-4,9.9-6.1,20.2-5.2,30.9
			c1.4,15.6,8.8,27.6,21.5,36.5c5.7,4,11.6,7.5,18.3,9.6c0.7,0.2,0.8,0.6,0.8,1.2c0.3,5.7,0.4,11.5,1,17.2
			c1.5,13.5,6.5,25.5,16.6,35.1c6.1,5.8,13.4,9.8,21.4,12.3c5.5,1.8,11.1,3.3,16.8,4.1v-14.3
			C1915.4,424.5,1911.9,423.5,1908.4,422.5z"/>
		<path class="st2" d="M879.5,21.9c5.7,4,11.6,7.5,18.3,9.6c0.7,0.2,0.8,0.6,0.8,1.2c0.3,5.7,0.4,11.5,1,17.2
			c1.5,13.5,6.5,25.5,16.6,35.1c6.1,5.8,13.4,9.8,21.4,12.3c7.3,2.3,14.7,4.2,22.5,4.6c8.8,0.4,17.6-0.1,26.2-2
			c7.2-1.6,14.3-3.8,20.8-7.4c8.8-5,13.3-12.6,14.3-22.5c0.2-1.8,0.2-3.7,0.3-5.6c2.1,0.4,4.3,0.7,6.4,1.1
			c10.3,1.7,20.7,2.3,31.1,2.3c9.3,0,18.5-0.5,27.7-1.7c17.4-2.2,34.3-6,50.1-13.9c11.4-5.7,21.4-13.4,30.2-22.5
			c8.3-8.5,14.8-18,19.8-28.2h-16c-9.6,16.4-23.1,29.1-40.4,38.1c-13,6.7-27.1,9.8-41.5,12c-10.8,1.6-21.6,2.2-32.5,2.1
			c-12.9-0.1-25.6-1.4-38.1-4.5c-5.2-1.3-10.3-2.7-15.7-4.2c0.9,3.6,1.8,7,2.6,10.4c0.9,3.7,2.1,7.4,2,11.3
			c-0.1,6.6-2.9,11.6-9,14.4c-11.6,5.4-23.8,7.2-36.4,6.8c-6.3-0.2-12.3-1.7-18.3-3.4c-17.6-5.2-27.9-16.9-30.1-35.1
			c-1-8.5-0.9-17.2-1.3-25.8c-0.1-2.1,0-2.1-2-2.7c-0.7-0.2-1.4-0.4-2.1-0.6c-8.2-2.3-15.8-5.9-22.5-11.1c-2.9-2.3-5.4-4.8-7.5-7.5
			h-16.3C865.8,9.6,871.6,16.4,879.5,21.9z"/>
		<path class="st2" d="M22.2,272.6c10,1,18.1-2.6,24.7-10c1.2-1.4,2.3-2.9,3.5-4.4c1.5,1.5,3,3.1,4.5,4.6c7.4,7.4,15.5,13.9,24,20
			c7.5,5.4,15.4,10.3,23.6,14.7c15.4,8.3,31.4,15,48.8,17.8c12.6,2,25.2,1.5,37.7-0.8c22.8-4.2,42.1-15.1,59.2-30.4
			c6.9-6.2,13.1-12.9,18.5-20.3c0.2-0.2,0.4-0.4,0.6-0.6c2.4-3.8,4.9-7.5,7.3-11.3c0.1-0.3,0.2-0.7,0.4-1c1.8-3.6,3.9-7.2,5.5-10.9
			c8-18,12.1-36.8,11.6-56.6c-0.7-25.4-7.8-48.6-22.9-69.2c-10.3-14.1-23-25.8-36.9-36.3c-1.8-1.4-3.6-2.7-5.4-4.1
			c-4.9-3.2-9.8-6.4-14.7-9.6c-1.3-0.7-2.7-1.3-4-2.1c-20.4-11.1-41.8-19.1-64.8-22.5c-14.8-2.2-29.7-2.3-44.5,0.3
			c-11.1,2-21.5,6.1-31.3,11.6c-11.9,6.6-22.2,15.2-31,25.7c-1.9,2.3-3.7,4.8-5.6,7.2c-1.7-1.6-3.4-3.2-5.2-4.8
			c-6.7-5.8-14.4-9.2-23.4-8.8c-1.2,0.1-2.3,0.2-3.5,0.4v14.3c5.6-1.6,11-0.4,16.3,3.6c3.5,2.7,6.3,5.9,9.1,9.3
			c0.5,0.6,0.5,1.1,0.3,1.8c-2.2,7-3.5,14.3-3.6,21.7c-0.1,9.1,1.4,17.8,5.7,25.8c4.7,8.9,10.7,16.8,17.7,24
			c8.2,8.5,17.5,15.7,27.1,22.6c7.9,5.6,16,10.9,24.6,15.3c8,4.1,16.1,7.8,24.2,11.5c12.6,5.8,25.7,9.6,39.4,11.4
			c5.7,0.8,11.5,1,17.2,0.2c4.1-0.5,6.8-3.9,6.3-7.8c-0.4-3.8-3.8-6.6-7.7-6.2c-6.5,0.7-12.8,0.1-19.2-1c-10.8-2-21.1-5.4-31.2-9.8
			c-11.7-5.1-22.9-10.9-33.7-17.8c-10.4-6.6-20.4-13.8-29.9-21.6c-7.3-5.9-13.7-12.6-18.7-20.5c-6.4-10.2-9.1-21.3-7.9-33.3
			c0.6-5.9,2.8-11.5,4.9-17c0.5-1.3,0.8-2.7,1.5-3.8c3.8-5.7,8.2-10.9,13.1-15.6c11.9-11.3,25.7-19.4,41.7-23.6
			c12.8-3.3,25.9-3.6,39-2.2c25.1,2.6,48.2,11.4,70,23.9c5.6,3.2,11,7,16.3,10.8c10.9,7.8,20.9,16.6,29.7,26.8
			c21.4,24.7,29.6,53.6,26,85.8c-2.6,23.3-11.9,44.1-27.3,62c-9.4,10.9-20.3,20.1-32.8,27.2c-19.8,11.2-41.1,15.1-63.6,11.9
			c-14.5-2-27.8-7.7-40.7-14.3c-9.7-4.9-18.9-10.7-27.7-17.1c-10.4-7.6-20-16-28.4-25.8c-3.5-4.1-6.8-8.2-10.4-12.5
			c-1.3,3.4-2.6,6.7-3.9,10c-1.4,3.6-2.6,7.2-4.9,10.4c-4,5.3-9,7.8-15.7,6.5c-8.2-1.5-15.8-4.5-22.9-8.5v15.8
			c0.7,0.3,1.4,0.6,2,0.9C7.8,269.5,14.8,271.8,22.2,272.6z"/>
		<path class="st2" d="M149.1,121.4c-4.8-3.2-11.3-2-14.6,2.9c-2.9,4.3-5.7,8.8-8.6,13.1c-2.8,4.3-5.7,8.6-8.4,13
			c-2.3,3.7-2.4,7.6-0.1,11.3c2.4,3.7,5.9,5.4,10.3,4.8c3.2-0.4,5.7-2.1,7.4-4.7c5.6-8.6,11.2-17.2,16.8-25.8
			C155.2,131.1,153.9,124.6,149.1,121.4z"/>
		<path class="st2" d="M101,90c-4.8-2.9-11-1.5-14.1,3.1c-5.7,8.8-11.5,17.5-17.2,26.3c-3,4.6-1.7,11,2.8,14.1
			c4.7,3.2,11,2.3,14.4-2.2c0.2-0.3,0.5-0.6,0.7-0.9c2.8-4.3,5.6-8.6,8.4-12.9c0,0,0,0-0.1,0c3-4.6,6.1-9,8.9-13.7
			C107.6,99.2,105.8,93,101,90z"/>
		<path class="st2" d="M1724.4,467.6c-4.2-9.9-10.8-18-19-24.9c-4.8-4-10.2-6.8-16.3-7.9c-8.9-1.6-16.9,0.7-24.4,5.6
			c-2,1.3-3.8,2.7-5.7,4c-1.6-2.7-3-5.3-4.6-7.9c-7.3-11.5-16.4-21.4-27.3-29.6c-9-6.7-18.7-12.2-29.5-15.7c-14.3-4.6-29-6.5-44-6.3
			c-23.3,0.3-45.6,5.4-67.2,13.7c-1.4,0.5-2.8,1-4.3,1.5c-5.3,2.5-10.5,5-15.8,7.5c-2,1.1-3.9,2.2-5.9,3.3
			c-15.2,8.5-29.3,18.4-41.4,31c-13.5,14.1-22.7,30.4-28,48.5h14.7c5.9-17.4,16.2-32.8,31.2-46c10.1-8.9,21.2-16.3,33-22.6
			c5.8-3,11.5-6.1,17.6-8.5c23.2-9.5,47.3-15.1,72.5-14.4c13.2,0.4,26.1,2.4,38.4,7.4c15.2,6.2,27.9,16.1,38.1,28.9
			c4.3,5.3,8,11.1,10.9,17.3c0.6,1.2,0.7,2.6,1,3.9c1.4,5.7,2.8,11.5,2.6,17.5c-0.2,5.9-1.2,11.4-3.2,16.5h14.7
			c0.6-2.5,1.1-5.1,1.4-7.7c0.9-7.3,0.6-14.7-0.7-21.9c-0.1-0.7,0-1.2,0.6-1.8c3.2-2.9,6.5-5.8,10.3-8c7.5-4.3,14.7-3.7,21.4,1.5
			c7.7,6,13.8,13.4,17.1,22.8c1.8,5.1,2.3,10.2,1.6,15.2h14.2C1728.9,483,1727.7,475.3,1724.4,467.6z"/>
		<path class="st2" d="M1551.1,469.9c-2.6-5.3-8.8-7.4-14.1-4.8c-5.2,2.5-7.4,8.8-4.8,14.1c1.8,3.8,3.6,7.6,5.4,11.4h23.3
			c-1-2.2-2.1-4.3-3.1-6.5C1555.6,479.4,1553.4,474.6,1551.1,469.9z"/>
		<path class="st2" d="M1590.2,468.5C1590.2,468.5,1590.2,468.6,1590.2,468.5c2.1,4.7,4.3,9.3,6.5,13.9c0.2,0.3,0.4,0.6,0.5,0.9
			c2.8,4.9,8.9,6.7,13.9,4.1c4.9-2.5,7.1-8.6,4.7-13.6c-4.5-9.5-9-18.9-13.5-28.4c-2.4-5-8.4-7.2-13.5-5c-5.2,2.2-7.8,8.2-5.6,13.4
			C1585.4,458.8,1587.9,463.6,1590.2,468.5z"/>
		<path class="st2" d="M875.8,480.6c6.8-1.6,13-4.6,19-8.1c13.4-7.8,21.8-19.2,24.5-34.6c1.8-10.6,0.6-21-2.6-31.2
			c-1.9-5.9-5-11.2-9.5-15.4c-6.6-6.1-14.7-8.5-23.5-8.4c-2.3,0-4.7,0.2-7,0.3c0.1-3.1,0.3-6.1,0.3-9.1c0-13.6-2.3-26.8-7.1-39.6
			c-4-10.5-9.3-20.3-16.5-29.1c-9.6-11.6-21-21.1-33.8-29c-19.8-12.3-41.3-19.9-64-24.6c-1.5-0.3-2.9-0.7-4.4-1
			c-5.8-0.7-11.6-1.4-17.4-2.2c-2.3-0.1-4.5-0.2-6.8-0.4c-17.4-1-34.6-0.3-51.6,3.9c-24.8,6-45.2,19.1-62.1,38.1
			c-13.2,14.8-22.2,31.8-27.7,50.7c-1.1,3.9-1.9,7.9-2.8,11.9c-0.1,0.3-0.2,0.7-0.3,1c-0.6,4.4-1.1,8.9-1.7,13.3
			c0,0.3,0.1,0.5,0.1,0.8c-0.6,9.2-0.3,18.4,1,27.5c3.1,22.7,10.9,43.5,25.6,61.4c8.1,9.8,17.4,18.3,28.3,24.9
			c5.8,3.5,11.8,6.5,18,8.9h114.4c0.6-1.7,1.2-3.3,1.8-5.1c-5.5,1-10.8,2-16,2.9c-12.7,2.1-25.5,2.3-38.3,1.3
			c-10.9-0.8-21.6-2.3-32.2-4.8c-14.1-3.3-28-7.6-40.3-15.3c-19.2-12.1-33-28.8-40.9-50.2c-5-13.5-7.4-27.6-7.5-42
			c-0.2-23.6,6-45.5,19.1-65c18-26.8,43-43.6,75.3-48.7c13.3-2.1,26.6-2.4,40-1.3c6.5,0.5,13,1.1,19.4,2.2
			c24.7,4.5,48,12.7,68.9,26.9c10.9,7.4,20.7,16.1,28.4,26.9c9.5,13.5,14.8,28.5,16.6,44.9c0.7,6.8,0.7,13.6-0.1,20.4
			c-0.2,1.3-0.8,2.6-1.3,3.8c-1.9,5.6-3.8,11.2-7.2,16.1c-6.8,10-16,16.7-27.5,20.3c-9,2.9-18.2,3.8-27.5,3.6
			c-12.3-0.2-24.6-1.1-36.8-2.8c-12.6-1.7-25-4.5-37.2-8.2c-10.5-3.1-20.6-7.2-30.2-12.6c-5.6-3.2-10.8-6.9-15.3-11.6
			c-2.7-2.9-7.1-2.9-9.9-0.2c-2.8,2.7-3,7-0.2,10c3.9,4.2,8.4,7.8,13.3,10.9c11.7,7.4,24.2,13,37.5,16.7c8.6,2.4,17.2,4.8,25.9,6.8
			c9.4,2.2,19,3.4,28.7,4.2c11.8,1,23.5,1.5,35.3,0.2c10-1,19.7-3.2,29-7c8.4-3.4,15.3-9.1,21-16.1c4.7-5.7,8.4-12.1,11.2-18.9
			c0.3-0.7,0.7-1.1,1.4-1.2c4.3-0.8,8.6-1.4,13-1.2c8.6,0.4,14.4,4.8,17.2,12.7c3.3,9.2,4.4,18.7,2.2,28.4
			c-2.2,9.2-7.7,16.1-15.5,21.2c-7.2,4.7-15,7.6-23.4,9.2c-0.7,0.1-1.4,0.3-2.1,0.5c-2,0.4-1.9,0.4-2.2,2.6
			c-0.8,6.4-1.3,12.8-2.3,19.1h14.2c0.4-2.9,0.7-5.9,1.1-8.8C874.9,481.1,875.1,480.8,875.8,480.6z"/>
		<path class="st2" d="M760.7,386.3c4.2-1.3,6.6-4.4,7.2-8.7c0.7-5.1,1.3-10.2,1.9-15.3c0.6-5.2,1.4-10.4,1.9-15.6
			c0.6-5.8-3.5-11-9.3-11.6c-5.8-0.7-10.9,3.4-11.6,9.3c-1.3,10.2-2.5,20.4-3.8,30.6c-0.4,3.2,0.4,6.1,2.6,8.4
			C752.7,386.5,756.5,387.6,760.7,386.3z"/>
		<path class="st2" d="M813.1,393.8c5.5,0.5,10.6-3.5,11.3-9c1.3-10.4,2.6-20.8,3.9-31.2c0.7-5.5-3.2-10.6-8.7-11.5
			c-5.6-0.9-11,2.7-11.9,8.2c-0.9,5.4-1.4,10.8-2.1,16.2c0,0-0.1,0-0.1,0c-0.6,5.1-1.3,10.2-1.9,15.2c0,0.4,0,0.7-0.1,1.1
			C803.2,388.4,807.4,393.2,813.1,393.8z"/>
		<path class="st2" d="M452.6,471.4c-3.9-10-10.4-18.3-18.4-25.4c-4.7-4.1-10-7-16.1-8.3c-8.8-1.8-17,0.3-24.5,5
			c-2,1.2-3.9,2.6-5.8,3.9c-1.5-2.7-2.9-5.4-4.4-8c-7-11.7-15.8-21.8-26.6-30.2c-8.9-7-18.4-12.6-29.1-16.4
			c-14.2-5-28.9-7.2-43.9-7.3c-23.3-0.3-45.7,4.3-67.5,12c-1.4,0.5-2.9,0.9-4.3,1.4c-5.3,2.4-10.7,4.8-16,7.1c-2,1.1-4,2.1-6,3.2
			c-15.4,8.1-29.8,17.7-42.2,30c-15,14.9-24.9,32.4-30.5,52.1h14.6c6.1-18.8,17.2-35.3,33.6-49.2c10.3-8.7,21.6-15.8,33.6-21.8
			c5.8-2.9,11.7-5.8,17.8-8.1c23.4-8.9,47.6-13.9,72.8-12.6c13.2,0.7,26,3,38.2,8.4c15.1,6.6,27.5,16.7,37.4,29.8
			c4.2,5.4,7.7,11.3,10.5,17.5c0.5,1.2,0.6,2.6,0.9,4c1.2,5.8,2.5,11.6,2.2,17.5c-0.3,5.1-1.2,10-2.9,14.5h14.5
			c0.4-1.8,0.7-3.6,1-5.4c1.1-7.3,0.9-14.6-0.2-21.9c-0.1-0.7,0-1.2,0.6-1.8c3.3-2.9,6.6-5.6,10.5-7.7c7.6-4.1,14.8-3.3,21.3,2
			c7.6,6.2,13.5,13.7,16.5,23.2c1.3,4,1.8,7.9,1.6,11.7h14.1C456.3,484.3,455.1,477.8,452.6,471.4z"/>
		<path class="st2" d="M279.2,469.5c-2.5-5.3-8.7-7.6-14-5.1c-5.3,2.4-7.6,8.6-5.2,13.9c1.8,4.1,3.6,8.2,5.5,12.3h12.4h10.7
			c-1-2.2-2-4.5-3-6.7C283.5,479.1,281.4,474.3,279.2,469.5z"/>
		<path class="st2" d="M318.4,469.1C318.3,469.1,318.3,469.1,318.4,469.1c2,4.7,4.1,9.4,6.2,14c0.1,0.3,0.3,0.6,0.5,1
			c2.6,4.9,8.7,6.9,13.8,4.4c5-2.4,7.3-8.5,5-13.5c-4.2-9.6-8.5-19.1-12.8-28.7c-2.3-5.1-8.2-7.4-13.4-5.3c-5.2,2.1-8,8-5.9,13.2
			C313.8,459.2,316.2,464.1,318.4,469.1z"/>
	</g>
</g>
</svg>
