<?xml version="1.0" encoding="utf-8"?>
<!-- Generator: Adobe Illustrator 25.4.1, SVG Export Plug-In . SVG Version: 6.00 Build 0)  -->
<svg version="1.1" id="레이어_1" xmlns="http://www.w3.org/2000/svg" xmlns:xlink="http://www.w3.org/1999/xlink" x="0px"
	 y="0px" viewBox="0 0 350 350" style="enable-background:new 0 0 350 350;" xml:space="preserve">
<style type="text/css">
	.st0{fill:#FFFFFF;}
	.st1{fill-rule:evenodd;clip-rule:evenodd;fill:#3E82F1;}
	.st2{fill-rule:evenodd;clip-rule:evenodd;fill:#32A753;}
	.st3{fill-rule:evenodd;clip-rule:evenodd;fill:#F9BB00;}
	.st4{fill-rule:evenodd;clip-rule:evenodd;fill:#E74133;}
</style>
<circle class="st0" cx="175.4" cy="174.9" r="174"/>
<polygon class="st0" points="202.3,97.1 202.3,175.6 148.6,97.1 90.5,97.1 90.5,252.6 148.4,252.6 148.4,174.1 202.1,252.6 
	260.2,252.6 260.2,97.1 "/>
<image style="overflow:visible;enable-background:new    ;" width="240" height="240" xlink:href="login_02.png"  transform="matrix(0.25 0 0 0.25 -305 -177)">
</image>
<g>
	<path class="st1" d="M278.5,176.9c0-7.5-0.7-14.8-1.9-21.7h-100v41.1h57.1c-2.5,13.3-9.9,24.5-21.2,32v26.6h34.3
		C266.9,236.5,278.5,209.2,278.5,176.9L278.5,176.9L278.5,176.9z"/>
	<path class="st2" d="M176.6,280.6c28.7,0,52.7-9.5,70.3-25.7l-34.3-26.6c-9.5,6.4-21.7,10.1-35.9,10.1c-27.6,0-51-18.7-59.4-43.8
		H81.8v27.5C99.2,256.9,135.1,280.6,176.6,280.6L176.6,280.6L176.6,280.6z"/>
	<path class="st3" d="M117.2,194.7c-2.1-6.4-3.3-13.2-3.3-20.2c0-7,1.2-13.8,3.3-20.2v-27.5H81.8c-7.2,14.3-11.3,30.5-11.3,47.7
		s4.1,33.3,11.3,47.7L117.2,194.7L117.2,194.7L117.2,194.7z"/>
	<path class="st4" d="M176.6,110.6c15.6,0,29.6,5.4,40.6,15.9L247.6,96c-18.4-17.1-42.4-27.6-71-27.6c-41.5,0-77.4,23.8-94.9,58.5
		l35.5,27.5C125.6,129.2,149,110.6,176.6,110.6L176.6,110.6L176.6,110.6z"/>
</g>
</svg>
