<?xml version="1.0" encoding="utf-8"?>
<!-- Generator: Adobe Illustrator 25.4.1, SVG Export Plug-In . SVG Version: 6.00 Build 0)  -->
<svg version="1.1" id="레이어_1" xmlns="http://www.w3.org/2000/svg" xmlns:xlink="http://www.w3.org/1999/xlink" x="0px"
	 y="0px" viewBox="0 0 350 350" style="enable-background:new 0 0 350 350;" xml:space="preserve">
<style type="text/css">
	.st0{fill:#FAE300;}
	.st1{fill:#391B1B;}
</style>
<circle class="st0" cx="175.5" cy="175" r="174"/>
<image style="overflow:visible;" width="240" height="240" xlink:href="login/login_02.png"  transform="matrix(0.25 0 0 0.25 -305 -177)">
</image>
<path class="st0" d="M921.9,560.7H502.5c-22.2,0-40.3-18.1-40.3-40.3V101c0-22.2,18.1-40.3,40.3-40.3h419.4
	c22.2,0,40.3,18.1,40.3,40.3v419.4C962.2,542.6,944.1,560.7,921.9,560.7z"/>
<path class="st1" d="M175.5,88c-55.9,0-101.2,35.8-101.2,80c0,28.8,19.2,54,48,68.1c-2.1,7.9-7.7,28.6-8.8,33.1
	c-1.4,5.5,2,5.4,4.2,3.9c1.7-1.2,27.7-18.8,39-26.5c6.1,0.9,12.4,1.4,18.8,1.4c55.9,0,101.2-35.8,101.2-80
	C276.7,123.8,231.4,88,175.5,88"/>
</svg>
