<?xml version="1.0" encoding="utf-8"?>
<!-- Generator: Adobe Illustrator 25.4.1, SVG Export Plug-In . SVG Version: 6.00 Build 0)  -->
<svg version="1.1" id="레이어_1" xmlns="http://www.w3.org/2000/svg" xmlns:xlink="http://www.w3.org/1999/xlink" x="0px"
	 y="0px" viewBox="0 0 350 350" style="enable-background:new 0 0 350 350;" xml:space="preserve">
<style type="text/css">
	.st0{fill:#3296D4;}
	.st1{fill:#FFFFFF;}
</style>
<circle class="st0" cx="175.4" cy="174.9" r="174"/>
<image style="overflow:visible;enable-background:new    ;" width="240" height="240" xlink:href="login_02.png"  transform="matrix(0.25 0 0 0.25 -305 -177)">
</image>
<g>
	<path id="XMLID_2_" class="st1" d="M136.6,257.6c77.5,0,119.8-64.2,119.8-119.8c0-1.8,0-3.6-0.1-5.4c8.2-5.9,15.4-13.4,21-21.8
		c-7.5,3.4-15.7,5.6-24.2,6.6c8.7-5.2,15.4-13.5,18.5-23.3c-8.1,4.8-17.1,8.3-26.7,10.2c-7.7-8.2-18.6-13.3-30.7-13.3
		c-23.3,0-42.1,18.9-42.1,42.1c0,3.3,0.4,6.5,1.1,9.6c-35-1.8-66-18.5-86.8-44c-3.6,6.2-5.7,13.5-5.7,21.2
		c0,14.6,7.4,27.5,18.7,35.1c-6.9-0.2-13.4-2.1-19.1-5.3c0,0.2,0,0.4,0,0.5c0,20.4,14.5,37.4,33.8,41.3c-3.5,1-7.3,1.5-11.1,1.5
		c-2.7,0-5.4-0.3-7.9-0.8c5.4,16.7,20.9,28.9,39.3,29.2c-14.4,11.3-32.6,18-52.3,18c-3.4,0-6.7-0.2-10-0.6
		C90.7,250.6,112.8,257.6,136.6,257.6"/>
</g>
</svg>
