<?xml version="1.0" encoding="utf-8"?>
<!-- Generator: Adobe Illustrator 25.4.1, SVG Export Plug-In . SVG Version: 6.00 Build 0)  -->
<svg version="1.1" id="레이어_1" xmlns="http://www.w3.org/2000/svg" xmlns:xlink="http://www.w3.org/1999/xlink" x="0px"
	 y="0px" viewBox="0 0 350 350" style="enable-background:new 0 0 350 350;" xml:space="preserve">
<style type="text/css">
	.st0{fill:#1C3AA9;}
	.st1{fill:#4285F4;}
	.st2{fill:#ABABAB;}
	.st3{fill:#A6A6A6;}
</style>
<image style="overflow:visible;enable-background:new    ;" width="240" height="240" xlink:href="login_02.png"  transform="matrix(0.25 0 0 0.25 -305 -177)">
</image>
<path class="st0" d="M241.9,143.7l-0.1-2.9V85.9l-15.2,15.2c-12.4-15.2-31.3-24.9-52.5-24.9c-21.2,0-41.2,9.9-54,26.8l24.9,25.2
	c2.4-4.5,5.9-8.4,10.1-11.3c4.3-3.4,10.5-6.2,19-6.2c1,0,1.8,0.1,2.4,0.4c10.3,0.8,19.6,6.4,25.1,15.1L184,143.8L241.9,143.7"/>
<path class="st1" d="M173.7,76.1l-2.9,0.1h-54.9L131,91.4c-15.2,12.4-24.9,31.3-24.9,52.5c0,21.2,9.9,41.2,26.8,54l25.2-24.9
	c-4.5-2.4-8.4-5.9-11.3-10.1c-3.4-4.3-6.2-10.5-6.2-19c0-1,0.1-1.8,0.4-2.4c0.8-10.3,6.4-19.6,15.1-25.1l17.6,17.6L173.7,76.1"/>
<path class="st2" d="M106.1,143.9l0.1,2.9v55l15.2-15.2c12.4,15.2,31.3,24.9,52.5,24.9c21.2,0,41.2-9.9,54-26.8L203,159.5
	c-2.4,4.5-5.9,8.4-10.1,11.3c-4.3,3.4-10.5,6.2-19,6.2c-1,0-1.8-0.1-2.4-0.4c-10.3-0.8-19.6-6.4-25.1-15.1l17.6-17.6
	C141.7,144,116.5,144,106.1,143.9"/>
<path class="st3" d="M84.5,231.3c-2.5,0-4.8,0.5-6.8,1.4c-2,0.9-3.8,2.3-5.1,4.1c-1.4,1.8-2.4,3.9-3.2,6.4c-0.7,2.5-1.1,5.3-1.1,8.3
	v8.9c0,3.1,0.4,5.9,1.1,8.4c0.8,2.5,1.8,4.6,3.2,6.4s3,3.1,4.9,4.1c1.9,0.9,4.1,1.4,6.5,1.4c2.5,0,4.7-0.4,6.5-1.1
	c1.9-0.7,3.5-1.8,4.7-3.1c1.3-1.4,2.3-3.2,2.9-5c0.7-2,1.1-4.2,1.3-6.6h-6c-0.2,1.9-0.4,3.5-0.8,4.9c-0.3,1.2-0.9,2.3-1.6,3.3
	c-0.7,0.9-1.6,1.5-2.8,1.9c-1.1,0.4-2.5,0.6-4.2,0.6c-1.8,0-3.3-0.4-4.5-1.2c-1.2-0.8-2.2-1.9-3-3.2s-1.3-2.9-1.6-4.8
	c-0.3-1.8-0.5-3.8-0.5-5.9v-8.9c0-2.3,0.2-4.3,0.6-6.2c0.4-1.8,1-3.4,1.9-4.7c0.8-1.3,1.9-2.3,3.2-3c1.3-0.7,2.8-1.1,4.5-1.1
	c1.5,0,2.7,0.2,3.8,0.7c1.1,0.4,1.9,1.1,2.6,2c0.7,0.9,1.2,2,1.6,3.4c0.4,1.4,0.6,3,0.8,4.9h6.1c-0.1-2.6-0.5-4.9-1.2-6.9
	s-1.7-3.7-2.9-5c-1.2-1.4-2.7-2.4-4.6-3.1C88.9,231.6,86.9,231.3,84.5,231.3L84.5,231.3z M233.1,231.3c-2.5,0-4.8,0.5-6.8,1.4
	c-2,0.9-3.8,2.3-5.1,4.1c-1.4,1.8-2.4,3.9-3.2,6.4c-0.7,2.5-1.1,5.3-1.1,8.3v8.9c0,3.1,0.4,5.9,1.1,8.4c0.8,2.5,1.8,4.6,3.2,6.4
	c1.4,1.8,3,3.1,4.9,4.1c2,1,4.3,1.5,6.5,1.4c2.5,0,4.7-0.4,6.5-1.1c1.9-0.7,3.5-1.8,4.7-3.1c1.3-1.4,2.3-3.2,2.9-5
	c0.7-2,1.1-4.2,1.3-6.6h-6.1c-0.2,1.9-0.4,3.5-0.8,4.9c-0.3,1.2-0.9,2.3-1.6,3.3c-0.7,0.9-1.6,1.5-2.8,1.9c-1.1,0.4-2.5,0.6-4.2,0.6
	c-1.8,0-3.3-0.4-4.5-1.2c-1.2-0.8-2.2-1.9-3-3.2s-1.3-2.9-1.6-4.8c-0.3-1.8-0.5-3.8-0.5-5.9v-8.9c0-2.1,0.2-4.1,0.6-6.2
	c0.4-1.8,1-3.4,1.9-4.7c0.8-1.2,1.9-2.3,3.2-3c1.3-0.7,2.8-1.1,4.5-1.1c1.5,0,2.7,0.2,3.8,0.7c1.1,0.4,1.9,1.1,2.6,2
	c0.7,0.9,1.2,2,1.6,3.4c0.4,1.4,0.6,3,0.8,4.9h6.1c-0.1-2.6-0.5-4.9-1.2-6.9s-1.7-3.7-2.9-5c-1.2-1.4-2.7-2.4-4.6-3.1
	C237.6,231.6,235.5,231.3,233.1,231.3L233.1,231.3z M119.2,232l-15.4,47.9h6.2l3.7-12.5h16.2l3.8,12.5h6.2L124.4,232H119.2z
	 M146.3,232v47.9h6v-18.8h9.2c2.3,0,4.3-0.3,6.1-1c1.8-0.6,3.3-1.6,4.5-2.8c1.2-1.2,2.2-2.7,2.8-4.5c0.6-1.8,1-3.9,1-6.2
	c0-2-0.3-4-1-5.9c-0.6-1.7-1.5-3.3-2.7-4.6c-1.3-1.3-2.8-2.4-4.5-3.1c-1.8-0.7-3.8-1.1-6.1-1.1L146.3,232z M180.5,232v5.2h12.5v42.7
	h6v-42.7h12.6V232L180.5,232z M256.1,232v47.9h6v-22.2h19.3v22.2h6.1V232h-6.1v20.6h-19.3V232L256.1,232z M310.4,232l-15.4,47.9h6.2
	l3.7-12.5H321l3.8,12.5h6.2L315.5,232H310.4z M152.4,237.2h9.2c1.5,0,2.7,0.3,3.8,0.8c1.1,0.5,1.9,1.2,2.6,2.1
	c0.7,0.9,1.2,1.9,1.5,3.1c0.3,1.2,0.5,2.4,0.5,3.6c0,1.3-0.2,2.5-0.5,3.8c-0.3,1.1-0.8,2.1-1.5,2.9c-0.7,0.8-1.5,1.4-2.6,1.9
	c-1,0.5-2.3,0.7-3.8,0.7h-9.2V237.2z M121.7,240.4l6.5,21.8h-13.1L121.7,240.4z M312.9,240.4l6.5,21.8h-13.1L312.9,240.4z
	 M29.4,243.6c-1.5,0-2.8,0.4-3.9,1.2c-1.1,0.8-2,1.8-2.7,3.1l-0.1-3.6H17v35.6h5.8v-25.5c0.5-1.5,1.3-2.7,2.3-3.6
	c1-0.9,2.3-1.3,3.9-1.3l1.4,0.1c0.4,0,0.9,0.1,1.3,0.2l0-5.7c-0.1-0.1-0.3-0.1-0.4-0.1c-0.2-0.1-0.4-0.1-0.6-0.2
	c-0.2,0-0.5-0.1-0.7-0.1C29.8,243.7,29.6,243.6,29.4,243.6L29.4,243.6z M49,243.6c-1.7,0-3.3,0.3-4.9,0.9c-1.6,0.6-3,1.6-4.2,2.9
	c-1.2,1.3-2.2,3.1-2.9,5.3c-0.8,2.2-1.1,4.8-1.1,7.9v4c0,2.7,0.3,5.1,1,7.1c0.6,2,1.5,3.7,2.7,5c1.2,1.3,2.7,2.3,4.4,2.9
	c1.7,0.6,3.6,1,5.8,1c1.5,0,2.9-0.2,4.1-0.5c1.1-0.3,2.2-0.7,3.3-1.2c0.9-0.5,1.7-1,2.4-1.7c0.6-0.6,1.2-1.3,1.7-2l-3-3.7
	c-0.5,0.6-1,1.2-1.5,1.6c-0.5,0.5-1.2,0.9-1.8,1.3c-0.7,0.4-1.4,0.6-2.2,0.8c-0.9,0.2-1.8,0.3-2.7,0.3c-2.7,0-4.8-0.9-6.2-2.6
	c-1.4-1.7-2.1-4.5-2.1-8.3v-0.8h19.9v-3.4c0-2.7-0.2-5.1-0.7-7.2c-0.5-2.1-1.2-3.8-2.2-5.3c-1-1.4-2.3-2.5-3.9-3.2
	C53.1,244,51.2,243.7,49,243.6L49,243.6z M49,248.7c1.3,0,2.3,0.2,3.2,0.7c0.8,0.5,1.5,1.1,2,1.9c0.5,0.8,0.9,1.8,1.1,3
	c0.3,1.2,0.4,2.5,0.5,3.8v0.8h-14c0.1-2,0.3-3.7,0.7-5c0.4-1.3,0.9-2.4,1.5-3.1c0.7-0.8,1.4-1.3,2.3-1.6
	C47.1,248.8,48,248.6,49,248.7L49,248.7z"/>
</svg>
