<svg width="12" height="12" viewBox="0 0 12 12" fill="none" xmlns="http://www.w3.org/2000/svg">
<path d="M10.5837 0.166626H1.41699C0.726888 0.166626 0.166992 0.726522 0.166992 1.41663V10.5833C0.166992 11.2734 0.726888 11.8333 1.41699 11.8333H10.5837C11.2738 11.8333 11.8337 11.2734 11.8337 10.5833V1.41663C11.8337 0.726522 11.2738 0.166626 10.5837 0.166626ZM10.4274 10.5833H1.57324C1.4873 10.5833 1.41699 10.513 1.41699 10.427V1.57288C1.41699 1.48694 1.4873 1.41663 1.57324 1.41663H10.4274C10.5133 1.41663 10.5837 1.48694 10.5837 1.57288V10.427C10.5837 10.513 10.5133 10.5833 10.4274 10.5833Z" fill="black" fill-opacity="0.5"/>
</svg>
