<svg width="12" height="12" viewBox="0 0 12 12" fill="none" xmlns="http://www.w3.org/2000/svg">
<path d="M10.5837 0.166626H1.41699C0.726628 0.166626 0.166992 0.726261 0.166992 1.41663V10.5833C0.166992 11.2737 0.726628 11.8333 1.41699 11.8333H10.5837C11.274 11.8333 11.8337 11.2737 11.8337 10.5833V1.41663C11.8337 0.726261 11.274 0.166626 10.5837 0.166626ZM10.5837 10.5833H1.41699V1.41663H10.5837V10.5833ZM9.6497 4.2884L5.1552 8.74684C5.03267 8.86837 4.8348 8.86759 4.71327 8.74506L2.34918 6.36183C2.22764 6.23931 2.22842 6.04144 2.35098 5.91988L2.94262 5.33301C3.06514 5.21147 3.26301 5.21225 3.38454 5.3348L4.94163 6.90452L8.62267 3.25306C8.7452 3.13152 8.94306 3.1323 9.0646 3.25483L9.65147 3.84644C9.77301 3.969 9.77223 4.16686 9.6497 4.2884Z" fill="black"/>
</svg>
