<svg width="23" height="23" viewBox="0 0 23 23" fill="none" xmlns="http://www.w3.org/2000/svg">
<g clip-path="url(#clip0_81:30768)">
<path d="M11.065 0C13.2535 0 15.3928 0.648951 17.2124 1.86479C19.032 3.08063 20.4502 4.80874 21.2877 6.83061C22.1252 8.85247 22.3443 11.0773 21.9174 13.2237C21.4904 15.3701 20.4366 17.3417 18.8891 18.8891C17.3417 20.4366 15.3701 21.4904 13.2237 21.9174C11.0773 22.3443 8.85247 22.1252 6.83061 21.2877C4.80874 20.4502 3.08063 19.032 1.86479 17.2124C0.648951 15.3928 0 13.2535 0 11.065C0 8.13038 1.16577 5.31595 3.24086 3.24086C5.31595 1.16577 8.13038 0 11.065 0V0Z" fill="black"/>
<path d="M11.001 10.619C11.8159 10.5991 12.5895 10.2566 13.1519 9.66671C13.7144 9.07685 14.0198 8.28785 14.001 7.473C14.0196 6.65832 13.714 5.86958 13.1516 5.27994C12.5891 4.69029 11.8157 4.34793 11.001 4.328C10.1862 4.34792 9.4126 4.69043 8.85011 5.28029C8.28762 5.87016 7.98224 6.65915 8.00103 7.474C7.98251 8.28868 8.28801 9.07742 8.85047 9.66707C9.41293 10.2567 10.1864 10.5991 11.001 10.619ZM13.215 10.511L11.001 14.374H10.97L8.72203 10.511C7.89476 10.5688 7.12133 10.9423 6.56167 11.5543C6.00201 12.1662 5.6989 12.9699 5.71503 13.799V14.821C5.70805 15.1267 5.82272 15.4228 6.03385 15.644C6.24497 15.8653 6.53529 15.9937 6.84103 16.001H15.098C15.4038 15.9937 15.6941 15.8653 15.9052 15.644C16.1163 15.4228 16.231 15.1267 16.224 14.821V13.799C16.2401 12.9695 15.9367 12.1656 15.3767 11.5536C14.8166 10.9416 14.0427 10.5683 13.215 10.511Z" fill="white"/>
</g>
<defs>
<clipPath id="clip0_81:30768">
<rect width="22.13" height="22.13" fill="white"/>
</clipPath>
</defs>
</svg>
