<svg width="12" height="9" viewBox="0 0 12 9" fill="none" xmlns="http://www.w3.org/2000/svg">
<g clip-path="url(#clip0_81:29813)">
<path d="M5.84093 2.33436L2.00003 5.38465V8.67782C2.00003 8.76308 2.03515 8.84484 2.09766 8.90513C2.16016 8.96541 2.24494 8.99928 2.33334 8.99928L4.66769 8.99357C4.71146 8.99338 4.75476 8.98488 4.79513 8.96855C4.83549 8.95222 4.87213 8.92839 4.90294 8.8984C4.93375 8.86842 4.95814 8.83288 4.97471 8.79381C4.99128 8.75473 4.99971 8.71289 4.99952 8.67068V6.74764C4.99991 6.66258 5.03524 6.58114 5.09777 6.52116C5.1603 6.46117 5.24493 6.42753 5.33312 6.42761H6.66635C6.75475 6.42761 6.83953 6.46148 6.90204 6.52176C6.96455 6.58205 6.99966 6.66381 6.99966 6.74907V8.67068C6.99951 8.71299 7.00801 8.75491 7.02469 8.79405C7.04137 8.83318 7.0659 8.86875 7.09687 8.89872C7.12783 8.9287 7.16463 8.95248 7.20515 8.9687C7.24566 8.98493 7.2891 8.99328 7.33297 8.99328L9.66643 8.99957C9.75483 8.99957 9.83961 8.9657 9.90211 8.90541C9.96462 8.84513 9.99974 8.76336 9.99974 8.67811V5.38294L6.15943 2.33436C6.11431 2.29932 6.05812 2.28021 6.00018 2.28021C5.94225 2.28021 5.88606 2.29932 5.84093 2.33436ZM11.9077 4.40799L10.1662 3.02357V0.241304C10.1662 0.177343 10.1399 0.116002 10.093 0.0707744C10.0461 0.025547 9.98251 0.000138525 9.91619 0.000138525H8.74946C8.68314 0.000138525 8.61954 0.025547 8.57264 0.0707744C8.52575 0.116002 8.4994 0.177343 8.4994 0.241304V1.69859L6.63288 0.218731C6.45389 0.0766864 6.2293 -0.000976562 5.99752 -0.000976562C5.76573 -0.000976562 5.54114 0.0766864 5.36215 0.218731L0.0905447 4.4077C0.0652198 4.4279 0.0442707 4.45271 0.0288954 4.48072C0.01352 4.50873 0.00401982 4.53939 0.000938032 4.57094C-0.00214375 4.60249 0.00125328 4.63432 0.0109349 4.66461C0.0206165 4.6949 0.0363929 4.72305 0.0573619 4.74745L0.588582 5.37036C0.60946 5.39485 0.635138 5.41513 0.664149 5.43004C0.69316 5.44494 0.724934 5.45419 0.757653 5.45724C0.790371 5.46029 0.823393 5.45709 0.854828 5.44782C0.886263 5.43855 0.915496 5.4234 0.940852 5.40323L5.84093 1.51057C5.88608 1.47545 5.94233 1.4563 6.00033 1.4563C6.05833 1.4563 6.11458 1.47545 6.15973 1.51057L11.0601 5.40294C11.1112 5.44369 11.177 5.46322 11.243 5.45721C11.309 5.45121 11.3698 5.42018 11.4121 5.37094L11.9433 4.74802C11.9642 4.72347 11.9798 4.69518 11.9893 4.66478C11.9989 4.63439 12.0021 4.60247 11.9988 4.57088C11.9954 4.53929 11.9857 4.50864 11.9701 4.48068C11.9545 4.45273 11.9333 4.42802 11.9077 4.40799Z" fill="#7F7F7F"/>
</g>
<defs>
<clipPath id="clip0_81:29813">
<rect width="12" height="9" fill="white"/>
</clipPath>
</defs>
</svg>
