<svg width="1921" height="815" viewBox="0 0 1921 815" fill="none" xmlns="http://www.w3.org/2000/svg">
<path d="M1384.44 814.515C1375.25 814.515 1365.75 814.237 1356.23 813.688C1343.14 812.699 1330.25 811.337 1317.93 809.64C1321.46 804.927 1325.35 800.208 1329.48 795.614L1331.54 793.355C1339.96 784.754 1348.94 776.723 1358.43 769.314C1365.86 763.506 1373.8 758.372 1382.14 753.975C1388.78 750.492 1395.79 747.769 1403.03 745.858C1409.05 744.302 1415.23 743.504 1421.44 743.482C1431.6 743.482 1441.58 745.648 1452.88 750.3C1463.82 755.411 1472.41 760.7 1481.43 771.289C1489.52 780.78 1492.9 793.153 1494.19 799.683C1482.07 803.165 1469.78 806.025 1457.36 808.253L1437.64 787.828C1435.71 785.825 1433.06 784.672 1430.27 784.624C1427.49 784.575 1424.8 785.635 1422.79 787.569C1420.79 789.504 1419.64 792.155 1419.59 794.94C1419.54 797.724 1420.6 800.414 1422.54 802.417L1431.75 811.962L1431.95 811.94C1416.17 813.675 1400.31 814.534 1384.44 814.515ZM1302.38 807.272C1283.55 804.178 1264.94 799.915 1246.65 794.508C1224.68 788.752 1203.12 781.563 1182.1 772.988C1159.9 763.916 1138.29 753.452 1117.4 741.658C1095.22 729.117 1073.82 715.245 1053.31 700.12C1031.42 683.957 1010.49 666.546 990.6 647.974C979.04 637.768 966.963 628.164 954.415 619.201C944.088 611.826 933.252 604.762 922.207 598.207L922.016 597.957L921.945 597.866C921.818 597.702 921.69 597.537 921.561 597.372C924.512 592.733 926.822 587.715 928.426 582.456C930.482 576.997 931.7 571.257 932.038 565.433C932.326 560.018 931.679 554.593 930.124 549.398C928.509 544.125 926.024 539.159 922.772 534.705C919.167 529.8 914.892 525.424 910.072 521.705C902.24 516.098 896.054 511.669 883.878 510.642H883.865C876.579 510.571 869.482 512.962 863.724 517.427C860.366 520.016 857.346 523.015 854.734 526.355C850.942 521.658 846.768 517.283 842.253 513.276C833.172 505.218 822.843 498.687 811.669 493.938C806.068 491.558 800.279 489.649 794.362 488.23C786.453 486.455 778.367 485.596 770.262 485.67C747.783 485.67 712.223 491.58 670.473 519.732L666.522 522.661L662.436 525.796L662.17 526.005C662.006 526.134 661.842 526.263 661.678 526.39C653.536 526.096 645.234 525.946 637.003 525.946C613.773 525.946 590.134 527.129 566.743 529.461C545.043 531.624 523.411 534.789 502.443 538.866C508.198 533.301 513.132 526.945 517.096 519.989C519.285 516.12 521.168 512.086 522.727 507.923C524.45 503.298 525.82 498.55 526.827 493.718C527.963 488.232 528.723 482.674 529.1 477.084C529.53 470.641 529.578 464.179 529.244 457.731C528.899 450.687 528.13 443.163 526.96 435.369C525.743 427.269 524.06 418.635 521.947 409.708L521 406.348C518.704 398.286 515.932 390.368 512.7 382.634C510.354 377.056 507.767 371.642 504.792 366.083C508.246 364.463 511.67 362.746 513.336 361.163C515.495 359.566 517.336 357.578 518.764 355.303C520.117 353.127 521.108 350.746 521.698 348.252C522.826 343.363 522.698 338.269 521.325 333.443C517.259 319.261 499.562 303.602 483.949 289.787L480.707 286.915C477.489 283.944 473.749 281.595 469.676 279.987C465.809 278.522 461.705 277.785 457.57 277.811C451.076 277.955 444.66 279.266 438.63 281.681C431.312 284.532 424.267 288.04 417.582 292.163C402.851 300.979 386.533 313.221 369.257 326.182L369.25 326.187C355.542 336.471 340.669 342.934 326.286 349.187C322.063 351.021 317.696 352.918 314.272 354.56C297.389 360.196 268.141 371.904 261.935 386.991C256.822 399.418 260.168 417.441 263.875 430.373C265.723 436.815 267.491 441.389 267.827 442.24C270.832 449.863 279.414 458.1 289.398 458.349C289.571 458.349 289.752 458.356 289.937 458.356C293.632 458.239 297.296 457.64 300.837 456.576C305.92 455.111 310.908 453.33 315.77 451.245C318.975 455.96 321.499 461.103 323.27 466.522C323.649 467.765 323.892 469.044 323.997 470.339C322.731 471.767 320.513 474.025 318.556 476.018C310.804 483.904 300.188 494.704 296.55 503.935C293.341 512.088 290.624 522.389 294.807 536.974C297.285 545.613 301.928 554.966 309 565.568C312.948 571.353 317.82 576.45 323.421 580.655C326.231 582.73 329.301 584.425 332.554 585.698C335.477 586.842 338.573 587.481 341.71 587.589C341.91 587.594 342.127 587.597 342.341 587.597C345.406 587.668 348.446 587.026 351.222 585.723C353.997 584.419 356.432 582.489 358.335 580.085C361.951 575.47 363.381 570.179 364.895 564.577C366.831 557.42 369.026 549.308 376.315 539.177C385.735 547.672 395.353 553.941 404.904 557.81C409.053 559.83 413.356 561.515 417.773 562.85C393.923 571.93 371.273 582.19 347.302 593.05C309.679 610.096 270.777 627.723 225.729 641.058C214.084 644.505 202.299 647.576 190.702 650.184C178.262 652.984 165.537 655.364 152.879 657.26C139.467 659.27 125.643 660.81 111.79 661.836C97.229 662.915 82.147 663.461 66.965 663.462C54.165 663.462 40.927 663.074 27.62 662.308C18.283 661.826 8.99098 661.066 0.00497656 660.05V583.801C3.99498 583.526 8.07798 583.135 12.141 582.636L16.073 582.12C24.3855 580.949 32.6288 579.33 40.767 577.271C46.6737 575.713 52.4938 573.844 58.203 571.671C59.556 584.222 66.534 593.556 77.35 597.281C80.8853 598.525 84.5277 599.44 88.231 600.016C93.1946 600.828 98.2164 601.231 103.246 601.223C107.067 601.224 110.885 600.992 114.678 600.53L118.241 600.079C126.635 598.919 134.778 596.369 142.334 592.533C167.284 581.561 179.149 559.905 175.744 531.555L175.486 529.355C175.192 526.833 174.786 523.378 174.257 519.498C179.131 516.957 183.639 513.767 187.657 510.016C192.167 506.316 196.091 501.954 199.295 497.079C202.252 492.533 204.403 487.511 205.655 482.234C206.893 476.86 207.224 471.317 206.635 465.834C205.965 459.784 204.45 453.858 202.135 448.229V448.219C198.157 439.452 195.014 432.528 184.985 425.552C180.023 422.606 174.356 421.058 168.585 421.071C167.099 421.074 165.614 421.167 164.139 421.35C159.937 421.92 155.823 423.007 151.888 424.587C150.953 418.623 149.524 412.748 147.618 407.02C143.782 395.499 138.103 384.677 130.8 374.976C127.14 370.114 123.081 365.565 118.666 361.376C113.905 356.867 103.33 348.156 85.995 340.476C75.9089 336.054 65.3959 332.678 54.621 330.401C40.7501 327.493 26.6112 326.057 12.439 326.116C8.36298 326.116 4.17898 326.227 0.000976562 326.445V0.000976563H12.071C13.6867 2.1192 15.6076 3.98616 17.771 5.54098C19.9988 7.13224 22.4469 8.38982 25.038 9.27398C28.5714 10.5172 32.2117 11.4324 35.913 12.008C40.8736 12.8195 45.8924 13.2231 50.919 13.215H50.934C54.7552 13.2164 58.5729 12.985 62.366 12.522L65.929 12.071C70.3496 11.4683 74.7071 10.4696 78.949 9.08698C82.7366 7.81623 86.4346 6.29246 90.018 4.52598C92.9903 3.22437 95.866 1.71219 98.623 0.000976563L23.423 0.000976563H215.955C200.245 7.80697 185.543 17.4948 172.173 28.851L168.551 32.178L164.813 35.723C119.306 79.67 105.276 122.907 119.322 175.914C135.191 226.186 171.151 250.214 198.522 261.523C211.959 266.925 226.297 269.732 240.779 269.796C251.016 269.747 261.207 268.423 271.116 265.855C290.862 260.661 314.498 246.202 335.963 226.184L338.838 223.455C344.875 217.622 350.592 211.467 355.964 205.017C359.828 200.284 363.438 195.35 366.78 190.235C369.717 193.552 373.274 196.263 377.252 198.215C380.947 200.008 384.999 200.943 389.106 200.951C391.891 200.943 394.66 200.522 397.321 199.7C404.849 197.585 417.775 191.257 429.43 180.388L432.048 177.928C438.156 172.056 443.243 165.207 447.1 157.663C460.837 134.12 457.708 109.626 438.288 88.692L436.788 87.067L436.703 86.975L436.683 86.953C434.878 84.994 432.631 82.553 430.001 79.817C432.451 74.8954 434.223 69.6645 435.269 64.267C436.743 58.6218 437.354 52.7861 437.082 46.958C436.802 41.5423 435.591 36.2153 433.502 31.211C431.345 26.1357 428.355 21.4566 424.655 17.367C420.557 12.8656 415.847 8.96096 410.665 5.76698H410.66C406.989 3.54495 403.149 1.61693 399.174 0.000976562L528.692 0.000976563C528.602 3.68064 528.974 7.35707 529.8 10.944C531.995 19.425 535.85 29.355 547.809 38.697C554.888 44.228 564.141 49.066 576.099 53.488C582.693 55.8485 589.63 57.108 596.633 57.216C600.126 57.2437 603.607 56.8109 606.986 55.929C610.023 55.1366 612.904 53.8345 615.505 52.078C618.167 50.3504 620.377 48.0106 621.95 45.2542C623.523 42.4977 624.412 39.4048 624.545 36.234C624.757 30.382 622.805 25.261 620.74 19.84V19.831C618.688 14.461 616.368 8.37398 615.453 0.000976563H853.689C857.132 8.35173 861.429 16.3238 866.513 23.79C871.12 30.5284 876.346 36.8223 882.122 42.59C892.035 52.4244 903.319 60.7735 915.622 67.378C923.891 71.7082 932.639 75.0566 941.686 77.355C950.532 79.5679 959.619 80.6717 968.738 80.641C974.972 80.6233 981.196 80.1668 987.366 79.275C1007.55 76.175 1032.57 64.263 1056 46.6L1059.15 44.185C1065.76 39.0148 1072.09 33.4914 1078.11 27.639C1082.45 23.336 1086.55 18.8064 1090.41 14.069C1096.6 22.543 1105.09 27.209 1114.33 27.209C1116.17 27.2059 1117.99 27.027 1119.79 26.675C1127.5 25.355 1141.02 20.412 1153.75 10.824L1156.61 8.64998C1159.98 6.04005 1163.11 3.14648 1165.99 0.000976563L1419.86 0.000976563C1420.03 7.19014 1420.68 14.36 1421.8 21.463C1432.33 73.12 1465.58 100.777 1491.62 114.882C1499.89 119.212 1508.64 122.56 1517.69 124.859C1526.53 127.072 1535.62 128.175 1544.74 128.145C1550.97 128.127 1557.2 127.67 1563.37 126.777C1583.55 123.677 1608.56 111.767 1632.01 94.102L1635.15 91.689C1641.76 86.5189 1648.09 80.9952 1654.11 75.142C1658.45 70.8388 1662.55 66.3088 1666.41 61.571C1672.6 70.045 1681.09 74.712 1690.33 74.712C1692.17 74.7089 1694 74.5304 1695.79 74.179C1703.5 72.86 1717.02 67.918 1729.75 58.328L1732.61 56.154C1739.3 50.9533 1745.07 44.6739 1749.7 37.574C1753.87 31.9977 1757.07 25.7569 1759.16 19.115C1761.06 12.9341 1761.76 6.44543 1761.22 0.000976563L1920 0.000976563V64.846C1919.27 64.833 1918.5 64.826 1917.71 64.826C1895.23 64.826 1859.66 70.736 1817.91 98.888L1813.96 101.817L1809.88 104.952C1760.03 143.899 1741.55 185.432 1749.98 239.62C1760.5 291.274 1793.75 318.933 1819.8 333.039C1828.06 337.369 1836.81 340.717 1845.86 343.016C1854.7 345.229 1863.79 346.333 1872.91 346.302C1879.14 346.284 1885.37 345.827 1891.54 344.935C1901.36 343.255 1910.93 340.312 1920 336.18V636.441C1906.62 636.604 1893.12 637.172 1879.86 638.133C1875.43 630.22 1870.45 622.625 1864.96 615.402C1858.29 606.628 1851.14 598.226 1843.56 590.233L1841.07 587.793C1835.05 581.96 1828.69 576.489 1822.02 571.408C1817.2 567.752 1812.25 564.356 1806.9 561.027C1809.08 557.893 1811.19 554.692 1811.83 552.496C1812.91 550.033 1813.51 547.39 1813.6 544.706C1813.69 542.145 1813.36 539.587 1812.62 537.132C1811.15 532.334 1808.5 527.985 1804.9 524.491C1794.28 514.245 1771.13 509.531 1750.7 505.373H1750.7L1746.45 504.508C1743.85 503.936 1741.19 503.641 1738.52 503.63C1724.63 503.63 1712.62 512.048 1700.72 530.123C1694.85 539.343 1689.63 548.967 1685.12 558.923C1680.02 569.761 1674.94 581.641 1669.57 594.223L1669.56 594.251V594.257C1662.83 610.017 1653.18 623.051 1643.85 635.657L1643.84 635.665C1641.09 639.385 1638.24 643.232 1636.13 646.32C1624.33 659.64 1604.85 684.401 1607.02 700.573C1607.75 706.034 1610.27 712.066 1614.49 718.502C1618.31 724.179 1622.67 729.474 1627.51 734.312C1611.7 744.627 1592.71 756.68 1571.68 767.871C1551.16 778.917 1529.73 788.176 1507.63 795.545C1505.67 786.368 1501.39 773.138 1492.08 762.219C1487.37 756.618 1481.98 751.633 1476.02 747.382C1470.5 743.557 1464.63 740.249 1458.5 737.499C1452.76 735.086 1446.84 733.135 1440.8 731.662C1434.31 730.094 1427.66 729.297 1420.98 729.286C1413.98 729.307 1407.01 730.184 1400.23 731.898C1392.16 733.977 1384.35 736.959 1376.94 740.786C1367.74 745.564 1358.98 751.166 1350.79 757.522C1340.42 765.565 1330.61 774.305 1321.43 783.683L1319.07 786.257C1313.07 792.901 1307.49 799.92 1302.38 807.272ZM1238.04 434.672C1215.56 434.672 1180 440.582 1138.25 468.734L1134.3 471.664L1130.22 474.799C1080.37 513.747 1061.89 555.28 1070.32 609.466C1080.84 661.125 1114.09 688.781 1140.14 702.885C1148.4 707.216 1157.15 710.565 1166.2 712.864C1175.04 715.077 1184.13 716.181 1193.25 716.15C1199.48 716.132 1205.71 715.675 1211.88 714.783C1232.06 711.683 1257.08 699.772 1280.52 682.109L1283.66 679.696C1290.28 674.525 1296.6 669.001 1302.62 663.147C1306.96 658.845 1311.07 654.315 1314.92 649.578C1321.11 658.051 1329.61 662.718 1338.84 662.718C1340.68 662.715 1342.51 662.536 1344.31 662.184C1352.02 660.865 1365.53 655.923 1378.26 646.334L1381.12 644.161C1387.81 638.96 1393.59 632.68 1398.21 625.58C1414.33 603.603 1413.78 578.916 1396.66 556.067L1395.33 554.294C1393.93 552.404 1391.81 549.548 1389.34 546.372C1392.29 541.733 1394.6 536.716 1396.21 531.457C1398.26 525.997 1399.48 520.258 1399.82 514.434C1400.11 509.019 1399.46 503.594 1397.91 498.399C1396.29 493.126 1393.81 488.16 1390.55 483.706C1386.95 478.801 1382.67 474.425 1377.85 470.706C1370.02 465.099 1363.84 460.67 1351.66 459.644C1344.37 459.572 1337.27 461.961 1331.51 466.426C1328.15 469.021 1325.13 472.02 1322.52 475.355C1318.72 470.658 1314.55 466.283 1310.04 462.276C1300.95 454.218 1290.63 447.687 1279.45 442.937C1273.85 440.557 1268.06 438.648 1262.15 437.229C1254.24 435.454 1246.15 434.595 1238.04 434.669V434.672ZM1489.78 413.291C1494.91 415.772 1499.67 418.965 1503.91 422.774C1504.86 423.659 1505.71 424.645 1506.45 425.715C1506.06 427.629 1505.2 430.941 1504.57 433.359V433.374C1501.81 444.08 1498.02 458.739 1499.48 468.54C1500.78 477.203 1503.57 487.48 1514.49 498.024C1520.96 504.266 1529.65 510.045 1541.08 515.69C1547.39 518.728 1554.16 520.706 1561.11 521.545C1562.65 521.708 1564.19 521.791 1565.73 521.793C1570.83 521.913 1575.88 520.748 1580.42 518.407C1583.24 516.967 1585.69 514.871 1587.54 512.294C1589.39 509.717 1590.6 506.734 1591.06 503.594C1591.89 497.788 1590.48 492.494 1588.99 486.885C1587.09 479.72 1584.93 471.6 1586.18 459.176C1593.72 460.836 1601.42 461.702 1609.15 461.759C1612.86 461.768 1616.57 461.52 1620.25 461.018C1626.2 460.636 1646.86 458.389 1663.06 445.535C1668.82 441.025 1673.99 435.806 1678.44 430.001C1682.46 424.612 1685.97 418.865 1688.93 412.833C1703.27 381.227 1709.57 340.043 1647.56 274.233L1645.07 271.793C1639.05 265.96 1632.69 260.489 1626.02 255.408C1621.2 251.75 1616.25 248.355 1610.9 245.027C1613.08 241.897 1615.18 238.698 1615.83 236.496C1616.91 234.033 1617.51 231.391 1617.61 228.707C1617.69 226.146 1617.36 223.588 1616.62 221.133C1615.16 216.335 1612.5 211.986 1608.9 208.493C1598.28 198.246 1575.13 193.533 1554.7 189.375H1554.7L1550.45 188.51C1547.85 187.938 1545.19 187.643 1542.52 187.632C1528.63 187.632 1516.62 196.05 1504.73 214.123C1499.81 221.605 1494.85 230.755 1489.12 242.923C1484.03 253.763 1478.95 265.645 1473.58 278.223L1473.57 278.243V278.252C1466.84 294.009 1457.19 307.043 1447.86 319.652L1447.84 319.679C1445.1 323.379 1442.26 327.211 1440.14 330.314C1428.34 343.637 1408.86 368.401 1411.03 384.569C1412.82 397.889 1424.73 411.824 1434.4 421.169C1439.22 425.824 1443.04 428.902 1443.76 429.469C1446.02 431.218 1448.55 432.581 1451.25 433.501C1454.18 434.528 1457.25 435.062 1460.35 435.081C1463.89 435.134 1467.38 434.292 1470.5 432.635C1473.72 430.731 1476.66 428.386 1479.23 425.668C1483.02 421.776 1486.54 417.643 1489.79 413.295L1489.78 413.291ZM817.2 360.663C818.55 373.214 825.528 382.548 836.345 386.272C839.88 387.516 843.523 388.432 847.226 389.007C852.19 389.819 857.212 390.222 862.242 390.214C866.062 390.215 869.88 389.984 873.672 389.522L877.236 389.069C881.656 388.466 886.013 387.467 890.255 386.084C894.044 384.814 897.743 383.29 901.327 381.524C926.279 370.552 938.144 348.896 934.738 320.544L934.48 318.344V318.334C934.185 315.809 933.78 312.352 933.253 308.487C938.127 305.946 942.635 302.757 946.653 299.006C951.163 295.306 955.087 290.944 958.292 286.069C961.249 281.523 963.4 276.501 964.652 271.224C965.889 265.85 966.22 260.307 965.631 254.824C964.961 248.774 963.446 242.848 961.131 237.218C957.153 228.447 954.011 221.518 943.978 214.542C939.016 211.596 933.349 210.047 927.578 210.059C926.094 210.062 924.611 210.154 923.138 210.337C918.935 210.901 914.819 211.989 910.887 213.576C909.952 207.612 908.523 201.737 906.617 196.009C902.782 184.49 897.103 173.669 889.801 163.969C886.141 159.107 882.082 154.558 877.667 150.369C872.906 145.86 862.33 137.15 844.995 129.469C834.908 125.05 824.395 121.676 813.62 119.401C799.749 116.493 785.611 115.057 771.439 115.116C765.947 115.116 760.288 115.316 754.619 115.716L749.732 116.278L744.626 116.95C681.98 125.75 645.216 152.485 625.419 203.627C608.707 253.627 623.675 294.205 639.174 319.44C653.107 341.131 670.96 355.803 695.359 365.614C702.566 368.322 710.042 370.251 717.659 371.367C726.477 372.701 735.384 373.352 744.302 373.315C753.273 373.3 762.236 372.739 771.139 371.635L775.07 371.118C783.382 369.947 791.625 368.328 799.763 366.268C805.671 364.711 811.492 362.842 817.202 360.668L817.2 360.663ZM1102.04 240.242C1105.24 244.957 1107.76 250.1 1109.53 255.52C1109.91 256.762 1110.15 258.041 1110.26 259.335C1108.97 260.787 1106.57 263.235 1104.81 265.016L1104.8 265.027C1097.05 272.915 1086.44 283.717 1082.81 292.937C1079.6 301.086 1076.88 311.383 1081.06 325.975C1083.54 334.61 1088.18 343.963 1095.26 354.568C1099.2 360.354 1104.08 365.451 1109.68 369.654C1112.49 371.729 1115.56 373.426 1118.81 374.699C1121.73 375.843 1124.83 376.483 1127.96 376.591C1128.2 376.597 1128.4 376.6 1128.6 376.6C1131.66 376.671 1134.7 376.029 1137.48 374.725C1140.26 373.421 1142.69 371.491 1144.59 369.087C1148.21 364.471 1149.64 359.18 1151.15 353.578C1153.09 346.422 1155.28 338.312 1162.57 328.178C1167.03 332.23 1171.81 335.928 1176.84 339.238C1181.36 342.214 1186.16 344.75 1191.16 346.811C1195.44 348.894 1199.89 350.622 1204.45 351.977C1211.73 354.222 1219.3 355.395 1226.92 355.458C1229.95 355.462 1232.98 355.244 1235.97 354.805C1243.22 353.783 1250.3 351.849 1257.06 349.051C1263.24 346.392 1269.15 343.17 1274.73 339.427C1302.95 319.227 1329 286.707 1308.2 198.705L1307.27 195.348C1304.97 187.286 1302.2 179.368 1298.97 171.634C1296.62 166.054 1294.03 160.639 1291.06 155.083C1294.51 153.461 1297.94 151.743 1299.6 150.163C1301.76 148.566 1303.6 146.578 1305.03 144.303C1306.38 142.127 1307.37 139.746 1307.96 137.252C1309.09 132.363 1308.97 127.269 1307.59 122.443C1303.53 108.262 1285.83 92.603 1270.22 78.787L1266.97 75.913C1263.76 72.9426 1260.02 70.594 1255.94 68.986C1252.08 67.5213 1247.97 66.7836 1243.84 66.81C1237.34 66.9544 1230.93 68.2656 1224.9 70.681C1217.58 73.532 1210.53 77.0407 1203.84 81.164C1189.11 89.981 1172.79 102.224 1155.52 115.187C1141.81 125.469 1126.94 131.932 1112.56 138.181H1112.55L1112.54 138.187C1108.31 140.025 1103.94 141.925 1100.54 143.554C1083.65 149.19 1054.41 160.899 1048.2 175.985C1043.09 188.411 1046.43 206.434 1050.14 219.365C1051.99 225.814 1053.76 230.385 1054.09 231.235C1057.1 238.857 1065.68 247.093 1075.66 247.343C1075.83 247.343 1076.01 247.35 1076.2 247.35C1079.89 247.233 1083.56 246.635 1087.1 245.571C1092.19 244.106 1097.17 242.326 1102.04 240.24L1102.04 240.242ZM1639.46 726.442C1628.61 715.823 1621.84 705.711 1620.9 698.697C1620.66 696.925 1621.12 694.497 1622.26 691.47C1623.67 687.896 1625.4 684.454 1627.42 681.182C1633.19 671.876 1639.78 663.104 1647.11 654.968C1649.63 651.373 1652.28 647.794 1655.08 644.004L1655.11 643.973C1664.46 631.338 1675.06 617.016 1682.44 599.743C1692.77 575.551 1702.06 554.35 1711.11 539.905C1715.77 532.465 1720.18 527.089 1724.59 523.47C1729.32 519.595 1734.06 517.711 1739.08 517.711C1740.59 517.716 1742.09 517.881 1743.57 518.203L1747.91 519.089C1764.61 522.489 1787.48 527.146 1795.51 534.901L1795.52 534.907C1797.12 536.462 1798.32 538.384 1799.01 540.507C1799.78 542.828 1799.68 545.35 1798.74 547.607C1798.22 549.107 1795.04 553.565 1793.69 555.467L1793.68 555.474C1790.93 559.344 1787.81 563.731 1791.96 568.074L1792.62 568.768L1793.44 569.257L1793.46 569.266C1807.23 577.177 1819.96 586.786 1831.34 597.866L1833.53 600.001C1840.17 607.048 1846.17 614.007 1851.36 620.686C1856.06 626.68 1860.4 632.944 1864.37 639.445C1842.18 641.56 1820.12 644.883 1798.29 649.399L1798.28 649.389C1798.19 649.282 1798.09 649.16 1797.98 649.045C1797.06 648.02 1795.94 647.187 1794.7 646.594C1793.45 646 1792.11 645.657 1790.73 645.585C1789.35 645.513 1787.97 645.713 1786.67 646.173C1785.37 646.634 1784.18 647.345 1783.15 648.268L1776.14 654.587L1776.26 654.553H1776.28C1728.11 667.68 1688.65 693.843 1646.88 721.541L1646.31 721.915C1644.07 723.4 1641.76 724.935 1639.46 726.454L1639.46 726.442ZM1193.39 702.132C1185.36 702.159 1177.36 701.19 1169.57 699.247C1161.62 697.237 1153.94 694.302 1146.68 690.502C1140.26 687.032 1134.14 683.048 1128.36 678.588C1121.72 673.451 1115.61 667.646 1110.15 661.264C1104.01 654.067 1098.77 646.147 1094.55 637.68C1089.74 627.948 1086.23 617.632 1084.1 606.991C1076.59 558.642 1093.47 521.274 1138.84 485.828L1142.73 482.842L1146.3 480.192C1163.66 468.486 1181.32 459.892 1198.78 454.656C1211.42 450.757 1224.57 448.722 1237.81 448.617H1237.82C1244.91 448.548 1251.98 449.296 1258.9 450.847C1264.26 452.132 1269.5 453.877 1274.56 456.063C1284.65 460.422 1293.94 466.449 1302.03 473.892C1306.05 477.591 1309.74 481.63 1313.06 485.965C1313.28 486.5 1313.54 487.12 1313.86 487.86C1314.28 488.802 1314.71 489.746 1315.18 490.746C1317.26 495.246 1319.61 500.339 1320.73 506.751C1322.02 514.156 1321.4 521.984 1318.85 530.681C1318.71 531.218 1318.25 532.587 1318.09 533.037L1318.04 533.194C1315.09 540.1 1311.15 546.539 1306.34 552.307C1302.05 557.444 1297.16 562.03 1290.66 567.763C1277.24 579.335 1262.17 591.678 1238.58 604.169C1238.25 604.291 1237.36 604.705 1235.83 605.504C1229.54 608.915 1222.97 611.78 1216.18 614.068C1207.83 616.822 1198.84 619.368 1189.7 619.368H1189.69C1188.91 619.368 1188.12 619.349 1187.35 619.31C1187.24 619.304 1187.12 619.301 1187 619.301C1185.18 619.304 1183.42 620.019 1182.12 621.295C1180.81 622.57 1180.06 624.305 1180.01 626.129C1179.97 627.954 1180.64 629.723 1181.88 631.061C1183.12 632.399 1184.83 633.2 1186.66 633.292C1187.63 633.341 1188.64 633.366 1189.64 633.366C1200.84 633.366 1211.53 630.338 1220.52 627.376C1228.04 624.841 1235.34 621.672 1242.33 617.902L1244.28 616.922C1263.31 606.9 1272.92 600.765 1287.12 589.573C1291.29 586.197 1295.07 582.961 1297.91 580.518C1304.7 574.632 1310.98 568.175 1316.67 561.218C1322.65 553.877 1327.62 545.764 1331.44 537.099C1334.7 528.625 1335.84 519.482 1334.76 510.467C1333.95 503.276 1332.16 496.23 1329.45 489.521C1333.39 483.776 1336.63 480.101 1339.94 477.606C1343.11 475.093 1347.02 473.691 1351.06 473.616C1354.39 473.841 1357.64 474.716 1360.63 476.192C1363.72 477.862 1366.67 479.772 1369.47 481.903C1373.07 484.675 1376.29 487.923 1379.03 491.558C1381.45 494.803 1383.3 498.443 1384.48 502.316C1385.61 506.168 1386.05 510.19 1385.78 514.196C1385.44 518.651 1384.47 523.035 1382.9 527.214C1381.78 531.372 1379.03 536.808 1374.96 542.934L1372.12 547.201L1375.33 551.194C1378.95 555.702 1381.93 559.706 1384.11 562.629L1384.12 562.644L1385.47 564.456C1388.62 568.575 1391.21 573.1 1393.15 577.909C1394.85 582.16 1395.79 586.675 1395.94 591.25C1396.04 595.741 1395.33 600.214 1393.83 604.45C1392.15 609.118 1389.78 613.51 1386.81 617.482C1382.98 623.427 1378.18 628.688 1372.61 633.047L1369.85 635.147C1364.74 638.982 1359.19 642.194 1353.31 644.717C1349.63 646.373 1345.77 647.611 1341.81 648.407C1340.87 648.592 1339.92 648.687 1338.96 648.69C1330.97 648.69 1326.18 641.856 1324.04 637.782L1317.12 622.966L1310.14 632.781C1304.96 640.053 1299.17 646.869 1292.83 653.155C1287.19 658.638 1281.26 663.812 1275.06 668.655L1272.11 670.922C1250.78 686.996 1227.5 698.214 1209.85 700.928C1204.4 701.716 1198.9 702.119 1193.39 702.135V702.132ZM1213.43 517.801C1211.48 517.802 1209.57 518.347 1207.91 519.375C1206.25 520.403 1204.91 521.873 1204.04 523.62C1203.17 525.366 1202.81 527.321 1202.98 529.264C1203.16 531.208 1203.88 533.063 1205.06 534.621L1223.71 559.38C1224.71 560.706 1226 561.775 1227.49 562.498C1228.93 563.196 1230.5 563.559 1232.1 563.561C1234.05 563.561 1235.96 563.016 1237.62 561.989C1239.28 560.962 1240.62 559.492 1241.5 557.745C1242.37 555.998 1242.73 554.044 1242.55 552.1C1242.38 550.156 1241.66 548.301 1240.48 546.742L1221.83 521.983C1220.83 520.658 1219.54 519.589 1218.05 518.866C1216.61 518.167 1215.03 517.803 1213.43 517.801ZM1258.95 483.501C1256.67 483.496 1254.46 484.239 1252.64 485.616C1250.42 487.294 1248.96 489.785 1248.57 492.541C1248.18 495.298 1248.9 498.096 1250.58 500.321L1269.23 525.08C1270.23 526.405 1271.52 527.473 1273.01 528.196C1274.45 528.895 1276.02 529.258 1277.62 529.26H1277.63C1279.58 529.258 1281.49 528.713 1283.15 527.685C1284.81 526.658 1286.15 525.188 1287.02 523.442C1287.89 521.695 1288.25 519.741 1288.07 517.798C1287.9 515.855 1287.18 514 1286.01 512.442L1267.35 487.685C1266.36 486.359 1265.06 485.29 1263.57 484.566C1262.13 483.865 1260.55 483.499 1258.95 483.495V483.501ZM909.189 590.763C895.74 583.363 881.644 576.491 867.289 570.335C867.718 558.355 864.462 547.51 861.654 540.521C865.596 534.779 868.832 531.105 872.145 528.605C875.317 526.093 879.226 524.692 883.272 524.618C886.597 524.843 889.845 525.718 892.833 527.192C895.92 528.859 898.872 530.764 901.662 532.892L901.673 532.9C905.281 535.672 908.498 538.92 911.236 542.554C913.658 545.799 915.5 549.439 916.681 553.313C917.814 557.165 918.254 561.187 917.981 565.193C917.649 569.648 916.678 574.032 915.099 578.211C913.708 582.642 911.721 586.864 909.191 590.759L909.189 590.763ZM103.364 587.209C98.9842 587.216 94.6116 586.855 90.292 586.132C87.4923 585.69 84.7361 585.007 82.054 584.091C80.093 583.444 78.3024 582.365 76.8148 580.933C75.3273 579.501 74.1807 577.753 73.46 575.818C72.2998 572.681 71.7944 569.34 71.975 566.001L73.39 549.711L62.439 554.721C54.3172 558.428 45.8936 561.435 37.26 563.709C29.6337 565.638 21.9087 567.153 14.119 568.249L10.428 568.736C6.99498 569.157 3.48698 569.499 0.000976562 569.754V507.175C4.80098 507.675 8.75098 507.837 11.11 507.934H11.158L13.333 508.058C19.782 508.309 25.002 508.427 29.762 508.427C41.2635 508.451 52.7492 507.572 64.113 505.797C69.3 504.975 74.033 504.097 77.978 503.349C86.805 501.648 95.47 499.193 103.878 496.013C112.73 492.647 121.088 488.106 128.73 482.513C135.791 476.806 141.351 469.46 144.924 461.113C147.815 454.478 149.79 447.48 150.794 440.313C157.08 437.313 161.719 435.746 165.837 435.239C166.747 435.126 167.662 435.069 168.579 435.067C171.69 435.035 174.754 435.821 177.465 437.348C180.232 439.205 182.608 441.587 184.459 444.358C186.299 447.346 187.902 450.474 189.253 453.712L189.259 453.726C190.998 457.931 192.16 462.352 192.714 466.868C193.189 470.89 192.964 474.963 192.05 478.908C191.104 482.81 189.473 486.512 187.233 489.844C184.72 493.536 181.689 496.847 178.233 499.677C175.182 502.72 170.087 506.056 163.5 509.323L158.912 511.6L159.693 516.663C160.568 522.319 161.142 527.245 161.561 530.842L161.576 530.973L161.842 533.217C162.512 538.361 162.486 543.571 161.764 548.708C161.108 553.239 159.668 557.621 157.51 561.658C155.351 565.598 152.496 569.114 149.082 572.035C145.291 575.237 141.044 577.857 136.482 579.809C130.195 583.043 123.41 585.201 116.409 586.192L112.968 586.627C109.781 587.016 106.574 587.21 103.364 587.209ZM342.324 573.601C342.236 573.601 342.151 573.601 342.066 573.601C339.602 573.536 330.766 572.196 320.545 557.663C314.437 548.502 310.304 540.245 308.261 533.121C305.089 522.061 307.274 514.908 309.571 509.071C312.163 502.497 322.016 492.471 328.535 485.835C333.305 480.982 335.653 478.555 336.887 476.435L337.512 475.365L337.729 474.147C338.282 470.293 337.94 466.363 336.729 462.663C335.391 458.432 333.668 454.333 331.582 450.417C328.982 445.435 326.37 441.653 324.234 439.767C323.941 439.494 323.632 439.239 323.308 439.003C322.235 438.232 321.027 437.669 319.747 437.342L319.625 437.284L319.589 437.301C318.573 437.054 317.53 436.931 316.484 436.934C314.77 436.925 313.069 437.245 311.476 437.877C306.56 440.022 301.502 441.826 296.338 443.277C294.262 443.895 292.117 444.255 289.953 444.349H289.753C286.373 444.264 282.122 440.314 280.853 437.1C280.56 436.358 279.011 432.36 277.336 426.507C273.023 411.469 272.13 399.007 274.885 392.313C275.565 390.659 277.175 388.78 279.67 386.729C282.684 384.342 285.901 382.224 289.285 380.4C298.935 375.226 309.027 370.923 319.442 367.541C323.411 365.697 327.48 363.928 331.787 362.055L331.866 362.021C346.284 355.758 362.625 348.658 377.652 337.385C394.452 324.785 410.652 312.791 424.185 304.585C438.359 295.985 448.853 291.985 457.209 291.985C459.797 291.961 462.368 292.401 464.8 293.285C467.223 294.205 469.449 295.579 471.359 297.332L474.674 300.271L474.689 300.285C487.448 311.575 504.921 327.038 507.997 337.767C507.998 337.77 507.998 337.773 507.997 337.776C508.606 339.922 508.681 342.185 508.217 344.367C507.723 346.76 506.382 348.895 504.439 350.377C503.239 351.414 498.26 353.689 496.133 354.661H496.127C491.805 356.636 486.906 358.874 488.327 364.71L488.555 365.641L489.026 366.478C497.004 380.221 503.226 394.91 507.546 410.202L508.37 413.143C510.663 422.843 512.416 432.13 513.579 440.733C514.651 448.445 515.252 456.216 515.38 464.001C515.484 470.489 515.102 476.975 514.237 483.406C513.499 488.839 512.286 494.197 510.613 499.418C509.149 503.948 507.26 508.329 504.972 512.504C502.9 516.256 500.492 519.812 497.777 523.129C492.778 529.122 486.995 534.414 480.583 538.863C475.533 542.272 470.154 545.166 464.526 547.501C460.067 548.708 455.519 550.018 451.01 551.396C449.91 551.602 448.783 551.791 447.655 551.957C445.377 552.288 443.079 552.451 440.777 552.446C435.293 552.4 429.838 551.649 424.545 550.212C419.754 548.953 415.098 547.225 410.645 545.054C400.601 540.967 390.554 533.921 380.785 524.112L376.052 519.359L371.102 523.886C369.369 525.471 367.785 527.212 366.369 529.086C356.458 542.155 353.524 553.001 351.381 560.921V560.927L351.37 560.969C350.141 565.507 349.17 569.089 347.316 571.454C346.713 572.181 345.946 572.754 345.078 573.128C344.21 573.501 343.267 573.663 342.324 573.601ZM454.662 485.286C453.924 485.287 453.189 485.364 452.467 485.518L422.144 491.963C419.606 492.501 417.357 493.959 415.831 496.056C414.304 498.154 413.608 500.742 413.877 503.322C414.145 505.903 415.36 508.292 417.286 510.03C419.212 511.768 421.713 512.732 424.307 512.735H424.315C425.054 512.735 425.792 512.657 426.515 512.503L456.838 506.057C459.377 505.519 461.626 504.06 463.153 501.962C464.679 499.864 465.375 497.274 465.105 494.694C464.835 492.113 463.619 489.723 461.692 487.986C459.764 486.248 457.262 485.286 454.667 485.285L454.662 485.286ZM442.811 429.531C442.074 429.532 441.338 429.609 440.617 429.763L410.294 436.209C408.933 436.484 407.641 437.025 406.491 437.803C405.341 438.58 404.357 439.577 403.595 440.738C402.833 441.898 402.309 443.197 402.052 444.561C401.796 445.926 401.812 447.327 402.101 448.685C402.39 450.042 402.944 451.329 403.734 452.471C404.523 453.613 405.53 454.587 406.698 455.337C407.866 456.087 409.171 456.598 410.538 456.84C411.904 457.082 413.305 457.051 414.66 456.749L444.983 450.303C447.522 449.765 449.771 448.306 451.298 446.208C452.824 444.11 453.52 441.52 453.25 438.94C452.98 436.359 451.764 433.969 449.837 432.232C447.909 430.494 445.407 429.532 442.812 429.531H442.811ZM853.584 564.701C838.675 558.828 823.113 553.541 807.33 548.986L799.566 538.686C798.573 537.361 797.278 536.292 795.789 535.568C794.35 534.869 792.771 534.506 791.171 534.504C788.891 534.506 786.674 535.251 784.854 536.624C783.034 537.998 781.71 539.926 781.083 542.118C765.27 538.389 748.883 535.259 732.376 532.818C716.599 530.484 700.336 528.723 684.039 527.583C699.26 517.733 715.821 510.127 733.211 505.001C745.175 501.515 757.565 499.701 770.026 499.611C777.116 499.543 784.19 500.291 791.109 501.841C796.47 503.126 801.71 504.872 806.771 507.058C816.863 511.417 826.149 517.444 834.24 524.887C838.258 528.586 841.949 532.625 845.271 536.96C845.485 537.492 845.747 538.111 846.071 538.855C846.49 539.806 846.927 540.75 847.389 541.749C848.967 544.999 850.332 548.349 851.474 551.777C852.809 555.955 853.521 560.307 853.585 564.692L853.584 564.701ZM417.769 562.851C418.853 562.438 419.959 562.021 421.055 561.611C419.947 562.025 418.842 562.443 417.769 562.851ZM447.076 552.618C448.383 552.206 449.707 551.795 451.01 551.397H451.016C449.716 551.793 448.39 552.201 447.077 552.618H447.076ZM1565.5 507.825C1560.12 507.825 1553.94 506.225 1547.12 503.062C1537.25 498.182 1529.55 493.097 1524.22 487.948C1515.94 479.956 1514.26 472.668 1513.33 466.465C1512.28 459.478 1515.8 445.865 1518.13 436.86C1519.83 430.27 1520.65 426.994 1520.66 424.546V423.309L1520.24 422.146C1518.79 418.532 1516.53 415.3 1513.63 412.701C1510.36 409.706 1506.82 407.018 1503.05 404.669C1498.31 401.655 1494.15 399.684 1491.37 399.119C1490.98 399.029 1490.58 398.962 1490.18 398.919C1489.83 398.883 1489.48 398.864 1489.13 398.864C1488.16 398.869 1487.2 399.003 1486.27 399.264L1486.13 399.276L1486.11 399.309C1483.45 400.101 1481.1 401.692 1479.37 403.865C1470.08 416.133 1465.38 419.465 1463.79 420.333C1462.74 420.848 1461.57 421.097 1460.4 421.058C1457.56 421.039 1454.79 420.148 1452.46 418.504C1451.84 418.009 1448.51 415.326 1444.12 411.09C1432.87 400.224 1425.86 389.876 1424.9 382.701C1424.66 380.929 1425.12 378.501 1426.25 375.473C1427.67 371.899 1429.4 368.457 1431.42 365.185C1437.19 355.879 1443.78 347.106 1451.1 338.97C1453.65 335.339 1456.42 331.599 1459.1 327.982C1468.46 315.34 1479.07 301.015 1486.44 283.748C1496.77 259.556 1506.06 238.356 1515.11 223.911C1519.77 216.47 1524.18 211.094 1528.59 207.476C1533.32 203.6 1538.06 201.716 1543.08 201.716C1544.59 201.721 1546.09 201.886 1547.57 202.208L1551.91 203.095C1568.61 206.495 1591.48 211.149 1599.51 218.905C1599.52 218.907 1599.52 218.909 1599.52 218.912C1601.12 220.467 1602.32 222.389 1603.01 224.512C1603.78 226.833 1603.68 229.355 1602.74 231.612C1602.22 233.098 1599.06 237.542 1597.71 239.439L1597.68 239.478C1594.93 243.35 1591.81 247.738 1595.96 252.078L1596.62 252.772L1597.44 253.26H1597.45C1611.23 261.171 1623.96 270.779 1635.34 281.86L1637.53 283.995C1644.37 291.252 1650.53 298.414 1655.83 305.284C1660.62 311.426 1665.02 317.854 1669.03 324.531C1672.36 330.098 1675.27 335.906 1677.74 341.908C1679.82 346.982 1681.45 352.228 1682.61 357.587C1683.6 362.242 1684.16 366.981 1684.27 371.74C1684.35 376.026 1684.04 380.31 1683.35 384.54C1682.01 392.229 1679.65 399.704 1676.32 406.762C1670.84 417.518 1665.25 425.921 1654.35 434.567C1649.06 438.623 1643.09 441.697 1636.72 443.644C1630.92 445.514 1624.92 446.672 1618.85 447.094C1615.63 447.529 1612.39 447.745 1609.14 447.738C1600.13 447.625 1591.18 446.331 1582.52 443.888L1576.04 442.138L1574.02 448.538C1573.31 450.777 1572.81 453.076 1572.52 455.406C1570.47 471.686 1573.35 482.546 1575.46 490.476C1576.67 495.038 1577.63 498.639 1577.2 501.626C1577.03 502.599 1576.63 503.515 1576.02 504.296C1575.42 505.077 1574.63 505.698 1573.73 506.106C1571.17 507.35 1568.34 507.94 1565.5 507.825ZM1632.32 371.925C1629.73 371.925 1627.23 372.887 1625.3 374.625L1602.26 395.367C1600.76 396.725 1599.67 398.491 1599.15 400.452C1598.62 402.413 1598.67 404.484 1599.3 406.414C1599.93 408.345 1601.1 410.053 1602.68 411.331C1604.26 412.608 1606.17 413.402 1608.19 413.614C1608.56 413.652 1608.92 413.671 1609.29 413.671C1611.89 413.67 1614.39 412.708 1616.32 410.971L1639.35 390.227C1640.93 388.806 1642.04 386.939 1642.54 384.875C1643.03 382.81 1642.89 380.644 1642.13 378.662C1641.37 376.68 1640.02 374.975 1638.27 373.773C1636.52 372.57 1634.45 371.927 1632.32 371.927L1632.32 371.925ZM1594.18 329.565C1591.59 329.564 1589.09 330.526 1587.16 332.265L1564.12 353.007C1562.61 354.365 1561.53 356.131 1561.01 358.092C1560.48 360.053 1560.53 362.124 1561.16 364.054C1561.79 365.985 1562.96 367.692 1564.54 368.97C1566.12 370.247 1568.03 371.04 1570.05 371.253C1570.42 371.291 1570.78 371.31 1571.15 371.31C1573.75 371.311 1576.25 370.349 1578.17 368.61L1601.21 347.868C1602.79 346.447 1603.9 344.58 1604.39 342.516C1604.89 340.451 1604.75 338.285 1603.98 336.303C1603.22 334.321 1601.88 332.616 1600.13 331.414C1598.38 330.211 1596.31 329.568 1594.18 329.568L1594.18 329.565ZM24.485 494.344C21.306 494.344 18.04 494.284 14.777 494.164C14.442 494.108 13.442 494.018 11.73 493.948C9.19898 493.848 4.96398 493.671 0.000976562 493.096V340.457C4.27798 340.216 8.54698 340.094 12.69 340.094C25.6167 340.037 38.5146 341.317 51.178 343.914C60.9458 345.934 70.4821 348.946 79.639 352.901C95.326 359.753 104.791 367.523 109.039 371.544C113.039 375.337 116.704 379.469 119.994 383.893C126.554 392.714 131.583 402.577 134.868 413.068C136.499 418.28 137.676 423.624 138.386 429.039C138.304 429.608 138.22 430.275 138.13 431.079C138.02 432.1 137.93 433.137 137.83 434.235C137.383 439.17 136.876 444.761 134.636 450.871C132.049 457.929 127.602 464.4 121.036 470.655C120.657 471.041 119.636 471.942 119.251 472.281L119.19 472.335L119.084 472.43C113.076 476.935 106.443 480.54 99.395 483.13C93.104 485.43 86.577 486.96 78.087 488.673C70.74 490.073 62.703 491.515 53.718 492.594C44.0177 493.765 34.2556 494.35 24.485 494.344ZM30.96 405.394C30.5278 405.394 30.096 405.42 29.667 405.473C26.9032 405.812 24.3875 407.236 22.6731 409.43C20.9587 411.624 20.186 414.409 20.525 417.173L24.304 447.943C24.6586 450.694 26.0874 453.193 28.2785 454.894C30.4695 456.595 33.2446 457.361 35.9978 457.022C38.7511 456.684 41.2586 455.27 42.9728 453.09C44.6871 450.909 45.4687 448.138 45.147 445.383L41.369 414.613C41.0565 412.071 39.8259 409.731 37.9087 408.033C35.9915 406.335 33.5199 405.397 30.959 405.394H30.96ZM87.535 398.448C87.1028 398.448 86.671 398.474 86.242 398.527C83.4798 398.87 80.9662 400.294 79.2526 402.487C77.539 404.681 76.7652 407.464 77.101 410.227L80.878 441.001C81.1917 443.543 82.4227 445.882 84.3398 447.58C86.257 449.278 88.7281 450.217 91.289 450.221C91.7202 450.221 92.151 450.194 92.579 450.142C95.3414 449.8 97.8551 448.375 99.569 446.182C101.283 443.989 102.057 441.205 101.721 438.442L97.943 407.673C97.6319 405.13 96.4022 402.789 94.4853 401.09C92.5684 399.391 90.0965 398.451 87.535 398.448ZM862.367 376.208C857.987 376.214 853.613 375.854 849.293 375.131C846.493 374.689 843.737 374.006 841.054 373.09C839.093 372.443 837.303 371.363 835.816 369.931C834.328 368.499 833.182 366.751 832.461 364.816C831.301 361.68 830.795 358.34 830.974 355.001L832.39 338.711L821.439 343.721C813.318 347.43 804.894 350.437 796.26 352.71C788.634 354.639 780.91 356.154 773.121 357.25L769.43 357.735C761.146 358.759 752.807 359.277 744.46 359.288C736.376 359.323 728.3 358.755 720.3 357.588C713.54 356.647 706.903 354.97 700.507 352.588C678.983 343.932 663.261 331.03 651.028 311.988C647.207 305.775 643.896 299.262 641.128 292.513C637.939 284.74 635.554 276.66 634.013 268.401C632.294 259.098 631.718 249.62 632.297 240.178C633.001 229.346 635.116 218.653 638.589 208.369C656.258 162.743 689.562 138.822 746.576 130.809L751.441 130.169L755.854 129.655C761.2 129.282 766.53 129.093 771.694 129.093C784.621 129.036 797.52 130.316 810.184 132.912C819.952 134.932 829.488 137.943 838.645 141.898C854.326 148.747 863.793 156.518 868.045 160.54C872.045 164.334 875.71 168.466 879 172.89C885.56 181.712 890.589 191.575 893.874 202.066C895.505 207.278 896.682 212.622 897.391 218.037C897.305 218.643 897.222 219.31 897.136 220.078C897.026 221.101 896.936 222.137 896.836 223.235C896.389 228.17 895.882 233.761 893.642 239.871C891.055 246.929 886.608 253.4 880.042 259.653C879.69 260.011 878.752 260.841 878.352 261.195C878.224 261.309 878.115 261.405 878.091 261.428C872.083 265.933 865.45 269.538 858.401 272.128C852.111 274.428 845.584 275.957 837.092 277.671C829.746 279.071 821.709 280.513 812.722 281.592C803.022 282.762 793.261 283.345 783.491 283.339C780.307 283.339 777.041 283.279 773.784 283.159C773.45 283.101 772.475 283.014 770.74 282.943C763.584 282.749 756.458 281.943 749.44 280.535C740.008 278.571 730.14 276.016 721.85 270.664C721.078 270.165 720.215 269.823 719.311 269.657C718.406 269.492 717.478 269.506 716.579 269.699C715.68 269.892 714.828 270.261 714.072 270.783C713.315 271.305 712.669 271.972 712.17 272.744C711.671 273.516 711.329 274.379 711.163 275.283C710.998 276.188 711.012 277.116 711.205 278.015C711.398 278.914 711.767 279.766 712.289 280.522C712.811 281.279 713.478 281.925 714.25 282.424C724.492 289.039 736.317 292.106 746.534 294.233C754.318 295.799 762.22 296.702 770.156 296.933L772.334 297.057C778.783 297.308 784.004 297.426 788.764 297.426C800.265 297.45 811.75 296.571 823.113 294.797C828.437 293.951 833.321 293.043 836.98 292.346C845.807 290.645 854.472 288.191 862.88 285.011C871.732 281.645 880.091 277.105 887.732 271.511C894.794 265.805 900.353 258.458 903.926 250.111C906.817 243.476 908.791 236.478 909.795 229.311C916.082 226.311 920.721 224.743 924.84 224.238C925.751 224.125 926.667 224.068 927.585 224.066C930.695 224.034 933.759 224.82 936.469 226.346C939.234 228.2 941.608 230.578 943.458 233.346C945.297 236.33 946.899 239.454 948.249 242.688L948.264 242.72C950.002 246.925 951.164 251.346 951.717 255.862C952.191 259.883 951.966 263.956 951.052 267.901C950.106 271.803 948.474 275.506 946.234 278.838C943.721 282.53 940.69 285.841 937.234 288.671C934.187 291.712 929.093 295.047 922.503 298.317L917.91 300.601L918.692 305.663C919.568 311.338 920.144 316.279 920.565 319.888L920.575 319.974L920.84 322.216C921.511 327.36 921.485 332.571 920.763 337.708C920.107 342.239 918.668 346.621 916.51 350.658C914.351 354.598 911.496 358.114 908.082 361.035C904.291 364.237 900.044 366.856 895.482 368.808C889.195 372.044 882.411 374.202 875.41 375.193L871.969 375.629C868.783 376.017 865.576 376.21 862.366 376.208H862.367ZM789.961 194.395C789.529 194.395 789.097 194.421 788.668 194.474C785.904 194.813 783.389 196.237 781.674 198.431C779.96 200.625 779.187 203.41 779.526 206.174L783.304 236.944C783.458 238.324 783.884 239.661 784.557 240.875C785.231 242.09 786.139 243.159 787.228 244.02C788.318 244.882 789.568 245.518 790.905 245.893C792.243 246.268 793.641 246.374 795.02 246.205C796.398 246.035 797.73 245.594 798.937 244.907C800.143 244.219 801.202 243.299 802.051 242.2C802.9 241.1 803.522 239.843 803.881 238.502C804.241 237.16 804.331 235.761 804.146 234.384L800.367 203.615C800.055 201.074 798.825 198.734 796.909 197.036C794.992 195.338 792.521 194.399 789.961 194.395ZM846.536 187.448C846.104 187.448 845.673 187.474 845.244 187.527C842.48 187.866 839.964 189.289 838.249 191.483C836.535 193.678 835.762 196.463 836.101 199.227L839.878 230.001C840.191 232.542 841.422 234.882 843.339 236.58C845.256 238.278 847.727 239.217 850.288 239.221C850.72 239.221 851.151 239.194 851.58 239.142C854.344 238.802 856.859 237.379 858.573 235.185C860.287 232.991 861.06 230.206 860.721 227.442L856.944 196.673C856.632 194.131 855.402 191.79 853.485 190.091C851.568 188.392 849.096 187.452 846.535 187.447L846.536 187.448ZM1128.6 362.601C1128.51 362.601 1128.42 362.601 1128.33 362.601C1125.87 362.539 1117.04 361.207 1106.81 346.665C1100.7 337.501 1096.57 329.243 1094.53 322.121C1091.35 311.06 1093.54 303.908 1095.84 298.073C1098.43 291.493 1108.28 281.473 1114.8 274.837C1119.57 269.983 1121.92 267.557 1123.15 265.437L1123.78 264.369L1124 263.151C1124.55 259.297 1124.21 255.367 1123 251.667C1121.66 247.437 1119.93 243.338 1117.85 239.422C1115.25 234.44 1112.64 230.658 1110.5 228.772C1110.21 228.5 1109.9 228.245 1109.57 228.01C1108.5 227.238 1107.29 226.674 1106.01 226.347L1105.89 226.291L1105.85 226.305C1104.84 226.059 1103.8 225.936 1102.76 225.94C1101.04 225.93 1099.34 226.25 1097.74 226.883C1092.83 229.027 1087.77 230.832 1082.6 232.283C1080.53 232.901 1078.38 233.261 1076.22 233.356H1076.02C1072.64 233.271 1068.39 229.322 1067.12 226.108C1066.83 225.361 1065.27 221.339 1063.6 215.514C1059.29 200.476 1058.4 188.014 1061.15 181.32C1061.83 179.666 1063.44 177.787 1065.94 175.736C1068.95 173.349 1072.17 171.231 1075.55 169.407C1085.2 164.233 1095.29 159.93 1105.71 156.549C1109.61 154.735 1113.61 152.993 1117.85 151.149L1117.9 151.13L1118.13 151.03C1132.56 144.764 1148.9 137.663 1163.92 126.393C1180.72 113.793 1196.92 101.8 1210.45 93.593C1224.63 84.993 1235.12 80.993 1243.48 80.993C1246.06 80.9686 1248.63 81.4089 1251.07 82.293C1253.49 83.2133 1255.72 84.5868 1257.63 86.34L1260.94 89.279C1273.7 100.573 1291.19 116.04 1294.26 126.773C1294.26 126.776 1294.26 126.78 1294.26 126.783C1294.87 128.93 1294.95 131.193 1294.48 133.375C1293.99 135.769 1292.65 137.903 1290.7 139.386C1289.51 140.415 1284.55 142.686 1282.43 143.657L1282.4 143.673C1278.07 145.647 1273.17 147.885 1274.59 153.72L1274.82 154.652L1275.29 155.486L1275.3 155.496C1283.28 169.235 1289.5 183.922 1293.81 199.211L1294.64 202.15C1296.93 211.85 1298.69 221.137 1299.85 229.74C1300.92 237.451 1301.52 245.221 1301.65 253.005C1301.75 259.493 1301.37 265.979 1300.51 272.41C1299.77 277.843 1298.55 283.201 1296.88 288.422C1295.42 292.952 1293.53 297.333 1291.24 301.507C1289.17 305.259 1286.76 308.815 1284.05 312.132C1279.05 318.125 1273.26 323.417 1266.85 327.865C1256.72 334.437 1247.68 338.92 1233.92 340.965C1231.65 341.296 1229.35 341.46 1227.05 341.455C1221.56 341.409 1216.11 340.657 1210.81 339.22C1206.02 337.961 1201.36 336.233 1196.91 334.061C1186.87 329.975 1176.82 322.929 1167.05 313.121L1162.32 308.368L1157.37 312.895C1155.64 314.48 1154.05 316.221 1152.64 318.095C1142.72 331.172 1139.79 342.016 1137.65 349.934C1136.41 354.489 1135.45 358.087 1133.58 360.463C1132.98 361.188 1132.21 361.759 1131.35 362.131C1130.48 362.502 1129.54 362.664 1128.6 362.601ZM1240.93 274.286C1240.19 274.287 1239.45 274.364 1238.73 274.518L1208.41 280.962C1205.69 281.541 1203.3 283.178 1201.79 285.514C1200.27 287.85 1199.74 290.692 1200.32 293.416C1200.9 296.141 1202.54 298.523 1204.87 300.04C1207.21 301.557 1210.05 302.084 1212.78 301.505L1243.1 295.059C1245.64 294.522 1247.89 293.063 1249.42 290.965C1250.95 288.866 1251.64 286.275 1251.37 283.694C1251.1 281.112 1249.88 278.722 1247.96 276.984C1246.03 275.247 1243.52 274.286 1240.93 274.286ZM1229.08 218.53C1228.34 218.53 1227.6 218.608 1226.88 218.761L1196.56 225.208C1194.02 225.746 1191.77 227.205 1190.25 229.303C1188.72 231.401 1188.02 233.991 1188.29 236.571C1188.56 239.152 1189.78 241.542 1191.71 243.279C1193.63 245.017 1196.14 245.979 1198.73 245.98C1199.47 245.979 1200.2 245.902 1200.93 245.749L1231.25 239.303C1233.19 238.89 1234.98 237.933 1236.4 236.544C1237.83 235.155 1238.82 233.391 1239.28 231.457C1239.74 229.523 1239.64 227.498 1239 225.619C1238.35 223.739 1237.18 222.081 1235.63 220.838C1233.77 219.347 1231.46 218.533 1229.07 218.529L1229.08 218.53ZM1873.06 332.293C1865.03 332.32 1857.02 331.351 1849.23 329.408C1841.29 327.398 1833.61 324.463 1826.34 320.663C1819.93 317.193 1813.8 313.209 1808.03 308.749C1801.38 303.612 1795.28 297.807 1789.81 291.425C1783.67 284.228 1778.43 276.308 1774.21 267.841C1769.41 258.108 1765.89 247.79 1763.76 237.147C1756.25 188.798 1773.13 151.43 1818.5 115.984L1822.39 112.998L1825.95 110.346C1843.32 98.64 1860.98 90.046 1878.44 84.81C1891.09 80.911 1904.24 78.8766 1917.47 78.771C1918.31 78.771 1919.16 78.781 1920 78.801V176.701L1901.49 152.134C1900.5 150.808 1899.2 149.739 1897.71 149.016C1896.27 148.317 1894.69 147.954 1893.09 147.952C1890.82 147.947 1888.6 148.69 1886.78 150.067C1884.56 151.745 1883.1 154.235 1882.71 156.99C1882.33 159.746 1883.05 162.542 1884.72 164.767L1903.38 189.525C1904.37 190.85 1905.66 191.919 1907.15 192.642C1908.59 193.34 1910.17 193.704 1911.77 193.705C1914.05 193.71 1916.26 192.967 1918.08 191.589C1918.8 191.049 1919.45 190.418 1920 189.713V233.371C1919.42 233.686 1918.84 233.995 1918.23 234.316C1917.9 234.439 1917.01 234.853 1915.49 235.651L1915.47 235.661C1909.18 239.066 1902.61 241.928 1895.84 244.215C1887.48 246.969 1878.49 249.515 1869.35 249.515H1869.34C1868.56 249.515 1867.78 249.496 1867.01 249.457C1866.89 249.451 1866.77 249.448 1866.65 249.448C1864.82 249.446 1863.07 250.16 1861.76 251.436C1860.45 252.712 1859.69 254.45 1859.65 256.277C1859.6 258.105 1860.28 259.877 1861.52 261.216C1862.77 262.554 1864.49 263.353 1866.31 263.44C1867.28 263.489 1868.29 263.514 1869.3 263.514C1880.48 263.514 1891.18 260.487 1900.17 257.525C1907 255.263 1913.63 252.443 1920 249.093V320.722C1908.9 326.14 1898.35 329.722 1889.49 331.086C1884.05 331.873 1878.56 332.276 1873.05 332.292L1873.06 332.293ZM240.844 255.774C228.128 255.724 215.536 253.266 203.735 248.53C196.991 245.75 190.483 242.427 184.276 238.595C177.127 234.181 170.449 229.046 164.347 223.27C157.488 216.754 151.451 209.425 146.369 201.446C140.572 192.269 135.998 182.375 132.763 172.014C120.238 124.714 133.122 85.787 174.538 45.793L178.097 42.415L181.366 39.406C194.273 28.419 208.52 19.1116 223.766 11.706C234.864 6.35316 246.593 2.4205 258.675 0.000976563L298.958 0.000976563C308.261 2.11545 317.204 5.58338 325.5 10.294C333.764 14.9611 341.286 20.8339 347.818 27.719C348.093 28.241 348.418 28.83 348.812 29.519C349.317 30.401 349.845 31.287 350.405 32.224L350.424 32.255C352.961 36.508 355.837 41.328 357.617 47.59C359.672 54.82 359.878 62.669 358.246 71.584C358.17 72.084 357.904 73.29 357.776 73.868V73.875C357.742 74.027 357.718 74.136 357.712 74.166C355.5 81.3442 352.251 88.161 348.07 94.401C344.335 99.963 339.952 105.032 334.09 111.409C321.961 124.318 308.264 138.168 286.098 153.062C285.786 153.216 284.942 153.722 283.507 154.677L283.487 154.691C277.591 158.733 271.36 162.265 264.863 165.247C256.078 169.202 246.59 172.937 236.739 173.477C234.917 173.574 233.205 174.379 231.968 175.72C230.731 177.061 230.066 178.832 230.116 180.656C230.165 182.48 230.924 184.212 232.232 185.485C233.54 186.757 235.293 187.468 237.117 187.467C237.247 187.467 237.378 187.467 237.507 187.456C249.678 186.789 261.048 182.319 270.566 178.034C277.784 174.726 284.709 170.812 291.266 166.334L293.1 165.157C310.98 153.198 319.9 146.092 332.85 133.478C336.67 129.657 340.083 126.056 342.629 123.347C348.771 116.783 354.34 109.704 359.273 102.188C364.455 94.2617 368.548 85.6748 371.443 76.658C373.802 67.8896 373.981 58.6775 371.965 49.824C370.405 42.7577 367.89 35.9367 364.489 29.549C367.81 23.423 370.645 19.43 373.679 16.601C376.569 13.7704 380.31 11.968 384.325 11.471C384.554 11.471 384.78 11.465 384.997 11.465C388.194 11.4166 391.371 11.9807 394.356 13.127C397.506 14.4516 400.553 16.0062 403.475 17.778L403.493 17.788C407.371 20.1674 410.91 23.0603 414.013 26.388C416.76 29.3628 418.973 32.7903 420.552 36.519C422.079 40.2328 422.935 44.1881 423.08 48.201C423.215 52.6663 422.709 57.1279 421.575 61.449C420.897 65.699 418.736 71.391 415.327 77.911L412.953 82.45L416.562 86.085C420.557 90.113 423.904 93.744 426.349 96.396L426.357 96.405L426.497 96.557L428.03 98.216C431.596 101.983 434.637 106.213 437.072 110.793C439.204 114.844 440.615 119.234 441.242 123.769C441.811 128.226 441.568 132.749 440.523 137.119C439.338 141.939 437.442 146.557 434.898 150.819C431.713 157.131 427.493 162.865 422.412 167.781L419.886 170.156C415.201 174.504 410.015 178.279 404.437 181.401C400.945 183.433 397.237 185.068 393.381 186.273C392.011 186.7 390.584 186.92 389.149 186.928C381.931 186.928 376.933 181.061 374.596 177.563L366.166 163.553L360.25 174.043C355.859 181.817 350.812 189.201 345.163 196.115C340.129 202.159 334.771 207.925 329.113 213.39L326.413 215.953C306.877 234.169 284.903 247.753 267.631 252.302C258.881 254.567 249.882 255.733 240.844 255.774ZM253.174 69.734C251.129 69.7344 249.128 70.3321 247.418 71.4537C245.708 72.5752 244.362 74.1719 243.547 76.0475C242.731 77.9231 242.481 79.996 242.828 82.0117C243.174 84.0274 244.101 85.898 245.496 87.394L266.639 110.068C267.579 111.077 268.709 111.89 269.964 112.462C271.219 113.034 272.574 113.353 273.952 113.402C275.33 113.45 276.704 113.226 277.996 112.744C279.287 112.261 280.471 111.528 281.48 110.588C282.489 109.648 283.302 108.518 283.874 107.263C284.446 106.008 284.765 104.653 284.814 103.275C284.862 101.897 284.638 100.523 284.156 99.2312C283.673 97.9396 282.94 96.7556 282 95.747L260.854 73.074C259.873 72.0184 258.684 71.1769 257.362 70.6022C256.04 70.0275 254.614 69.7319 253.173 69.734H253.174ZM294.857 30.861C292.812 30.8618 290.811 31.4598 289.101 32.5817C287.391 33.7036 286.046 35.3004 285.231 37.176C284.416 39.0517 284.166 41.1246 284.513 43.1402C284.86 45.1558 285.787 47.0263 287.182 48.522L308.325 71.195C309.261 72.2187 310.391 73.0467 311.65 73.6312C312.908 74.2156 314.269 74.5449 315.656 74.6001C317.042 74.6552 318.425 74.435 319.726 73.9523C321.027 73.4696 322.219 72.7339 323.234 71.7877C324.248 70.8415 325.065 69.7037 325.638 68.4398C326.21 67.176 326.526 65.8113 326.568 64.4245C326.61 63.0378 326.376 61.6565 325.881 60.3605C325.386 59.0645 324.639 57.8795 323.683 56.874L302.541 34.201C301.559 33.1454 300.37 32.3038 299.048 31.7289C297.725 31.154 296.299 30.8582 294.857 30.86V30.861ZM1544.88 114.136C1536.85 114.163 1528.84 113.194 1521.05 111.251C1513.11 109.241 1505.43 106.306 1498.17 102.506C1491.75 99.0359 1485.62 95.0512 1479.85 90.591C1473.2 85.4542 1467.1 79.6492 1461.63 73.267C1455.49 66.0699 1450.25 58.15 1446.03 49.683C1441.23 39.9507 1437.71 29.6329 1435.58 18.991C1434.59 12.7063 1434.02 6.36194 1433.88 0.000976563L1616.56 0.000976563C1608.07 5.93996 1599.22 11.3399 1590.06 16.169C1589.73 16.291 1588.83 16.705 1587.31 17.504L1587.27 17.524C1580.99 20.9221 1574.44 23.7792 1567.67 26.064C1559.32 28.818 1550.32 31.364 1541.19 31.364C1540.4 31.364 1539.61 31.344 1538.84 31.306C1538.72 31.3 1538.6 31.297 1538.48 31.297C1536.66 31.2947 1534.9 32.0079 1533.59 33.284C1532.28 34.56 1531.52 36.2977 1531.48 38.1254C1531.43 39.9532 1532.11 41.7259 1533.35 43.0646C1534.6 44.4032 1536.32 45.2016 1538.14 45.289C1539.13 45.338 1540.13 45.363 1541.12 45.363C1552.32 45.363 1563.02 42.335 1572.01 39.373C1579.53 36.8381 1586.83 33.6684 1593.81 29.898L1595.76 28.917C1614.8 18.896 1624.41 12.761 1638.6 1.57598C1639.18 1.10198 1639.8 0.601977 1640.53 0.000976563H1747.18C1747.76 4.99039 1747.29 10.044 1745.83 14.847C1744.16 20.1182 1741.61 25.0677 1738.28 29.484C1734.45 35.4283 1729.66 40.6894 1724.09 45.049L1721.33 47.149C1716.21 50.9842 1710.66 54.1971 1704.79 56.72C1701.1 58.3764 1697.25 59.6142 1693.29 60.41C1692.35 60.5948 1691.39 60.6892 1690.43 60.692C1682.45 60.692 1677.66 53.859 1675.51 49.785L1668.6 34.969L1661.62 44.784C1656.44 52.0552 1650.64 58.8703 1644.3 65.155C1638.66 70.639 1632.73 75.8133 1626.53 80.655L1623.58 82.922C1602.25 98.996 1578.97 110.213 1561.32 112.928C1555.87 113.715 1550.38 114.119 1544.88 114.135L1544.88 114.136ZM968.877 66.636C960.846 66.6633 952.842 65.6942 945.05 63.751C937.106 61.7389 929.425 58.8022 922.165 55.001C911.847 49.4525 902.321 42.5442 893.842 34.461C883.516 24.5921 875.088 12.912 868.978 0.000976563L1083.63 0.000976563C1078.96 6.25603 1073.84 12.155 1068.3 17.649C1062.66 23.1323 1056.73 28.3065 1050.53 33.149L1047.58 35.414C1026.25 51.488 1002.98 62.705 985.32 65.422C979.875 66.2096 974.382 66.6136 968.881 66.631L968.877 66.636ZM596.5 43.273C591.137 43.1434 585.831 42.1395 580.792 40.301C570.463 36.48 562.266 32.229 556.429 27.665C547.359 20.581 544.929 13.51 543.354 7.43898C542.819 4.99755 542.591 2.4989 542.675 0.000976563L601.392 0.000976563C602.392 11.02 605.31 18.672 607.654 24.82C609.335 29.23 610.662 32.71 610.554 35.728C610.487 36.7129 610.18 37.6665 609.66 38.506C609.14 39.3454 608.424 40.0453 607.572 40.545C606.378 41.365 602.912 43.273 596.5 43.273ZM356.12 16.178C349.946 9.98644 343.053 4.55554 335.589 0.000976563L373.712 0.000976563C370.171 1.5458 366.927 3.69674 364.126 6.35698C361.064 9.2883 358.375 12.5866 356.121 16.177L356.12 16.178ZM1114.42 13.185C1106.44 13.185 1101.65 6.35098 1099.5 2.27598L1098.45 0.000976563H1144.84C1139.81 3.7316 1134.35 6.8533 1128.58 9.30098C1124.95 10.9142 1121.16 12.1216 1117.28 12.901C1116.34 13.0865 1115.38 13.1819 1114.43 13.186L1114.42 13.185Z" fill="#FFF8DF"/>
<path d="M1422.54 802.415C1421.58 801.423 1420.83 800.252 1420.32 798.969C1419.82 797.686 1419.57 796.316 1419.59 794.938C1419.62 793.559 1419.91 792.198 1420.46 790.934C1421.01 789.669 1421.8 788.525 1422.8 787.568C1423.79 786.61 1424.96 785.856 1426.24 785.351C1427.53 784.846 1428.9 784.598 1430.27 784.622C1431.65 784.646 1433.01 784.941 1434.28 785.491C1435.54 786.041 1436.69 786.834 1437.64 787.826L1457.37 808.251L1457.34 808.256L1456.98 808.32H1456.97L1456.22 808.453H1456.2L1455.93 808.5L1455.73 808.535L1455.52 808.573L1455.25 808.62L1455.08 808.65L1454.62 808.728H1454.61L1454.15 808.807L1454.08 808.817C1447.09 810.009 1439.91 811.024 1432.55 811.863L1432.31 811.89L1432.13 811.91L1431.76 811.952L1422.54 802.415ZM1311.05 808.647H1311.04L1310.57 808.576H1310.55L1310.11 808.51L1310.05 808.501L1309.6 808.432H1309.58C1307.15 808.06 1304.75 807.676 1302.38 807.279C1307.49 799.92 1313.07 792.897 1319.08 786.253L1321.43 783.679C1385.06 719.39 1426.42 724.265 1458.51 737.494C1471.09 743.361 1481.46 749.742 1492.09 762.214C1501.43 773.171 1505.7 786.468 1507.63 795.54C1503.23 796.991 1498.75 798.374 1494.19 799.689C1492.32 790.224 1488.31 779.358 1481.43 771.295C1472.41 760.706 1463.82 755.415 1452.88 750.306C1425.38 738.977 1389.19 735.116 1331.54 793.362L1329.48 795.62C1325.01 800.594 1321.19 805.289 1317.93 809.646C1315.61 809.322 1313.32 808.989 1311.05 808.647ZM1607.03 700.56C1604.86 684.391 1624.33 659.628 1636.14 646.307C1638.24 643.236 1641.01 639.49 1643.85 635.646C1653.19 623.04 1662.83 610.006 1669.56 594.246C1692.79 539.852 1711.13 496.888 1746.45 504.507L1750.7 505.372C1771.13 509.531 1794.28 514.243 1804.9 524.491C1811.77 531.183 1816.31 542.172 1811.84 552.491C1811.24 554.538 1809.37 557.469 1806.9 561.022C1819.23 568.676 1830.69 577.651 1841.07 587.787L1843.56 590.227C1860.18 607.869 1871.9 623.736 1879.86 638.127L1878.53 638.227L1878.29 638.245L1878.11 638.258C1873.92 638.573 1869.76 638.925 1865.62 639.316L1865.54 639.324L1865.19 639.356L1864.9 639.385L1864.81 639.393L1864.37 639.435C1857.19 627.535 1847.16 614.458 1833.53 599.992L1831.35 597.857C1819.96 586.775 1807.23 577.167 1793.45 569.257L1792.62 568.767L1791.96 568.073C1787.81 563.73 1790.93 559.343 1793.69 555.473C1795.05 553.567 1798.22 549.102 1798.74 547.606C1800.81 542.75 1798.47 537.771 1795.52 534.906L1795.52 534.9C1787.49 527.145 1764.61 522.489 1747.91 519.089L1743.57 518.203C1720.64 513.258 1705.41 545.965 1682.45 599.743C1675.07 617.011 1664.47 631.334 1655.11 643.973C1652.34 647.719 1649.64 651.373 1647.11 654.967C1630.51 673.767 1619.94 691.493 1620.91 698.696C1621.86 705.73 1628.61 715.81 1639.47 726.44L1638.52 727.07C1636.9 728.14 1635.29 729.203 1633.66 730.27L1633.46 730.399C1631.49 731.697 1629.51 732.995 1627.52 734.293C1618.5 725.1 1608.64 712.581 1607.03 700.56ZM1140.14 702.88C1114.03 688.738 1080.84 661.117 1070.32 609.461C1061.88 555.174 1080.37 513.742 1130.22 474.794L1134.31 471.659L1138.26 468.729C1200.36 426.849 1248.79 434.029 1262.15 437.229C1285.91 442.973 1307.12 456.369 1322.52 475.354C1325.14 472.017 1328.16 469.017 1331.51 466.425C1337.27 461.96 1344.38 459.57 1351.67 459.643C1363.84 460.669 1370.03 465.098 1377.86 470.705C1398.32 486.747 1404.75 508.254 1396.21 531.453C1394.61 536.713 1392.3 541.731 1389.35 546.368C1391.72 549.427 1393.74 552.139 1395.34 554.29L1396.66 556.063C1413.79 578.911 1414.34 603.599 1398.22 625.576C1393.59 632.672 1387.81 638.951 1381.13 644.157L1378.27 646.329C1365.54 655.918 1352.02 660.86 1344.31 662.179C1333.01 664.379 1322.34 659.717 1314.93 649.573C1311.07 654.311 1306.97 658.84 1302.63 663.142C1296.61 668.996 1290.28 674.52 1283.67 679.691L1280.52 682.104C1257.08 699.767 1232.07 711.677 1211.89 714.778C1205.72 715.673 1199.49 716.13 1193.26 716.145C1174.64 716.145 1157.43 711.8 1140.14 702.88ZM1146.29 480.189L1142.73 482.84L1138.83 485.826C1093.46 521.272 1076.58 558.642 1084.09 606.989C1093.48 653.031 1123.32 677.848 1146.68 690.504C1166.76 700.86 1186.86 704.194 1209.83 700.929C1227.46 698.219 1250.76 686.998 1272.09 670.923L1275.04 668.656C1281.24 663.813 1287.17 658.639 1292.81 653.156C1299.15 646.87 1304.94 640.054 1310.12 632.782L1317.1 622.968L1324.03 637.784C1326.47 642.434 1332.17 650.278 1341.8 648.409C1346.57 647.589 1358.35 643.809 1369.84 635.148L1372.6 633.048C1378.16 628.688 1382.96 623.427 1386.79 617.483C1399.44 600.233 1398.95 582.455 1385.46 564.456L1384.1 562.643C1381.92 559.713 1378.94 555.706 1375.32 551.193L1372.11 547.2L1374.95 542.933C1379.02 536.808 1381.76 531.372 1382.88 527.214C1389.52 509.09 1384.94 494.047 1369.46 481.904C1362.68 477.055 1358.81 474.286 1351.06 473.616C1347.01 473.685 1343.1 475.087 1339.94 477.606C1336.64 480.095 1333.38 483.783 1329.44 489.521C1333.72 500.164 1338.68 518.875 1331.44 537.099C1323.52 555.199 1311.14 568.845 1297.9 580.521C1294.53 583.432 1290.96 586.462 1287.11 589.576C1273.12 600.604 1263.49 606.805 1244.27 616.925L1242.32 617.905C1235.33 621.674 1228.04 624.844 1220.51 627.379C1210.62 630.638 1198.83 633.904 1186.65 633.295C1184.81 633.187 1183.08 632.356 1181.85 630.981C1180.62 629.607 1179.98 627.801 1180.07 625.957C1180.16 624.113 1180.98 622.38 1182.34 621.136C1183.71 619.891 1185.51 619.236 1187.35 619.313C1197.21 619.804 1207.03 617.084 1216.18 614.068C1222.96 611.78 1229.54 608.915 1235.83 605.505C1237.25 604.762 1238.21 604.305 1238.57 604.169C1262.08 591.723 1277.23 579.343 1290.66 567.763C1302.78 557.063 1311.22 548.763 1318.04 533.194C1318.08 533.062 1318.68 531.312 1318.84 530.681C1325.22 508.965 1318.05 497.353 1313.85 487.86C1313.55 487.16 1313.28 486.527 1313.05 485.965C1299.53 468.431 1280.42 456.041 1258.89 450.846C1251.97 449.291 1244.9 448.543 1237.81 448.616H1237.8C1217.17 448.615 1184.85 454.194 1146.29 480.19V480.189ZM1783.16 648.262C1785.23 646.399 1787.95 645.434 1790.73 645.58C1793.51 645.725 1796.12 646.97 1797.98 649.039C1798.09 649.155 1798.19 649.274 1798.29 649.393C1797.26 649.608 1796.24 649.824 1795.21 650.043H1795.2L1794.76 650.143L1794.68 650.161L1794.28 650.247L1794.21 650.261L1793.81 650.349L1793.74 650.364L1793.31 650.459H1793.29C1790.42 651.085 1787.58 651.728 1784.77 652.389L1784.43 652.468L1784.31 652.497L1784.08 652.55L1783.95 652.581L1783.67 652.648L1783.46 652.699L1783.36 652.724C1781.07 653.276 1778.8 653.858 1776.55 654.469L1776.38 654.515L1776.28 654.541L1776.14 654.58L1783.16 648.262ZM77.345 597.272C66.456 593.522 59.545 584.154 58.199 571.662C52.4898 573.836 46.6693 575.705 40.762 577.262C32.624 579.322 24.3806 580.941 16.068 582.111L12.136 582.628C8.055 583.128 4.002 583.518 0 583.793V569.755C3.451 569.503 6.934 569.165 10.427 568.737L14.118 568.25C21.9078 567.154 29.6327 565.638 37.259 563.709C45.8923 561.434 54.3159 558.428 62.438 554.721L73.389 549.711L71.975 566C71.767 571.25 72.783 580.895 82.054 584.088C86.597 585.766 98.689 588.379 112.967 586.624L116.408 586.188C123.408 585.195 130.193 583.038 136.481 579.805C156.061 571.19 164.522 555.548 161.841 533.214L161.575 530.97C161.152 527.341 160.575 522.379 159.691 516.659L158.91 511.597L163.498 509.32C170.088 506.051 175.182 502.715 178.231 499.674C193.044 487.299 196.599 471.98 189.262 453.723C185.814 446.134 183.849 441.802 177.468 437.345C173.93 435.381 169.842 434.639 165.839 435.236C161.739 435.742 157.078 437.31 150.796 440.31C149.176 451.663 144.117 470.348 128.732 482.51C112.826 494.225 95.283 499.856 77.977 503.349C73.599 504.181 68.998 505.023 64.112 505.797C46.478 508.351 35.035 508.905 13.332 508.059L11.157 507.935C8.857 507.84 4.836 507.677 0.001 507.174V493.095C4.962 493.67 9.201 493.844 11.731 493.947C13.331 494.013 14.393 494.099 14.778 494.163C41.358 495.139 60.667 491.992 78.086 488.676C93.933 485.476 105.396 482.508 119.086 472.43C119.186 472.336 120.586 471.12 121.038 470.655C137.422 455.038 137.017 441.395 138.132 431.079C138.217 430.314 138.301 429.637 138.388 429.039C135.441 407.089 125.088 386.804 109.042 371.539C100.245 363.216 66.68 336.695 0 340.457V326.444C71.852 322.69 108.883 352.114 118.664 361.378C136.368 378.232 148.04 400.439 151.884 424.578C155.817 422.994 159.933 421.907 164.135 421.341C171.358 420.353 178.703 421.833 184.98 425.541C195.012 432.52 198.154 439.449 202.134 448.218C211.834 472.34 206.648 494.184 187.656 510.006C183.64 513.76 179.132 516.95 174.256 519.488C174.782 523.327 175.174 526.683 175.485 529.345L175.743 531.545C179.143 559.894 167.283 581.551 142.333 592.523C134.774 596.353 126.633 598.903 118.24 600.069L114.677 600.52C110.884 600.983 107.066 601.214 103.245 601.213C92.219 601.214 82.855 599.31 77.345 597.272ZM916.345 594.784L916.193 594.697L916.025 594.597L915.767 594.449L915.683 594.401C913.522 593.166 911.355 591.952 909.183 590.758C911.716 586.864 913.703 582.642 915.091 578.209C921.733 560.085 917.153 545.042 901.669 532.898C894.889 528.051 891.019 525.281 883.269 524.612C879.222 524.679 875.311 526.081 872.142 528.599C868.842 531.09 865.59 534.777 861.651 540.515C864.526 547.671 867.711 558.476 867.286 570.329C862.73 568.375 858.161 566.496 853.579 564.692C853.406 553.204 849.002 545.508 846.065 538.854C845.757 538.154 845.491 537.521 845.265 536.959C831.738 519.425 812.63 507.035 791.103 501.839C784.185 500.285 777.111 499.537 770.021 499.609C750.383 499.609 720.148 504.662 684.032 527.567C676.543 527.043 669.088 526.648 661.668 526.382C661.921 526.182 662.175 525.982 662.426 525.788L666.512 522.653L670.463 519.723C732.572 477.843 780.992 485.023 794.356 488.223C818.116 493.967 839.329 507.363 854.728 526.348C857.342 523.01 860.362 520.011 863.718 517.42C869.48 512.952 876.582 510.562 883.873 510.636C896.051 511.663 902.237 516.093 910.067 521.699C930.529 537.74 936.962 559.249 928.422 582.447C926.821 587.707 924.511 592.725 921.557 597.363C921.777 597.644 921.992 597.923 922.206 598.199C920.259 597.045 918.307 595.907 916.349 594.784H916.345ZM341.706 587.59C335.675 587.434 329.417 585.013 323.417 580.655C317.82 576.447 312.95 571.351 309 565.569C301.894 554.916 297.284 545.61 294.807 536.975C290.624 522.387 293.342 512.087 296.55 503.936C300.184 494.713 310.801 483.907 318.556 476.019C320.47 474.07 322.741 471.757 324.001 470.336C323.898 469.041 323.654 467.761 323.274 466.519C321.509 461.098 318.984 455.954 315.774 451.242C304.114 456.122 295.354 458.496 289.398 458.342C279.413 458.093 270.832 449.856 267.827 442.233C267.127 440.457 265.51 436.063 263.875 430.366C260.168 417.434 256.822 399.412 261.935 386.984C268.141 371.895 297.39 360.189 314.272 354.553C317.626 352.945 321.898 351.086 326.286 349.18C340.672 342.929 355.546 336.464 369.25 326.18C416.562 290.686 453.93 262.65 480.709 286.908L483.951 289.78C499.566 303.597 517.262 319.256 521.327 333.436C523.935 342.668 522.376 354.456 513.338 361.157C511.789 362.629 508.714 364.238 504.794 366.076C511.643 378.871 517.077 392.375 521 406.347L521.936 409.706C539.207 482.792 524.182 517.593 502.431 538.864C493.96 540.511 485.737 542.274 477.761 544.153C473.294 545.202 468.882 546.318 464.523 547.5C470.147 545.156 475.525 542.263 480.58 538.862C504.764 521.544 527.213 492.903 508.367 413.147L507.543 410.206C503.223 394.914 497.001 380.225 489.023 366.482L488.552 365.645L488.324 364.714C486.901 358.878 491.801 356.639 496.124 354.665C498.253 353.692 503.237 351.416 504.436 350.378C508.65 347.206 509.111 341.723 507.995 337.778C507.996 337.775 507.996 337.772 507.995 337.769C504.918 327.036 487.435 311.569 474.672 300.269L471.357 297.33C453.971 281.581 424.425 302.291 377.65 337.383C362.631 348.651 346.284 355.755 331.863 362.02C327.589 363.878 323.425 365.688 319.439 367.541C295.666 375.525 277.645 385.59 274.882 392.313C272.127 399.005 273.021 411.469 277.334 426.507C278.79 431.594 280.225 435.515 280.851 437.1C282.117 440.315 286.369 444.264 289.751 444.349C291.561 444.395 297.304 443.856 311.475 437.875C314.057 436.861 316.888 436.66 319.588 437.299L319.624 437.282L319.746 437.34C321.025 437.667 322.232 438.23 323.305 439C323.629 439.236 323.938 439.491 324.231 439.764C328.978 443.953 334.915 456.341 336.731 462.664C337.941 466.365 338.284 470.294 337.731 474.148L337.514 475.366L336.889 476.436C335.656 478.553 333.309 480.979 328.538 485.836C322.017 492.472 312.164 502.501 309.573 509.072C307.273 514.908 305.09 522.06 308.263 533.122C310.306 540.246 314.439 548.503 320.547 557.664C330.765 572.19 339.605 573.537 342.068 573.602C343.051 573.698 344.042 573.552 344.956 573.178C345.87 572.804 346.679 572.213 347.313 571.456C349.174 569.083 350.145 565.483 351.378 560.929C353.521 553.008 356.454 542.159 366.368 529.088C367.783 527.213 369.367 525.473 371.101 523.888L376.051 519.361L380.784 524.114C390.554 533.923 400.598 540.968 410.644 545.056C420.219 549.771 434.601 553.897 447.657 551.956C448.807 551.786 449.925 551.599 451.012 551.395C439.693 554.852 428.653 558.707 417.77 562.851C413.353 561.516 409.05 559.831 404.901 557.811C395.414 553.968 385.731 547.672 376.312 539.178C369.022 549.311 366.834 557.4 364.892 564.578C363.377 570.178 361.946 575.478 358.332 580.086C356.431 582.492 353.996 584.424 351.221 585.728C348.445 587.031 345.404 587.672 342.338 587.598C342.128 587.6 341.915 587.6 341.706 587.59ZM1223.71 559.376L1205.06 534.617C1203.38 532.393 1202.66 529.594 1203.04 526.836C1203.43 524.078 1204.9 521.588 1207.12 519.911C1209.35 518.235 1212.14 517.512 1214.9 517.899C1217.66 518.287 1220.15 519.754 1221.83 521.978L1240.48 546.737C1242.16 548.961 1242.88 551.76 1242.5 554.517C1242.11 557.275 1240.64 559.766 1238.42 561.442C1236.19 563.118 1233.4 563.842 1230.64 563.455C1227.88 563.067 1225.39 561.6 1223.71 559.376ZM781.081 542.108C781.618 540.23 782.667 538.539 784.112 537.225C785.557 535.911 787.34 535.026 789.26 534.67C791.18 534.313 793.162 534.499 794.982 535.207C796.802 535.915 798.389 537.116 799.564 538.676L807.328 548.976C798.598 546.459 789.849 544.169 781.081 542.108ZM1269.23 525.073L1250.58 500.314C1249.73 499.214 1249.11 497.957 1248.76 496.617C1248.4 495.276 1248.31 493.878 1248.5 492.504C1248.68 491.129 1249.14 489.805 1249.84 488.608C1250.54 487.411 1251.48 486.365 1252.58 485.53C1253.69 484.695 1254.95 484.088 1256.3 483.744C1257.64 483.4 1259.04 483.326 1260.41 483.525C1261.79 483.725 1263.11 484.195 1264.3 484.907C1265.49 485.62 1266.52 486.561 1267.35 487.677L1286.01 512.434C1287.68 514.658 1288.4 517.457 1288.02 520.214C1287.63 522.972 1286.16 525.463 1283.94 527.139C1281.71 528.815 1278.92 529.539 1276.16 529.151C1273.4 528.764 1270.91 527.297 1269.23 525.073ZM1561.11 521.54C1554.16 520.696 1547.39 518.719 1541.08 515.686C1529.6 510.012 1520.95 504.258 1514.49 498.02C1503.57 487.476 1500.77 477.199 1499.48 468.536C1498.01 458.73 1501.81 444.063 1504.58 433.355C1505.26 430.711 1506.07 427.573 1506.45 425.711C1505.72 424.64 1504.87 423.654 1503.92 422.77C1499.68 418.957 1494.92 415.764 1489.79 413.287C1482.13 423.344 1475.73 429.779 1470.49 432.628C1461.72 437.403 1450.17 434.56 1443.76 429.462C1442.26 428.273 1438.67 425.277 1434.4 421.162C1424.72 411.817 1412.82 397.883 1411.03 384.562C1408.86 368.391 1428.34 343.63 1440.14 330.307C1442.24 327.238 1445.01 323.492 1447.86 319.647C1457.19 307.041 1466.84 294.005 1473.57 278.247C1496.79 223.853 1515.14 180.889 1550.46 188.508L1554.7 189.373C1575.13 193.532 1598.29 198.244 1608.9 208.493C1615.77 215.184 1620.32 226.174 1615.84 236.493C1615.23 238.541 1613.38 241.472 1610.9 245.024C1623.23 252.679 1634.69 261.653 1645.07 271.789L1647.56 274.229C1709.59 340.062 1703.28 381.229 1688.94 412.829C1682.64 425.202 1675.9 435.338 1663.06 445.529C1646.87 458.384 1626.2 460.629 1620.26 461.012C1610.12 462.427 1598.59 461.812 1586.18 459.17C1584.94 471.591 1587.08 479.69 1588.99 486.877C1590.48 492.487 1591.9 497.786 1591.07 503.587C1590.61 506.727 1589.4 509.71 1587.54 512.287C1585.69 514.864 1583.25 516.96 1580.42 518.4C1575.89 520.737 1570.84 521.901 1565.74 521.786C1564.19 521.785 1562.65 521.703 1561.11 521.54ZM1490.19 398.921C1490.58 398.964 1490.98 399.031 1491.37 399.121C1497.58 400.378 1508.91 408.137 1513.64 412.703C1516.54 415.302 1518.8 418.534 1520.25 422.148L1520.67 423.311V424.548C1520.66 426.999 1519.84 430.274 1518.13 436.862C1515.8 445.87 1512.29 459.482 1513.33 466.467C1514.26 472.667 1515.94 479.957 1524.22 487.95C1529.55 493.099 1537.26 498.184 1547.13 503.064C1563.24 510.534 1571.57 507.281 1573.74 506.105C1574.64 505.697 1575.42 505.076 1576.03 504.295C1576.63 503.514 1577.04 502.598 1577.21 501.625C1577.63 498.638 1576.67 495.036 1575.46 490.476C1573.36 482.545 1570.48 471.682 1572.52 455.406C1572.81 453.076 1573.31 450.777 1574.02 448.538L1576.05 442.138L1582.52 443.888C1595.89 447.498 1608.11 448.576 1618.85 447.094C1629.5 446.394 1644.02 442.773 1654.36 434.567C1665.25 425.921 1670.84 417.516 1676.33 406.762C1688.61 379.673 1693.73 343.643 1637.53 283.997L1635.35 281.862C1623.96 270.778 1611.23 261.167 1597.45 253.255L1596.62 252.767L1595.96 252.073C1591.81 247.73 1594.94 243.344 1597.69 239.473C1599.05 237.566 1602.23 233.104 1602.75 231.607C1604.81 226.752 1602.47 221.772 1599.53 218.912L1599.52 218.905C1591.49 211.15 1568.62 206.494 1551.91 203.095L1547.57 202.208C1524.64 197.262 1509.41 229.97 1486.45 283.748C1479.07 301.015 1468.47 315.339 1459.11 327.978C1456.34 331.723 1453.64 335.378 1451.11 338.97C1434.52 357.77 1423.95 375.498 1424.92 382.701C1425.88 389.876 1432.88 400.223 1444.14 411.09C1447.94 414.766 1451.14 417.445 1452.48 418.504C1455.18 420.655 1460.84 421.949 1463.81 420.333C1465.4 419.468 1470.1 416.133 1479.39 403.865C1481.11 401.695 1483.47 400.106 1486.12 399.309L1486.15 399.276L1486.28 399.264C1487.21 399.003 1488.18 398.869 1489.14 398.864C1489.49 398.865 1489.84 398.884 1490.18 398.921H1490.19ZM418.152 510.724C416.51 509.53 415.25 507.887 414.523 505.992C413.796 504.097 413.634 502.032 414.057 500.047C414.479 498.061 415.468 496.241 416.903 494.806C418.338 493.371 420.159 492.383 422.144 491.961L452.467 485.516C453.822 485.214 455.223 485.183 456.589 485.425C457.956 485.667 459.261 486.178 460.429 486.928C461.597 487.678 462.604 488.652 463.393 489.794C464.182 490.936 464.737 492.223 465.026 493.581C465.315 494.938 465.331 496.34 465.075 497.704C464.818 499.068 464.294 500.367 463.532 501.527C462.77 502.688 461.786 503.685 460.636 504.462C459.486 505.24 458.194 505.781 456.833 506.056L426.51 512.5C425.07 512.808 423.582 512.809 422.142 512.502C420.701 512.196 419.342 511.59 418.152 510.723V510.724ZM24.3 447.944L20.521 417.174C20.1815 414.41 20.954 411.624 22.6684 409.43C24.3829 407.235 26.8989 405.811 29.663 405.472C32.4271 405.133 35.2128 405.905 37.4074 407.619C39.6019 409.334 41.0255 411.85 41.365 414.614L45.143 445.384C45.4647 448.139 44.6831 450.91 42.9689 453.091C41.2546 455.271 38.7471 456.685 35.9939 457.023C33.2407 457.362 30.4655 456.597 28.2745 454.895C26.0834 453.194 24.6546 450.695 24.3 447.944ZM406.3 454.97C404.658 453.776 403.398 452.133 402.671 450.238C401.944 448.343 401.782 446.278 402.205 444.293C402.627 442.307 403.616 440.487 405.051 439.052C406.486 437.617 408.307 436.629 410.292 436.207L440.615 429.761C443.326 429.214 446.144 429.758 448.456 431.277C450.768 432.795 452.388 435.165 452.963 437.87C453.538 440.576 453.022 443.399 451.528 445.727C450.033 448.054 447.681 449.698 444.981 450.301L414.658 456.747C413.218 457.055 411.73 457.056 410.289 456.75C408.849 456.444 407.49 455.837 406.3 454.97ZM80.878 441L77.1 410.228C76.923 408.855 77.0193 407.461 77.3831 406.126C77.747 404.79 78.3713 403.54 79.2202 402.446C80.0691 401.353 81.1257 400.438 82.3294 399.755C83.5331 399.072 84.86 398.633 86.2338 398.464C87.6077 398.295 89.0013 398.4 90.3346 398.772C91.6679 399.144 92.9145 399.775 94.0027 400.631C95.0909 401.486 95.9992 402.548 96.6755 403.756C97.3517 404.964 97.7825 406.293 97.943 407.668L101.721 438.437C102.06 441.201 101.287 443.986 99.5729 446.18C97.8585 448.374 95.3427 449.798 92.579 450.137C92.1507 450.19 91.7195 450.216 91.288 450.216C88.7275 450.213 86.2563 449.275 84.3391 447.578C82.422 445.881 81.1911 443.541 80.878 441ZM1608.19 413.61C1606.17 413.398 1604.25 412.604 1602.67 411.327C1601.1 410.049 1599.92 408.341 1599.3 406.41C1598.67 404.48 1598.62 402.409 1599.14 400.448C1599.67 398.487 1600.75 396.721 1602.26 395.363L1625.3 374.621C1627.37 372.757 1630.09 371.792 1632.87 371.938C1635.65 372.084 1638.26 373.328 1640.13 375.398C1641.99 377.467 1642.96 380.192 1642.81 382.973C1642.66 385.754 1641.42 388.363 1639.35 390.227L1616.31 410.971C1614.39 412.71 1611.88 413.672 1609.29 413.671C1608.92 413.67 1608.55 413.649 1608.19 413.61ZM836.346 386.273C825.456 382.524 818.546 373.153 817.201 360.663C811.491 362.838 805.67 364.707 799.762 366.263C791.624 368.324 783.381 369.943 775.069 371.113L771.138 371.631C742.006 375.208 714.386 373.014 695.359 365.61C670.935 355.788 653.107 341.126 639.175 319.436C623.635 294.136 608.709 253.621 625.419 203.623C645.251 152.388 681.981 125.749 744.626 116.946L749.732 116.274L754.619 115.712C829.346 110.497 867.688 140.928 877.665 150.376C895.369 167.23 907.041 189.437 910.885 213.576C914.818 211.992 918.934 210.904 923.136 210.337C930.359 209.35 937.704 210.83 943.981 214.537C954.014 221.515 957.156 228.443 961.134 237.213C970.834 261.336 965.651 283.18 946.657 299.002C942.641 302.756 938.133 305.946 933.257 308.484C933.783 312.322 934.175 315.684 934.486 318.341L934.744 320.541C938.15 348.892 926.285 370.549 901.333 381.52C893.775 385.349 885.634 387.898 877.242 389.065L873.68 389.518C869.888 389.981 866.07 390.212 862.25 390.21C851.221 390.215 841.854 388.31 836.346 386.273ZM830.974 355C830.768 360.25 831.785 369.893 841.054 373.088C845.598 374.766 857.688 377.377 871.968 375.624L875.409 375.188C882.409 374.195 889.194 372.037 895.481 368.803C915.063 360.189 923.523 344.548 920.84 322.212L920.575 319.97C920.152 316.341 919.575 311.379 918.692 305.659L917.91 300.597L922.499 298.32C929.087 295.051 934.183 291.715 937.23 288.674C952.042 276.299 955.598 260.98 948.263 242.723C944.813 235.134 942.849 230.8 936.469 226.345C932.931 224.381 928.843 223.64 924.84 224.237C920.733 224.737 916.076 226.31 909.796 229.31C908.177 240.664 903.118 259.349 887.733 271.51C871.833 283.224 854.285 288.856 836.979 292.347C832.601 293.18 828 294.021 823.112 294.798C805.479 297.351 794.037 297.905 772.332 297.059L770.157 296.935C762.22 296.704 754.317 295.801 746.532 294.235C736.339 292.113 724.488 289.04 714.248 282.426C712.689 281.418 711.594 279.832 711.204 278.017C710.814 276.202 711.161 274.306 712.169 272.747C713.176 271.187 714.762 270.092 716.578 269.702C718.393 269.312 720.289 269.659 721.848 270.667C730.138 276.02 740.007 278.574 749.438 280.538C756.456 281.947 763.582 282.752 770.738 282.946C772.338 283.012 773.4 283.096 773.782 283.162C800.363 284.138 819.671 280.991 837.091 277.675C852.939 274.475 864.401 271.507 878.091 261.429C878.191 261.329 879.584 260.119 880.042 259.653C896.427 244.037 896.02 230.394 897.135 220.078C897.221 219.313 897.305 218.636 897.39 218.037C894.443 196.088 884.09 175.802 868.045 160.537C859.114 152.08 824.635 124.856 755.858 129.651L751.445 130.165L746.58 130.805C689.565 138.819 656.261 162.739 638.593 208.365C623.703 252.933 637.132 289.343 651.036 311.984C663.244 330.993 678.992 343.932 700.514 352.584C717.133 359.05 742.925 360.984 769.436 357.727L773.127 357.242C780.916 356.147 788.64 354.631 796.266 352.702C804.9 350.428 813.323 347.421 821.445 343.713L832.396 338.704L830.974 355ZM1127.97 376.589C1121.94 376.433 1115.68 374.012 1109.68 369.653C1104.08 365.447 1099.21 360.35 1095.26 354.567C1088.15 343.914 1083.54 334.608 1081.07 325.974C1076.88 311.385 1079.6 301.085 1082.81 292.936C1086.44 283.712 1097.06 272.906 1104.81 265.016C1106.73 263.068 1109 260.756 1110.26 259.334C1110.16 258.04 1109.91 256.76 1109.53 255.519C1107.77 250.097 1105.24 244.952 1102.03 240.24C1090.37 245.121 1081.61 247.493 1075.65 247.34C1065.67 247.09 1057.09 238.854 1054.08 231.232C1053.38 229.454 1051.77 225.061 1050.13 219.362C1046.42 206.432 1043.08 188.411 1048.19 175.982C1054.4 160.893 1083.65 149.182 1100.53 143.55C1103.88 141.942 1108.15 140.083 1112.54 138.177C1126.93 131.926 1141.8 125.462 1155.51 115.177C1202.82 79.683 1240.19 51.646 1266.96 75.903L1270.21 78.777C1285.82 92.593 1303.52 108.253 1307.58 122.433C1310.19 131.664 1308.63 143.453 1299.59 150.154C1298.04 151.625 1294.97 153.233 1291.05 155.073C1297.9 167.866 1303.34 181.367 1307.26 195.338L1308.2 198.695C1329 286.725 1302.95 319.215 1274.73 339.417C1263.08 346.981 1252.18 352.391 1235.97 354.794C1215.52 357.83 1196.5 349.443 1191.16 346.8C1181.67 342.956 1171.99 336.661 1162.57 328.167C1155.28 338.3 1153.09 346.388 1151.15 353.567C1149.63 359.167 1148.2 364.467 1144.59 369.076C1142.69 371.484 1140.26 373.417 1137.48 374.723C1134.71 376.028 1131.67 376.671 1128.6 376.6C1128.39 376.6 1128.18 376.6 1127.97 376.591L1127.97 376.589ZM1106.01 226.338C1107.29 226.665 1108.49 227.229 1109.57 228.001C1109.89 228.236 1110.2 228.49 1110.49 228.763C1115.24 232.954 1121.18 245.341 1122.99 251.663C1124.2 255.363 1124.54 259.293 1123.99 263.147L1123.77 264.365L1123.15 265.433C1121.91 267.55 1119.57 269.978 1114.8 274.833C1108.28 281.468 1098.42 291.497 1095.83 298.069C1093.53 303.905 1091.35 311.057 1094.52 322.117C1096.56 329.242 1100.7 337.5 1106.81 346.661C1117.02 361.186 1125.86 362.535 1128.33 362.597C1129.31 362.694 1130.3 362.549 1131.21 362.175C1132.13 361.801 1132.94 361.21 1133.57 360.453C1135.43 358.078 1136.4 354.48 1137.64 349.924C1139.78 342.005 1142.71 331.156 1152.62 318.085C1154.04 316.21 1155.63 314.469 1157.36 312.885L1162.31 308.358L1167.04 313.111C1176.81 322.918 1186.86 329.964 1196.9 334.051C1206.48 338.768 1220.86 342.893 1233.92 340.951C1247.67 338.911 1256.72 334.428 1266.84 327.856C1291.03 310.539 1313.48 281.896 1294.63 202.14L1293.81 199.201C1289.49 183.908 1283.27 169.217 1275.29 155.475L1274.82 154.641L1274.59 153.709C1273.17 147.872 1278.06 145.636 1282.39 143.661C1284.52 142.687 1289.5 140.409 1290.7 139.374C1294.91 136.201 1295.38 130.718 1294.26 126.774C1294.26 126.771 1294.26 126.767 1294.26 126.764C1291.18 116.033 1273.7 100.564 1260.94 89.27L1257.62 86.332C1240.23 70.583 1210.69 91.293 1163.91 126.384C1148.89 137.652 1132.55 144.755 1118.13 151.022C1113.85 152.881 1109.69 154.689 1105.7 156.543C1081.93 164.526 1063.91 174.59 1061.15 181.314C1058.39 188.006 1059.28 200.47 1063.6 215.508C1065.06 220.595 1066.49 224.516 1067.11 226.102C1068.38 229.314 1072.63 233.265 1076.01 233.35C1077.82 233.396 1083.56 232.855 1097.74 226.876C1100.32 225.862 1103.15 225.66 1105.85 226.298L1105.89 226.284L1106.01 226.338ZM1570.05 371.249C1568.03 371.037 1566.11 370.244 1564.54 368.966C1562.96 367.689 1561.79 365.981 1561.16 364.051C1560.53 362.12 1560.48 360.049 1561 358.088C1561.53 356.128 1562.61 354.361 1564.12 353.003L1587.16 332.261C1589.23 330.422 1591.95 329.478 1594.71 329.633C1597.48 329.789 1600.07 331.031 1601.93 333.091C1603.78 335.15 1604.75 337.858 1604.61 340.626C1604.48 343.394 1603.26 345.996 1601.21 347.866L1578.17 368.608C1576.25 370.349 1573.75 371.311 1571.15 371.308C1570.78 371.308 1570.41 371.289 1570.05 371.251V371.249ZM1819.8 333.038C1793.69 318.895 1760.51 291.274 1749.98 239.619C1741.54 185.331 1760.03 143.897 1809.88 104.951L1813.97 101.816L1817.92 98.887C1860.82 69.952 1897.2 64.436 1920 64.845V78.8C1919.18 78.78 1918.33 78.7697 1917.47 78.769C1896.84 78.769 1864.51 84.347 1825.95 110.344L1822.39 113L1818.49 115.986C1773.12 151.433 1756.24 188.8 1763.76 237.149C1773.14 283.191 1802.98 308.008 1826.34 320.664C1846.42 331.02 1866.53 334.354 1889.49 331.089C1898.52 329.701 1909.03 326.083 1920 320.725V336.182C1910.93 340.309 1901.36 343.251 1891.54 344.937C1885.37 345.832 1879.14 346.289 1872.91 346.304C1854.3 346.3 1837.09 341.958 1819.8 333.038ZM1204.42 299.724C1202.78 298.531 1201.52 296.887 1200.79 294.992C1200.06 293.097 1199.9 291.032 1200.32 289.046C1200.74 287.061 1201.73 285.241 1203.17 283.805C1204.6 282.37 1206.42 281.382 1208.41 280.96L1238.73 274.516C1241.46 273.937 1244.3 274.464 1246.64 275.981C1248.97 277.497 1250.61 279.88 1251.19 282.604C1251.77 285.328 1251.24 288.171 1249.72 290.506C1248.21 292.842 1245.82 294.479 1243.1 295.058L1212.78 301.504C1211.34 301.811 1209.85 301.811 1208.41 301.505C1206.97 301.198 1205.61 300.592 1204.42 299.725V299.724ZM198.526 261.524C171.082 250.189 135.193 226.186 119.326 175.915C105.254 122.806 119.314 79.667 164.817 35.724L168.555 32.179L172.177 28.852C185.54 17.4857 200.243 7.79647 215.958 2.34375e-05H258.677C238.6 3.90002 211.426 14.193 181.365 39.407L178.1 42.415L174.541 45.793C133.125 85.793 120.241 124.717 132.767 172.014C146.918 216.821 179.182 238.384 203.738 248.529C224.789 256.729 245.138 257.943 267.638 252.295C284.882 247.758 306.884 234.162 326.42 215.946L329.12 213.383C334.778 207.918 340.136 202.152 345.17 196.108C350.818 189.193 355.866 181.809 360.258 174.036L366.174 163.546L374.603 177.556C377.523 181.926 384.014 189.131 393.388 186.266C398.054 184.953 409.37 179.961 419.888 170.147L422.414 167.772C427.493 162.854 431.714 157.121 434.9 150.81C445.679 132.33 443.329 114.702 428.032 98.21L426.499 96.55C424.022 93.863 420.639 90.188 416.564 86.079L412.955 82.444L415.329 77.904C418.736 71.387 420.898 65.694 421.577 61.442C426.287 42.724 420.16 28.242 403.492 17.78C396.242 13.668 392.106 11.318 384.325 11.463C380.308 11.954 376.566 13.7574 373.679 16.593C370.652 19.415 367.806 23.422 364.489 29.54C369.854 39.677 376.743 57.767 371.443 76.65C365.46 95.474 354.579 110.342 342.63 123.339C339.579 126.586 336.35 129.971 332.851 133.47C320.086 145.9 311.151 153.07 293.101 165.149L291.267 166.326C284.71 170.804 277.785 174.718 270.567 178.026C261.074 182.3 249.682 186.781 237.508 187.448C235.654 187.55 233.836 186.911 232.453 185.672C231.07 184.433 230.236 182.696 230.134 180.842C230.032 178.988 230.671 177.17 231.91 175.787C233.149 174.404 234.886 173.57 236.74 173.468C246.592 172.928 256.08 169.193 264.864 165.238C271.368 162.252 277.606 158.716 283.508 154.668C284.842 153.78 285.75 153.225 286.099 153.053C308.177 138.218 321.949 124.323 334.091 111.4C345.031 99.5 352.559 90.36 357.71 74.16C357.737 74.023 358.148 72.222 358.245 71.578C362.321 49.313 353.972 38.514 348.812 29.512C348.43 28.842 348.101 28.247 347.818 27.712C334.611 13.8688 317.614 4.22916 298.954 2.34375e-05H335.588C343.053 4.55471 349.946 9.98522 356.122 16.176C358.373 12.5835 361.062 9.2848 364.127 6.35602C366.931 3.69829 370.175 1.54768 373.715 2.34375e-05H399.171C403.152 1.61365 406.997 3.54244 410.671 5.76802C432.698 19.582 441.342 40.299 435.271 64.268C434.229 69.6664 432.457 74.8978 430.003 79.818C432.684 82.611 434.975 85.098 436.79 87.068L438.29 88.692C457.71 109.627 460.839 134.12 447.102 157.664C443.239 165.205 438.151 172.053 432.047 177.929L429.431 180.389C417.779 191.256 404.851 197.589 397.322 199.701C386.31 203.067 375.209 199.552 366.78 190.236C363.439 195.352 359.828 200.286 355.964 205.019C350.592 211.469 344.875 217.624 338.838 223.456L335.962 226.185C314.497 246.203 290.862 260.662 271.115 265.856C261.204 268.418 251.014 269.741 240.778 269.797C226.297 269.729 211.959 266.922 198.522 261.522L198.526 261.524ZM1866.31 263.453C1864.47 263.345 1862.74 262.514 1861.51 261.139C1860.28 259.765 1859.64 257.959 1859.73 256.115C1859.82 254.271 1860.64 252.538 1862 251.294C1863.37 250.049 1865.17 249.394 1867.01 249.471C1876.87 249.962 1886.69 247.242 1895.84 244.226C1902.62 241.937 1909.2 239.072 1915.49 235.663C1916.91 234.92 1917.87 234.463 1918.23 234.328C1918.83 234.013 1919.42 233.698 1920.01 233.383V249.096C1913.63 252.437 1907 255.26 1900.18 257.539C1891.1 260.529 1880.41 263.528 1869.3 263.528C1868.3 263.526 1867.31 263.5 1866.31 263.451L1866.31 263.453ZM783.312 236.946L779.534 206.176C779.343 204.797 779.428 203.393 779.785 202.047C780.142 200.701 780.762 199.44 781.611 198.336C782.46 197.232 783.52 196.308 784.729 195.618C785.939 194.927 787.273 194.484 788.655 194.315C790.037 194.145 791.439 194.252 792.78 194.629C794.12 195.006 795.372 195.646 796.463 196.512C797.553 197.378 798.461 198.452 799.133 199.672C799.804 200.891 800.227 202.232 800.375 203.617L804.154 234.386C804.339 235.763 804.249 237.162 803.889 238.504C803.53 239.845 802.908 241.102 802.059 242.202C801.21 243.301 800.151 244.221 798.945 244.909C797.738 245.596 796.406 246.037 795.028 246.207C793.649 246.376 792.251 246.27 790.913 245.895C789.576 245.52 788.326 244.884 787.236 244.022C786.147 243.161 785.239 242.092 784.565 240.877C783.892 239.663 783.466 238.326 783.312 236.946ZM1192.57 243.971C1190.93 242.778 1189.67 241.134 1188.94 239.239C1188.22 237.344 1188.06 235.279 1188.48 233.294C1188.9 231.309 1189.89 229.489 1191.32 228.054C1192.76 226.618 1194.58 225.63 1196.56 225.208L1226.89 218.761C1229.61 218.182 1232.45 218.709 1234.79 220.225C1237.12 221.742 1238.76 224.124 1239.34 226.849C1239.92 229.573 1239.39 232.415 1237.88 234.751C1236.36 237.086 1233.98 238.724 1231.25 239.303L1200.93 245.749C1200.21 245.902 1199.47 245.98 1198.73 245.98C1196.52 245.979 1194.36 245.275 1192.56 243.969L1192.57 243.971ZM839.878 230L836.1 199.227C835.932 197.858 836.035 196.47 836.404 195.141C836.772 193.813 837.399 192.569 838.248 191.483C839.097 190.396 840.152 189.488 841.352 188.809C842.552 188.13 843.874 187.694 845.243 187.526C846.612 187.358 848 187.461 849.329 187.83C850.657 188.198 851.901 188.825 852.987 189.674C854.074 190.523 854.982 191.578 855.661 192.778C856.34 193.978 856.776 195.3 856.944 196.669L860.721 227.438C861.06 230.202 860.287 232.987 858.573 235.181C856.859 237.375 854.344 238.798 851.58 239.138C851.151 239.191 850.72 239.217 850.288 239.217C847.727 239.214 845.256 238.276 843.339 236.578C841.422 234.881 840.191 232.541 839.878 230ZM1903.37 189.535L1884.71 164.777C1883.87 163.677 1883.26 162.421 1882.91 161.083C1882.56 159.744 1882.47 158.35 1882.66 156.979C1882.85 155.607 1883.31 154.287 1884.01 153.094C1884.71 151.9 1885.64 150.857 1886.74 150.024C1887.85 149.191 1889.11 148.585 1890.45 148.241C1891.79 147.896 1893.18 147.82 1894.55 148.016C1895.92 148.213 1897.24 148.678 1898.43 149.386C1899.62 150.093 1900.66 151.029 1901.48 152.139L1920 176.7V189.717C1919 190.978 1917.73 191.993 1916.28 192.686C1914.83 193.378 1913.25 193.729 1911.64 193.71C1910.03 193.692 1908.45 193.306 1907.02 192.581C1905.59 191.856 1904.34 190.812 1903.37 189.529L1903.37 189.535ZM1491.62 114.884C1465.51 100.742 1432.33 73.12 1421.8 21.465C1420.68 14.3614 1420.03 7.19034 1419.86 2.34375e-05H1433.88C1434.02 6.36113 1434.59 12.7056 1435.58 18.99C1444.97 65.031 1474.8 89.848 1498.17 102.505C1518.24 112.86 1538.35 116.195 1561.32 112.929C1578.94 110.219 1602.25 98.998 1623.58 82.923L1626.53 80.656C1632.73 75.8141 1638.66 70.6398 1644.3 65.156C1650.64 58.8697 1656.43 52.054 1661.61 44.783L1668.59 34.969L1675.51 49.785C1677.96 54.435 1683.66 62.278 1693.28 60.41C1698.06 59.591 1709.83 55.81 1721.32 47.148L1724.09 45.048C1729.65 40.687 1734.45 35.4262 1738.28 29.483C1745.38 19.8024 1748.34 9.97436 1747.18 -0.000976562H1761.22C1762.31 12.838 1758.47 25.607 1749.69 37.572C1745.06 44.6681 1739.29 50.947 1732.6 56.153L1729.74 58.327C1717.02 67.917 1703.5 72.859 1695.79 74.178C1684.49 76.378 1673.81 71.716 1666.41 61.571C1662.55 66.3094 1658.44 70.8395 1654.11 75.142C1648.09 80.9957 1641.76 86.5194 1635.15 91.689L1632 94.1C1608.56 111.763 1583.54 123.674 1563.36 126.774C1557.19 127.67 1550.97 128.127 1544.73 128.142C1526.12 128.145 1508.92 123.8 1491.62 114.881V114.884ZM266.639 110.067L245.5 87.394C243.617 85.3546 242.617 82.6523 242.721 79.8782C242.825 77.104 244.023 74.4838 246.053 72.5906C248.084 70.6975 250.781 69.6854 253.556 69.7758C256.33 69.8662 258.956 71.0517 260.859 73.073L282 95.747C283.868 97.789 284.854 100.486 284.744 103.251C284.634 106.016 283.437 108.626 281.413 110.513C279.389 112.4 276.702 113.412 273.936 113.329C271.17 113.246 268.549 112.074 266.642 110.068L266.639 110.067ZM915.622 67.376C894.3 55.826 868.255 35.282 853.69 2.34375e-05H868.977C882.353 28.3 904.177 45.256 922.164 55C942.241 65.357 962.348 68.69 985.318 65.426C1002.94 62.714 1026.24 51.494 1047.58 35.418L1050.53 33.153C1056.73 28.3106 1062.66 23.1364 1068.3 17.653C1073.84 12.1571 1078.96 6.25648 1083.63 2.34375e-05H1098.44L1099.51 2.27502C1101.96 6.92502 1107.66 14.77 1117.28 12.901C1121.99 12.094 1133.5 8.40102 1144.84 0.00102344H1165.99C1163.12 3.14686 1159.98 6.04015 1156.61 8.64902L1153.75 10.822C1141.02 20.411 1127.51 25.353 1119.8 26.673C1108.5 28.873 1097.82 24.212 1090.41 14.067C1086.56 18.8049 1082.45 23.3346 1078.11 27.637C1072.1 33.4898 1065.77 39.0132 1059.15 44.183L1056 46.6C1032.56 64.263 1007.54 76.172 987.362 79.275C981.193 80.1694 974.968 80.6259 968.734 80.641C950.127 80.639 932.915 76.3 915.622 67.376ZM308.322 71.194L287.183 48.521C286.227 47.5155 285.48 46.3305 284.985 45.0345C284.49 43.7385 284.256 42.3572 284.298 40.9705C284.34 39.5837 284.656 38.219 285.228 36.9552C285.801 35.6914 286.618 34.5535 287.632 33.6073C288.647 32.6611 289.839 31.9254 291.14 31.4427C292.44 30.96 293.824 30.7398 295.21 30.795C296.597 30.8501 297.958 31.1794 299.216 31.7638C300.475 32.3483 301.605 33.1763 302.541 34.2L323.683 56.872C325.565 58.9116 326.563 61.6133 326.459 64.3865C326.355 67.1598 325.157 69.7791 323.128 71.6718C321.098 73.5646 318.401 74.5768 315.628 74.4872C312.854 74.3977 310.228 73.2137 308.325 71.194H308.322ZM576.1 53.488C564.089 49.046 554.889 44.227 547.81 38.696C535.851 29.354 531.995 19.423 529.801 10.943C528.975 7.35615 528.603 3.6797 528.693 2.34375e-05H542.675C542.592 2.49759 542.82 4.99577 543.354 7.43702C544.924 13.508 547.36 20.579 556.429 27.663C562.268 32.228 570.465 36.479 580.792 40.299C597.592 46.045 605.54 41.94 607.571 40.543C608.422 40.0434 609.139 39.3435 609.659 38.504C610.179 37.6646 610.485 36.711 610.553 35.726C610.663 32.71 609.335 29.226 607.653 24.818C605.353 18.792 602.392 11.018 601.391 2.34375e-05H615.453C616.367 8.37202 618.653 14.373 620.735 19.83C622.802 25.255 624.755 30.378 624.544 36.23C624.411 39.401 623.522 42.4941 621.949 45.2507C620.376 48.0073 618.166 50.3473 615.504 52.075C610.533 55.494 604.047 57.213 596.632 57.213C589.63 57.1012 582.695 55.8428 576.1 53.488ZM1538.14 45.294C1536.28 45.2012 1534.54 44.3756 1533.29 42.9988C1532.05 41.622 1531.4 39.8068 1531.49 37.9525C1531.59 36.0983 1532.41 34.3568 1533.79 33.1113C1535.17 31.8658 1536.98 31.2182 1538.84 31.311C1548.69 31.804 1558.52 29.082 1567.67 26.066C1574.45 23.7751 1581.02 20.9093 1587.31 17.5C1588.73 16.757 1589.69 16.3 1590.06 16.165C1599.22 11.3355 1608.08 5.93655 1616.57 2.34375e-05H1640.53C1639.89 0.522023 1639.25 1.04702 1638.6 1.57502C1624.61 12.604 1614.97 18.803 1595.75 28.923L1593.81 29.904C1586.82 33.6737 1579.52 36.8434 1572 39.379C1562.92 42.372 1552.23 45.368 1541.12 45.368C1540.13 45.368 1539.13 45.3434 1538.13 45.294H1538.14ZM25.034 9.27302C19.8855 7.54385 15.3718 4.31449 12.073 2.34375e-05H98.623C95.868 1.7111 92.994 3.22264 90.023 4.52302C82.4629 8.35378 74.3197 10.9041 65.925 12.07L62.362 12.521C58.569 12.9846 54.7512 13.216 50.93 13.214C39.908 13.216 30.543 11.31 25.034 9.27302Z" fill="#FFEFCB"/>
</svg>
