<svg width="47" height="30" viewBox="0 0 47 30" fill="none" xmlns="http://www.w3.org/2000/svg">
<g clip-path="url(#clip0_81:30027)">
<path d="M35.603 9.88187L32.953 5.46987C32.8446 5.28741 32.6906 5.1362 32.5062 5.03104C32.3218 4.92587 32.1133 4.87034 31.901 4.86987H27.641C27.529 4.87021 27.4192 4.90124 27.3236 4.9596C27.228 5.01795 27.1502 5.10139 27.0986 5.20086C27.0471 5.30033 27.0238 5.41202 27.0313 5.52379C27.0388 5.63557 27.0767 5.74316 27.141 5.83487L30.782 12.1509C32.1616 10.9839 33.8245 10.2012 35.603 9.88187ZM46.039 4.86987H41.778C41.5658 4.87034 41.3573 4.92587 41.1729 5.03104C40.9885 5.1362 40.8345 5.28741 40.726 5.46987L38.076 9.88187C39.6496 10.127 41.1131 10.8399 42.276 11.9279L46.541 5.83487C46.6055 5.74302 46.6435 5.63525 46.6509 5.52329C46.6583 5.41134 46.6348 5.29951 46.583 5.19998C46.5312 5.10044 46.4531 5.01703 46.3572 4.95882C46.2613 4.90061 46.1512 4.86985 46.039 4.86987ZM36.839 11.0039C35.5046 11.0039 34.2002 11.3996 33.0906 12.1409C31.9811 12.8823 31.1163 13.9361 30.6056 15.1689C30.095 16.4018 29.9614 17.7584 30.2217 19.0671C30.482 20.3759 31.1246 21.5781 32.0682 22.5217C33.0118 23.4653 34.214 24.1079 35.5228 24.3682C36.8316 24.6286 38.1882 24.495 39.421 23.9843C40.6539 23.4736 41.7076 22.6088 42.449 21.4993C43.1903 20.3898 43.586 19.0853 43.586 17.7509C43.586 15.9616 42.8753 14.2457 41.6103 12.9804C40.3452 11.7151 38.6293 11.0041 36.84 11.0039H36.839ZM40.386 17.0319L38.932 18.4489L39.276 20.4489C39.2897 20.5297 39.2805 20.6127 39.2495 20.6885C39.2185 20.7644 39.1669 20.8301 39.1006 20.8782C39.0343 20.9263 38.9559 20.955 38.8741 20.9609C38.7924 20.9669 38.7106 20.9499 38.638 20.9119L36.838 19.9669L35.038 20.9119C34.9655 20.9499 34.8837 20.9669 34.802 20.9609C34.7202 20.955 34.6418 20.9263 34.5755 20.8782C34.5092 20.8301 34.4576 20.7644 34.4266 20.6885C34.3956 20.6127 34.3864 20.5297 34.4 20.4489L34.744 18.4489L33.293 17.0319C33.2341 16.9746 33.1924 16.9021 33.1726 16.8223C33.1528 16.7426 33.1557 16.659 33.181 16.5808C33.2063 16.5026 33.2529 16.4331 33.3157 16.3801C33.3784 16.3271 33.4548 16.2927 33.536 16.2809L35.546 15.9879L36.446 14.1659C36.4826 14.0923 36.5389 14.0304 36.6087 13.9872C36.6785 13.9439 36.7589 13.921 36.841 13.921C36.9232 13.921 37.0036 13.9439 37.0734 13.9872C37.1432 14.0304 37.1995 14.0923 37.236 14.1659L38.136 15.9879L40.146 16.2809C40.2273 16.2927 40.3037 16.3271 40.3664 16.3801C40.4292 16.4331 40.4758 16.5026 40.5011 16.5808C40.5264 16.659 40.5293 16.7426 40.5095 16.8223C40.4897 16.9021 40.448 16.9746 40.389 17.0319H40.386Z" fill="#573300"/>
<path d="M7.34702 29.1769C5.87202 28.1629 5.28294 24.7439 5.06394 22.7959C4.96394 22.3959 4.86401 21.8959 4.76401 21.3789C4.47461 19.6078 3.9757 17.8773 3.27792 16.2239C0.551925 10.3149 -1.602 5.64689 1.608 3.31789L1.98898 3.03489C3.82498 1.66889 5.90701 0.120891 7.51901 0.00789062C8.08097 -0.0528029 8.64805 0.058001 9.14584 0.32573C9.64364 0.593459 10.0488 1.00558 10.308 1.50789C10.4649 1.83566 10.577 2.18314 10.641 2.54089C12.1679 2.0961 13.739 1.81979 15.326 1.71689L15.707 1.69289C25.615 1.46689 28.507 5.01789 30.026 8.52089C30.6289 9.95044 30.8911 11.5006 30.792 13.0489C30.6205 14.7439 29.9694 16.3548 28.915 17.6929C28.1922 18.7235 27.2962 19.6211 26.2669 20.3459C26.9578 21.1089 27.7951 21.7251 28.729 22.1579C29.3008 22.4039 29.8155 22.7654 30.2409 23.2199C30.4627 23.4898 30.6171 23.8086 30.6911 24.1499C30.7652 24.4913 30.7569 24.8454 30.667 25.1829C30.4126 25.8888 30.0009 26.5276 29.4629 27.0507C28.9249 27.5738 28.2748 27.9675 27.562 28.2019C26.4845 28.6662 25.3416 28.961 24.1739 29.0759C22.932 29.1891 21.6905 28.8542 20.6739 28.1319C19.6778 27.2782 18.8353 26.2601 18.183 25.1219C18.018 24.8709 17.822 24.5739 17.698 24.4049C17.5567 24.3863 17.4138 24.3833 17.2719 24.3959C16.6506 24.4618 16.0418 24.6161 15.464 24.8539C15.7077 25.8346 15.7624 26.8527 15.625 27.8539C15.4709 28.3523 15.1823 28.7985 14.791 29.1434C14.3997 29.4884 13.9207 29.7186 13.407 29.8089C13.201 29.8439 12.693 29.9169 12.045 29.9629C11.711 29.9869 11.345 30.0019 10.973 30.0019C9.71052 30.0766 8.4529 29.7904 7.34702 29.1769ZM7.67795 1.54189C6.45795 1.62789 4.40197 3.15689 2.90097 4.27289L2.51096 4.56289C0.426957 6.07489 1.97292 9.73289 4.66892 15.5749C5.41792 17.3385 5.9551 19.1847 6.26901 21.0749C6.36901 21.5749 6.469 22.0679 6.577 22.5399C6.891 25.2839 7.55891 27.4559 8.21591 27.9069C9.37846 28.4412 10.6726 28.6217 11.937 28.4259C12.515 28.3849 12.9679 28.3209 13.1519 28.2899C13.3672 28.2468 13.5689 28.1521 13.7396 28.014C13.9103 27.8759 14.0449 27.6984 14.1319 27.4969C14.2188 26.662 14.1511 25.8182 13.932 25.0079C13.8822 24.7066 13.9251 24.3973 14.055 24.1209L14.0639 24.1089C14.147 23.9383 14.2715 23.7911 14.426 23.6809C15.2719 23.2203 16.2042 22.9404 17.1639 22.8589C17.5883 22.8132 18.0175 22.8662 18.4179 23.0139L18.5439 23.0649L18.644 23.1569C18.9548 23.4988 19.2286 23.8726 19.461 24.2719C20.0136 25.2289 20.7074 26.097 21.519 26.8469C22.2548 27.3821 23.1615 27.6284 24.067 27.5389C25.0698 27.4331 26.0509 27.1766 26.977 26.7779C28.766 26.0099 29.113 25.0879 29.177 24.8239C29.2096 24.7203 29.2166 24.6103 29.1975 24.5034C29.1783 24.3964 29.1336 24.2957 29.067 24.2099C28.7665 23.9215 28.4153 23.6913 28.031 23.5309C26.8529 22.9757 25.8062 22.1768 24.9599 21.1869C24.7915 20.9913 24.6413 20.7807 24.511 20.5579L24.139 19.9209L24.756 19.5209C25.9034 18.8127 26.8976 17.8821 27.68 16.7839C28.5615 15.6843 29.1106 14.3559 29.2629 12.9549C29.3483 11.6392 29.1247 10.3217 28.61 9.10789C27.31 6.10789 24.747 3.03189 15.77 3.23589L15.436 3.25789C13.6983 3.37304 11.982 3.70701 10.328 4.25189L10.228 4.28289H10.128C9.47002 4.30289 9.342 3.72389 9.228 3.21289C9.16362 2.87545 9.07334 2.54347 8.95798 2.21989C8.84728 2.00737 8.6782 1.83092 8.47055 1.71133C8.26291 1.59174 8.02535 1.53399 7.78598 1.54489C7.74198 1.53889 7.70995 1.53989 7.67795 1.54189ZM22.2459 14.3209V10.9069C22.2455 10.7554 22.2751 10.6053 22.3327 10.4652C22.3904 10.3251 22.475 10.1977 22.5819 10.0904C22.6888 9.98301 22.8158 9.89777 22.9557 9.83952C23.0955 9.78127 23.2454 9.75115 23.3969 9.75089C23.5484 9.75129 23.6982 9.7815 23.838 9.8398C23.9777 9.89811 24.1046 9.98337 24.2114 10.0907C24.3182 10.1981 24.4027 10.3254 24.4603 10.4654C24.5179 10.6055 24.5474 10.7555 24.547 10.9069V14.3209C24.5474 14.4723 24.5179 14.6223 24.4603 14.7624C24.4027 14.9024 24.3182 15.0297 24.2114 15.1371C24.1046 15.2444 23.9777 15.3297 23.838 15.388C23.6982 15.4463 23.5484 15.4765 23.3969 15.4769C23.2454 15.4766 23.0955 15.4465 22.9557 15.3883C22.8158 15.33 22.6888 15.2448 22.5819 15.1374C22.475 15.0301 22.3904 14.9027 22.3327 14.7626C22.2751 14.6225 22.2455 14.4724 22.2459 14.3209ZM16.0009 14.3209V10.9069C16.0006 10.7555 16.03 10.6055 16.0876 10.4654C16.1452 10.3254 16.2297 10.1981 16.3365 10.0907C16.4433 9.98337 16.5702 9.89811 16.7099 9.8398C16.8497 9.7815 16.9996 9.75129 17.151 9.75089C17.3024 9.75129 17.4523 9.7815 17.592 9.8398C17.7318 9.89811 17.8586 9.98337 17.9654 10.0907C18.0722 10.1981 18.1567 10.3254 18.2143 10.4654C18.2719 10.6055 18.3014 10.7555 18.301 10.9069V14.3209C18.3014 14.4723 18.2719 14.6223 18.2143 14.7624C18.1567 14.9024 18.0722 15.0297 17.9654 15.1371C17.8586 15.2444 17.7318 15.3297 17.592 15.388C17.4523 15.4463 17.3024 15.4765 17.151 15.4769C16.9995 15.4766 16.8495 15.4465 16.7097 15.3883C16.5698 15.33 16.4428 15.2448 16.3359 15.1374C16.229 15.0301 16.1443 14.9027 16.0866 14.7626C16.029 14.6225 15.9996 14.4724 16 14.3209H16.0009Z" fill="#573300"/>
</g>
<defs>
<clipPath id="clip0_81:30027">
<rect width="46.654" height="30" fill="white"/>
</clipPath>
</defs>
</svg>
