<svg width="13" height="15" viewBox="0 0 13 15" fill="none" xmlns="http://www.w3.org/2000/svg">
<path d="M6.30004 14.4C6.77743 14.4 7.23527 14.2104 7.57283 13.8728C7.9104 13.5352 8.10004 13.0774 8.10004 12.6H4.50004C4.50004 13.0774 4.68969 13.5352 5.02725 13.8728C5.36482 14.2104 5.82265 14.4 6.30004 14.4ZM12.356 10.191C11.813 9.607 10.796 8.729 10.796 5.853C10.7979 4.82053 10.4399 3.8197 9.78356 3.02267C9.12725 2.22564 8.21369 1.68226 7.20004 1.486V0.9C7.20004 0.78181 7.17676 0.664778 7.13153 0.555585C7.08631 0.446392 7.02001 0.347177 6.93644 0.263604C6.85287 0.180031 6.75365 0.113738 6.64446 0.0685084C6.53526 0.0232792 6.41823 0 6.30004 0C6.18185 0 6.06482 0.0232792 5.95563 0.0685084C5.84644 0.113738 5.74722 0.180031 5.66365 0.263604C5.58007 0.347177 5.51378 0.446392 5.46855 0.555585C5.42332 0.664778 5.40004 0.78181 5.40004 0.9V1.486C4.38651 1.68128 3.47267 2.22357 2.81567 3.01965C2.15866 3.81572 1.79954 4.81582 1.80004 5.848C1.80004 8.724 0.785043 9.6 0.242043 10.186C0.0845973 10.3514 -0.00220845 10.5717 4.27156e-05 10.8C4.27156e-05 11.0387 0.0948639 11.2676 0.263647 11.4364C0.432429 11.6052 0.661348 11.7 0.900043 11.7H11.694C11.8122 11.7 11.9293 11.6767 12.0385 11.6315C12.1477 11.5863 12.2469 11.52 12.3304 11.4364C12.414 11.3528 12.4803 11.2536 12.5255 11.1444C12.5708 11.0352 12.594 10.9182 12.594 10.8C12.5953 10.573 12.5085 10.3544 12.352 10.19L12.356 10.191Z" fill="#573300"/>
</svg>
