<svg width="49" height="29" viewBox="0 0 49 29" fill="none" xmlns="http://www.w3.org/2000/svg">
<path d="M37.1081 9.07596L34.4581 4.66396C34.3496 4.4815 34.1956 4.3303 34.0112 4.22513C33.8268 4.11996 33.6183 4.06443 33.4061 4.06396H29.1461C29.034 4.0643 28.9242 4.09534 28.8286 4.15369C28.733 4.21204 28.6552 4.29549 28.6036 4.39495C28.5521 4.49442 28.5288 4.60611 28.5363 4.71788C28.5438 4.82966 28.5817 4.93725 28.6461 5.02896L32.9081 11.123C34.0709 10.0345 35.5343 9.32126 37.1081 9.07596ZM47.5441 4.06396H43.2831C43.0708 4.06443 42.8623 4.11996 42.6779 4.22513C42.4935 4.3303 42.3395 4.4815 42.2311 4.66396L39.5811 9.07596C41.1546 9.3211 42.6181 10.034 43.7811 11.122L48.0461 5.02896C48.1105 4.93711 48.1485 4.82934 48.1559 4.71739C48.1633 4.60543 48.1398 4.4936 48.088 4.39407C48.0362 4.29453 47.9581 4.21112 47.8622 4.15291C47.7663 4.09471 47.6562 4.06394 47.5441 4.06396ZM38.3441 10.198C37.0096 10.198 35.7052 10.5937 34.5956 11.335C33.4861 12.0764 32.6213 13.1301 32.1106 14.363C31.6 15.5959 31.4664 16.9524 31.7267 18.2612C31.987 19.57 32.6296 20.7722 33.5732 21.7158C34.5168 22.6594 35.719 23.302 37.0278 23.5623C38.3366 23.8227 39.6932 23.689 40.926 23.1784C42.1589 22.6677 43.2126 21.8029 43.954 20.6934C44.6953 19.5839 45.0911 18.2794 45.0911 16.945C45.0911 15.1557 44.3803 13.4397 43.1153 12.1745C41.8502 10.9092 40.1343 10.1982 38.3451 10.198H38.3441ZM41.8911 16.226L40.4371 17.643L40.7811 19.643C40.7947 19.7238 40.7855 19.8068 40.7545 19.8826C40.7235 19.9585 40.6719 20.0242 40.6056 20.0723C40.5393 20.1204 40.4609 20.1491 40.3791 20.155C40.2974 20.161 40.2156 20.144 40.1431 20.106L38.3431 19.161L36.5431 20.106C36.4705 20.144 36.3887 20.161 36.307 20.155C36.2252 20.1491 36.1468 20.1204 36.0805 20.0723C36.0142 20.0242 35.9626 19.9585 35.9316 19.8826C35.9006 19.8068 35.8914 19.7238 35.9051 19.643L36.2491 17.643L34.7981 16.226C34.7391 16.1687 34.6974 16.0961 34.6776 16.0164C34.6578 15.9367 34.6607 15.853 34.686 15.7749C34.7113 15.6967 34.7579 15.6272 34.8207 15.5742C34.8834 15.5212 34.9598 15.4868 35.0411 15.475L37.0511 15.182L37.9511 13.36C37.9876 13.2864 38.0439 13.2245 38.1137 13.1813C38.1835 13.138 38.2639 13.1151 38.3461 13.1151C38.4282 13.1151 38.5086 13.138 38.5784 13.1813C38.6482 13.2245 38.7045 13.2864 38.7411 13.36L39.6411 15.182L41.6511 15.475C41.7323 15.4868 41.8087 15.5212 41.8714 15.5742C41.9342 15.6272 41.9808 15.6967 42.0061 15.7749C42.0314 15.853 42.0343 15.9367 42.0145 16.0164C41.9947 16.0961 41.953 16.1687 41.8941 16.226H41.8911Z" fill="#573300"/>
<path d="M23.371 28.194C22.1265 28.2071 20.8943 27.9459 19.762 27.429C19.2701 27.1518 18.8698 26.737 18.6103 26.2355C18.3508 25.734 18.2433 25.1677 18.301 24.606L18.162 24.64C17.611 24.775 17.042 24.916 16.424 25.034C15.6038 25.1374 14.7786 25.1964 13.952 25.211H13.561C11.0329 25.289 8.52151 24.7753 6.22703 23.711C4.06289 22.5663 2.33077 20.7474 1.29303 18.53C0.437048 16.7353 -0.00341671 14.7707 0.00437404 12.7824C0.0121648 10.794 0.46801 8.83295 1.33803 7.045C3.88703 2.284 7.80102 0.113 14.029 0H14.536H15.021C20.351 0.284 23.606 2.14 25.401 3.647C25.0834 3.95871 24.7933 4.2973 24.534 4.659C24.0482 4.29194 23.5442 3.94951 23.024 3.633C20.568 2.23054 17.8033 1.45693 14.976 1.381H14.538H14.055C8.38702 1.481 4.84503 3.418 2.57103 7.665C1.79428 9.26606 1.38823 11.0216 1.38304 12.8011C1.37784 14.5806 1.77364 16.3384 2.54103 17.944C3.45583 19.8969 4.98225 21.4985 6.88903 22.506C8.98349 23.4526 11.2667 23.9075 13.564 23.836H13.93C14.7045 23.8226 15.4776 23.7672 16.246 23.67C16.8677 23.5751 17.4829 23.4415 18.088 23.27C18.348 23.202 18.616 23.132 18.913 23.058C18.9992 23.043 19.0865 23.0356 19.174 23.036C19.2809 23.028 19.3884 23.0421 19.4895 23.0776C19.5907 23.113 19.6835 23.169 19.762 23.242C19.962 23.479 19.919 23.717 19.851 24.112C19.84 24.174 19.829 24.238 19.818 24.306C19.7274 24.6713 19.754 25.0559 19.8942 25.4052C20.0344 25.7545 20.281 26.0507 20.599 26.252C21.4642 26.6556 22.4118 26.8512 23.366 26.823H23.713C24.4225 26.8271 25.128 26.7164 25.802 26.495C26.3805 26.3603 26.9193 26.0914 27.3747 25.7101C27.8302 25.3288 28.1896 24.8458 28.424 24.3C28.474 24.193 28.557 24.012 28.67 23.762C28.7118 23.6676 28.7803 23.5874 28.8669 23.5313C28.9536 23.4752 29.0548 23.4455 29.158 23.446H29.183C29.2531 23.4419 29.3233 23.4531 29.3887 23.4786C29.4541 23.5042 29.5132 23.5435 29.562 23.594C29.6988 23.7654 29.8099 23.9557 29.892 24.159C29.6343 25.0268 29.1561 25.8129 28.5039 26.4407C27.8518 27.0685 27.048 27.5165 26.171 27.741C25.3866 28.0252 24.5603 28.177 23.726 28.19L23.371 28.194Z" fill="#573300"/>
<path d="M28.253 24.6591C28.6359 23.9203 28.8225 23.0956 28.795 22.2641L28.807 21.9251C28.807 21.5651 28.812 21.0731 28.795 20.5041L28.779 20.0041L29.2551 19.8371C29.8091 19.6618 30.3334 19.4035 30.81 19.0711C31.5505 18.6517 32.1197 17.9851 32.4178 17.188C32.7158 16.3909 32.7237 15.5144 32.44 14.7121C32.3109 14.0459 31.9766 13.4368 31.484 12.9701C31.1619 12.7356 30.7714 12.614 30.373 12.6241C29.8284 12.6486 29.2913 12.7618 28.7831 12.9591L28.721 12.9801L28.506 13.0591C28.506 13.0591 28.106 13.2301 28.016 13.2591C27.9789 13.2741 27.9383 13.2789 27.8987 13.273C27.859 13.2671 27.8216 13.2507 27.7904 13.2255C27.7592 13.2004 27.7353 13.1673 27.7212 13.1297C27.707 13.0922 27.7032 13.0516 27.71 13.0121C27.728 12.7651 27.749 12.2861 27.749 12.2861C27.8737 9.90433 27.1021 7.56223 25.586 5.72107C25.1092 5.15554 24.5655 4.64985 23.967 4.21507L25.432 3.62207C25.8727 3.98824 26.28 4.39283 26.649 4.83107C28.1786 6.69312 29.0529 9.00679 29.137 11.4151C29.5404 11.3077 29.9556 11.2509 30.373 11.2461C31.0909 11.2363 31.7911 11.4692 32.36 11.9071C33.0677 12.5488 33.5571 13.3956 33.76 14.3291C34.1237 15.4061 34.1081 16.575 33.7157 17.6419C33.3233 18.7088 32.5778 19.6093 31.603 20.1941C31.1654 20.5129 30.6863 20.7706 30.179 20.9601C30.185 21.3411 30.179 21.6741 30.179 21.9381V22.1561C30.185 22.8918 30.0715 23.6237 29.843 24.3231L28.267 24.7501L28.253 24.6591Z" fill="#573300"/>
<path d="M17.502 8.7981C17.7763 8.7981 18.0393 8.90703 18.2332 9.10095C18.4271 9.29486 18.536 9.55786 18.536 9.8321V12.8851C18.536 13.1593 18.4271 13.4223 18.2332 13.6162C18.0393 13.8102 17.7763 13.9191 17.502 13.9191C17.2278 13.9191 16.9648 13.8102 16.7709 13.6162C16.577 13.4223 16.468 13.1593 16.468 12.8851V9.8321C16.468 9.55786 16.577 9.29486 16.7709 9.10095C16.9648 8.90703 17.2278 8.7981 17.502 8.7981V8.7981Z" fill="#573300"/>
<path d="M23.1151 8.7981C23.3893 8.7981 23.6523 8.90703 23.8462 9.10095C24.0401 9.29486 24.1491 9.55786 24.1491 9.8321V12.8851C24.1491 13.1593 24.0401 13.4223 23.8462 13.6162C23.6523 13.8102 23.3893 13.9191 23.1151 13.9191C22.8408 13.9191 22.5778 13.8102 22.3839 13.6162C22.19 13.4223 22.0811 13.1593 22.0811 12.8851V9.8321C22.0811 9.55786 22.19 9.29486 22.3839 9.10095C22.5778 8.90703 22.8408 8.7981 23.1151 8.7981V8.7981Z" fill="#573300"/>
<path d="M19.6609 18.6382C17.989 18.6856 16.3168 18.5557 14.6722 18.2509L14.4608 18.2123C13.6881 18.0945 12.9268 17.9114 12.1851 17.6649C11.0951 17.3403 10.074 16.8184 9.17249 16.125C9.10301 16.067 9.04563 15.9959 9.00363 15.9158C8.96163 15.8356 8.93583 15.748 8.9277 15.6578C8.91957 15.5677 8.92928 15.4768 8.95626 15.3905C8.98325 15.3041 9.02698 15.2239 9.08497 15.1544C9.14296 15.0849 9.21406 15.0275 9.29422 14.9855C9.37439 14.9435 9.46204 14.9177 9.55217 14.9096C9.6423 14.9015 9.73316 14.9112 9.81954 14.9382C9.90592 14.9651 9.98614 15.0089 10.0556 15.0669C10.8284 15.6522 11.7017 16.0911 12.6326 16.3619C13.3012 16.5835 13.9876 16.7475 14.6842 16.8521C14.8401 16.8777 14.9429 16.8991 14.9793 16.9098C17.0465 17.2355 19.1454 17.31 21.2305 17.1319C22.632 17.1532 24.0155 16.8137 25.2479 16.146C25.3876 16.0706 25.5207 15.9836 25.6458 15.886C26.2415 15.4618 26.7403 14.916 27.1094 14.2848C27.4785 13.6536 27.7095 12.9512 27.7871 12.2241C27.9814 11.4051 28.0338 11.6444 28.4129 11.6451C28.5949 11.645 28.7696 11.717 28.8985 11.8454C29.0275 11.9738 29.1004 12.1481 29.1011 12.3301C28.9871 13.2847 28.6748 14.2049 28.1842 15.0316C27.6937 15.8584 27.0357 16.5735 26.2526 17.131C24.6443 17.9886 22.8652 18.4773 21.0445 18.5617C20.6066 18.5941 20.1474 18.6212 19.6609 18.6382Z" fill="#573300"/>
</svg>
