<svg width="148" height="51" viewBox="0 0 148 51" fill="none" xmlns="http://www.w3.org/2000/svg">
<g clip-path="url(#clip0_81:29782)">
<path d="M105.832 14.3329H108.639C109.213 14.3544 109.564 14.5047 109.691 14.7838C109.798 14.9878 109.851 15.2883 109.851 15.6855V19.2281C109.851 19.5716 109.702 19.899 109.404 20.2104C108.511 21.1443 107.171 21.6113 105.385 21.6113C103.801 21.6113 102.424 21.0101 101.255 19.8078C100.085 18.5947 99.5002 17.1348 99.5002 15.4279C99.5002 13.721 100.096 12.2986 101.286 11.1607C102.477 10.0121 103.881 9.43774 105.497 9.43774C106.751 9.43774 107.937 9.85641 109.053 10.6937C109.34 10.9084 109.484 11.15 109.484 11.4184C109.484 11.676 109.362 11.9766 109.117 12.3201C108.703 12.8891 108.325 13.1735 107.985 13.1735C107.783 13.1735 107.459 13.0286 107.012 12.7388C106.565 12.4382 106.034 12.2879 105.417 12.2879C104.609 12.2879 103.891 12.5777 103.264 13.1574C102.637 13.7264 102.323 14.4778 102.323 15.4118C102.323 16.335 102.642 17.124 103.28 17.7789C103.918 18.423 104.641 18.745 105.449 18.745C106.034 18.745 106.56 18.6484 107.028 18.4552V16.7H105.768C105.438 16.7 105.204 16.6571 105.066 16.5712C104.928 16.4853 104.838 16.3618 104.795 16.2008C104.753 16.0291 104.731 15.8036 104.731 15.5245C104.731 15.2347 104.753 15.0039 104.795 14.8321C104.848 14.6603 104.939 14.5423 105.066 14.4778C105.258 14.3812 105.513 14.3329 105.832 14.3329Z" fill="#474747"/>
<path d="M116.611 9.50215C118.185 9.50215 119.551 10.0765 120.71 11.2251C121.869 12.3738 122.448 13.8015 122.448 15.5084C122.448 17.2045 121.895 18.6538 120.789 19.8561C119.684 21.0477 118.323 21.6435 116.707 21.6435C115.09 21.6435 113.714 21.0531 112.576 19.8722C111.449 18.6913 110.885 17.2851 110.885 15.6533C110.885 14.7623 111.045 13.9304 111.364 13.1574C111.683 12.3738 112.108 11.7189 112.64 11.1929C113.171 10.6669 113.783 10.2536 114.474 9.95303C115.165 9.65245 115.877 9.50215 116.611 9.50215ZM113.708 15.5728C113.708 16.5282 114.011 17.3065 114.617 17.9077C115.234 18.4981 115.92 18.7933 116.675 18.7933C117.43 18.7933 118.11 18.5035 118.716 17.9238C119.322 17.3441 119.625 16.5658 119.625 15.5889C119.625 14.612 119.317 13.8284 118.7 13.2379C118.094 12.6475 117.414 12.3523 116.659 12.3523C115.904 12.3523 115.223 12.6529 114.617 13.254C114.011 13.8445 113.708 14.6174 113.708 15.5728Z" fill="#474747"/>
<path d="M128.977 9.50215C130.551 9.50215 131.917 10.0765 133.076 11.2251C134.235 12.3738 134.815 13.8015 134.815 15.5084C134.815 17.2045 134.262 18.6538 133.156 19.8561C132.05 21.0477 130.689 21.6435 129.073 21.6435C127.457 21.6435 126.08 21.0531 124.942 19.8722C123.815 18.6913 123.252 17.2851 123.252 15.6533C123.252 14.7623 123.411 13.9304 123.73 13.1574C124.049 12.3738 124.475 11.7189 125.006 11.1929C125.538 10.6669 126.149 10.2536 126.84 9.95303C127.531 9.65245 128.244 9.50215 128.977 9.50215ZM126.075 15.5728C126.075 16.5282 126.378 17.3065 126.984 17.9077C127.6 18.4981 128.286 18.7933 129.041 18.7933C129.796 18.7933 130.477 18.5035 131.083 17.9238C131.689 17.3441 131.992 16.5658 131.992 15.5889C131.992 14.612 131.683 13.8284 131.067 13.2379C130.461 12.6475 129.78 12.3523 129.025 12.3523C128.27 12.3523 127.59 12.6529 126.984 13.254C126.378 13.8445 126.075 14.6174 126.075 15.5728Z" fill="#474747"/>
<path d="M137.277 9.63098L140.227 9.64708C141.769 9.64708 143.125 10.2107 144.294 11.3378C145.464 12.4543 146.049 13.8337 146.049 15.4762C146.049 17.1079 145.474 18.5088 144.326 19.679C143.188 20.8491 141.806 21.4341 140.18 21.4341H137.261C136.612 21.4341 136.208 21.3 136.049 21.0316C135.921 20.8061 135.857 20.4626 135.857 20.001V11.048C135.857 10.7904 135.863 10.6025 135.873 10.4844C135.895 10.3663 135.948 10.2268 136.033 10.0657C136.182 9.7759 136.596 9.63098 137.277 9.63098ZM140.227 18.584C140.993 18.584 141.684 18.2995 142.301 17.7306C142.917 17.1509 143.226 16.4263 143.226 15.5567C143.226 14.6872 142.923 13.9626 142.317 13.3829C141.721 12.7924 141.019 12.4972 140.211 12.4972H138.68V18.584H140.227Z" fill="#474747"/>
<path d="M110.21 38.3938C110.37 38.7802 110.45 39.0593 110.45 39.2311C110.45 39.639 110.12 39.9826 109.461 40.2617C109.12 40.412 108.844 40.4871 108.631 40.4871C108.429 40.4871 108.259 40.4388 108.121 40.3422C107.993 40.2348 107.898 40.1275 107.834 40.0201C107.728 39.8162 107.313 38.8446 106.59 37.1056L106.096 37.1378H104.086V38.9574C104.086 39.2043 104.075 39.3921 104.054 39.5209C104.043 39.639 103.996 39.7786 103.911 39.9396C103.762 40.2295 103.347 40.3744 102.667 40.3744C101.922 40.3744 101.486 40.1758 101.359 39.7786C101.295 39.5961 101.263 39.317 101.263 38.9413V30.0043C101.263 29.7574 101.268 29.5749 101.279 29.4568C101.3 29.328 101.353 29.1831 101.439 29.0221C101.587 28.7322 102.002 28.5873 102.683 28.5873H106.127C107.063 28.5873 107.972 28.9308 108.855 29.6179C109.28 29.9507 109.631 30.4015 109.907 30.9705C110.184 31.5394 110.322 32.1728 110.322 32.8706C110.322 34.0836 109.923 35.082 109.126 35.8657C109.36 36.4346 109.721 37.2773 110.21 38.3938ZM104.086 34.2876H106.127C106.436 34.2876 106.744 34.1695 107.052 33.9334C107.361 33.6972 107.515 33.3429 107.515 32.8706C107.515 32.3982 107.361 32.044 107.052 31.8078C106.744 31.5609 106.425 31.4375 106.096 31.4375H104.086V34.2876Z" fill="#474747"/>
<path d="M116.655 28.4424C118.229 28.4424 119.595 29.0167 120.754 30.1654C121.913 31.314 122.492 32.7418 122.492 34.4486C122.492 36.1448 121.939 37.594 120.834 38.7963C119.728 39.9879 118.367 40.5837 116.751 40.5837C115.135 40.5837 113.758 39.9933 112.62 38.8124C111.493 37.6316 110.929 36.2253 110.929 34.5936C110.929 33.7026 111.089 32.8706 111.408 32.0977C111.727 31.314 112.152 30.6592 112.684 30.1332C113.215 29.6071 113.827 29.1938 114.518 28.8933C115.209 28.5927 115.921 28.4424 116.655 28.4424ZM113.752 34.5131C113.752 35.4685 114.055 36.2468 114.661 36.8479C115.278 37.4383 115.964 37.7336 116.719 37.7336C117.474 37.7336 118.154 37.4437 118.76 36.864C119.366 36.2843 119.669 35.506 119.669 34.5292C119.669 33.5523 119.361 32.7686 118.744 32.1782C118.138 31.5878 117.458 31.2925 116.703 31.2925C115.948 31.2925 115.268 31.5931 114.661 32.1943C114.055 32.7847 113.752 33.5576 113.752 34.5131Z" fill="#474747"/>
<path d="M129.487 29.4246L133.793 38.4099C133.974 38.7749 134.064 39.0486 134.064 39.2311C134.064 39.6176 133.756 39.9665 133.139 40.2778C132.778 40.4603 132.491 40.5515 132.278 40.5515C132.076 40.5515 131.906 40.5032 131.768 40.4066C131.64 40.31 131.544 40.208 131.481 40.1006C131.427 39.9933 131.348 39.8323 131.241 39.6176L130.412 37.8785H125.994L125.165 39.6176C125.059 39.8323 124.974 39.9879 124.91 40.0845C124.857 40.1812 124.761 40.2831 124.623 40.3905C124.495 40.4871 124.325 40.5354 124.112 40.5354C123.91 40.5354 123.629 40.4442 123.267 40.2617C122.65 39.9611 122.342 39.6176 122.342 39.2311C122.342 39.0486 122.432 38.7749 122.613 38.4099L126.919 29.4085C127.036 29.1616 127.212 28.963 127.446 28.8127C127.69 28.6625 127.945 28.5873 128.211 28.5873C128.785 28.5873 129.211 28.8664 129.487 29.4246ZM128.195 33.2893L127.143 35.4953H129.264L128.195 33.2893Z" fill="#474747"/>
<path d="M136.355 28.5712L139.306 28.5873C140.848 28.5873 142.203 29.1509 143.373 30.2781C144.542 31.3945 145.127 32.774 145.127 34.4164C145.127 36.0482 144.553 37.4491 143.405 38.6192C142.267 39.7893 140.885 40.3744 139.258 40.3744H136.339C135.691 40.3744 135.287 40.2402 135.127 39.9718C135 39.7464 134.936 39.4029 134.936 38.9413V29.9882C134.936 29.7306 134.941 29.5427 134.952 29.4246C134.973 29.3066 135.026 29.167 135.111 29.006C135.26 28.7161 135.675 28.5712 136.355 28.5712ZM139.306 37.5242C140.071 37.5242 140.762 37.2398 141.379 36.6708C141.996 36.0911 142.304 35.3665 142.304 34.4969C142.304 33.6274 142.001 32.9028 141.395 32.3231C140.8 31.7327 140.098 31.4375 139.29 31.4375H137.759V37.5242H139.306Z" fill="#474747"/>
<path d="M41.3067 51.0001C39.1066 51.0244 36.9283 50.5581 34.9273 49.6346C34.0595 49.2068 33.3623 48.4927 32.9512 47.6105C32.7358 47.1594 32.5792 46.682 32.4855 46.1902C32.3852 45.6651 32.3398 45.1308 32.35 44.5961L32.1777 44.6396C31.1809 44.8876 30.1523 45.1452 29.0311 45.361C27.5818 45.5477 26.1235 45.6552 24.6627 45.683H23.9722C19.5023 45.8244 15.0616 44.909 11.0043 43.01C7.17522 40.9651 4.11124 37.7149 2.27726 33.7526C0.992485 30.9542 0.233752 27.9391 0.0396706 24.8608C-0.0687907 23.0076 0.0474321 21.1479 0.385756 19.3231C0.782581 17.2232 1.44789 15.1842 2.36498 13.2573C4.30877 9.31682 7.3642 6.04534 11.1463 3.85503C15.3687 1.67922 20.0588 0.592191 24.7983 0.690884H25.6946H26.5511C29.868 0.8418 33.1498 1.44189 36.3084 2.47505C38.5918 3.2293 40.768 4.28108 42.782 5.60377C42.8362 5.56352 42.8936 5.52487 42.9526 5.48783L43.5252 5.0579C46.5698 2.78099 50.0242 0.199756 52.6972 0.011356C52.8152 0.011356 52.9348 8.41951e-05 53.0529 8.41951e-05C53.9045 -0.00475575 54.7446 0.19914 55.501 0.594268C55.885 0.797508 56.2358 1.0593 56.5408 1.37041C56.8598 1.69803 57.1194 2.07952 57.308 2.49759C57.568 3.04896 57.7546 3.63265 57.863 4.23344C60.4022 3.48762 63.0148 3.0254 65.6539 2.85507L66.2918 2.81481C66.7862 2.80354 67.2774 2.7971 67.7559 2.7971C69.506 2.79176 71.2553 2.87775 72.9966 3.05474C74.457 3.20313 75.9065 3.4457 77.3362 3.78096C78.5423 4.06454 79.7249 4.44138 80.8736 4.90814C81.8593 5.31107 82.8081 5.8003 83.7093 6.37025C85.2399 7.33648 86.5852 8.57366 87.6805 10.0223C88.6358 11.3078 89.4302 12.7075 90.0457 14.1897C90.5004 15.3357 90.8495 16.5215 91.0887 17.7322C91.3308 19.0522 91.4069 20.3977 91.3152 21.7369C91.0272 24.5616 89.9448 27.2441 88.1956 29.4677C86.9924 31.1923 85.5007 32.6918 83.7874 33.8992C84.9393 35.18 86.335 36.2134 87.891 36.9377C88.8381 37.3476 89.6911 37.9506 90.3966 38.709C90.763 39.1561 91.0181 39.6853 91.1404 40.2523C91.2628 40.8193 91.2489 41.4077 91.0999 41.9682C90.6762 43.1452 89.9925 44.2093 89.1008 45.0798C88.2091 45.9503 87.1327 46.6043 85.9533 46.9922C84.1648 47.7626 82.2699 48.2513 80.3346 48.4414C80.0794 48.4591 79.8258 48.4688 79.5786 48.4688C77.7715 48.4837 76.0056 47.9243 74.5309 46.8698C72.884 45.4518 71.4896 43.7597 70.4081 41.8667L70.3986 41.8522C70.1195 41.4255 69.8021 40.9424 69.6012 40.6655C69.467 40.6459 69.3316 40.6368 69.1961 40.6381C69.0988 40.6381 68.9935 40.6381 68.8771 40.6494C67.8402 40.7603 66.8242 41.0195 65.8596 41.4191C66.0524 42.3988 66.1824 43.3901 66.2488 44.3868C66.303 45.0719 66.2622 45.7613 66.1275 46.435C65.8708 47.2645 65.3926 48.0064 64.7455 48.5794C64.0984 49.1524 63.3074 49.5342 62.4594 49.6829L62.2728 49.7151C61.3489 49.8862 60.4167 50.0077 59.4802 50.079C59.0336 50.1112 58.5982 50.1257 58.1851 50.1257C56.4126 50.2237 54.6515 49.7847 53.1278 48.8649C52.3967 48.3001 51.8023 47.5749 51.3894 46.7442C50.7833 47.5587 50.0444 48.2633 49.2045 48.8278C48.2953 49.4326 47.302 49.8972 46.2572 50.2062C44.8708 50.7152 43.4101 50.9873 41.9351 51.0114L41.3067 51.0001ZM33.8874 41.7814C34.0764 41.767 34.2664 41.7921 34.4453 41.8553C34.6242 41.9185 34.7883 42.0183 34.9273 42.1485C35.2765 42.572 35.2048 42.9971 35.0868 43.6992C35.0676 43.8103 35.0485 43.923 35.0293 44.047C34.8693 44.699 34.9165 45.3854 35.1644 46.0088C35.4123 46.6322 35.8483 47.1611 36.4105 47.5203C37.9429 48.2418 39.6214 48.5909 41.3115 48.5396H41.916C43.1704 48.5468 44.4178 48.3489 45.6096 47.9535C46.6271 47.715 47.5753 47.2396 48.3783 46.5652C49.1814 45.8908 49.8171 45.0362 50.2347 44.0695C50.3687 43.7765 50.517 43.4496 50.6749 43.1034C50.7486 42.9346 50.8695 42.7911 51.0228 42.6907C51.176 42.5903 51.355 42.5373 51.5377 42.5382H51.5824C51.7061 42.5306 51.83 42.5502 51.9454 42.5959C52.0608 42.6415 52.1649 42.7119 52.2507 42.8023C52.4927 43.1078 52.6894 43.4474 52.8344 43.8103V43.8312C53.0869 44.5197 53.3985 45.1846 53.7658 45.8183C53.9637 46.1839 54.2309 46.5067 54.552 46.7683C55.6604 47.3854 56.9205 47.6692 58.1835 47.5863C58.5408 47.5863 58.9204 47.5718 59.3111 47.5445C60.1605 47.4789 61.0059 47.3682 61.8437 47.2128L62.0479 47.1773C62.4075 47.1053 62.7445 46.9464 63.03 46.7142C63.3155 46.482 63.5411 46.1835 63.6874 45.844C63.833 44.45 63.7211 43.0408 63.3573 41.688C63.2739 41.1866 63.3457 40.6716 63.563 40.213L63.5742 40.1985C63.7202 39.8965 63.9438 39.6396 64.2217 39.4546C64.8986 39.0502 65.6319 38.7511 66.3971 38.5673C67.1531 38.349 67.9271 38.1997 68.7096 38.1213C68.8787 38.11 69.0445 38.1035 69.2024 38.1035C69.7425 38.0904 70.28 38.1839 70.7845 38.3789L70.9903 38.4642L71.1498 38.6156C71.6646 39.1846 72.1185 39.8069 72.5038 40.4722C73.4237 42.0712 74.5775 43.5207 75.9264 44.7716C76.992 45.5519 78.2783 45.9647 79.5946 45.9487C79.7812 45.9487 79.9741 45.9487 80.1703 45.9278C81.8361 45.7514 83.4662 45.3231 85.0059 44.6573C87.9867 43.3691 88.5609 41.8297 88.6645 41.3885C88.7198 41.2131 88.7316 41.0268 88.6991 40.8457C88.6666 40.6647 88.5906 40.4944 88.4779 40.3499C87.9776 39.8672 87.3931 39.4823 86.7539 39.2146C84.7988 38.2871 83.0614 36.9506 81.6567 35.2937C81.3773 34.9684 81.128 34.6181 80.9119 34.247L80.3011 33.1987L81.3122 32.5385C83.2174 31.3579 84.8696 29.8047 86.1718 27.9702C87.6277 26.1314 88.5399 23.915 88.8033 21.5759C88.9453 19.3784 88.5732 17.178 87.7172 15.1526C85.6152 10.2977 81.6009 5.33003 67.7671 5.33003C67.3173 5.33003 66.8516 5.33003 66.3843 5.34613L65.8293 5.38156C62.944 5.57358 60.094 6.1308 57.3462 7.04012L57.1867 7.09165H57.0145H56.9619C55.9284 7.09165 55.7211 6.14965 55.5377 5.32037C55.4312 4.75764 55.2814 4.20418 55.0895 3.66502C54.9019 3.30914 54.6181 3.01431 54.2712 2.81478C53.9242 2.61525 53.5283 2.51922 53.1294 2.53785C53.0752 2.53785 53.0194 2.53785 52.9699 2.53785C50.9397 2.67955 47.5235 5.2318 45.0275 7.09648L44.9031 7.18826C44.3414 7.74456 43.8286 8.34907 43.3705 8.99497C43.3561 8.9837 41.8553 7.83881 40.7055 7.16733C36.3633 4.66086 31.4744 3.2779 26.4745 3.14169H25.701H24.8477C14.8208 3.32687 8.55942 6.78731 4.53877 14.3668C3.16707 17.224 2.45047 20.3565 2.44218 23.5317C2.4339 26.7068 3.13415 29.8431 4.49093 32.7076C6.1079 36.1935 8.80677 39.0518 12.1782 40.849C15.8813 42.5389 19.9183 43.3508 23.9801 43.2225H24.6277C25.9966 43.1983 27.3633 43.0994 28.7217 42.9263C29.821 42.7542 30.9087 42.5133 31.9784 42.2049C32.4361 42.0841 32.9082 41.9585 33.4345 41.8281C33.5854 41.799 33.7386 41.7834 33.8922 41.7814H33.8874Z" fill="#474747"/>
<path d="M70.7753 19.402C70.7753 18.3366 69.9202 17.4729 68.8654 17.4729C67.8106 17.4729 66.9556 18.3366 66.9556 19.402V25.0942C66.9556 26.1596 67.8106 27.0233 68.8654 27.0233C69.9202 27.0233 70.7753 26.1596 70.7753 25.0942V19.402Z" fill="#474747"/>
<path d="M81.1434 19.402C81.1434 18.3366 80.2884 17.4729 79.2336 17.4729C78.1788 17.4729 77.3237 18.3366 77.3237 19.402V25.0942C77.3237 26.1596 78.1788 27.0233 79.2336 27.0233C80.2884 27.0233 81.1434 26.1596 81.1434 25.0942V19.402Z" fill="#474747"/>
<path d="M49.9415 44.6928C50.6177 43.3745 50.9472 41.9029 50.8984 40.4191L50.9207 39.8137C50.9207 39.1696 50.9303 38.2936 50.8984 37.2775L50.8713 36.3774L51.7118 36.0779C52.6915 35.7652 53.6185 35.3042 54.4613 34.7108C55.7698 33.9621 56.7756 32.7723 57.3022 31.3499C57.8289 29.9275 57.8428 28.3634 57.3417 26.9316C57.1138 25.7423 56.5226 24.6549 55.6511 23.8222C55.0813 23.4038 54.3906 23.187 53.6862 23.2055C52.7236 23.2493 51.7745 23.4511 50.8761 23.8029L50.7676 23.84L50.3864 23.9817C50.3864 23.9817 49.672 24.286 49.5189 24.3311C49.4531 24.3575 49.3816 24.3658 49.3116 24.3551C49.2416 24.3444 49.1757 24.3151 49.1207 24.2702C49.0656 24.2253 49.0234 24.1664 48.9984 24.0995C48.9733 24.0327 48.9664 23.9603 48.9782 23.8899C49.0085 23.4503 49.0468 22.6017 49.0468 22.6017C49.2663 18.35 47.9007 14.1695 45.2191 10.8838C44.3751 9.88201 43.4144 8.98668 42.3579 8.21726L44.948 7.15771C45.7265 7.81128 46.4459 8.53336 47.0978 9.31546C49.7989 12.6345 51.3444 16.758 51.4965 21.051C52.2095 20.8589 52.9435 20.7572 53.6815 20.7483C54.9492 20.7319 56.1854 21.1478 57.1901 21.9286C58.4438 23.0731 59.3115 24.5849 59.6718 26.2521C60.3147 28.174 60.2872 30.2601 59.5939 32.1641C58.9005 34.068 57.5829 35.6752 55.86 36.7188C55.0865 37.2877 54.2398 37.7477 53.3433 38.0859C53.3529 38.767 53.3433 39.3596 53.3433 39.8314V40.2195C53.3532 41.5317 53.1523 42.8368 52.7484 44.0841L49.9559 44.8522L49.9415 44.6928Z" fill="#474747"/>
<path d="M30.9371 16.3845C31.4218 16.3845 31.8867 16.5789 32.2295 16.925C32.5722 17.2711 32.7648 17.7405 32.7648 18.2299V23.6774C32.7648 24.1668 32.5722 24.6362 32.2295 24.9822C31.8867 25.3283 31.4218 25.5227 30.9371 25.5227C30.4523 25.5227 29.9875 25.3283 29.6447 24.9822C29.3019 24.6362 29.1094 24.1668 29.1094 23.6774V18.2299C29.1094 17.7405 29.3019 17.2711 29.6447 16.925C29.9875 16.5789 30.4523 16.3845 30.9371 16.3845V16.3845Z" fill="#474747"/>
<path d="M40.8588 16.3845C41.3435 16.3845 41.8084 16.5789 42.1512 16.925C42.4939 17.2711 42.6865 17.7405 42.6865 18.2299V23.6774C42.6865 24.1668 42.4939 24.6362 42.1512 24.9822C41.8084 25.3283 41.3435 25.5227 40.8588 25.5227C40.374 25.5227 39.9092 25.3283 39.5664 24.9822C39.2236 24.6362 39.0311 24.1668 39.0311 23.6774V18.2299C39.0311 17.7405 39.2236 17.2711 39.5664 16.925C39.9092 16.5789 40.374 16.3845 40.8588 16.3845V16.3845Z" fill="#474747"/>
<path d="M34.754 33.9465C31.7991 34.0309 28.8436 33.7991 25.9371 33.255L25.5646 33.186C24.1991 32.9762 22.8536 32.6499 21.5427 32.2105C19.6152 31.6317 17.8093 30.7004 16.215 29.4628C15.967 29.2537 15.8115 28.9537 15.7826 28.6288C15.7536 28.304 15.8537 27.9808 16.0608 27.7304C16.2679 27.48 16.565 27.3229 16.8868 27.2937C17.2086 27.2645 17.5287 27.3656 17.7766 27.5747C19.1424 28.6194 20.6861 29.4028 22.3314 29.8859C23.5137 30.2815 24.7273 30.5742 25.959 30.761C26.235 30.806 26.415 30.8447 26.481 30.8633C30.1349 31.4446 33.845 31.5778 37.5305 31.26C40.0064 31.2971 42.4502 30.691 44.6272 29.4998C44.8741 29.3657 45.1094 29.2108 45.3306 29.0369C46.384 28.2803 47.2664 27.3065 47.9195 26.1801C48.5725 25.0536 48.9814 23.8001 49.119 22.5023C49.4623 21.0406 49.5617 21.4671 50.2254 21.4694C50.547 21.4693 50.8554 21.5981 51.0832 21.8273C51.3109 22.0566 51.4394 22.3676 51.4403 22.6923C51.4475 22.8999 50.755 28.597 46.4051 31.2698C43.5615 32.7987 40.4164 33.6692 37.1982 33.8182C36.4262 33.868 35.6143 33.9161 34.754 33.9465Z" fill="#474747"/>
</g>
<defs>
<clipPath id="clip0_81:29782">
<rect width="148" height="51" fill="white"/>
</clipPath>
</defs>
</svg>
