<svg width="52" height="29" viewBox="0 0 52 29" fill="none" xmlns="http://www.w3.org/2000/svg">
<path d="M19.7903 27.8521C19.2983 27.6122 18.9031 27.2114 18.6703 26.7161C18.548 26.4619 18.4593 26.193 18.4063 25.9161C18.3497 25.6212 18.3242 25.3212 18.3303 25.0211L18.2303 25.0451C17.6663 25.1841 17.0823 25.3291 16.4473 25.4501C15.626 25.5535 14.7998 25.6126 13.9723 25.6271H13.5813C11.0495 25.7064 8.53421 25.1927 6.23626 24.1271C4.06903 22.9811 2.33415 21.1602 1.29426 18.9401C0.564701 17.3702 0.133048 15.6785 0.0212579 13.9511C-0.0387527 12.9105 0.0284104 11.8664 0.221258 10.8421C0.446632 9.66498 0.82378 8.5221 1.34326 7.44207C2.44311 5.23048 4.1727 3.39373 6.31426 2.16307C8.70671 0.942335 11.3639 0.332223 14.0493 0.387069H14.5583H15.0433C16.9224 0.471464 18.7817 0.807802 20.5713 1.38707C21.865 1.81057 23.0981 2.40087 24.2393 3.14307C24.2703 3.12107 24.3033 3.09907 24.3393 3.07807L24.6633 2.83607C26.3853 1.56007 28.3413 0.113069 29.8553 0.00606879C29.9223 0.00606879 29.9893 6.88087e-05 30.0553 6.88087e-05C30.5384 -0.0032148 31.0151 0.11107 31.4443 0.333069C31.6622 0.447186 31.8612 0.59425 32.0343 0.769069C32.2151 0.95254 32.3626 1.16605 32.4703 1.40007C32.6171 1.70993 32.7227 2.03773 32.7843 2.37507C34.223 1.95557 35.7036 1.69567 37.1993 1.60007L37.5573 1.57707C37.8373 1.57107 38.1163 1.56807 38.3873 1.56807C39.3787 1.56515 40.3697 1.61322 41.3563 1.71207C42.1834 1.79566 43.0044 1.93193 43.8143 2.12007C44.4962 2.27985 45.1648 2.4918 45.8143 2.75407C46.3728 2.98011 46.9105 3.25449 47.4213 3.57407C48.2879 4.11639 49.0498 4.81049 49.6703 5.62307C50.2122 6.34414 50.663 7.12942 51.0123 7.96107C51.2699 8.60316 51.4677 9.26764 51.6033 9.94607C51.7404 10.6867 51.7834 11.4417 51.7313 12.1931C51.5702 13.7789 50.9581 15.2854 49.9673 16.5341C49.2851 17.5026 48.439 18.3445 47.4673 19.0221C48.1203 19.739 48.911 20.3172 49.7923 20.7221C50.3284 20.9517 50.8114 21.2894 51.2113 21.7141C51.4193 21.9648 51.5641 22.2617 51.6337 22.5799C51.7033 22.8981 51.6956 23.2284 51.6113 23.5431C51.3724 24.2042 50.986 24.8021 50.4815 25.2914C49.9769 25.7808 49.3674 26.1486 48.6993 26.3671C47.6862 26.8005 46.6128 27.076 45.5163 27.1841C45.3713 27.1941 45.2273 27.1991 45.0883 27.1991C44.0645 27.2063 43.0643 26.8915 42.2293 26.2991C41.2943 25.502 40.5028 24.5506 39.8893 23.4861L39.8833 23.4771C39.7253 23.2381 39.5463 22.9671 39.4303 22.8111C39.3536 22.8017 39.2764 22.7981 39.1993 22.8001C39.1443 22.8001 39.0853 22.8001 39.0233 22.8061C38.4356 22.8681 37.8599 23.0136 37.3133 23.2381C37.4225 23.7878 37.4963 24.3439 37.5343 24.9031C37.5649 25.2877 37.542 25.6747 37.4663 26.0531C37.3209 26.5186 37.0499 26.935 36.683 27.2565C36.3162 27.578 35.8679 27.792 35.3873 27.8751L35.2813 27.8941C34.7578 27.9885 34.2297 28.0552 33.6993 28.0941C33.4463 28.1121 33.1993 28.1211 32.9653 28.1211C31.9611 28.1766 30.9633 27.9304 30.1003 27.4141C29.6855 27.0974 29.3484 26.6904 29.1143 26.2241C28.7714 26.6809 28.353 27.0759 27.8773 27.3921C27.3622 27.7315 26.7993 27.9921 26.2073 28.1651C25.4216 28.4499 24.5939 28.6016 23.7583 28.6141H23.4033C22.1575 28.6288 20.9239 28.3686 19.7903 27.8521ZM19.7903 23.6521C19.9903 23.8901 19.9473 24.1271 19.8793 24.5211C19.8683 24.5831 19.8573 24.6471 19.8463 24.7211C19.7566 25.0869 19.7839 25.4716 19.9243 25.821C20.0648 26.1705 20.3114 26.4671 20.6293 26.6691C21.4972 27.074 22.4479 27.2699 23.4053 27.2411H23.7473C24.4581 27.2445 25.1648 27.1334 25.8403 26.9121C26.3517 26.7889 26.8329 26.5634 27.2546 26.249C27.6764 25.9346 28.0301 25.538 28.2943 25.0831L28.3223 25.0331C28.3729 24.9364 28.4199 24.8364 28.4633 24.7331L28.5013 24.6501C28.7367 24.0226 28.8507 23.3561 28.8373 22.6861L28.8503 22.3461C28.8503 21.9861 28.8553 21.4941 28.8373 20.9231L28.8223 20.4231L29.2983 20.2561C29.8534 20.0803 30.3787 19.8214 30.8563 19.4881C31.5979 19.0683 32.168 18.4007 32.4666 17.6026C32.7652 16.8044 32.7732 15.9266 32.4893 15.1231C32.3595 14.4558 32.0246 13.8457 31.5313 13.3781C31.2085 13.1434 30.8172 13.0218 30.4183 13.0321C29.9561 13.0485 29.4991 13.1355 29.0633 13.2901C28.7414 15.0197 27.7476 16.5514 26.2993 17.5501C24.6876 18.408 22.9051 18.8962 21.0813 18.9791C20.6423 19.0091 20.1813 19.0361 19.6943 19.0521C18.0186 19.0997 16.3425 18.9697 14.6943 18.6641L14.4823 18.6251C13.7081 18.5074 12.9453 18.3241 12.2023 18.0771C11.11 17.7513 10.0867 17.228 9.18326 16.5331C9.11092 16.4758 9.05079 16.4046 9.00642 16.3237C8.96204 16.2428 8.93432 16.1538 8.9249 16.062C8.91547 15.9702 8.92452 15.8774 8.95152 15.7892C8.97851 15.701 9.02291 15.619 9.08209 15.5482C9.14127 15.4774 9.21403 15.4192 9.29608 15.377C9.37813 15.3347 9.46781 15.3094 9.55982 15.3024C9.65183 15.2954 9.74431 15.3069 9.83181 15.3362C9.9193 15.3655 10 15.412 10.0693 15.4731C10.8429 16.0605 11.7177 16.5011 12.6503 16.7731C13.3202 16.9954 14.0081 17.1597 14.7063 17.2641C14.8633 17.2901 14.9653 17.3111 15.0063 17.3231C17.077 17.6495 19.1796 17.7243 21.2683 17.5461C22.6714 17.5672 24.0563 17.2273 25.2903 16.5591C25.4306 16.4837 25.5644 16.3968 25.6903 16.2991C26.2578 15.9053 26.7371 15.3975 27.0974 14.8081C27.4578 14.2187 27.6914 13.5607 27.7833 12.8761C27.7883 12.7631 27.7923 12.6821 27.7923 12.6821C27.9184 10.2939 27.1445 7.94533 25.6233 6.10007C25.2831 5.69976 24.9068 5.33154 24.4993 5.00007C24.2813 4.83807 23.5993 4.34107 23.0593 4.02707C20.6 2.62072 17.8312 1.84434 14.9993 1.76707H14.5623H14.0783C8.39926 1.86707 4.84926 3.80807 2.57126 8.06107C1.79415 9.66442 1.38818 11.4222 1.38351 13.204C1.37883 14.9857 1.77557 16.7457 2.54426 18.3531C3.45993 20.3095 4.98898 21.9137 6.89926 22.9221C8.99646 23.8702 11.2828 24.3258 13.5833 24.2541H13.9493C14.725 24.2402 15.4994 24.1848 16.2693 24.0881C16.8917 23.9911 17.5075 23.8558 18.1133 23.6831C18.3723 23.6151 18.6403 23.5441 18.9383 23.4711C19.0245 23.4561 19.1118 23.4488 19.1993 23.4491C19.3064 23.4403 19.4143 23.4538 19.516 23.4887C19.6177 23.5236 19.7111 23.5793 19.7903 23.6521ZM30.4593 25.7081C30.5717 25.9132 30.7232 26.0942 30.9053 26.2411C31.5332 26.5867 32.247 26.7456 32.9623 26.6991C33.1623 26.6991 33.3803 26.6911 33.6003 26.6761C34.0815 26.6395 34.5605 26.5777 35.0353 26.4911L35.1503 26.4701C35.354 26.4297 35.5449 26.3405 35.7067 26.2103C35.8685 26.08 35.9963 25.9125 36.0793 25.7221C36.1618 24.9395 36.0984 24.1485 35.8923 23.3891C35.8455 23.1079 35.8863 22.8192 36.0093 22.5621L36.0153 22.5541C36.0978 22.3846 36.2242 22.2403 36.3813 22.1361C36.765 21.9087 37.1806 21.7402 37.6143 21.6361C38.0423 21.514 38.4804 21.4303 38.9233 21.3861C39.0233 21.3801 39.1143 21.3761 39.2023 21.3761C39.5095 21.368 39.8154 21.4207 40.1023 21.5311L40.2193 21.5791L40.3123 21.6641C40.6042 21.9828 40.8614 22.3318 41.0793 22.7051C41.6007 23.6019 42.2544 24.415 43.0183 25.1171C43.6214 25.5545 44.3493 25.7863 45.0943 25.7781C45.1993 25.7781 45.3093 25.7781 45.4203 25.7661C46.3641 25.667 47.2878 25.4266 48.1603 25.0531C49.8483 24.3321 50.1733 23.4661 50.2333 23.2191C50.2645 23.1207 50.2712 23.0162 50.2529 22.9146C50.2346 22.813 50.1918 22.7174 50.1283 22.6361C49.8438 22.3657 49.5119 22.1501 49.1493 22.0001C48.0422 21.4795 47.0585 20.7296 46.2633 19.8001C46.1049 19.6177 45.9637 19.4212 45.8413 19.2131L45.4953 18.6241L46.0683 18.2531C47.1477 17.5905 48.0837 16.7187 48.8213 15.6891C49.6463 14.6578 50.1631 13.4143 50.3123 12.1021C50.3932 10.8699 50.1832 9.63606 49.6993 8.50007C48.5083 5.77607 46.2343 2.99107 38.3993 2.99107C38.1433 2.99107 37.8813 2.99107 37.6163 3.00007L37.3013 3.02007C35.6666 3.12834 34.0521 3.44111 32.4953 3.95107L32.4013 3.98007H32.3013H32.2713C31.6853 3.98007 31.5713 3.45207 31.4643 2.98507C31.4043 2.66884 31.3194 2.35787 31.2103 2.05507C31.1036 1.85556 30.9427 1.69027 30.7461 1.57827C30.5495 1.46627 30.3253 1.41212 30.0993 1.42207H30.0063C28.8573 1.50107 26.9213 2.93407 25.5063 3.98007L25.4573 4.01607H25.4693C25.9106 4.38294 26.3185 4.78819 26.6883 5.22707C28.2187 7.08935 29.0943 9.40316 29.1803 11.8121C29.5844 11.7049 30.0002 11.6481 30.4183 11.6431C31.1371 11.6328 31.8384 11.8657 32.4083 12.3041C33.1189 12.9461 33.6108 13.7944 33.8153 14.7301C34.1794 15.8085 34.1637 16.9791 33.7708 18.0474C33.3779 19.1157 32.6314 20.0175 31.6553 20.6031C31.2171 20.9225 30.7373 21.1805 30.2293 21.3701C30.2343 21.7521 30.2293 22.0851 30.2293 22.3501V22.5681C30.2341 23.2579 30.1354 23.9446 29.9363 24.6051C30.0785 24.9871 30.2535 25.3562 30.4593 25.7081ZM23.3993 14.0001H21.9993C21.995 13.4483 22.1982 12.915 22.5687 12.506C22.9391 12.097 23.4497 11.8422 23.9993 11.7921C24.5488 11.8422 25.0594 12.097 25.4299 12.506C25.8003 12.915 26.0035 13.4483 25.9993 14.0001H24.5993C24.5874 13.7559 24.4888 13.524 24.3213 13.3461C24.2804 13.3004 24.231 13.2632 24.1757 13.2368C24.1204 13.2104 24.0604 13.1952 23.9993 13.1921C23.6573 13.1921 23.3993 13.6821 23.3993 13.9991V14.0001ZM17.3993 14.0001H15.9993C15.9931 13.4456 16.1952 12.9091 16.5655 12.4964C16.9358 12.0837 17.4474 11.8249 17.9993 11.7711C18.5512 11.8246 19.063 12.0834 19.4333 12.4961C19.8036 12.9089 20.0056 13.4456 19.9993 14.0001H18.5993C18.5875 13.7459 18.4845 13.5045 18.3093 13.3201C18.2701 13.2758 18.2225 13.2398 18.1693 13.214C18.1161 13.1883 18.0583 13.1733 17.9993 13.1701C17.6683 13.1701 17.3993 13.6701 17.3993 14.0001ZM45.3993 13.1001H43.9993C43.9713 12.8206 44.0022 12.5384 44.0899 12.2716C44.1777 12.0049 44.3204 11.7594 44.5089 11.5512C44.6973 11.3429 44.9273 11.1765 45.184 11.0626C45.4407 10.9487 45.7184 10.8898 45.9993 10.8898C46.2801 10.8898 46.5578 10.9487 46.8145 11.0626C47.0712 11.1765 47.3012 11.3429 47.4897 11.5512C47.6781 11.7594 47.8208 12.0049 47.9086 12.2716C47.9963 12.5384 48.0272 12.8206 47.9993 13.1001H46.5993C46.5878 12.8555 46.4892 12.6232 46.3213 12.4451C46.2807 12.3989 46.2314 12.3613 46.176 12.3345C46.1207 12.3077 46.0606 12.2922 45.9993 12.2891C45.6573 12.2891 45.3993 12.7791 45.3993 13.0961V13.1001ZM39.3993 13.1001H37.9993C37.9931 12.5456 38.1952 12.0091 38.5655 11.5964C38.9358 11.1837 39.4474 10.9249 39.9993 10.8711C40.551 10.9251 41.0625 11.184 41.4328 11.5966C41.803 12.0092 42.0051 12.5457 41.9993 13.1001H40.5993C40.5863 12.8462 40.4835 12.6052 40.3093 12.4201C40.2704 12.3751 40.223 12.3383 40.1698 12.3118C40.1165 12.2854 40.0586 12.2698 39.9993 12.2661C39.6683 12.2661 39.3993 12.7661 39.3993 13.0961V13.1001Z" fill="#573300"/>
</svg>
