<svg width="15" height="13" viewBox="0 0 15 13" fill="none" xmlns="http://www.w3.org/2000/svg">
<g clip-path="url(#clip0_81:30928)">
<path d="M7.5 0C3.35758 0 0 2.7015 0 6.03577C0.0105941 6.74608 0.163706 7.44721 0.450426 8.09836C0.737146 8.74951 1.15175 9.33767 1.6701 9.82863C1.34654 10.8599 0.798486 11.8083 0.0645897 12.607C0.0328415 12.6401 0.0117171 12.6818 0.00389093 12.7267C-0.00393528 12.7717 0.0018886 12.818 0.0206253 12.8597C0.0382929 12.9013 0.0680641 12.9368 0.106148 12.9616C0.144231 12.9864 0.188904 12.9994 0.234477 12.9989C1.73754 12.9736 3.18832 12.4483 4.35356 11.5076C5.36018 11.8813 6.42663 12.072 7.50163 12.0705C11.6441 12.0705 15.0016 9.36897 15.0016 6.0347C15.0016 2.70043 11.6424 0 7.5 0ZM3.75 6.96208C3.56461 6.96208 3.38338 6.90762 3.22923 6.8056C3.07508 6.70358 2.95493 6.55858 2.88399 6.38893C2.81304 6.21927 2.79448 6.03259 2.83065 5.85249C2.86682 5.67239 2.95609 5.50695 3.08718 5.3771C3.21828 5.24726 3.3853 5.15883 3.56713 5.12301C3.74896 5.08718 3.93743 5.10557 4.10871 5.17584C4.27999 5.24611 4.42639 5.36512 4.52939 5.5178C4.63239 5.67048 4.68736 5.84999 4.68736 6.03362C4.68751 6.15559 4.66336 6.27638 4.6163 6.38909C4.56925 6.5018 4.50021 6.60421 4.41314 6.69045C4.32606 6.7767 4.22267 6.84508 4.10888 6.89169C3.99509 6.9383 3.87314 6.96222 3.75 6.96208ZM7.5 6.96208C7.31461 6.96208 7.13338 6.90762 6.97923 6.8056C6.82508 6.70358 6.70493 6.55858 6.63399 6.38893C6.56304 6.21927 6.54448 6.03259 6.58065 5.85249C6.61681 5.67239 6.70609 5.50695 6.83718 5.3771C6.96828 5.24726 7.1353 5.15883 7.31713 5.12301C7.49896 5.08718 7.68743 5.10557 7.85871 5.17584C8.02999 5.24611 8.17639 5.36512 8.27939 5.5178C8.38239 5.67048 8.43736 5.84999 8.43736 6.03362C8.43751 6.15559 8.41336 6.27638 8.3663 6.38909C8.31925 6.5018 8.25021 6.60421 8.16313 6.69045C8.07606 6.7767 7.97267 6.84508 7.85888 6.89169C7.74509 6.9383 7.62314 6.96222 7.5 6.96208ZM11.25 6.96208C11.0646 6.96208 10.8834 6.90762 10.7292 6.8056C10.5751 6.70358 10.4549 6.55858 10.384 6.38893C10.313 6.21927 10.2945 6.03259 10.3306 5.85249C10.3668 5.67239 10.4561 5.50695 10.5872 5.3771C10.7183 5.24726 10.8853 5.15883 11.0671 5.12301C11.249 5.08718 11.4374 5.10557 11.6087 5.17584C11.78 5.24611 11.9264 5.36512 12.0294 5.5178C12.1324 5.67048 12.1874 5.84999 12.1874 6.03362C12.1875 6.15559 12.1634 6.27638 12.1163 6.38909C12.0692 6.5018 12.0002 6.60421 11.9131 6.69045C11.8261 6.7767 11.7227 6.84508 11.6089 6.89169C11.4951 6.9383 11.3731 6.96222 11.25 6.96208Z" fill="#573300"/>
</g>
<defs>
<clipPath id="clip0_81:30928">
<rect width="15" height="13" fill="white"/>
</clipPath>
</defs>
</svg>
