<svg width="34" height="34" viewBox="0 0 34 34" fill="none" xmlns="http://www.w3.org/2000/svg">
<path d="M28.5104 17H24.0833V13.4583C24.0833 11.5048 25.6715 9.91663 27.625 9.91663H28.0677C28.8037 9.91663 29.3958 9.3245 29.3958 8.5885V5.93225C29.3958 5.19625 28.8037 4.60413 28.0677 4.60413H27.625C22.7331 4.60413 18.7708 8.56637 18.7708 13.4583V26.7395C18.7708 28.206 19.9606 29.3958 21.4271 29.3958H28.5104C29.9769 29.3958 31.1666 28.206 31.1666 26.7395V19.6562C31.1666 18.1897 29.9769 17 28.5104 17ZM12.5729 17H8.14581V13.4583C8.14581 11.5048 9.73403 9.91663 11.6875 9.91663H12.1302C12.8662 9.91663 13.4583 9.3245 13.4583 8.5885V5.93225C13.4583 5.19625 12.8662 4.60413 12.1302 4.60413H11.6875C6.79555 4.60413 2.83331 8.56637 2.83331 13.4583V26.7395C2.83331 28.206 4.02309 29.3958 5.48956 29.3958H12.5729C14.0394 29.3958 15.2291 28.206 15.2291 26.7395V19.6562C15.2291 18.1897 14.0394 17 12.5729 17Z" fill="#573300"/>
</svg>
