<svg width="18" height="12" viewBox="0 0 18 12" fill="none" xmlns="http://www.w3.org/2000/svg">
<path d="M11.976 4.8C12.4507 4.8 12.9147 4.65924 13.3094 4.39553C13.704 4.13181 14.0117 3.75698 14.1933 3.31844C14.375 2.8799 14.4225 2.39734 14.3299 1.93178C14.2373 1.46623 14.0087 1.03859 13.6731 0.702945C13.3374 0.367299 12.9098 0.138721 12.4442 0.0461164C11.9787 -0.0464881 11.4961 0.00103988 11.0576 0.18269C10.619 0.364341 10.2442 0.671955 9.98047 1.06663C9.71676 1.46131 9.576 1.92533 9.576 2.4C9.57401 2.71573 9.63473 3.02871 9.75463 3.32079C9.87454 3.61287 10.0512 3.87824 10.2745 4.1015C10.4978 4.32476 10.7631 4.50146 11.0552 4.62137C11.3473 4.74128 11.6603 4.80199 11.976 4.8ZM5.589 4.8C6.06368 4.8 6.52769 4.65924 6.92237 4.39553C7.31705 4.13181 7.62466 3.75698 7.80631 3.31844C7.98796 2.8799 8.03549 2.39734 7.94288 1.93178C7.85028 1.46623 7.6217 1.03859 7.28606 0.702945C6.95041 0.367299 6.52277 0.138721 6.05722 0.0461164C5.59166 -0.0464881 5.1091 0.00103988 4.67056 0.18269C4.23202 0.364341 3.85719 0.671955 3.59347 1.06663C3.32976 1.46131 3.189 1.92533 3.189 2.4C3.18701 2.71573 3.24773 3.02871 3.36763 3.32079C3.48754 3.61287 3.66424 3.87824 3.8875 4.1015C4.11076 4.32476 4.37613 4.50146 4.66821 4.62137C4.96029 4.74128 5.27327 4.80199 5.589 4.8ZM5.589 6.4C3.729 6.4 0 7.334 0 9.194V11.194H11.178V9.194C11.178 7.33 7.449 6.396 5.589 6.396V6.4ZM11.976 6.4C11.744 6.4 11.476 6.416 11.202 6.44C11.6703 6.73474 12.0587 7.14027 12.3331 7.62076C12.6074 8.10126 12.7592 8.64193 12.775 9.195V11.195H17.566V9.195C17.565 7.33 13.837 6.396 11.976 6.396V6.4Z" fill="black"/>
</svg>
