<svg width="93" height="32" viewBox="0 0 93 32" fill="none" xmlns="http://www.w3.org/2000/svg">
<g clip-path="url(#clip0_81:30904)">
<path d="M66.3579 7.68278H68.1179C68.4779 7.69612 68.6979 7.78945 68.7779 7.96278C68.8446 8.08945 68.8779 8.27612 68.8779 8.52278V10.7228C68.8779 10.9361 68.7846 11.1394 68.5979 11.3328C68.0379 11.9128 67.1979 12.2028 66.0779 12.2028C65.0846 12.2028 64.2213 11.8294 63.4879 11.0828C62.7546 10.3294 62.3879 9.42278 62.3879 8.36278C62.3879 7.30278 62.7613 6.41945 63.5079 5.71278C64.2546 4.99945 65.1346 4.64278 66.1479 4.64278C66.9346 4.64278 67.6779 4.90278 68.3779 5.42278C68.5579 5.55612 68.6479 5.70612 68.6479 5.87278C68.6479 6.03278 68.5713 6.21945 68.4179 6.43278C68.1579 6.78612 67.9213 6.96278 67.7079 6.96278C67.5813 6.96278 67.3779 6.87278 67.0979 6.69278C66.8179 6.50612 66.4846 6.41278 66.0979 6.41278C65.5913 6.41278 65.1413 6.59278 64.7479 6.95278C64.3546 7.30612 64.1579 7.77278 64.1579 8.35278C64.1579 8.92612 64.3579 9.41612 64.7579 9.82278C65.1579 10.2228 65.6113 10.4228 66.1179 10.4228C66.4846 10.4228 66.8146 10.3628 67.1079 10.2428V9.15278H66.3179C66.1113 9.15278 65.9646 9.12612 65.8779 9.07278C65.7913 9.01945 65.7346 8.94278 65.7079 8.84278C65.6813 8.73612 65.6679 8.59612 65.6679 8.42278C65.6679 8.24278 65.6813 8.09945 65.7079 7.99278C65.7413 7.88612 65.7979 7.81278 65.8779 7.77278C65.9979 7.71278 66.1579 7.68278 66.3579 7.68278ZM73.1166 4.68278C74.1033 4.68278 74.9599 5.03945 75.6866 5.75278C76.4133 6.46612 76.7766 7.35278 76.7766 8.41278C76.7766 9.46612 76.4299 10.3661 75.7366 11.1128C75.0433 11.8528 74.1899 12.2228 73.1766 12.2228C72.1633 12.2228 71.2999 11.8561 70.5866 11.1228C69.8799 10.3894 69.5266 9.51612 69.5266 8.50278C69.5266 7.94945 69.6266 7.43278 69.8266 6.95278C70.0266 6.46612 70.2933 6.05945 70.6266 5.73278C70.9599 5.40612 71.3433 5.14945 71.7766 4.96278C72.2099 4.77612 72.6566 4.68278 73.1166 4.68278ZM71.2966 8.45278C71.2966 9.04612 71.4866 9.52945 71.8666 9.90278C72.2533 10.2694 72.6833 10.4528 73.1566 10.4528C73.6299 10.4528 74.0566 10.2728 74.4366 9.91278C74.8166 9.55278 75.0066 9.06945 75.0066 8.46278C75.0066 7.85612 74.8133 7.36945 74.4266 7.00278C74.0466 6.63612 73.6199 6.45278 73.1466 6.45278C72.6733 6.45278 72.2466 6.63945 71.8666 7.01278C71.4866 7.37945 71.2966 7.85945 71.2966 8.45278ZM80.8705 4.68278C81.8572 4.68278 82.7139 5.03945 83.4405 5.75278C84.1672 6.46612 84.5305 7.35278 84.5305 8.41278C84.5305 9.46612 84.1839 10.3661 83.4905 11.1128C82.7972 11.8528 81.9439 12.2228 80.9305 12.2228C79.9172 12.2228 79.0539 11.8561 78.3405 11.1228C77.6339 10.3894 77.2805 9.51612 77.2805 8.50278C77.2805 7.94945 77.3805 7.43278 77.5805 6.95278C77.7805 6.46612 78.0472 6.05945 78.3805 5.73278C78.7139 5.40612 79.0972 5.14945 79.5305 4.96278C79.9639 4.77612 80.4105 4.68278 80.8705 4.68278ZM79.0505 8.45278C79.0505 9.04612 79.2405 9.52945 79.6205 9.90278C80.0072 10.2694 80.4372 10.4528 80.9105 10.4528C81.3839 10.4528 81.8105 10.2728 82.1905 9.91278C82.5705 9.55278 82.7605 9.06945 82.7605 8.46278C82.7605 7.85612 82.5672 7.36945 82.1805 7.00278C81.8005 6.63612 81.3739 6.45278 80.9005 6.45278C80.4272 6.45278 80.0005 6.63945 79.6205 7.01278C79.2405 7.37945 79.0505 7.85945 79.0505 8.45278ZM86.0744 4.76278L87.9244 4.77278C88.8911 4.77278 89.7411 5.12278 90.4744 5.82278C91.2078 6.51612 91.5744 7.37278 91.5744 8.39278C91.5744 9.40612 91.2144 10.2761 90.4944 11.0028C89.7811 11.7294 88.9144 12.0928 87.8944 12.0928H86.0644C85.6578 12.0928 85.4044 12.0094 85.3044 11.8428C85.2244 11.7028 85.1844 11.4894 85.1844 11.2028V5.64278C85.1844 5.48278 85.1878 5.36612 85.1944 5.29278C85.2078 5.21945 85.2411 5.13278 85.2944 5.03278C85.3878 4.85278 85.6478 4.76278 86.0744 4.76278ZM87.9244 10.3228C88.4044 10.3228 88.8378 10.1461 89.2244 9.79278C89.6111 9.43278 89.8044 8.98278 89.8044 8.44278C89.8044 7.90278 89.6144 7.45278 89.2344 7.09278C88.8611 6.72612 88.4211 6.54278 87.9144 6.54278H86.9544V10.3228H87.9244Z" fill="#573300"/>
<path d="M68.809 22.9167C68.909 23.1567 68.959 23.3301 68.959 23.4367C68.959 23.6901 68.7523 23.9034 68.339 24.0767C68.1256 24.1701 67.9523 24.2167 67.819 24.2167C67.6923 24.2167 67.5856 24.1867 67.499 24.1267C67.419 24.0601 67.359 23.9934 67.319 23.9267C67.2523 23.8001 66.9923 23.1967 66.539 22.1167L66.229 22.1367H64.969V23.2667C64.969 23.4201 64.9623 23.5367 64.949 23.6167C64.9423 23.6901 64.9123 23.7767 64.859 23.8767C64.7656 24.0567 64.5056 24.1467 64.079 24.1467C63.6123 24.1467 63.339 24.0234 63.259 23.7767C63.219 23.6634 63.199 23.4901 63.199 23.2567V17.7067C63.199 17.5534 63.2023 17.4401 63.209 17.3667C63.2223 17.2867 63.2556 17.1967 63.309 17.0967C63.4023 16.9167 63.6623 16.8267 64.089 16.8267H66.249C66.8356 16.8267 67.4056 17.0401 67.959 17.4667C68.2256 17.6734 68.4456 17.9534 68.619 18.3067C68.7923 18.6601 68.879 19.0534 68.879 19.4867C68.879 20.2401 68.629 20.8601 68.129 21.3467C68.2756 21.7001 68.5023 22.2234 68.809 22.9167ZM64.969 20.3667H66.249C66.4423 20.3667 66.6356 20.2934 66.829 20.1467C67.0223 20.0001 67.119 19.7801 67.119 19.4867C67.119 19.1934 67.0223 18.9734 66.829 18.8267C66.6356 18.6734 66.4356 18.5967 66.229 18.5967H64.969V20.3667ZM72.8499 16.7367C73.8366 16.7367 74.6932 17.0934 75.4199 17.8067C76.1466 18.5201 76.5099 19.4067 76.5099 20.4667C76.5099 21.5201 76.1632 22.4201 75.4699 23.1667C74.7766 23.9067 73.9232 24.2767 72.9099 24.2767C71.8966 24.2767 71.0332 23.9101 70.3199 23.1767C69.6132 22.4434 69.2599 21.5701 69.2599 20.5567C69.2599 20.0034 69.3599 19.4867 69.5599 19.0067C69.7599 18.5201 70.0266 18.1134 70.3599 17.7867C70.6932 17.4601 71.0766 17.2034 71.5099 17.0167C71.9432 16.8301 72.3899 16.7367 72.8499 16.7367ZM71.0299 20.5067C71.0299 21.1001 71.2199 21.5834 71.5999 21.9567C71.9866 22.3234 72.4166 22.5067 72.8899 22.5067C73.3632 22.5067 73.7899 22.3267 74.1699 21.9667C74.5499 21.6067 74.7399 21.1234 74.7399 20.5167C74.7399 19.9101 74.5466 19.4234 74.1599 19.0567C73.7799 18.6901 73.3532 18.5067 72.8799 18.5067C72.4066 18.5067 71.9799 18.6934 71.5999 19.0667C71.2199 19.4334 71.0299 19.9134 71.0299 20.5067ZM80.8957 17.3467L83.5957 22.9267C83.7091 23.1534 83.7657 23.3234 83.7657 23.4367C83.7657 23.6767 83.5724 23.8934 83.1857 24.0867C82.9591 24.2001 82.7791 24.2567 82.6457 24.2567C82.5191 24.2567 82.4124 24.2267 82.3257 24.1667C82.2457 24.1067 82.1857 24.0434 82.1457 23.9767C82.1124 23.9101 82.0624 23.8101 81.9957 23.6767L81.4757 22.5967H78.7057L78.1857 23.6767C78.1191 23.8101 78.0657 23.9067 78.0257 23.9667C77.9924 24.0267 77.9324 24.0901 77.8457 24.1567C77.7657 24.2167 77.6591 24.2467 77.5257 24.2467C77.3991 24.2467 77.2224 24.1901 76.9957 24.0767C76.6091 23.8901 76.4157 23.6767 76.4157 23.4367C76.4157 23.3234 76.4724 23.1534 76.5857 22.9267L79.2857 17.3367C79.3591 17.1834 79.4691 17.0601 79.6157 16.9667C79.7691 16.8734 79.9291 16.8267 80.0957 16.8267C80.4557 16.8267 80.7224 17.0001 80.8957 17.3467ZM80.0857 19.7467L79.4257 21.1167H80.7557L80.0857 19.7467ZM85.2022 16.8167L87.0522 16.8267C88.0189 16.8267 88.8689 17.1767 89.6022 17.8767C90.3356 18.5701 90.7022 19.4267 90.7022 20.4467C90.7022 21.4601 90.3422 22.3301 89.6222 23.0567C88.9089 23.7834 88.0422 24.1467 87.0222 24.1467H85.1922C84.7856 24.1467 84.5322 24.0634 84.4322 23.8967C84.3522 23.7567 84.3122 23.5434 84.3122 23.2567V17.6967C84.3122 17.5367 84.3156 17.4201 84.3222 17.3467C84.3356 17.2734 84.3689 17.1867 84.4222 17.0867C84.5156 16.9067 84.7756 16.8167 85.2022 16.8167ZM87.0522 22.3767C87.5322 22.3767 87.9656 22.2001 88.3522 21.8467C88.7389 21.4867 88.9322 21.0367 88.9322 20.4967C88.9322 19.9567 88.7422 19.5067 88.3622 19.1467C87.9889 18.7801 87.5489 18.5967 87.0422 18.5967H86.0822V22.3767H87.0522Z" fill="#573300"/>
<path d="M25.9 31.6721C24.5205 31.6871 23.1547 31.3976 21.9 30.8241C21.3559 30.5584 20.9188 30.1149 20.661 29.5671C20.5259 29.2869 20.4278 28.9905 20.369 28.6851C20.3061 28.3589 20.2776 28.0271 20.284 27.6951L20.176 27.7221C19.551 27.8761 18.906 28.0361 18.203 28.1701C17.2943 28.286 16.3799 28.3528 15.464 28.3701H15.031C12.2284 28.4578 9.44397 27.8894 6.90001 26.7101C4.4991 25.4401 2.57794 23.4217 1.42801 20.9611C0.622439 19.2231 0.146702 17.3507 0.0250106 15.4391C-0.0429962 14.2882 0.0298772 13.1333 0.242011 12.0001C0.490826 10.6959 0.907982 9.42969 1.48301 8.23305C2.7018 5.78593 4.61759 3.75427 6.98901 2.39405C9.63651 1.04283 12.5773 0.367762 15.549 0.429052H16.111H16.648C18.7278 0.522774 20.7855 0.89544 22.766 1.53705C24.1977 2.00546 25.5623 2.65864 26.825 3.48005C26.859 3.45505 26.895 3.43105 26.932 3.40805L27.291 3.14105C29.2 1.72705 31.366 0.124052 33.042 0.00705229C33.116 0.00705229 33.191 5.22868e-05 33.265 5.22868e-05C33.799 -0.00295342 34.3257 0.12367 34.8 0.369052C35.0408 0.495268 35.2607 0.657843 35.452 0.851052C35.652 1.05451 35.8148 1.29142 35.933 1.55105C36.096 1.89347 36.2131 2.25594 36.281 2.62905C37.8731 2.16588 39.5113 1.87883 41.166 1.77305L41.566 1.74805C41.876 1.74105 42.184 1.73705 42.484 1.73705C43.5814 1.73373 44.6782 1.78714 45.77 1.89705C46.6857 1.98921 47.5946 2.13985 48.491 2.34805C49.2472 2.52416 49.9887 2.75818 50.709 3.04805C51.327 3.29828 51.922 3.6021 52.487 3.95605C53.4467 4.5561 54.2902 5.32441 54.977 6.22405C55.576 7.02237 56.0741 7.89162 56.46 8.81205C56.7451 9.52375 56.964 10.2602 57.114 11.0121C57.2658 11.8318 57.3135 12.6674 57.256 13.4991C57.0755 15.2532 56.3967 16.9191 55.3 18.3001C54.5456 19.371 53.6102 20.3023 52.536 21.0521C53.2583 21.8474 54.1333 22.4892 55.109 22.9391C55.7029 23.1936 56.2377 23.5681 56.68 24.0391C56.9098 24.3167 57.0697 24.6453 57.1464 24.9975C57.2232 25.3496 57.2144 25.715 57.121 26.0631C56.8554 26.794 56.4267 27.4549 55.8676 27.9955C55.3084 28.536 54.6335 28.9422 53.894 29.1831C52.7726 29.6615 51.5845 29.965 50.371 30.0831C50.211 30.0941 50.052 30.1001 49.897 30.1001C48.764 30.1093 47.6567 29.7619 46.732 29.1071C45.6994 28.2265 44.8251 27.1756 44.147 26.0001L44.141 25.9911C43.966 25.7261 43.767 25.4261 43.641 25.2541C43.5569 25.2419 43.472 25.2362 43.387 25.2371C43.326 25.2371 43.26 25.2371 43.187 25.2441C42.5369 25.3129 41.8998 25.4739 41.295 25.7221C41.4159 26.3305 41.4974 26.9461 41.539 27.5651C41.573 27.9905 41.5475 28.4187 41.463 28.8371C41.302 29.3522 41.0022 29.8129 40.5965 30.1688C40.1907 30.5246 39.6947 30.7617 39.163 30.8541L39.046 30.8741C38.4668 30.9803 37.8823 31.0558 37.295 31.1001C37.015 31.1201 36.742 31.1291 36.483 31.1291C35.3716 31.1899 34.2673 30.9173 33.312 30.3461C32.8536 29.9953 32.4809 29.545 32.222 29.0291C31.842 29.5349 31.3787 29.9724 30.852 30.3231C30.282 30.6986 29.6591 30.9871 29.004 31.1791C28.1347 31.4951 27.2189 31.6641 26.294 31.6791L25.9 31.6721ZM21.248 25.9471C21.3665 25.9381 21.4856 25.9537 21.5978 25.993C21.71 26.0322 21.8129 26.0942 21.9 26.1751C22.119 26.4381 22.074 26.7021 22 27.1381C21.988 27.2071 21.976 27.2771 21.964 27.3541C21.8636 27.759 21.8933 28.1852 22.0487 28.5724C22.2041 28.9595 22.4775 29.2879 22.83 29.5111C23.7909 29.9591 24.8433 30.1759 25.903 30.1441H26.282C27.0686 30.1485 27.8507 30.0256 28.598 29.7801C29.236 29.632 29.8305 29.3367 30.334 28.9179C30.8375 28.4991 31.2362 27.9684 31.498 27.3681C31.582 27.1861 31.675 26.9831 31.774 26.7681C31.8202 26.6632 31.896 26.5741 31.9921 26.5118C32.0882 26.4494 32.2004 26.4165 32.315 26.4171H32.343C32.4206 26.4123 32.4982 26.4245 32.5706 26.4529C32.6429 26.4812 32.7083 26.5249 32.762 26.5811C32.9138 26.7708 33.0371 26.9817 33.128 27.2071V27.2201C33.2863 27.6476 33.4817 28.0605 33.712 28.4541C33.8361 28.6811 34.0036 28.8816 34.205 29.0441C34.9 29.4273 35.6901 29.6035 36.482 29.5521C36.706 29.5521 36.944 29.5431 37.189 29.5261C37.7216 29.4854 38.2517 29.4166 38.777 29.3201L38.905 29.2981C39.1305 29.2533 39.3418 29.1547 39.5208 29.0105C39.6999 28.8663 39.8413 28.6808 39.933 28.4701C40.0243 27.6043 39.9541 26.7292 39.726 25.8891C39.6737 25.5777 39.7188 25.2578 39.855 24.9731L39.862 24.9641C39.9536 24.7765 40.0938 24.6169 40.268 24.5021C40.6924 24.2509 41.1523 24.0652 41.632 23.9511C42.1061 23.8155 42.5914 23.7228 43.082 23.6741C43.188 23.6671 43.292 23.6631 43.391 23.6631C43.7297 23.6549 44.0666 23.713 44.383 23.8341L44.512 23.8871L44.612 23.9811C44.9348 24.3344 45.2194 24.7209 45.461 25.1341C46.0378 26.1271 46.7613 27.0272 47.607 27.8041C48.2752 28.2886 49.0817 28.545 49.907 28.5351C50.024 28.5351 50.145 28.5351 50.268 28.5221C51.3125 28.4125 52.3346 28.1465 53.3 27.7331C55.169 26.9331 55.529 25.9771 55.594 25.7031C55.6286 25.5942 55.6361 25.4784 55.6157 25.366C55.5953 25.2536 55.5477 25.1478 55.477 25.0581C55.1633 24.7583 54.7968 24.5193 54.396 24.3531C53.1702 23.777 52.0808 22.947 51.2 21.9181C51.0248 21.7161 50.8685 21.4985 50.733 21.2681L50.35 20.6171L50.984 20.2071C52.1786 19.4739 53.2146 18.5093 54.031 17.3701C54.9439 16.2281 55.5159 14.8517 55.681 13.3991C55.77 12.0344 55.5367 10.6679 55 9.41005C53.682 6.39505 51.165 3.31005 42.491 3.31005C42.209 3.31005 41.917 3.31005 41.624 3.32005L41.276 3.34205C39.4669 3.4613 37.6799 3.80735 35.957 4.37205L35.857 4.40405H35.749H35.716C35.068 4.40405 34.938 3.81905 34.823 3.30405C34.7563 2.95459 34.6623 2.61088 34.542 2.27605C34.4244 2.05504 34.2465 1.87194 34.0289 1.74803C33.8114 1.62412 33.5631 1.56449 33.313 1.57605C33.279 1.57605 33.244 1.57605 33.213 1.57605C31.94 1.66405 29.798 3.24905 28.233 4.40705L28.155 4.46405C27.8028 4.80952 27.4813 5.18493 27.194 5.58605C27.185 5.57905 26.244 4.86805 25.523 4.45105C22.8004 2.89448 19.735 2.03564 16.6 1.95105H16.115H15.58C9.29301 2.06605 5.36701 4.21505 2.84601 8.92205C1.98593 10.6964 1.53661 12.6418 1.53142 14.6136C1.52623 16.5855 1.96529 18.5332 2.81601 20.3121C3.82987 22.4769 5.5221 24.2519 7.63601 25.3681C9.95793 26.4175 12.4892 26.9217 15.036 26.8421H15.442C16.3004 26.827 17.1573 26.7656 18.009 26.6581C18.6983 26.5512 19.3803 26.4016 20.051 26.2101C20.338 26.135 20.634 26.0571 20.964 25.9761C21.0586 25.958 21.1547 25.9483 21.251 25.9471H21.248Z" fill="#573300"/>
<path d="M44.3771 12.0491C44.3771 11.3874 43.8409 10.8511 43.1796 10.8511C42.5182 10.8511 41.9821 11.3874 41.9821 12.0491V15.5841C41.9821 16.2457 42.5182 16.7821 43.1796 16.7821C43.8409 16.7821 44.3771 16.2457 44.3771 15.5841V12.0491Z" fill="#573300"/>
<path d="M50.878 12.0491C50.878 11.3874 50.3419 10.8511 49.6805 10.8511C49.0192 10.8511 48.483 11.3874 48.483 12.0491V15.5841C48.483 16.2457 49.0192 16.7821 49.6805 16.7821C50.3419 16.7821 50.878 16.2457 50.878 15.5841V12.0491Z" fill="#573300"/>
<path d="M31.314 27.7551C31.7379 26.9364 31.9445 26.0225 31.914 25.1011L31.928 24.7251C31.928 24.3251 31.934 23.7811 31.914 23.1501L31.897 22.5911L32.424 22.4051C33.0382 22.2108 33.6195 21.9246 34.148 21.5561C34.9684 21.0911 35.599 20.3522 35.9292 19.4689C36.2594 18.5856 36.2682 17.6142 35.954 16.7251C35.8111 15.9865 35.4404 15.3112 34.894 14.7941C34.5367 14.5342 34.1036 14.3996 33.662 14.4111C33.0584 14.4382 32.4633 14.5636 31.9 14.7821L31.832 14.8051L31.593 14.8931C31.593 14.8931 31.145 15.0821 31.049 15.1101C31.0077 15.1265 30.9629 15.1316 30.919 15.125C30.8751 15.1183 30.8338 15.1001 30.7993 15.0722C30.7648 15.0444 30.7383 15.0078 30.7226 14.9663C30.7069 14.9248 30.7026 14.8798 30.71 14.8361C30.729 14.5631 30.753 14.0361 30.753 14.0361C30.8906 11.3957 30.0344 8.79951 28.353 6.75907C27.8238 6.13691 27.2214 5.58089 26.559 5.10307L28.183 4.44507C28.6711 4.85094 29.1222 5.29937 29.531 5.78507C31.2245 7.84628 32.1936 10.407 32.289 13.0731C32.736 12.9538 33.1963 12.8906 33.659 12.8851C34.4539 12.8749 35.229 13.1332 35.859 13.6181C36.645 14.3289 37.1891 15.2677 37.415 16.3031C37.8181 17.4966 37.8009 18.7921 37.3661 19.9745C36.9314 21.1569 36.1053 22.155 35.025 22.8031C34.54 23.1564 34.0091 23.442 33.447 23.6521C33.453 24.0751 33.447 24.4431 33.447 24.7361V24.9771C33.4531 25.792 33.3272 26.6025 33.074 27.3771L31.323 27.8541L31.314 27.7551Z" fill="#573300"/>
<path d="M19.398 10.175C19.7019 10.175 19.9934 10.2958 20.2083 10.5107C20.4232 10.7256 20.544 11.0171 20.544 11.321V14.704C20.544 15.008 20.4232 15.2995 20.2083 15.5144C19.9934 15.7293 19.7019 15.85 19.398 15.85C19.094 15.85 18.8025 15.7293 18.5876 15.5144C18.3727 15.2995 18.252 15.008 18.252 14.704V11.321C18.252 11.0171 18.3727 10.7256 18.5876 10.5107C18.8025 10.2958 19.094 10.175 19.398 10.175V10.175Z" fill="#573300"/>
<path d="M25.619 10.175C25.923 10.175 26.2145 10.2958 26.4294 10.5107C26.6443 10.7256 26.765 11.0171 26.765 11.321V14.704C26.765 15.008 26.6443 15.2995 26.4294 15.5144C26.2145 15.7293 25.923 15.85 25.619 15.85C25.3151 15.85 25.0236 15.7293 24.8087 15.5144C24.5938 15.2995 24.473 15.008 24.473 14.704V11.321C24.473 11.0171 24.5938 10.7256 24.8087 10.5107C25.0236 10.2958 25.3151 10.175 25.619 10.175V10.175Z" fill="#573300"/>
<path d="M21.7912 21.0814C19.9385 21.1338 18.0854 20.9899 16.2629 20.652L16.0294 20.6091C15.1732 20.4788 14.3295 20.2762 13.5076 20.0033C12.299 19.6439 11.1667 19.0655 10.1671 18.2969C10.0116 18.1671 9.91402 17.9808 9.89588 17.779C9.87775 17.5773 9.9405 17.3766 10.0703 17.2211C10.2002 17.0656 10.3865 16.968 10.5882 16.9499C10.79 16.9318 10.9907 16.9945 11.1462 17.1244C12.0025 17.7732 12.9705 18.2597 14.0021 18.5597C14.7434 18.8053 15.5044 18.9872 16.2767 19.1031C16.4497 19.1311 16.5626 19.1551 16.604 19.1667C18.895 19.5277 21.2213 19.6104 23.5322 19.413C25.0846 19.4361 26.6168 19.0597 27.9819 18.3199C28.1367 18.2366 28.2842 18.1404 28.4229 18.0324C29.0834 17.5626 29.6367 16.9579 30.0462 16.2583C30.4556 15.5588 30.712 14.7803 30.7983 13.9743C31.0136 13.0666 31.0759 13.3314 31.492 13.3329C31.6936 13.3328 31.8871 13.4128 32.0299 13.5552C32.1727 13.6975 32.2532 13.8907 32.2538 14.0924C32.2583 14.2212 31.8241 17.7592 29.0966 19.4191C27.3137 20.3686 25.3417 20.9092 23.3238 21.0017C22.8397 21.0327 22.3307 21.0625 21.7912 21.0814Z" fill="#573300"/>
</g>
<defs>
<clipPath id="clip0_81:30904">
<rect width="92.798" height="31.672" fill="white"/>
</clipPath>
</defs>
</svg>
