<svg width="24" height="24" viewBox="0 0 24 24" fill="none" xmlns="http://www.w3.org/2000/svg">
<path d="M10.484 0C12.5575 0 14.5845 0.614876 16.3086 1.76687C18.0327 2.91887 19.3764 4.55625 20.17 6.47195C20.9635 8.38765 21.1711 10.4956 20.7666 12.5293C20.362 14.563 19.3635 16.4311 17.8973 17.8973C16.4311 19.3635 14.563 20.362 12.5293 20.7666C10.4956 21.1711 8.38765 20.9635 6.47195 20.17C4.55625 19.3764 2.91887 18.0327 1.76687 16.3086C0.614876 14.5845 0 12.5575 0 10.484C0.0042318 7.70477 1.11015 5.04058 3.07537 3.07537C5.04058 1.11015 7.70477 0.0042318 10.484 0ZM10.484 17.969C11.9642 17.969 13.4111 17.5301 14.6418 16.7078C15.8725 15.8855 16.8317 14.7167 17.3982 13.3492C17.9647 11.9818 18.113 10.477 17.8243 9.02531C17.5356 7.57359 16.8229 6.24006 15.7763 5.19337C14.7298 4.14667 13.3964 3.43381 11.9447 3.14493C10.493 2.85604 8.98823 3.00411 7.62069 3.5704C6.25315 4.13669 5.08424 5.09578 4.26177 6.32638C3.43929 7.55699 3.0002 9.00385 3 10.484C3.00212 12.4683 3.79126 14.3708 5.19429 15.774C6.59733 17.1772 8.49968 17.9666 10.484 17.969Z" fill="#573300"/>
<path d="M21.715 23.2149C21.518 23.215 21.3228 23.1763 21.1408 23.101C20.9588 23.0257 20.7933 22.9152 20.654 22.7759L15.769 17.8909C15.4957 17.608 15.3445 17.2291 15.348 16.8358C15.3514 16.4425 15.5091 16.0663 15.7872 15.7882C16.0654 15.5101 16.4416 15.3524 16.8349 15.3489C17.2282 15.3455 17.6071 15.4967 17.89 15.7699L22.776 20.6549C22.9855 20.8648 23.1282 21.132 23.1859 21.4229C23.2437 21.7138 23.2139 22.0153 23.1004 22.2893C22.9868 22.5632 22.7946 22.7974 22.548 22.9621C22.3014 23.1269 22.0115 23.2149 21.715 23.2149Z" fill="#573300"/>
</svg>
