<svg width="34" height="34" viewBox="0 0 34 34" fill="none" xmlns="http://www.w3.org/2000/svg">
<path d="M28.5104 4.60413H21.4271C19.9606 4.60413 18.7708 5.7939 18.7708 7.26038V14.3437C18.7708 15.8102 19.9606 17 21.4271 17H25.8542V20.5416C25.8542 22.4951 24.2659 24.0833 22.3125 24.0833H21.8698C21.1338 24.0833 20.5417 24.6754 20.5417 25.4114V28.0677C20.5417 28.8037 21.1338 29.3958 21.8698 29.3958H22.3125C27.2044 29.3958 31.1667 25.4335 31.1667 20.5416V7.26038C31.1667 5.7939 29.9769 4.60413 28.5104 4.60413ZM12.5729 4.60413H5.48958C4.02311 4.60413 2.83333 5.7939 2.83333 7.26038V14.3437C2.83333 15.8102 4.02311 17 5.48958 17H9.91666V20.5416C9.91666 22.4951 8.32845 24.0833 6.37499 24.0833H5.93229C5.19628 24.0833 4.60416 24.6754 4.60416 25.4114V28.0677C4.60416 28.8037 5.19628 29.3958 5.93229 29.3958H6.37499C11.2669 29.3958 15.2292 25.4335 15.2292 20.5416V7.26038C15.2292 5.7939 14.0394 4.60413 12.5729 4.60413Z" fill="#573300"/>
</svg>
