<svg width="18" height="18" viewBox="0 0 18 18" fill="none" xmlns="http://www.w3.org/2000/svg">
<path d="M9 9C11.0713 9 12.75 7.32129 12.75 5.25C12.75 3.17871 11.0713 1.5 9 1.5C6.92871 1.5 5.25 3.17871 5.25 5.25C5.25 7.32129 6.92871 9 9 9ZM11.625 9.9375H11.1357C10.4854 10.2363 9.76172 10.4062 9 10.4062C8.23828 10.4062 7.51758 10.2363 6.86426 9.9375H6.375C4.20117 9.9375 2.4375 11.7012 2.4375 13.875V15.0938C2.4375 15.8701 3.06738 16.5 3.84375 16.5H14.1562C14.9326 16.5 15.5625 15.8701 15.5625 15.0938V13.875C15.5625 11.7012 13.7988 9.9375 11.625 9.9375Z" fill="#573300"/>
</svg>
