<svg width="50" height="49" viewBox="0 0 50 49" fill="none" xmlns="http://www.w3.org/2000/svg">
<g filter="url(#filter0_d_81_30498)">
<path d="M22.5 6H21.5C12.9396 6 6 12.9396 6 21.5C6 30.0604 12.9396 37 21.5 37H22.5C31.0604 37 38 30.0604 38 21.5C38 12.9396 31.0604 6 22.5 6Z" fill="white"/>
</g>
<path d="M28.733 16.4651C27.8642 15.7627 26.7607 15.4172 25.6465 15.4985C24.5322 15.5798 23.4906 16.082 22.733 16.9031L22.099 17.5561L21.461 16.9031C20.7034 16.082 19.6618 15.5798 18.5476 15.4985C17.4333 15.4172 16.3298 15.7627 15.461 16.4651C14.987 16.8744 14.6012 17.3758 14.327 17.9389C14.0528 18.5019 13.8959 19.1149 13.866 19.7404C13.8361 20.366 13.9337 20.9911 14.1528 21.5778C14.372 22.1645 14.7082 22.7004 15.141 23.1531L21.361 29.5811C21.4552 29.6794 21.5683 29.7576 21.6935 29.811C21.8187 29.8644 21.9534 29.892 22.0895 29.892C22.2256 29.892 22.3604 29.8644 22.4856 29.811C22.6108 29.7576 22.7238 29.6794 22.818 29.5811L29.043 23.1531C29.4765 22.701 29.8134 22.1653 30.0333 21.5788C30.2531 20.9923 30.3513 20.3671 30.3218 19.7415C30.2924 19.1158 30.1359 18.5026 29.8619 17.9394C29.5879 17.3761 29.2021 16.8745 28.728 16.4651H28.733Z" fill="#FFD5CB"/>
<defs>
<filter id="filter0_d_81_30498" x="3" y="3" width="44" height="43" filterUnits="userSpaceOnUse" color-interpolation-filters="sRGB">
<feFlood flood-opacity="0" result="BackgroundImageFix"/>
<feColorMatrix in="SourceAlpha" type="matrix" values="0 0 0 0 0 0 0 0 0 0 0 0 0 0 0 0 0 0 127 0" result="hardAlpha"/>
<feOffset dx="3" dy="3"/>
<feGaussianBlur stdDeviation="3"/>
<feColorMatrix type="matrix" values="0 0 0 0 0 0 0 0 0 0 0 0 0 0 0 0 0 0 0.102 0"/>
<feBlend mode="normal" in2="BackgroundImageFix" result="effect1_dropShadow_81_30498"/>
<feBlend mode="normal" in="SourceGraphic" in2="effect1_dropShadow_81_30498" result="shape"/>
</filter>
</defs>
</svg>
