<svg width="161" height="161" viewBox="0 0 161 161" fill="none" xmlns="http://www.w3.org/2000/svg">
<g clip-path="url(#clip0_145:14508)">
<path d="M80.417 0C96.322 0 111.87 4.71638 125.094 13.5527C138.319 22.389 148.626 34.9485 154.713 49.6428C160.799 64.3371 162.392 80.5062 159.289 96.1056C156.186 111.705 148.527 126.034 137.281 137.28C126.034 148.527 111.705 156.186 96.1056 159.289C80.5063 162.392 64.3371 160.799 49.6428 154.713C34.9485 148.626 22.3891 138.319 13.5527 125.094C4.71638 111.87 0 96.322 0 80.417C0 59.0891 8.47249 38.6347 23.5536 23.5536C38.6347 8.47249 59.0891 0 80.417 0V0Z" fill="#FFBF26"/>
<path d="M79.9521 77.1762C85.874 77.0314 91.4963 74.5422 95.5843 70.2552C99.6723 65.9683 101.892 60.2341 101.755 54.312C101.89 48.3911 99.6695 42.6588 95.5817 38.3735C91.4939 34.0881 85.8727 31.5999 79.9521 31.4551C74.0302 31.5999 68.4079 34.0891 64.3199 38.376C60.2319 42.663 58.0125 48.3972 58.149 54.3193C58.0144 60.2401 60.2347 65.9724 64.3225 70.2578C68.4103 74.5432 74.0315 77.0314 79.9521 77.1762ZM96.0428 76.3912L79.9521 104.466H79.7268L63.389 76.3912C57.3767 76.8114 51.7557 79.5259 47.6882 83.9735C43.6208 88.421 41.4179 94.2615 41.5351 100.287V107.715C41.4844 109.937 42.3178 112.088 43.8522 113.696C45.3866 115.304 47.4965 116.238 49.7185 116.291H109.728C111.95 116.238 114.06 115.304 115.594 113.696C117.129 112.088 117.962 109.937 117.911 107.715V100.287C118.028 94.2592 115.823 88.4167 111.753 83.9687C107.682 79.5208 102.058 76.8079 96.0428 76.3912Z" fill="white"/>
</g>
<defs>
<clipPath id="clip0_145:14508">
<rect width="160.834" height="160.834" fill="white"/>
</clipPath>
</defs>
</svg>
