<svg width="122" height="122" viewBox="0 0 122 122" fill="none" xmlns="http://www.w3.org/2000/svg">
<circle cx="60.7202" cy="60.7202" r="60.7202" fill="#FFFBEE"/>
<circle cx="60.2225" cy="61.2176" r="50.2683" fill="#FFF6D5"/>
<path d="M36.8045 60.2637L50.3994 81.1923C50.3994 81.1923 29.2876 95.6204 28.3413 95.7877C28.2346 95.8243 28.12 95.8318 28.0095 95.8095C27.8989 95.7872 27.7962 95.7358 27.7121 95.6607C27.628 95.5855 27.5654 95.4893 27.5308 95.3819C27.4962 95.2746 27.4908 95.1599 27.5152 95.0498C27.5152 95.0498 28.589 81.5371 28.6145 81.2004C28.6244 81.1069 28.6019 81.0129 28.5507 80.934C28.4995 80.8552 28.4226 80.7963 28.3332 80.7674L14.3081 75.4105C13.7616 75.2011 14.1328 74.9477 14.1328 74.9477L36.8045 60.2637Z" fill="black"/>
<path d="M84.6396 59.3167L71.0447 80.2454C71.0447 80.2454 92.1594 94.6692 93.1066 94.835C93.2131 94.8713 93.3273 94.8786 93.4376 94.8562C93.5479 94.8339 93.6502 94.7826 93.7342 94.7077C93.8181 94.6328 93.8806 94.5369 93.9154 94.4299C93.9501 94.3229 93.9558 94.2085 93.9318 94.0986C93.9318 94.0986 92.858 80.5859 92.8325 80.2491C92.8225 80.1557 92.8451 80.0616 92.8963 79.9827C92.9475 79.9039 93.0243 79.8451 93.1137 79.8161L107.134 74.4564C107.676 74.2456 107.308 73.9927 107.308 73.9927L84.6396 59.3167Z" fill="black"/>
<path d="M60.8046 85.0974C77.4316 85.0974 90.9105 71.6185 90.9105 54.9915C90.9105 38.3646 77.4316 24.8857 60.8046 24.8857C44.1776 24.8857 30.6988 38.3646 30.6988 54.9915C30.6988 71.6185 44.1776 85.0974 60.8046 85.0974Z" fill="#FFD87E"/>
<path d="M60.8046 78.2165C73.6311 78.2165 84.0291 67.8185 84.0291 54.992C84.0291 42.1655 73.6311 31.7676 60.8046 31.7676C47.978 31.7676 37.5801 42.1655 37.5801 54.992C37.5801 67.8185 47.978 78.2165 60.8046 78.2165Z" fill="#FFB300"/>
<mask id="mask0_145:14578" style="mask-type:alpha" maskUnits="userSpaceOnUse" x="22" y="27" width="72" height="66">
<rect x="77.437" y="27.5645" width="13.9379" height="68.7608" transform="rotate(52.5269 77.437 27.5645)" fill="white"/>
<rect x="89.9185" y="46.0391" width="5.87676" height="68.7608" transform="rotate(52.5269 89.9185 46.0391)" fill="white"/>
</mask>
<g mask="url(#mask0_145:14578)">
<path d="M60.8181 84.7166C77.3399 84.7166 90.7335 71.323 90.7335 54.8011C90.7335 38.2793 77.3399 24.8857 60.8181 24.8857C44.2962 24.8857 30.9026 38.2793 30.9026 54.8011C30.9026 71.323 44.2962 84.7166 60.8181 84.7166Z" fill="white" fill-opacity="0.2"/>
</g>
<path d="M46.7248 48.7507H49.0444C49.5189 48.7685 49.8088 48.8925 49.9143 49.1229C50.0021 49.2913 50.0461 49.5394 50.0461 49.8673V52.7915C50.0461 53.0751 49.923 53.3453 49.677 53.6023C48.939 54.3732 47.8319 54.7587 46.3558 54.7587C45.0466 54.7587 43.9088 54.2625 42.9422 53.27C41.9757 52.2687 41.4925 51.0635 41.4925 49.6546C41.4925 48.2456 41.9845 47.0715 42.9686 46.1322C43.9527 45.184 45.1125 44.71 46.448 44.71C47.4848 44.71 48.4645 45.0556 49.3871 45.7467C49.6243 45.924 49.7429 46.1233 49.7429 46.3449C49.7429 46.5575 49.6419 46.8057 49.4398 47.0892C49.0971 47.5589 48.7852 47.7937 48.504 47.7937C48.3371 47.7937 48.0691 47.6741 47.7001 47.4348C47.3311 47.1867 46.8917 47.0626 46.3821 47.0626C45.7144 47.0626 45.1213 47.3019 44.6029 47.7804C44.0845 48.2501 43.8253 48.8704 43.8253 49.6413C43.8253 50.4034 44.0889 51.0547 44.6161 51.5952C45.1432 52.1269 45.7407 52.3927 46.4085 52.3927C46.8917 52.3927 47.3267 52.313 47.7133 52.1535V50.7047H46.6721C46.3997 50.7047 46.2064 50.6692 46.0922 50.5983C45.9779 50.5274 45.9033 50.4255 45.8681 50.2926C45.833 50.1508 45.8154 49.9647 45.8154 49.7343C45.8154 49.4951 45.833 49.3046 45.8681 49.1628C45.9121 49.021 45.9867 48.9235 46.0922 48.8704C46.2503 48.7906 46.4612 48.7507 46.7248 48.7507Z" fill="white"/>
<path d="M55.7642 44.7631C57.0646 44.7631 58.1937 45.2372 59.1514 46.1854C60.1091 47.1335 60.588 48.3121 60.588 49.721C60.588 51.1211 60.1311 52.3174 59.2173 53.3099C58.3035 54.2935 57.1789 54.7853 55.8433 54.7853C54.5078 54.7853 53.37 54.2979 52.4298 53.3232C51.4985 52.3484 51.0328 51.1876 51.0328 49.8407C51.0328 49.1052 51.1646 48.4184 51.4282 47.7804C51.6918 47.1335 52.0432 46.593 52.4825 46.1588C52.9218 45.7246 53.4271 45.3834 53.9982 45.1353C54.5693 44.8872 55.158 44.7631 55.7642 44.7631ZM53.3656 49.7742C53.3656 50.5629 53.616 51.2053 54.1168 51.7016C54.6264 52.1889 55.1931 52.4326 55.817 52.4326C56.4408 52.4326 57.0031 52.1934 57.504 51.7148C58.0048 51.2363 58.2552 50.5939 58.2552 49.7875C58.2552 48.9811 58.0004 48.3342 57.4908 47.8469C56.99 47.3595 56.4276 47.1158 55.8038 47.1158C55.18 47.1158 54.6176 47.3639 54.1168 47.8602C53.616 48.3475 53.3656 48.9856 53.3656 49.7742Z" fill="white"/>
<path d="M66.1154 44.7631C67.4158 44.7631 68.5448 45.2372 69.5025 46.1854C70.4603 47.1335 70.9391 48.3121 70.9391 49.721C70.9391 51.1211 70.4822 52.3174 69.5684 53.3099C68.6546 54.2935 67.53 54.7853 66.1945 54.7853C64.8589 54.7853 63.7211 54.2979 62.7809 53.3232C61.8496 52.3484 61.3839 51.1876 61.3839 49.8407C61.3839 49.1052 61.5157 48.4184 61.7793 47.7804C62.0429 47.1335 62.3943 46.593 62.8337 46.1588C63.273 45.7246 63.7782 45.3834 64.3493 45.1353C64.9204 44.8872 65.5091 44.7631 66.1154 44.7631ZM63.7167 49.7742C63.7167 50.5629 63.9671 51.2053 64.4679 51.7016C64.9775 52.1889 65.5443 52.4326 66.1681 52.4326C66.7919 52.4326 67.3543 52.1934 67.8551 51.7148C68.3559 51.2363 68.6063 50.5939 68.6063 49.7875C68.6063 48.9811 68.3515 48.3342 67.8419 47.8469C67.3411 47.3595 66.7788 47.1158 66.1549 47.1158C65.5311 47.1158 64.9688 47.3639 64.4679 47.8602C63.9671 48.3475 63.7167 48.9856 63.7167 49.7742Z" fill="white"/>
<path d="M73.1057 44.8695L75.5439 44.8828C76.818 44.8828 77.9382 45.348 78.9047 46.2784C79.8712 47.2 80.3545 48.3387 80.3545 49.6945C80.3545 51.0414 79.88 52.1978 78.9311 53.1637C77.991 54.1296 76.8487 54.6125 75.5044 54.6125H73.0925C72.5566 54.6125 72.2227 54.5017 72.0909 54.2802C71.9855 54.0941 71.9327 53.8105 71.9327 53.4295V46.0392C71.9327 45.8265 71.9371 45.6714 71.9459 45.5739C71.9635 45.4765 72.0074 45.3613 72.0777 45.2283C72.2007 44.9891 72.5434 44.8695 73.1057 44.8695ZM75.5439 52.2598C76.1766 52.2598 76.7477 52.025 77.2573 51.5553C77.7669 51.0768 78.0217 50.4787 78.0217 49.7609C78.0217 49.0432 77.7713 48.445 77.2705 47.9665C76.7784 47.4791 76.1985 47.2354 75.5308 47.2354H74.2655V52.2598H75.5439Z" fill="white"/>
<path d="M49.7917 65.5402C49.9235 65.838 49.9893 66.0531 49.9893 66.1855C49.9893 66.4998 49.7171 66.7645 49.1725 66.9796C48.8914 67.0954 48.663 67.1533 48.4873 67.1533C48.3204 67.1533 48.1799 67.1161 48.0657 67.0416C47.9603 66.9589 47.8813 66.8762 47.8286 66.7935C47.7407 66.6363 47.3982 65.8877 46.8009 64.5476L46.3924 64.5724H44.7323V65.9745C44.7323 66.1648 44.7235 66.3095 44.706 66.4088C44.6972 66.4998 44.6577 66.6073 44.5874 66.7314C44.4644 66.9548 44.1219 67.0664 43.5597 67.0664C42.9449 67.0664 42.5847 66.9134 42.4793 66.6073C42.4266 66.4667 42.4003 66.2516 42.4003 65.9621V59.0757C42.4003 58.8854 42.4047 58.7448 42.4134 58.6538C42.431 58.5545 42.4749 58.4428 42.5452 58.3188C42.6682 58.0954 43.0107 57.9837 43.5729 57.9837H46.4188C47.1918 57.9837 47.9428 58.2484 48.6718 58.7779C49.0231 59.0343 49.313 59.3817 49.5414 59.8201C49.7698 60.2586 49.8839 60.7466 49.8839 61.2843C49.8839 62.219 49.5546 62.9883 48.8958 63.5922C49.089 64.0306 49.3877 64.68 49.7917 65.5402ZM44.7323 62.3762H46.4188C46.6735 62.3762 46.9282 62.2852 47.183 62.1032C47.4377 61.9212 47.5651 61.6483 47.5651 61.2843C47.5651 60.9203 47.4377 60.6473 47.183 60.4654C46.9282 60.2751 46.6647 60.18 46.3924 60.18H44.7323V62.3762Z" fill="white"/>
<path d="M55.5111 57.8721C56.8111 57.8721 57.9398 58.3146 58.8972 59.1997C59.8546 60.0848 60.3333 61.185 60.3333 62.5003C60.3333 63.8073 59.8766 64.924 58.9631 65.8504C58.0496 66.7686 56.9253 67.2277 55.5902 67.2277C54.255 67.2277 53.1176 66.7728 52.1777 65.8629C51.2466 64.9529 50.7811 63.8693 50.7811 62.6119C50.7811 61.9254 50.9129 61.2843 51.1764 60.6887C51.4399 60.0848 51.7912 59.5802 52.2304 59.1749C52.6696 58.7696 53.1747 58.4511 53.7456 58.2195C54.3165 57.9879 54.905 57.8721 55.5111 57.8721ZM53.1132 62.5499C53.1132 63.2861 53.3635 63.8858 53.8642 64.3491C54.3736 64.804 54.9402 65.0315 55.5638 65.0315C56.1874 65.0315 56.7496 64.8082 57.2503 64.3615C57.7509 63.9148 58.0013 63.3151 58.0013 62.5623C58.0013 61.8096 57.7465 61.2057 57.2371 60.7507C56.7364 60.2958 56.1743 60.0683 55.5506 60.0683C54.927 60.0683 54.3648 60.2999 53.8642 60.7631C53.3635 61.2181 53.1132 61.8137 53.1132 62.5499Z" fill="white"/>
<path d="M66.5072 58.629L70.0645 65.5527C70.2139 65.8339 70.2885 66.0448 70.2885 66.1855C70.2885 66.4833 70.0338 66.7521 69.5244 66.992C69.2257 67.1326 68.9886 67.2029 68.8129 67.2029C68.646 67.2029 68.5054 67.1657 68.3913 67.0912C68.2859 67.0168 68.2068 66.9382 68.1541 66.8555C68.1102 66.7728 68.0443 66.6487 67.9565 66.4833L67.2713 65.1432H63.6217L62.9366 66.4833C62.8488 66.6487 62.7785 66.7686 62.7258 66.8431C62.6819 66.9175 62.6028 66.9961 62.4886 67.0788C62.3832 67.1533 62.2427 67.1905 62.067 67.1905C61.9001 67.1905 61.6674 67.1202 61.3687 66.9796C60.8593 66.748 60.6046 66.4833 60.6046 66.1855C60.6046 66.0448 60.6792 65.8339 60.8285 65.5527L64.3859 58.6166C64.4825 58.4263 64.6275 58.2733 64.8207 58.1575C65.0227 58.0416 65.2335 57.9837 65.4531 57.9837C65.9274 57.9837 66.2788 58.1988 66.5072 58.629ZM65.44 61.6069L64.5704 63.3068H66.3227L65.44 61.6069Z" fill="white"/>
<path d="M72.5764 57.9713L75.0139 57.9837C76.2875 57.9837 77.4074 58.418 78.3736 59.2866C79.3398 60.1469 79.8229 61.2098 79.8229 62.4755C79.8229 63.7328 79.3486 64.8123 78.4 65.714C77.4601 66.6156 76.3183 67.0664 74.9744 67.0664H72.5633C72.0275 67.0664 71.6937 66.963 71.5619 66.7562C71.4565 66.5825 71.4038 66.3178 71.4038 65.9621V59.0632C71.4038 58.8647 71.4082 58.72 71.417 58.629C71.4346 58.538 71.4785 58.4304 71.5487 58.3064C71.6717 58.083 72.0143 57.9713 72.5764 57.9713ZM75.0139 64.8702C75.6463 64.8702 76.2173 64.651 76.7267 64.2126C77.2362 63.7659 77.4909 63.2075 77.4909 62.5375C77.4909 61.8675 77.2405 61.3091 76.7399 60.8624C76.248 60.4074 75.6683 60.18 75.0007 60.18H73.7359V64.8702H75.0139Z" fill="white"/>
</svg>
