<svg width="79" height="79" viewBox="0 0 79 79" fill="none" xmlns="http://www.w3.org/2000/svg">
<g filter="url(#filter0_d_145:14558)">
<circle cx="39.1129" cy="35.1129" r="33.1129" fill="#FFF8DF"/>
</g>
<g clip-path="url(#clip0_145:14558)">
<path d="M39.1129 21.1035C29.9684 21.1035 22.5564 27.1245 22.5564 34.5558C22.5798 36.1389 22.9178 37.7015 23.5508 39.1528C24.1837 40.604 25.099 41.9149 26.2432 43.0091C25.529 45.3076 24.3191 47.4214 22.699 49.2014C22.6289 49.2751 22.5823 49.368 22.565 49.4683C22.5478 49.5685 22.5606 49.6716 22.602 49.7646C22.641 49.8573 22.7067 49.9363 22.7908 49.9916C22.8748 50.0469 22.9735 50.0759 23.0741 50.0749C26.3921 50.0185 29.5948 48.8478 32.167 46.7511C34.3892 47.5839 36.7434 48.0089 39.1165 48.0056C48.261 48.0056 55.6729 41.9846 55.6729 34.5534C55.6729 27.1221 48.2574 21.1035 39.1129 21.1035ZM30.8347 36.6203C30.4254 36.6203 30.0253 36.4989 29.685 36.2715C29.3448 36.0441 29.0795 35.721 28.9229 35.3429C28.7663 34.9647 28.7253 34.5487 28.8052 34.1473C28.885 33.7459 29.0821 33.3771 29.3715 33.0878C29.6609 32.7984 30.0296 32.6013 30.431 32.5214C30.8324 32.4416 31.2484 32.4826 31.6265 32.6392C32.0046 32.7958 32.3278 33.061 32.5552 33.4013C32.7826 33.7416 32.9039 34.1417 32.9039 34.551C32.9042 34.8228 32.8509 35.092 32.7471 35.3432C32.6432 35.5944 32.4908 35.8227 32.2986 36.0149C32.1063 36.2071 31.8781 36.3595 31.6269 36.4634C31.3757 36.5673 31.1065 36.6206 30.8347 36.6203ZM39.1129 36.6203C38.7036 36.6203 38.3036 36.4989 37.9633 36.2715C37.623 36.0441 37.3578 35.721 37.2011 35.3429C37.0445 34.9647 37.0036 34.5487 37.0834 34.1473C37.1632 33.7459 37.3603 33.3771 37.6497 33.0878C37.9391 32.7984 38.3078 32.6013 38.7092 32.5214C39.1106 32.4416 39.5267 32.4826 39.9048 32.6392C40.2829 32.7958 40.606 33.061 40.8334 33.4013C41.0608 33.7416 41.1821 34.1417 41.1821 34.551C41.1825 34.8228 41.1292 35.092 41.0253 35.3432C40.9214 35.5944 40.769 35.8227 40.5768 36.0149C40.3846 36.2071 40.1563 36.3595 39.9051 36.4634C39.6539 36.5673 39.3847 36.6206 39.1129 36.6203ZM47.3911 36.6203C46.9819 36.6203 46.5818 36.4989 46.2415 36.2715C45.9012 36.0441 45.636 35.721 45.4794 35.3429C45.3228 34.9647 45.2818 34.5487 45.3616 34.1473C45.4415 33.7459 45.6385 33.3771 45.9279 33.0878C46.2173 32.7984 46.586 32.6013 46.9874 32.5214C47.3888 32.4416 47.8049 32.4826 48.183 32.6392C48.5611 32.7958 48.8843 33.061 49.1116 33.4013C49.339 33.7416 49.4604 34.1417 49.4604 34.551C49.4607 34.8228 49.4074 35.092 49.3035 35.3432C49.1996 35.5944 49.0472 35.8227 48.855 36.0149C48.6628 36.2071 48.4346 36.3595 48.1834 36.4634C47.9322 36.5673 47.6629 36.6206 47.3911 36.6203Z" fill="#FFBF26"/>
</g>
<defs>
<filter id="filter0_d_145:14558" x="0" y="0" width="78.2258" height="78.2256" filterUnits="userSpaceOnUse" color-interpolation-filters="sRGB">
<feFlood flood-opacity="0" result="BackgroundImageFix"/>
<feColorMatrix in="SourceAlpha" type="matrix" values="0 0 0 0 0 0 0 0 0 0 0 0 0 0 0 0 0 0 127 0" result="hardAlpha"/>
<feOffset dy="4"/>
<feGaussianBlur stdDeviation="3"/>
<feComposite in2="hardAlpha" operator="out"/>
<feColorMatrix type="matrix" values="0 0 0 0 0.916667 0 0 0 0 0.797194 0 0 0 0 0.565278 0 0 0 0.4 0"/>
<feBlend mode="normal" in2="BackgroundImageFix" result="effect1_dropShadow_145:14558"/>
<feBlend mode="normal" in="SourceGraphic" in2="effect1_dropShadow_145:14558" result="shape"/>
</filter>
<clipPath id="clip0_145:14558">
<rect width="33.1129" height="28.9738" fill="white" transform="translate(22.5564 21.1035)"/>
</clipPath>
</defs>
</svg>
