<svg width="20" height="20" viewBox="0 0 20 20" fill="none" xmlns="http://www.w3.org/2000/svg">
<path d="M17.3656 10.9993C17.651 10.516 17.8125 10.0003 17.8125 9.37695C17.8125 7.94417 16.601 6.59115 15.0189 6.59115H13.8314C13.9915 6.17415 14.1195 5.67546 14.1195 5.07617C14.1195 2.70658 12.8926 1.66699 11.0182 1.66699C9.01279 1.66699 9.12718 4.75726 8.68229 5.20215C7.94183 5.94261 7.06722 7.36514 6.44401 7.91699H3.22917C2.65387 7.91699 2.1875 8.38337 2.1875 8.95866V16.7712C2.1875 17.3465 2.65387 17.8128 3.22917 17.8128H5.3125C5.7973 17.8128 6.20469 17.4816 6.3209 17.0332C7.76976 17.0658 8.76426 18.3333 12.1087 18.3333C12.3438 18.3333 12.6042 18.3337 12.832 18.3337C15.3424 18.3337 16.4774 17.0504 16.5085 15.2305C16.942 14.6307 17.1692 13.8268 17.0729 13.0498C17.3937 12.4492 17.5177 11.7366 17.3656 10.9993ZM15.3555 12.7516C15.7643 13.4395 15.3965 14.36 14.9017 14.6257C15.1523 16.2135 14.3285 16.7708 13.1725 16.7708H11.9414C9.60941 16.7708 8.09932 15.5397 6.35417 15.5397V9.47949H6.70964C7.63281 9.47949 8.92253 7.17188 9.78711 6.30697C10.7103 5.38379 10.4027 3.84505 11.0182 3.22949C12.557 3.22949 12.557 4.30306 12.557 5.07617C12.557 6.35124 11.6338 6.92253 11.6338 8.15365H15.0189C15.7061 8.15365 16.2471 8.76921 16.25 9.38477C16.2529 10 15.8327 10.6156 15.5251 10.6156C15.9642 11.0894 16.058 12.0881 15.3555 12.7516ZM5.05208 15.7295C5.05208 16.161 4.70231 16.5107 4.27083 16.5107C3.83936 16.5107 3.48958 16.161 3.48958 15.7295C3.48958 15.298 3.83936 14.9482 4.27083 14.9482C4.70231 14.9482 5.05208 15.298 5.05208 15.7295Z" fill="#FFBF26"/>
</svg>
