<svg width="14" height="14" viewBox="0 0 14 14" fill="none" xmlns="http://www.w3.org/2000/svg">
<path d="M11.2492 7.625H2.72917C2.32585 7.625 2 7.3457 2 7C2 6.6543 2.32585 6.375 2.72917 6.375H11.2492C11.6525 6.375 11.9784 6.6543 11.9784 7C11.9784 7.3457 11.6525 7.625 11.2492 7.625Z" fill="white"/>
<path d="M7.625 2.75081L7.625 11.2708C7.625 11.6742 7.3457 12 7 12C6.6543 12 6.375 11.6742 6.375 11.2708L6.375 2.75081C6.375 2.34749 6.6543 2.02165 7 2.02165C7.3457 2.02165 7.625 2.34749 7.625 2.75081Z" fill="white"/>
</svg>
