<svg width="18" height="18" viewBox="0 0 18 18" fill="none" xmlns="http://www.w3.org/2000/svg">
<path d="M16.5 9C16.5 13.1431 13.1418 16.5 9 16.5C4.85816 16.5 1.5 13.1431 1.5 9C1.5 4.85936 4.85816 1.5 9 1.5C13.1418 1.5 16.5 4.85936 16.5 9ZM9.20126 3.97984C7.55317 3.97984 6.50202 4.6741 5.67659 5.908C5.56966 6.06786 5.60543 6.28346 5.7587 6.39968L6.80807 7.19534C6.96547 7.31471 7.18975 7.28631 7.31205 7.13117C7.85229 6.44595 8.22272 6.0486 9.045 6.0486C9.66281 6.0486 10.427 6.44622 10.427 7.04531C10.427 7.49822 10.0531 7.73081 9.44311 8.07281C8.73169 8.47161 7.79032 8.96797 7.79032 10.2097V10.3306C7.79032 10.5311 7.95281 10.6935 8.15323 10.6935H9.84678C10.0472 10.6935 10.2097 10.5311 10.2097 10.3306V10.2903C10.2097 9.42959 12.7254 9.39375 12.7254 7.06452C12.7254 5.31042 10.9059 3.97984 9.20126 3.97984ZM9 11.4798C8.23291 11.4798 7.60887 12.1039 7.60887 12.871C7.60887 13.638 8.23291 14.2621 9 14.2621C9.76709 14.2621 10.3911 13.638 10.3911 12.871C10.3911 12.1039 9.76709 11.4798 9 11.4798Z" fill="#573300" fill-opacity="0.4"/>
</svg>
