<svg width="123" height="122" viewBox="0 0 123 122" fill="none" xmlns="http://www.w3.org/2000/svg">
<circle cx="61.5734" cy="60.7202" r="60.7202" fill="#F8F8F8"/>
<circle cx="61.0757" cy="61.2176" r="50.2683" fill="#F2F2F2"/>
<path d="M37.6577 60.2637L51.2526 81.1923C51.2526 81.1923 30.1408 95.6204 29.1945 95.7877C29.0878 95.8243 28.9732 95.8318 28.8627 95.8095C28.7521 95.7872 28.6494 95.7358 28.5653 95.6607C28.4812 95.5855 28.4186 95.4893 28.384 95.3819C28.3493 95.2746 28.344 95.1599 28.3684 95.0498C28.3684 95.0498 29.4422 81.5371 29.4677 81.2004C29.4776 81.1069 29.4551 81.0129 29.4039 80.934C29.3527 80.8552 29.2758 80.7963 29.1864 80.7674L15.1613 75.4105C14.6148 75.2011 14.986 74.9477 14.986 74.9477L37.6577 60.2637Z" fill="#818181"/>
<path d="M85.4928 59.3167L71.8979 80.2454C71.8979 80.2454 93.0126 94.6692 93.9598 94.835C94.0663 94.8713 94.1805 94.8786 94.2908 94.8562C94.401 94.8339 94.5034 94.7826 94.5873 94.7077C94.6713 94.6328 94.7338 94.5369 94.7685 94.4299C94.8033 94.3229 94.809 94.2085 94.785 94.0986C94.785 94.0986 93.7111 80.5859 93.6856 80.2491C93.6757 80.1556 93.6983 80.0616 93.7495 79.9827C93.8007 79.9039 93.8775 79.8451 93.9669 79.8161L107.988 74.4564C108.529 74.2456 108.162 73.9927 108.162 73.9927L85.4928 59.3167Z" fill="#818181"/>
<path d="M61.6578 85.0974C78.2848 85.0974 91.7637 71.6185 91.7637 54.9915C91.7637 38.3646 78.2848 24.8857 61.6578 24.8857C45.0308 24.8857 31.552 38.3646 31.552 54.9915C31.552 71.6185 45.0308 85.0974 61.6578 85.0974Z" fill="#C7C7C7"/>
<path d="M61.6578 78.2165C74.4843 78.2165 84.8823 67.8185 84.8823 54.992C84.8823 42.1655 74.4843 31.7676 61.6578 31.7676C48.8313 31.7676 38.4333 42.1655 38.4333 54.992C38.4333 67.8185 48.8313 78.2165 61.6578 78.2165Z" fill="#B6B6B6"/>
<path d="M47.578 48.7507H49.8976C50.3721 48.7685 50.662 48.8925 50.7675 49.1229C50.8553 49.2913 50.8993 49.5394 50.8993 49.8673V52.7915C50.8993 53.0751 50.7763 53.3453 50.5302 53.6023C49.7922 54.3732 48.6851 54.7587 47.209 54.7587C45.8998 54.7587 44.762 54.2625 43.7955 53.27C42.829 52.2687 42.3457 51.0635 42.3457 49.6546C42.3457 48.2456 42.8377 47.0715 43.8218 46.1322C44.8059 45.184 45.9657 44.71 47.3012 44.71C48.338 44.71 49.3177 45.0556 50.2403 45.7467C50.4775 45.924 50.5961 46.1233 50.5961 46.3449C50.5961 46.5575 50.4951 46.8057 50.293 47.0892C49.9503 47.5589 49.6384 47.7937 49.3573 47.7937C49.1903 47.7937 48.9223 47.6741 48.5533 47.4348C48.1843 47.1867 47.7449 47.0626 47.2353 47.0626C46.5676 47.0626 45.9745 47.3019 45.4561 47.7804C44.9377 48.2501 44.6785 48.8704 44.6785 49.6413C44.6785 50.4034 44.9421 51.0547 45.4693 51.5952C45.9965 52.1269 46.5939 52.3927 47.2617 52.3927C47.7449 52.3927 48.1799 52.313 48.5665 52.1535V50.7047H47.5253C47.2529 50.7047 47.0596 50.6692 46.9454 50.5983C46.8312 50.5274 46.7565 50.4255 46.7213 50.2926C46.6862 50.1508 46.6686 49.9647 46.6686 49.7343C46.6686 49.4951 46.6862 49.3046 46.7213 49.1628C46.7653 49.021 46.8399 48.9235 46.9454 48.8704C47.1035 48.7906 47.3144 48.7507 47.578 48.7507Z" fill="white"/>
<path d="M56.6175 44.7631C57.9178 44.7631 59.0469 45.2372 60.0046 46.1854C60.9623 47.1335 61.4412 48.3121 61.4412 49.721C61.4412 51.1211 60.9843 52.3174 60.0705 53.3099C59.1567 54.2935 58.0321 54.7853 56.6965 54.7853C55.361 54.7853 54.2232 54.2979 53.283 53.3232C52.3517 52.3484 51.886 51.1876 51.886 49.8407C51.886 49.1052 52.0178 48.4184 52.2814 47.7804C52.545 47.1335 52.8964 46.593 53.3357 46.1588C53.7751 45.7246 54.2803 45.3834 54.8514 45.1353C55.4225 44.8872 56.0112 44.7631 56.6175 44.7631ZM54.2188 49.7742C54.2188 50.5629 54.4692 51.2053 54.97 51.7016C55.4796 52.1889 56.0463 52.4326 56.6702 52.4326C57.294 52.4326 57.8563 52.1934 58.3572 51.7148C58.858 51.2363 59.1084 50.5939 59.1084 49.7875C59.1084 48.9811 58.8536 48.3342 58.344 47.8469C57.8432 47.3595 57.2808 47.1158 56.657 47.1158C56.0332 47.1158 55.4708 47.3639 54.97 47.8602C54.4692 48.3475 54.2188 48.9856 54.2188 49.7742Z" fill="white"/>
<path d="M66.9686 44.7631C68.269 44.7631 69.398 45.2372 70.3557 46.1854C71.3135 47.1335 71.7923 48.3121 71.7923 49.721C71.7923 51.1211 71.3354 52.3174 70.4216 53.3099C69.5079 54.2935 68.3832 54.7853 67.0477 54.7853C65.7121 54.7853 64.5743 54.2979 63.6342 53.3232C62.7028 52.3484 62.2371 51.1876 62.2371 49.8407C62.2371 49.1052 62.3689 48.4184 62.6325 47.7804C62.8961 47.1335 63.2476 46.593 63.6869 46.1588C64.1262 45.7246 64.6314 45.3834 65.2025 45.1353C65.7736 44.8872 66.3623 44.7631 66.9686 44.7631ZM64.5699 49.7742C64.5699 50.5629 64.8203 51.2053 65.3211 51.7016C65.8308 52.1889 66.3975 52.4326 67.0213 52.4326C67.6451 52.4326 68.2075 52.1934 68.7083 51.7148C69.2091 51.2363 69.4595 50.5939 69.4595 49.7875C69.4595 48.9811 69.2047 48.3342 68.6951 47.8469C68.1943 47.3595 67.632 47.1158 67.0081 47.1158C66.3843 47.1158 65.822 47.3639 65.3211 47.8602C64.8203 48.3475 64.5699 48.9856 64.5699 49.7742Z" fill="white"/>
<path d="M73.9589 44.8695L76.3972 44.8828C77.6712 44.8828 78.7914 45.348 79.758 46.2784C80.7245 47.2 81.2077 48.3387 81.2077 49.6945C81.2077 51.0414 80.7332 52.1978 79.7843 53.1637C78.8442 54.1296 77.7019 54.6125 76.3576 54.6125H73.9458C73.4098 54.6125 73.0759 54.5017 72.9441 54.2802C72.8387 54.0941 72.7859 53.8105 72.7859 53.4295V46.0392C72.7859 45.8265 72.7903 45.6714 72.7991 45.5739C72.8167 45.4765 72.8606 45.3613 72.9309 45.2283C73.0539 44.9891 73.3966 44.8695 73.9589 44.8695ZM76.3972 52.2598C77.0298 52.2598 77.6009 52.025 78.1105 51.5553C78.6201 51.0768 78.8749 50.4787 78.8749 49.7609C78.8749 49.0432 78.6245 48.445 78.1237 47.9665C77.6316 47.4791 77.0517 47.2354 76.384 47.2354H75.1187V52.2598H76.3972Z" fill="white"/>
<path d="M50.6449 65.5402C50.7767 65.838 50.8426 66.0531 50.8426 66.1855C50.8426 66.4998 50.5703 66.7645 50.0257 66.9796C49.7446 67.0954 49.5162 67.1533 49.3405 67.1533C49.1737 67.1533 49.0331 67.1161 48.9189 67.0416C48.8135 66.9589 48.7345 66.8762 48.6818 66.7935C48.5939 66.6363 48.2514 65.8877 47.6541 64.5476L47.2456 64.5724H45.5855V65.9745C45.5855 66.1648 45.5768 66.3095 45.5592 66.4088C45.5504 66.4998 45.5109 66.6073 45.4406 66.7314C45.3176 66.9548 44.9751 67.0664 44.4129 67.0664C43.7981 67.0664 43.4379 66.9134 43.3325 66.6073C43.2798 66.4667 43.2535 66.2516 43.2535 65.9621V59.0757C43.2535 58.8854 43.2579 58.7448 43.2667 58.6538C43.2842 58.5545 43.3281 58.4428 43.3984 58.3188C43.5214 58.0954 43.8639 57.9837 44.4261 57.9837H47.272C48.045 57.9837 48.796 58.2484 49.525 58.7779C49.8764 59.0343 50.1662 59.3817 50.3946 59.8201C50.623 60.2586 50.7371 60.7466 50.7371 61.2843C50.7371 62.219 50.4078 62.9883 49.749 63.5922C49.9422 64.0306 50.2409 64.68 50.6449 65.5402ZM45.5855 62.3762H47.272C47.5267 62.3762 47.7815 62.2852 48.0362 62.1032C48.2909 61.9212 48.4183 61.6483 48.4183 61.2843C48.4183 60.9203 48.2909 60.6473 48.0362 60.4654C47.7815 60.2751 47.5179 60.18 47.2456 60.18H45.5855V62.3762Z" fill="white"/>
<path d="M56.3643 57.8721C57.6643 57.8721 58.793 58.3146 59.7504 59.1997C60.7078 60.0848 61.1865 61.185 61.1865 62.5003C61.1865 63.8073 60.7298 64.924 59.8163 65.8504C58.9028 66.7686 57.7785 67.2277 56.4434 67.2277C55.1083 67.2277 53.9708 66.7728 53.0309 65.8629C52.0998 64.9529 51.6343 63.8693 51.6343 62.6119C51.6343 61.9254 51.7661 61.2843 52.0296 60.6887C52.2931 60.0848 52.6444 59.5802 53.0836 59.1749C53.5228 58.7696 54.0279 58.4511 54.5988 58.2195C55.1697 57.9879 55.7582 57.8721 56.3643 57.8721ZM53.9664 62.5499C53.9664 63.2861 54.2167 63.8858 54.7174 64.3491C55.2268 64.804 55.7934 65.0315 56.417 65.0315C57.0407 65.0315 57.6028 64.8082 58.1035 64.3615C58.6041 63.9148 58.8545 63.3151 58.8545 62.5623C58.8545 61.8096 58.5998 61.2057 58.0903 60.7507C57.5896 60.2958 57.0275 60.0683 56.4038 60.0683C55.7802 60.0683 55.218 60.2999 54.7174 60.7631C54.2167 61.2181 53.9664 61.8137 53.9664 62.5499Z" fill="white"/>
<path d="M67.3604 58.629L70.9178 65.5527C71.0671 65.8339 71.1417 66.0448 71.1417 66.1855C71.1417 66.4833 70.887 66.7521 70.3776 66.992C70.0789 67.1326 69.8418 67.2029 69.6661 67.2029C69.4992 67.2029 69.3587 67.1657 69.2445 67.0912C69.1391 67.0168 69.06 66.9382 69.0073 66.8555C68.9634 66.7728 68.8975 66.6487 68.8097 66.4833L68.1246 65.1432H64.4749L63.7898 66.4833C63.702 66.6487 63.6317 66.7686 63.579 66.8431C63.5351 66.9175 63.456 66.9961 63.3419 67.0788C63.2365 67.1533 63.0959 67.1905 62.9202 67.1905C62.7534 67.1905 62.5206 67.1202 62.2219 66.9796C61.7125 66.748 61.4578 66.4833 61.4578 66.1855C61.4578 66.0448 61.5324 65.8339 61.6817 65.5527L65.2391 58.6166C65.3357 58.4263 65.4807 58.2733 65.6739 58.1575C65.8759 58.0416 66.0868 57.9837 66.3063 57.9837C66.7807 57.9837 67.132 58.1988 67.3604 58.629ZM66.2932 61.6069L65.4236 63.3068H67.1759L66.2932 61.6069Z" fill="white"/>
<path d="M73.4296 57.9713L75.8671 57.9837C77.1407 57.9837 78.2607 58.418 79.2268 59.2866C80.1931 60.1469 80.6762 61.2098 80.6762 62.4755C80.6762 63.7328 80.2018 64.8123 79.2532 65.714C78.3134 66.6156 77.1715 67.0664 75.8276 67.0664H73.4165C72.8807 67.0664 72.5469 66.963 72.4151 66.7562C72.3097 66.5825 72.257 66.3178 72.257 65.9621V59.0632C72.257 58.8647 72.2614 58.72 72.2702 58.629C72.2878 58.538 72.3317 58.4304 72.402 58.3064C72.5249 58.083 72.8675 57.9713 73.4296 57.9713ZM75.8671 64.8702C76.4995 64.8702 77.0705 64.651 77.5799 64.2126C78.0894 63.7659 78.3441 63.2075 78.3441 62.5375C78.3441 61.8675 78.0938 61.3091 77.5931 60.8624C77.1012 60.4074 76.5215 60.18 75.8539 60.18H74.5891V64.8702H75.8671Z" fill="white"/>
<mask id="mask0_145:14599" style="mask-type:alpha" maskUnits="userSpaceOnUse" x="23" y="27" width="72" height="66">
<rect x="78.319" y="27.8721" width="13.9379" height="68.7608" transform="rotate(52.5269 78.319 27.8721)" fill="white"/>
<rect x="90.8005" y="46.3467" width="5.87676" height="68.7608" transform="rotate(52.5269 90.8005 46.3467)" fill="white"/>
</mask>
<g mask="url(#mask0_145:14599)">
<path d="M62.0309 85.1082C78.5469 85.1082 91.9335 73.3269 91.9335 56.2412C91.9335 38.3238 78.1703 24.8857 62.0309 24.8857C45.5148 24.8857 31.7263 38.719 31.7263 55.4007C31.1839 71.6201 45.1491 85.1082 62.0309 85.1082Z" fill="white" fill-opacity="0.2"/>
</g>
</svg>
