<svg width="17" height="17" viewBox="0 0 17 17" fill="none" xmlns="http://www.w3.org/2000/svg">
<path d="M13.3698 3.18783H12.0416V1.74902C12.0416 1.56641 11.8922 1.41699 11.7096 1.41699H10.6028C10.4202 1.41699 10.2708 1.56641 10.2708 1.74902V3.18783H6.72915V1.74902C6.72915 1.56641 6.57973 1.41699 6.39711 1.41699H5.29034C5.10773 1.41699 4.95831 1.56641 4.95831 1.74902V3.18783H3.63019C2.89695 3.18783 2.30206 3.78271 2.30206 4.51595V14.2555C2.30206 14.9888 2.89695 15.5837 3.63019 15.5837H13.3698C14.103 15.5837 14.6979 14.9888 14.6979 14.2555V4.51595C14.6979 3.78271 14.103 3.18783 13.3698 3.18783ZM13.2038 14.2555H3.7962C3.70489 14.2555 3.63019 14.1808 3.63019 14.0895V5.84408H13.3698V14.0895C13.3698 14.1808 13.2951 14.2555 13.2038 14.2555Z" fill="black"/>
</svg>
