<svg width="14" height="14" viewBox="0 0 14 14" fill="none" xmlns="http://www.w3.org/2000/svg">
<path d="M11.5833 1.16699H2.41666C1.72629 1.16699 1.16666 1.72663 1.16666 2.41699V11.5837C1.16666 12.274 1.72629 12.8337 2.41666 12.8337H11.5833C12.2737 12.8337 12.8333 12.274 12.8333 11.5837V2.41699C12.8333 1.72663 12.2737 1.16699 11.5833 1.16699ZM11.5833 11.5837H2.41666V2.41699H11.5833V11.5837ZM10.6494 5.28876L6.15486 9.7472C6.03233 9.86874 5.83447 9.86796 5.71293 9.74543L3.34884 7.3622C3.22731 7.23967 3.22809 7.04181 3.35064 6.92025L3.94228 6.33337C4.06481 6.21184 4.26267 6.21262 4.38421 6.33517L5.94129 7.90488L9.62233 4.25342C9.74486 4.13189 9.94272 4.13267 10.0643 4.2552L10.6511 4.84681C10.7727 4.96936 10.7719 5.16723 10.6494 5.28876Z" fill="#FF9100"/>
</svg>
