<svg width="18" height="18" viewBox="0 0 18 18" fill="none" xmlns="http://www.w3.org/2000/svg">
<path d="M2.43762 15.0937C2.43762 15.8701 3.06751 16.5 3.84387 16.5H14.1564C14.9327 16.5 15.5626 15.8701 15.5626 15.0937V7.125H2.43762V15.0937ZM11.8126 9.35156C11.8126 9.1582 11.9708 9 12.1642 9H13.3361C13.5294 9 13.6876 9.1582 13.6876 9.35156V10.5234C13.6876 10.7168 13.5294 10.875 13.3361 10.875H12.1642C11.9708 10.875 11.8126 10.7168 11.8126 10.5234V9.35156ZM11.8126 13.1016C11.8126 12.9082 11.9708 12.75 12.1642 12.75H13.3361C13.5294 12.75 13.6876 12.9082 13.6876 13.1016V14.2734C13.6876 14.4668 13.5294 14.625 13.3361 14.625H12.1642C11.9708 14.625 11.8126 14.4668 11.8126 14.2734V13.1016ZM8.06262 9.35156C8.06262 9.1582 8.22083 9 8.41419 9H9.58606C9.77942 9 9.93762 9.1582 9.93762 9.35156V10.5234C9.93762 10.7168 9.77942 10.875 9.58606 10.875H8.41419C8.22083 10.875 8.06262 10.7168 8.06262 10.5234V9.35156ZM8.06262 13.1016C8.06262 12.9082 8.22083 12.75 8.41419 12.75H9.58606C9.77942 12.75 9.93762 12.9082 9.93762 13.1016V14.2734C9.93762 14.4668 9.77942 14.625 9.58606 14.625H8.41419C8.22083 14.625 8.06262 14.4668 8.06262 14.2734V13.1016ZM4.31262 9.35156C4.31262 9.1582 4.47083 9 4.66419 9H5.83606C6.02942 9 6.18762 9.1582 6.18762 9.35156V10.5234C6.18762 10.7168 6.02942 10.875 5.83606 10.875H4.66419C4.47083 10.875 4.31262 10.7168 4.31262 10.5234V9.35156ZM4.31262 13.1016C4.31262 12.9082 4.47083 12.75 4.66419 12.75H5.83606C6.02942 12.75 6.18762 12.9082 6.18762 13.1016V14.2734C6.18762 14.4668 6.02942 14.625 5.83606 14.625H4.66419C4.47083 14.625 4.31262 14.4668 4.31262 14.2734V13.1016ZM14.1564 3.375H12.7501V1.96875C12.7501 1.71094 12.5392 1.5 12.2814 1.5H11.3439C11.0861 1.5 10.8751 1.71094 10.8751 1.96875V3.375H7.12512V1.96875C7.12512 1.71094 6.91419 1.5 6.65637 1.5H5.71887C5.46106 1.5 5.25012 1.71094 5.25012 1.96875V3.375H3.84387C3.06751 3.375 2.43762 4.00488 2.43762 4.78125V6.1875H15.5626V4.78125C15.5626 4.00488 14.9327 3.375 14.1564 3.375Z" fill="black" fill-opacity="0.5"/>
</svg>
