<svg width="153" height="152" viewBox="0 0 153 152" fill="none" xmlns="http://www.w3.org/2000/svg">
<path d="M76.5 0C91.6302 0 106.421 4.45633 119.001 12.8055C131.581 21.1546 141.387 33.0215 147.177 46.9056C152.967 60.7897 154.482 76.0674 151.53 90.8067C148.578 105.546 141.292 119.085 130.594 129.711C119.895 140.338 106.264 147.574 91.4244 150.506C76.5848 153.438 61.2033 151.933 47.2247 146.182C33.2462 140.431 21.2985 130.692 12.8926 118.197C4.48665 105.702 0 91.0111 0 75.9831C0 55.8311 8.0598 36.5045 22.4063 22.2549C36.7529 8.00534 56.2109 0 76.5 0V0Z" fill="#E1E1E1"/>
<path d="M76.1617 73.0564C81.7487 72.9192 87.053 70.5605 90.9099 66.4983C94.7667 62.4361 96.8606 57.0025 96.7317 51.391C96.8587 45.7805 94.764 40.3488 90.9074 36.2881C87.0508 32.2274 81.7475 29.8696 76.1617 29.7324C70.5747 29.8696 65.2703 32.2283 61.4135 36.2905C57.5567 40.3527 55.4628 45.7862 55.5917 51.3978C55.4646 57.0083 57.5594 62.44 61.416 66.5007C65.2726 70.5614 70.5759 72.9192 76.1617 73.0564ZM92.7461 72.8469C92.7461 72.8469 88.158 80.3554 76.2358 80.4274C76.1528 80.428 76.1062 80.4279 76.0232 80.4274C64.0555 80.3556 59.2537 72.8469 59.2537 72.8469C53.5814 73.245 49.5599 75.2829 45.7224 79.4973C41.885 83.7117 39.8067 89.246 39.9173 94.9559V101.994C39.8694 104.1 40.6557 106.138 42.1033 107.662C43.551 109.186 45.5416 110.07 47.6379 110.12H104.254C106.35 110.07 108.34 109.186 109.788 107.662C111.236 106.138 112.022 104.1 111.974 101.994V94.9559C112.084 89.2438 110.004 83.7076 106.164 79.4928C102.324 75.2781 98.4209 73.2417 92.7461 72.8469Z" fill="white"/>
</svg>
