<svg width="119" height="119" viewBox="0 0 119 119" fill="none" xmlns="http://www.w3.org/2000/svg">
<path d="M59.5 0C71.268 0 82.7717 3.48961 92.5564 10.0276C102.341 16.5655 109.967 25.8581 114.471 36.7303C118.974 47.6025 120.153 59.566 117.857 71.1079C115.561 82.6497 109.894 93.2516 101.573 101.573C93.2516 109.894 82.6497 115.561 71.1079 117.857C59.566 120.153 47.6025 118.974 36.7303 114.471C25.8581 109.967 16.5655 102.341 10.0276 92.5564C3.48961 82.7717 0 71.268 0 59.5C0 43.7196 6.26873 28.5856 17.4271 17.4271C28.5856 6.26873 43.7196 0 59.5 0V0Z" fill="#FFBF26"/>
<path d="M59.1678 57.414C63.5093 57.3082 67.6312 55.489 70.6283 52.356C73.6253 49.223 75.2524 45.0324 75.1523 40.7044C75.251 36.3773 73.6232 32.188 70.6263 29.0561C67.6295 25.9243 63.5084 24.1058 59.1678 24C54.8263 24.1058 50.7045 25.925 47.7074 29.058C44.7104 32.191 43.0833 36.3817 43.1834 40.7097C43.0847 45.0368 44.7125 49.2261 47.7093 52.3579C50.7062 55.4898 54.8273 57.3082 59.1678 57.414ZM72.0551 57.2525C72.0551 57.2525 68.4898 63.0435 59.2254 63.099C59.1609 63.0994 59.1247 63.0994 59.0602 63.099C49.7604 63.0437 46.0291 57.2525 46.0291 57.2525C41.6213 57.5595 38.4963 59.1313 35.5143 62.3817C32.5323 65.6321 30.9173 69.9004 31.0033 74.3043V79.7325C30.9661 81.3565 31.5771 82.9287 32.702 84.1039C33.8269 85.279 35.3738 85.961 37.0028 86H80.9973C82.6263 85.961 84.1731 85.279 85.298 84.1039C86.423 82.9287 87.0339 81.3565 86.9968 79.7325V74.3043C87.0825 69.8987 85.4661 65.6289 82.4819 62.3782C79.4977 59.1276 76.4649 57.5569 72.0551 57.2525Z" fill="white"/>
</svg>
