<svg width="15" height="15" viewBox="0 0 15 15" fill="none" xmlns="http://www.w3.org/2000/svg">
<path d="M13.75 7.5C13.75 10.9525 10.9515 13.75 7.5 13.75C4.04846 13.75 1.25 10.9525 1.25 7.5C1.25 4.04947 4.04846 1.25 7.5 1.25C10.9515 1.25 13.75 4.04947 13.75 7.5ZM7.5 8.76008C6.85975 8.76008 6.34073 9.27911 6.34073 9.91935C6.34073 10.5596 6.85975 11.0786 7.5 11.0786C8.14025 11.0786 8.65927 10.5596 8.65927 9.91935C8.65927 9.27911 8.14025 8.76008 7.5 8.76008ZM6.39937 4.5931L6.58632 8.02051C6.59506 8.1809 6.72767 8.30645 6.88828 8.30645H8.11172C8.27233 8.30645 8.40494 8.1809 8.41368 8.02051L8.60063 4.5931C8.61008 4.41986 8.47215 4.27419 8.29866 4.27419H6.70131C6.52782 4.27419 6.38992 4.41986 6.39937 4.5931Z" fill="#AB9980"/>
</svg>
