<svg width="15" height="15" viewBox="0 0 15 15" fill="none" xmlns="http://www.w3.org/2000/svg">
<path d="M14.5718 4.1606L13.2253 5.51081C13.1593 5.57687 13.0697 5.61397 12.9764 5.61397C12.883 5.61397 12.7935 5.57687 12.7275 5.51081L9.47859 2.2592C9.41259 2.19311 9.37551 2.1035 9.37551 2.01007C9.37551 1.91663 9.41259 1.82702 9.47859 1.76093L10.8315 0.410721C11.0955 0.14768 11.4528 0 11.8253 0C12.1978 0 12.5551 0.14768 12.819 0.410721L14.5718 2.17142C14.7025 2.30189 14.8063 2.4569 14.8771 2.62757C14.9479 2.79824 14.9843 2.98122 14.9843 3.16601C14.9843 3.3508 14.9479 3.53377 14.8771 3.70445C14.8063 3.87512 14.7025 4.03013 14.5718 4.1606ZM8.31524 2.9214L0.630947 10.6148L0.0105802 14.1749C-0.00893531 14.2862 -0.00137594 14.4006 0.0326186 14.5083C0.0666131 14.6161 0.126042 14.714 0.205878 14.7939C0.285713 14.8739 0.383605 14.9333 0.491269 14.9674C0.598934 15.0014 0.713204 15.0089 0.824408 14.9894L4.38281 14.3659L12.0697 6.67256C12.1357 6.60648 12.1728 6.51687 12.1728 6.42343C12.1728 6.32999 12.1357 6.24038 12.0697 6.1743L8.81953 2.9214C8.75306 2.85518 8.6631 2.81801 8.56932 2.81801C8.47554 2.81801 8.38558 2.85518 8.31911 2.9214H8.31524ZM3.63218 9.95645C3.59393 9.91852 3.56356 9.87338 3.54284 9.82364C3.52211 9.7739 3.51144 9.72054 3.51144 9.66665C3.51144 9.61276 3.52211 9.5594 3.54284 9.50966C3.56356 9.45992 3.59393 9.41479 3.63218 9.37686L8.14628 4.85894C8.22443 4.78911 8.32631 4.75186 8.43103 4.75483C8.53575 4.75779 8.63536 4.80075 8.70944 4.87489C8.78351 4.94903 8.82644 5.04873 8.8294 5.15353C8.83237 5.25834 8.79515 5.36031 8.72538 5.43852L4.21127 9.95645C4.17338 9.99473 4.12828 10.0251 4.07858 10.0459C4.02889 10.0666 3.97557 10.0773 3.92173 10.0773C3.86788 10.0773 3.81457 10.0666 3.76487 10.0459C3.71517 10.0251 3.67007 9.99473 3.63218 9.95645ZM2.57717 12.4194H3.98041V13.483L2.09223 13.8135L1.18167 12.9008L1.51184 11.0111H2.57717V12.4194Z" fill="black" fill-opacity="0.5"/>
</svg>
