<svg width="19" height="19" viewBox="0 0 19 19" fill="none" xmlns="http://www.w3.org/2000/svg">
<path d="M18.4769 5.27009L16.7696 6.98036C16.6859 7.06403 16.5723 7.11103 16.454 7.11103C16.3356 7.11103 16.2221 7.06403 16.1383 6.98036L12.0188 2.86165C11.9351 2.77794 11.8881 2.66444 11.8881 2.54608C11.8881 2.42773 11.9351 2.31422 12.0188 2.23052L13.7343 0.520246C14.069 0.187061 14.5221 0 14.9944 0C15.4667 0 15.9198 0.187061 16.2544 0.520246L18.4769 2.75046C18.6427 2.91572 18.7743 3.11207 18.864 3.32826C18.9538 3.54444 19 3.77621 19 4.01028C19 4.24435 18.9538 4.47611 18.864 4.6923C18.7743 4.90848 18.6427 5.10483 18.4769 5.27009ZM10.5437 3.70043L0.800037 13.4454L0.0134156 17.9549C-0.0113299 18.0958 -0.00174469 18.2407 0.0413602 18.3772C0.0844651 18.5137 0.159821 18.6378 0.261052 18.739C0.362282 18.8402 0.486409 18.9156 0.622927 18.9586C0.759445 19.0017 0.904338 19.0113 1.04535 18.9866L5.55738 18.1969L15.3043 8.45191C15.388 8.36821 15.435 8.2547 15.435 8.13634C15.435 8.01799 15.388 7.90448 15.3043 7.82078L11.1831 3.70043C11.0988 3.61656 10.9848 3.56948 10.8658 3.56948C10.7469 3.56948 10.6329 3.61656 10.5486 3.70043H10.5437ZM4.60558 12.6115C4.55708 12.5635 4.51857 12.5063 4.4923 12.4433C4.46602 12.3803 4.45249 12.3127 4.45249 12.2444C4.45249 12.1762 4.46602 12.1086 4.4923 12.0456C4.51857 11.9826 4.55708 11.9254 4.60558 11.8774L10.3294 6.15465C10.4285 6.06621 10.5577 6.01902 10.6905 6.02278C10.8233 6.02654 10.9496 6.08095 11.0435 6.17486C11.1374 6.26877 11.1919 6.39506 11.1956 6.52781C11.1994 6.66056 11.1522 6.78973 11.0637 6.8888L5.33987 12.6115C5.29182 12.66 5.23464 12.6985 5.17162 12.7248C5.1086 12.751 5.041 12.7646 4.97273 12.7646C4.90445 12.7646 4.83685 12.751 4.77384 12.7248C4.71082 12.6985 4.65363 12.66 4.60558 12.6115ZM3.26784 15.7312H5.04714V17.0785L2.65293 17.497L1.49835 16.3411L1.91701 13.9473H3.26784V15.7312Z" fill="#573300" fill-opacity="0.5"/>
</svg>
