<svg width="15" height="14" viewBox="0 0 15 14" fill="none" xmlns="http://www.w3.org/2000/svg">
<path d="M12.2105 7.625H3.7097C3.30729 7.625 2.98218 7.3457 2.98218 7C2.98218 6.6543 3.30729 6.375 3.7097 6.375H12.2105C12.6129 6.375 12.938 6.6543 12.938 7C12.938 7.3457 12.6129 7.625 12.2105 7.625Z" fill="white"/>
<g clip-path="url(#clip0_260_8288)">
<path d="M8.59435 2.75081L8.59435 11.2708C8.59435 11.6742 8.31568 12 7.97076 12C7.62584 12 7.34717 11.6742 7.34717 11.2708L7.34717 2.75081C7.34717 2.34749 7.62583 2.02165 7.97076 2.02165C8.31568 2.02165 8.59435 2.34749 8.59435 2.75081Z" fill="white"/>
</g>
<defs>
<clipPath id="clip0_260_8288">
<rect width="14" height="11.9729" fill="white" transform="translate(1.98438 14) rotate(-90)"/>
</clipPath>
</defs>
</svg>
