<svg width="14" height="14" viewBox="0 0 14 14" fill="none" xmlns="http://www.w3.org/2000/svg">
<path d="M11.5833 1.16699H2.41667C1.72657 1.16699 1.16667 1.72689 1.16667 2.41699V11.5837C1.16667 12.2738 1.72657 12.8337 2.41667 12.8337H11.5833C12.2734 12.8337 12.8333 12.2738 12.8333 11.5837V2.41699C12.8333 1.72689 12.2734 1.16699 11.5833 1.16699ZM11.4271 11.5837H2.57292C2.48698 11.5837 2.41667 11.5133 2.41667 11.4274V2.57324C2.41667 2.4873 2.48698 2.41699 2.57292 2.41699H11.4271C11.513 2.41699 11.5833 2.4873 11.5833 2.57324V11.4274C11.5833 11.5133 11.513 11.5837 11.4271 11.5837Z" fill="black" fill-opacity="0.5"/>
</svg>
