<svg width="16" height="16" viewBox="0 0 16 16" fill="none" xmlns="http://www.w3.org/2000/svg">
<path d="M13.2381 1.33301H2.7619C1.97321 1.33301 1.33333 1.97289 1.33333 2.76158V13.2378C1.33333 14.0265 1.97321 14.6663 2.7619 14.6663H13.2381C14.0268 14.6663 14.6667 14.0265 14.6667 13.2378V2.76158C14.6667 1.97289 14.0268 1.33301 13.2381 1.33301ZM13.0595 13.2378H2.94047C2.84226 13.2378 2.7619 13.1574 2.7619 13.0592V2.94015C2.7619 2.84194 2.84226 2.76158 2.94047 2.76158H13.0595C13.1577 2.76158 13.2381 2.84194 13.2381 2.94015V13.0592C13.2381 13.1574 13.1577 13.2378 13.0595 13.2378Z" fill="black"/>
</svg>
