<svg width="17" height="17" viewBox="0 0 17 17" fill="none" xmlns="http://www.w3.org/2000/svg">
<path d="M13.3698 3.18783H12.0416V1.74902C12.0416 1.56566 11.893 1.41699 11.7096 1.41699H10.6028C10.4195 1.41699 10.2708 1.56566 10.2708 1.74902V3.18783H6.72915V1.74902C6.72915 1.56566 6.58048 1.41699 6.39711 1.41699H5.29034C5.10698 1.41699 4.95831 1.56566 4.95831 1.74902V3.18783H3.63019C2.89668 3.18783 2.30206 3.78244 2.30206 4.51595V14.2555C2.30206 14.989 2.89668 15.5837 3.63019 15.5837H13.3698C14.1033 15.5837 14.6979 14.989 14.6979 14.2555V4.51595C14.6979 3.78244 14.1033 3.18783 13.3698 3.18783ZM13.2038 14.2555H3.7962C3.75217 14.2555 3.70995 14.238 3.67881 14.2069C3.64768 14.1758 3.63019 14.1335 3.63019 14.0895V5.84408H13.3698V14.0895C13.3698 14.1335 13.3523 14.1758 13.3211 14.2069C13.29 14.238 13.2478 14.2555 13.2038 14.2555ZM11.7415 8.70369L7.80388 12.6097C7.67369 12.7389 7.46346 12.738 7.3343 12.6079L5.25659 10.5133C5.12745 10.3831 5.12828 10.1729 5.25847 10.0437L5.88709 9.42019C6.01727 9.29106 6.2275 9.29189 6.35663 9.4221L7.57696 10.6523L10.6502 7.60367C10.7804 7.47454 10.9907 7.47537 11.1198 7.60556L11.7434 8.23415C11.8725 8.36433 11.8716 8.57456 11.7415 8.70369Z" fill="black" fill-opacity="0.5"/>
</svg>
