<svg width="22" height="22" viewBox="0 0 22 22" fill="none" xmlns="http://www.w3.org/2000/svg">
<path d="M5.271 19.0212H16.7293V6.41699H15.5835V4.69824C15.5835 3.74899 14.814 2.97949 13.8647 2.97949H8.13558C7.18633 2.97949 6.41683 3.74899 6.41683 4.69824V6.41699H5.271V19.0212ZM8.7085 5.27116H13.2918V6.41699H8.7085V5.27116ZM20.1668 8.13574V17.3024C20.1668 18.2517 19.3973 19.0212 18.4481 19.0212H17.8752V6.41699H18.4481C19.3973 6.41699 20.1668 7.18649 20.1668 8.13574ZM4.12516 19.0212H3.55225C2.60299 19.0212 1.8335 18.2517 1.8335 17.3024V8.13574C1.8335 7.18649 2.60299 6.41699 3.55225 6.41699H4.12516V19.0212ZM14.4377 11.5732V12.7191C14.4377 13.0355 14.1812 13.292 13.8647 13.292H12.146V15.0107C12.146 15.3272 11.8895 15.5837 11.5731 15.5837H10.4272C10.1108 15.5837 9.85433 15.3272 9.85433 15.0107V13.292H8.13558C7.81915 13.292 7.56266 13.0355 7.56266 12.7191V11.5732C7.56266 11.2568 7.81915 11.0003 8.13558 11.0003H9.85433V9.28158C9.85433 8.96515 10.1108 8.70866 10.4272 8.70866H11.5731C11.8895 8.70866 12.146 8.96515 12.146 9.28158V11.0003H13.8647C14.1812 11.0003 14.4377 11.2568 14.4377 11.5732Z" fill="#573300"/>
</svg>
