<svg width="64" height="43" viewBox="0 0 64 43" fill="none" xmlns="http://www.w3.org/2000/svg">
<line x1="56.25" y1="28.25" x2="56.25" y2="40.75" stroke="white" stroke-width="4.5" stroke-linecap="round"/>
<line x1="50.25" y1="34.75" x2="61.75" y2="34.75" stroke="white" stroke-width="4.5" stroke-linecap="round"/>
<path d="M34.8637 17.9158C34.8637 18.5064 34.6904 19.0837 34.3657 19.5748C34.0411 20.0659 33.5797 20.4486 33.0398 20.6746C32.4999 20.9006 31.9059 20.9598 31.3327 20.8445C30.7596 20.7293 30.2332 20.4449 29.82 20.0273C29.4068 19.6097 29.1254 19.0776 29.0114 18.4984C28.8974 17.9191 28.9559 17.3187 29.1795 16.7731C29.4031 16.2274 29.7818 15.7611 30.2677 15.4329C30.7535 15.1048 31.3248 14.9297 31.9091 14.9297C32.6927 14.9297 33.4442 15.2443 33.9983 15.8043C34.5524 16.3643 34.8637 17.1238 34.8637 17.9158Z" fill="white"/>
<path d="M23.0453 17.9158C23.0453 18.5064 22.872 19.0837 22.5474 19.5748C22.2227 20.0659 21.7613 20.4486 21.2214 20.6746C20.6816 20.9006 20.0875 20.9598 19.5144 20.8445C18.9412 20.7293 18.4148 20.4449 18.0016 20.0273C17.5884 19.6097 17.307 19.0776 17.193 18.4984C17.079 17.9191 17.1375 17.3187 17.3611 16.7731C17.5848 16.2274 17.9634 15.7611 18.4493 15.4329C18.9352 15.1048 19.5064 14.9297 20.0908 14.9297C20.8744 14.9297 21.6259 15.2443 22.18 15.8043C22.734 16.3643 23.0453 17.1238 23.0453 17.9158Z" fill="white"/>
<path d="M51.8582 23.0771C52.0473 22.0346 52.0473 20.9662 51.8582 19.9237C51.5614 18.1605 50.7819 16.5165 49.608 15.178C48.4342 13.8396 46.9128 12.8602 45.2164 12.351C43.9712 9.70537 42.2106 7.34096 40.04 5.39929C37.5679 3.20175 34.6245 1.61478 31.4418 0.763543C28.2591 -0.0876923 24.9243 -0.179909 21.7003 0.494165C18.4763 1.16824 15.4514 2.59017 12.8641 4.6478C10.2769 6.70543 8.198 9.34248 6.79152 12.351C5.09174 12.8555 3.56672 13.8332 2.39081 15.1723C1.21489 16.5115 0.435526 18.158 0.141818 19.9237C-0.0472727 20.9662 -0.0472727 22.0346 0.141818 23.0771C0.438569 24.8403 1.21806 26.4843 2.39195 27.8228C3.56585 29.1612 5.08721 30.1406 6.78364 30.6498C8.01256 33.2788 9.75762 35.6277 11.9127 37.5537C15.789 41.0612 20.809 43.0006 26.0118 43.0006C31.2146 43.0006 36.2346 41.0612 40.1109 37.5537C42.2608 35.6228 44.005 33.275 45.24 30.6498C46.9331 30.1388 48.4506 29.1583 49.6204 27.8198C50.7902 26.4813 51.5654 24.8383 51.8582 23.0771ZM42.5455 26.2782C42.3159 26.2661 42.0871 26.2422 41.86 26.2065C41.3965 27.7784 40.7119 29.2748 39.8273 30.6498C38.3279 32.9752 36.278 34.8856 33.8635 36.208C31.449 37.5304 28.7462 38.223 26 38.223C23.2538 38.223 20.551 37.5304 18.1365 36.208C15.722 34.8856 13.6722 32.9752 12.1727 30.6498C11.2881 29.2748 10.6035 27.7784 10.14 26.2065C9.91287 26.2422 9.68409 26.2661 9.45455 26.2782C8.2008 26.2782 6.99839 25.7748 6.11186 24.8788C5.22532 23.9828 4.72727 22.7675 4.72727 21.5004C4.72727 20.2333 5.22532 19.018 6.11186 18.122C6.99839 17.226 8.2008 16.7226 9.45455 16.7226C9.68409 16.7347 9.91288 16.7586 10.14 16.7943C10.6035 15.2224 11.2881 13.726 12.1727 12.351C13.6722 10.0256 15.722 8.11518 18.1365 6.79277C20.551 5.47036 23.2538 4.77777 26 4.77777C28.7462 4.77777 31.449 5.47036 33.8635 6.79277C36.278 8.11518 38.3279 10.0256 39.8273 12.351C40.7119 13.726 41.3965 15.2224 41.86 16.7943C42.0871 16.7586 42.3159 16.7347 42.5455 16.7226C43.7992 16.7226 45.0016 17.226 45.8881 18.122C46.7747 19.018 47.2727 20.2333 47.2727 21.5004C47.2727 22.7675 46.7747 23.9828 45.8881 24.8788C45.0016 25.7748 43.7992 26.2782 42.5455 26.2782ZM15.3636 26.2782C16.2389 28.4002 17.7159 30.2129 19.6087 31.488C21.5015 32.7632 23.7253 33.4436 26 33.4436C28.2747 33.4436 30.4985 32.7632 32.3913 31.488C34.2841 30.2129 35.7611 28.4002 36.6364 26.2782H15.3636Z" fill="white"/>
</svg>
