<svg width="16" height="16" viewBox="0 0 16 16" fill="none" xmlns="http://www.w3.org/2000/svg">
<path d="M13.2381 1.33301H2.7619C1.97291 1.33301 1.33333 1.97259 1.33333 2.76158V13.2378C1.33333 14.0268 1.97291 14.6663 2.7619 14.6663H13.2381C14.0271 14.6663 14.6667 14.0268 14.6667 13.2378V2.76158C14.6667 1.97259 14.0271 1.33301 13.2381 1.33301ZM13.2381 13.2378H2.7619V2.76158H13.2381V13.2378ZM12.1707 6.0436L7.03413 11.139C6.8941 11.2779 6.66797 11.277 6.52907 11.1369L3.82726 8.41325C3.68836 8.27322 3.68925 8.04709 3.82931 7.90816L4.50547 7.23744C4.6455 7.09854 4.87163 7.09944 5.01053 7.2395L6.79005 9.03345L10.997 4.86036C11.137 4.72146 11.3631 4.72235 11.502 4.86238L12.1727 5.53851C12.3116 5.67857 12.3107 5.9047 12.1707 6.0436Z" fill="black" fill-opacity="0.5"/>
</svg>
