<svg width="85" height="86" viewBox="0 0 85 86" fill="none" xmlns="http://www.w3.org/2000/svg">
<path d="M42.5 0C50.9057 0 59.1227 2.50562 66.1117 7.20001C73.1008 11.8944 78.5482 18.5667 81.7649 26.3732C84.9816 34.1797 85.8232 42.7697 84.1834 51.057C82.5435 59.3443 78.4958 66.9567 72.552 72.9315C66.6083 78.9063 59.0355 82.9752 50.7913 84.6237C42.5471 86.2721 34.0018 85.4261 26.236 82.1926C18.4701 78.959 11.8325 73.4832 7.16254 66.4575C2.49258 59.4319 0 51.172 0 42.7223C0 31.3916 4.47767 20.5251 12.448 12.5131C20.4183 4.50109 31.2283 0 42.5 0V0Z" fill="#FFBF26"/>
<line x1="67.25" y1="48.25" x2="67.25" y2="60.75" stroke="white" stroke-width="4.5" stroke-linecap="round"/>
<line x1="61.25" y1="54.75" x2="72.75" y2="54.75" stroke="white" stroke-width="4.5" stroke-linecap="round"/>
<path d="M45.8622 37.9158C45.8622 38.5064 45.6889 39.0837 45.3643 39.5748C45.0396 40.0659 44.5782 40.4486 44.0383 40.6746C43.4985 40.9006 42.9044 40.9598 42.3313 40.8445C41.7581 40.7293 41.2317 40.4449 40.8185 40.0273C40.4053 39.6097 40.1239 39.0776 40.0099 38.4984C39.8959 37.9191 39.9544 37.3187 40.178 36.7731C40.4016 36.2274 40.7803 35.7611 41.2662 35.4329C41.7521 35.1048 42.3233 34.9297 42.9077 34.9297C43.6913 34.9297 44.4428 35.2443 44.9968 35.8043C45.5509 36.3643 45.8622 37.1238 45.8622 37.9158Z" fill="white"/>
<path d="M34.0458 37.9158C34.0458 38.5064 33.8725 39.0837 33.5479 39.5748C33.2232 40.0659 32.7618 40.4486 32.2219 40.6746C31.682 40.9006 31.088 40.9598 30.5149 40.8445C29.9417 40.7293 29.4153 40.4449 29.0021 40.0273C28.5889 39.6097 28.3075 39.0776 28.1935 38.4984C28.0795 37.9191 28.138 37.3187 28.3616 36.7731C28.5852 36.2274 28.9639 35.7611 29.4498 35.4329C29.9357 35.1048 30.5069 34.9297 31.0913 34.9297C31.8749 34.9297 32.6264 35.2443 33.1804 35.8043C33.7345 36.3643 34.0458 37.1238 34.0458 37.9158Z" fill="white"/>
<path d="M62.8582 43.0771C63.0473 42.0346 63.0473 40.9662 62.8582 39.9237C62.5614 38.1605 61.7819 36.5165 60.608 35.178C59.4342 33.8396 57.9128 32.8602 56.2164 32.351C54.9712 29.7054 53.2106 27.341 51.04 25.3993C48.5679 23.2018 45.6245 21.6148 42.4418 20.7635C39.2591 19.9123 35.9243 19.8201 32.7003 20.4942C29.4763 21.1682 26.4514 22.5902 23.8641 24.6478C21.2769 26.7054 19.198 29.3425 17.7915 32.351C16.0917 32.8555 14.5667 33.8332 13.3908 35.1723C12.2149 36.5115 11.4355 38.158 11.1418 39.9237C10.9527 40.9662 10.9527 42.0346 11.1418 43.0771C11.4386 44.8403 12.2181 46.4843 13.392 47.8228C14.5659 49.1612 16.0872 50.1406 17.7836 50.6498C19.0126 53.2788 20.7576 55.6277 22.9127 57.5537C26.789 61.0612 31.809 63.0006 37.0118 63.0006C42.2146 63.0006 47.2346 61.0612 51.1109 57.5537C53.2608 55.6228 55.005 53.275 56.24 50.6498C57.9331 50.1388 59.4506 49.1583 60.6204 47.8198C61.7902 46.4813 62.5654 44.8383 62.8582 43.0771ZM53.5455 46.2782C53.3159 46.2661 53.0871 46.2422 52.86 46.2065C52.3965 47.7784 51.7119 49.2748 50.8273 50.6498C49.3279 52.9752 47.278 54.8856 44.8635 56.208C42.449 57.5304 39.7462 58.223 37 58.223C34.2538 58.223 31.551 57.5304 29.1365 56.208C26.722 54.8856 24.6722 52.9752 23.1727 50.6498C22.2881 49.2748 21.6035 47.7784 21.14 46.2065C20.9129 46.2422 20.6841 46.2661 20.4545 46.2782C19.2008 46.2782 17.9984 45.7748 17.1119 44.8788C16.2253 43.9828 15.7273 42.7675 15.7273 41.5004C15.7273 40.2333 16.2253 39.018 17.1119 38.122C17.9984 37.226 19.2008 36.7226 20.4545 36.7226C20.6841 36.7347 20.9129 36.7586 21.14 36.7943C21.6035 35.2224 22.2881 33.726 23.1727 32.351C24.6722 30.0256 26.722 28.1152 29.1365 26.7928C31.551 25.4704 34.2538 24.7778 37 24.7778C39.7462 24.7778 42.449 25.4704 44.8635 26.7928C47.278 28.1152 49.3279 30.0256 50.8273 32.351C51.7119 33.726 52.3965 35.2224 52.86 36.7943C53.0871 36.7586 53.3159 36.7347 53.5455 36.7226C54.7992 36.7226 56.0016 37.226 56.8881 38.122C57.7747 39.018 58.2727 40.2333 58.2727 41.5004C58.2727 42.7675 57.7747 43.9828 56.8881 44.8788C56.0016 45.7748 54.7992 46.2782 53.5455 46.2782ZM26.3636 46.2782C27.2389 48.4002 28.7159 50.2129 30.6087 51.488C32.5015 52.7632 34.7253 53.4436 37 53.4436C39.2747 53.4436 41.4985 52.7632 43.3913 51.488C45.2841 50.2129 46.7611 48.4002 47.6364 46.2782H26.3636Z" fill="white"/>
</svg>
