<?xml version="1.0" encoding="utf-8"?>
<!-- Generator: Adobe Illustrator 25.4.1, SVG Export Plug-In . SVG Version: 6.00 Build 0)  -->
<svg version="1.1" id="레이어_1" xmlns="http://www.w3.org/2000/svg" xmlns:xlink="http://www.w3.org/1999/xlink" x="0px"
	 y="0px" viewBox="0 0 500 386" style="enable-background:new 0 0 500 386;" xml:space="preserve">
<style type="text/css">
	.st0{fill:#FFD8C7;}
	.st1{fill:#0E0E0E;}
	.st2{fill:#FFFFFF;}
	.st3{fill:#D18ADE;}
	.st4{fill:#714038;}
	.st5{fill:#6EA1DD;}
	.st6{fill:#FFB9A0;}
	.st7{fill:#686867;}
	.st8{fill:#54453F;}
	.st9{fill:#FFD976;}
	.st10{fill:#FF827D;}
	.st11{fill:#946958;}
</style>
<g>
	<g>
		<g>
			<g>
				<path class="st0" d="M386.2,256.7c0.1,6.7,0.2,13.5,0.3,20.2c0.1,9.6,0.5,19.7,5.8,27.6c5.5,8.1,15,12,24.2,14
					c3.2,0.7,9.9,2.9,12.8,0.5c3.2-2.7,2.2-10.8,2.5-14.4c0.1-2,0.2-4.2-1.1-5.7c-1.1-1.2-2.8-1.6-4.3-2.4c-2.5-1.3-4.2-3.7-5.5-6.2
					c-2.4-4.7-3.7-9.9-3.8-15.2c-0.1-5.1,2.3-8.3-3.4-10.5c-4.1-1.6-8.3-2.8-12.7-3.6"/>
			</g>
			<g>
				<g>
					<path class="st1" d="M384.6,256.7c0.1,7.2,0.2,14.4,0.3,21.6c0.1,6.1,0.4,12.4,2,18.3c1.6,5.7,4.8,11,9.4,14.8
						c4.4,3.6,9.7,6,15.2,7.6c2.4,0.7,4.8,1.2,7.1,1.8c2.4,0.6,4.9,1.2,7.4,1c2.4-0.1,4.6-1.1,5.8-3.4c1.1-2.1,1.4-4.6,1.5-6.9
						c0.1-2.1,0-4.2,0.1-6.3c0.1-2.8,0.3-5.9-2.1-7.9c-1.2-1-2.6-1.4-4-2.1c-1.2-0.6-2.2-1.5-3-2.6c-1.8-2.3-3.1-5.2-4-8.1
						c-1-3.1-1.5-6.3-1.5-9.5c0-2,0.5-4,0.4-6c-0.1-2.3-1.3-4.1-3.4-5.2c-1.4-0.8-2.9-1.3-4.4-1.8c-1.7-0.6-3.3-1.1-5.1-1.5
						c-1.6-0.4-3.3-0.8-4.9-1.1c-0.9-0.2-1.8,0.2-2.1,1.2c-0.2,0.8,0.3,1.9,1.2,2.1c3.2,0.6,6.4,1.4,9.6,2.4c1.3,0.5,2.8,0.9,4,1.5
						c0.2,0.1,0.4,0.3,0.7,0.4c0.2,0.2-0.3-0.2,0.1,0.1c0.1,0.1,0.1,0.1,0.2,0.2c0.1,0.1,0.4,0.5,0.3,0.3c-0.2-0.2,0.1,0.1,0.1,0.1
						c0.1,0.1,0.1,0.2,0.2,0.3c-0.2-0.3,0,0,0,0.2c0,0.1,0.1,0.8,0.1,0.3c0,0.4,0.1,0.8,0,1.2c0,0.9-0.2,1.8-0.3,2.8
						c-0.3,2.8-0.1,5.6,0.4,8.4c0.6,3.2,1.6,6.3,3,9.2c1.3,2.7,2.9,5.2,5.3,7c1.1,0.8,2.3,1.3,3.6,1.9c1.1,0.5,1.8,1.1,2.1,2.2
						c0.3,1.1,0.1,2.4,0.1,3.6c-0.1,0.9,0,1.8,0,2.7c0,1.1,0,2.2,0,3.3c0,0.5,0,1.1-0.1,1.6c0,0.3,0,0.5-0.1,0.8
						c0,0.1,0,0.3-0.1,0.4c0-0.3,0,0.2,0,0.2c-0.1,0.5-0.2,0.9-0.3,1.4c-0.1,0.2-0.1,0.5-0.2,0.7c0,0.1-0.1,0.2-0.1,0.3
						c-0.1,0.4,0.1-0.2-0.1,0.2c-0.1,0.2-0.2,0.4-0.3,0.6c0,0.1-0.1,0.2-0.2,0.2c0.2-0.3,0.1-0.1,0,0c-0.2,0.2-0.3,0.3-0.5,0.5
						c0.3-0.2-0.3,0.2-0.4,0.2c-0.3,0.2-0.1,0,0,0c-0.1,0-0.2,0.1-0.4,0.1c-0.2,0.1-0.5,0.1-0.7,0.2c0,0-0.3,0-0.1,0
						c-0.1,0-0.2,0-0.3,0c-0.3,0-0.7,0-1,0c-1.2,0-2.1-0.2-3.3-0.4c-2.2-0.4-4.4-1-6.5-1.5c-5.1-1.2-10.1-3-14.5-5.9
						c-4.4-2.9-7.9-7-9.8-12c-2.1-5.4-2.6-11.2-2.8-16.9c-0.2-6.7-0.2-13.3-0.3-20c0-1.7,0-3.5-0.1-5.2
						C387.9,254.5,384.5,254.5,384.6,256.7L384.6,256.7z"/>
				</g>
			</g>
		</g>
		<g>
			<g>
				<path class="st2" d="M432.3,296c-2.7,0.4-5.5,1.5-6.4,3.3c-0.9,2-0.5,4.3,0,6.4c0.5,2.1,1.1,4.3,0.4,6.4c-0.6,2-2.2,3.5-3.5,5.2
					s-2,4-0.9,5.7c0.8,1.2,2.3,1.8,3.8,2.2c2.1,0.5,4.4,0.7,6.5,1.4c4.9,1.6,6.8,7.5,10.6,10.6c1.9,1.5,4.4,2.5,6.3,1.3
					c2.4-1.5,2.1-5.5,1.4-8.6c-1.9-8.5-4.3-17-7.2-25.3c-1.2-3.5-3-7.3-6.2-8.4C435.8,295.9,434.1,295.8,432.3,296z"/>
			</g>
			<g>
				<g>
					<path class="st1" d="M431.8,294.4c-2.1,0.3-4.2,1-5.8,2.3c-1.7,1.4-2.4,3.5-2.3,5.6c0,2.3,0.9,4.5,1.2,6.7
						c0.1,1.1,0.1,2.2-0.3,3.2c-0.3,0.8-0.9,1.5-1.4,2.2c-1.3,1.7-2.8,3.3-3.2,5.5c-0.5,2.4,0.3,4.6,2.4,5.9
						c1.8,1.2,4.1,1.5,6.2,1.9c1.1,0.2,2.2,0.4,3.2,0.7c0.6,0.2,1.3,0.5,1.9,1c0.2,0.2-0.1-0.1,0.1,0.1c0.1,0.1,0.1,0.1,0.2,0.2
						c0.1,0.1,0.3,0.2,0.4,0.4c0.3,0.3,0.6,0.6,0.9,0.9c0.5,0.6,1,1.2,1.4,1.7c1.1,1.4,2,2.9,3.2,4.2c2.5,2.9,7.2,5.7,10.7,2.8
						c3-2.4,2.2-7.1,1.5-10.4c-1-4.8-2.3-9.5-3.6-14.2c-1.3-4.4-2.7-9-4.5-13.2c-1.5-3.6-4-6.9-8.1-7.5c-1.2-0.2-2.4-0.1-3.6,0
						c-0.9,0.1-1.7,0.7-1.7,1.7c0,0.8,0.8,1.8,1.7,1.7c1.8-0.2,3.7-0.2,5.2,0.7c0.6,0.3,1,0.8,1.5,1.4c0.4,0.5,0.9,1.3,1.3,2
						c0.8,1.5,1.3,3.1,1.9,4.7c0.7,2.1,1.5,4.3,2.1,6.4c1.3,4.2,2.5,8.5,3.5,12.8c0.5,2,1,3.9,1.3,5.9c0.2,1.3,0.3,3,0,4.3
						c-0.1,0.5-0.4,0.9-0.8,1.2c0.2-0.2-0.3,0.1-0.2,0.1c-0.4,0.2,0,0-0.3,0.1c-0.2,0.1-0.7,0.1-0.9,0c-1.5-0.2-2.8-1.2-3.9-2.3
						c-1.1-1.1-1.8-2.1-2.7-3.4c-0.9-1.3-1.9-2.5-2.9-3.7c-1.2-1.2-2.5-2.2-4.1-2.8c-1.8-0.7-3.8-0.9-5.7-1.3
						c-1.4-0.3-3.6-0.7-4.2-2.1c-0.5-1.2,0.6-2.9,1.4-4c1.3-1.7,2.9-3.3,3.4-5.5c0.7-2.4,0-4.9-0.5-7.3c-0.2-1-0.4-2.1-0.4-3.2
						c0-0.5,0.1-1,0.2-1.4c0.1-0.4,0.3-0.7,0.4-0.8c1.1-1.3,3.3-1.8,5-2c0.9-0.1,1.4-1.3,1.2-2.1
						C433.6,294.6,432.7,294.3,431.8,294.4z"/>
				</g>
			</g>
		</g>
		<g>
			<g>
				<path class="st1" d="M433,325c-1.6,0.7-2.9,2-3.9,3.5c-1,1.5-1.7,3.3-1.3,5.1c0.4,1.6,1.6,3,3.3,3.5c1.7,0.4,3.5-0.2,4.7-1.4
					c1.3-1.2,1.9-3,1.7-4.8c-0.2-2-1.1-3.8-1.8-5.6c-0.4-0.8-0.7-1.7-1.1-2.5c-0.3-0.8-0.8-1.6-0.9-2.5c0-0.1,0-0.2,0-0.3
					c0,0,0.2-0.6,0.1-0.4c0.1-0.1,0.2-0.3,0.3-0.3c0.2-0.2,0.4-0.3,0.6-0.3c0.1,0,0.3-0.1,0.4-0.1c-0.3,0,0.5,0.1,0.3,0
					c0.6,0.1,0.8,0.3,1.1,0.8c0,0,0.1,0.3,0.1,0.1c0.1,0.2,0.2,0.5,0.2,0.7c0-0.1,0-0.3,0,0.1c0,0.2,0,0.5,0,0.7c0-0.1,0-0.2,0,0.1
					c-0.1,0.2-0.1,0.5-0.2,0.7c-0.2,0.4-0.4,0.8-0.6,1.1c-0.5,0.8-1.2,1.4-1.8,2.1c-1.5,1.6,0.9,4,2.4,2.4c2.3-2.3,4.7-5.4,3.4-8.8
					c-0.6-1.5-1.8-2.8-3.5-3.2c-1.6-0.4-3.5,0.2-4.6,1.4c-1.4,1.4-1.5,3.4-0.9,5.2c0.6,1.8,1.5,3.6,2.3,5.3c0.6,1.4,1.5,3.1,1.1,4.7
					c-0.1,0.5-0.3,0.8-0.8,1.2c-0.4,0.3-0.9,0.5-1.2,0.5c-0.4,0,0.1,0.1-0.3-0.1c0.1,0-0.3-0.2-0.3-0.2c0.2,0.1-0.2-0.2-0.1-0.1
					c-0.1-0.2-0.2-0.3-0.3-0.5c0.1,0.2,0-0.2,0-0.2c0-0.1,0-0.1,0-0.4c0-0.3,0.1-0.7,0.2-1c0.6-1.5,1.9-2.9,3.4-3.5
					c0.8-0.4,1-1.6,0.6-2.3C434.8,324.7,433.8,324.6,433,325L433,325z"/>
			</g>
		</g>
		<g>
			<g>
				<path class="st0" d="M456.7,348.5c-2.2-6.9-0.8-26.6-1-30.6c-0.8-11.8-2.5-23.5-4.9-35c-1.7-7.8-2.4-18,5.4-23.1
					c1.8-1.2,4.1-1.2,6.2-1.2c5.6,0,12,0.4,15.5,4.8c1.8,2.2,2.5,5.1,3,7.9c5.2,26.1,1.8,52.5-0.3,78.7c-0.1,0.8-0.2,1.7-0.8,2.3
					c-0.6,0.6-1.5,0.6-2.2,0.5c-6.4-0.4-12.7-1-19-2C457.7,350.8,457.1,349.9,456.7,348.5z"/>
			</g>
			<g>
				<g>
					<path class="st1" d="M458.3,348c-0.3-1-0.5-1.9-0.6-2.9c0-0.1-0.1-0.5,0-0.1c0-0.1,0-0.3-0.1-0.4c0-0.3-0.1-0.6-0.1-0.9
						c-0.1-0.6-0.1-1.2-0.2-1.9c-0.2-2.8-0.2-5.7-0.2-8.5c0-4.8,0.3-9.5,0.2-14.3c0-3.4-0.5-6.8-0.8-10.2c-0.5-4.5-1.1-9-1.8-13.5
						c-0.7-4.4-1.5-8.8-2.4-13.1c-0.6-2.9-1-5.5-1-8.5c0-1.6,0.1-2.9,0.4-4.3c0.3-1.4,0.7-2.7,1.3-3.8c1.3-2.5,3.6-5,6.7-5.2
						c1.7-0.2,3.5-0.1,5.2,0c1.7,0.1,3.3,0.2,4.9,0.6c3,0.6,5.8,1.9,7.4,4.7c0.9,1.7,1.4,3.6,1.8,5.4c0.4,2.1,0.8,4.3,1.2,6.4
						c0.7,4.4,1.1,8.8,1.4,13.2c0.5,8.9,0.3,17.8-0.2,26.6c-0.5,9-1.3,18-2.1,26.9c-0.2,2-0.2,4.3-0.5,6.2c0,0.3-0.1,0.6-0.2,0.7
						c0.1-0.1,0.2,0-0.1,0c0.3,0-0.4,0-0.3,0c-1,0-2.1-0.1-3.1-0.2c-4.5-0.3-8.9-0.8-13.3-1.4c-0.5-0.1-1.1-0.2-1.6-0.2
						c-0.3,0-0.5-0.1-0.8-0.1c-0.1,0-0.2,0-0.3,0c-0.2,0-0.2,0,0,0c-0.2-0.4,0.1,0.3-0.1-0.1c0.2,0.3-0.1-0.2-0.1-0.2
						C458.5,348.7,458.4,348.4,458.3,348c-0.3-0.9-1.2-1.4-2.1-1.2c-0.9,0.2-1.5,1.2-1.2,2.1c0.3,1,0.7,1.9,1.4,2.7
						c0.7,0.7,1.5,0.9,2.5,1c2.4,0.4,4.8,0.7,7.2,0.9c2.3,0.3,4.7,0.5,7,0.7c1.2,0.1,2.4,0.2,3.6,0.2c1,0.1,2,0.1,2.9-0.2
						c2.5-0.9,2.5-3.7,2.6-5.9c0.2-2.3,0.4-4.7,0.6-7c0.4-4.7,0.8-9.3,1.2-14c0.7-9.3,1.3-18.7,1.1-28c-0.1-9.5-0.9-18.9-2.7-28.2
						c-0.8-3.9-1.9-8-5.2-10.5c-2.9-2.3-6.6-3.1-10.2-3.5c-1.8-0.2-3.6-0.2-5.3-0.2c-2.1,0-4.2,0.2-6.1,1.2c-3,1.7-5.2,4.7-6.4,7.8
						c-2.4,6.4-0.9,13.5,0.4,20c1.8,9.1,3.2,18.2,4,27.5c0.2,2.5,0.4,5,0.4,7.6c0,2.5-0.1,5.1-0.2,7.6c-0.1,5.8-0.2,11.7,0.6,17.4
						c0.1,1,0.3,2,0.6,2.9C455.7,351,459,350.1,458.3,348z"/>
				</g>
			</g>
		</g>
		<g>
			<g>
				<path class="st2" d="M454.9,356.5c0.2-2.7,1.2-5.6,3.1-6.6c2-1.1,4.3-1,6.5-0.7c2.2,0.3,4.4,0.6,6.5-0.3c1.9-0.8,3.4-2.6,5.1-4
					c1.7-1.4,3.9-2.4,5.8-1.5c1.3,0.6,2,2.1,2.4,3.5c0.6,2,0.9,4.2,1.7,6.2c1.9,4.7,7.9,6,11.2,9.4c1.6,1.7,2.7,4.1,1.6,6.1
					c-1.4,2.6-5.4,2.6-8.6,2.3c-8.7-0.9-17.4-2.4-25.8-4.5c-3.5-0.9-7.5-2.2-8.8-5.2C454.9,360.1,454.7,358.3,454.9,356.5z"/>
			</g>
			<g>
				<g>
					<path class="st1" d="M456.6,356.5c0.1-1.6,0.5-3.3,1.5-4.6c-0.2,0.2,0.2-0.2,0.2-0.2c0,0,0.4-0.4,0.2-0.2
						c0.3-0.2,0.6-0.4,1-0.5c0.9-0.3,1.9-0.4,2.8-0.3c2,0.1,3.9,0.6,5.9,0.5c2.3-0.1,4.2-0.9,6-2.4c1.4-1.1,2.6-2.5,4.1-3.4
						c0.6-0.4,1.4-0.6,2-0.6c0.5,0,1,0.4,1.4,0.9c1,1.5,1.2,3.5,1.7,5.2c0.5,1.9,1.1,3.7,2.3,5.3c1.9,2.4,4.8,3.8,7.4,5.4
						c1.3,0.8,2.3,1.4,3.2,2.7c0.5,0.6,0.8,1.3,1,2c0.2,0.7,0.1,1.2-0.3,1.8c0.2-0.2-0.5,0.5-0.3,0.3c-0.3,0.2-0.6,0.4-0.9,0.5
						c0.3-0.1-0.3,0.1-0.3,0.1c-0.2,0.1-0.3,0.1-0.5,0.1c-0.4,0.1-0.8,0.2-1,0.2c-1.7,0.2-3.3,0-5-0.2c-4.4-0.5-8.7-1.1-13.1-1.9
						c-2.5-0.5-5-1-7.5-1.5c-2.1-0.5-4.2-0.9-6.3-1.6c-1.6-0.5-3.3-1.2-4.4-2.4c-0.5-0.5-0.8-1.1-1-1.9
						C456.5,358.7,456.5,357.6,456.6,356.5c0.1-0.9-0.8-1.7-1.7-1.7c-1,0-1.6,0.8-1.7,1.7c-0.2,2.1,0,4.5,1.2,6.4
						c1,1.6,2.6,2.7,4.3,3.5c1.8,0.8,3.7,1.4,5.6,1.8c2.4,0.6,4.8,1.1,7.2,1.6c4.8,1,9.7,1.8,14.6,2.4c3.7,0.5,8.3,1.4,11.8-0.5
						c1.8-1,3-2.9,2.9-4.9c-0.1-2.2-1.3-4.2-2.9-5.7c-1.2-1.2-2.6-2.1-4.1-2.9c-0.7-0.4-1.4-0.8-2.2-1.3c-0.3-0.2-0.7-0.4-1-0.7
						c-0.2-0.1-0.3-0.2-0.5-0.4c-0.2-0.2-0.1-0.1-0.3-0.2c-0.6-0.5-1.3-1.1-1.6-1.6c-0.4-0.6-0.8-1.3-1-2c-0.7-2.1-0.9-4.4-1.8-6.5
						c-0.9-2.1-2.4-3.8-4.8-4c-2.2-0.2-4.3,1.1-6,2.5c-1.4,1.2-2.8,2.9-4.7,3.6c-2.1,0.7-4.3,0.2-6.4-0.1c-2.2-0.2-4.6-0.1-6.6,1.1
						c-1.7,1.1-2.7,3-3.3,4.9c-0.3,1-0.5,2.1-0.6,3.2c-0.1,0.9,0.8,1.7,1.7,1.7C455.8,358.2,456.5,357.4,456.6,356.5z"/>
				</g>
			</g>
		</g>
		<g>
			<g>
				<path class="st1" d="M487.3,355.3c0.5-1.3,1.7-2.5,2.9-3.2c0.5-0.3,1.2-0.6,1.6-0.6c0.4,0,0.3,0,0.7,0.1
					c-0.2-0.1,0.3,0.2,0.3,0.2c-0.2-0.1,0.2,0.2,0.1,0c0.3,0.4,0.3,0.5,0.1,1.1c-0.1,0.4-0.5,0.9-0.9,1.2c-0.4,0.4-0.9,0.5-1.7,0.6
					c-0.9,0-1.8-0.2-2.6-0.4c-1.8-0.5-3.6-1.1-5.4-1.7c-1.8-0.6-3.9-0.9-5.6,0.3c-2.8,2-2.9,6.4,0.2,8.1c1.6,0.9,3.5,0.8,5.2,0.1
					c1.9-0.8,3.3-2.3,4.6-3.7c0.6-0.7,0.7-1.7,0-2.4c-0.6-0.6-1.8-0.7-2.4,0c-1,1.1-2.1,2.4-3.6,3.1c-0.3,0.1-0.6,0.2-0.9,0.3
					c0.3,0-0.3,0-0.3,0c0,0-0.6-0.1-0.3,0c-0.6-0.1-0.9-0.3-1.2-0.6c0.2,0.2-0.1-0.2-0.1-0.2c0,0.1,0.1,0.2,0-0.1
					c0-0.1-0.1-0.3,0-0.6c0,0.3,0.1-0.3,0.1-0.3c0.2-0.5-0.1,0.1,0.1-0.3c0,0,0.2-0.3,0.1-0.1c0.1-0.1,0.2-0.2,0.2-0.3
					c0.2-0.1,0.2-0.2,0.1-0.1c0.5-0.3,1.1-0.3,1.6-0.1c1,0.2,1.9,0.6,2.9,0.9c3.5,1.1,7.8,3,11.1,0.3c1.2-1,2.1-2.6,2.1-4.3
					c0-1.9-1.3-3.4-3-4c-1.9-0.6-3.9,0.1-5.5,1.3c-1.7,1.3-3.1,2.8-3.9,4.8c-0.3,0.9,0.4,1.9,1.2,2.1
					C486.1,356.8,486.9,356.2,487.3,355.3L487.3,355.3z"/>
			</g>
		</g>
		<g>
			<g>
				<path class="st3" d="M480.9,266.9c1.1-0.4,2.2-0.9,3.4-1.3c1.6-0.6-5.6-21.3-6.2-23c-3.9-12.4-6.4-24-13.5-35.1
					c-1.2-1.8-2.5-3.7-4.3-4.9c-9.1-6.1-26.4,3.8-36.1,5.6c-10.3,1.9-20.6,3.9-30.7,6.6c-5,1.3-9.8,2.2-11.7,7.5
					c-1.9,5.7-0.7,14.2-0.6,20.2c0.2,13.1,0.8,26.8,1.3,39.6c0,1.1,0.2,2.4,1,3.1c0.7,0.6,1.8,0.5,2.7,0.5
					c11.9-0.8,23.9-1.5,35.8-2.3c1-0.1,2.1-0.1,3-0.7c1.9-1.1,2.2-3.7,2.3-5.9c0.1-3.9-1.5-16.4,3.7-14c3.4,1.6,6.6,11.6,8.2,14.9
					c0.3,0.5,0.6,1.1,1.1,1.3c0.6,0.3,1.2,0.2,1.9,0C455.3,275.8,468.2,271.8,480.9,266.9z"/>
			</g>
			<g>
				<g>
					<path class="st1" d="M481.3,268.5c0.9-0.3,1.8-0.7,2.7-1.1c0.7-0.3,1.3-0.4,1.7-1.1c0.3-0.5,0.4-1,0.4-1.6
						c0-1.4-0.4-2.8-0.7-4.1c-0.9-3.8-2.1-7.5-3.3-11.2c-0.8-2.5-1.6-4.9-2.4-7.4c-2.1-6.6-3.9-13.4-6.2-19.9
						c-1.2-3.3-2.5-6.5-4.1-9.6c-1.6-3.1-3.3-6.3-5.6-9c-3.5-4.2-8.9-5.1-14.1-4.5c-5.5,0.7-10.8,2.5-16,4.4
						c-2.3,0.8-4.7,1.7-7.1,2.3c-2.9,0.8-5.9,1.3-8.9,1.8c-7.6,1.4-15.2,3-22.6,4.9c-5.3,1.4-12,2.4-14.5,8
						c-1.3,2.8-1.5,6.1-1.6,9.1c-0.1,3.2,0.2,6.3,0.3,9.5c0.2,3.4,0.2,6.9,0.3,10.3c0.1,3.8,0.2,7.7,0.3,11.5
						c0.1,3.9,0.3,7.7,0.4,11.6c0.1,1.9,0.2,3.8,0.2,5.8c0.1,1.8,0,3.6,0.3,5.4c0.3,1.8,1.5,3.2,3.3,3.5c1.8,0.3,3.8,0,5.6-0.1
						c3.9-0.2,7.8-0.5,11.8-0.7c3.9-0.2,7.8-0.5,11.8-0.7c2-0.1,3.9-0.3,5.9-0.4c1.8-0.1,3.9,0,5.6-0.6c5.1-1.8,4.1-8.5,4-12.8
						c0-1,0-2,0-3c0-0.5,0-0.9,0.1-1.4c0-0.2,0-0.4,0.1-0.7c0-0.4,0,0.3,0,0c0-0.1,0-0.3,0.1-0.4c0.1-0.4,0.2-0.8,0.3-1.1
						c0.1-0.2,0.1-0.3,0.2-0.5c-0.2,0.5,0.1-0.1,0.1-0.2c0-0.1,0.1-0.1,0.1-0.2c0-0.2-0.3,0.3-0.1,0.1c0.2-0.1,0.4-0.2,0-0.1
						c0.1,0,0.1-0.1,0.2-0.1c0.2-0.1-0.2,0-0.2,0.1c0,0,0.2-0.1,0.2-0.1c0.3-0.1-0.4,0.1-0.1,0c0.1,0,0.2,0,0.2,0
						c0.2,0-0.4-0.1-0.1,0c0.2,0.1,0.3,0.1,0.5,0.2c-0.4-0.1,0.1,0,0.2,0.1c0.1,0.1,0.2,0.1,0.3,0.2c-0.2-0.2-0.1-0.1,0,0
						c0.3,0.3,0.6,0.6,0.9,1c-0.2-0.3,0.2,0.3,0.3,0.4c0.2,0.3,0.3,0.5,0.5,0.8c1.2,2,2.2,4.4,3.1,6.4c0.4,1.1,0.9,2.1,1.3,3.2
						c0.4,1,0.8,2,1.4,2.9c0.6,0.9,1.5,1.5,2.6,1.6c1,0.1,2-0.2,2.9-0.4c1.8-0.4,3.7-0.9,5.5-1.4c7.3-1.9,14.6-4.1,21.7-6.6
						C474.4,271.1,477.9,269.8,481.3,268.5c0.9-0.3,1.4-1.1,1.2-2.1c-0.2-0.8-1.2-1.5-2.1-1.2c-6.9,2.7-13.9,5.1-21,7.2
						c-3.5,1.1-7.1,2.1-10.6,3c-1.8,0.5-3.7,0.9-5.5,1.4c-0.4,0.1-0.9,0.2-1.3,0.3c-0.3,0.1-0.7,0.2-1,0.2c0.3,0,0.1,0,0-0.2
						c-0.2-0.2-0.3-0.5-0.4-0.8c-0.2-0.4-0.3-0.7-0.5-1.1c0.2,0.4-0.1-0.3-0.2-0.4c-0.1-0.3-0.2-0.6-0.3-0.8c-0.4-1-0.8-2.1-1.3-3.1
						c-0.9-2.3-1.9-4.5-3.3-6.6c-1.1-1.6-2.4-3.3-4.5-3.6c-2.1-0.4-3.6,0.9-4.3,2.7c-0.7,1.7-0.8,3.6-0.8,5.4c0,1.9,0,3.8,0.1,5.7
						c0,0.7,0,1.5,0,2.2c0,1.2-0.1,2.4-0.6,3.3c-0.3,0.5-0.5,0.8-0.8,1c-0.7,0.4-1.4,0.4-2.1,0.4c-1.9,0.1-3.7,0.2-5.6,0.4
						c-7.6,0.5-15.3,1-22.9,1.5c-2,0.1-3.9,0.2-5.9,0.4c-0.8,0.1-1.7,0.2-2.5,0.1c-0.2,0-0.3,0-0.5-0.1c-0.2-0.1,0,0-0.2-0.2
						c0.1,0.2-0.1-0.3,0-0.1c-0.4-1.4-0.3-3.1-0.4-4.7c-0.1-1.8-0.1-3.6-0.2-5.4c-0.3-7.4-0.6-14.9-0.8-22.3
						c-0.1-3.5-0.1-7-0.2-10.5c-0.1-3-0.4-6.1-0.4-9.1c0-2.9,0-5.7,0.9-8.5c0.7-2.4,2.2-3.8,4.5-4.8c0.3-0.1,1-0.4,1.5-0.6
						c0.7-0.2,1.3-0.4,2-0.6c1.4-0.4,2.8-0.8,4.2-1.1c3.6-1,7.3-1.8,11-2.6c3.7-0.8,7.4-1.5,11.1-2.2c3.1-0.6,6.2-1,9.2-1.8
						c4.8-1.3,9.5-3.2,14.3-4.7c2.5-0.8,5-1.5,7.6-1.9c0.7-0.1,0.9-0.1,1.5-0.2c0.6-0.1,1.3-0.1,1.9-0.1c0.5,0,1.1,0,1.6,0
						c0.3,0,0.5,0,0.8,0.1c0.1,0,0.3,0,0.4,0c-0.3,0,0.2,0,0.2,0c0.5,0.1,1,0.2,1.5,0.3c0.2,0.1,0.5,0.2,0.7,0.2
						c0.1,0,0.2,0.1,0.3,0.1c0.2,0.1,0.2,0.1,0,0c0.1,0,0.2,0.1,0.3,0.1c1.1,0.5,2.1,1.3,2.9,2.2c1.1,1.2,1.9,2.6,2.8,4
						c0.9,1.4,1.7,2.9,2.5,4.4c5.1,9.9,7.4,20.8,10.9,31.3c1.1,3.4,2.2,6.7,3.3,10.1c0.5,1.8,1.1,3.6,1.6,5.5
						c0.2,0.8,0.4,1.5,0.5,2.3c0.1,0.3,0.1,0.6,0.2,0.9c0,0.1,0,0.3,0.1,0.4c0.1,0.3,0-0.5,0-0.1c0,0.1,0,0.1,0,0.2
						c0,0.2,0,0.4,0,0.6c0,0.1,0,0.2,0,0.2c-0.1-0.2,0.1-0.5,0-0.2c0.1-0.2,0.1-0.4,0.3-0.6c-0.1,0.1,0.4-0.3,0.3-0.2
						c0,0,0.1,0,0.1-0.1c-0.2,0.1-0.3,0.1-0.5,0.2c-0.9,0.3-1.7,0.7-2.6,1c-0.9,0.3-1.4,1.1-1.2,2.1
						C479.5,268.1,480.5,268.8,481.3,268.5z"/>
				</g>
			</g>
		</g>
		<g>
			<g>
				<path class="st4" d="M351,58c-8.9-1.1-15-9.6-17.9-18.1c-1.9-5.3-2.9-11-2.2-16.6s3.2-11.1,7.7-14.6c8.1-6.5,21.1-4.4,27.9,3.4
					s7.4,19.9,2.8,29.2"/>
			</g>
			<g>
				<g>
					<path class="st1" d="M351,56.3c-3.3-0.4-6.4-2.2-8.9-4.6c-2.7-2.6-4.7-5.8-6.2-9.2c-3.5-7.6-5.1-17.2-1.8-25.2
						c1.5-3.5,3.9-6.6,7.1-8.5c2.8-1.7,6-2.4,9.4-2.3c1.8,0,3.1,0.3,4.9,0.7c1.7,0.5,3.1,1,4.6,1.9c3,1.7,5.5,4.1,7.3,7.2
						c3.8,6.5,4,14.6,1.5,21.7c-0.3,0.8-0.6,1.6-1,2.4c-0.4,0.8-0.2,1.8,0.6,2.3c0.7,0.4,1.9,0.2,2.3-0.6c3.8-7.7,4.3-16.9,0.9-24.9
						c-3.2-7.4-10.1-12.7-18.1-13.8c-3.8-0.5-7.8-0.2-11.4,1.2c-4,1.6-7.2,4.5-9.4,8.2c-5.3,8.6-4.3,19.4-0.9,28.4
						c2.8,7.6,8,15.3,16.1,17.8c1,0.3,2,0.5,3.1,0.6c0.9,0.1,1.7-0.9,1.7-1.7C352.7,57,351.9,56.5,351,56.3L351,56.3z"/>
				</g>
			</g>
		</g>
		<g>
			<g>
				<path class="st4" d="M413.2,30.6c-1.4-2.1-0.8-4.9-0.2-7.3c1.1-4.1,2.5-8.3,5.4-11.3c1.8-1.9,4.1-3.3,6.4-4.4
					c7.8-3.6,17.2-4,24.6,0.1c7.5,4.1,12.2,13.4,9.8,21.6c-0.8,2.9-2.5,5.5-4.4,7.9c-5.2,6.4-12.8,10.8-20.9,12.3"/>
			</g>
			<g>
				<g>
					<path class="st1" d="M414.7,29.7c-0.9-1.4-0.7-3.1-0.4-4.7c0.4-1.8,0.9-3.6,1.5-5.4c1.2-3.3,3-6.4,5.9-8.5
						c5.8-4,13.7-5.8,20.6-4.4c6.5,1.3,12,5.4,14.6,11.6c1.1,2.6,1.6,5.7,1.2,8.4c-0.5,3.5-2.4,6.7-4.7,9.4
						c-5.1,6-12.1,10.1-19.8,11.6c-0.9,0.2-1.4,1.2-1.2,2.1c0.3,0.9,1.2,1.3,2.1,1.2c7.6-1.4,14.8-5.4,20.1-11
						c2.8-3,5.3-6.6,6.4-10.6c1-3.5,0.8-7.2-0.3-10.6c-2.3-7.2-8.2-12.7-15.4-14.8c-7.8-2.3-16.7-0.8-23.7,3.3
						c-3.7,2.1-6.4,5.2-8,9.1c-0.8,1.9-1.4,3.8-2,5.8c-0.5,1.9-1,4-0.8,6c0.1,1.1,0.4,2.2,1,3.2C412.9,33.3,415.8,31.6,414.7,29.7
						L414.7,29.7z"/>
				</g>
			</g>
		</g>
		<g>
			<g>
				<path class="st2" d="M480.6,62c-3.6-0.5-7.2,0.3-10.6,1.4c-2.7,0.9-5.4,2.2-7.6,4.1c-4.2,3.6-6.3,9-8.2,14.2
					c-2.4,6.5-6.6,13.1-11.8,17.7c-5.3,4.7-13,6.9-19.5,9.7c-1.8,0.8-4.5-0.5-6.6-0.2c-9,1-18.6,4.7-27.4,7
					c-5.5,1.5-11.4,1.6-17.2,0.8c-13.1-1.9-26.1-9-33.7-18.6c-3.4-4.4-7.1-8.9-12.2-11c-2.7-1.1-5.6-1.5-8.5-1.5
					c-3.6-0.1-7.2,0.4-10.5,1.9c-9.4,4.5-11.6,17.4-7.8,26.3c3,6.9,7.4,13.1,12,19.1c7.7,9.7,16.2,18.8,25.6,26.9
					c9.7,8.4,19.4,17,27.1,27.3c8.5,11.6,11.2,25.5,14.6,39.2c0.5,2.1,1.1,4.4,2.8,5.7c1.8,1.4,4.2,1.4,6.4,1.3
					c19.9-1,39.2-7,58.2-12.9c6.4-2,12.9-4.1,18.2-8.1c1.3-1,2.5-2.1,3-3.6c0.5-1.4,0.4-3,0.2-4.5c-0.8-5.3-2.2-10.7-3.2-16
					c-1.2-6.1-4.5-11.6-4.6-18c-0.1-11.5,9.9-21.2,15.3-30.2c6.4-10.6,11.7-21.9,16-33.5c2.6-7.1,4.8-14.4,5.5-21.8
					C497.1,74.9,490.9,63.3,480.6,62z"/>
			</g>
			<g>
				<g>
					<path class="st1" d="M480.6,60.3c-5.6-0.7-11.8,1.1-16.6,4c-4.5,2.7-7.4,7.1-9.4,11.9c-1,2.3-1.8,4.8-2.8,7.1
						c-1.1,2.4-2.3,4.8-3.8,7c-2.7,4.2-6.1,8-10.4,10.6c-4.4,2.6-9.3,4.2-13.9,6.2c-1,0.4-1.7,0.8-2.9,0.7c-1.3-0.1-2.6-0.5-3.9-0.5
						c-2.7,0-5.6,0.8-8.3,1.4c-5.5,1.3-10.9,3.1-16.4,4.7c-2.7,0.8-5.4,1.6-8.2,2c-2.9,0.4-5.9,0.4-8.9,0.2
						c-10.2-0.8-20.4-4.8-28.4-11.1c-1.9-1.5-3.7-3.1-5.3-4.9c-1.7-1.8-3.1-3.8-4.7-5.7c-3.3-4-7.3-7.5-12.4-8.9
						c-2.8-0.8-5.8-1-8.6-0.9c-2.8,0.1-5.6,0.5-8.2,1.6c-3.9,1.6-7.1,4.4-9,8.1c-1.9,3.6-2.8,7.8-2.7,11.9c0.1,4.6,1.6,8.6,3.7,12.7
						c2.5,4.9,5.7,9.5,9,13.9c3.5,4.6,7.2,9,11.1,13.3c3.9,4.3,8,8.3,12.2,12.2c4.2,3.8,8.6,7.5,12.8,11.3
						c8.1,7.4,16.3,15.4,21.6,25.1c5.1,9.3,7.5,19.9,9.9,30.1c0.6,2.4,1,5.1,2.3,7.2c1.4,2.3,3.8,3.4,6.4,3.6
						c2.8,0.2,5.7-0.1,8.4-0.4c3-0.3,6-0.7,9-1.1c11.8-1.9,23.3-5.1,34.7-8.5c5.5-1.7,11.1-3.3,16.5-5.3c2.6-0.9,5.1-2,7.5-3.4
						c2.3-1.3,4.7-2.8,6.4-4.8c1.9-2.4,1.9-5.1,1.5-8c-0.4-2.9-1.1-5.9-1.7-8.8c-0.6-2.9-1.1-5.8-1.9-8.7c-0.7-2.6-1.7-5.2-2.5-7.7
						c-0.8-2.5-1.6-5.1-1.7-7.8c-0.1-2.3,0.3-4.6,1-6.7c1.4-4.4,4-8.4,6.6-12.2c2.7-3.9,5.6-7.6,8-11.7c3-5.1,5.8-10.3,8.3-15.6
						c2.5-5.3,4.8-10.8,6.9-16.3c2-5.4,3.8-11,5-16.7c0.9-4.8,1.5-9.5,0.4-14.3c-1-4.1-3-8-5.8-11c-2.7-2.9-6.4-5-10.3-5.5
						c-0.9-0.1-1.8,0.2-2.1,1.2c-0.2,0.8,0.3,2,1.2,2.1c8,1.1,13.1,8.6,14.2,16.2c0.7,4.7-0.5,9.6-1.6,14.1
						c-1.4,5.6-3.4,11.1-5.5,16.5c-2.1,5.2-4.4,10.4-6.9,15.4c-2.5,5-5.1,9.9-8.1,14.6c-4.9,7.7-11.6,14.7-13.9,23.8
						c-1.3,5.1-0.6,10,1.1,14.9c0.8,2.5,1.8,4.9,2.4,7.4c0.7,2.7,1.2,5.5,1.8,8.3c0.7,3,1.3,5.9,1.8,8.9c0.2,1.2,0.4,2.5,0.1,3.7
						c-0.3,1.2-1.1,2.1-2.1,2.9c-3.9,3.3-8.9,5.3-13.7,6.9c-11,3.7-22.2,7.1-33.5,9.8c-5.6,1.4-11.2,2.5-16.9,3.3
						c-2.9,0.4-5.8,0.7-8.7,1c-2.4,0.2-5.3,0.7-7.6-0.2c-2.1-0.8-2.7-3.1-3.2-5.1c-0.6-2.5-1.2-5-1.8-7.5
						c-1.2-5.1-2.6-10.2-4.3-15.2c-1.7-4.9-3.9-9.8-6.7-14.2c-2.9-4.6-6.5-8.8-10.2-12.8c-7.5-8.1-16.2-14.9-24.2-22.4
						c-8.1-7.6-15.7-15.9-22.4-24.8c-3.3-4.4-6.4-9-8.8-14c-1.8-3.6-2.8-7.4-2.6-11.5c0.2-3.7,1.3-7.3,3.4-10.3
						c2.5-3.6,6.5-5.4,10.8-5.9c5.2-0.6,10.7-0.1,15.1,2.9c4.1,2.8,6.8,6.9,9.9,10.6c6.5,7.4,15.5,12.7,24.9,15.6
						c5.2,1.6,10.7,2.5,16.1,2.4c5.7-0.1,10.9-1.5,16.3-3.1c5.4-1.6,10.9-3.4,16.4-4.5c1.2-0.2,2.5-0.5,3.7-0.6
						c1.2-0.2,2.3,0,3.5,0.2c1.2,0.2,2.3,0.4,3.5,0.1c1.1-0.2,2.3-0.9,3.4-1.3c4.7-1.9,9.5-3.6,13.8-6.2c4.4-2.7,7.9-6.6,10.7-10.9
						c1.4-2.1,2.7-4.4,3.7-6.7c1-2.3,1.8-4.6,2.8-6.9c1.8-4.5,4.1-8.9,8.3-11.6c4.4-2.7,10-4.3,15.2-3.7c0.9,0.1,1.7-0.9,1.7-1.7
						C482.3,61,481.5,60.4,480.6,60.3z"/>
				</g>
			</g>
		</g>
		<g>
			<g>
				<path class="st5" d="M376.4,114.7c-2.6-2.9-5.8,0.7-5.9,3.6c-0.7,20.3,2,40.6,6.3,60.3c3.9,18.4,8.2,38.5,15.9,55.4
					c0.2,0.4,0.4,0.8,0.7,1c0.3,0.2,0.7,0.1,1,0.1c1-0.2,2.1-0.3,3.1-0.5c3.7-0.6-3-20.5-3.9-24.2c-2.5-10.2-4.9-20.5-7.1-30.8
					c-4.3-20.2-7.8-40.6-9.1-61.3c-0.1-1.1-0.2-2.3-0.8-3.2C376.6,114.9,376.5,114.8,376.4,114.7z"/>
			</g>
			<g>
				<g>
					<path class="st1" d="M377.6,113.5c-1.5-1.6-3.6-2-5.5-0.9c-1.6,1-2.8,2.8-3.1,4.7c-0.2,1.2-0.2,2.4-0.2,3.5c0,1.3,0,2.6,0,3.8
						c0,2.5,0,5,0.1,7.5c0.4,10.1,1.5,20.3,3.1,30.3c1.6,9.5,3.6,19,5.7,28.4c2,9.1,4.3,18.2,7.1,27.1c1.4,4.3,2.9,8.6,4.7,12.8
						c0.5,1.1,0.9,2.2,1.4,3.3c0.5,1.2,1.1,2.3,2.4,2.5c1.2,0.2,2.6-0.2,3.7-0.4c0.6-0.1,1.2-0.1,1.7-0.5c1.7-1.1,1.6-3.6,1.5-5.3
						c-0.2-2.6-0.8-5.2-1.4-7.7c-1.1-4.4-2.5-8.7-3.6-13.1c-2.4-9.9-4.8-19.9-6.9-29.9c-2.1-9.9-4-19.8-5.6-29.8
						c-1.6-9.9-2.8-19.9-3.5-30C379.1,117.8,379.2,115.4,377.6,113.5c-0.6-0.7-1.8-0.6-2.4,0c-0.7,0.7-0.6,1.7,0,2.4
						c0.4,0.5,0.5,1.3,0.6,2.1c0.1,1.2,0.2,2.4,0.3,3.7c0.2,2.4,0.4,4.8,0.6,7.3c0.5,4.9,1.1,9.8,1.8,14.6c1.3,9.6,3,19.1,4.9,28.5
						c1.9,9.6,4.1,19.1,6.3,28.6c0.9,3.7,1.7,7.4,2.7,11.1c0.5,2,1.1,3.9,1.7,5.8c0.7,2.6,1.4,5.1,2,7.7c0.3,1.2,0.5,2.4,0.7,3.7
						c0,0.1,0,0.3,0.1,0.4c0,0.2,0,0.3,0,0c0,0.3,0.1,0.6,0.1,0.8c0,0.5,0.1,0.9,0.1,1.4c0,0.2,0,0.4,0,0.6c0,0.1,0,0.2,0,0.3
						c0,0.1-0.1,0.5,0,0.1c0.1-0.3,0,0.2-0.1,0.2c0,0.1,0,0.1-0.1,0.2c-0.1,0.3,0.1-0.1,0.1-0.1c-0.2,0.1-0.3,0.4,0,0
						c-0.3,0.3,0.4-0.2,0,0c0.5-0.2,0.2-0.1-0.1,0c-0.6,0.1-1.2,0.2-1.8,0.3c-0.3,0-0.5,0.1-0.8,0.1c-0.3,0-0.3,0,0,0.2
						c0.4,0.2,0-0.1-0.1-0.3c-0.1-0.3-0.2-0.5-0.3-0.8c-0.4-0.9-0.8-1.9-1.2-2.8c-0.8-2-1.6-4.1-2.4-6.1c-3-8.4-5.4-17-7.5-25.6
						c-2.1-8.8-4.1-17.6-5.8-26.5c-1.8-9.4-3.3-18.9-4.1-28.5c-0.4-4.8-0.7-9.6-0.8-14.4c0-2.4,0-4.8,0-7.3c0-0.6,0-1.2,0-1.8
						c0-0.3,0-0.5,0-0.8c0-0.1,0-0.3,0-0.4c0-0.1,0-0.3,0-0.1c0.1-0.8,0.4-1.3,0.9-1.9c-0.1,0.1,0.2-0.2,0.3-0.3
						c0.1-0.1,0.3-0.3,0.3-0.3c-0.1,0,0.2-0.1,0.3-0.2c0.2-0.1,0,0,0,0c0.1,0,0.2-0.1,0.3-0.1c0,0,0.3,0,0.1,0c-0.2,0,0.1,0,0.1,0
						c0,0,0.3,0,0.1,0c-0.2,0,0.1,0,0.1,0c-0.2-0.2,0.2,0.1,0.2,0.1c0.1,0.1,0.3,0.3,0.4,0.4C376.7,117.5,379.1,115.1,377.6,113.5z"
						/>
				</g>
			</g>
		</g>
		<g>
			<g>
				<path class="st5" d="M421.5,105.2c1.2-3.7,5.5-1.7,6.8,0.9c8.9,18.3,14.6,37.9,18.6,57.7c3.8,18.4,8.1,38.5,7.8,57.1
					c0,0.4,0,0.9-0.3,1.2c-0.2,0.3-0.6,0.4-0.9,0.5c-1,0.3-2.1,0.5-3.1,0.8c-3.6,1-5.6-20-6.2-23.7c-1.9-10.4-3.8-20.7-5.9-31.1
					c-4.2-20.2-9.3-40.3-16.4-59.8c-0.4-1.1-0.8-2.2-0.5-3.2C421.5,105.5,421.5,105.4,421.5,105.2z"/>
			</g>
			<g>
				<g>
					<path class="st1" d="M423.2,105.7c0.1-0.3,0,0,0.1-0.2c0.1-0.1,0.1-0.2,0.2-0.3c0,0-0.2,0.2,0,0c0-0.1,0.3-0.3,0.2-0.2
						c-0.2,0.1,0,0,0,0c0.4-0.2-0.2,0,0,0c0.1,0,0.4-0.1,0.2-0.1c-0.2,0,0.2,0,0.3,0c0.3,0-0.2-0.1,0.1,0c0.2,0,0.4,0.1,0.6,0.2
						c0.3,0.1-0.1-0.1,0.1,0.1c0.1,0.1,0.3,0.1,0.4,0.2c0.2,0.1,0.3,0.2,0.4,0.3c0.2,0.1,0,0,0,0c0.1,0.1,0.2,0.1,0.2,0.2
						c0.1,0.1,0.3,0.3,0.4,0.4c0.1,0.1,0.1,0.1,0.2,0.2c0,0-0.1-0.2,0,0c0.2,0.3,0.4,0.7,0.6,1.1c2,4.2,3.9,8.4,5.6,12.8
						c3.4,8.7,6.3,17.7,8.7,26.8c2.4,9,4.2,18.1,6.1,27.2c1.9,9.2,3.6,18.5,4.7,27.8c0.5,4.6,0.9,9.3,1,13.9c0,1.2,0.1,2.3,0.1,3.5
						c0,0.5,0,1.1,0,1.7c0,0.1,0,0.4,0,0.4c-0.2-0.1,0.8-0.5,0-0.3c-0.3,0.1-3,0.8-3,0.8c0,0,0.6,0,0.2-0.1c-0.1,0,0.5,0.1,0.3,0
						c-0.2-0.1,0.3,0.1,0.2,0.1c-0.1,0-0.1-0.1-0.2-0.1c-0.1,0,0.3,0.3,0.2,0.1c0-0.1-0.1-0.1-0.2-0.2c-0.3-0.3,0.2,0.3-0.1-0.1
						c-0.2-0.3-0.4-0.6-0.5-1c0-0.1-0.2-0.4-0.1-0.2c0.1,0.3,0-0.1,0-0.1c-0.1-0.2-0.2-0.5-0.3-0.7c-0.2-0.5-0.3-1-0.5-1.5
						c-0.7-2.5-1.1-5-1.6-7.5c-0.2-1.3-0.4-2.6-0.6-3.9c0-0.3-0.1-0.6-0.1-0.9c0-0.1,0-0.3-0.1-0.4c0-0.1-0.1-0.6-0.1-0.4
						c0,0.2,0-0.2,0-0.2c0-0.1,0-0.3-0.1-0.4c0-0.3-0.1-0.6-0.1-0.9c-0.3-2.2-0.6-4.3-1-6.5c-1.8-9.8-3.6-19.6-5.7-29.4
						c-2-9.4-4.1-18.9-6.6-28.2c-2.5-9.3-5.3-18.6-8.5-27.7c-0.4-1.1-0.8-2.1-1.2-3.2C423.3,107.6,422.9,106.7,423.2,105.7
						c0.6-2.1-2.6-3-3.3-0.9c-0.7,2.5,0.6,5,1.4,7.3c0.8,2.4,1.7,4.8,2.5,7.2c1.6,4.8,3,9.6,4.4,14.4c2.7,9.7,5.1,19.5,7.3,29.3
						c2.2,10.1,4.2,20.3,6,30.5c0.4,2.3,0.9,4.5,1.2,6.8c0.1,0.3,0.1,0.6,0.1,1c0,0.2,0.1,0.4,0.1,0.6c0,0.3,0-0.2,0-0.1
						c0,0.1,0,0.3,0.1,0.4c0.3,2.6,0.7,5.1,1.1,7.7c0.4,2.7,0.9,5.4,1.5,8c0.5,2,1.1,4.4,2.4,6c0.6,0.7,1.4,1.2,2.3,1.2
						c0.9,0,1.9-0.4,2.7-0.6c1.2-0.3,2.5-0.6,3.1-1.9c0.5-1.1,0.3-2.4,0.3-3.6c0-1.2,0-2.4-0.1-3.6c-0.1-2.4-0.2-4.8-0.4-7.2
						c-0.8-9.9-2.4-19.7-4.3-29.4c-1.8-9.5-3.8-19.1-6.1-28.5c-2.4-9.5-5.2-18.9-8.6-28c-1.7-4.7-3.7-9.3-5.7-13.8
						c-0.8-1.8-1.5-3.8-3-5.1c-1.2-1.1-2.8-1.9-4.5-1.8c-1.9,0.2-3.2,1.5-3.9,3.3c-0.3,0.9,0.3,1.8,1.2,2.1
						C422,107.1,422.9,106.6,423.2,105.7z"/>
				</g>
			</g>
		</g>
		<g>
			<g>
				<path class="st0" d="M416.3,104.2c0,4.6,0,9.3,0.1,13.9c0,2.5,0,5.2-1.2,7.4c-1.4,2.6-4,4.2-6.7,5.2c-4.3,1.7-8.9,2.3-13.5,1.9
					c-2.2-0.2-4.6-0.8-6-2.5c-0.9-1.1-1.2-2.4-1.6-3.8c-1.1-4.4-2.3-8.8-3.4-13.2"/>
			</g>
			<g>
				<g>
					<path class="st1" d="M414.6,104.2c0,4.7,0,9.4,0.1,14.2c0,2,0,4-0.7,5.9c-0.7,1.6-1.9,2.8-3.4,3.6c-3.4,2.1-7.7,3.1-11.7,3.2
						c-2,0.1-4.1,0.1-5.9-0.5c-1.5-0.4-2.8-1.2-3.3-2.8c-0.9-2.3-1.3-4.8-2-7.2c-0.7-2.6-1.4-5.2-2-7.8c-0.5-2.1-3.8-1.2-3.3,0.9
						c0.7,2.5,1.3,5,2,7.5c0.6,2.4,1.1,4.8,1.9,7.1c0.7,2.2,2,4,4.1,4.9c2,1,4.3,1.2,6.6,1.3c4.7,0.1,9.6-0.8,13.9-2.9
						c1.9-0.9,3.7-2.1,5-3.8c1.5-1.9,2.1-4.2,2.3-6.6c0.2-2.7,0.1-5.5,0.1-8.2c0-2.9,0-5.8,0-8.8C418,102.1,414.6,102.1,414.6,104.2
						L414.6,104.2z"/>
				</g>
			</g>
		</g>
		<g>
			<g>
				<path class="st0" d="M435.4,87.7c1.6,0.4,3.3,0.5,5.1,0.2c7-1.1,11.8-7.7,10.7-14.7s-7.7-11.8-14.7-10.7
					c-2.6,0.4-4.9,1.6-6.8,3.3"/>
			</g>
			<g>
				<g>
					<path class="st1" d="M435,89.4c4.1,1,8.6,0.2,12-2.3c3-2.2,5.1-5.4,5.8-9.1c0.7-3.8-0.1-7.7-2.3-10.9c-2.1-3-5.3-5.3-8.9-6
						c-4.7-1-9.5,0.4-13,3.6c-0.7,0.6-0.6,1.8,0,2.4c0.7,0.7,1.7,0.6,2.4,0c2.5-2.3,5.8-3.3,9.1-2.9c-0.3,0,0.3,0.1,0.3,0.1
						c0.2,0,0.4,0.1,0.6,0.1c0.4,0.1,0.7,0.2,1.1,0.3c0.7,0.2,1.1,0.4,1.8,0.8c1.4,0.7,2.4,1.6,3.4,2.8c3.8,4.5,3.1,11.4-1.2,15.4
						c-1.1,1-2.6,1.8-4,2.3c-2,0.6-4.1,0.7-6.1,0.2C433.8,85.6,432.9,88.9,435,89.4L435,89.4z"/>
				</g>
			</g>
		</g>
		<g>
			<g>
				<path class="st0" d="M359.6,99.6c-1.4,0.9-3,1.5-4.8,1.8c-7,1.1-13.6-3.7-14.7-10.7s3.7-13.6,10.7-14.7c2.6-0.4,5.2,0,7.4,1.1"
					/>
			</g>
			<g>
				<g>
					<path class="st1" d="M358.8,98.1c-1.6,1-3.4,1.6-5.1,1.7c-1.6,0.1-2.8,0-4.3-0.5c-2.6-0.8-4.9-2.7-6.2-5.1
						c-2.9-5-1.3-11.7,3.6-14.8c3.1-2,7.2-2.5,10.8-0.9c0.8,0.4,1.8,0.2,2.3-0.6c0.4-0.7,0.2-1.9-0.6-2.3c-4.1-1.9-8.7-1.9-12.8,0.1
						c-3.3,1.6-5.8,4.5-7.2,7.9c-2.8,7.2,1,15.5,8,18.5c4.3,1.8,9.3,1.4,13.3-1C362.3,99.9,360.6,97,358.8,98.1L358.8,98.1z"/>
				</g>
			</g>
		</g>
		<g>
			<g>
				<circle class="st0" cx="394.3" cy="75.3" r="44.9"/>
			</g>
			<g>
				<g>
					<path class="st1" d="M348.2,82.7c1.5,9.5,6,18.4,12.7,25.2c6.5,6.7,15.1,11.4,24.3,13.1c9.7,1.9,19.8,0.6,28.8-3.5
						c8.5-3.9,15.7-10.5,20.4-18.6c4.8-8.2,7.1-17.8,6.3-27.3c-0.8-9.8-4.6-19.1-10.9-26.6c-6-7.1-14.2-12.4-23.2-14.9
						c-9.4-2.6-19.6-2.1-28.7,1.3c-8.9,3.4-16.6,9.4-22,17.2c-5.4,7.7-8.3,17.1-8.3,26.5C347.6,77.8,347.9,80.2,348.2,82.7
						c0.1,0.9,1.3,1.4,2.1,1.2c1-0.3,1.3-1.2,1.2-2.1c-1.3-8.7,0.1-17.9,4-25.8c4-7.9,10.2-14.4,17.9-18.6c8-4.4,17.2-6.1,26.3-5
						c8.5,1,16.9,4.9,23.3,10.6c6.7,6,11.3,13.8,13.3,22.5c2.1,8.8,1.3,18-2.2,26.4c-3.2,7.8-9.1,14.9-16.3,19.6
						c-7.7,5-16.7,7.4-25.8,7c-8.7-0.4-17.2-3.5-24.3-8.9c-0.6-0.5-1.6-1.3-2.4-2c-0.8-0.7-1.6-1.5-2.4-2.3c-1.5-1.6-2.8-3.2-4-4.9
						c-2.6-3.7-4.6-7.7-6-12c-0.7-2.2-1.2-4.4-1.6-6.6c-0.1-0.9-1.3-1.4-2.1-1.2C348.5,80.8,348.1,81.7,348.2,82.7z"/>
				</g>
			</g>
		</g>
		<g>
			<circle class="st6" cx="421.6" cy="81.6" r="9.4"/>
		</g>
		<g>
			<circle class="st6" cx="369" cy="89.8" r="9.4"/>
		</g>
		<g>
			<g>
				<path class="st1" d="M393.9,71.8c-1-0.4-2.2,0.1-2.9,0.8c-0.7,0.8-0.9,1.8-0.9,2.8c-0.1,1.6,0.4,3.2,1.4,4.5
					c0.3,0.4,0.6,0.7,1,0.8c0.4,0.1,0.9,0.1,1.3-0.2c0.4-0.2,0.7-0.6,0.8-1c0.1-0.4,0.1-0.9-0.2-1.3c-0.3-0.4-0.5-0.8-0.7-1.2
					c0.1,0.1,0.1,0.3,0.2,0.4c-0.2-0.5-0.3-1-0.4-1.5c0,0.1,0,0.3,0.1,0.4c-0.1-0.5-0.1-1,0-1.5c0,0.1,0,0.3-0.1,0.4
					c0-0.2,0.1-0.5,0.2-0.7c-0.1,0.1-0.1,0.3-0.2,0.4c0-0.1,0.1-0.2,0.1-0.2c0.1-0.2-0.2,0.2-0.1,0.1c0.2-0.2,0.1,0-0.1,0.1
					c0.1,0,0.1-0.1,0.2-0.1c-0.1,0.1-0.3,0.1-0.4,0.2c0.1,0,0.2-0.1,0.3-0.1c-0.1,0-0.3,0-0.4,0.1c0.1,0,0.1,0,0.2,0
					c-0.1,0-0.3,0-0.4-0.1c0.1,0,0.1,0,0.2,0.1c0.4,0.2,1,0,1.3-0.2c0.4-0.2,0.7-0.6,0.8-1c0.1-0.4,0.1-0.9-0.2-1.3
					C394.7,72.2,394.3,72,393.9,71.8L393.9,71.8z"/>
			</g>
		</g>
		<g>
			<g>
				<path class="st1" d="M376,76.4c1.3,0.2,2.5,0.5,3.6,1c-0.1-0.1-0.3-0.1-0.4-0.2c0,0,0,0,0.1,0c-0.1-0.9-0.2-1.8-0.3-2.7
					c-0.9,1-1.8,1.9-2.7,2.9c-0.3,0.3-0.5,0.8-0.5,1.2c0,0.4,0.2,0.9,0.5,1.2c0.3,0.3,0.7,0.5,1.2,0.5c0.4,0,0.9-0.2,1.2-0.5
					c0.9-1,1.8-1.9,2.7-2.9c0.4-0.4,0.5-0.9,0.5-1.4c0-0.2-0.1-0.4-0.2-0.6c-0.2-0.3-0.4-0.5-0.6-0.6c-1.3-0.6-2.7-1-4.1-1.2
					c-0.2-0.1-0.4-0.1-0.7,0c-0.2,0-0.4,0.1-0.6,0.2c-0.4,0.2-0.7,0.6-0.8,1c-0.1,0.4-0.1,0.9,0.2,1.3
					C375.2,75.9,375.5,76.3,376,76.4L376,76.4z"/>
			</g>
		</g>
		<g>
			<g>
				<path class="st1" d="M408.2,69.3c-1.3,0.6-2.5,1.3-3.6,2.2c-0.4,0.3-0.5,0.9-0.5,1.4c0.1,0.5,0.3,1,0.8,1.2
					c1.1,0.7,2.3,1.3,3.4,2c0.4,0.2,0.9,0.3,1.3,0.2c0.4-0.1,0.8-0.4,1-0.8c0.4-0.8,0.2-1.8-0.6-2.3c-1.1-0.7-2.3-1.3-3.4-2
					c0.1,0.9,0.2,1.8,0.3,2.7c0.1,0,0.1-0.1,0.2-0.1c-0.1,0.1-0.2,0.2-0.3,0.3c1-0.7,2-1.4,3.1-1.8c0.4-0.2,0.7-0.6,0.8-1
					c0.1-0.4,0.1-0.9-0.2-1.3c-0.2-0.4-0.6-0.7-1-0.8c-0.1,0-0.3,0-0.4-0.1C408.7,69.1,408.5,69.1,408.2,69.3L408.2,69.3z"/>
			</g>
		</g>
		<g>
			<g>
				<path class="st4" d="M441.1,39.9c-10.5-18.6-36.5-23.8-56-21.3c-10.1,1.3-18.8,6-26.8,12.1c-7.5,5.8-14.5,13.2-17.4,22.4
					c-2.7,8.6-4.8,24.4,5.7,28.6c11.2,4.5,20.9-19.2,22.9-27.3c1.6,2.5,0.6,6.5,3.1,8.2c1.3,0.9,2.9,0.7,4.5,0.5
					c7.5-0.9,15.1-1.8,22.6-2.8c3.4-0.4,6.8-0.9,9.9-2.4c3-1.6,5.5-4.6,5.6-8c3.3,4.9,7.1,9.6,12.1,12.7c3.3,2,10.1,4.8,13.9,2.6
					c3.8-2.2,3.1-9.5,3.2-13.3C444.4,47.9,443.2,43.6,441.1,39.9z"/>
			</g>
			<g>
				<g>
					<path class="st1" d="M442.6,39.1c-3.3-5.9-8.3-10.7-14.1-14.2c-5.8-3.5-12.4-5.8-19.1-7.1c-6.6-1.3-13.4-1.7-20.1-1.2
						c-3.8,0.3-7.7,0.8-11.4,1.9c-4,1.2-7.9,2.9-11.6,4.9c-3.7,2.1-7.2,4.5-10.5,7.2c-3.2,2.6-6.2,5.4-8.8,8.5
						c-2.6,3.1-4.9,6.6-6.6,10.4c-1.2,2.9-2,5.8-2.6,8.9c-1.1,5.9-1.5,12.5,1,18.1c2.2,4.9,7.7,8.9,13.2,7.2
						c5.2-1.5,8.9-6.6,11.5-11c2.8-4.7,5.1-9.8,6.7-15c0.3-0.9,0.5-1.8,0.8-2.7c-1,0.1-2.1,0.3-3.1,0.4c0.7,1.1,0.8,2.7,1.1,4.2
						c0.3,1.6,0.8,3.1,2.1,4.2c1.6,1.4,3.7,1.4,5.6,1.2c2.3-0.3,4.6-0.6,6.9-0.8c4.6-0.6,9.1-1.1,13.7-1.7c4.2-0.5,8.6-0.8,12.5-2.7
						c3.7-1.8,6.7-5.4,6.9-9.6c-1,0.3-2.1,0.6-3.1,0.9c2.7,4,5.6,7.8,9.3,10.9c3.2,2.6,6.9,4.6,11,5.6c3.7,0.9,8.2,0.8,10.4-2.9
						c1.8-3,1.7-6.9,1.7-10.3c0-2.4,0-4.7-0.4-7C445.1,44.4,444,41.6,442.6,39.1c-1.1-1.9-4-0.2-2.9,1.7c1.1,2,1.9,4,2.4,6.2
						c0.5,2,0.5,3.9,0.5,5.9c0,1.5,0,3,0,4.5c0,0.4,0,0.8-0.1,1.1c0,0.2,0,0.4-0.1,0.6c0,0.1,0,0.2,0,0.3c0-0.2,0,0,0,0.1
						c-0.1,0.8-0.3,1.5-0.5,2.3c0,0.1-0.2,0.5-0.1,0.4c0.1-0.1-0.1,0.2-0.1,0.3c-0.1,0.2-0.2,0.3-0.3,0.5c-0.1,0.1-0.4,0.5-0.2,0.3
						c-0.1,0.1-0.2,0.2-0.3,0.3c-0.1,0.1-0.4,0.3-0.3,0.3c0.1-0.1-0.2,0.1-0.3,0.2c-0.1,0.1-0.2,0.1-0.3,0.2c0,0-0.3,0.1-0.2,0.1
						c-0.6,0.2-1.3,0.3-1.9,0.4c-0.9,0-1.6-0.1-2.4-0.2c-3.5-0.7-6.7-2.2-9.6-4.4c-3.8-2.9-6.7-6.7-9.3-10.7
						c-0.9-1.4-3.1-0.9-3.1,0.9c-0.1,2.8-2.3,5.2-4.9,6.6c-3.3,1.7-7.2,1.9-10.8,2.4c-4.2,0.5-8.4,1-12.5,1.5
						c-2,0.3-4.1,0.5-6.1,0.8c-0.9,0.1-1.9,0.3-2.8,0.3c-0.8,0.1-1.6,0.1-2.4-0.2c-0.3-0.1-0.3-0.1-0.5-0.4
						c-0.3-0.3,0.1,0.2-0.2-0.2c-0.1-0.2-0.2-0.4-0.3-0.6c0,0.1,0.1,0.2,0-0.1c-0.1-0.2-0.1-0.4-0.2-0.7c-0.1-0.4-0.2-0.7-0.2-1.1
						c-0.3-1.7-0.5-3.3-1.4-4.8c-0.7-1.2-2.7-1-3.1,0.4c-0.5,2-1.1,3.9-1.8,5.8c-0.2,0.6-0.4,1.2-0.7,1.8c-0.1,0.3-0.2,0.6-0.4,0.9
						c0,0.1-0.2,0.4-0.1,0.2c-0.1,0.2-0.1,0.3-0.2,0.5c-0.6,1.3-1.1,2.5-1.8,3.8c-1.3,2.5-2.7,4.9-4.3,7.2c-0.1,0.1-0.2,0.3-0.3,0.4
						c-0.1,0.1-0.3,0.4-0.1,0.2c-0.2,0.3-0.4,0.6-0.7,0.8c-0.4,0.5-0.8,0.9-1.2,1.4c-0.4,0.4-0.9,0.9-1.3,1.3
						c-0.2,0.2-0.5,0.4-0.7,0.6c0.2-0.2,0,0-0.1,0.1c-0.1,0.1-0.2,0.2-0.4,0.3c-0.5,0.3-0.9,0.6-1.4,0.8c-0.1,0.1-0.2,0.1-0.3,0.2
						c-0.3,0.1,0,0,0,0c-0.3,0.1-0.5,0.2-0.8,0.3c-0.2,0.1-0.5,0.1-0.7,0.2c-0.1,0-0.2,0-0.3,0.1c-0.4,0.1,0.3,0-0.1,0
						c-0.5,0-1,0-1.5,0c0.3,0,0.1,0-0.1,0c-0.1,0-0.2,0-0.4-0.1c-0.3-0.1-0.5-0.1-0.8-0.2c-0.1,0-0.2-0.1-0.4-0.1
						c0.3,0.1-0.2-0.1-0.3-0.1c-0.3-0.1-0.6-0.3-0.9-0.5c-0.3-0.2-0.5-0.3-0.8-0.5c-0.1-0.1-0.2-0.1-0.2-0.2c0,0,0.2,0.2,0,0
						c-0.1-0.1-0.3-0.2-0.4-0.3c-0.5-0.4-0.9-0.9-1.3-1.4c0.2,0.2,0-0.1-0.1-0.1c-0.1-0.1-0.2-0.2-0.3-0.4c-0.2-0.3-0.3-0.5-0.5-0.8
						c-0.2-0.3-0.3-0.6-0.4-0.9c0-0.1-0.2-0.4-0.1-0.2c-0.1-0.2-0.1-0.3-0.2-0.5c-0.5-1.3-0.8-2.6-1-4c0-0.2,0,0,0,0
						c0-0.1,0-0.2,0-0.2c0-0.2,0-0.3-0.1-0.5c0-0.4-0.1-0.8-0.1-1.2c0-0.7-0.1-1.4,0-2.2c0-1.4,0.1-2.9,0.3-4.3c0-0.2,0-0.3,0.1-0.5
						c0,0.3,0-0.2,0-0.3c0.1-0.4,0.1-0.7,0.2-1.1c0.1-0.7,0.2-1.4,0.4-2c0.3-1.2,0.6-2.5,0.9-3.7c1-3.5,2.7-6.8,4.7-9.8
						c4.4-6.3,10.5-11.5,16.9-15.8c6.6-4.4,14-7.6,21.8-8.6c6.2-0.8,12.6-0.7,18.9,0.1c0.5,0.1,1.5,0.2,2.2,0.3
						c0.8,0.1,1.6,0.3,2.4,0.5c1.6,0.3,3.2,0.7,4.8,1.2c3.1,0.9,6.1,2,8.8,3.3c1.4,0.7,2.9,1.5,4.2,2.3c1.2,0.7,2.7,1.8,3.7,2.5
						c1.2,1,2.4,2,3.5,3.1c0.6,0.6,1.1,1.1,1.6,1.7c0.2,0.3,0.5,0.6,0.7,0.8c0.1,0.1,0.2,0.3,0.3,0.4c0.1,0.1,0.1,0.1,0.2,0.2
						c0.2,0.2-0.1-0.1,0.1,0.1c1,1.3,1.8,2.6,2.6,3.9C440.7,42.7,443.7,41,442.6,39.1z"/>
				</g>
			</g>
		</g>
		<g>
			<g>
				<path class="st1" d="M377.5,87.1c8,4.4,17.7,4.5,25.9,0.4c2.2-1.1,4.2-2.6,6.1-4.2c0.7-0.6,0.6-1.8,0-2.4
					c-0.7-0.7-1.7-0.6-2.4,0c-5.7,5.2-13.9,7.4-21.5,5.7c-2.2-0.5-4.4-1.3-6.4-2.4C377.3,83.1,375.6,86,377.5,87.1L377.5,87.1z"/>
			</g>
		</g>
		<g>
			<g>
				<path class="st0" d="M310.3,81.3c-0.3-0.6,0.1-1.3,0.6-1.7c2.4-2.2,6.4-2.5,9.2-0.8c2.8,1.7,4.4,5.2,4,8.5
					c-0.4,3.3-2.7,6.2-5.7,7.6"/>
			</g>
			<g>
				<g>
					<path class="st1" d="M311.7,80.4c0,0,0.1,0.6,0.1,0.6c0,0,0-0.1,0.1-0.2c0.1-0.1,0.3-0.2,0.4-0.3c0.2-0.2,0.6-0.4,1-0.6
						c0.5-0.3,1.5-0.5,2-0.6c1.6-0.1,3.2,0.2,4.5,1.2c1.3,1.1,2.1,2.5,2.5,4.2c0.3,1.5,0.1,3.2-0.7,4.6c-0.9,1.8-2.3,3.1-4.1,3.9
						c-0.8,0.4-1,1.6-0.6,2.3c0.5,0.8,1.5,1,2.3,0.6c4.6-2.2,7.4-7.4,6.3-12.4c-0.5-2.5-2-4.7-4.1-6.2c-2.1-1.5-4.8-1.9-7.3-1.5
						c-2.6,0.5-6.8,2.8-5.3,6c0.4,0.8,1.6,1,2.3,0.6C312,82.2,312.1,81.3,311.7,80.4L311.7,80.4z"/>
				</g>
			</g>
		</g>
		<g>
			<g>
				<path class="st0" d="M323.9,101.2c-4.9,11.5-19.8,8.9-25.3-0.6c-4.8-8.2,0.1-32.7,13.6-24.7c2.2,1.3,3.4,4.4,2.2,6.7
					c2.7,0.2,4.5,3.6,3.2,5.9c2-0.5,4.2,1.7,3.6,3.8c-0.1,0.5-0.4,1.2-0.1,1.6c0.2,0.2,0.5,0.3,0.8,0.4
					C324.4,95.2,324.9,98.7,323.9,101.2z"/>
			</g>
			<g>
				<g>
					<path class="st1" d="M322.4,100.3c-0.3,0.7-0.6,1.4-1,2c-0.2,0.3-0.4,0.6-0.6,0.8c-0.1,0.2,0,0,0,0c0,0.1-0.1,0.1-0.2,0.2
						c-0.1,0.1-0.2,0.3-0.4,0.4c-0.5,0.5-0.9,1-1.5,1.4c0.2-0.2-0.1,0-0.1,0.1c-0.1,0.1-0.2,0.2-0.4,0.3c-0.3,0.2-0.6,0.3-0.8,0.5
						c-0.1,0.1-0.3,0.1-0.4,0.2c-0.1,0-0.4,0.2-0.3,0.1c0.2-0.1-0.2,0.1-0.3,0.1c-0.2,0.1-0.3,0.1-0.5,0.2c-0.6,0.2-1.2,0.3-1.8,0.4
						c-0.1,0-0.1,0-0.2,0c0,0,0.3,0,0.1,0c-0.1,0-0.3,0-0.4,0c-0.3,0-0.7,0-1,0c-0.6,0-1.3,0-1.9-0.1c0.3,0,0,0-0.2,0
						c-0.2,0-0.3-0.1-0.4-0.1c-0.3-0.1-0.6-0.1-1-0.2c-0.6-0.2-1.2-0.4-1.8-0.6c-0.3-0.1,0.1,0.1-0.2-0.1c-0.1-0.1-0.3-0.1-0.4-0.2
						c-0.3-0.1-0.6-0.3-0.9-0.5c-0.6-0.3-1.2-0.7-1.7-1.1c-0.1,0-0.4-0.3-0.3-0.2c0.1,0.1-0.2-0.2-0.3-0.2c-0.3-0.2-0.5-0.4-0.8-0.7
						c-0.5-0.5-1-0.9-1.4-1.5c-0.1-0.1-0.2-0.2-0.3-0.4c-0.1-0.2,0,0,0,0c0-0.1-0.1-0.1-0.1-0.2c-0.2-0.3-0.4-0.6-0.6-0.9
						c-0.3-0.4-0.5-0.9-0.7-1.3c-0.1-0.2-0.1-0.2,0,0c0-0.1-0.1-0.2-0.1-0.3c-0.1-0.2-0.2-0.4-0.2-0.7c-0.1-0.4-0.3-0.9-0.4-1.4
						c-0.1-0.5-0.2-1-0.3-1.5c0-0.1,0,0.3,0,0c0-0.1,0-0.3,0-0.4c0-0.3-0.1-0.6-0.1-0.8c-0.1-1.1-0.1-2.3,0-3.4
						c0-0.6,0.1-1.1,0.1-1.7c0-0.1,0-0.3,0-0.4c0-0.3,0,0.2,0-0.1c0-0.3,0.1-0.6,0.1-0.9c0.2-1.1,0.5-2.3,0.8-3.4
						c0.2-0.5,0.3-1.1,0.5-1.6c0-0.1,0.1-0.2,0.1-0.4c0-0.1,0-0.1,0.1-0.2c0,0-0.1,0.3,0,0.1c0.1-0.3,0.2-0.5,0.3-0.8
						c0.2-0.5,0.5-0.9,0.7-1.4c0.1-0.2,0.3-0.4,0.4-0.6c0.1-0.1,0.2-0.2,0.2-0.3c0-0.1,0.3-0.4,0.1-0.2c-0.1,0.2,0.1-0.1,0.1-0.1
						c0.1-0.1,0.1-0.2,0.2-0.3c0.2-0.2,0.3-0.4,0.5-0.5c0.2-0.2,0.3-0.3,0.5-0.5c0.1-0.1,0.2-0.1,0.3-0.2c0.2-0.2-0.3,0.2,0,0
						c0.4-0.2,0.7-0.5,1.1-0.7c0.2-0.1,0.2-0.1,0,0c0.1,0,0.2-0.1,0.3-0.1c0.2-0.1,0.4-0.1,0.7-0.2c0.2,0,0.8-0.1,0.3-0.1
						c0.2,0,0.5,0,0.7-0.1c0.2,0,0.5,0,0.7,0c0.1,0,0.2,0,0.3,0c0.2,0-0.2,0-0.2,0c0.1,0,0.2,0,0.2,0c0.5,0.1,1,0.2,1.5,0.4
						c0.1,0,0.3,0.1,0.4,0.1c0.2,0.1-0.1,0-0.1,0c0.1,0,0.1,0.1,0.2,0.1c0.3,0.1,0.6,0.3,0.9,0.4c1.2,0.7,2,1.7,2.2,3
						c0.1,0.5,0,1.2-0.2,1.6c-0.6,1.2,0.1,2.4,1.5,2.5c-0.3,0,0.1,0,0.1,0c0.1,0,0.3,0.1,0.4,0.1c-0.3-0.1,0.5,0.3,0.3,0.2
						c0.5,0.4,0.6,0.5,0.8,1c0,0,0.2,0.4,0.1,0.1c0,0.1,0.1,0.2,0.1,0.3c0,0.1,0.1,0.3,0.1,0.4c0,0.2,0-0.2,0,0.1c0,0.1,0,0.3,0,0.4
						c0,0.3,0.1-0.3,0,0.1c0,0.1-0.1,0.2-0.1,0.3c-0.1,0.5,0.1-0.2-0.1,0.2c-0.7,1.4,0.5,2.8,1.9,2.5c-0.2,0,0.3,0,0.3,0
						c-0.2,0,0.1,0,0.2,0.1c0,0,0.5,0.3,0.5,0.3c0.2,0.2,0.4,0.4,0.5,0.5c0.1,0.2,0,0.1,0.1,0.2c0,0.1,0.1,0.4,0.1,0.2
						c0,0,0,0.5,0,0.3c0,0.2-0.1,0.3-0.1,0.5c-0.1,0.4-0.2,0.9-0.2,1.4c0.1,1.2,0.9,1.9,1.9,2.3c0,0,0.4,0.2,0.2,0.1
						c0.1,0.1,0.2,0.1,0.4,0.2c0.1,0.1-0.1-0.1,0.1,0.1c0.1,0.1,0.2,0.2,0.3,0.4c-0.1-0.2,0,0,0.1,0.1c0.1,0.1,0.1,0.2,0.2,0.4
						c-0.1-0.3,0.1,0.2,0.1,0.2c0,0.1,0.1,0.3,0.1,0.4c0,0.1,0.1,0.3,0.1,0.4c0-0.3,0,0.2,0,0.2c0,0.3,0,0.6,0,0.9c0,0.3,0,0,0,0.2
						c0,0.1-0.1,0.3-0.1,0.4c-0.1,0.3-0.2,0.7-0.3,1c-0.3,0.8,0.4,1.9,1.2,2.1c1,0.3,1.7-0.3,2.1-1.2c1.2-2.9,0.6-7.2-2.5-8.7
						c-0.1-0.1-0.6-0.3-0.7-0.3c-0.1,0-0.1,0,0,0c0.2,0.2,0.4,0.4,0.4,0.7c0.2-0.2,0.3-1.2,0.3-1.4c0.1-0.9-0.2-1.9-0.7-2.7
						c-1.1-1.8-3.1-2.7-5.2-2.3c0.6,0.8,1.3,1.7,1.9,2.5c1.9-3.6-0.7-8.1-4.6-8.5c0.5,0.8,1,1.7,1.5,2.5c0.9-1.9,0.9-4,0-6
						c-0.8-1.7-2.2-2.8-3.8-3.6c-2.3-1.1-4.9-1.7-7.4-0.9c-4.7,1.5-7.2,6.5-8.4,10.9c-1.3,4.7-1.7,10.2-0.2,14.9
						c1.7,5.5,6.8,9.7,12.3,11.2c2.8,0.8,5.9,0.8,8.7-0.1c3-1,5.5-3,7.2-5.6c0.5-0.7,0.8-1.4,1.2-2.2c0.4-0.8,0.2-1.8-0.6-2.3
						C324,99.3,322.8,99.5,322.4,100.3z"/>
				</g>
			</g>
		</g>
		<g>
			<g>
				<path class="st0" d="M475.4,57.2c0.1-0.6-0.5-1.2-1.1-1.5c-3-1.4-6.8-0.4-9,2.1c-2.1,2.5-2.6,6.3-1.1,9.3c1.4,3,4.5,5,7.8,5.4"
					/>
			</g>
			<g>
				<g>
					<path class="st1" d="M477.1,57.2c0.2-1.7-1.3-2.7-2.7-3.2c-1.1-0.4-2.3-0.6-3.5-0.5c-2.5,0.1-4.9,1.2-6.6,3
						c-3.6,3.9-3.3,10.1,0.2,14c1.9,2.1,4.6,3.4,7.5,3.7c0.9,0.1,1.7-0.9,1.7-1.7c0-1-0.8-1.6-1.7-1.7c-3.2-0.4-6.1-2.9-6.8-6.2
						c-0.6-3.2,1.1-6.6,4.3-7.6c0.9-0.3,1.6-0.4,2.6-0.2c0.2,0,0.8,0.2,1.2,0.3c0.1,0,0.5,0.3,0.5,0.3c0,0,0-0.8-0.1-0.2
						c-0.1,0.9,0.8,1.7,1.7,1.7C476.4,58.8,477,58.1,477.1,57.2L477.1,57.2z"/>
				</g>
			</g>
		</g>
		<g>
			<g>
				<path class="st0" d="M468.7,80.3c8.3,9.4,21.6,2.4,23.9-8.5c2-9.3-10.2-31.1-20.6-19.3c-1.7,1.9-1.8,5.2,0,7.1
					c-2.5,1-3.2,4.8-1.2,6.6c-2.1,0.2-3.4,3-2.3,4.7c0.3,0.5,0.8,1,0.6,1.5c-0.1,0.3-0.4,0.5-0.6,0.6
					C466.3,74.8,466.9,78.3,468.7,80.3z"/>
			</g>
			<g>
				<g>
					<path class="st1" d="M467.5,81.5c2.1,2.3,4.9,4.2,8,4.7c3,0.5,6,0,8.8-1.3c5.3-2.5,9.4-8.1,10.1-13.9c0.3-2.3-0.1-4.6-0.7-6.8
						c-0.7-2.6-1.7-5.1-3.1-7.4c-2.3-4-5.9-8.4-10.8-9.2c-2.5-0.4-4.9,0.3-6.9,1.8c-1.3,0.9-2.5,2.1-3.2,3.6c-0.8,1.7-1,3.7-0.4,5.4
						c0.3,0.9,0.8,1.7,1.5,2.4c0.1-0.9,0.2-1.8,0.3-2.7c-3.5,1.5-4.2,6.7-1.5,9.3c0.4-1,0.8-1.9,1.2-2.9c-2,0.2-3.4,1.4-4.1,3.3
						c-0.3,0.8-0.4,1.8-0.2,2.6c0.1,0.4,0.3,0.9,0.5,1.2c0.1,0.2,0.3,0.4,0.4,0.6c0,0.1,0.1,0.1,0.1,0.2c0.4-0.9,0.4-1.2,0-0.9
						c0.1,0-0.3,0.3-0.4,0.3c-0.1,0.1-0.3,0.2-0.4,0.4c-0.3,0.4-0.6,0.8-0.8,1.2c-0.4,0.9-0.6,1.8-0.5,2.8
						C465.5,78.3,466.2,80,467.5,81.5c0.6,0.7,1.8,0.6,2.4,0c0.7-0.7,0.6-1.7,0-2.4c-0.7-0.8-1.1-2-1.1-3c0-0.5,0.1-0.8,0.3-1.2
						c0.1-0.1,0.2-0.3,0.4-0.4c0.3-0.3,0.7-0.5,1-1c0.6-0.9,0.4-2-0.2-2.9c-0.1-0.2-0.2-0.3-0.3-0.4c0,0-0.2-0.5-0.1-0.2
						c0,0-0.1-0.4-0.1-0.2c0,0.2,0-0.2,0-0.3c0-0.4-0.1,0.2,0-0.2c0-0.1,0.1-0.3,0.1-0.4c0.1-0.2-0.1,0.1,0.1-0.1
						c0,0,0.3-0.4,0.1-0.2c0.1-0.1,0.2-0.2,0.3-0.3c0.1-0.1,0.3-0.2,0.1-0.1c0,0,0.5-0.2,0.2-0.1c0.1,0,0.5-0.1,0.2-0.1
						c0.7-0.1,1.3-0.4,1.5-1c0.2-0.6,0.1-1.4-0.3-1.8c0,0-0.4-0.4-0.2-0.1c-0.1-0.1-0.1-0.2-0.2-0.3c0,0-0.2-0.5-0.1-0.2
						c0-0.1-0.1-0.3-0.1-0.4c0-0.1-0.1-0.3-0.1-0.4c0,0.3,0,0,0-0.1c0-0.1,0-0.3,0-0.4c0-0.4-0.1,0.2,0-0.2c0.1-0.3,0.1-0.5,0.2-0.8
						c-0.1,0.2,0,0,0.1-0.1c0.1-0.1,0.1-0.2,0.2-0.3c0,0,0.2-0.3,0.3-0.3c-0.1,0.1,0.2-0.1,0.2-0.1c0.1-0.1,0.3-0.2,0.4-0.2
						c1-0.5,1-1.9,0.3-2.7c-0.8-0.8-1-2.1-0.7-3.2c0.1-0.5,0.4-1.1,0.7-1.5c0.4-0.5,0.9-1,1.4-1.4c0,0,0.4-0.3,0.1-0.1
						c0.1-0.1,0.2-0.1,0.2-0.2c0.2-0.2,0.5-0.3,0.7-0.5c0.2-0.1,0.4-0.2,0.6-0.3c0.1,0,0.5-0.2,0.1,0c0.1-0.1,0.3-0.1,0.4-0.2
						c0.2-0.1,0.4-0.1,0.7-0.2c0.2,0,0.7-0.1,0.3-0.1c0.5,0,0.9-0.1,1.4,0c0.1,0,0.5,0.1,0,0c0.1,0,0.2,0,0.3,0.1
						c0.2,0,0.4,0.1,0.6,0.1c0.2,0.1,0.5,0.2,0.7,0.2c0.1,0,0.3,0.1-0.1,0c0.2,0.1,0.3,0.1,0.4,0.2c0.4,0.2,0.8,0.4,1.2,0.7
						c0.2,0.1,0.4,0.3,0.5,0.4c0.4,0.3-0.3-0.2,0.1,0.1c0.1,0.1,0.3,0.2,0.4,0.3c0.8,0.7,1.5,1.4,2.2,2.2c0.1,0.1,0.2,0.2,0.3,0.3
						c0.3,0.4-0.2-0.3,0.1,0.1c0.1,0.2,0.3,0.4,0.4,0.6c0.4,0.5,0.7,1,1,1.5c1.3,2.1,2.1,3.9,2.8,6.1c0.3,1,0.6,2.1,0.8,3.1
						c0,0.1,0.1,0.9,0.1,0.5c0,0.2,0.1,0.4,0.1,0.7c0,0.5,0.1,1,0.1,1.5c0,0.4,0,0.9-0.1,1.3c0,0.4,0.1-0.4,0,0c0,0.1,0,0.1,0,0.2
						c-0.1,0.4-0.2,0.7-0.3,1.1c-0.4,1.3-0.7,2.2-1.4,3.4c-1.2,2.2-3,4.1-5,5.4c-0.6,0.4-1.2,0.7-1.8,1c-0.1,0-0.4,0.2-0.1,0.1
						c-0.2,0.1-0.4,0.2-0.6,0.2c-0.3,0.1-0.6,0.2-0.9,0.3c-0.4,0.1-0.7,0.2-1.1,0.3c-0.1,0-0.2,0-0.3,0.1c-0.2,0-0.2,0,0,0
						c-0.1,0-0.2,0-0.3,0c-0.7,0.1-1.4,0.1-2.1,0c-0.1,0-0.2,0-0.3,0c-0.2,0-0.2,0,0,0c-0.1,0-0.2,0-0.3-0.1c-0.3-0.1-0.6-0.1-1-0.2
						c-0.4-0.1-0.7-0.2-1.1-0.4c-0.1,0-0.4-0.2-0.7-0.3c-1.5-0.8-2.5-1.6-3.6-2.9c-0.6-0.7-1.8-0.6-2.4,0
						C466.8,79.8,466.9,80.8,467.5,81.5z"/>
				</g>
			</g>
		</g>
		<g>
			<g>
				<path class="st7" d="M390.9,238.4c-1.4-3.2-3.2-7.3,0.4-9.6c1.1-0.7,7.9-1.5,8.6-0.5c1.5,2.3,2.3,5.1,2.2,7.9
					c0,0.6-0.1,1.2-0.4,1.6c-0.3,0.4-0.8,0.6-1.3,0.8c-2.1,0.9-4.4,1.4-6.7,1.7c-0.5,0-1,0.1-1.4-0.1
					C391.6,239.9,391.2,239.1,390.9,238.4z"/>
			</g>
			<g>
				<g>
					<path class="st1" d="M392.4,237.6c-0.1-0.3-0.2-0.6-0.4-0.9c0.1,0.3-0.1-0.2-0.1-0.2c-0.1-0.1-0.1-0.3-0.2-0.4
						c-0.2-0.6-0.4-1.2-0.6-1.8c-0.1-0.3-0.1-0.6-0.2-0.8c0-0.1-0.1-0.4,0-0.1c0-0.1,0-0.3,0-0.4c0-0.3,0-0.6,0-0.9c0,0.4,0,0,0-0.1
						c0-0.1,0.1-0.3,0.1-0.4c0.1-0.4-0.2,0.2,0.1-0.1c0.1-0.1,0.1-0.3,0.2-0.4c0.2-0.4-0.2,0.2,0.1-0.1c0.1-0.1,0.2-0.2,0.3-0.3
						c0,0,0.2-0.2,0.1-0.1c0.1-0.1,0.2-0.1,0.3-0.2c0,0,0.1-0.1,0.1-0.1c-0.2,0-0.4,0.2-0.1,0c0.8-0.2,1.6-0.4,2.4-0.5
						c0.4-0.1-0.4,0,0.1,0c0.1,0,0.3,0,0.4,0c0.2,0,0.4,0,0.7-0.1c0.6,0,1.1-0.1,1.7-0.1c0.3,0,1-0.1,1.2,0.1
						c-0.2-0.1-0.4-0.1-0.1,0c0.1,0,0.2,0,0.2,0.1c0,0,0.1,0,0.1,0c0.3,0-0.4-0.2-0.1,0c0.1,0.1-0.6-0.5-0.4-0.4
						c0.1,0,0.3,0.5,0.3,0.5c0.2,0.3,0.3,0.6,0.5,0.9c0.3,0.7,0.6,1.5,0.8,2.3c0.2,0.7,0.3,1.3,0.3,2c0,0.3,0,0.7,0,1
						c0,0.2,0,0.4,0,0.6c0,0.1-0.1,0.3,0,0.2c0,0,0.3-0.2-0.1,0c-0.3,0.2-0.3,0.2-0.5,0.2c-0.4,0.2-0.8,0.3-1.3,0.5
						c-0.9,0.3-1.9,0.6-2.8,0.8c-0.9,0.2-1.7,0.3-2.6,0.4c-0.6,0-0.1,0-0.1,0c-0.2-0.1-0.2-0.1-0.1,0c-0.1-0.1-0.2-0.2-0.1,0
						C392.7,238.3,392.5,237.9,392.4,237.6c-0.4-0.8-1.6-1-2.3-0.6c-0.9,0.5-1,1.5-0.6,2.3c0.4,0.9,0.9,1.7,1.8,2.2
						c1,0.6,2.1,0.5,3.2,0.4c2.2-0.3,4.3-0.8,6.4-1.6c1.1-0.4,2.1-1,2.6-2.2c0.4-1,0.4-2.1,0.3-3.1c-0.2-2.1-0.7-4.2-1.6-6.1
						c-0.4-0.8-0.8-1.7-1.5-2.2c-0.4-0.2-0.8-0.4-1.3-0.5c-1.2-0.2-2.4-0.2-3.6,0c-1.2,0.1-2.5,0.3-3.7,0.6c-1.3,0.3-2.4,1-3.2,2.1
						c-2.4,3.2-0.6,7.2,0.7,10.4c0.4,0.8,1.6,1,2.3,0.6C392.6,239.4,392.7,238.4,392.4,237.6z"/>
				</g>
			</g>
		</g>
		<g>
			<g>
				<path class="st7" d="M447.5,225.3c-1.4-3.2-3.2-7.3,0.4-9.6c1.1-0.7,7.9-1.5,8.6-0.5c1.5,2.3,2.3,5.1,2.2,7.9
					c0,0.6-0.1,1.2-0.4,1.6c-0.3,0.4-0.8,0.6-1.3,0.8c-2.1,0.9-4.4,1.4-6.7,1.7c-0.5,0-1,0.1-1.4-0.1
					C448.2,226.8,447.8,226,447.5,225.3z"/>
			</g>
			<g>
				<g>
					<path class="st1" d="M448.9,224.4c-0.1-0.3-0.2-0.6-0.4-0.9c0.1,0.3-0.1-0.2-0.1-0.2c-0.1-0.1-0.1-0.3-0.2-0.4
						c-0.2-0.6-0.4-1.2-0.6-1.8c-0.1-0.3-0.1-0.6-0.2-0.8c0-0.1-0.1-0.4,0-0.1c0-0.1,0-0.3,0-0.4c0-0.3,0-0.6,0-0.9c0,0.4,0,0,0-0.1
						c0-0.1,0.1-0.3,0.1-0.4c0.1-0.4-0.2,0.2,0.1-0.1c0.1-0.1,0.1-0.3,0.2-0.4c0.2-0.4-0.2,0.2,0.1-0.1c0.1-0.1,0.2-0.2,0.3-0.3
						c0,0,0.2-0.2,0.1-0.1c0.1-0.1,0.2-0.1,0.3-0.2c0,0,0.1-0.1,0.1-0.1c-0.2,0-0.4,0.2-0.1,0c0.8-0.2,1.6-0.4,2.4-0.5
						c0.4-0.1-0.4,0,0.1,0c0.1,0,0.3,0,0.4,0c0.2,0,0.4,0,0.7-0.1c0.6,0,1.1-0.1,1.7-0.1c0.3,0,1-0.1,1.2,0.1
						c-0.2-0.1-0.4-0.1-0.1,0c0.1,0,0.2,0,0.2,0.1c0,0,0.1,0,0.1,0c0.3,0-0.4-0.2-0.1,0c0.1,0.1-0.6-0.5-0.4-0.4
						c0.1,0,0.3,0.5,0.3,0.5c0.2,0.3,0.3,0.6,0.5,0.9c0.3,0.7,0.6,1.5,0.8,2.3c0.2,0.7,0.3,1.3,0.3,2c0,0.3,0,0.7,0,1
						c0,0.2,0,0.4,0,0.6c0,0.1-0.1,0.3,0,0.2c0,0,0.3-0.2-0.1,0c-0.3,0.2-0.3,0.2-0.5,0.2c-0.4,0.2-0.8,0.3-1.3,0.5
						c-0.9,0.3-1.9,0.6-2.8,0.8c-0.9,0.2-1.7,0.3-2.6,0.4c-0.6,0-0.1,0-0.1,0c-0.2-0.1-0.2-0.1-0.1,0c-0.1-0.1-0.2-0.2-0.1,0
						C449.2,225.2,449.1,224.8,448.9,224.4c-0.4-0.8-1.6-1-2.3-0.6c-0.9,0.5-1,1.5-0.6,2.3c0.4,0.9,0.9,1.7,1.8,2.2
						c1,0.6,2.1,0.5,3.2,0.4c2.2-0.3,4.3-0.8,6.4-1.6c1.1-0.4,2.1-1,2.6-2.2c0.4-1,0.4-2.1,0.3-3.1c-0.2-2.1-0.7-4.2-1.6-6.1
						c-0.4-0.8-0.8-1.7-1.5-2.2c-0.4-0.2-0.8-0.4-1.3-0.5c-1.2-0.2-2.4-0.2-3.6,0c-1.2,0.1-2.5,0.3-3.7,0.6c-1.3,0.3-2.4,1-3.2,2.1
						c-2.4,3.2-0.6,7.2,0.7,10.4c0.4,0.8,1.6,1,2.3,0.6C449.2,226.2,449.3,225.3,448.9,224.4z"/>
				</g>
			</g>
		</g>
	</g>
	<g>
		<g>
			<g>
				<path class="st0" d="M184.6,40c1.8-4.2,5.5-7.6,9.9-9c1.2-0.4,2.7-0.5,3.5,0.5c0.6,0.8,0.4,1.9,0.4,2.9c-0.1,1,0.3,2.3,1.2,2.5
					c0.5,0.1,1-0.1,1.4,0c1.6,0.1,2,2.4,1.9,4c0,0.4,0,0.9,0.2,1.2c0.4,0.5,1.2,0.4,1.8,0.5c2.3,0.3,3.4,3.7,1.7,5.2
					c2.1,0.3,3.6,2.6,3.5,4.7c-0.1,2.2-1.2,4.1-2.6,5.8c-3.1,3.8-7.5,6.9-12.4,7.4c-4.9,0.5-10.3-1.9-12.3-6.4"/>
			</g>
			<g>
				<g>
					<path class="st1" d="M186.1,40.8c1-2.4,2.7-4.6,4.8-6.1c1.1-0.8,2.3-1.5,3.5-1.9c0.4-0.2,1.2-0.4,1.5-0.4c0.1,0,0.3,0,0.4,0
						c0.5,0-0.1-0.1,0.3,0c0,0,0.3,0.1,0.1,0c0.3,0.1,0.1,0.1,0.1,0c0.2,0.3,0.1,1.1,0,1.6c0,0.7,0,1.4,0.2,2.1
						c0.5,1.6,2.1,2.8,3.9,2.3c-0.1,0,0,0,0.1,0c-0.3,0,0.1,0.1-0.1-0.1c0.1,0.1,0.1,0.1,0.2,0.2c-0.2-0.2,0,0,0,0
						c0.1,0.5-0.1-0.3,0.1,0.2c0,0.1,0.1,0.2,0.1,0.3c0,0.1,0.1,0.2,0.1,0.3c0,0.2,0,0.2,0,0.1c0,0.1,0,0.2,0,0.3
						c0,0.7-0.1,1.4,0.1,2c0.2,1,0.9,1.7,1.8,2c0.4,0.1,0.8,0.2,1.1,0.2c0.2,0,0.4,0,0.6,0c-0.3,0,0.1,0,0.2,0.1
						c-0.4-0.1,0.4,0.3,0.2,0.1c0.1,0.1,0.2,0.2,0.3,0.3c0.1,0.1,0.1,0.1,0,0c0.1,0.1,0.1,0.2,0.2,0.3c0.1,0.1,0.1,0.2,0.1,0.3
						c-0.1-0.3,0,0.1,0,0.2c0,0,0.1,0.5,0.1,0.2c0-0.2,0,0.3,0,0.3c0,0.1-0.1,0.4,0,0.1c0,0.1-0.1,0.3-0.1,0.4c0.1-0.3,0-0.1,0,0
						c-0.1,0.2-0.1,0.2,0,0c-0.1,0.1-0.1,0.2-0.2,0.2c-0.8,0.8-0.5,2.6,0.7,2.8c1,0.2,1.6,0.6,2,1.6c0.4,0.8,0.3,1.9,0,3
						c-0.8,2.4-3,4.6-4.9,6.2c-1.9,1.6-4.2,2.9-6.7,3.4c-2.3,0.5-4.6,0.4-6.8-0.4c-2.3-0.9-4.3-2.6-5.4-4.9c-0.4-0.8-1.6-1-2.3-0.6
						c-0.8,0.5-1,1.5-0.6,2.3c2.6,5.7,9.5,8.1,15.4,7c3.2-0.6,6.2-2.2,8.7-4.3c2.5-2.1,5-4.9,6-8.1c1-3.4-0.5-8-4.4-8.6
						c0.2,0.9,0.5,1.9,0.7,2.8c2.2-2.1,1.5-6-1-7.5c-0.7-0.4-1.4-0.5-2.2-0.6c0.1,0-0.5,0-0.3,0c0,0,0,0,0,0c-0.2-0.1-0.2-0.1-0.1,0
						c0.5,1,0.4,0.1,0.4-0.3c0-1.5-0.3-3.1-1.3-4.2c-0.5-0.6-1.2-0.9-1.9-1.1c0,0-1.4-0.2-1.4,0c0,0.1,0.2,0.1,0.1,0.1
						c0.1,0.1,0.1,0.1,0,0c-0.1-0.1-0.1-0.1,0,0c-0.2-0.6-0.1-1.1-0.1-1.9c0-0.9-0.1-1.9-0.5-2.7c-1.9-3.3-6.8-1.2-9.2,0.2
						c-3.2,1.9-5.8,4.8-7.2,8.1c-0.4,0.8-0.2,1.8,0.6,2.3C184.5,41.8,185.7,41.7,186.1,40.8L186.1,40.8z"/>
				</g>
			</g>
		</g>
		<g>
			<g>
				<path class="st0" d="M179.4,54.5c-1.7-3.7-1.4-8.3,0.7-11.8c1.8-2.8,5.2-4.9,8.4-4c2.5,0.7,4.1,2.9,5.6,4.9
					c0.3,0.5,0.7,1,0.9,1.5c0.8,2.2-1.6,4.7-3.9,4.1"/>
			</g>
			<g>
				<g>
					<path class="st1" d="M180.8,53.6c-1.8-3.9-1-9,2.3-11.8c1.5-1.3,3.4-2,5.2-1.4c1.8,0.6,3.2,2.5,4.3,4.1
						c0.2,0.3,0.5,0.6,0.6,0.9c0.1,0.1,0.2,0.6,0.2,0.4c0,0.4,0,0.6-0.3,1c-0.1,0.2-0.1,0.1-0.3,0.4c-0.1,0.1-0.2,0.2-0.5,0.3
						c0,0-0.3,0.1-0.5,0.2c0.3,0,0,0-0.1,0c-0.3,0,0.1,0.1-0.3,0c-2.1-0.6-3,2.7-0.9,3.3c3,0.8,6.1-1.7,6.2-4.8c0-1.7-1.1-3-2-4.3
						c-1-1.3-2-2.4-3.3-3.4c-2.6-1.9-5.8-2-8.5-0.5c-2.8,1.4-4.8,4.1-5.7,7.1c-1.1,3.4-0.8,7.2,0.7,10.4c0.4,0.8,1.6,1,2.3,0.6
						C181.1,55.5,181.2,54.5,180.8,53.6L180.8,53.6z"/>
				</g>
			</g>
		</g>
		<g>
			<g>
				<path class="st8" d="M41.8,54.8c2.1-7.3,4.2-14.3,9.2-20.9C60.8,21,74.9,12.9,90.4,13c28.1,0.1,47.8,12.2,59,37.7
					c5.5,12.6,9.2,26.2,13.9,39.2c2.5,7,5.2,14.2,10.4,19.6c3.8,4,8.8,6.6,13.1,10.1c4.3,3.4,8.2,8.1,8.6,13.6
					c0.4,5.5-4.4,11.4-9.8,10.5c2.5,4.8,1.6,11.1-2.1,15c-3.8,3.9-10.1,5-14.9,2.6c-2.5,6-9,9.8-15.4,10.7
					c-6.5,0.9-13.1-0.6-19.3-2.5C84.6,154.9,24.6,113.7,41.8,54.8z"/>
			</g>
			<g>
				<g>
					<path class="st1" d="M43.4,55.2c1.3-4.3,2.5-8.7,4.4-12.8c1.9-4.1,4.5-7.8,7.5-11.2c5.4-6,12.1-11,19.8-13.8
						c3.7-1.4,7.6-2.3,11.6-2.6c3.9-0.3,7.8-0.1,11.7,0.2c6.8,0.6,13.9,2.2,20,5c6.1,2.7,11.5,6.4,16.1,11.1c5,5.1,8.9,11,12.1,17.4
						c4.2,8.8,7.2,18.1,10.2,27.4c1.6,4.9,3.2,9.7,4.9,14.5c1.5,4.3,3.1,8.6,5.3,12.6c2.2,4.1,5.1,7.7,8.7,10.6
						c3.6,2.9,7.7,5.2,11.2,8.2c3,2.6,5.8,5.9,6.6,9.9c0.7,3.3-0.5,7-3.3,9.1c-1.2,0.9-2.8,1.4-4.2,1.2c-1.4-0.2-2.6,1.1-1.9,2.5
						c1.7,3.2,1.6,7.3-0.1,10.5c-1.7,3.2-5,5.4-8.6,5.7c-2,0.2-4.1-0.1-6-1c-0.7-0.4-1.9-0.3-2.3,0.6c-2.9,6.8-10.3,9.9-17.3,10.1
						c-4.6,0.1-9.1-0.9-13.5-2.1c-3.1-0.9-6.1-1.8-9.2-2.8c-11.9-4-23.3-9.3-34.1-15.7c-10.9-6.5-21.1-14.1-29.8-23.3
						c-8.2-8.6-15.1-18.8-19-30.1c-4.1-11.7-4.6-24.2-1.9-36.4C42.5,58.5,43,56.8,43.4,55.2c0.6-2.1-2.7-3-3.3-0.9
						c-3.7,12.7-4.1,26.3-0.5,39.1c3.4,12.1,10,23,18.2,32.3c8.6,9.8,18.9,18,30,24.9c11.1,6.9,22.9,12.6,35.2,17
						c7,2.5,14.3,5,21.7,5.9c7.9,1,16.8-0.7,22.3-6.9c1.2-1.4,2.3-2.9,3-4.6c-0.8,0.2-1.5,0.4-2.3,0.6c4.3,2.1,9.5,1.9,13.8-0.4
						c4.3-2.4,6.9-6.8,7.2-11.6c0.2-2.7-0.4-5.5-1.6-7.9c-0.6,0.8-1.3,1.7-1.9,2.5c4.3,0.7,8.1-1.7,10.2-5.3
						c2.3-3.9,2.1-8.3,0.3-12.4c-4-8.9-13.7-12.3-20.3-18.8c-3.3-3.2-5.6-7.3-7.4-11.5c-2-4.4-3.5-9-5.1-13.6
						c-3.4-10-6.4-20.1-10.4-29.9c-3.1-7.5-6.8-14.7-12-21c-4.4-5.4-9.9-10-16-13.5c-6.3-3.5-13.2-5.8-20.3-6.9
						c-8.1-1.3-16.6-1.8-24.6,0.1c-8.3,1.9-16,6.2-22.3,11.9c-3.4,3-6.4,6.4-9,10.2c-2.7,4-4.7,8.5-6.2,13.1
						c-0.7,2.2-1.4,4.4-2.1,6.7C39.6,56.4,42.8,57.3,43.4,55.2z"/>
				</g>
			</g>
		</g>
		<g>
			<g>
				<path class="st2" d="M134.6,343c7.1-0.2,14.2-2.4,20-6.5c0.8-0.6,1.7-1.2,2.1-2.1c0.5-1.1,0.3-2.4,0-3.6
					c-1.5-7.4-2.6-18.6-10.9-21.5c-3.3-1.2-7.1,0-10.1,2c-2.5,1.7-4.6,4.2-5.1,7.2c-0.6,4,1,7.5-0.4,11.6c-0.7,2.1-1.9,4.1-2.3,6.2
					c-0.4,2.2,0.1,4.8,2,5.9c1,0.6,2.2,0.7,3.4,0.7C133.8,343,134.2,343,134.6,343z"/>
			</g>
			<g>
				<g>
					<path class="st1" d="M134.6,344.7c4.1-0.1,8.2-0.8,12.1-2.2c2-0.7,3.9-1.6,5.7-2.6c1.7-0.9,3.6-2,4.9-3.4
						c1.6-1.8,1.5-3.9,1.1-6.1c-0.3-1.3-0.5-2.7-0.8-4c-0.5-2.9-1.2-5.8-2.2-8.5c-1-2.7-2.4-5.4-4.5-7.4c-2.7-2.5-6.1-3.7-9.7-3.1
						c-3.7,0.6-7.4,2.8-9.7,5.8c-1.3,1.6-2.1,3.4-2.4,5.5c-0.3,2,0,4,0.1,6c0.1,1,0.1,2.1,0,3.1c-0.1,1.1-0.5,2.2-0.9,3.2
						c-0.9,2.1-1.9,4.2-2.1,6.5c-0.1,2,0.5,4.2,1.9,5.6C129.8,344.7,132.3,344.8,134.6,344.7c2.2,0,2.2-3.4,0-3.4
						c-0.9,0-1.8,0.1-2.6-0.1c-0.7-0.1-1.3-0.4-1.6-0.8c-0.7-0.7-0.9-2-0.8-3.3c0.1-1.4,1-3.3,1.7-4.8c0.8-1.9,1.3-3.7,1.4-5.7
						c0.1-3.2-1.1-6.9,0.4-10c1.4-2.8,4.2-4.9,7.2-5.8c1.5-0.5,3-0.6,4.5-0.3c1.1,0.3,2.4,1,3.1,1.6c0.4,0.3,0.8,0.7,1.2,1.1
						c0.2,0.2,0.4,0.5,0.6,0.7c0.2,0.3,0.1,0.1,0,0c0.1,0.2,0.3,0.4,0.4,0.5c0.3,0.5,0.7,1,0.9,1.6c0.1,0.3,0.3,0.5,0.4,0.8
						c0.1,0.2,0.1,0.3,0.2,0.5c0,0,0.2,0.5,0.1,0.2c1,2.4,1.7,5,2.2,7.6c0.3,1.3,0.5,2.6,0.7,3.8c0.2,1.3,0.8,2.7,0.6,4
						c-0.1,0.7-0.6,1.2-1.2,1.6c-0.8,0.6-1.6,1.1-2.4,1.6c-1.7,1-3.4,1.9-5.3,2.6c-3.8,1.5-7.8,2.3-11.9,2.4
						C132.4,341.4,132.4,344.8,134.6,344.7z"/>
				</g>
			</g>
		</g>
		<g>
			<g>
				<path class="st2" d="M37.1,295c1.2,3.5-0.2,7.2-2,10.4c-1.8,3.2-4.1,6.2-5,9.7c-0.5,2.1-0.3,4.6,1.4,5.8
					c2.2,1.6,5.3,0.2,7.6-1.3c6.3-4.1,12.3-8.7,18-13.7c2.4-2.1,4.9-4.7,4.5-7.9c-0.2-1.5-1-2.9-1.8-4.2c-2.7-4.3-5.8-8.5-9-12.5"/>
			</g>
			<g>
				<g>
					<path class="st1" d="M35.5,295.4c0.9,2.8,0,5.6-1.3,8.1c-1.4,2.7-3.2,5.1-4.5,7.8c-1.2,2.5-2.1,5.6-1,8.4
						c1.2,3,4.3,4.1,7.3,3.3c2.9-0.8,5.5-2.9,8-4.6c2.7-1.9,5.4-3.9,7.9-5.9c2.5-2,5-4,7.3-6.2c2.1-2,4.1-4.4,4.2-7.5
						c0.1-1.8-0.6-3.5-1.5-5.1c-0.9-1.6-2-3.1-3-4.6c-2.1-3.1-4.4-6.1-6.8-9c-0.6-0.7-1.8-0.6-2.4,0c-0.7,0.7-0.6,1.7,0,2.4
						c1.9,2.3,3.7,4.7,5.4,7.2c0.9,1.3,1.8,2.6,2.6,3.9c0.7,1.1,1.6,2.2,2,3.5c0.8,2.3-0.5,4.3-2.1,6c-2,2.1-4.3,3.9-6.5,5.7
						c-2.3,1.8-4.6,3.6-7,5.3c-2.4,1.7-4.7,3.5-7.3,4.9c-1,0.5-2.1,1-3.2,0.9c-0.8,0-1.4-0.5-1.8-1.3c0,0.1-0.1-0.4-0.1-0.5
						c-0.1-0.3-0.1-0.3-0.1-0.5c0-0.3,0-0.6,0-0.9c0-0.3,0-0.4,0.1-0.6c0.2-1.3,0.7-2.5,1.3-3.7c1.4-2.8,3.3-5.3,4.6-8.2
						c1.4-3,2.2-6.5,1.2-9.7c-0.3-0.9-1.2-1.4-2.1-1.2C35.8,293.6,35.2,294.6,35.5,295.4L35.5,295.4z"/>
				</g>
			</g>
		</g>
		<g>
			<g>
				<path class="st9" d="M74.1,181.6c-6.6,5.6-13.2,10.2-19.4,16.2c-8.6,8.5-19.1,14.6-27,23.9c-6.3,7.5-10.9,16.7-10.9,26.5
					c-0.1,6.6,1.9,13,3.9,19.2c1.9,6.2,3.8,12.3,5.8,18.5c1,3.1,2,6.3,4.3,8.6c5.2,5.2,14.1,3.2,20.6-0.2c2.6-1.3,5.2-2.9,6.8-5.4
					c2.3-3.7,1.8-8.4,2.3-12.7C62,263.3,73,254,82.5,245.1c9.5-8.9,18.8-21.1,15.5-33.7"/>
			</g>
			<g>
				<g>
					<path class="st1" d="M72.9,180.4c-3.7,3.1-7.5,6-11.3,9.1c-1.9,1.5-3.7,3.1-5.5,4.7c-1.7,1.6-3.3,3.2-5.1,4.8
						c-6.5,5.9-13.8,10.8-20.1,16.9c-6.3,6.1-11.6,13.6-14.2,22c-1.3,4.3-1.9,8.8-1.5,13.3c0.4,4.9,1.7,9.7,3.1,14.5
						c1.5,4.9,3,9.7,4.6,14.6c0.7,2.4,1.5,4.8,2.2,7.2c0.7,2.1,1.4,4.2,2.6,6c2.2,3.5,5.8,5.5,9.9,5.9c3.8,0.4,7.7-0.6,11.2-2
						c3.9-1.5,7.9-3.6,10.4-7c2.7-3.7,2.4-8.4,2.8-12.7c0.6-7.7,4.9-14.3,10-19.9c5.5-6.1,12.1-11.2,17.5-17.4
						c5.6-6.4,10.6-14.3,10.9-23.1c0.1-2.1-0.2-4.2-0.7-6.3c-0.5-2.1-3.8-1.2-3.3,0.9c2,8-1.5,15.8-6.1,22.1
						c-4.8,6.6-11.1,11.8-16.9,17.5c-5.5,5.4-10.7,11.4-13.3,18.8c-0.6,1.8-1.1,3.7-1.3,5.6c-0.3,2.1-0.3,4.2-0.5,6.3
						c-0.2,1.9-0.5,3.9-1.4,5.6c-0.9,1.6-2.4,2.9-3.9,3.8c-3.2,2-6.6,3.4-10.2,4.2c-3.2,0.6-6.6,0.6-9.4-1.2
						c-3.2-2.1-4.4-6.2-5.5-9.8c-1.5-4.8-3-9.6-4.5-14.3c-2.7-8.6-6-17.6-4.5-26.8c1.4-8.2,5.7-15.7,11.2-21.9
						c5.7-6.4,12.7-11.3,19.3-16.8c1.6-1.3,3.2-2.7,4.8-4.2c1.7-1.6,3.3-3.2,5-4.8c3.5-3.1,7.2-6,10.8-8.9c1.8-1.4,3.6-2.9,5.3-4.4
						c0.7-0.6,0.6-1.8,0-2.4C74.6,179.7,73.6,179.8,72.9,180.4L72.9,180.4z"/>
				</g>
			</g>
		</g>
		<g>
			<g>
				<path class="st9" d="M83,234.2c6.9,13.7,15.3,25.6,20.7,40.2c3.9,10.5,7.8,21,11.7,31.4c1.8,4.8,4,10.1,8.7,12.1
					c1.1,0.5,2.4,0.8,3.3,1.6c1,0.8,1.6,2.1,2.8,2.6c0.9,0.4,1.9,0.3,2.9,0.1c5.4-0.9,10.8-2.4,15.9-4.4c1.3-0.5,2.6-1,3.4-2.1
					c1-1.4,0.9-3.3,1-5c0.4-4.1,3.2-7,3.8-11.1c0.7-5.6-0.5-12-1.6-17.4c-2.4-11.9-6.8-23.2-10.9-34.6c-6.3-17.3-14.7-34-25.7-48.8"
					/>
			</g>
			<g>
				<g>
					<path class="st1" d="M81.5,235c3.7,7.4,8,14.5,12,21.8c2,3.6,3.8,7.2,5.6,10.9c1.8,4,3.3,8,4.8,12.1c3.2,8.6,6.4,17.3,9.7,25.9
						c1.2,3.3,2.5,6.7,4.6,9.5c1.1,1.4,2.4,2.7,3.9,3.6c1.5,0.9,3.4,1.1,4.6,2.4c0.6,0.7,1.1,1.4,1.9,1.9c0.9,0.7,2.1,1,3.2,0.9
						c2.1-0.1,4.3-0.7,6.4-1.2c4.3-1,8.6-2.2,12.6-4c1.9-0.9,3.3-2.3,3.8-4.4c0.4-1.8,0.3-3.7,0.8-5.5c0.5-1.6,1.3-3.1,2-4.7
						c0.8-1.8,1.3-3.6,1.5-5.6c0.4-4.3-0.2-8.6-1-12.8c-0.8-4.3-1.7-8.5-2.9-12.7c-2.4-8.6-5.5-16.9-8.5-25.2
						c-5.8-15.8-13-31.1-22.6-45c-1.1-1.7-2.3-3.3-3.5-4.9c-0.5-0.7-1.5-1.1-2.3-0.6c-0.7,0.4-1.2,1.6-0.6,2.3
						c9.7,13.1,17.4,27.6,23.4,42.7c1.6,4,3,8,4.4,12c1.5,4,2.9,8.1,4.3,12.2c1.4,4.2,2.6,8.4,3.6,12.7c0.9,3.9,1.7,7.9,2.2,11.9
						c0.4,3.8,0.7,7.8-0.8,11.4c-0.7,1.6-1.5,3.1-2.1,4.7c-0.7,1.8-0.7,3.6-0.9,5.5c-0.1,0.7-0.2,1.5-0.7,2.1
						c-0.4,0.5-1.1,0.9-1.8,1.1c-1.9,0.8-3.9,1.5-5.9,2.1c-2,0.6-4.1,1.2-6.2,1.7c-1,0.2-2.1,0.5-3.1,0.7c-0.8,0.2-2,0.5-2.8,0.3
						c-0.6-0.1-1-0.7-1.4-1.2c-0.7-0.8-1.3-1.5-2.2-2c-1.5-0.8-3.2-1.2-4.6-2.3c-2.2-1.7-3.8-4.7-4.9-7.4c-1.6-3.9-3-7.9-4.5-11.9
						c-1.6-4.2-3.1-8.4-4.7-12.6c-1.6-4.2-3-8.4-4.7-12.5c-1.6-3.8-3.3-7.5-5.2-11.1c-3.7-7.1-7.9-14-11.7-21
						c-1-1.8-1.9-3.6-2.8-5.4c-0.4-0.8-1.6-1-2.3-0.6C81.3,233.2,81.1,234.2,81.5,235L81.5,235z"/>
				</g>
			</g>
		</g>
		<g>
			<g>
				<path class="st10" d="M190.5,59.1c-3.9-3.3-8.5-9-14.1-7.7c-5.1,1.2-8.2,7.7-11.7,11.1c-4.9,4.9-10.5,9.1-15.9,13.5
					c-5.3,4.3-10.1,9.4-15.1,14.1c-2.4,2.3-4.9,4.6-7.3,6.9c-1.1,1-5.3,6.2-6.7,6.2c-0.5,0.5-1,1-1.4,1.5c-3.7-1.3-7.4-2-10.5-2.5
					c-8.9-1.5-18.7-0.4-27.6-0.7c-8.9-0.3-18.3,2.2-26.3,6c-11,5.1-21.7,10.4-32.8,15.4c-8.5,3.8-15,10.8-17.5,20
					c-4.2,15.7,4.1,29,19.2,33.8c6.8,2.2,14.2,2.4,21.2,1.2c-0.5,9-0.8,18-1.9,27c-0.1,1-0.2,2.1,0.2,3.1c0.7,1.7,2.8,2.3,4.7,2.7
					c23.3,5,49.7,9.3,73.6,6.7c21.9-2.4,13.6-23.8,14.3-39.6c0.1-2.8,0.2-5.5,0.3-8.3c2.5-1.6,4.9-3.7,6.9-5.7
					c5.2-5.3,10.4-10.6,15.2-16.3c12.7-14.7,23-31.4,30.5-49.3c3.1-7.4,8.9-18,10.2-25.7C198.8,66.7,194.6,62.5,190.5,59.1z"/>
			</g>
			<g>
				<g>
					<path class="st1" d="M191.7,57.9c-4.4-3.7-9-9.4-15.5-8.1c-5.8,1.2-8.6,7.4-12.4,11.3c-5.3,5.6-11.8,10-17.6,14.9
						c-6,5-11.4,10.8-17.1,16.1c-2.3,2.1-4.5,4.3-6.6,6.5c-0.8,0.9-1.8,2-2.7,2.6c0,0-0.3,0.2-0.4,0.3c-0.1,0.1-0.2,0.2,0.1,0
						c-0.3,0.2,0.6-0.2,0,0c-1.2,0.4-1.9,1.4-2.7,2.4c0.6-0.3,1.3-0.5,1.9-0.8c-6.8-2.3-14-3.3-21.1-3.4c-3.7-0.1-7.4,0.1-11.1,0.1
						c-3.5,0-7-0.2-10.6,0c-7.1,0.4-14.1,2.3-20.7,5.1c-7,3-13.8,6.4-20.6,9.7c-3.4,1.6-6.9,3.2-10.3,4.8c-3,1.4-6.1,2.6-8.8,4.4
						c-4.8,3.1-8.9,7.5-11.5,12.7c-4.8,9.7-4.6,21.9,2.1,30.7c7.6,10,20.7,13.7,32.8,12.8c1.8-0.1,3.6-0.4,5.4-0.6
						c-0.7-0.5-1.4-1.1-2.1-1.6c-0.4,7.2-0.6,14.4-1.3,21.5c-0.2,1.8-0.4,3.7-0.6,5.5c-0.2,1.5-0.2,3.1,0.7,4.4
						c1.6,2.5,4.8,2.9,7.5,3.5c13.3,2.8,26.8,5.2,40.4,6.3c6.8,0.6,13.6,0.9,20.3,0.7c3.3-0.1,6.7-0.3,10-0.6c2.5-0.2,5-0.6,7.3-1.4
						c3.6-1.3,6.7-3.6,8.5-7c1.7-3.3,2.3-7.1,2.4-10.8c0.1-4-0.3-8-0.6-12c-0.3-4.4-0.4-8.7-0.2-13.2c0.1-1.8,0.1-3.5,0.2-5.3
						c-0.3,0.5-0.6,1-0.8,1.5c4.1-2.6,7.4-6.1,10.8-9.6c3.5-3.6,6.9-7.2,10.3-11c6.1-6.9,11.7-14.3,16.7-22c5-7.7,9.4-15.7,13.2-24
						c1.7-3.8,3.3-7.6,5-11.3c1.8-3.9,3.6-7.8,5.2-11.8c1.5-4,3.3-8.6,2.4-12.9C198.5,64,195,60.7,191.7,57.9
						c-0.7-0.6-1.7-0.7-2.4,0c-0.6,0.6-0.7,1.8,0,2.4c3.1,2.7,6.9,6,7,10.4c0,2.1-0.7,4.3-1.3,6.3c-0.7,2.3-1.6,4.5-2.6,6.6
						c-1.9,4.4-4,8.7-5.9,13c-2,4.8-4.2,9.5-6.5,14.1c-4.9,9.5-10.7,18.7-17.1,27.2c-6.7,8.9-14.4,17-22.3,24.9
						c-2,2-4.1,3.6-6.3,5.2c-1.2,0.9-0.9,2.8-0.9,4.1c-0.1,1.5-0.1,3-0.2,4.5c-0.2,3.5,0,6.9,0.2,10.3c0.5,6.2,1.4,12.9,0,18.8
						c-0.7,2.7-1.8,4.8-3.9,6.6c-2.3,2-5.8,3-9,3.3c-11,1.2-22.2,0.9-33.2-0.1c-11.2-1-22.4-2.9-33.4-5.2c-2.5-0.5-5.1-0.9-7.6-1.6
						c-0.8-0.2-1.8-0.5-2.3-1.2c-0.7-0.9-0.3-2.2-0.2-3.2c0.7-5.9,1.1-11.9,1.4-17.9c0.1-2.9,0.3-5.8,0.4-8.8
						c0.1-1.2-1.1-1.8-2.1-1.6C32,178,18.8,176,10.5,167.3c-3.2-3.4-5.3-7.6-6.2-12.2c-0.9-5-0.2-10.3,1.7-15
						c1.9-4.9,5.4-9.3,9.6-12.4c2.3-1.7,4.9-3,7.5-4.2c3.3-1.5,6.6-3,9.9-4.5c6.7-3.1,13.3-6.3,20-9.4c6.1-2.9,12.5-5.1,19.2-6.1
						c3.3-0.5,6.6-0.4,10-0.4c3.5,0,7-0.1,10.5-0.1c6.8-0.1,13.4,0.3,20,1.8c1.7,0.4,3.4,0.9,5.1,1.5c0.8,0.3,1.5-0.2,1.9-0.8
						c0.3-0.4,0.8-0.8,1.2-1.2c-0.4,0.2-0.8,0.3-1.2,0.5c2-0.1,3.7-2.2,4.9-3.6c1.6-1.7,3.2-3.4,4.9-5c2.8-2.6,5.7-5.3,8.4-8
						c2.6-2.6,5.3-5.2,8-7.7c5.4-5,11.5-9.1,17-14.1c2.3-2.1,4.4-4.3,6.3-6.8c1.5-2,3.1-4.2,5.2-5.7c5.8-3.9,10.9,2.6,15,6.1
						C190.9,61.7,193.3,59.3,191.7,57.9z"/>
				</g>
			</g>
		</g>
		<g>
			<g>
				<path class="st0" d="M58.1,78.7c-1.6,0.5-3.3,0.6-5.1,0.4c-7-0.9-12-7.3-11.1-14.4c0.9-7,7.3-12,14.4-11.1
					c2.6,0.3,5,1.4,6.8,3.1"/>
			</g>
			<g>
				<g>
					<path class="st1" d="M57.7,77.1c-1.8,0.5-3.7,0.6-5.5,0.1c-1.5-0.4-2.7-0.9-4-1.8c-2.3-1.6-3.9-4.1-4.4-6.9
						c-1.2-5.7,2.6-11.5,8.2-13c1.5-0.4,3.2-0.5,4.8-0.1c1.9,0.4,3.7,1.2,5.2,2.5c0.7,0.6,1.7,0.7,2.4,0c0.6-0.6,0.7-1.8,0-2.4
						c-3.3-2.9-7.5-4.1-11.9-3.5c-3.6,0.5-6.9,2.5-9.1,5.3c-2.3,3-3.5,6.8-3.1,10.5c0.4,3.7,2.2,7.2,5,9.6c3.7,3.1,8.7,4.2,13.3,3
						C60.7,79.7,59.8,76.5,57.7,77.1L57.7,77.1z"/>
				</g>
			</g>
		</g>
		<g>
			<g>
				<path class="st0" d="M113,96.6c-2,6.9-2.4,14.6-8,19.7c-4,3.7-9.7,5.4-15.1,4.7c-1.7-0.2-3.3-0.7-4.7-1.5
					c-8.4-5.1-5.8-15.3-5.6-23.2"/>
			</g>
			<g>
				<g>
					<path class="st1" d="M111.4,96.2c-1.2,4.3-1.8,8.8-3.5,13c-1.6,4-4.8,7.3-8.8,9c-4.1,1.7-9.6,2.2-13.4-0.3
						c-1.6-1-2.7-2.3-3.5-3.9c-0.3-0.5-0.3-0.5-0.4-0.9c-0.2-0.5-0.3-0.9-0.4-1.4c-0.1-0.4-0.2-0.8-0.3-1.2
						c-0.1-0.6-0.1-0.6-0.2-1.2c-0.4-4.3,0.3-8.6,0.4-12.8c0.1-2.2-3.3-2.2-3.4,0c-0.2,7.9-2.4,17.7,4.7,23.4
						c4.3,3.5,10.3,3.9,15.5,2.3c5-1.5,9.4-4.8,11.9-9.4c2.6-4.8,3.2-10.4,4.7-15.6C115.2,95,112,94.1,111.4,96.2L111.4,96.2z"/>
				</g>
			</g>
		</g>
		<g>
			<g>
				<path class="st0" d="M133.8,90.5c1.4,0.8,3.1,1.4,4.8,1.6c7,0.9,13.5-4.1,14.4-11.1c0.9-7-4.1-13.5-11.1-14.4
					c-2.6-0.3-5.2,0.2-7.4,1.3"/>
			</g>
			<g>
				<g>
					<path class="st1" d="M133,92c3.6,2,8,2.6,12,1.2c3.4-1.2,6.4-3.7,8.1-6.9c1.8-3.3,2.2-7.4,1.1-11c-1.1-3.5-3.4-6.5-6.6-8.4
						c-4.3-2.5-9.5-2.6-14-0.4c-0.8,0.4-1,1.6-0.6,2.3c0.5,0.8,1.5,1,2.3,0.6c3.1-1.5,6.9-1.5,9.7-0.1c2.5,1.3,4.6,3.4,5.6,5.9
						c1.1,2.8,1.1,5.7-0.1,8.5c-0.5,1.2-1.4,2.5-2.3,3.4c-1,1-2,1.7-3.4,2.4c-1.3,0.6-3,1-4.4,1c-2,0-4-0.5-5.7-1.5
						C132.8,88,131.1,90.9,133,92L133,92z"/>
				</g>
			</g>
		</g>
		<g>
			<g>
				<g>
					<path class="st0" d="M139.1,64.8c-7.1-3.1-13.6-7.5-20-12c-6.5-4.5-13.5-9.5-16.2-17.2c-15,8.4-31.3,14.4-48.1,17.5
						c-0.5,1.8-0.8,3.6-1.1,5.5c-3.1,24.6,14.3,47,38.8,50.2c24.6,3.1,47-14.3,50.2-38.8c0.2-1.5,0.3-2.9,0.3-4.4
						C141.9,65.7,140.6,65.5,139.1,64.8z"/>
				</g>
				<g>
					<g>
						<path class="st1" d="M139.9,63.3c-6.1-2.6-11.7-6.3-17.2-10c-4.7-3.2-9.5-6.3-13.4-10.5c-2-2.2-3.8-4.8-4.8-7.6
							c-0.4-1-1.5-1.6-2.5-1C90.4,40.6,78.1,45.7,65.2,49c-3.6,0.9-7.3,1.8-10.9,2.5c-0.6,0.1-1,0.6-1.2,1.2
							c-2.6,10.4-1.6,21.5,2.9,31.3c4.1,8.8,11.1,16.3,19.6,21c9,5,19.6,6.8,29.8,5.3c9.7-1.5,18.8-6.2,25.7-13.1
							c7.1-7.1,11.7-16.4,13.1-26.4c0.2-1.7,0.4-3.5,0.5-5.2c0-0.9-0.8-1.8-1.7-1.7c-1.3,0.1-2.3-0.2-3.5-0.7
							c-0.8-0.4-1.9,0.4-2.1,1.2c-0.3,1,0.3,1.7,1.2,2.1c1.4,0.6,2.9,1,4.4,0.8c-0.6-0.6-1.1-1.1-1.7-1.7c-0.3,9.8-4,19.4-10.4,26.8
							c-6,7-14,11.8-22.9,14c-9.1,2.2-19.2,1.2-27.7-2.7C71.9,99.7,65,93.4,60.5,85.4c-2.3-4-3.8-8.3-4.7-12.9
							c-0.4-2.3-0.7-4.4-0.8-6.8c-0.1-2.4,0-4.9,0.4-7.3c0.2-1.6,0.6-3.2,1-4.8c-0.4,0.4-0.8,0.8-1.2,1.2
							c13.2-2.5,26.1-6.7,38.3-12.4c3.5-1.6,6.8-3.4,10.2-5.2c-0.8-0.3-1.7-0.7-2.5-1c2,5.7,6.1,10.1,10.8,13.8
							c2.3,1.8,4.8,3.5,7.2,5.2c2.9,2,5.7,3.9,8.7,5.8c3.3,2,6.7,3.9,10.3,5.5c0.8,0.4,1.8,0.2,2.3-0.6
							C141,64.9,140.8,63.7,139.9,63.3z"/>
					</g>
				</g>
			</g>
		</g>
		<g>
			<circle class="st6" cx="122.7" cy="77.9" r="9.4"/>
		</g>
		<g>
			<circle class="st6" cx="69.9" cy="71.2" r="9.4"/>
		</g>
		<g>
			<circle class="st1" cx="113.1" cy="65" r="3.5"/>
		</g>
		<g>
			<circle class="st1" cx="82.7" cy="60.8" r="3.5"/>
		</g>
		<g>
			<g>
				<path class="st1" d="M99.1,61.1c-0.5-0.4-1.1-0.7-1.8-0.7c-0.5,0-1.1,0.1-1.5,0.4c-0.9,0.5-1.3,1.4-1.7,2.4
					c-0.5,1.5-0.5,3.3,0.1,4.8c0.2,0.4,0.4,0.8,0.8,1c0.4,0.2,0.9,0.3,1.3,0.2c0.8-0.3,1.5-1.2,1.2-2.1c-0.2-0.4-0.3-0.8-0.3-1.2
					c0,0.1,0,0.3,0.1,0.4c-0.1-0.5-0.1-1,0-1.6c0,0.1,0,0.3-0.1,0.4c0.1-0.5,0.2-1,0.4-1.4c-0.1,0.1-0.1,0.3-0.2,0.4
					c0.1-0.2,0.2-0.4,0.4-0.7c-0.1,0.1-0.2,0.2-0.3,0.3c0.1-0.1,0.2-0.2,0.3-0.3c-0.1,0.1-0.2,0.2-0.3,0.3c0.1-0.1,0.2-0.1,0.3-0.1
					c-0.1,0.1-0.3,0.1-0.4,0.2c0.1,0,0.2-0.1,0.3-0.1c-0.1,0-0.3,0-0.4,0.1c0.1,0,0.2,0,0.3,0c-0.1,0-0.3,0-0.4-0.1
					c0.1,0,0.1,0,0.2,0.1c-0.1-0.1-0.3-0.1-0.4-0.2c0.1,0,0.1,0.1,0.2,0.1c-0.1-0.1-0.2-0.2-0.3-0.3c0,0,0,0,0.1,0
					c0.4,0.3,0.7,0.5,1.2,0.5c0.4,0,0.9-0.2,1.2-0.5c0.3-0.3,0.5-0.7,0.5-1.2C99.6,61.8,99.5,61.3,99.1,61.1L99.1,61.1z"/>
			</g>
		</g>
		<g>
			<g>
				<path class="st2" d="M87.2,83.8c-1.3-2.4-2.4-7.5-0.6-10c1.2-1.7,5.1-0.8,6.8-0.7c3.3,0.3,6.6,1,9.7,2.1
					c0.9,0.3,1.9,0.7,2.5,1.5c0.9,1.2,0.6,2.8,0,4.2c-1.8,3.9-4.4,7.7-9.2,7.9C92.6,89,89.1,87.3,87.2,83.8z"/>
			</g>
			<g>
				<g>
					<path class="st1" d="M88.7,82.9c-0.1-0.1-0.1-0.3-0.2-0.4c0-0.1-0.1-0.2-0.1-0.3c0,0,0.1,0.2,0,0c-0.2-0.4-0.3-0.8-0.4-1.2
						c-0.1-0.4-0.2-0.8-0.3-1.2c-0.1-0.4-0.2-0.9-0.2-1.1c0-0.4-0.1-0.8-0.1-1.2c0-0.2,0-0.4,0-0.7c0-0.1,0-0.6,0-0.4
						c0-0.4,0.1-0.8,0.3-1.1c0.1-0.2,0,0,0,0c0-0.1,0.1-0.2,0.1-0.2c0.1-0.1,0.1-0.2,0.2-0.3c0.1-0.2-0.1,0.2,0,0
						c0,0,0.1-0.1,0.1-0.1c0,0-0.1,0.2-0.1,0.1c0,0,0.1-0.1,0.2-0.1c-0.3,0.1-0.1,0,0,0c0.1,0,0.3-0.1,0.4-0.1c0.1,0,0.2,0,0.2,0
						c0.3,0-0.4,0,0.1,0c0.8,0,1.5,0,2.3,0.1c1.7,0.2,3.4,0.3,5.1,0.6c2.2,0.4,4.5,0.9,6.6,1.7c0.7,0.2,1.3,0.6,1.5,1.2
						c0.2,0.6,0,1.4-0.3,2.1c-0.3,0.8-0.7,1.5-1.2,2.3c-0.4,0.7-0.9,1.4-1.3,2c-1.1,1.2-2.2,2.1-3.7,2.5
						C94.4,87.9,90.5,86.2,88.7,82.9c-1-1.9-4-0.2-2.9,1.7c2.2,4.1,6.7,6.4,11.3,5.9c4.6-0.5,7.7-4,9.6-7.9c1.1-2.3,1.9-5.1,0-7.2
						c-0.9-1-2.2-1.5-3.4-1.9c-1.3-0.4-2.6-0.8-3.9-1.1c-2.4-0.5-4.8-0.8-7.2-1.1c-1.8-0.2-3.9-0.4-5.6,0.4c-2.2,1.1-2.7,4-2.6,6.1
						c0.1,2.3,0.7,4.7,1.8,6.8c0.4,0.8,1.6,1,2.3,0.6C88.9,84.7,89.1,83.7,88.7,82.9z"/>
				</g>
			</g>
		</g>
		<g>
			<g>
				<path class="st1" d="M71.1,106.3c-1.9,4.9-1.7,10.5,0.6,15.2c1.9,4.1,5.5,7.5,9.6,9.4c4.9,2.1,10.5,2.2,15.8,1.7
					c5.1-0.4,10.4-1.6,14.6-4.5c4.4-3,7.6-7.6,8-12.9c0.1-0.9-0.8-1.7-1.7-1.7c-1,0-1.6,0.8-1.7,1.7c-0.3,3.7-2.6,7.1-5.6,9.5
					c-3.4,2.7-7.8,3.9-12.1,4.4c-2.4,0.3-4.8,0.4-7.3,0.3c-2.4,0-4.8-0.3-7.1-1c-3.7-1.2-7-3.8-9-7.1c-2.5-4.3-2.8-9.5-1-14.1
					c0.3-0.8-0.4-1.9-1.2-2.1C72.2,104.9,71.5,105.5,71.1,106.3L71.1,106.3z"/>
			</g>
		</g>
		<g>
			<g>
				<path class="st1" d="M37.5,304.5c1.8,0,3.5,0.1,5.3,0.1c0.9,0,1.7-0.8,1.7-1.7c0-0.9-0.7-1.7-1.7-1.7c-1.8,0-3.5-0.1-5.3-0.1
					c-0.9,0-1.7,0.8-1.7,1.7C35.8,303.8,36.5,304.5,37.5,304.5L37.5,304.5z"/>
			</g>
		</g>
		<g>
			<g>
				<path class="st1" d="M33.5,311.2c1.8,0.3,3.5,0.6,5.3,0.9c0.5,0.1,0.9,0.1,1.3-0.2c0.4-0.2,0.7-0.6,0.8-1
					c0.1-0.4,0.1-0.9-0.2-1.3c-0.2-0.3-0.6-0.7-1-0.8c-1.8-0.3-3.5-0.6-5.3-0.9c-0.5-0.1-0.9-0.1-1.3,0.2c-0.4,0.2-0.7,0.6-0.8,1
					c-0.1,0.4-0.1,0.9,0.2,1.3C32.7,310.8,33,311.1,33.5,311.2L33.5,311.2z"/>
			</g>
		</g>
		<g>
			<g>
				<path class="st1" d="M138.1,329.5c0.3-0.2,0.5-0.3,0.8-0.5c0.1-0.1,0.3-0.1,0.4-0.2c0.2-0.1,0.1-0.1-0.1,0
					c0.1,0,0.1-0.1,0.2-0.1c0.2-0.1,1.6-0.5,1.6-0.4c-0.3,0-0.3,0-0.1,0c0.1,0,0.2,0,0.2,0c0.2,0,0.3,0,0.5,0c0.3,0,0.5,0,0.8,0
					c0.1,0,0.2,0,0.2,0c0.2,0,0.2,0-0.1,0c0,0,0.4,0.1,0.4,0.1c0.3,0.1,0.6,0.1,0.9,0.2c0.8,0.3,1.9-0.3,2.1-1.2
					c0.2-0.9-0.3-1.8-1.2-2.1c-2.8-0.9-6-0.5-8.4,1.2c-0.7,0.5-1.1,1.5-0.6,2.3C136.2,329.6,137.3,330,138.1,329.5L138.1,329.5z"/>
			</g>
		</g>
		<g>
			<g>
				<path class="st1" d="M136.9,335.4c1.2-0.3,2.5-0.5,3.7-0.7c0,0,0.5-0.1,0.3,0c-0.2,0,0.3,0,0.4,0c0.3,0,0.6-0.1,0.9-0.1
					c0.6-0.1,1.3-0.1,1.9-0.2c0.9-0.1,1.7-0.7,1.7-1.7c0-0.9-0.7-1.8-1.7-1.7c-2.7,0.2-5.4,0.6-8,1.1c-0.9,0.2-1.5,1.2-1.2,2.1
					C135.1,335.2,136,335.6,136.9,335.4L136.9,335.4z"/>
			</g>
		</g>
		<g>
			<g>
				<path class="st0" d="M16,159.6c-3.7-5.2-6.1-12-3.2-18c1.8-3.7,3.4-7.6,7-10.1c1.6-1.1,3.4-1.9,5.3-1.9s3.9,1.1,4.6,2.8
					s0,4.1-1.8,4.8c1.8,0.4,3.3,2,3.7,3.7c0.4,1.8-0.3,3.8-1.7,5c1.7-0.5,3.6,0.7,4,2.4c0.4,1.7-0.9,3.5-2.6,3.8
					c2.9,1.1,4,5.2,2.5,8C29.8,167.5,20.2,165.4,16,159.6z"/>
			</g>
			<g>
				<g>
					<path class="st1" d="M17.5,158.7c-3.3-4.7-5.8-10.9-3.1-16.5c1.2-2.5,2.3-5.2,4.1-7.3c1.7-2,4.5-4.1,7.1-3.6
						c1.2,0.2,2.3,1,2.6,2c0.1,0.5,0.1,0.8-0.1,1.4c0.1-0.3-0.1,0.2-0.1,0.2c0,0.1-0.3,0.4-0.1,0.2c-0.1,0.1-0.2,0.2-0.2,0.2
						c0.3-0.2-0.4,0.2-0.1,0.1c-0.7,0.3-1.2,0.8-1.2,1.6c0,0.7,0.5,1.4,1.2,1.6c2.8,0.8,3.3,4.1,1.2,5.9c-1.3,1.2,0.1,3.2,1.6,2.8
						c0.5-0.1-0.2,0,0.3,0c0,0,0.5,0,0.3,0c0.2,0,0.3,0.1,0.6,0.2c0.3,0.2,0.6,0.5,0.7,0.9c0.1,0.3,0-0.3,0,0.2c0,0.2,0,0.1,0,0.2
						c-0.1,0.4-0.1,0.4-0.3,0.7c0.1-0.1-0.4,0.4-0.3,0.3c-0.3,0.2-0.4,0.2-0.8,0.3c-0.7,0.1-1.2,0.9-1.2,1.6c0,0.8,0.5,1.3,1.2,1.6
						c-0.2-0.1,0.3,0.2,0.4,0.2c0.3,0.2,0.1,0.1,0.1,0c0.1,0.1,0.2,0.1,0.3,0.2c0.4,0.4,0.5,0.5,0.7,0.9c0.1,0.1,0.1,0.2,0.2,0.3
						c0.1,0.3-0.1-0.2,0,0.1c0.1,0.2,0.1,0.4,0.2,0.7c0.1,0.6,0.1,0.6,0.1,1.2c0,0.1,0,0.7,0,0.4c0,0.2-0.1,0.5-0.1,0.7
						c0,0.1-0.1,0.2-0.1,0.3c0,0-0.1,0.3,0,0.1c-0.1,0.3-0.3,0.5-0.4,0.7c-0.5,0.8-0.9,1.4-1.7,2c-0.1,0.1-0.2,0.1-0.3,0.2
						c0.1,0,0.2-0.2,0,0c-0.2,0.1-0.4,0.2-0.5,0.3c-0.2,0.1-0.4,0.2-0.6,0.3c-0.1,0-0.2,0.1-0.3,0.1c0.2-0.1,0,0-0.1,0
						c-0.4,0.1-0.7,0.2-1.1,0.3c-0.2,0-0.4,0.1-0.6,0.1c0.3,0-0.4,0-0.5,0c-0.4,0-0.8,0-1.3,0c-0.1,0-0.5-0.1-0.4,0
						c0.2,0-0.1,0-0.2,0c-0.1,0-0.3,0-0.4-0.1c-0.4-0.1-0.8-0.2-1.2-0.3c-0.2-0.1-0.4-0.1-0.6-0.2c-0.3-0.1-0.1,0-0.1,0
						c-0.2-0.1-0.3-0.1-0.4-0.2c-0.4-0.2-0.9-0.5-1.3-0.7c-0.2-0.1-0.4-0.3-0.6-0.4c-0.1-0.1-0.2-0.1-0.3-0.2
						c-0.1-0.1,0.1,0.1-0.1-0.1c-0.4-0.3-0.8-0.7-1.1-1c-0.2-0.2-0.4-0.4-0.6-0.6c-0.1-0.1-0.1-0.2-0.2-0.3
						C17.8,159.1,17.5,158.8,17.5,158.7c-0.5-0.7-1.5-1.1-2.3-0.6c-0.7,0.4-1.1,1.6-0.6,2.3c2.7,3.7,7.1,6.3,11.8,6.1
						c4.8-0.2,9.5-4,9.7-9c0.1-3.1-1.6-5.9-4.4-7.1c0,1.1,0,2.2,0,3.3c2.6-0.5,4.4-3.4,3.8-6c-0.7-2.6-3.5-4.1-6-3.5
						c0.5,0.9,1.1,1.9,1.6,2.8c1.9-1.6,2.7-4.2,2.1-6.6c-0.5-2.4-2.5-4.3-4.9-4.9c0,1.1,0,2.2,0,3.3c3.6-1.4,4.4-6.1,1.7-8.8
						c-2.9-3-7.5-2.3-10.7-0.2c-3.1,2-5.1,5.1-6.7,8.4c-0.8,1.6-1.7,3.2-2.2,5c-0.5,1.8-0.7,3.8-0.5,5.6c0.4,4.2,2.2,8.2,4.6,11.7
						c0.5,0.7,1.5,1.1,2.3,0.6C17.6,160.6,18,159.5,17.5,158.7z"/>
				</g>
			</g>
		</g>
		<g>
			<g>
				<path class="st1" d="M47,124.8c-0.8,11.5-1.1,23.1-1,34.7c0,3.3,0.1,6.5,0.2,9.8c0.1,2.2,3.4,2.2,3.4,0
					c-0.4-11.6-0.3-23.1,0.3-34.7c0.2-3.3,0.3-6.5,0.6-9.8c0.1-0.9-0.8-1.7-1.7-1.7C47.8,123.1,47.1,123.9,47,124.8L47,124.8z"/>
			</g>
		</g>
	</g>
	<g>
		<g>
			<g>
				<path class="st2" d="M265.2,250.4c4.2-1.3,8.3-2.5,12.5-3.8c1.5-0.5,3.1-0.9,4.4-1.9c1.2-0.9,2.1-2.1,2.9-3.3
					c5.1-7.2,9.9-16.7,18.9-19.6c6.7-2.2,15.2,1.9,13.3,9.9c-0.7,3.1-2.6,5.7-4.5,8.3c-1,1.4-3.1,2.9-3.8,4.5
					c-2.4,5.3-2.1,11.4-4,16.9c-2.2,6.2-7.1,11.2-12.8,14.6c-5.6,3.5-11.9,5.6-18.2,7.7"/>
			</g>
			<g>
				<g>
					<path class="st1" d="M265.7,252c2.8-0.8,5.6-1.7,8.4-2.5c2.6-0.8,5.5-1.4,7.9-2.7c2.3-1.2,3.7-3.3,5.1-5.4
						c1.2-1.7,2.3-3.4,3.5-5.2c2.3-3.4,4.7-6.7,7.9-9.4c1.4-1.2,3.2-2.3,4.8-3c0.9-0.4,1.8-0.7,2.8-0.8c0.1,0,0.2,0,0.2,0
						c0.3,0-0.2,0,0.1,0c0.2,0,0.4,0,0.6-0.1c0.5,0,0.9,0,1.4,0c0.2,0,0.4,0,0.6,0c0.1,0,0.2,0,0.3,0c-0.3,0,0,0,0,0
						c0.4,0.1,0.9,0.2,1.3,0.3c1,0.3,1.3,0.4,2.1,0.9c0.2,0.1,0.3,0.2,0.5,0.3c0.1,0.1,0.5,0.3,0.4,0.3c-0.1-0.1,0.2,0.2,0.3,0.3
						c0.2,0.2,0.3,0.3,0.5,0.5c0.1,0.1,0.3,0.3,0.4,0.5c0.1,0.1,0,0,0,0c0.1,0.1,0.1,0.2,0.2,0.2c0.2,0.3,0.4,0.7,0.6,1.1
						c-0.1-0.3,0.1,0.2,0.1,0.3c0.1,0.2,0.1,0.4,0.2,0.6c0,0.2,0.1,0.4,0.1,0.6c0,0.3,0-0.2,0,0c0,0.1,0,0.3,0,0.4
						c0,0.4,0,0.9,0,1.3c0,0.3,0-0.2,0,0.1c0,0.1,0,0.2-0.1,0.3c-0.1,0.4-0.2,0.7-0.3,1.1c-0.7,2.3-2.1,4.4-3.5,6.4
						c-0.6,0.9-1.3,1.6-2.2,2.5c-0.8,0.8-1.6,1.7-2.1,2.7c-1.1,2.4-1.7,5-2.2,7.5c-0.4,2.5-0.8,5.1-1.4,7.6
						c-0.6,2.3-1.5,4.4-2.7,6.3c-5.3,8.5-14.9,12.6-24,15.7c-1.3,0.4-2.5,0.9-3.8,1.3c-0.9,0.3-1.4,1.2-1.2,2.1
						c0.2,0.8,1.2,1.5,2.1,1.2c10-3.3,20.6-7,27.5-15.5c1.5-1.9,2.9-3.9,3.9-6.2c1.1-2.5,1.7-5,2.1-7.7c0.4-2.6,0.8-5.3,1.5-7.8
						c0.3-1.1,0.6-2.4,1.3-3.4c0.6-0.9,1.5-1.7,2.2-2.4c0.9-0.9,1.6-2,2.3-3c0.8-1.1,1.5-2.2,2.1-3.4c1.1-2.1,1.9-4.6,1.7-7
						c-0.3-4.1-3.1-7.1-6.8-8.5c-3.9-1.5-8.1-0.8-11.8,1c-4,2-7.1,5.3-9.8,8.7c-2.7,3.5-4.9,7.3-7.5,10.8c-0.6,0.9-1.3,1.8-2.2,2.5
						c-1,0.7-2.2,1.1-3.3,1.4c-2.9,0.9-5.8,1.7-8.7,2.6c-1.4,0.4-2.8,0.9-4.3,1.3C262.7,249.4,263.6,252.7,265.7,252L265.7,252z"/>
				</g>
			</g>
		</g>
		<g>
			<g>
				<path class="st1" d="M309,234.6c0.3-0.2,0.5-0.4,0.8-0.5c0.3-0.1-0.3,0.1-0.1,0.1c0.1,0,0.1-0.1,0.2-0.1c0.1,0,0.3-0.1,0.4-0.1
					c0.1,0,0.2,0,0.3-0.1c0.3-0.1-0.4,0-0.1,0c0.2,0,0.3,0,0.5,0c0.1,0,0.3,0,0.4,0c0.2,0,0.4,0.1-0.1,0c0.1,0,0.1,0,0.2,0
					c0.3,0.1,0.6,0.2,0.9,0.3c0.3,0.1-0.3-0.1-0.1-0.1c0.1,0,0.1,0.1,0.2,0.1c0.1,0.1,0.3,0.2,0.4,0.2c0.1,0,0.1,0.1,0.2,0.1
					c0.3,0.2-0.3-0.3-0.1,0c0.1,0.1,0.2,0.2,0.3,0.3c0.1,0.1,0.2,0.2,0.3,0.3c-0.3-0.3-0.1-0.2-0.1-0.1c0,0.1,0.1,0.2,0.1,0.2
					c0.5,0.8,1.5,1.1,2.3,0.6c0.8-0.5,1.1-1.5,0.6-2.3c-1.8-3.1-6.5-4.2-9.4-2c-0.4,0.3-0.6,0.5-0.8,1c-0.1,0.4-0.1,0.9,0.2,1.3
					C307.1,234.6,308.2,235.1,309,234.6L309,234.6z"/>
			</g>
		</g>
		<g>
			<g>
				<path class="st2" d="M258.9,281.1c3.2,9.4,4.3,19.5,3.3,29.3c-1.1,10.8-9.5,23.4-18.4,29.4c-1.4,0.9-2.9,1.8-3.7,3.2
					c-0.7,1.1-0.9,2.3-1.1,3.6c-0.6,5.4,0.4,11.1-1.1,16.3s-7.5,9.9-12.3,7.2c-4.4-2.4-4.3-8.5-4.7-13.5c-0.5-5.7-2.4-11.3-5.4-16.2
					c-1.2-1.9-2.7-4.1-2.2-6.3c0.4-2,2.2-3.4,3.2-5.2c0.7-1.3,1.5-5,0.5-6.3c-3.8-5.3-9-13.5-12.8-18.9"/>
			</g>
			<g>
				<g>
					<path class="st1" d="M257.2,281.6c2.2,6.5,3.4,13.3,3.6,20.2c0,1.8,0,3.5-0.1,5.3c0,0.8-0.1,1.6-0.2,2.4
						c-0.1,0.7-0.1,1.4-0.2,2c-0.4,2.7-1.2,5.4-2.3,7.9c-2.3,5.3-5.6,10.2-9.6,14.4c-1.9,2-3.9,3.6-6.1,5.1
						c-1.4,0.9-2.6,1.8-3.6,3.2c-1,1.4-1.3,3.1-1.5,4.7c-0.4,3.4-0.1,6.9-0.2,10.3c-0.1,3-0.5,5.9-2.1,8.3c-1.3,1.9-3.2,3.4-5.4,3.9
						c-0.4,0.1-0.2,0.1-0.6,0.1c-0.3,0-0.6,0-0.9,0c0,0-0.3,0-0.1,0c-0.1,0-0.3-0.1-0.4-0.1c-0.3-0.1-0.5-0.2-0.7-0.2
						c-1-0.5-1.7-1.1-2.2-2c-0.6-1-0.9-1.7-1.2-2.9c-0.3-1.3-0.4-2.3-0.6-3.5c-0.3-2.9-0.4-5.9-1-8.8c-0.7-3.2-1.8-6.4-3.3-9.3
						c-0.7-1.4-1.6-2.8-2.4-4.1c-0.7-1.1-1.4-2.4-1.2-3.7c0.2-1.3,1.3-2.4,2.1-3.4c0.7-1,1.3-2,1.6-3.2c0.3-1.2,0.5-2.5,0.5-3.7
						c-0.1-1.4-0.5-2.3-1.3-3.4c-3.4-4.8-6.5-9.8-9.9-14.6c-0.7-1.1-1.5-2.2-2.3-3.3c-0.5-0.7-1.5-1.1-2.3-0.6
						c-0.7,0.4-1.1,1.6-0.6,2.3c3.5,4.9,6.7,10,10.1,15c0.8,1.2,1.6,2.3,2.4,3.5c0.1,0.2,0.3,0.4,0.4,0.6c-0.2-0.3,0,0.2,0.1,0.4
						c-0.1-0.3,0,0,0,0.1c0,0.1,0,0.3,0,0.4c0,0.4,0,0.7-0.1,1.1c0-0.1,0-0.3,0,0.1c0,0.1-0.1,0.3-0.1,0.4c-0.1,0.3-0.1,0.5-0.2,0.8
						c-0.1,0.3-0.1,0.5-0.2,0.8c0,0.1-0.2,0.5,0,0.1c-0.1,0.1-0.1,0.3-0.2,0.4c-0.7,1.3-1.7,2.3-2.5,3.5c-0.9,1.5-1.1,3.2-0.7,4.9
						c0.4,1.7,1.4,3.1,2.3,4.6c1.7,2.8,3.1,5.7,4,8.9c0.8,2.9,1.2,5.8,1.4,8.8c0.2,2.6,0.4,5.4,1.4,7.9c1,2.5,2.9,4.7,5.6,5.5
						c2.7,0.8,5.6,0,7.8-1.6c2.4-1.7,4.1-4,5.1-6.8c1.2-3.3,1.1-6.9,1.1-10.4c0-1.8,0-3.6,0.1-5.4c0.1-1.4,0.2-3,1-4.3
						c0.7-1.2,2-1.9,3.1-2.6c1.2-0.8,2.4-1.7,3.5-2.7c4.5-3.9,8.3-8.8,11.2-14.1c1.5-2.7,2.7-5.5,3.5-8.5c0.9-3,1.2-6,1.4-9.1
						c0.4-7.1-0.3-14.4-2.1-21.3c-0.4-1.7-0.9-3.4-1.5-5c-0.3-0.9-1.2-1.4-2.1-1.2C257.6,279.7,256.9,280.7,257.2,281.6L257.2,281.6
						z"/>
				</g>
			</g>
		</g>
		<g>
			<g>
				<path class="st1" d="M229.9,361.5c0,0.2,0,0.4,0,0.6c0,0.1,0,0.2,0,0.3c0-0.2,0-0.2,0,0c-0.1,0.3-0.1,0.7-0.2,1
					c-0.2,0.7-0.4,1.4-0.6,2.1c-0.1,0.2-0.1,0.3-0.2,0.5c-0.1,0.2-0.1,0.2,0,0c0,0.1-0.1,0.2-0.1,0.3c-0.1,0.3-0.3,0.6-0.5,1
					c-0.3,0.6-0.7,1.3-1.2,1.9c-0.5,0.7-0.1,1.9,0.6,2.3c0.9,0.5,1.8,0.2,2.3-0.6c1.9-2.7,3-5.9,3.2-9.2c0.1-0.9-0.8-1.7-1.7-1.7
					C230.6,359.9,230,360.6,229.9,361.5L229.9,361.5z"/>
			</g>
		</g>
		<g>
			<g>
				<path class="st11" d="M260.4,185.9c-6.1-2.4-22.2-11.9-17.5-20.2c4.2-7.3,18.7-8.4,26-9.3c2.7-0.3,5.9-0.4,7.9,1.5
					c1.3,1.2,1.9,3.1,2.3,4.9c1.2,4.7,1.8,9.8,0.5,14.5c-1.3,4.7-4.9,9-9.6,10.1C266.8,187.9,263.5,187.1,260.4,185.9z"/>
			</g>
			<g>
				<g>
					<path class="st1" d="M260.9,184.2c-0.1,0-0.2-0.1-0.3-0.1c-0.2-0.1,0.2,0.1,0.2,0.1c-0.1,0-0.1-0.1-0.2-0.1
						c-0.3-0.1-0.5-0.2-0.8-0.3c-0.6-0.3-1.2-0.6-1.7-0.9c-1.3-0.7-2.5-1.4-3.8-2.2c-2.8-1.7-5-3.4-7.3-5.7
						c-0.3-0.3-0.5-0.5-0.7-0.8c-0.1-0.1-0.2-0.3-0.3-0.4c0-0.1-0.1-0.1-0.1-0.2c0.1,0.2,0,0-0.1-0.1c-0.4-0.6-0.8-1.1-1.1-1.7
						c-0.1-0.1-0.1-0.3-0.2-0.4c0-0.1-0.1-0.1-0.1-0.2c-0.1-0.2,0.1,0.3,0,0c-0.1-0.3-0.2-0.6-0.3-0.9c0-0.1-0.1-0.3-0.1-0.4
						c0-0.1-0.1-0.5-0.1-0.3c0,0.2,0-0.2,0-0.3c0-0.2,0-0.3,0-0.5c0-0.1,0-0.3,0-0.4c0-0.1,0-0.2,0-0.3c0,0-0.1,0.3,0,0.1
						c0.1-0.3,0.1-0.6,0.2-1c0-0.1,0-0.1,0.1-0.2c0.1-0.2-0.1,0.2,0,0c0.1-0.1,0.1-0.3,0.2-0.4c0.2-0.3,0.3-0.6,0.5-0.9
						c0.1-0.1,0.1-0.2,0.2-0.2c0,0-0.2,0.2,0,0.1c0.1-0.1,0.2-0.3,0.3-0.4c0.2-0.3,0.5-0.5,0.7-0.7c0.1-0.1,0.3-0.2,0.4-0.3
						c0.1-0.1,0.4-0.3,0.2-0.2c0.3-0.2,0.6-0.5,1-0.7c0.6-0.4,1.3-0.8,2-1.1c0.8-0.4,1.1-0.5,2-0.8c1.6-0.6,3.2-1,4.9-1.4
						c1.7-0.4,3.3-0.7,5-0.9c0.4-0.1,0.7-0.1,1.1-0.2c0.2,0,0.4-0.1,0.6-0.1c0.2,0,0,0,0,0c0.1,0,0.3,0,0.4-0.1
						c0.7-0.1,1.5-0.2,2.2-0.3c1.5-0.2,3-0.4,4.4-0.5c1.8-0.1,3.8-0.2,5.3,1c1.5,1.2,1.9,3.4,2.3,5.2c0.5,2.4,0.9,4.8,0.9,7.2
						c0,4.1-1,8.2-3.8,11.2c-1.2,1.3-2.6,2.3-4.2,2.8c-2.1,0.7-4.3,0.6-6.4,0C263.1,185.1,262,184.7,260.9,184.2
						c-0.8-0.3-1.9,0.4-2.1,1.2c-0.3,1,0.3,1.7,1.2,2.1c4.7,1.9,10.1,2.6,14.5-0.3c3.8-2.4,6.3-6.6,7.2-11c0.5-2.7,0.6-5.4,0.2-8.1
						c-0.3-2.6-0.8-5.3-1.6-7.8c-0.9-2.4-2.4-4.3-4.8-5.3c-2.1-0.8-4.4-0.7-6.6-0.4c-7,0.9-14.3,1.4-20.7,4.5
						c-3,1.4-5.9,3.6-7.2,6.8c-1.2,2.9-0.3,6.1,1.4,8.7c2,3,4.8,5.3,7.6,7.3c2.6,1.8,5.3,3.4,8.2,4.7c0.6,0.3,1.2,0.5,1.8,0.8
						c0.8,0.3,1.9-0.4,2.1-1.2C262.3,185.3,261.7,184.6,260.9,184.2z"/>
				</g>
			</g>
		</g>
		<g>
			<g>
				<path class="st11" d="M175.8,304.9c7.9-2.2,20.2-9.1,23.1-17.4c1.1-3.2,0.6-7.2-1.9-9.4c-3.2-2.8-8-2-12.2-2.1
					c-13,0-23.1-5.5-31.9-14.6c-2.4-2.6-4.8-5.2-7.9-7c-5.3-3.1-12.6-2.9-17.5,0.8c-5,3.7-7.2,10.8-4.9,16.6
					c2.2,5.8,8.9,9.6,14.9,8.2c-3.8,5.4-2.3,13.8,3.1,17.6s13.9,2.2,17.6-3.3c-1.4,4,1.4,8.5,5.2,10.3
					C167.2,306.4,171.7,306,175.8,304.9z"/>
			</g>
			<g>
				<g>
					<path class="st1" d="M176.2,306.5c4.7-1.3,9.2-3.5,13.2-6.2c4.1-2.7,8.2-6.2,10.4-10.7c1.2-2.5,1.6-5.2,1.1-7.9
						c-0.6-2.7-2.4-5.1-5-6.3c-2.6-1.2-5.5-1.2-8.3-1.1c-2.8,0.1-5.6,0.1-8.4-0.3c-5.1-0.7-10-2.4-14.4-5
						c-4.8-2.8-8.6-6.6-12.5-10.6c-2.1-2.2-4.4-4.4-7.1-5.8c-2.6-1.3-5.5-2-8.4-2c-5.7,0-11.1,2.7-14.2,7.5
						c-2.9,4.5-3.6,10.4-1.3,15.4c2.2,4.8,7.3,8.1,12.6,8.6c1.3,0.1,2.7,0,4-0.3c-0.6-0.8-1.3-1.7-1.9-2.5
						c-3.3,4.8-3.1,11.6,0.2,16.3c1.7,2.5,4.1,4.3,7,5.2c2.7,0.9,5.8,0.8,8.6,0.1c3.2-0.9,6-2.9,7.9-5.6c-1-0.4-2.1-0.9-3.1-1.3
						c-1.4,4.4,1.1,9.1,4.7,11.5C165.7,308.3,171.4,307.8,176.2,306.5c2.1-0.6,1.2-3.8-0.9-3.3c-3.8,1-8.4,1.6-11.9-0.6
						c-1.4-0.9-2.5-2.1-3.2-3.6c-0.7-1.4-0.8-2.8-0.3-4.3c0.3-0.8-0.2-1.7-1-2c-0.8-0.3-1.6,0-2.1,0.7c-0.3,0.5-0.6,0.8-1,1.2
						c-0.4,0.4-0.9,0.8-1.2,1c-1,0.7-2,1.2-3,1.6c-0.5,0.2-1.1,0.3-1.7,0.5c-0.7,0.1-0.9,0.2-1.6,0.2c-0.5,0-1.1,0-1.6,0
						c-0.7,0-1-0.1-1.7-0.3c-2.2-0.5-4-1.6-5.5-3.5c-1.3-1.6-2.2-4-2.3-6c-0.2-2.7,0.3-5.1,1.9-7.3c0.9-1.3-0.6-2.8-1.9-2.5
						c-2.1,0.4-4.3,0.2-6.4-0.7c-1.9-0.8-3.8-2.2-5-3.8c-2.7-3.6-2.9-8.5-1-12.4c2.1-4.3,6.2-7.1,11-7.5c2.4-0.2,4.8,0.2,7.1,1.1
						c2.5,1,4.5,2.9,6.4,4.7c1.9,2,3.8,4,5.8,5.9c1.9,1.8,4,3.4,6.2,4.9c4.1,2.8,8.7,4.8,13.6,6c2.6,0.6,5.3,1,7.9,1.1
						c2.6,0.1,5.3-0.1,7.9,0c2.2,0.1,4.5,0.5,6,2.3c1.3,1.5,1.6,3.9,1.2,5.8c-0.2,1.2-0.5,1.8-1,2.8c-0.5,0.9-1.2,1.9-1.6,2.5
						c-1.4,1.8-3.2,3.4-4.9,4.7c-3.6,2.8-7.9,5.1-12,6.6c-0.9,0.3-1.9,0.7-2.9,0.9C173.2,303.8,174.1,307.1,176.2,306.5z"/>
				</g>
			</g>
		</g>
		<g>
			<g>
				<path class="st2" d="M283.4,274.6c1.3-4.6,2.1-9.3,2.5-13.8c1.4-15.5-5-41.1-24.5-40.3c-11.3,0.4-22.5,5.6-29,14.9
					c-4.3,6.1-9.3,12.5-14.7,17.7c-5.7,5.6-12.7,9.6-19.5,13.9c-6.7,4.3-13.3,9.2-17.7,15.9C166,305.6,192,322,212.2,324.4
					c19,2.3,35.9-9.2,50.1-20.7c5.6-4.6,12.8-9.2,16-15.7C280.4,283.8,282.1,279.3,283.4,274.6z"/>
			</g>
			<g>
				<g>
					<path class="st1" d="M285,275c1.6-5.9,2.7-12,2.8-18.1c0-4.2-0.4-8.5-1.3-12.7c-1.7-8.2-5.4-16.8-12.4-21.8
						c-3.5-2.5-7.7-3.7-11.9-3.7c-5.8,0-11.7,1.5-17,3.9c-5.3,2.5-10,6.2-13.5,10.9c-2,2.6-3.8,5.3-5.8,7.9
						c-2.2,2.7-4.4,5.4-6.8,7.9c-2.3,2.4-4.6,4.6-7.3,6.6c-2.6,2-5.3,3.8-8,5.5c-5.5,3.5-11.1,6.8-16,11
						c-8.1,6.8-15.1,17.1-12.6,28.1c2,9,9.8,15.5,17.6,19.6c9.2,4.8,19.9,7.3,30.2,6c12.5-1.7,23.7-8.3,33.6-15.7
						c2.5-1.9,4.9-3.8,7.3-5.8c2.3-1.8,4.6-3.6,6.9-5.4c2.3-1.9,4.4-3.9,6.3-6.2c1.9-2.5,3.3-5.2,4.5-8
						C283,281.7,284.1,278.4,285,275c0.6-2.1-2.7-3-3.3-0.9c-0.9,3.2-2,6.5-3.3,9.6c-1.1,2.6-2.4,5.2-4.2,7.4
						c-3.6,4.4-8.4,7.6-12.8,11.2c-9.2,7.4-19,14.8-30.4,18.5c-5.6,1.8-11.5,2.7-17.4,2.2c-0.4,0-0.7-0.1-1.1-0.1
						c-0.2,0-0.3,0-0.5-0.1c0,0-0.3,0,0,0c-0.6-0.1-1.1-0.2-1.7-0.3c-1.1-0.2-2.1-0.4-3.2-0.7c-2.2-0.5-4.5-1.2-6.6-2
						c-2.1-0.8-4-1.6-6.1-2.7c-2-1.1-3.9-2.2-5.8-3.6c-0.2-0.2-0.5-0.3-0.7-0.5c0,0-0.3-0.2-0.1-0.1c-0.1-0.1-0.2-0.1-0.3-0.2
						c-0.4-0.4-0.9-0.7-1.3-1.1c-0.8-0.7-1.6-1.5-2.3-2.3c-0.4-0.4-0.7-0.8-1-1.2c-0.2-0.2-0.3-0.4-0.5-0.6c0-0.1-0.3-0.3-0.1-0.1
						c-0.1-0.1-0.2-0.3-0.3-0.4c-0.6-0.8-1.1-1.7-1.6-2.5c-0.2-0.4-0.5-0.9-0.7-1.3c-0.1-0.2-0.2-0.4-0.3-0.6c-0.1-0.3,0-0.1,0,0
						c-0.1-0.2-0.1-0.3-0.2-0.5c-0.4-0.9-0.6-1.9-0.9-2.9c0-0.2-0.1-0.4-0.1-0.6c0-0.2-0.1-0.3-0.1-0.5c0-0.1,0-0.3,0,0
						c-0.1-0.5-0.1-1.1-0.1-1.6c0-1,0-2.1,0.1-3.1c0,0.3,0-0.1,0-0.1c0-0.1,0-0.3,0.1-0.4c0-0.3,0.1-0.5,0.1-0.8
						c0.1-0.6,0.3-1.2,0.4-1.7c0.3-1.2,0.7-2.2,1.2-3.2c1.2-2.5,2.7-4.8,4.4-6.9c8.1-9.6,20.1-14.6,29.9-22.2
						c5.2-4.1,9.6-9.1,13.7-14.2c2.1-2.6,4-5.3,5.9-8c1.6-2.2,3.5-4.2,5.6-5.9c4.2-3.4,9.3-5.7,14.5-7c2.6-0.6,5.2-1,7.9-1
						c0.5,0,1,0,1.6,0c0.2,0,0.4,0,0.6,0.1c0.2,0,0.3,0,0.5,0.1c-0.3,0,0.1,0,0.2,0c1,0.1,1.9,0.4,2.8,0.7c0.4,0.1,0.8,0.3,1.3,0.5
						c-0.3-0.1,0.3,0.1,0.4,0.2c0.2,0.1,0.4,0.2,0.7,0.3c0.8,0.4,1.7,0.9,2.4,1.5c0.1,0.1,0.6,0.4,0.3,0.2c0.2,0.2,0.4,0.3,0.6,0.5
						c0.4,0.3,0.7,0.6,1.1,1c0.7,0.7,1.3,1.4,1.9,2.1c0.1,0.1,0.2,0.2,0.2,0.3c0.2,0.2-0.2-0.3,0.1,0.1c0.1,0.2,0.3,0.4,0.4,0.6
						c0.3,0.4,0.6,0.8,0.9,1.3c0.5,0.9,1.1,1.7,1.5,2.6c0.2,0.4,0.4,0.8,0.6,1.3c0.1,0.2,0.2,0.4,0.3,0.7c0.1,0.1,0.1,0.2,0.2,0.4
						c0,0,0.2,0.5,0.1,0.2c0.4,0.9,0.8,1.9,1.1,2.9c0.7,2,1.2,4.1,1.6,6.1c0.2,1,0.4,2,0.5,3c0,0.1,0,0.3,0.1,0.4
						c0,0.1,0.1,0.4,0,0.1c0,0.2,0.1,0.4,0.1,0.6c0.1,0.5,0.1,1.1,0.2,1.6c0.4,4.3,0.3,8.6-0.3,12.9c-0.5,3.4-1.2,6.7-2.1,10
						C281.2,276.2,284.5,277.1,285,275z"/>
				</g>
			</g>
		</g>
		<g>
			<g>
				<path class="st2" d="M274.7,177.8c-1.9-1.5-4-2.8-6.1-4c-6.1-3.7-11.2-8.5-18.3-10.1c-12.1-2.7-25,0.1-35.2,6.9
					c-18.2,12.1-22,39.1-11.6,57.9c8.9,16.2,30.2,20.1,46.9,16.5c5-1.1,8.8-2.6,12.9-5.6c7.4-5.4,12.3-10.1,16.1-18.4
					c3.4-7.3,5-15.5,4.5-23.6c-0.3-5.8-1.7-11.7-5.4-16.1C277.3,180,276,178.9,274.7,177.8z"/>
			</g>
			<g>
				<g>
					<path class="st1" d="M275.5,176.4c-2.2-1.7-4.6-3-6.9-4.5c-2.1-1.3-4.1-2.7-6.1-4.1c-4.1-2.8-8.4-5.1-13.4-6
						c-10.1-1.8-20.6-0.1-29.8,4.4c-4,2-7.7,4.5-10.9,7.6c-2.8,2.8-5.2,6.1-7.1,9.6c-3.8,7.1-5.5,15.2-5.4,23.2
						c0.1,8,2.1,16.2,6.1,23.2c4.1,7.2,10.8,12.2,18.4,15.1c7.5,2.8,15.9,3.6,23.8,2.8c4.4-0.5,8.8-1.3,12.9-3
						c4.5-1.9,8.5-4.8,12.2-8c3.3-2.8,6.2-6.1,8.6-9.8c2.7-4.4,4.7-9.3,6-14.3c1.3-5.3,1.8-10.8,1.4-16.2c-0.4-5-1.5-10.1-4.3-14.3
						c-1.4-2.1-3.2-3.9-5.2-5.5c-0.7-0.6-1.7-0.7-2.4,0c-0.6,0.6-0.7,1.8,0,2.4c1.9,1.5,3.6,3.1,4.9,5.2c1.2,1.9,2.1,4,2.6,6.2
						c1.3,4.7,1.4,9.8,0.9,14.6c-0.9,9.1-4.5,18.5-10.7,25.2c-2.9,3.1-6.3,5.9-9.8,8.3c-3.8,2.6-8,4-12.4,4.9
						c-0.9,0.2-1.9,0.3-2.8,0.5c-0.5,0.1-0.6,0.1-1.1,0.1c-0.5,0.1-1,0.1-1.5,0.2c-1.9,0.2-3.8,0.2-5.7,0.2c-3.9,0-7.4-0.4-11.2-1.4
						c-7.3-1.8-13.9-5.3-18.8-11.1c-0.6-0.7-1-1.3-1.6-2.1c-0.5-0.8-1-1.6-1.5-2.5c-0.5-0.8-0.9-1.7-1.3-2.6c-0.4-0.9-0.7-1.5-1-2.4
						c-0.7-1.8-1.2-3.6-1.7-5.4c-0.2-0.9-0.4-1.9-0.6-2.8c-0.1-0.4-0.2-0.9-0.2-1.3c0-0.2-0.1-0.5-0.1-0.7c0,0,0-0.3,0-0.1
						c0-0.1,0-0.2,0-0.4c-0.9-7.6-0.1-15.1,2.6-22.3c0.6-1.6,1.3-3.2,2.2-4.8c0.9-1.7,1.9-3.2,3.1-4.8c0.2-0.2,0.1-0.1,0.2-0.3
						c0.1-0.2,0.3-0.3,0.4-0.5c0.3-0.4,0.6-0.7,0.9-1.1c0.6-0.7,1.3-1.4,2-2.1c1.4-1.3,2.7-2.4,4.2-3.4c7.8-5.4,17.3-8.3,26.8-8
						c4.7,0.1,9.3,0.9,13.5,3.1c4.1,2.1,7.7,5.1,11.7,7.5c2.2,1.4,4.4,2.7,6.5,4.2c0.7,0.6,1.9,0.1,2.3-0.6
						C276.6,177.8,276.2,176.9,275.5,176.4z"/>
				</g>
			</g>
		</g>
		<g>
			<circle class="st1" cx="231.2" cy="190.9" r="3.4"/>
		</g>
		<g>
			<circle class="st1" cx="257.6" cy="177.1" r="3.4"/>
		</g>
		<g>
			<g>
				<path class="st11" d="M219.4,208.4c0.7-6.5-0.1-25.2-9.7-24.9c-8.4,0.3-16.2,12.7-20.4,18.7c-1.6,2.3-3.1,5-2.4,7.7
					c0.5,1.8,1.9,3.1,3.2,4.3c3.7,3.2,7.8,6.1,12.6,7.2c4.8,1,10.3-0.1,13.4-3.8C218.3,215,219.1,211.6,219.4,208.4z"/>
			</g>
			<g>
				<g>
					<path class="st1" d="M221.1,208.4c0.3-2.6,0.2-5.1,0.1-7.7c-0.2-3.2-0.7-6.5-1.6-9.5c-0.8-2.7-2.1-5.6-4.4-7.4
						c-2.6-2.1-5.9-2.3-8.9-1.2c-3.7,1.3-6.8,4.1-9.5,7c-2.7,3-5,6.3-7.3,9.6c-2.6,3.8-6,8.3-3.3,13c1.2,2.2,3.4,3.8,5.3,5.3
						c2,1.6,4.1,3,6.3,4c4.3,2,9.3,2.8,13.9,1.2c2.1-0.8,4.1-2,5.6-3.7c1.7-1.9,2.7-4.3,3.3-6.8C220.8,210.9,221,209.6,221.1,208.4
						c0.1-0.9-0.8-1.7-1.7-1.7c-1,0-1.6,0.8-1.7,1.7c-0.4,4-1.8,8.1-5.4,10.2c-3.4,1.9-7.5,1.9-11.2,0.7c-4.1-1.4-8-4.2-11-7.3
						c-0.7-0.7-1.3-1.5-1.6-2.4c-0.3-1-0.1-2,0.2-3c0.6-1.8,1.9-3.4,3-5c2-2.9,4-5.7,6.2-8.4c1.2-1.4,2.5-2.8,3.9-4.1
						c1.3-1.1,2.5-2,4-2.9c0.2-0.1,0.3-0.2,0.5-0.2c0.1,0,0.2-0.1,0.3-0.1c-0.1,0-0.3,0.1,0.1,0c0.4-0.1,0.7-0.3,1.1-0.4
						c0.4-0.1,0.7-0.2,1.1-0.3c0.3-0.1,0.1,0,0,0c0.1,0,0.2,0,0.2,0c0.2,0,0.5,0,0.7,0c0.3,0,0.6,0,0.9,0c-0.3,0-0.2,0,0,0
						c0.2,0,0.3,0.1,0.5,0.1c0.1,0,0.3,0.1,0.4,0.1c0.2,0.1,0.3,0.1,0,0c0.3,0.1,0.5,0.3,0.8,0.4c0.1,0.1,0.2,0.1,0.3,0.2
						c0.1,0,0.1,0.1,0.2,0.1c0,0-0.3-0.2-0.1-0.1c0.2,0.2,0.4,0.4,0.7,0.6c0.2,0.2,0.4,0.4,0.6,0.6c0.1,0.1,0.1,0.1,0.2,0.2
						c0,0-0.2-0.3-0.1-0.1c0.1,0.2,0.2,0.3,0.3,0.5c0.3,0.5,0.6,1,0.9,1.6c0.1,0.1,0.1,0.3,0.2,0.4c0.1,0.1,0.2,0.5,0.1,0.2
						c0.1,0.3,0.3,0.7,0.4,1c0.5,1.3,0.8,2.7,1.1,4.1c0.1,0.7,0.3,1.4,0.4,2.2c0,0.1,0,0.2,0,0.3c0,0,0-0.3,0-0.1
						c0,0.2,0,0.4,0.1,0.5c0,0.4,0.1,0.7,0.1,1.1c0.2,2.6,0.3,5.1,0.2,7.7c0,0.5-0.1,0.9-0.1,1.4c-0.1,0.9,0.8,1.7,1.7,1.7
						C220.4,210,221,209.3,221.1,208.4z"/>
				</g>
			</g>
		</g>
		<g>
			<g>
				<path class="st1" d="M255.3,185.1c0-0.5-0.2-0.9-0.4-1.2c-0.5-0.8-1.6-1.2-2.6-1.1c-2.9,0.3-6.5,3.1-8.7,4.9
					c-0.3,0.3-0.6,0.6-0.7,1c-0.1,1,1.1,1.6,2,1.8c2.4,0.6,5,1.2,7.1,0.2C253.6,190,255.4,187.2,255.3,185.1z"/>
			</g>
			<g>
				<g>
					<path class="st1" d="M256.9,185.1c-0.2-1.7-1-3.1-2.7-3.7c-1.3-0.5-2.6-0.3-3.9,0.1c-2.6,0.8-4.8,2.4-6.9,4.1
						c-1.1,0.9-2.3,1.8-2.3,3.3c0,1.6,1.4,2.7,2.8,3.2c1.4,0.5,2.9,0.7,4.3,0.8c1.5,0.1,3.1,0,4.5-0.7c1.2-0.6,2.2-1.7,2.8-2.8
						C256.5,188.1,257,186.6,256.9,185.1c-0.1-0.9-0.7-1.7-1.7-1.7c-0.9,0-1.7,0.8-1.7,1.7c0,0.2,0,0.4,0,0.6c0-0.3,0,0.2-0.1,0.3
						c-0.1,0.5-0.3,0.8-0.4,1.1c-0.2,0.4-0.4,0.8-0.7,1.1c0.1-0.2-0.2,0.2-0.2,0.2c-0.1,0.2-0.3,0.3-0.5,0.4c-0.2,0.2,0.2-0.1,0,0
						c-0.1,0.1-0.2,0.1-0.2,0.2c-0.1,0-0.3,0.2-0.3,0.1c-0.5,0.2-0.9,0.3-1.4,0.3c-1,0.1-2-0.1-3-0.3c-0.5-0.1-1.1-0.2-1.6-0.4
						c-0.2,0-0.4-0.1-0.5-0.2c0.3,0.1-0.4-0.3-0.3-0.2c0.1,0.1-0.1-0.2,0,0c0,0.1,0.1,0.1,0.1,0.2c0,0,0,0.5-0.1,0.4
						c0,0,0.9-0.8,1-0.9c1.3-1.1,2.8-2.2,4.5-3c0.5-0.3,0.7-0.4,1.3-0.5c0.2-0.1,0.4-0.1,0.7-0.2c0.1,0,0.2,0,0.3-0.1
						c0.3-0.1-0.1,0,0.1,0c0.1,0,0.2,0,0.3,0c0.5,0-0.1,0,0.2,0c0.1,0,0.2,0.1,0.3,0.1c0.1,0,0.1,0,0,0c0.1,0,0.1,0.1,0.2,0.1
						c0,0,0.3,0.2,0.1,0c0.1,0,0.2,0.2,0.1,0.1c0.1,0.1,0.1,0.2,0.1,0.1c0,0,0.1,0.5,0.1,0.3c0.1,0.9,0.7,1.7,1.7,1.7
						C256.1,186.8,257,186,256.9,185.1z"/>
				</g>
			</g>
		</g>
		<g>
			<g>
				<path class="st9" d="M275.5,243.2c-0.1-0.3-0.2-0.7-0.3-1c-0.5-2.6,0.1-5-0.8-7.6c-0.3-0.8-0.7-1.7-0.7-2.5c0-0.9,0.5-1.8,1.4-2
					c0.6-0.1,1.1,0.2,1.6,0.5c0.8,0.5,1.4,1.1,2,1.9c0.2,0.3,0.4,0.5,0.6,0.7c0.7,0.6,1.6,0.6,2.5,0.7c3.2,0.3,6.3,1.5,7.3,4.9
					c1,3.7-1.5,8.1-5.3,9C280.2,248.7,276.7,246.6,275.5,243.2z"/>
			</g>
			<g>
				<g>
					<path class="st1" d="M277.1,242.7c-0.6-1.9-0.4-3.8-0.5-5.8c-0.1-1.1-0.3-2.1-0.6-3.1c-0.1-0.4-0.3-0.8-0.4-1.1
						c-0.1-0.4-0.2-0.8-0.1-0.9c0,0,0-0.2,0.1-0.2c0,0-0.1,0.2-0.2,0.1c0,0-0.1,0-0.1,0c0,0,0.5,0.3,0.6,0.3
						c0.7,0.5,1.3,1.1,1.8,1.8c0.6,0.8,1.4,1.3,2.4,1.5c0.8,0.2,1.8,0.2,2.4,0.3c0.7,0.1,1.3,0.3,2,0.5c0.4,0.1,0.2,0.1,0.6,0.3
						c0.2,0.1,0.3,0.2,0.5,0.3c0.1,0,0.5,0.4,0.4,0.2c0.5,0.4,0.8,0.8,1.1,1.3c0.2,0.3,0.2,0.5,0.3,0.7c0.1,0.2,0.1,0.4,0.2,0.6
						c0,0.1,0.1,0.7,0.1,0.5c0.3,2.5-1.2,5.1-3.6,6.1c-1.1,0.5-2.8,0.4-4-0.1C278.6,245.2,277.6,244.1,277.1,242.7
						c-0.3-0.9-1.1-1.4-2.1-1.2c-0.8,0.2-1.5,1.2-1.2,2.1c1.5,4,5.4,6.6,9.7,5.9c3.9-0.6,6.9-4.2,7.4-8c0.2-1.9-0.2-3.9-1.3-5.5
						c-1.1-1.6-2.8-2.6-4.6-3.2c-0.9-0.3-1.8-0.4-2.7-0.6c-0.8-0.1-1.6,0-2.2-0.7c-1.4-1.7-3.7-4-6-2.9c-1.3,0.5-2,1.9-2.1,3.2
						c-0.1,1.4,0.6,2.5,0.9,3.8c0.7,2.6,0,5.4,0.9,8c0.3,0.9,1.2,1.4,2.1,1.2C276.7,244.6,277.4,243.6,277.1,242.7z"/>
				</g>
			</g>
		</g>
		<g>
			<g>
				<path class="st10" d="M242.5,199.7c-2.1,1.9-4.1,4.2-4.7,7c-0.6,2.8,0.5,6.1,3.1,7.3c2.2,1,4.9,0.2,6.8-1.3
					c4-3.1,5.5-9.1,3.4-13.7"/>
			</g>
			<g>
				<g>
					<path class="st1" d="M241.3,198.5c-2.3,2.1-4.5,4.8-5.1,7.9c-0.6,2.9,0.2,6.2,2.5,8.1c2.7,2.2,6.5,1.8,9.3,0
						c2.5-1.6,4.3-4.1,5.2-6.9c1-3.2,0.8-6.6-0.5-9.6c-0.4-0.8-1.6-1-2.3-0.6c-0.9,0.5-1,1.5-0.6,2.3c1.6,3.6,0.5,8.4-2.5,11.2
						c-1.5,1.3-4,2.4-5.8,1.3c-0.7-0.4-1.3-1.2-1.6-1.9c-0.4-1-0.5-1.8-0.4-2.9c0,0.1,0,0.2,0-0.1c0-0.2,0.1-0.4,0.1-0.6
						c0.1-0.3,0.2-0.6,0.3-0.8c0.2-0.6,0.6-1.2,1-1.8c0.8-1.2,1.8-2.2,2.9-3.2c0.7-0.6,0.6-1.8,0-2.4
						C243,197.9,242,197.9,241.3,198.5L241.3,198.5z"/>
				</g>
			</g>
		</g>
		<g>
			<g>
				<path class="st1" d="M244.6,199.6c-0.8,2.4-1.7,4.9-2.5,7.3c-0.3,0.8,0.3,1.9,1.2,2.1c0.9,0.2,1.8-0.3,2.1-1.2
					c0.8-2.4,1.7-4.9,2.5-7.3c0.3-0.8-0.3-1.9-1.2-2.1C245.8,198.2,244.9,198.7,244.6,199.6L244.6,199.6z"/>
			</g>
		</g>
		<g>
			<g>
				<path class="st1" d="M241.1,200.8c7.9,1.8,16.7-2.3,20-9.7c0.4-0.8,0.2-1.8-0.6-2.3c-0.7-0.4-1.9-0.2-2.3,0.6
					c-2.8,6.1-9.9,9.7-16.2,8.2c-0.9-0.2-1.8,0.3-2.1,1.2C239.7,199.6,240.2,200.6,241.1,200.8L241.1,200.8z"/>
			</g>
		</g>
		<g>
			<g>
				<path class="st10" d="M241.2,246.7c-6.4,0.6-12.8,0.1-18.7-2.4c8.5-2.4,17-4.9,25.5-7.3c7.7-2.2,15.3-4.9,22.5-8.3
					c2.9-1.4,5.8-3.6,8.8-4.7c1.5,1.8,2.5,4.3,3.3,6.5c0.1,0.3,0.2,0.7,0.1,1.1c-0.1,0.3-0.4,0.5-0.6,0.7
					c-9.6,7.4-22.9,11.1-34.6,13.4C245.4,246.2,243.3,246.5,241.2,246.7z"/>
			</g>
			<g>
				<g>
					<path class="st1" d="M241.2,245c-6.2,0.6-12.4,0.1-18.2-2.3c0,1.1,0,2.2,0,3.3c7.8-2.2,15.6-4.5,23.5-6.7
						c7.7-2.2,15.2-4.7,22.5-7.9c1.9-0.8,3.7-1.7,5.5-2.8c1.7-1,3.4-2.1,5.3-2.8c-0.5-0.1-1.1-0.3-1.6-0.4c1,1.2,1.7,2.8,2.3,4.2
						c0.1,0.4,0.3,0.7,0.4,1.1c0.1,0.2,0.1,0.4,0.2,0.5c0.2,0.7,0.2-0.2,0.2-0.2c0,0-1.3,1-1.5,1.1c-2.7,1.9-5.5,3.5-8.5,4.8
						c-5.9,2.7-12.3,4.6-18.6,6C248.8,243.8,245,244.6,241.2,245c-0.9,0.1-1.7,0.7-1.7,1.7c0,0.8,0.8,1.8,1.7,1.7
						c3.9-0.4,7.7-1.1,11.5-2c3.4-0.8,6.9-1.7,10.2-2.7c6.8-2.1,13.6-5,19.3-9.3c0.9-0.7,1.9-1.3,2.2-2.5c0.2-1.1-0.3-2.3-0.8-3.3
						c-0.8-2.1-1.8-4-3.2-5.7c-0.3-0.4-1.1-0.6-1.6-0.4c-3.5,1.3-6.5,3.6-9.9,5.2c-3.5,1.6-7.1,3-10.7,4.3c-7.5,2.7-15.3,4.8-23,7
						c-4.4,1.3-8.8,2.5-13.1,3.8c-0.7,0.2-1.2,0.9-1.2,1.6c0,0.8,0.5,1.3,1.2,1.6c6,2.5,12.7,3,19.1,2.4c0.9-0.1,1.7-0.7,1.7-1.7
						C242.9,245.8,242.1,244.9,241.2,245z"/>
				</g>
			</g>
		</g>
		<g>
			<g>
				<path class="st2" d="M230.5,312.3c-2.7,14.3-13.9,26.6-27.9,30.5c-1.6,0.5-3.3,0.8-4.6,1.9c-1,0.8-1.6,1.9-2.1,3.1
					c-2.3,4.9-3,10.6-6.1,15.1c-3.1,4.5-10.2,7-13.9,3c-3.4-3.7-1.4-9.4-0.3-14.3c1.3-5.6,1.3-11.5-0.1-17.1
					c-0.6-2.2-1.3-4.7-0.2-6.7c1.4-2.5,3.8-2.8,4.7-5.7c1-3.3-0.8-6.8-2-9.9c-1.9-4.8-2.7-10-2.1-15.1c0.5-4.4,1.6-10.3,4.5-13.8"/>
			</g>
			<g>
				<g>
					<path class="st1" d="M228.9,311.9c-1.9,10-8,18.9-16.5,24.6c-2.1,1.4-4.4,2.6-6.6,3.5c-1.2,0.5-2.4,0.9-3.7,1.3
						c-1.4,0.4-2.9,0.8-4.2,1.6c-2.8,1.7-3.9,5-4.9,7.8c-1,2.7-1.7,5.6-2.9,8.2c-0.3,0.7-0.6,1.3-1,2c-0.2,0.3-0.4,0.6-0.5,0.9
						c-0.1,0.1-0.2,0.3-0.3,0.4c0,0-0.3,0.4-0.2,0.2c-0.7,0.9-1.6,1.7-2.4,2.2c-1,0.7-1.8,1.1-3,1.4c-0.3,0.1-0.6,0.2-0.9,0.2
						c-0.1,0-0.2,0-0.4,0.1c0.3,0-0.1,0-0.2,0c-0.5,0-1.1,0.1-1.6,0c0.3,0-0.1,0-0.1,0c-0.1,0-0.3-0.1-0.4-0.1
						c-0.2,0-0.6-0.2-0.6-0.2c-0.2-0.1-0.9-0.5-1-0.6c-0.9-0.8-1.4-1.6-1.7-2.7c-0.6-2.3,0-5,0.5-7.4c0.7-3.1,1.5-6.1,1.7-9.3
						c0.2-3.4,0-6.9-0.7-10.2c-0.3-1.4-0.8-2.9-1-4.3c-0.2-1.2,0-2.4,0.7-3.3c0.7-0.9,1.6-1.5,2.4-2.2c1-1,1.7-2.2,2.1-3.5
						c0.8-3.2-0.4-6.3-1.6-9.2c-1.2-2.9-2.2-5.9-2.5-9.1c-0.3-3-0.2-6.1,0.3-8.8c0.4-2.6,1-5.3,1.9-7.6c0.4-1.1,1.1-2.3,1.8-3.1
						c0.6-0.7,0.7-1.7,0-2.4c-0.6-0.6-1.8-0.7-2.4,0c-1.9,2.2-3,5-3.7,7.8c-0.7,2.7-1.2,5.6-1.4,8.4c-0.3,3.4,0.1,6.8,0.9,10.2
						c0.4,1.6,0.9,3.2,1.6,4.8c0.6,1.5,1.3,3,1.7,4.5c0.4,1.3,0.5,2.8,0,4.1c-0.3,0.9-1.1,1.5-1.9,2.2c-1,0.8-2,1.8-2.6,3
						c-0.8,1.6-0.8,3.3-0.5,4.9c0.2,1.6,0.7,3.1,1,4.7c0.3,1.7,0.5,3.4,0.6,5.1c0.1,3.4-0.2,6.7-1.1,9.9c-1.3,5.2-3.3,12.1,1.6,16.1
						c4.3,3.5,10.6,1.4,14.2-2.2c4.3-4.3,5.1-10.9,7.4-16.3c0.5-1.2,1.1-2.6,2.2-3.5c1.1-0.9,2.7-1.1,4-1.5c2.6-0.8,5.2-1.8,7.6-3.1
						c9.7-5.1,17.2-14.2,20.4-24.7c0.4-1.3,0.7-2.6,1-3.9c0.2-0.9-0.3-1.8-1.2-2.1C230.1,310.5,229.1,311,228.9,311.9L228.9,311.9z"
						/>
				</g>
			</g>
		</g>
		<g>
			<g>
				<path class="st1" d="M182.7,359.3C182.6,359.6,182.8,359,182.7,359.3c0,0-0.1,0.1-0.1,0.2c-0.1,0.2-0.1,0.3-0.2,0.5
					c-0.2,0.3-0.3,0.6-0.5,0.9c-0.2,0.3-0.4,0.6-0.6,0.9c-0.1,0.1-0.2,0.3-0.3,0.4c-0.1,0.1-0.1,0.1-0.2,0.2c-0.2,0.2,0.2-0.2,0,0
					c-0.5,0.5-0.9,1.1-1.4,1.6c-0.3,0.2-0.5,0.5-0.8,0.7c-0.1,0.1-0.3,0.2-0.4,0.4c0.1-0.1,0.3-0.2,0.1-0.1
					c-0.1,0.1-0.2,0.1-0.3,0.2c-0.4,0.3-0.7,0.6-0.8,1c-0.1,0.4-0.1,0.9,0.2,1.3c0.5,0.7,1.5,1.2,2.3,0.6c1.3-1,2.6-2.1,3.6-3.4
					c1.1-1.4,2-2.9,2.6-4.6c0.2-0.4,0-1-0.2-1.3c-0.2-0.4-0.6-0.7-1-0.8c-0.4-0.1-0.9-0.1-1.3,0.2
					C183.1,358.5,182.9,358.8,182.7,359.3L182.7,359.3z"/>
			</g>
		</g>
		<g>
			<g>
				<path class="st2" d="M230.6,254.7c4.7,0.6,9.3,2.3,13.4,4.8c2.9,1.8,5.7,4,9,4.1c3.7,0.2,6.9-2.3,10.5-3.1
					c8.3-2,18.3,7.1,11.4,14.9c-2.1,2.4-5,3.8-7.8,5.2c-2.8,1.4-5.8,2.8-7.8,5.2c-1.4,1.6-2.4,3.5-3.6,5.2
					c-7.7,10.7-21.6,8.4-32.4,4.8"/>
			</g>
			<g>
				<g>
					<path class="st1" d="M230.1,256.3c4.5,0.6,8.9,2.1,12.8,4.5c1.9,1.2,3.7,2.5,5.8,3.4c2.2,1,4.5,1.3,6.9,0.8
						c2.2-0.4,4.1-1.5,6.2-2.3c0.9-0.4,1.9-0.7,2.9-0.8c0.3,0-0.2,0,0.1,0c0.1,0,0.2,0,0.3,0c0.2,0,0.4,0,0.6,0c0.4,0,0.8,0,1.2,0
						c0,0,0.4,0,0.2,0c-0.2,0,0.1,0,0.1,0c0.2,0,0.4,0.1,0.6,0.1c0.4,0.1,0.8,0.2,1.2,0.3c0.2,0.1,0.4,0.1,0.6,0.2
						c0.1,0,0.2,0.1,0.3,0.1c0,0-0.2-0.1,0,0c0.4,0.2,0.8,0.4,1.2,0.6c1.2,0.7,2.4,1.8,3.1,2.8c0.2,0.3,0.4,0.6,0.5,0.9
						c0.1,0.2,0.2,0.3,0.2,0.5c-0.1-0.2,0.1,0.2,0.1,0.3c0.1,0.3,0.2,0.7,0.3,1c0.1,0.4,0,0,0,0.3c0,0.2,0,0.4,0,0.6
						c0,0.2,0,0.4,0,0.6c0,0.1,0,0.2,0,0.2c0,0,0-0.2,0,0c-0.1,0.4-0.2,0.8-0.3,1.2c-0.1,0.2-0.1,0.3-0.1,0.3
						c-0.1,0.2-0.2,0.4-0.3,0.6c-0.2,0.4-0.5,0.8-0.8,1.1c-2.6,3.2-6.9,4.7-10.5,6.6c-2,1.1-3.9,2.3-5.4,4c-1.6,1.8-2.6,3.9-4,5.8
						c-0.5,0.7-1.1,1.3-1.7,2c-0.6,0.6-1.3,1.2-1.8,1.6c-1.4,1-2.8,1.7-4.3,2.2c-3.3,1.1-6.5,1.3-10,1c-1.7-0.1-3.2-0.4-5-0.7
						c-1.7-0.4-3.5-0.8-5.1-1.3c-0.8-0.2-1.6-0.5-2.5-0.8c-0.9-0.3-1.8,0.3-2.1,1.2c-0.3,0.9,0.3,1.8,1.2,2.1
						c7,2.4,14.7,4.1,22.1,2.5c3.7-0.8,7.1-2.6,9.8-5.2c1.6-1.6,2.8-3.4,4-5.3c1.2-1.9,2.5-3.5,4.4-4.7c3.9-2.6,8.4-3.9,11.9-7
						c2.9-2.6,4.7-6.5,3.5-10.5c-1-3.4-3.9-6.1-7.1-7.5c-1.7-0.8-3.6-1.2-5.5-1.2c-2.2,0-4.2,0.7-6.1,1.5c-2,0.8-4,1.9-6.2,2
						c-2.2,0.1-4.1-1-6-2.1c-2-1.2-3.9-2.5-6-3.5c-2.2-1.1-4.6-1.9-7-2.5c-1.2-0.3-2.3-0.5-3.5-0.7c-0.9-0.1-1.8,0.2-2.1,1.2
						C228.7,255.1,229.2,256.2,230.1,256.3L230.1,256.3z"/>
				</g>
			</g>
		</g>
		<g>
			<g>
				<path class="st1" d="M266.7,273.9c0.1,0,0.1,0,0.2,0c-0.1,0-0.3,0-0.4,0.1c0.4-0.1,0.8,0,1.1,0c-0.1,0-0.3,0-0.4-0.1
					c0.4,0.1,0.8,0.2,1.3,0.3c-0.1-0.1-0.3-0.1-0.4-0.2c0.3,0.1,0.6,0.3,0.8,0.4c0.1,0,0.1,0.1,0.2,0.1c0.2,0.2-0.3-0.3-0.1-0.1
					c0.1,0.1,0.3,0.2,0.4,0.3c0.1,0.1,0.2,0.2,0.3,0.3c0,0.1,0.2,0.3,0,0c-0.2-0.3,0,0,0,0c0.2,0.3,0.3,0.5,0.5,0.8
					c-0.1-0.1-0.1-0.3-0.2-0.4c0.1,0.4,0.2,0.7,0.3,1.1c0-0.1,0-0.3-0.1-0.4c0,0.1,0,0.3,0,0.4c0,0.9,0.7,1.7,1.7,1.7
					c0.9,0,1.7-0.7,1.7-1.7c-0.1-1.8-0.9-3.5-2.4-4.7c-0.8-0.6-1.6-1.1-2.5-1.4c-1-0.3-1.9-0.3-2.9-0.1c-0.4,0.1-0.8,0.4-1,0.8
					c-0.2,0.4-0.3,0.9-0.2,1.3c0.1,0.4,0.4,0.8,0.8,1C265.8,274,266.2,274,266.7,273.9L266.7,273.9z"/>
			</g>
		</g>
	</g>
</g>
</svg>
