<svg width="35" height="28" viewBox="0 0 35 28" fill="none" xmlns="http://www.w3.org/2000/svg">
<path d="M3.06926 21.2564C10.0265 25.928 17.0363 24.6627 19.6716 23.4462C18.881 26.3657 21.2529 27.8261 24.4152 27.8261C30.1075 27.2421 31.0035 22.7165 30.74 20.5267C32.0576 20.2834 34.6929 18.9208 34.6929 15.4171C34.6929 11.0375 31.5305 11.7674 29.1588 11.7674C29.9494 9.5776 27.5776 5.19769 25.9964 3.73781C22.0435 0.0881168 10.9752 -2.1017 4.65044 3.00787C-1.67427 8.11745 -0.883683 16.1468 3.06926 21.2564Z" fill="#FF9100"/>
<g clip-path="url(#clip0_79:4698)">
<path d="M23.8631 27.8252C22.261 27.8252 20.8769 27.4183 20.1777 27.0697C19.1368 26.579 18.5619 25.5933 18.581 24.3726C17.9845 24.5147 17.3806 24.6261 16.7719 24.7063C15.9345 24.8086 15.092 24.867 14.2482 24.8812L13.8494 24.8845C10.8983 24.8845 8.16851 24.3458 6.36078 23.4063C4.04369 22.1695 2.44399 20.544 1.31958 18.2866C0.0787334 15.6619 -0.914466 11.5773 1.36593 6.95214C3.9731 2.24472 7.965 0.110206 14.3244 0.00330027L14.8423 -0.000976562L15.337 0.00271598C22.8579 0.384854 26.3119 3.77434 27.1914 4.80374C28.7517 6.63926 29.6444 8.91965 29.7322 11.2938C30.1441 11.1876 30.5681 11.1315 30.9944 11.1266C31.7274 11.117 32.4423 11.3468 33.0232 11.7789C33.9391 12.5709 34.1676 13.2764 34.4571 14.1697C35.1297 16.6116 34.3445 18.6572 32.2551 19.9583C31.8084 20.273 31.3193 20.5274 30.8014 20.7144C30.807 21.0909 30.805 21.4192 30.8034 21.6797L30.8021 21.8946C30.7946 24.6697 29.3451 26.6179 26.7207 27.381C25.9194 27.6609 25.0757 27.8104 24.2239 27.8235L23.8631 27.8252ZM20.0252 23.9891C19.94 24.4933 19.9234 25.4354 20.8094 25.8533C21.2425 26.0691 22.4171 26.4643 23.8635 26.4642L24.2123 26.4629C24.9231 26.45 25.6265 26.3222 26.2936 26.0848C28.3534 25.4857 29.3895 24.077 29.3953 21.891L29.3965 21.6713C29.3988 21.3164 29.4019 20.8308 29.3838 20.2687L29.3678 19.7711L29.8537 19.6058C30.5513 19.3684 31.1005 19.1071 31.4423 18.8497C33.0724 17.8314 33.6149 16.396 33.1064 14.5479C32.855 13.775 32.7122 13.3337 32.1303 12.8282C31.8012 12.5969 31.4023 12.4771 30.9955 12.4872C30.5796 12.4872 30.0955 12.5834 29.432 12.7982C29.1313 13.8743 28.3974 15.6166 26.7129 16.6079C24.9822 17.5496 23.1624 17.885 21.3925 18.0171C20.9454 18.0456 20.4759 18.0723 19.9786 18.0891C18.1876 18.1268 17.0389 18.0445 14.8832 17.706L14.6676 17.6683C13.8784 17.552 13.1007 17.3713 12.343 17.1281C11.3517 16.8026 10.2068 16.3659 9.26627 15.6065C9.12301 15.4909 9.03312 15.325 9.0164 15.1453C8.99967 14.9656 9.05748 14.7868 9.17709 14.6484C9.29673 14.5099 9.46837 14.423 9.65427 14.4068C9.84017 14.3907 10.0251 14.4465 10.1684 14.5621C10.93 15.1768 11.8837 15.5402 12.8009 15.8413C13.4839 16.0602 14.1851 16.2223 14.8967 16.3258C15.0556 16.3511 15.1605 16.372 15.1983 16.3828C17.8392 16.7917 19.8046 16.7167 21.5836 16.6032C23.2045 16.4824 24.3847 16.3317 25.8743 15.5218C25.8855 15.5137 26.0395 15.4129 26.0908 15.3735C27.9173 14.0614 28.0438 12.7397 28.2816 11.7581C28.2995 11.6854 28.3162 11.6212 28.3319 11.5644C28.3068 9.41226 27.5222 7.33289 26.1079 5.67045C25.3203 4.74883 22.2127 1.71437 15.2904 1.36226L14.8437 1.35954L14.3505 1.36362C8.56235 1.46081 4.94559 3.37422 2.62327 7.56636C0.59132 11.6891 1.48528 15.3607 2.59541 17.709C3.58077 19.6871 4.99385 21.1219 7.03585 22.2117C8.61504 23.0322 11.1653 23.5237 13.851 23.5237L14.2251 23.5206C15.0159 23.5072 15.8053 23.4524 16.59 23.3567C17.4795 23.2395 18.357 23.0491 19.213 22.7877L20.3673 22.4342L20.0252 23.9891ZM22.4454 12.0369V9.02407C22.4454 8.75342 22.5566 8.49387 22.7546 8.30249C22.9526 8.11112 23.2212 8.00361 23.5012 8.00361C23.7812 8.00361 24.0497 8.11112 24.2477 8.30249C24.4457 8.49387 24.5569 8.75342 24.5569 9.02407V12.0369C24.5569 12.3075 24.4457 12.5671 24.2477 12.7584C24.0497 12.9498 23.7812 13.0573 23.5012 13.0573C23.2212 13.0573 22.9526 12.9498 22.7546 12.7584C22.5566 12.5671 22.4454 12.3075 22.4454 12.0369ZM16.7143 12.0369V9.02407C16.7143 8.75342 16.8255 8.49387 17.0235 8.30249C17.2215 8.11112 17.49 8.00361 17.77 8.00361C18.05 8.00361 18.3185 8.11112 18.5165 8.30249C18.7145 8.49387 18.8257 8.75342 18.8257 9.02407V12.0369C18.8257 12.3075 18.7145 12.5671 18.5165 12.7584C18.3185 12.9498 18.05 13.0573 17.77 13.0573C17.49 13.0573 17.2215 12.9498 17.0235 12.7584C16.8255 12.5671 16.7143 12.3075 16.7143 12.0369Z" fill="black"/>
</g>
<defs>
<clipPath id="clip0_79:4698">
<rect width="34.6929" height="27.8261" fill="white"/>
</clipPath>
</defs>
</svg>
