<?xml version="1.0" encoding="utf-8"?>
<!-- Generator: Adobe Illustrator 25.4.1, SVG Export Plug-In . SVG Version: 6.00 Build 0)  -->
<svg version="1.1" id="레이어_1" xmlns="http://www.w3.org/2000/svg" xmlns:xlink="http://www.w3.org/1999/xlink" x="0px"
	 y="0px" viewBox="0 0 500 355" style="enable-background:new 0 0 500 355;" xml:space="preserve">
<style type="text/css">
	.st0{fill:#FFFFFF;}
	.st1{fill:#0E0E0E;}
	.st2{fill:#009CB3;}
	.st3{fill:#58C7CF;}
	.st4{fill:#FFCE73;}
	.st5{fill:#FFD8C7;}
	.st6{fill:#FFB9A0;}
	.st7{fill:#54453F;}
	.st8{fill:#946958;}
	.st9{fill:#6EA1DD;}
</style>
<g>
	<g>
		<g>
			<g>
				<g>
					<path class="st0" d="M157.3,245.6c3.7-10.1,9.5-19.4,16.8-27.2c3.1-3.3,7.8-6.6,11.8-4.3c1.6,0.9,2.7,2.6,3.5,4.4
						c5.1,10.9,2.8,23.7-0.4,35.3c-1.6,6-3.9,12.5-9.3,15.7c-2.5,1.5-5.5,2.1-8.4,2.7c-4.3,0.8-9,1.6-13-0.3"/>
				</g>
				<g>
					<g>
						<path class="st1" d="M159.4,246.2c2.8-7.6,6.8-14.8,11.8-21.1c2.4-3,4.9-6.3,8.2-8.3c1.3-0.8,3-1.5,4.3-1.2
							c1.6,0.3,2.6,1.6,3.3,3c3.8,7.1,3.7,15.8,2.4,23.5c-0.7,4.1-1.7,8.2-2.8,12.2c-1,3.4-2.1,6.6-4,9.5c-1,1.4-2.3,2.8-3.7,3.7
							c-1.9,1.2-4.1,1.7-6.2,2.2c-4.1,0.9-9.1,2.2-13.1,0.3c-1.1-0.5-2.3-0.3-3,0.8c-0.6,0.9-0.3,2.5,0.8,3
							c4.6,2.2,9.5,1.5,14.3,0.6c4.4-0.9,8.8-2,12.1-5.2c3-2.9,4.8-6.7,6.1-10.6c1.4-4.1,2.4-8.3,3.3-12.5c1.8-9,2.4-18.7-1.2-27.3
							c-0.9-2.1-1.9-4.2-3.7-5.7c-1.9-1.6-4.3-2.1-6.7-1.7c-4.4,0.7-7.8,4.2-10.6,7.4c-6.8,7.8-12.1,16.7-15.7,26.3
							c-0.4,1.1,0.5,2.4,1.5,2.7C157.9,248,159,247.3,159.4,246.2L159.4,246.2z"/>
					</g>
				</g>
			</g>
			<g>
				<g>
					<path class="st2" d="M63.1,284.4c12.9-7.7,25.6-16.4,39-23.1c13.5-6.7,27.1-13.2,40.7-19.9c1.9-1,4.1-1.9,6.2-1.4
						c1.6,0.4,2.9,1.7,4,2.9c8,8.9,13.7,20.8,12.3,32.7c-0.1,1.1-0.3,2.3-1,3.1c-0.6,0.8-1.5,1.3-2.4,1.8
						c-10.3,5.9-20.7,11.7-31,17.6c-9.3,5.3-17.9,11.3-27.1,16.6c-8.1,4.6-16.7,9.4-26.1,9.4s-19.4-6.9-19.3-16.2"/>
				</g>
				<g>
					<g>
						<path class="st1" d="M64.2,286.3c7.8-4.7,15.4-9.6,23.1-14.3c7.9-4.7,16-8.9,24.2-13c8.4-4.1,16.9-8.2,25.3-12.3
							c2.1-1,4.3-2.1,6.4-3.1c1.5-0.8,3.5-2,5.3-1.5c1.5,0.4,2.7,2.1,3.7,3.2c1.3,1.5,2.4,3,3.5,4.6c4.3,6.3,7.4,13.8,7.6,21.5
							c0,1,0,2-0.1,3c-0.1,0.9-0.1,1.9-0.5,2.7c-0.3,0.6-0.9,1-1.4,1.3c-1,0.6-2,1.1-3,1.7c-4.2,2.4-8.3,4.7-12.5,7.1
							c-8.1,4.6-16.4,9.1-24.3,14.1c-7.6,4.7-15.1,9.7-23,14c-6.9,3.8-14.8,7.5-22.9,6.6c-2.9-0.3-6.1-1.6-8.7-3.3
							c-1.2-0.8-2.4-1.8-3.4-3c-0.7-0.8-1.7-2.5-2.1-3.4c-0.6-1.5-0.8-2.7-0.8-4.2c0-2.8-4.4-2.8-4.4,0c0,7.4,5.5,13.5,12,16.3
							c3.5,1.5,7.2,2.2,11.1,2c4.5-0.2,8.9-1.5,13.1-3.2c8.6-3.6,16.7-8.8,24.5-13.8c4-2.5,8-5.1,12-7.5c4.3-2.5,8.7-5,13-7.4
							c4.3-2.4,8.6-4.9,12.8-7.3c2.2-1.2,4.4-2.5,6.6-3.7c2-1.1,4.2-2.1,5.2-4.3c1-2,1-4.5,1-6.7c0-2.1-0.2-4.2-0.5-6.3
							c-0.7-4.2-2.1-8.2-4-12c-1.9-3.9-4.3-7.5-7.1-10.8c-1.3-1.6-2.6-3.1-4.3-4.3c-2-1.4-4.6-1.5-6.9-0.8c-2.3,0.7-4.5,2-6.7,3.1
							c-2.2,1.1-4.5,2.2-6.7,3.3c-4.4,2.1-8.8,4.3-13.2,6.4c-8.8,4.3-17.6,8.4-26.1,13.2c-8.2,4.7-16.2,9.8-24.3,14.8
							c-2,1.2-4,2.4-5.9,3.6C59.6,283.9,61.8,287.7,64.2,286.3L64.2,286.3z"/>
					</g>
				</g>
			</g>
			<g>
				<g>
					<path class="st3" d="M153.6,256c3.6,8,4.2,17.6,4.2,26.3c0-0.2,6.8-3.4,7.6-3.8c2.5-1.4,5.4-3.4,6.9-5.9
						c1.9-3.3,1.8-7.3,1.2-10.9c-0.9-5.5-2.8-10.8-5.6-15.7c-2.4-4.2-6-8.5-11.2-9.1c-2.3-0.3-4.6,0.1-6.9,0.6
						c-3.4,0.7-5.6,2.1-8.6,3.7c-0.6,0.3-1.3,0.8-1.2,1.4c0.1,0.4,0.4,0.6,0.7,0.9C146.1,247,150.9,250,153.6,256z"/>
				</g>
				<g>
					<g>
						<path class="st1" d="M151.7,257.1c3.5,7.8,3.9,16.8,3.9,25.2c0,1.1,0.8,2,1.9,2.1c1.1,0.1,2-0.5,2.4-1.6c0,0,0,0,0,0
							c-0.2,0.3-0.4,0.6-0.6,1c-0.1,0.2-0.6,0.4-0.2,0.2c0.1-0.1,0.2-0.1,0.3-0.2c0.4-0.2,0.8-0.4,1.2-0.6c1-0.5,2.1-1,3.2-1.5
							c2.1-1,4.2-2.1,6.1-3.5c1.5-1.2,3-2.4,4-4.1c1.2-1.7,1.8-3.8,2-5.8c0.5-4-0.3-8.2-1.4-12c-1.1-4-2.7-7.9-4.8-11.5
							c-1.7-3.1-4-6-7-8c-3.5-2.4-7.6-2.6-11.7-1.9c-2.1,0.3-4,0.8-6,1.7c-1.6,0.7-3.2,1.6-4.7,2.5c-1.1,0.6-2.2,1.4-2.5,2.7
							c-0.4,1.5,0.6,2.7,1.7,3.5c1.6,1.2,3.3,2.3,4.9,3.5C147.5,250.9,150.1,253.6,151.7,257.1c0.5,1.1,2,1.3,3,0.8
							c1.1-0.6,1.3-1.9,0.8-3c-1.4-3-3.5-5.6-6-7.8c-1.2-1.1-2.6-2.1-3.9-3.1c-0.7-0.5-1.3-0.9-2-1.4c-0.3-0.2-0.6-0.4-0.9-0.7
							c-0.2-0.1-0.3-0.2-0.5-0.3c-0.1-0.1-0.2-0.2-0.4-0.3c0.6,1.1,0.6,1.7,0,1.7c0.6-0.2,1.4-0.8,2-1.2c0.7-0.4,1.5-0.8,2.3-1.2
							c1.4-0.7,3-1.2,4.5-1.5c1.8-0.4,3.8-0.7,5.6-0.5c1.5,0.2,2.7,0.7,3.9,1.5c2.4,1.5,4.2,3.9,5.6,6.4c1.9,3.3,3.3,6.7,4.4,10.3
							c1,3.4,1.7,6.9,1.4,10.4c-0.3,3.2-2,5.5-4.6,7.3c-1.9,1.4-4,2.4-6.2,3.4c-1,0.5-2,1-3,1.5c-1,0.5-1.8,0.9-2.2,2
							c1.4,0.2,2.8,0.4,4.3,0.6c0-9.3-0.6-18.8-4.5-27.4c-0.5-1.1-2-1.3-3-0.8C151.4,254.7,151.2,256,151.7,257.1z"/>
					</g>
				</g>
			</g>
			<g>
				<g>
					<path class="st1" d="M165.2,230.6c1.2,1.6,2.9,2.7,4.8,3.4c1.9,0.7,3.9,0.8,5.9,0.5c1.1-0.2,1.9-1.6,1.5-2.7
						c-0.4-1.2-1.5-1.7-2.7-1.5c-0.1,0-0.5,0.1-0.1,0c0.4-0.1,0.1,0,0,0c-0.2,0-0.4,0-0.6,0c-0.4,0-0.8,0-1.1,0c-0.3,0,0.1,0,0.2,0
						c-0.1,0-0.2,0-0.3-0.1c-0.2,0-0.4-0.1-0.6-0.1c-0.4-0.1-0.7-0.2-1.1-0.3c-0.3-0.1,0.1,0,0.2,0.1c-0.1,0-0.2-0.1-0.2-0.1
						c-0.2-0.1-0.3-0.2-0.5-0.3c-0.3-0.2-0.7-0.4-1-0.6c-0.3-0.2,0,0,0.1,0.1c-0.1-0.1-0.1-0.1-0.2-0.2c-0.1-0.1-0.3-0.3-0.4-0.4
						c-0.3-0.3-0.6-0.6-0.8-0.9c-0.3-0.4-1-0.6-1.5-0.6c-0.5,0-1.2,0.2-1.5,0.6c-0.4,0.4-0.7,1-0.6,1.5
						C164.6,229.6,164.9,230.1,165.2,230.6L165.2,230.6z"/>
				</g>
			</g>
			<g>
				<g>
					<path class="st1" d="M171.4,222.6c2.2,2.4,5.6,3.8,8.9,3.6c1.1-0.1,2.2-1,2.2-2.2c-0.1-1.1-1-2.2-2.2-2.2c-0.6,0-1.2,0-1.7-0.1
						c0.2,0,0.4,0.1,0.6,0.1c-0.8-0.1-1.6-0.3-2.3-0.6c0.2,0.1,0.3,0.1,0.5,0.2c-0.6-0.3-1.2-0.6-1.7-0.9c-0.1-0.1-0.3-0.2-0.4-0.3
						c0,0,0.4,0.3,0.2,0.1c-0.1,0-0.1-0.1-0.2-0.1c-0.3-0.2-0.5-0.5-0.7-0.7c-0.8-0.8-2.3-0.8-3.1,0
						C170.5,220.4,170.5,221.7,171.4,222.6L171.4,222.6z"/>
				</g>
			</g>
		</g>
		<g>
			<g>
				<path class="st4" d="M89.1,207.8c7-20.4,14.2-41.5,24-61c0.3-0.6,0.7-1.3,1.3-1.6c0.6-0.3,1.3-0.4,2-0.4
					c8-0.1,18.4,3.8,25.1,7.1c2.4,1.2,4.7,2.5,7.3,3.2c3.4,0.9,7.1,0.7,10.7,0.5c15-0.7,30,0.1,44.7,2.3c3.1,0.5,5,3.7,4,6.6
					c-9.6,26.6-18.8,53.3-27.7,80c-0.9,2.8-4.2,4.2-6.9,2.9c-12.5-5.9-25.4-11.6-39.4-14.2c-3.9-0.7-7.9-1.3-11.7-2.5
					c-10.3-3.4-17.5-11.8-28-14.5c-1.9-0.5-3.9-0.9-5.2-2.1C87.7,212.4,88.3,209.9,89.1,207.8z"/>
			</g>
			<g>
				<g>
					<path class="st1" d="M91.2,208.3c3.9-11.3,7.8-22.7,12.1-33.9c2.1-5.5,4.4-11,6.8-16.4c1.2-2.7,2.5-5.4,3.8-8.1
						c0.3-0.7,0.6-1.3,1-2c0.2-0.3,0.4-0.9,0.6-1c0.3-0.2,0.9-0.1,1.3-0.1c0.6,0,1.2,0,1.9,0.1c5,0.3,10.1,1.9,14.8,3.7
						c2.2,0.8,4.3,1.7,6.4,2.8c2.5,1.2,5,2.7,7.7,3.5c2.9,0.9,6,1,9,0.9c3.1-0.1,6.2-0.3,9.3-0.4c6.3-0.1,12.6,0,18.9,0.4
						c6.2,0.4,12.5,1,18.7,2c1.1,0.2,1.6,0.3,2.2,1.1c0.5,0.5,0.7,1.2,0.6,2c0,0.3,0,0.1-0.1,0.4c-0.1,0.3-0.2,0.7-0.3,1
						c-0.3,0.7-0.5,1.5-0.8,2.2c-0.5,1.5-1.1,3-1.6,4.6c-4.3,12-8.5,24-12.7,36.1c-4.1,12-8.2,24-12.2,36c-0.3,1-0.6,1.6-1.3,2
						c-0.7,0.4-1.3,0.6-2,0.5c0,0-0.5-0.1-0.6-0.2c0.1,0-0.4-0.2-0.5-0.3c-0.7-0.3-1.4-0.7-2.1-1c-1.3-0.6-2.6-1.2-3.9-1.8
						c-5.5-2.5-11-4.8-16.7-6.8c-5.6-2-11.3-3.6-17.1-4.7c-5.5-1-11-1.9-16-4.5c-4.5-2.3-8.5-5.3-12.8-7.9c-2.2-1.3-4.5-2.5-6.9-3.4
						c-1.2-0.5-2.3-0.8-3.5-1.2c-1.1-0.3-2.4-0.5-3.3-1c-0.4-0.2-0.7-0.4-0.9-0.6c-0.2-0.3-0.3-0.7-0.3-1
						C90.5,210.4,90.8,209.4,91.2,208.3c0.4-1.1-0.4-2.4-1.5-2.7c-1.2-0.3-2.3,0.4-2.7,1.5c-0.9,2.7-1.4,5.8,0.7,8.2
						c1.8,2.1,4.8,2.4,7.3,3.2c4.9,1.5,9.3,4.4,13.6,7.2c4.5,2.9,9.1,5.8,14.3,7.4c3,0.9,6.1,1.4,9.2,1.9c3.1,0.6,6.2,1.2,9.2,2.1
						c6,1.6,11.8,3.7,17.5,6.1c2.7,1.1,5.4,2.3,8.1,3.6c1.4,0.6,2.8,1.3,4.2,1.9c1.4,0.6,2.7,1.3,4.2,1.5c2.6,0.2,5.2-1.2,6.6-3.4
						c0.8-1.2,1.1-2.8,1.6-4.2c0.5-1.6,1.1-3.2,1.6-4.8c2.1-6.3,4.2-12.6,6.4-18.8c4.3-12.6,8.7-25.1,13.1-37.6
						c1.1-3.1,2.2-6.2,3.3-9.3c0.6-1.6,1.1-3.2,1.7-4.7c0.5-1.4,1.1-2.8,1.2-4.3c0.1-2.6-1.4-5.2-3.7-6.4c-1.3-0.7-2.8-0.9-4.3-1.1
						c-1.7-0.2-3.4-0.5-5.2-0.7c-13.1-1.6-26.2-2-39.4-1.3c-3,0.1-6,0.3-8.9-0.5c-2.7-0.7-5.1-2.2-7.6-3.4c-4.9-2.3-10-4.3-15.2-5.6
						c-2.6-0.6-5.3-1.1-8-1.3c-1.3-0.1-2.9-0.2-4.1,0.2c-1.6,0.5-2.5,1.8-3.3,3.3c-2.8,5.7-5.4,11.4-7.9,17.3
						c-4.9,11.6-9.1,23.4-13.2,35.2c-1,2.8-2,5.7-2.9,8.5c-0.4,1.1,0.4,2.4,1.5,2.7C89.7,210.2,90.8,209.4,91.2,208.3z"/>
				</g>
			</g>
		</g>
		<g>
			<g>
				<path class="st0" d="M95.8,174.7c3.5-8.4,7.8-16.4,12.9-23.9c1.2-1.7,2.4-3.5,4.3-4.5c1.9-1,4.1-1.1,6.2-1.1
					c10,0.2,19.9,2.5,29,6.8c2.5,1.2,4.9,2.5,7.6,3c2.6,0.5,5.3,0.1,7.9-0.2c11.1-1.4,22.2-1.8,33.4-1.3c2.9,0.1,4.9,3,3.9,5.8
					l-27.9,75.7c-0.6,1.6-1.5,3.5-3.2,3.8c-0.9,0.2-1.8-0.2-2.6-0.5c-21.4-8.5-43.5-15-66.1-19.3"/>
			</g>
			<g>
				<g>
					<path class="st1" d="M97.9,175.3c2.6-6.2,5.7-12.3,9.2-18.1c0.9-1.5,1.8-2.9,2.8-4.3c0.8-1.2,1.6-2.5,2.7-3.6
						c2.2-2.2,5.4-1.9,8.2-1.8c6.8,0.3,13.5,1.6,19.9,3.9c3.2,1.1,6.1,2.6,9.2,4c1.6,0.7,3.2,1.4,5,1.8c1.8,0.3,3.7,0.4,5.5,0.2
						c3.6-0.3,7.2-0.9,10.9-1.2c3.7-0.3,7.3-0.5,11-0.6s7.4-0.1,11,0c0.9,0,1.8,0.1,2.7,0.1c0.4,0,0.8,0,1.1,0.1
						c-0.2,0,0.5,0.2,0.4,0.1c0.1,0,0.6,0.4,0.4,0.2c0.1,0,0.6,0.6,0.4,0.4c0.1,0.1,0.2,0.3,0.2,0.4c0,0,0.2,0.3,0.1,0.1
						c-0.1-0.1,0.2,0.8,0.2,0.5c0.1,0.6,0,0.7-0.2,1.3c0,0.1-0.1,0.2-0.1,0.2c-0.1,0.4-0.3,0.8-0.4,1.2c-0.6,1.6-1.2,3.1-1.7,4.7
						c-2,5.4-4,10.9-6,16.3c-2.5,6.9-5.1,13.8-7.6,20.7c-2.4,6.4-4.7,12.8-7.1,19.2c-1.5,4-2.9,8-4.4,11.9c-0.4,1-0.7,2-1.1,2.8
						c-0.2,0.4-0.4,0.7-0.7,0.8c0.2-0.1-0.1,0-0.1,0.1c0,0-0.3,0-0.3,0c-0.3,0-0.7-0.2-1.1-0.4c-1.7-0.7-3.4-1.4-5.1-2
						c-3.3-1.3-6.7-2.5-10-3.7c-13.5-4.7-27.2-8.6-41.1-11.7c-3.4-0.7-6.8-1.4-10.1-2.1c-1.2-0.2-2.3,0.3-2.7,1.5
						c-0.3,1.1,0.4,2.5,1.5,2.7c14.4,2.8,28.6,6.4,42.6,10.8c7,2.2,14,4.7,20.8,7.4c1.7,0.6,3.4,1.6,5.3,1.7
						c1.9,0.1,3.4-0.9,4.5-2.4c0.7-1,1.1-2.1,1.5-3.2c1.1-3.1,2.3-6.2,3.4-9.2c2.3-6.2,4.5-12.3,6.8-18.5c2.6-7.1,5.3-14.3,7.9-21.4
						c2.2-6,4.4-12,6.6-18c1-2.8,2.1-5.5,3.1-8.3c0.7-1.9,0.4-4.1-0.8-5.8c-0.9-1.2-2.1-2.2-3.6-2.6c-1.7-0.5-3.7-0.3-5.4-0.4
						c-7.6-0.2-15.2,0-22.7,0.7c-3.7,0.3-7.4,1-11.2,1.1c-1.7,0.1-3.4-0.1-5-0.7c-1.6-0.5-3.1-1.3-4.6-2c-6.4-3.1-13.3-5.3-20.3-6.4
						c-3.5-0.5-7.1-0.9-10.6-0.9c-3.6,0-6.9,0.8-9.4,3.6c-2.3,2.5-4.1,5.7-5.9,8.6c-1.8,3-3.6,6.1-5.1,9.3c-1.6,3.1-3,6.3-4.4,9.5
						c-0.5,1.1,0.5,2.4,1.5,2.7C96.5,177.2,97.4,176.4,97.9,175.3L97.9,175.3z"/>
				</g>
			</g>
		</g>
		<g>
			<g>
				<g>
					<path class="st0" d="M207,282.3c4.5-10.2,11-19.6,19.1-27.3c3.4-3.3,8.5-6.4,12.5-3.8c1.7,1.1,2.6,2.9,3.4,4.7
						c4.6,11.7,1.5,24.9-2.5,36.7c-2.1,6.1-4.8,12.7-10.5,15.7c-2.7,1.4-5.8,1.9-8.9,2.3c-4.5,0.6-9.5,1.2-13.5-1"/>
				</g>
				<g>
					<g>
						<path class="st1" d="M208.9,283.4c3.4-7.7,7.9-15,13.4-21.3c2.6-3,5.5-6.4,9-8.4c0.7-0.4,1.5-0.8,2.3-1
							c0.2-0.1,0.3-0.1,0.5-0.1c-0.1,0,0.8-0.1,0.5-0.1c0.2,0,0.3,0,0.5,0c0.1,0,0.8,0,0.7,0c1.6,0.2,2.7,1.3,3.4,2.8
							c2,3.6,2.7,8.1,2.8,12.2c0.1,4.4-0.4,8.8-1.4,13.1c-1,4.3-2.3,8.6-3.7,12.8c-1.1,3.3-2.6,6.7-4.7,9.4
							c-1.3,1.6-2.7,2.8-4.4,3.7c-2.1,1.1-4.5,1.5-6.8,1.8c-4.3,0.6-9.3,1.6-13.4-0.6c-2.5-1.3-4.7,2.4-2.2,3.8
							c4.3,2.3,9.2,2.1,13.9,1.4c4.9-0.7,9.6-1.4,13.5-4.7c3.2-2.7,5.3-6.5,6.9-10.3c1.7-4.2,3.1-8.6,4.2-13
							c2.5-9.5,3.7-19.9,0.1-29.3c-0.8-2.1-1.8-4.2-3.6-5.7c-2-1.6-4.3-2.1-6.8-1.8c-4.5,0.7-8.1,4.1-11.2,7.2
							c-7.3,7.5-13.3,16.3-17.5,25.8c-0.5,1.1-0.3,2.3,0.8,3C206.9,284.8,208.4,284.5,208.9,283.4L208.9,283.4z"/>
					</g>
				</g>
			</g>
			<g>
				<g>
					<path class="st2" d="M196.5,323.9c5.8-1.8,11.8-3.8,16.5-7.7c8.1-6.8,10.6-19.4,5.8-28.8c-1.7-3.3-4.3-6.3-7.6-8
						c-6.3-3.2-13.9-1.4-20.8,0.5c-27,7.6-54,16.1-82,19.1c-11.1,1.2-25,3.3-35.8,0.4c-14.5-3.9-29.1-12.2-43-18
						c-1.6-0.7-3.5-1.3-4.9-0.3c-1,0.6-1.4,1.8-1.7,2.9c-4.9,14.6-9.6,31.2-2.1,44.6c4.1,7.5,11.5,12.6,19.3,16.2
						C88.2,366.8,149.9,338.7,196.5,323.9z"/>
				</g>
				<g>
					<g>
						<path class="st1" d="M197,326c7.6-2.4,15.6-5.2,20.7-11.7c4.5-5.8,6.4-13.2,5.3-20.4c-1.1-7.6-6-15-13.5-17.5
							c-8.3-2.7-17.5,0.7-25.4,3c-18,5.1-35.9,10.4-54.2,14.1c-8.8,1.8-17.7,2.9-26.7,3.9c-8.3,0.9-16.8,1.9-25.1,0.9
							c-4.1-0.5-8-1.8-11.9-3.1c-4.2-1.5-8.4-3.2-12.5-5.1c-4.2-1.9-8.3-3.9-12.5-5.8c-2-0.9-4-1.9-6-2.7c-2.1-0.9-4.2-2-6.3-2.7
							c-2.1-0.7-4.4-0.7-6.1,0.8c-1.5,1.4-2,3.6-2.7,5.4c-1.3,4-2.5,8-3.5,12c-1.9,8-2.9,16.4-1,24.5c3.9,16.2,19.5,24.7,34.3,29.2
							c14.7,4.5,30.4,5,45.6,3.4c16-1.7,31.7-5.5,47.1-10.2c14.9-4.5,29.6-9.8,44.3-14.7C190.4,328.2,193.7,327.1,197,326
							c2.7-0.8,1.5-5-1.2-4.2c-14,4.4-27.8,9.5-41.7,14c-14.8,4.8-29.8,9.2-45.1,12c-14.5,2.6-29.5,3.9-44.2,1.7
							c-7.3-1.1-14.4-2.9-21.2-5.7c-6.6-2.7-13.1-6.4-17.9-11.9c-10.7-12.3-6.6-29.7-2.1-43.7c0.3-1,0.6-1.9,0.9-2.9
							c0.2-0.7,0.4-1.7,0.9-2.3c0.8-1,2.6,0,3.6,0.4c4,1.7,8,3.6,12,5.4c8,3.7,16,7.6,24.3,10.5c3.9,1.4,7.9,2.5,12.1,3.1
							c4,0.5,8.1,0.6,12.1,0.4c8.1-0.4,16.3-1.4,24.4-2.4c18-2.4,35.7-6.9,53.2-11.8c8.7-2.4,17.3-5.1,26.1-7.4
							c3.8-1,7.7-1.8,11.7-1.5c3.6,0.3,6.8,2,9.3,4.7c4.4,4.9,5.6,12,4.2,18.2c-0.7,3.1-2,6.1-3.9,8.6c-2.1,2.8-4.9,4.8-8,6.4
							c-3.4,1.8-7.1,2.9-10.7,4.1C193.2,322.7,194.4,326.9,197,326z"/>
					</g>
				</g>
			</g>
			<g>
				<g>
					<path class="st3" d="M204.3,294.9c2.1,7,1.5,15,0.8,22.4c-0.8,8.9,13.2,0.8,15.8-2.9c2.3-3.3,2.6-7.4,2.4-11.4
						c-0.3-5.9-1.5-11.7-3.7-17.2c-1.9-4.7-4.9-9.6-10-10.9c-2.2-0.6-4.6-0.4-6.9-0.2c-3.5,0.3-5.8,1.5-9,2.9
						c-0.6,0.3-1.4,0.7-1.4,1.4c0,0.4,0.3,0.7,0.6,1C197.9,284.6,202.3,288.3,204.3,294.9z"/>
				</g>
				<g>
					<g>
						<path class="st1" d="M202.2,295.4c1.6,5.2,1.5,10.7,1.2,16.2c-0.1,1.4-0.2,2.8-0.3,4.2c-0.1,1-0.2,1.9-0.1,2.9
							c0.2,1.6,0.9,3.2,2.3,4.1c2.7,1.6,6.1,0.4,8.6-0.7c2.7-1.2,5.4-2.8,7.5-4.9c3.3-3.1,4.2-7.8,4.2-12.2c0-5.7-1-11.4-2.8-16.8
							c-1.5-4.5-3.5-9.2-7.1-12.3c-1.8-1.6-4-2.8-6.4-3.2c-2.8-0.5-5.9-0.3-8.7,0.2c-2.6,0.5-4.9,1.6-7.3,2.6
							c-1.3,0.6-2.5,1.3-2.9,2.7c-0.5,1.7,0.8,2.9,1.9,4c3.3,3.1,6.6,6.1,8.7,10.1C201.5,293.4,201.9,294.4,202.2,295.4
							c0.8,2.7,5,1.5,4.2-1.2c-1.3-4.3-3.8-7.9-6.9-11.1c-1.5-1.5-3-3-4.6-4.4c-0.1-0.1-0.4-0.5-0.5-0.5c0,0.5,0,1-0.1,1.6
							c-0.1,0.1-0.1,0.1,0.1-0.1c0.4-0.2,0.9-0.4,1.3-0.6c1-0.4,2-0.9,3.1-1.3c2.2-0.8,4.5-1.1,6.9-1.1c2.2,0,4.1,0.3,5.9,1.4
							c3,1.9,4.9,5.6,6.2,8.9c1.8,4.7,3,9.7,3.3,14.8c0.2,2.2,0.2,4.4-0.1,6.5c-0.2,1-0.4,1.9-0.8,2.9c-0.2,0.5-0.5,1.1-0.8,1.6
							c-0.1,0.2-0.2,0.3-0.3,0.5c-0.2,0.3,0.4-0.4,0,0c-0.3,0.3-0.6,0.7-1,1c-0.2,0.2-0.4,0.3-0.6,0.5c-0.1,0.1-0.2,0.2-0.4,0.3
							c0.5-0.4-0.1,0.1-0.2,0.2c-1.1,0.8-2.2,1.5-3.3,2.1c-0.6,0.3-1.2,0.6-1.8,0.9c-0.5,0.2,0.4-0.1-0.1,0.1
							c-0.2,0.1-0.3,0.1-0.5,0.2c-0.3,0.1-0.6,0.2-1,0.3c-0.3,0.1-0.6,0.2-0.9,0.2c-0.2,0-1.1,0.1-0.4,0.1c-0.2,0-0.5,0-0.7,0
							c-0.1,0-0.3,0-0.4,0c-0.3,0,0.5,0.2,0,0c-0.1,0-0.2-0.1-0.3-0.1c-0.5-0.1,0.4,0.2,0,0c-0.1,0-0.2-0.1-0.3-0.2
							c0.5,0.2,0.3,0.2,0.1,0c-0.1-0.1-0.3-0.4,0.1,0.1c-0.1-0.2-0.2-0.6-0.1,0c-0.1-0.3-0.2-0.5-0.2-0.8c0.1,0.6,0,0.1,0-0.1
							c0-0.2,0-0.5,0-0.7c0-0.6,0.1-1.2,0.2-1.8c0.1-1.4,0.2-2.9,0.3-4.3c0.3-5.7,0.2-11.5-1.4-17
							C205.6,291.6,201.4,292.7,202.2,295.4z"/>
					</g>
				</g>
			</g>
			<g>
				<g>
					<path class="st1" d="M224.7,259.5c2,2.2,4.8,3.8,7.7,4.3c0.6,0.1,1.1,0.1,1.7-0.2c0.5-0.3,0.9-0.8,1-1.3
						c0.1-0.6,0.1-1.2-0.2-1.7c-0.3-0.4-0.8-0.9-1.3-1c-0.9-0.1-1.8-0.4-2.7-0.7c0.2,0.1,0.3,0.1,0.5,0.2c-0.9-0.4-1.7-0.9-2.5-1.5
						c0.1,0.1,0.3,0.2,0.4,0.3c-0.6-0.4-1.1-0.9-1.6-1.5c-0.8-0.9-2.3-0.8-3.1,0C223.8,257.3,223.9,258.6,224.7,259.5L224.7,259.5z"
						/>
				</g>
			</g>
			<g>
				<g>
					<path class="st1" d="M216.7,268.2c2.6,2.7,5.9,4.7,9.5,5.8c1.1,0.3,2.4-0.4,2.7-1.5c0.3-1.2-0.4-2.3-1.5-2.7
						c-0.4-0.1-0.8-0.2-1.1-0.4c-0.2-0.1-0.4-0.1-0.6-0.2c-0.1,0-0.2-0.1-0.3-0.1c0.5,0.2,0.2,0.1,0.1,0c-0.7-0.3-1.5-0.7-2.2-1.1
						c-0.3-0.2-0.7-0.4-1-0.7c-0.2-0.1-0.3-0.2-0.5-0.4c-0.2-0.2,0,0,0.1,0.1c-0.1-0.1-0.1-0.1-0.2-0.2c-0.7-0.5-1.3-1.1-1.8-1.7
						c-0.8-0.8-2.3-0.8-3.1,0C215.9,266,215.8,267.3,216.7,268.2L216.7,268.2z"/>
				</g>
			</g>
		</g>
		<g>
			<g>
				<path class="st0" d="M47.6,322.5c-8.3-1.1-16.5-2.7-24.7-4.4c-5.3-1.1-11.7-3.4-12.3-8.7c-0.3-2.3,0.8-4.8,0.2-7
					c-0.5-2-2.2-3.5-3.3-5.3c-1.8-3.2-1.7-7-1.4-10.7c1.4-21.1,2.6-42.2,5.1-63.2c2.4-21.2,3.2-41.4,15.9-59.6
					c9.9-14.1,21.5-13,36.8-9.8c11.2,2.4,22.4,6.4,31.7,13.7c15.8,12.2,24.2,32.2,27.2,51.5c3.2,20.3-3.4,38.4-4.2,58.5
					c-0.2,4.4-0.3,8.8-1.4,13.1c-4.9,19.3-24.1,29.9-43,32.4C65.3,324,56.4,323.7,47.6,322.5z"/>
			</g>
			<g>
				<g>
					<path class="st1" d="M47.6,320.4c-4.6-0.6-9.1-1.4-13.6-2.2c-4.2-0.8-8.5-1.5-12.6-2.6c-0.7-0.2-1.4-0.4-2.1-0.6
						c-0.4-0.1-0.8-0.3-1.1-0.4c0,0-0.4-0.2-0.2-0.1c-0.2-0.1-0.4-0.2-0.7-0.3c-0.7-0.3-1.3-0.7-1.9-1.1c-0.2-0.1-0.3-0.2-0.5-0.3
						c0.2,0.2-0.1-0.1-0.1-0.1c-0.3-0.3-0.6-0.5-0.9-0.8c-0.7-0.8-1.2-1.9-1.2-3.1c0-2.1,0.6-4.2,0.3-6.4c-0.3-2.1-1.6-3.6-2.8-5.3
						c-1-1.4-1.7-2.9-1.9-4.7c-0.3-2-0.1-4,0-6c0.1-2.3,0.3-4.6,0.4-7c0.6-9.2,1.2-18.5,1.9-27.7c0.7-9.2,1.5-18.4,2.6-27.6
						c0.9-7.8,1.6-15.7,2.7-23.4c1.1-7.6,2.8-15.2,5.6-22.4c1.4-3.6,3.2-7.2,5.3-10.5c1.9-3.1,4-6,6.7-8.5c1.1-1,2-1.6,3.3-2.5
						c0.6-0.3,1.1-0.7,1.7-1c0.3-0.2,0.6-0.3,1-0.5c-0.3,0.1,0,0,0.1,0c0.2-0.1,0.5-0.2,0.7-0.3c1.3-0.5,2.6-0.8,4-1
						c0.1,0,0.3,0,0.4-0.1c0.7-0.1-0.2,0,0.2,0c0.3,0,0.6-0.1,1-0.1c0.7-0.1,1.5-0.1,2.2-0.1c3.1-0.1,6,0.3,8.8,0.7
						c3.6,0.6,7.1,1.3,10.7,2.2c7.7,1.9,15.2,4.8,22,9c6.2,3.9,11.7,9.1,16,15c4.3,5.8,7.6,12.3,10.1,19.1
						c2.5,6.8,4.4,14.1,5.2,21.3c2.1,17.2-2.8,34-4.2,51c-0.4,4.5-0.3,9-0.9,13.4c-0.5,3.5-1.5,7.2-2.9,10.2
						c-2.7,5.7-6.8,10.5-11.7,14.2c-11.6,8.6-26,11.5-40.2,11.2C56.6,321.3,52.1,320.9,47.6,320.4c-1.2-0.1-2.2,1.1-2.2,2.2
						c0,1.3,1,2,2.2,2.2c16.2,2,33,1.4,47.9-5.9c6-3,11.7-7.1,16-12.3c4.8-5.9,7.8-12.8,8.8-20.3c0.6-4.6,0.5-9.2,0.9-13.7
						c0.4-4.3,0.9-8.7,1.6-13c1.3-8.7,2.8-17.5,3.1-26.3c0.2-8.4-0.9-16.6-2.9-24.7c-1.9-7.4-4.6-14.7-8.3-21.4
						c-3.6-6.6-8.2-12.8-13.7-17.9c-6.2-5.7-13.5-9.9-21.3-13c-7.2-2.8-14.9-4.6-22.6-5.8c-6.1-0.9-12.5-1.2-18.4,1.1
						c-6.8,2.7-11.6,8.2-15.4,14.4c-4.3,7-7.3,14.7-9.2,22.6c-1.9,7.9-2.9,16-3.8,24.1c-1,8.9-2,17.7-2.8,26.6
						c-0.9,9.5-1.6,19-2.2,28.6c-0.3,4.8-0.6,9.5-0.9,14.3c-0.3,4.3-0.9,8.8,0.1,13c0.5,2.1,1.6,3.7,2.8,5.4
						c0.5,0.7,1.1,1.4,1.4,2.2c0.4,0.9,0.3,1.9,0.2,2.8c-0.2,2.1-0.6,4,0,6.1c0.5,1.6,1.4,3,2.7,4.1c2.5,2.3,5.8,3.5,9,4.4
						c4.3,1.1,8.7,1.9,13.1,2.7c4.7,0.9,9.3,1.7,14,2.3c1.2,0.1,2.2-1.1,2.2-2.2C49.7,321.2,48.7,320.5,47.6,320.4z"/>
				</g>
			</g>
		</g>
		<g>
			<g>
				<path class="st5" d="M55,139.8c-2.6,3-4,6.8-5,10.7c-1.2,4.8-1.7,10,0.1,14.6c3,7.6,11.5,11.7,19.6,12.4c3,0.3,6.2,0.2,9-0.9
					c4.8-1.9,8-6.5,9.6-11.4s1.5-10.1,1.5-15.3"/>
			</g>
			<g>
				<g>
					<path class="st1" d="M53.5,138.3c-2.3,2.6-3.8,5.7-4.8,9c-1,3.3-1.7,6.8-1.8,10.3c-0.2,6.3,2.2,12.3,7.3,16.2
						c4.7,3.7,10.5,5.6,16.3,6c3.5,0.3,7.1-0.1,10.3-1.6c2.8-1.3,5-3.6,6.7-6.1c4.4-6.5,4.6-14.6,4.6-22.1c0-2.8-4.3-2.8-4.4,0
						c0,5.9,0.1,12.3-2.7,17.7c-1.1,2.1-2.6,4.1-4.4,5.5c-2.3,1.7-4.9,2.3-7.7,2.4c-9.6,0.1-21-5-21.7-15.7
						c-0.2-3.4,0.3-6.7,1.2-9.9c0.8-3.1,2-6.1,4.1-8.6c0.8-0.9,0.9-2.2,0-3.1C55.8,137.5,54.3,137.4,53.5,138.3L53.5,138.3z"/>
				</g>
			</g>
		</g>
		<g>
			<g>
				<circle class="st5" cx="82.3" cy="105.7" r="62.9"/>
			</g>
			<g>
				<g>
					<path class="st1" d="M143,105.7c0,12.7-3.9,24.9-11.3,35.3c-6.9,9.8-17.2,17.6-28.5,21.7c-12.1,4.4-25.2,4.9-37.6,1.4
						c-6-1.7-11.4-4.2-16.7-7.7c-5-3.3-9.6-7.4-13.6-12.2c-7.8-9.4-12.7-21.5-13.6-33.7c-1-12.8,2-25.4,8.6-36.3
						c6.3-10.4,15.7-18.7,26.9-23.8c1.4-0.6,2.6-1.1,4.2-1.7c1.4-0.5,2.9-1,4.4-1.4c3-0.8,6.4-1.5,9.2-1.8
						c6.5-0.7,13.1-0.5,19.3,0.8c12.2,2.5,23.2,8.6,31.7,17.5c8.6,9,14.2,20.4,16.2,32.8C142.8,99.3,143,102.6,143,105.7
						c0,2.8,4.4,2.8,4.4,0c0-13.4-4.2-26.7-12-37.6c-7.7-10.8-18.5-19-30.9-23.6c-12.7-4.7-27-5.1-40-1.4c-12.5,3.6-24,11-32.3,21.1
						c-8.6,10.4-13.7,23.2-14.8,36.6c-1,13.4,2.2,27.1,9.2,38.7c6.7,11.1,16.8,20.1,28.7,25.5c12.5,5.6,26.5,7.2,40,4.5
						c12.9-2.6,24.9-9.3,33.9-18.8c9.1-9.5,15.3-21.8,17.3-34.9c0.5-3.4,0.8-6.7,0.8-10.1C147.4,102.9,143,102.9,143,105.7z"/>
				</g>
			</g>
		</g>
		<g>
			<circle class="st1" cx="124" cy="105.4" r="4.9"/>
		</g>
		<g>
			<circle class="st6" cx="102.9" cy="127.5" r="14.6"/>
		</g>
		<g>
			<g>
				<path class="st5" d="M139.1,122.3c2.5,0.1,5.1-0.8,6.9-2.5c1.8-1.8,2.7-4.5,2.1-6.9c-0.6-2.5-2.6-4.6-5.1-5"/>
			</g>
			<g>
				<g>
					<path class="st1" d="M139.1,124.5c5,0.2,9.9-2.9,11-7.9c0.5-2.3,0.2-4.9-1.1-6.9c-1.2-2-3.2-3.5-5.5-3.9
						c-1.1-0.2-2.4,0.3-2.7,1.5c-0.2,1.1,0.3,2.4,1.5,2.7c0.2,0,0.4,0.1,0.6,0.1c0,0,0.6,0.2,0.2,0.1c0.4,0.2,0.7,0.4,1.1,0.6
						c-0.3-0.2,0.1,0.1,0.2,0.2c0.1,0.1,0.2,0.2,0.4,0.4c0.1,0.1,0.4,0.5,0.3,0.3c-0.1-0.2,0.2,0.2,0.2,0.3c0.1,0.2,0.2,0.3,0.3,0.5
						c0,0,0.2,0.6,0.1,0.2c0.1,0.4,0.3,0.8,0.3,1.2c-0.1-0.4,0,0.2,0,0.3c0,0.2,0,0.4,0,0.6c0,0.1,0,0.2,0,0.3c0-0.2,0-0.2,0,0
						c0,0.2-0.1,0.4-0.1,0.7c0,0.2-0.1,0.4-0.2,0.5c0,0-0.3,0.6-0.1,0.3c-0.2,0.4-0.4,0.8-0.7,1.2c-0.2,0.3,0.1-0.1-0.2,0.3
						c-0.2,0.2-0.3,0.3-0.5,0.5c-0.1,0.1-0.3,0.3-0.4,0.4c-0.1,0.1-0.1,0.1,0,0c-0.1,0.1-0.2,0.1-0.3,0.2c-1.4,0.9-2.8,1.2-4.5,1.2
						c-1.1,0-2.2,1-2.2,2.2C137,123.5,137.9,124.4,139.1,124.5L139.1,124.5z"/>
				</g>
			</g>
		</g>
		<g>
			<g>
				<path class="st1" d="M112.2,128.3c5.6,4,12.9,5.2,19.4,3.4c2.7-0.8,1.5-4.9-1.2-4.2c-5.5,1.5-11.4,0.4-16.1-2.9
					c-1-0.7-2.4-0.2-3,0.8C110.8,126.4,111.3,127.6,112.2,128.3L112.2,128.3z"/>
			</g>
		</g>
		<g>
			<g>
				<path class="st7" d="M136.1,36.8c3.8,4.3,5.7,10.4,5.1,16.2c6.8,2.6,10.3,11.2,8.7,18.4c-1.6,7.3-7.6,13-14.4,15.5
					c-6.3,2.3-14.4,1.7-18.1-4c-2.3,6.8-8.2,12.2-14.9,13.7c-6.8,1.6-14.3-0.7-19.2-5.8c-2.2,7.4-8.5,13.3-15.8,14.8
					c1.3-0.3,2.2,9.5,2.2,10.5c-0.1,4.1-1.2,8.2-3.2,11.7c-2.3,3.9-2.8,4.5-3,9c-0.6,16.9-22.4,18.9-33.1,9.9
					c-4.1-3.5-6.4-9.1-5.8-14.4c-5.4,0.1-10.8-3.3-13.1-8.2S10,113,13.4,108.8c-5.7-5.2-8.9-13-8.6-20.7c0.3-7.7,4.2-15.2,10.3-20
					c-1.9-7.6-0.3-15.9,4.2-22.3S31,35.1,38.8,34.3c1.3-0.1,2.7-0.2,3.9-0.8c1.2-0.7,2-1.9,2.9-3.1c5.6-7.5,15.7-11.2,24.9-9.9
					c4.4,0.6,7.8,2.4,12.3,2.2c5.1-0.2,9.9-2.2,15-1.9c6.9,0.4,13.6,3.2,18.6,8c0.5,0.5,1.1,1.1,1.7,1.3c0.6,0.2,1.2,0.1,1.9,0.1
					c5.8-0.5,11.8,1.9,15.8,6.3C135.9,36.5,136,36.7,136.1,36.8z"/>
			</g>
			<g>
				<g>
					<path class="st1" d="M134.6,38.4c3.5,4,5,9.4,4.5,14.7c-0.1,1,0.8,1.8,1.6,2.1c3,1.2,5.4,4.2,6.5,7.3c1.3,3.7,1.3,7.3-0.1,11
						c-1.3,3.5-4.1,6.7-7.2,8.9c-3.2,2.2-6.9,3.6-10.5,3.8c-2.1,0.1-3.8-0.1-5.8-0.9c-1.5-0.6-3.2-1.9-4.2-3.3
						c-1.1-1.6-3.3-1.3-4,0.5c-1.6,4.5-4.9,8.4-9.2,10.6c-4.3,2.3-9.5,2.5-14.1,0.9c-2.7-0.9-5.1-2.5-7.1-4.6
						c-1.2-1.2-3.2-0.6-3.6,1c-2,6.6-7.5,11.9-14.3,13.3c-2.4,0.5-1.9,4.5,0.6,4.3c-0.1,0-1-0.3-1.3-0.5c0.2,0.2-0.2-0.3-0.2-0.3
						c0.1,0,0.3,0.7,0.2,0.2c-0.2-0.4,0.1,0.3,0.1,0.4c0.1,0.3,0.1,0.5,0.2,0.8c0.1,0.6,0.3,1.2,0.4,1.8c0.1,0.3,0.1,0.6,0.1,0.9
						c0,0.2,0,0.3,0.1,0.5c0.1,0.5,0-0.3,0,0.2c0.3,2.3,0.6,4.6,0.2,7c-0.3,2-0.8,4.1-1.7,6c-0.8,1.8-1.9,3.4-2.8,5.1
						c-0.7,1.5-1.2,2.9-1.4,4.6c-0.1,0.9-0.1,1.8-0.2,2.7c0,0.4-0.1,0.7-0.1,1.1c0,0.4,0.1-0.5,0,0.1c0,0.2-0.1,0.4-0.1,0.6
						c-0.1,0.7-0.3,1.3-0.5,2c-0.1,0.2-0.1,0.3-0.2,0.4c0,0-0.2,0.6-0.1,0.3c0.1-0.3-0.1,0.3-0.1,0.3c-0.1,0.2-0.2,0.3-0.2,0.5
						c-0.3,0.6-0.6,1.1-1,1.6c-0.1,0.1-0.2,0.2-0.3,0.4c0.3-0.4,0,0,0,0c-0.2,0.2-0.4,0.5-0.6,0.7c-0.4,0.4-0.9,0.9-1.3,1.3
						c-0.1,0.1-0.4,0.3,0,0c-0.1,0.1-0.2,0.2-0.4,0.3c-0.3,0.2-0.5,0.4-0.8,0.5c-0.5,0.3-1.1,0.6-1.6,0.9c-0.1,0.1-0.3,0.1-0.4,0.2
						c-0.5,0.3,0.3-0.1-0.1,0c-0.3,0.1-0.6,0.2-0.9,0.3c-1.2,0.4-2.5,0.7-3.7,0.9c-0.6,0.1,0.5,0-0.2,0c-0.2,0-0.3,0-0.5,0.1
						c-0.3,0-0.6,0.1-0.9,0.1c-0.7,0-1.3,0.1-2,0c-0.7,0-1.3-0.1-2-0.1c-0.2,0-0.3,0-0.5-0.1c-0.6-0.1,0.3,0-0.1,0
						c-0.3,0-0.7-0.1-1-0.2c-1.3-0.2-2.6-0.6-3.9-1c-0.4-0.1-0.7-0.3-1.1-0.4c-0.6-0.2,0.4,0.2-0.2-0.1c-0.2-0.1-0.3-0.2-0.5-0.2
						c-0.7-0.3-1.3-0.7-2-1.1c-0.6-0.4-1.2-0.8-1.8-1.2c0.1,0.1,0.3,0.3,0,0c-0.2-0.2-0.4-0.3-0.6-0.5c-0.4-0.4-0.8-0.8-1.2-1.2
						c-2.8-3.1-4.1-7.3-3.6-11.5c0.1-1.2-1.1-2.2-2.2-2.2c-4.5,0-8.9-2.6-11.1-6.7c-2.1-4-1.6-9.5,1.3-13.1c0.7-0.9,0.9-2.2,0-3.1
						c-4.2-3.9-6.9-9.2-7.8-14.9c-0.8-5.4,0.5-11,3.2-15.7c1.6-2.7,3.7-5.1,6.2-7.1c0.6-0.5,0.7-1.4,0.6-2.1
						c-2.3-9.4,1.1-19.4,8.6-25.6c3.5-2.9,7.8-4.7,12.2-5.4c1.2-0.2,2.6-0.2,3.8-0.5c1.4-0.3,2.6-1,3.6-2c0.8-0.8,1.5-1.9,2.2-2.8
						c0.7-0.9,1.5-1.8,2.4-2.6c3.2-2.9,7.3-4.9,11.5-5.8c2.1-0.5,4.3-0.6,6.5-0.5c2.5,0.1,4.8,0.7,7.2,1.3c2.7,0.7,5.4,1.2,8.1,1
						c2.8-0.2,5.6-0.8,8.4-1.4c5-0.9,10-0.5,14.8,1.5c2.1,0.9,4.2,2.1,6,3.5c2.1,1.6,3.7,4.1,6.6,4c2.4-0.1,4.6-0.1,6.9,0.6
						c2.2,0.6,4.3,1.7,6.1,3.1C133,36.7,133.8,37.5,134.6,38.4c0.8,0.9,2.3,0.8,3.1,0c0.9-0.9,0.8-2.2,0-3.1
						c-3.5-3.9-8.4-6.5-13.5-7.2c-1.3-0.2-2.6-0.3-3.9-0.2c-0.5,0-1.1,0.2-1.6,0c-0.3-0.1-0.7-0.7-1-0.9c-1.9-1.8-4.1-3.4-6.4-4.7
						c-4.6-2.5-10.2-4-15.5-3.8c-5.6,0.3-11.2,2.7-16.9,1.6c-2.6-0.5-5.2-1.4-7.9-1.8c-2.5-0.4-4.9-0.4-7.4-0.1
						c-4.9,0.6-9.7,2.2-13.7,5.1c-2,1.4-3.9,3.1-5.4,5c-0.8,0.9-1.4,2-2.3,2.8c-0.8,0.7-2,0.8-3,0.9c-5.1,0.5-10,2.2-14.2,5.1
						c-8.8,6.1-13.8,16.7-12.6,27.4c0.1,1.4,0.4,2.7,0.7,4.1c0.2-0.7,0.4-1.4,0.6-2.1c-5,3.9-8.6,9.6-10.1,15.8
						c-1.6,6.4-0.8,13.2,2,19.2c1.5,3.3,3.7,6.3,6.4,8.8c0-1,0-2.1,0-3.1c-3.2,4-4.4,9.1-3.5,14.1c0.9,4.8,4.2,8.9,8.5,11.2
						c2.4,1.3,5.1,2,7.9,2c-0.7-0.7-1.5-1.5-2.2-2.2c-0.5,4.4,0.8,9.1,3.4,12.7c2,2.8,4.8,5,8,6.5c5.5,2.6,12,3.4,18,2
						c5.9-1.4,10.9-5.3,12.9-11.1c0.5-1.6,0.8-3.2,0.9-4.8c0.1-0.9,0.1-1.9,0.2-2.8c0.1-0.7-0.1,0.4,0-0.3c0-0.2,0.1-0.4,0.1-0.6
						c0.1-0.4,0.2-0.7,0.3-1.1c0.2-0.6-0.2,0.4,0.1-0.2c0.1-0.1,0.1-0.3,0.2-0.4c0.2-0.3,0.4-0.7,0.6-1c0.6-1,1.2-2,1.7-3
						c1.1-2.2,2-4.6,2.5-7c0.4-1.9,0.6-3.8,0.5-5.7c-0.1-1.4-0.3-2.8-0.5-4.3c-0.3-2-0.6-8-3.9-7.6c0.2,1.4,0.4,2.8,0.6,4.3
						c8.2-1.7,14.9-8.3,17.3-16.3c-1.2,0.3-2.4,0.6-3.6,1c4.3,4.4,10.4,7,16.6,6.9c6-0.1,11.8-2.8,15.9-7.2c2.3-2.5,4.1-5.4,5.2-8.7
						c-1.3,0.2-2.7,0.3-4,0.5c5.6,8.4,17.4,7.5,25.1,2.9c8.4-5,13.8-14.8,11-24.6c-1.5-5.1-4.9-9.4-9.9-11.4
						c0.5,0.7,1.1,1.4,1.6,2.1c0.6-6.4-1.5-12.9-5.7-17.7c-0.8-0.9-2.3-0.8-3.1,0C133.7,36.2,133.8,37.5,134.6,38.4z"/>
				</g>
			</g>
		</g>
		<g>
			<g>
				<path class="st5" d="M76.8,136.3c-2.2,0.9-4.5,1.4-7,1.4c-9.9,0-18-8.1-18-18s8.1-18,18-18c3.7,0,7.2,1.1,10.1,3.1"/>
			</g>
			<g>
				<g>
					<path class="st1" d="M76.3,134.2c-2.5,1-5.2,1.5-7.9,1.3c-0.9-0.1-1.8-0.3-2.9-0.6c-1.1-0.3-1.8-0.6-2.7-1.1
						c-3.5-1.8-6.3-4.9-7.7-8.5c-0.8-2.2-1.1-4-1-6.2c0.1-1.9,0.6-4.1,1.3-5.8c0.9-2,2-3.5,3.5-4.9c1.4-1.4,3-2.5,4.9-3.3
						c2-0.9,4.5-1.3,6.9-1.2c2.9,0.1,5.7,1.1,8.2,2.8c1,0.6,2.4,0.2,3-0.8c0.6-1.1,0.2-2.3-0.8-3c-5-3.3-11.4-4.3-17.1-2.5
						c-4.8,1.5-9,4.8-11.5,9.2c-2.6,4.5-3.3,10-2.1,15.1c1.2,4.9,4.4,9.2,8.7,12c5.4,3.5,12.5,4.2,18.5,1.7c1.1-0.4,1.9-1.4,1.5-2.7
						C78.7,134.7,77.4,133.8,76.3,134.2L76.3,134.2z"/>
				</g>
			</g>
		</g>
		<g>
			<g>
				<path class="st1" d="M147,163.7c-4.4,13.1-9.5,26-15.4,38.5c-0.5,1.1-0.3,2.3,0.8,3c0.9,0.6,2.5,0.3,3-0.8
					c6-12.9,11.3-26.1,15.8-39.6c0.4-1.1-0.4-2.4-1.5-2.7C148.5,161.9,147.4,162.6,147,163.7L147,163.7z"/>
			</g>
		</g>
		<g>
			<g>
				<path class="st0" d="M114.9,204c0.8-5.3-0.1-10.7-1.7-15.8c-5.2-16.7-17.1-28.3-32.7-35.2c-16.4-7.3-32.8-14-50.4-18
					c-4.3-1-8.9-1.9-13.1-0.6c-5.3,1.6-9.3,6.6-9.7,12.1c-0.4,5.5,2.9,11.1,7.9,13.4c-7.7-0.7-14,7.9-12.8,15.6
					c1.2,7.7,7.9,13.5,15.2,16.1c7.3,2.6,15.2,2.7,23,3s15.8,1,22.6,4.6"/>
			</g>
			<g>
				<g>
					<path class="st1" d="M117,204.5c0.9-6.4-0.2-12.9-2.3-19c-1.7-4.8-3.9-9.4-6.8-13.5c-5.7-8.1-13.5-14.6-22.3-19.1
						c-5.4-2.8-11.1-5-16.7-7.4c-5.9-2.4-11.8-4.8-17.9-6.9c-6-2.1-12.2-3.9-18.4-5.5c-6-1.5-12.6-2.9-18.5-0.2
						c-4.6,2.1-8.2,6.8-9,11.9c-0.8,5.4,1.3,11,5.4,14.6c1,0.9,2.1,1.6,3.3,2.2c0.4-1.4,0.7-2.7,1.1-4.1c-5.7-0.5-10.9,3.5-13.3,8.5
						c-1.2,2.6-2,5.5-1.7,8.3c0.2,3,1.3,6,2.9,8.5c3.4,5.2,8.8,8.9,14.6,10.9c7,2.4,14.6,2.5,21.9,2.8c7.6,0.3,15.6,0.7,22.5,4.4
						c1,0.5,2.4,0.3,3-0.8c0.6-1,0.3-2.4-0.8-3c-6-3.2-12.8-4.3-19.5-4.7c-6.7-0.4-13.5-0.2-20.2-1.4c-5.7-1.1-11.2-3.2-15.3-7.3
						c-1.8-1.8-3.3-3.9-4.1-6.2c-0.2-0.6-0.4-1.2-0.5-1.9c-0.2-0.8-0.2-0.9-0.2-1.6c0-0.6,0-1.2,0-1.8c0-0.5,0.1-0.9,0.3-1.6
						c0.6-2.6,1.9-4.8,3.9-6.5c1.8-1.6,4-2.4,6.5-2.2c2.1,0.2,3-3.1,1.1-4.1c-4-1.9-6.7-5.9-6.8-10.2c-0.1-4.2,2.2-8.2,5.9-10.3
						c4.6-2.7,10.6-1.3,15.6-0.1c5.9,1.4,11.7,3.1,17.4,5.1c5.7,1.9,11.3,4.1,16.8,6.3c5.3,2.2,10.7,4.4,15.9,6.8
						c8.3,3.9,15.6,9.2,21.4,16.4c2.7,3.4,5.1,7.5,6.9,11.6c2.1,4.8,3.6,10.3,3.8,15.7c0,1.4,0,2.8-0.2,4.2
						c-0.2,1.2,0.3,2.3,1.5,2.7C115.3,206.3,116.8,205.7,117,204.5L117,204.5z"/>
				</g>
			</g>
		</g>
		<g>
			<g>
				<path class="st1" d="M23.8,304.2c14.6,5.1,30.3,5.6,45.7,4.9c4.4-0.2,8.7-0.5,13-0.7c1.2-0.1,2.2-0.9,2.2-2.2
					c0-1.1-1-2.3-2.2-2.2c-15,1-30.3,1.9-45.2-0.8c-4.2-0.8-8.3-1.8-12.3-3.2c-1.1-0.4-2.4,0.4-2.7,1.5
					C22,302.7,22.7,303.8,23.8,304.2L23.8,304.2z"/>
			</g>
		</g>
		<g>
			<g>
				<path class="st5" d="M198.4,220.6c-5.6,1.7-12.6,7.2-18.7,5c-6.6-2.4-14-8.6-14.4-16.1c-0.2-3.5,1.5-6,2.2-9.2
					c1.2-5.1,1.6-9.6,4.5-14.1c1.3-2.1,3.2-4.2,5.6-4.6c2.9-0.5,5.7,1.4,8.7,1.5c5.3,0.1,13.7-4.6,17,2.3c1.1,2.3,0.2,5.7-2.3,6.5
					c2.3-0.1,4.6,1.5,5.3,3.6c0.7,2.2-0.2,4.8-2.2,6.1c1.7,0.8,2.9,2.7,2.8,4.6c-0.1,1.9-1.5,3.6-3.3,4.2c1.1,2,2.1,4.4,1.2,6.5
					C203.9,219.2,200.9,219.9,198.4,220.6z"/>
			</g>
			<g>
				<g>
					<path class="st1" d="M197.9,218.5c-3.4,1-6.4,2.9-9.7,4.2c-1.6,0.6-3.3,1.2-4.9,1.2c-1.5,0.1-2.8-0.3-4.1-0.9
						c-3.1-1.4-5.9-3.3-8.1-5.8c-2.1-2.3-3.6-5.3-3.6-8.3c0-1.9,0.8-3.6,1.4-5.4c0.7-1.8,1.1-3.7,1.5-5.6c0.8-3.8,1.6-7.5,3.8-10.8
						c0.8-1.3,2-2.7,3.4-3.2c1.6-0.6,3.3,0.1,4.8,0.6c1.8,0.5,3.5,0.9,5.4,0.7c1.4-0.1,2.8-0.4,4.2-0.7c0.8-0.2,1.6-0.3,2.4-0.5
						c0.2,0,0.4-0.1,0.5-0.1c0.1,0,0.2,0,0.3,0c-0.2,0-0.2,0,0,0c0.4,0,0.8-0.1,1.2-0.1c0.4,0,0.8,0,1.1,0c0.2,0,0.3,0,0.5,0
						c0.1,0,0.7,0.1,0.2,0c0.3,0.1,0.6,0.1,0.9,0.2c0.1,0,0.6,0.2,0.2,0.1c0.2,0.1,0.3,0.2,0.5,0.3c0.1,0.1,0.2,0.1,0.3,0.2
						c0.4,0.3-0.1-0.2,0.2,0.1c0.2,0.1,0.3,0.3,0.4,0.4c0.3,0.3-0.1-0.2,0.2,0.2c0.2,0.3,0.4,0.7,0.6,1c-0.1-0.3,0,0.1,0.1,0.2
						c0,0.1,0.1,0.8,0.1,0.4c0,0.1,0,0.3,0,0.4c0,0-0.1,0.7,0,0.3c0,0.2-0.1,0.4-0.1,0.5c0,0.1-0.1,0.2-0.1,0.3c0.1-0.1,0.1-0.1,0,0
						c-0.1,0.2-0.2,0.3-0.3,0.5c-0.3,0.5,0.2-0.2-0.2,0.2c-0.1,0.1-0.2,0.2-0.3,0.3c0.4-0.3-0.6,0.2-0.2,0.1c-1,0.4-1.7,1.3-1.6,2.4
						c0.2,1,1,1.9,2.1,1.9c1.4,0,2.7,0.8,3.2,2c0.4,1.2-0.1,2.8-1.2,3.6c-1.2,0.8-1.6,3,0,3.8c1.1,0.5,1.7,1.5,1.7,2.6
						c0,0.9-0.8,1.9-1.7,2.3c-1.4,0.5-2,1.9-1.3,3.2c0.5,1,1.1,2.1,1.2,3.3c0.1,0.8-0.2,1.4-0.6,1.8c-0.4,0.4-1.3,0.9-1.8,1.1
						C199.8,218,198.8,218.2,197.9,218.5c-2.7,0.8-1.5,5,1.2,4.2c2.6-0.8,5.5-1.5,7.2-3.8c2.3-3,1-6.7-0.5-9.7
						c-0.4,1.1-0.9,2.1-1.3,3.2c2.7-1,4.6-3.3,4.9-6.2c0.2-2.7-1.4-5.4-3.8-6.6c0,1.3,0,2.5,0,3.8c2.7-1.8,4.2-5.3,3.2-8.5
						c-1-3.1-4.1-5.3-7.4-5.2c0.2,1.4,0.4,2.8,0.6,4.3c4.1-1.6,5.4-6.4,3.4-10.2c-1.8-3.2-5.2-4.5-8.8-4.3c-1.7,0.1-3.3,0.4-5,0.7
						c-0.7,0.1-1.5,0.3-2.2,0.4c-0.3,0.1-0.7,0.1-1,0.2c-0.7,0.1,0.4,0-0.2,0c-0.2,0-0.4,0-0.6,0.1c-2,0.1-3.7-0.6-5.6-1.1
						c-2.4-0.6-4.7-0.6-6.9,0.6c-4,2.1-6.2,7-7.5,11.2c-0.6,2.1-1,4.2-1.5,6.3c-0.5,2.1-1.1,4.2-1.8,6.2c-0.7,2.1-1.1,4.3-0.8,6.6
						c0.3,2.1,0.9,4.1,2,5.9c2,3.6,5.1,6.5,8.6,8.6c1.8,1.1,3.8,2.2,5.8,2.8c2.3,0.7,4.8,0.5,7.1-0.1c4.3-1.1,8.1-3.7,12.3-5
						C201.7,221.9,200.6,217.7,197.9,218.5z"/>
				</g>
			</g>
		</g>
		<g>
			<g>
				<path class="st0" d="M87.6,191.8c5.8-6.7,18.1-3.8,24.7,0.1c4.4,2.7,8.2,6.4,12.5,9.3s9.4,5.2,14.6,4.5c7.7-1,13.7-7.2,21.1-8.9
					c6.3-1.4,12.4,3.3,15.8,8.8c14,22.4-7.6,46.4-29.2,53c-18.3,5.6-38.5,1.8-55.9-6.3"/>
			</g>
			<g>
				<g>
					<path class="st1" d="M89.1,193.3c1-1.1,1.8-1.7,3.3-2.4c0,0,0.4-0.2,0.1,0c0.2-0.1,0.3-0.1,0.5-0.2c0.3-0.1,0.6-0.2,1-0.3
						c0.4-0.1,0.7-0.2,1.1-0.2c0.1,0,0.3-0.1,0.4-0.1c0.5-0.1-0.1,0,0.3,0c3.2-0.3,5.8,0.1,8.8,0.9c2.9,0.9,5.3,1.9,7.9,3.7
						c3.5,2.3,6.7,5.2,10.1,7.7c3.4,2.4,7.1,4.5,11.2,5.3c4.2,0.8,8.1,0.1,12-1.6c3.4-1.4,6.5-3.4,9.7-5.1c3-1.5,6.2-2.7,9.4-1.9
						c6.6,1.7,11.1,8.9,12.7,15.1c1.6,6,0.7,12.4-1.9,18c-5.7,12-17.7,21-30.2,24.7c-15.9,4.6-32.9,2-48-4c-1.8-0.7-3.6-1.5-5.3-2.3
						c-1.1-0.5-2.3-0.3-3,0.8c-0.6,0.9-0.3,2.5,0.8,3c15.8,7.4,33.7,11.4,51.1,8.1c14.5-2.7,28.3-11.4,36.2-24c3.7-5.9,6-13,5.4-20
						c-0.6-7.5-4.1-15.3-10.1-20c-3.1-2.5-7-4.3-11-3.9c-3.9,0.4-7.6,2.3-11,4.2c-3.3,1.8-6.5,3.8-10.2,4.6
						c-3.9,0.9-7.8-0.1-11.2-1.9c-3.8-2-7-4.8-10.4-7.4c-3.1-2.4-6.2-4.5-9.8-6c-5.9-2.4-13.3-3.6-19.3-0.6
						c-1.4,0.7-2.7,1.7-3.7,2.9c-0.8,0.9-0.9,2.2,0,3.1C86.8,194.1,88.3,194.2,89.1,193.3L89.1,193.3z"/>
				</g>
			</g>
		</g>
	</g>
	<g>
		<g>
			<g>
				<path class="st0" d="M359.9,323.9c5.1,6,8.4,13.3,14,18.9c5.6,5.6,14.8,9.2,21.7,5.2c5.1-3,7.2-9.1,7.9-14.9
					c0.8-6.7,0.2-13.5-1.8-19.9"/>
			</g>
			<g>
				<g>
					<path class="st1" d="M358.3,325.4c3.9,4.5,6.7,9.8,10.3,14.6c3.6,4.7,7.9,8.6,13.5,10.6c5.1,1.9,11.2,1.8,15.7-1.5
						c4.5-3.3,6.8-8.7,7.6-14c1.2-7.5,0.6-15.2-1.6-22.5c-0.8-2.7-5-1.5-4.2,1.2c1.8,5.9,2.4,12.1,1.8,18.3c-0.4,4.4-1.7,9.4-5,12.6
						c-3.3,3.2-8,3.4-12.3,2.1c-4.8-1.5-8.6-4.8-11.7-8.8c-4-5-6.9-10.7-11.1-15.6c-0.8-0.9-2.3-0.8-3.1,0
						C357.4,323.2,357.6,324.5,358.3,325.4L358.3,325.4z"/>
				</g>
			</g>
		</g>
		<g>
			<g>
				<path class="st4" d="M415.1,278.7c-19.3-12.5-40.2-13.2-61.2-21.5c-15.1-6-28.3-10.7-44.3-1.5c-12.7,7.3-20,23.6-14,36.6
					c3.8,8.2,11.8,13.9,19.9,18.3c13.2,7.3,27.7,12.5,42.6,15.5c6.8,1.4,14.2,2.2,20.5-0.7s10.7-10.6,7.4-16.5
					c9.8-0.5,19.4-3.9,27.2-9.5c5.3-3.8,10.2-10.6,7-16.1C419.1,281.3,417.1,279.9,415.1,278.7z"/>
			</g>
			<g>
				<g>
					<path class="st1" d="M416.2,276.8c-8.4-5.4-17.7-8.9-27.2-11.6c-9.3-2.7-18.8-4.7-28-7.7c-8.8-2.9-17.2-7.2-26.5-8.6
						c-4.5-0.7-8.9-0.7-13.4,0.1c-4.8,0.9-9.5,2.9-13.7,5.5c-13.3,8.4-21,26.7-12.6,41.2c4.5,7.8,12.4,13,20.1,17.2
						c8.8,4.8,18.2,8.7,27.8,11.7c4.8,1.5,9.7,2.7,14.6,3.7c4.8,1,9.8,1.7,14.6,1.2c4.5-0.5,8.9-2,12.3-5.2c2.9-2.8,5-6.7,5-10.7
						c0-2-0.5-3.9-1.4-5.6c-0.6,1.1-1.3,2.2-1.9,3.3c8.3-0.5,16.4-2.8,23.6-6.8c3.4-1.9,6.7-4.1,9.3-7.1c2.4-2.8,4.5-6.3,4.5-10.1
						c0-2.1-0.7-4.2-2-5.9C420,279.4,418.1,278.1,416.2,276.8c-1-0.6-2.4-0.2-3,0.8c-0.6,1.1-0.2,2.3,0.8,3c1.4,0.9,2.8,1.8,3.9,3.1
						c0.8,1,1.2,2.2,1.2,3.2c0,1.3-0.3,2.6-0.9,3.8c-0.7,1.3-1.5,2.6-2.5,3.7c-2.3,2.5-5.1,4.4-8,6c-3.1,1.7-6.3,3.1-9.7,4.2
						c-3.9,1.2-7.9,1.9-12,2.2c-1.7,0.1-2.7,1.8-1.9,3.3c0.7,1.3,1,2.6,0.8,4.3c0-0.4-0.1,0.4-0.1,0.3c0,0.2-0.1,0.3-0.1,0.5
						c-0.1,0.4-0.2,0.8-0.3,1.1c-0.3,0.8-0.6,1.5-1.2,2.3c-1.9,3-4.9,4.9-8.4,5.8c-4.2,1.1-8.7,0.8-13,0.1
						c-4.7-0.8-9.3-1.9-13.9-3.1c-9.1-2.5-17.9-5.9-26.4-10.1c-7.5-3.7-15.2-8-20.6-14.6c-2.4-2.9-4-6.1-4.8-9.8
						c-0.7-3.1-0.6-6.7,0.1-9.7c1.5-6.9,5.6-13.2,11.1-17.4c6.6-5.2,15.2-7.7,23.5-7c8.6,0.7,16.7,4.4,24.7,7.3
						c17.2,6.4,36,8.3,52.4,16.9c2.1,1.1,4.1,2.3,6.1,3.5c1,0.6,2.4,0.2,3-0.8C417.6,278.7,417.2,277.4,416.2,276.8z"/>
				</g>
			</g>
		</g>
		<g>
			<g>
				<path class="st0" d="M449.3,154.9c-3.8-3.6-8.6-6.2-15.1-8c-11.5-3.2-24-3.7-35.9-2.8c-12.2,0.9-25.7,4.5-34.2,13.3
					c-10.9,11.2-20,25-29.8,37.2c-5.7,7.1-11.5,14.4-13.9,23c-3,10.7-0.1,22.8,7.5,31.2c5.6,6.2,13,8.2,19.6,12.9
					c5.8,4.1,7.3,9.3,14.8,11.6c17.9,5.5,40.9,6.5,59.4,4.3c14.4-1.7,30.8,2.6,40.9-10.6c3.2-4.2,4.8-9.2,6-14.2
					c6.7-27.3,3.4-56.7-8.8-82.2C456.7,164.1,453.6,158.9,449.3,154.9z"/>
			</g>
			<g>
				<g>
					<path class="st1" d="M450.8,153.3c-5.8-5.3-13-8.1-20.6-9.7c-8.6-1.8-17.4-2.4-26.2-2.1c-14.8,0.5-31,3.4-41.7,14.5
						c-5.9,6.1-11.1,12.8-16.2,19.5c-5,6.6-10,13.3-15.2,19.8c-5.1,6.4-10.1,13.1-12.5,21.1c-2.1,7.1-1.8,14.9,0.7,21.9
						c2.7,7.4,7.5,13.6,14.2,17.7c3.2,2,6.6,3.6,9.8,5.4c1.5,0.9,3.1,1.9,4.4,3c1.2,1,2.3,2.2,3.4,3.4c2.2,2.3,4.4,4.6,7.2,6.1
						c3.4,1.8,7.3,2.6,10.9,3.4c7.9,1.8,16,2.8,24.1,3.2c8,0.4,16,0.3,23.9-0.4c3.4-0.3,6.8-0.8,10.3-0.9c3.3-0.1,6.5-0.1,9.8-0.2
						c6.5-0.2,13.2-0.8,19.1-3.9c6.9-3.7,11.1-10.4,13.4-17.7c2.4-7.8,3.7-16.1,4.3-24.3c0.6-8.3,0.4-16.6-0.7-24.8
						c-1.1-8.2-2.9-16.3-5.5-24.2c-2.6-7.7-5.8-15.5-10.1-22.5C455.7,158.7,453.5,155.8,450.8,153.3c-2-1.9-5.1,1.2-3.1,3.1
						c5.3,5,8.7,11.8,11.6,18.5c3.2,7.2,5.7,14.8,7.4,22.5c3.5,15.4,4,31.5,1.3,47c-0.7,3.9-1.5,7.9-2.7,11.7
						c-1.1,3.5-2.5,6.9-4.7,9.8c-2,2.6-4.3,4.5-7.2,5.9c-2.4,1.2-5.4,2-8.2,2.4c-1.2,0.2-2.8,0.3-4.3,0.4c-1.6,0.1-3.2,0.2-4.8,0.2
						c-3.1,0.1-6.3,0.1-9.4,0.2c-3.4,0.1-6.8,0.6-10.2,0.9c-3.7,0.3-7.5,0.5-11.2,0.5c-7.9,0.1-15.7-0.3-23.5-1.3
						c-3.8-0.5-7.5-1.1-11.2-2c-1.8-0.4-3.5-0.8-5.3-1.3c-1.6-0.5-3.3-0.9-4.8-1.7c-2.7-1.4-4.5-3.4-6.6-5.7c-2.4-2.6-5-4.7-7.9-6.5
						c-3.1-1.9-6.4-3.4-9.5-5.3c-3.1-1.9-5.9-4.1-8.2-6.9c-4.2-5.2-6.6-12-6.8-18.7c-0.2-7.4,2.5-14.1,6.4-20.3
						c4.3-6.7,9.6-12.7,14.4-19c4.9-6.5,9.7-13.1,14.9-19.4c4.7-5.7,9.5-11.6,16-15.4c6.1-3.5,12.9-5.3,19.8-6.4
						c7.7-1.1,15.9-1.2,23.8-0.7c4.1,0.3,8.3,0.8,12.3,1.7c3.7,0.8,7.5,1.8,11,3.4c2.9,1.4,5.4,3,7.7,5.1c0.9,0.8,2.2,0.9,3.1,0
						C451.7,155.6,451.7,154.1,450.8,153.3z"/>
				</g>
			</g>
		</g>
		<g>
			<g>
				<path class="st4" d="M363,239.1c1.7-26.2,3.3-52.4,5-78.6c0.2-3.3,0.5-6.8,2.3-9.5c1.9-2.7,5.9-4.3,8.6-2.4
					c0.6,11.2,1.1,22.3,1.7,33.5c0,0.8,28.8,0.6,31.4,0.5c5.3-0.1,10.9-0.9,16.1-0.5c4.3,0.3,5.9,0.2,6.4-5c1.1-9.9,1.8-19.8,2-29.8
					c0-0.5,0-1,0.3-1.3c0.4-0.6,1.3-0.7,2.1-0.6c17.2,1.1,15.8,23.6,15.6,35.4c-0.4,18.6-2.9,37.2-7.5,55.3
					c-0.7,2.7-1.5,5.5-3.2,7.7c-3.8,4.9-10.8,5.7-17,6c-18.5,0.9-37.3,0.6-55.3-3.7"/>
			</g>
			<g>
				<g>
					<path class="st1" d="M365.2,239.1c0.8-13.3,1.7-26.7,2.5-40c0.8-13.2,1.6-26.4,2.5-39.6c0.1-1.5,0.3-2.9,0.6-4.4
						c0.3-1.2,0.9-2.6,1.7-3.4c0.8-0.8,1.7-1.4,2.7-1.6c0.9-0.2,1.7-0.2,2.6,0.4c-0.4-0.6-0.7-1.3-1.1-1.9c0.3,6.9,0.7,13.8,1,20.7
						c0.2,3.4,0.3,6.8,0.5,10.3c0.1,1.4-0.2,3.3,1,4.3c0.3,0.3,0.7,0.4,1.1,0.5c2.1,0.5,4.5,0.4,6.7,0.4c3.5,0.1,6.9,0.1,10.4,0.1
						c5.7,0,11.4,0.1,17.1-0.2c3.3-0.2,6.6-0.5,9.9-0.5c2.5,0,5.1,0.4,7.5,0c2-0.3,3.3-1.6,4.1-3.5c0.4-1.1,0.6-2.2,0.7-3.4
						c0.2-1.6,0.4-3.3,0.5-4.9c0.7-6.9,1.1-13.7,1.4-20.6c0-0.8,0.1-1.7,0.1-2.5c0-0.2,0.2-2.2,0.1-2.2c0.1,0-0.4,0.4-0.3,0.4
						c-0.1,0.3-0.2,0,0.1,0.1c0.1,0,0.5,0,0.7,0c0.3,0,0.5,0,0.7,0.1c0.3,0,0,0-0.1,0c0.2,0,0.3,0.1,0.5,0.1
						c0.9,0.2,1.8,0.4,2.6,0.7c0.1,0.1,0.6,0.3,0.2,0.1c0.2,0.1,0.4,0.2,0.6,0.3c0.4,0.2,0.8,0.4,1.2,0.7c0.2,0.1,0.3,0.2,0.5,0.3
						c0.1,0.1,0.5,0.4,0.2,0.1c0.3,0.3,0.7,0.5,1,0.8c0.3,0.3,0.5,0.5,0.8,0.8c0.1,0.1,0.3,0.3,0.4,0.5c0.3,0.4-0.1-0.2,0.2,0.2
						c0.5,0.7,0.9,1.4,1.3,2.2c0.2,0.4,0.4,0.7,0.5,1.1c0,0.1,0.1,0.2,0.1,0.2c0.1,0.3-0.1-0.3,0,0c0.1,0.2,0.2,0.5,0.3,0.7
						c0.6,1.7,1.1,3.4,1.4,5.2c0.1,0.4,0.2,0.9,0.2,1.3c0,0.2,0.1,0.5,0.1,0.7c0,0.3,0-0.1,0-0.1c0,0.2,0,0.3,0.1,0.5
						c0.1,0.9,0.2,1.9,0.3,2.8c0.3,3.6,0.2,7.1,0.2,10.7c-0.1,5.5-0.3,10.9-0.7,16.4c-1,13.4-3.1,26.6-6.3,39.7
						c-0.7,2.8-1.3,5.8-2.9,8.3c-1.2,1.9-3.2,3.2-5.2,4c-5.1,1.9-10.6,1.8-16,1.9c-13.2,0.4-26.5,0.2-39.6-1.9
						c-3.2-0.5-6.4-1.2-9.5-1.9c-2.7-0.7-3.9,3.5-1.2,4.2c16.6,4,33.7,4.5,50.6,4c3.8-0.1,7.5-0.2,11.3-0.8c3.2-0.5,6.5-1.3,9.2-3.2
						c3.2-2.2,5.1-5.4,6.2-9c1.2-4,2.1-8.1,2.9-12.1c3.4-16,5-32.2,5.4-48.5c0.1-4.5,0.2-9.1-0.3-13.6c-0.5-4.8-1.5-9.7-4-13.8
						c-2.5-4.1-6.6-7-11.4-7.8c-1.8-0.3-3.9-0.6-5.4,0.7c-1.7,1.5-1.3,4.1-1.4,6.1c-0.2,4.4-0.4,8.7-0.7,13.1
						c-0.3,4.4-0.7,8.7-1.2,13.1c-0.1,0.8-0.1,1.2-0.3,1.9c-0.1,0.3-0.1,0.6-0.2,0.9c0,0.1-0.1,0.2-0.1,0.3c0.2-0.5,0,0-0.1,0.1
						c-0.3,0.5,0.2-0.1-0.1,0.2c-0.3,0.3,0.4-0.2-0.1,0.1c-0.4,0.3,0.2,0-0.1,0c-0.2,0-0.8,0.1-0.3,0.1c-1.3,0.1-2.6,0-3.9-0.1
						c-2.1-0.1-4.2,0-6.4,0.1c-3.1,0.2-6.3,0.4-9.4,0.5c-7.6,0.1-15.3,0.1-22.9,0c-1.7,0-3.5-0.1-5.2-0.2c-0.6,0-1.2-0.1-1.7-0.1
						c-0.7-0.1,0.5,0.2,0,0c-0.3-0.1-0.5-0.2,0.1,0.1c0,0,0,0,0,0c0.1,0.1,0.3,0.2,0.4,0.3c0.2,0.4,0.4,0.8,0.6,1.1
						c0,0-0.1-1.7-0.1-1.8c-0.1-1.1-0.1-2.2-0.2-3.2c-0.1-2.2-0.2-4.4-0.3-6.7c-0.2-4.4-0.4-8.8-0.7-13.1c-0.1-2.2-0.2-4.3-0.3-6.5
						c-0.1-1.4,0.1-2.8-1.2-3.7c-0.7-0.5-1.4-0.8-2.2-1c-3.5-0.7-7.2,1.1-9.2,3.9c-2.2,3.1-2.5,7.1-2.8,10.8
						c-0.3,4.4-0.6,8.9-0.8,13.3c-1.1,17.5-2.2,35-3.3,52.5c-0.3,4.3-0.5,8.5-0.8,12.8c-0.1,1.2,1.1,2.2,2.2,2.2
						C364.2,241.2,365.1,240.2,365.2,239.1L365.2,239.1z"/>
				</g>
			</g>
		</g>
		<g>
			<path class="st2" d="M361.4,192.3l4,6.8c1.2,2-0.6,3.9-2.8,2.9l-7.3-3.2l-32.8-28.4l6.1-6.5L361.4,192.3z"/>
			<path class="st1" d="M363.7,204.5c-0.7,0-1.4-0.1-2.1-0.4l-7.3-3.2c-0.2-0.1-0.4-0.2-0.6-0.3L321,172.1c-0.4-0.4-0.7-0.9-0.7-1.5
				c0-0.6,0.2-1.2,0.6-1.6l6.1-6.5c0.8-0.9,2.1-0.9,3-0.2l32.8,28.4c0.2,0.2,0.3,0.3,0.5,0.5l4,6.8c1,1.7,0.9,3.7-0.3,5.1
				C366.1,204,365,204.5,363.7,204.5z M356.4,197l6.9,3l-3.7-6.3l-31-26.8l-3.1,3.4L356.4,197z"/>
		</g>
		<g>
			<g>
				<path class="st5" d="M326.5,209.6c-8.3-10.9,4.8-28.9,17.1-29.5c1.2-0.1,2.4,0,3.3,0.7c1.3,1,1.3,2.9,0.5,4.3
					c-0.8,1.4-2.2,2.4-3.5,3.3c1.9-1,4.4,0.5,4.8,2.5c0.4,2-0.9,4.1-2.8,5.1c1.8-0.5,3.8,0.8,4,2.6c0.2,1.7-1.4,3.5-3.2,3.5
					c2.3,1.1,2.7,4.4,1.3,6.5c-1.4,2.1-4,3.1-6.4,3.8c-2.6,0.7-5.4,1.2-8.1,0.9C330.8,213,328.1,211.8,326.5,209.6z"/>
			</g>
			<g>
				<g>
					<path class="st1" d="M328.4,208.5c-1-1.3-1.5-2.3-1.9-3.7c-0.1-0.3-0.2-0.7-0.2-1c0-0.2-0.1-0.4-0.1-0.6c0.1,0.4,0,0,0-0.1
						c-0.1-0.7-0.1-1.5,0-2.2c0-0.4,0-0.7,0.1-1.1c-0.1,0.5,0-0.2,0-0.3c0-0.2,0.1-0.4,0.1-0.5c0.1-0.7,0.3-1.5,0.6-2.2
						c0.5-1.4,1-2.5,1.8-4c0.4-0.7,0.8-1.4,1.3-2c0.4-0.6,0.7-1,1.3-1.6c1.1-1.2,2.2-2.3,3.5-3.3c-0.3,0.2,0.3-0.2,0.3-0.2
						c0.2-0.1,0.3-0.2,0.5-0.3c0.3-0.2,0.6-0.4,0.9-0.6c0.7-0.4,1.4-0.8,2.1-1.2c0.2-0.1,0.3-0.2,0.5-0.2c0.6-0.3-0.2,0.1,0.2-0.1
						c0.3-0.1,0.7-0.3,1-0.4c0.7-0.2,1.5-0.4,2.2-0.6c0.2,0,0.3-0.1,0.5-0.1c-0.5,0.1,0.1,0,0.2,0c0.5,0,1-0.1,1.5,0
						c0.3,0,0.7,0.1,0.9,0.3c0.1,0.1,0.1,0.2,0.2,0.4c0-0.3,0,0.2,0,0.2c0,0.1,0,0.2,0,0.4c0-0.2,0-0.1-0.1,0.1
						c-0.1,0.4-0.1,0.3,0,0.2c-0.1,0.2-0.3,0.5-0.4,0.7c-0.6,0.8-1.6,1.4-2.4,2c-2.3,1.6-0.3,5,2.2,3.8c-0.3,0.1,0.3,0,0.1,0
						c-0.2,0,0.3,0,0.4,0c-0.3,0,0.1,0,0.2,0.1c0.4,0.1-0.4-0.2,0.2,0.1c0.4,0.2,0.7,0.5,0.7,0.9c0.1,0.4,0,0.9-0.3,1.4
						c-0.4,0.6-0.8,1-1.5,1.4c-2.2,1.2-0.7,4.5,1.7,4c0.3-0.1,0.3-0.1,0.1,0c0.3,0,0.3,0,0.1,0c0.4,0.1,0.3,0.1,0.6,0.2
						c0.4,0.2,0.4,0.4,0.5,0.7c0-0.2,0-0.2,0,0.1c0-0.2,0-0.1,0,0.1c0.1-0.3-0.4,0.5-0.2,0.3c-0.3,0.3-0.5,0.4-0.9,0.4
						c-2,0.1-3.1,3.1-1.1,4.1c0.1,0.1,0.6,0.4,0.5,0.3c-0.2-0.2,0.4,0.6,0.1,0.2c0,0.1,0.3,0.6,0.2,0.2c0.1,0.2,0.1,0.4,0.2,0.6
						c0.1,0.5,0.1-0.2,0,0.3c0,0.2,0,0.4,0,0.7c0-0.4-0.1,0.3-0.1,0.4c0,0.1-0.1,0.2-0.1,0.3c0.1-0.1,0.1-0.1,0,0
						c-0.9,1.7-3,2.6-4.9,3.2c-4.5,1.4-10.2,2.1-13.5-2c-0.7-0.9-2.3-0.8-3.1,0c-0.9,0.9-0.7,2.2,0,3.1c4.5,5.7,13,5,19,2.7
						c2.9-1.1,5.9-3,6.8-6.2c0.8-2.8-0.2-6.2-2.9-7.5c-0.4,1.4-0.7,2.7-1.1,4.1c3.2-0.1,5.9-3,5.3-6.2c-0.6-3-3.9-4.7-6.7-4.1
						c0.6,1.3,1.1,2.7,1.7,4c2.8-1.5,4.8-4.9,3.6-8.1c-1.1-3.2-4.8-4.7-7.9-3.3c0.7,1.3,1.5,2.5,2.2,3.8c2.1-1.4,4.3-3.1,4.9-5.7
						c0.6-2.7-0.6-5.4-3.2-6.3c-1.9-0.7-4.3-0.4-6.3,0.1c-1.8,0.4-3.6,1.2-5.2,2.1c-6.5,3.7-12,10.7-13.2,18.1
						c-0.7,4.2,0,8.6,2.6,12.1c0.7,0.9,1.9,1.4,3,0.8C328.5,211,329.1,209.5,328.4,208.5z"/>
				</g>
			</g>
		</g>
		<g>
			<g>
				<path class="st5" d="M387.4,141.6c1.5,3.6-0.1,7.9,1,11.7c1.4,4.8,6.8,7.3,11.8,8.3c5.4,1,11,0.9,16.4-0.4
					c3-0.7,6.1-1.9,8.3-4.1c2.6-2.7,3.5-6.7,3.6-10.4c0.1-3.8-0.4-7.5,0-11.3"/>
			</g>
			<g>
				<g>
					<path class="st1" d="M385.3,142.2c0.9,2.4,0.5,5,0.5,7.6c0,2.6,0.5,5.1,2,7.2c2.7,3.8,7.3,5.8,11.8,6.6
						c5.8,1.1,11.9,1,17.7-0.4c2.5-0.6,5-1.5,7.1-3c2.2-1.6,3.8-3.7,4.8-6.3c2.4-6,0.8-12.5,1.3-18.7c0.1-1.2-1.1-2.2-2.2-2.2
						c-1.3,0-2.1,1-2.2,2.2c-0.4,5,0.7,10.3-0.5,15.2c-0.5,1.9-1.2,3.8-2.7,5.2c-1.5,1.5-3.4,2.3-5.4,2.9
						c-4.9,1.5-10.2,1.8-15.2,1.1c-3.8-0.5-7.9-1.6-10.4-4.4c-0.4-0.4-0.5-0.6-0.8-1.1c-0.2-0.4-0.4-0.7-0.5-1
						c-0.4-1.2-0.5-2.3-0.5-3.6c0-2.9,0.4-5.8-0.6-8.6c-0.4-1.1-1.5-1.9-2.7-1.5C385.8,139.8,384.9,141.1,385.3,142.2L385.3,142.2z"
						/>
				</g>
			</g>
		</g>
		<g>
			<g>
				<path class="st8" d="M449.6,66.1c-10.2-1.8-21.1-12.9-24.5-22.6c-1.6-4.6-1.4-9.6-0.1-14.3c1.3-4.7,3.5-9,6-13.2
					c2.2-3.8,7.8-6.9,12-6.8c4.7,0,9.4,3.5,10.4,8.1c2.4-4.5,8-6.6,13-5.7s9.3,4.2,12.3,8.2c2.2,3,4,6.5,3.7,10.3
					c-0.2,3.7-2.9,7.4-6.6,7.9c6.6,2.4,9.9,11.2,6.6,17.4c-2.5,4.6-7.6,7.1-12.5,8.7C463.3,66.1,456.3,67.3,449.6,66.1z"/>
			</g>
			<g>
				<g>
					<path class="st1" d="M450.1,64c-5.1-0.9-9.7-3.9-13.5-7.5c-3.8-3.6-7.4-8.2-9.3-12.9c-2.4-6.1-1.2-12.7,1.2-18.5
						c1.2-2.9,2.7-5.9,4.4-8.5c1.1-1.8,3.5-3.4,5.6-4.3c2.6-1.1,5.1-1.4,7.6-0.3c2.6,1.1,4.4,3.2,5,5.8c0.4,1.8,3.1,2.1,4,0.5
						c1.3-2.4,3.5-3.8,6.1-4.5c2.7-0.7,5.5-0.3,8.1,0.9c2.9,1.4,5.3,3.6,7.3,6.1c2,2.6,3.6,5.7,3.5,9c-0.1,1.2-0.6,2.8-1.4,3.8
						c-1,1.3-2.1,1.9-3.6,2.1c-0.9,0.1-1.6,1.2-1.6,2.1c0,1,0.7,1.8,1.6,2.1c0.7,0.3-0.2-0.1,0.2,0.1c0.2,0.1,0.3,0.2,0.5,0.2
						c0.3,0.2,0.6,0.3,0.9,0.5c0.7,0.4,0.9,0.6,1.5,1.2c0.6,0.6,0.8,0.8,1.2,1.4c0.4,0.6,0.8,1.3,1.1,2c0.1,0.3,0.4,1,0.6,1.6
						c0.2,0.8,0.3,1.4,0.3,1.9c0.1,0.7,0,1.4,0,2c-0.1,0.7,0-0.2,0,0.2c0,0.2-0.1,0.4-0.1,0.6c-0.1,0.4-0.2,0.7-0.3,1.1
						c-0.4,1.1-1.2,2.6-2.2,3.7c-1.2,1.2-2.5,2.2-4,3c-3.2,1.8-6.9,2.9-10.5,3.8C459.7,64.3,454.8,64.8,450.1,64
						c-1.2-0.2-2.3,0.3-2.7,1.5c-0.3,1,0.4,2.5,1.5,2.7c5,0.9,10,0.6,15-0.4c4.4-0.9,8.8-2.2,12.8-4.4c3.6-2,6.7-4.9,8.2-8.8
						c1.2-3.2,1.1-7-0.2-10.3c-1.6-4-4.5-7.1-8.5-8.6c0,1.4,0,2.8,0,4.2c3.9-0.5,6.9-4,7.8-7.6c1.2-4.3-0.4-8.8-2.8-12.4
						c-4.4-6.6-11.7-11.8-20-10.5c-4.1,0.6-8,3.1-10,6.7c1.3,0.2,2.7,0.3,4,0.5c-1.5-6.4-8.2-10.5-14.6-9.5c-3.1,0.5-6,2-8.5,3.9
						c-2.7,2.1-4.2,5.2-5.7,8.1c-3.4,6.7-5.8,14.2-4.5,21.8c1.1,6.2,5.1,11.9,9.2,16.4c4.6,5,10.8,9.6,17.6,10.8
						c1.2,0.2,2.3-0.3,2.7-1.5C451.9,65.6,451.3,64.2,450.1,64z"/>
				</g>
			</g>
		</g>
		<g>
			<g>
				<path class="st8" d="M394.4,22c3,8.6-1.7,14.8-7.7,20.4c-6,5.6-11.4,11.1-19.4,14c-8.5,3.1-19.1,2.8-25.6-3.6
					c-2.8-2.8-4.6-6.8-3.9-10.6c0.6-3.9,4.2-7.3,8.1-7.1c-5.5-1.5-7.2-8.6-6.1-14.2c1.2-6,4.6-11.7,9.9-14.7c5.3-3,12.5-2.7,17,1.4
					c4.3-4.6,12.1-4.4,17.3-1C389.2,10.1,392.4,16,394.4,22z"/>
			</g>
			<g>
				<g>
					<path class="st1" d="M392.3,22.5c0.9,2.8,1.1,5.4,0.3,8.1c-0.7,2.4-2.3,4.8-4.1,6.8c-2.1,2.4-4.5,4.4-6.8,6.6
						c-2.3,2.2-4.7,4.3-7.3,6.1c-5,3.5-10.8,5.7-16.8,5.9c-5.5,0.2-11.1-1.3-14.9-5.5c-2.1-2.3-3.5-5.7-2.6-8.8
						c0.4-1.3,1.1-2.5,2.3-3.4c1-0.8,2.2-1.2,3.6-1.2c2.5,0.1,2.9-3.6,0.6-4.3c-0.2-0.1-0.4-0.1-0.5-0.2c-0.4-0.1,0.4,0.2-0.2-0.1
						c-0.3-0.1-0.6-0.3-0.8-0.5c-0.1,0-0.4-0.3-0.2-0.1c-0.1-0.1-0.2-0.2-0.3-0.3c-0.3-0.3-0.6-0.5-0.8-0.9
						c-0.2-0.3,0.3,0.4-0.1-0.2c-0.1-0.1-0.2-0.2-0.2-0.4c-0.2-0.3-0.4-0.6-0.5-1c-0.2-0.4-0.4-1-0.6-1.7c-0.1-0.3-0.2-0.7-0.2-1
						c0-0.2-0.1-0.4-0.1-0.6c-0.1-0.4,0,0.5,0-0.2c-0.1-0.8-0.1-1.6-0.1-2.4c0-1.6,0.3-2.7,0.7-4.3c1.8-6.2,6.5-11.9,13.1-12.8
						c3.4-0.5,7.1,0.3,9.7,2.7c0.9,0.8,2.2,0.9,3.1,0c2.8-2.9,7-3.4,10.8-2.4c4.2,1.2,7.6,4.5,9.9,8.3
						C390.3,17.4,391.4,19.9,392.3,22.5c0.4,1.1,1.5,1.8,2.7,1.5c1.1-0.3,1.9-1.6,1.5-2.7c-1.8-5.3-4.5-10.7-8.7-14.5
						c-4.1-3.7-9.5-5.5-15-4.7c-2.9,0.4-5.6,1.8-7.7,3.9c1,0,2.1,0,3.1,0c-6.5-5.9-16.5-5-22.9,0.6c-5.9,5.1-9.2,13.9-7.5,21.6
						c0.9,4,3.4,7.7,7.5,8.9c0.2-1.4,0.4-2.8,0.6-4.3c-3.6-0.2-6.9,2-8.8,5c-2,3.2-2,7.2-0.7,10.6c2.7,6.8,9.3,10.7,16.3,11.6
						c7,0.9,14.2-0.7,20.3-4.1c3.2-1.8,6.2-4.1,9-6.5c2.7-2.4,5.4-4.8,7.9-7.4c2.7-2.7,5-5.7,6.4-9.2c1.5-3.7,1.4-7.8,0.1-11.6
						c-0.4-1.1-1.5-1.8-2.7-1.5C392.7,20.2,391.9,21.4,392.3,22.5z"/>
				</g>
			</g>
		</g>
		<g>
			<g>
				<circle class="st5" cx="403.1" cy="92.3" r="57.8"/>
			</g>
			<g>
				<g>
					<path class="st1" d="M343.2,92.3c0,12.3,3.8,24.6,11,34.6c7.1,9.9,17,17.5,28.5,21.7c11.7,4.3,24.8,4.7,36.8,1.3
						c11.6-3.3,22.2-10.2,29.9-19.5c7.8-9.6,12.6-21.3,13.6-33.6c1-12.4-2-25-8.5-35.6c-6.2-10.3-15.6-18.6-26.5-23.5
						c-11.5-5.2-24.5-6.6-36.9-4.2c-11.9,2.4-22.9,8.5-31.3,17.3c-8.4,8.8-14.1,20.1-15.9,32.1C343.4,86,343.2,89.1,343.2,92.3
						c0,2.8,4.3,2.8,4.4,0c0-11.6,3.6-22.8,10.4-32.3c1.6-2.2,3.3-4.3,5.3-6.3c1-1,2-2,3.1-3c1-0.8,2.2-1.9,3-2.5
						c4.5-3.4,9.6-6.2,14.7-8.1c11.1-4,23.1-4.5,34.4-1.3c5.5,1.6,10.5,3.8,15.4,7c4.6,3,8.8,6.8,12.4,11.2c1.7,2,3.3,4.3,4.7,6.7
						c0.7,1.2,1.4,2.5,2.1,3.8c0.3,0.6,0.6,1.2,0.9,1.8c0.3,0.7,0.6,1.3,0.8,1.8c2.2,5.4,3.6,11.1,4,16.7
						c0.9,11.7-1.8,23.2-7.8,33.2c-5.8,9.6-14.4,17.3-24.8,22c-10.4,4.7-22.7,6.1-34,3.8c-11.1-2.3-21.2-7.9-29-16
						c-3.9-4.1-7.1-8.5-9.7-13.7c-2.5-5-4.3-10.6-5.2-16.3c-0.1-0.8-0.2-1-0.2-1.8c-0.1-0.7-0.1-1.4-0.2-2.1c-0.1-1.5-0.2-3-0.2-4.6
						C347.5,89.5,343.1,89.5,343.2,92.3z"/>
				</g>
			</g>
		</g>
		<g>
			<circle class="st6" cx="424.9" cy="123.6" r="12.1"/>
		</g>
		<g>
			<circle class="st6" cx="369.5" cy="122.4" r="10.6"/>
		</g>
		<g>
			<circle class="st1" cx="414.2" cy="112.7" r="4.5"/>
		</g>
		<g>
			<circle class="st1" cx="374.6" cy="112.3" r="4.5"/>
		</g>
		<g>
			<g>
				<path class="st1" d="M397.3,108.9c-2.7-2.5-7-1.7-9.1,1.2c-2.2,3-1.2,7.2,1.1,9.8c1.3,1.5,3,2.5,4.8,3.2
					c1.1,0.4,2.4-0.5,2.7-1.5c0.3-1.3-0.4-2.2-1.5-2.7c0.5,0.2-0.1-0.1-0.2-0.1c-0.1-0.1-0.3-0.1-0.4-0.2c-0.3-0.2-0.7-0.4-1-0.6
					c-0.1-0.1-0.2-0.1-0.3-0.2c-0.2-0.1-0.2-0.1,0.1,0c-0.1-0.1-0.3-0.2-0.4-0.3c-0.3-0.3-0.5-0.5-0.8-0.8c-0.3-0.4,0.2,0.3-0.1-0.1
					c-0.1-0.2-0.2-0.4-0.3-0.5c-0.1-0.1-0.1-0.3-0.2-0.4c-0.1-0.2-0.1-0.2,0,0.1c0-0.1-0.1-0.2-0.1-0.3c0-0.2-0.1-0.3-0.1-0.5
					c0-0.1-0.1-0.7-0.1-0.3c0,0.4,0-0.3,0-0.3c0-0.2,0-0.4,0-0.6c0-0.6-0.1,0.3,0-0.1c0-0.1,0.1-0.3,0.1-0.5c0-0.1,0.1-0.2,0.1-0.3
					c-0.1,0.3-0.1,0.3,0,0.1c0.1-0.1,0.2-0.3,0.2-0.4c0.1-0.2,0.1-0.2-0.1,0.1c0.1-0.1,0.1-0.1,0.2-0.2c0,0,0.3-0.3,0.3-0.3
					c-0.3,0.2-0.3,0.2-0.1,0.1c0.1,0,0.1-0.1,0.2-0.1c0,0,0.4-0.2,0.4-0.2c-0.3,0.1-0.4,0.1-0.1,0.1c0,0,0.1,0,0.1,0
					c0.2-0.1,0.4-0.1,0.5-0.1c0.4-0.1-0.5,0,0,0c0.2,0,0.4,0,0.5,0c0.4,0-0.5-0.1,0,0c0.1,0,0.4,0.2,0.5,0.2c-0.2,0-0.4-0.2,0,0
					c0.1,0,0.2,0.1,0.2,0.1c-0.3-0.2-0.3-0.2-0.1-0.1c0.8,0.8,2.3,0.9,3.1,0C398.1,111.1,398.2,109.7,397.3,108.9L397.3,108.9z"/>
			</g>
		</g>
		<g>
			<g>
				<path class="st1" d="M384.4,127.8c8.1,3.7,17.5,4.3,25.9,1.2c1.1-0.4,1.8-1.5,1.5-2.7c-0.3-1.1-1.6-1.9-2.7-1.5
					c-7.3,2.7-15.5,2.5-22.6-0.7c-1.1-0.5-2.3-0.3-3,0.8C383.1,125.7,383.4,127.3,384.4,127.8L384.4,127.8z"/>
			</g>
		</g>
		<g>
			<g>
				<path class="st5" d="M452.9,116.3c2,0.8,4.2,1.3,6.4,1.3c9.1,0,16.5-7.4,16.5-16.5s-7.4-16.5-16.5-16.5c-3.4,0-6.6,1-9.2,2.8"/>
			</g>
			<g>
				<g>
					<path class="st1" d="M452.4,118.4c5,2.1,10.7,1.7,15.5-0.6c4.2-2.1,7.5-5.9,9.1-10.3c1.7-4.6,1.4-9.8-0.6-14.2
						c-1.9-4.3-5.6-7.7-9.9-9.5c-5.7-2.4-12.3-1.7-17.4,1.7c-1,0.6-1.4,1.9-0.8,3c0.6,1,2,1.4,3,0.8c3.8-2.5,8.4-3.1,12.6-1.8
						c1.5,0.5,3.4,1.5,4.6,2.5c1.6,1.3,2.6,2.6,3.6,4.3c3.7,6.6,1.3,15.2-5.1,19.1c-0.9,0.5-1.7,0.9-2.5,1.2c-0.9,0.3-2.3,0.7-3,0.8
						c-2.7,0.4-5.4-0.1-7.9-1.1c-1.1-0.4-2.4,0.5-2.7,1.5C450.5,116.9,451.3,117.9,452.4,118.4L452.4,118.4z"/>
				</g>
			</g>
		</g>
		<g>
			<g>
				<path class="st8" d="M335.4,89.9c1.1,4.7,3.9,7.9,9.9,7.5c4.7-0.4,8.9-3.6,11.6-7.5c2.7-3.9,4.1-8.5,5.5-13.1
					c2.3,5.6,9,8.8,15,7.9s11.1-5.3,13.9-10.7c3.1,5.7,10,8.8,16.5,8.1s12.3-4.7,15.9-10.1c2.3,3.7,4.7,7.5,7.2,11.1
					c4.1,5.7,9,11.1,15.5,13.7c19.2,7.6,25.7-15.8,22.9-30.2c-2.5-13-8.7-25.4-18.3-34.5c-15.3-14.3-38.7-16.9-58.6-15.1
					c-8.2,0.7-14.6,4-21.7,7.9c-14.2,7.7-25.1,21-30.7,36C337.7,66.4,333.4,80.9,335.4,89.9z"/>
			</g>
			<g>
				<g>
					<path class="st1" d="M333.3,90.4c0.6,2.4,1.7,4.9,3.6,6.6c2.2,1.9,5,2.6,7.8,2.5c6.9-0.3,12.3-5.3,15.5-11.1
						c1.9-3.5,3.1-7.4,4.3-11.2c-1.3,0.2-2.7,0.3-4,0.5c2,4.7,6.8,8,11.7,8.8c5.6,1,11-0.9,15.2-4.5c2.3-2,4.2-4.5,5.6-7.2
						c-1.3,0-2.5,0-3.8,0c2.7,4.7,7.7,8,13,8.9c5.7,1,11.5-0.5,16.2-3.8c2.8-1.9,5.1-4.3,7-7.1c-1.3,0-2.5,0-3.8,0
						c3.2,5.2,6.4,10.4,10.3,15.1c3.4,4.1,7.4,7.9,12.4,10.1c3.8,1.7,8,2.6,12.2,1.8c3.3-0.7,6.3-2.6,8.5-5.1
						c4.8-5.5,6.7-13.1,6.9-20.2c0.1-3.9-0.4-7.7-1.2-11.5c-1.3-5.3-3.1-10.5-5.6-15.4c-4.8-9.5-11.9-18-21-23.5
						c-8.7-5.4-18.8-8.1-28.9-9.3c-5-0.6-10.1-0.8-15.2-0.7c-5.3,0.1-10.7,0.4-15.8,1.9c-5.5,1.6-10.6,4.3-15.5,7.1
						c-4.5,2.5-8.7,5.7-12.5,9.2c-7.6,7.1-13.6,15.9-17.5,25.5c-1.5,3.7-2.7,7.5-3.7,11.3c-1.2,4.7-2.1,9.6-2.2,14.5
						C332.6,86,332.8,88.3,333.3,90.4c0.2,1.1,1.6,1.8,2.7,1.5c1.2-0.3,1.8-1.5,1.5-2.7c-0.2-1.1-0.3-1.5-0.4-2.6
						c-0.1-1.1-0.1-2.2,0-3.2c0.1-2.3,0.3-4.4,0.7-6.7c0.7-4.2,1.8-8.3,3.1-12.4c2.8-8.5,7.2-16.5,13-23.3c3.1-3.7,6.7-7,10.5-9.9
						c4.1-3,8.6-5.5,13.2-7.8c4.7-2.3,9.6-4,14.9-4.5c4.7-0.4,9.4-0.5,14.1-0.4c9.5,0.3,19.1,1.8,27.9,5.5c8.8,3.7,16.4,9.8,22,17.6
						c2.9,4.2,5.4,8.7,7.2,13.4c0.9,2.4,1.7,4.9,2.4,7.3c0.3,1.2,0.6,2.5,0.9,3.8c0.1,0.5,0.2,0.9,0.3,1.4c0,0.2,0.1,0.4,0.1,0.5
						c0,0.1,0,0.2,0,0.3c0,0.3,0-0.4,0,0.1c0.2,1.6,0.3,3.3,0.3,4.9c0,0.8,0,1.7-0.1,2.5c0,0.4-0.1,0.8-0.1,1.3c0,0.2,0,0.4-0.1,0.6
						c0,0.1-0.1,0.7,0,0.3c-0.2,1.7-0.6,3.4-1,5c-0.2,0.8-0.5,1.7-0.8,2.5c-0.1,0.2-0.1,0.4-0.2,0.5c0,0.1-0.2,0.6-0.1,0.4
						c0.1-0.2-0.1,0.3-0.2,0.3c-0.1,0.2-0.2,0.5-0.3,0.7c-0.3,0.7-0.7,1.4-1.1,2.1c-0.2,0.3-0.4,0.6-0.6,0.9
						c-0.1,0.2-0.2,0.3-0.4,0.5c-0.1,0.1-0.1,0.1-0.2,0.2c-0.2,0.3,0.2-0.3,0,0c-0.5,0.6-1,1.1-1.5,1.6c-0.3,0.3-0.5,0.5-0.8,0.7
						c-0.3,0.3,0.2-0.2-0.1,0.1c-0.2,0.1-0.3,0.2-0.5,0.3c-0.6,0.4-1.2,0.8-1.9,1.1c-0.5,0.2,0.2,0-0.2,0.1
						c-0.2,0.1-0.3,0.1-0.5,0.2c-0.4,0.1-0.7,0.2-1.1,0.3c-0.4,0.1-0.7,0.2-1.1,0.2c0.4-0.1,0.1,0-0.1,0c-0.2,0-0.5,0-0.7,0.1
						c-0.8,0-1.7,0-2.5-0.1c0.4,0-0.1,0-0.2,0c-0.2,0-0.4-0.1-0.6-0.1c-0.5-0.1-1-0.2-1.5-0.4c-0.9-0.3-1.9-0.6-2.8-1
						c-2.2-1-4.2-2.3-6.1-3.9c-4-3.4-7.1-7.7-10-12.1c-1.6-2.5-3.2-5-4.8-7.5c-0.9-1.5-2.8-1.3-3.8,0c-2.6,3.8-6.5,7-11,8.3
						c-4.3,1.3-8.8,0.9-12.6-1.3c-2.1-1.2-3.9-2.9-5.1-5c-0.8-1.4-3-1.5-3.8,0c-2,3.8-5.2,7.3-9.2,8.8c-3.9,1.5-8.1,1.2-11.7-1
						c-1.9-1.2-3.3-2.8-4.2-5c-0.3-0.8-1.4-1.2-2.2-1c-0.9,0.1-1.5,0.7-1.8,1.6c-1.7,5.5-3.5,11.3-7.7,15.3c-1.8,1.8-4,3-6.5,3.5
						c-0.9,0.2-2.5,0.2-3.2,0.1c-0.5-0.1-1-0.2-1.5-0.4c-0.1,0-0.2-0.1-0.3-0.1c0.3,0.1,0,0,0,0c-0.2-0.1-0.5-0.3-0.7-0.4
						c-0.1-0.1-0.2-0.1-0.3-0.2c0.2,0.1,0.1,0.1,0,0c-0.2-0.2-0.4-0.4-0.6-0.5c-0.1-0.1-0.5-0.6-0.3-0.3c-0.2-0.2-0.3-0.4-0.4-0.7
						c-0.2-0.3-0.3-0.5-0.4-0.8c0-0.1-0.1-0.2-0.1-0.3c0.1,0.3,0-0.1-0.1-0.2c-0.2-0.6-0.4-1.2-0.5-1.8c-0.3-1.1-1.6-1.8-2.7-1.5
						C333.6,88.1,333,89.3,333.3,90.4z"/>
				</g>
			</g>
		</g>
		<g>
			<path class="st9" d="M435.4,285.8h-97.1c-2.9,0-5.6-1.8-6.5-4.5l-21.5-62.9c-1.4-4.2,1.8-8.6,6.5-8.6h97.1c2.9,0,5.6,1.8,6.5,4.5
				l21.5,62.9C443.3,281.4,440,285.8,435.4,285.8z"/>
			<path class="st1" d="M435.4,287.9h-97.1c-3.9,0-7.3-2.4-8.5-6L308.3,219c-0.9-2.6-0.5-5.5,1.1-7.7c1.7-2.3,4.4-3.8,7.4-3.8h97.1
				c3.9,0,7.3,2.4,8.5,6l21.5,62.9c0.9,2.6,0.5,5.5-1.2,7.7C441.1,286.5,438.3,287.9,435.4,287.9z M316.8,211.9
				c-1.6,0-3,0.7-3.8,1.9c-0.8,1.1-1,2.5-0.6,3.8l21.5,62.9c0.6,1.8,2.4,3,4.4,3h97.1c1.6,0,3-0.7,3.8-1.9c0.8-1.1,1-2.5,0.6-3.8
				l-21.5-62.9c-0.6-1.8-2.4-3-4.4-3H316.8z"/>
		</g>
		<g>
			<g>
				<path class="st0" d="M383.2,299c-9.7,2.1-19.4,4.2-29.1,6.3c-3.6,0.8-7.3,1.6-10.7,3.1c-4.8,2.2-8.8,6-11.2,10.5
					c-1.2,2.3-2.1,4.8-1.7,7.3c0.5,3.4,3.3,6.3,6.5,7.8c3.2,1.5,6.9,2,10.5,2.2c17.3,1.1,36-2.8,48-14.9"/>
			</g>
			<g>
				<g>
					<path class="st1" d="M382.6,296.9c-10.6,2.3-21.2,4.4-31.7,6.9c-4.7,1.1-9.4,2.6-13.3,5.6c-3.7,2.8-6.7,6.5-8.5,10.9
						c-0.9,2.3-1.3,4.9-0.6,7.4c0.6,2.2,1.9,4.1,3.5,5.7c3.7,3.5,8.7,4.6,13.6,5c8.7,0.8,17.7,0.2,26.2-1.9
						c9.3-2.3,18.3-6.7,25.1-13.5c2-2-1.1-5.1-3.1-3.1c-11.2,11.3-28,14.8-43.5,14.4c-4.2-0.1-8.8-0.2-12.6-2.1
						c-3.2-1.6-5.9-4.6-5.2-8.4c0.8-3.9,3.5-7.5,6.5-10c3.2-2.8,7.2-4.3,11.3-5.3c5.4-1.4,11-2.4,16.5-3.6
						c5.6-1.2,11.2-2.4,16.9-3.6c1.1-0.2,1.8-1.6,1.5-2.7C385,297.2,383.8,296.7,382.6,296.9L382.6,296.9z"/>
				</g>
			</g>
		</g>
		<g>
			<g>
				<path class="st4" d="M373.2,299.4c-10.7,15.6-0.4,31.8,17.3,34.8c9.6,1.6,19.4-0.1,28.9-1.9c9.9-1.8,19.8-3.6,29.7-5.4
					c10.1-1.9,20.5-3.8,29.4-8.8c13-7.3,24.5-26.3,17.8-40.7c-3.8-8.2-12.9-13.4-22.1-14.8c-9.2-1.4-18.7,0.2-27.8,2.5
					c-21.2,5.2-41.6,13.3-60.5,24C381.2,291.8,376.3,294.9,373.2,299.4z"/>
			</g>
			<g>
				<g>
					<path class="st1" d="M371.3,298.3c-2.7,3.9-4.4,8.5-4.6,13.3c-0.2,4.2,1,8.5,3.2,12c5.2,8.4,14.8,12.3,24.2,13.1
						c6.4,0.5,12.9-0.2,19.3-1.3c6.3-1,12.7-2.3,19-3.4c6.4-1.2,12.7-2.3,19.1-3.5c5.8-1.1,11.5-2.2,17.1-4c5.1-1.6,10.2-3.8,14.6-7
						c3.9-2.9,7.2-6.4,10-10.3c5.4-7.6,8.9-17.6,6.5-26.9c-2.5-10-11.6-16.6-21.2-19.1c-12-3.2-24.8-0.4-36.5,2.7
						c-11.7,3.1-23.1,7.1-34.2,11.8c-5.5,2.4-10.9,5-16.3,7.8c-5.1,2.7-10.3,5.4-14.8,8.9C374.7,294.1,372.9,296.1,371.3,298.3
						c-0.7,1-0.2,2.4,0.8,3c1.1,0.6,2.3,0.2,3-0.8c2.9-4.1,7.3-6.8,11.5-9.3c5-2.8,10-5.5,15.2-7.9c10.3-4.9,21-9.1,31.9-12.4
						c5.5-1.7,11.2-3.2,16.8-4.5c5.8-1.3,11.7-2.2,17.6-2.1c9.2,0.2,19.4,3.5,24.8,11.3c1.3,1.9,2.1,3.6,2.6,5.7
						c0.6,2.1,0.7,3.7,0.7,5.9c-0.1,4.1-1.4,8.4-3.2,12.2c-4,8.1-10.4,14.6-18.5,18.4c-4.9,2.3-10.3,3.8-15.6,5
						c-5.7,1.3-11.5,2.2-17.2,3.3c-6.1,1.1-12.3,2.2-18.4,3.4c-6,1.1-11.9,2.3-18,2.9c-5.6,0.6-11.5,0.6-17-0.8
						c-2.1-0.6-4-1.2-5.9-2.2c-1.8-0.9-3.5-2-4.9-3.2c-1.5-1.3-2.7-2.7-3.6-4.1c-0.5-0.8-1-1.6-1.4-2.5c-0.3-0.6-0.6-1.4-0.9-2.3
						c-0.1-0.5-0.2-0.9-0.3-1.4c0-0.2-0.1-0.4-0.1-0.6c0-0.1-0.1-0.7-0.1-0.6c0,0.1,0-0.4,0-0.5c0-0.3,0-0.5-0.1-0.8
						c0-0.5,0-1,0-1.5c0-0.5,0-1,0.1-1.5c0-0.1,0.1-0.6,0-0.3c0-0.3,0.1-0.5,0.1-0.8c0.2-1,0.5-2,0.8-3c0.7-2,1.7-3.9,3-5.7
						c0.7-1,0.2-2.4-0.8-3C373.2,296.9,372,297.3,371.3,298.3z"/>
				</g>
			</g>
		</g>
		<g>
			<g>
				<path class="st0" d="M426.5,235.7c5.3-4.3,12.4-6.2,16.3-12c8.4-12.5,7-25.9,7.3-40.1c0.2-9.5,0.4-19.1,0.6-28.6
					c0-1.2,0.4-2.8,1.6-2.7c0.5,0,0.9,0.4,1.3,0.7c7.8,6.8,13.9,14.3,20.1,22.6c7.5,9.9,14.5,20.4,18.9,32.1
					c5.3,13.8,7.1,31.4-0.4,44.8c-6.6,11.9-26.8,14.2-39.1,14.5c-8.4,0.2-17.6-1-23.5-6.8c-4.7-4.6-10.1-17.7-4.6-23.1
					C425.5,236.6,426,236.1,426.5,235.7z"/>
			</g>
			<g>
				<g>
					<path class="st1" d="M428.1,237.2c3.5-2.8,7.9-4.6,11.6-7.3c2.1-1.5,3.8-3.3,5.2-5.4c1.5-2.3,2.8-4.9,3.8-7.5
						c3.9-9.8,3.5-20.6,3.6-31c0.1-6.1,0.2-12.3,0.4-18.4c0.1-3.1,0.1-6.3,0.2-9.4c0-0.8,0-1.6,0-2.4c0-0.3,0-0.7,0-1
						c0-0.1,0-0.2,0-0.3c0,0.2,0,0,0-0.1c0-0.1,0.1-0.2,0.1-0.3c0-0.1,0-0.1,0-0.1c-0.1,0,0.2,0,0,0.1c-0.1,0-0.2,0.1-0.2,0.1
						c-0.1,0.1-0.3,0.2-0.5,0.1c-0.3,0.2-0.3-0.1-0.1,0.2c0.1,0.3,0.6,0.5,0.9,0.8c8.2,7.4,15,16.1,21.5,25
						c6.5,9,12.7,18.6,16.4,29.1c3.3,9.3,5.1,19.6,3.5,29.5c-0.7,4.7-2.2,9.5-4.8,13.5c-0.6,0.9-0.7,1.1-1.4,1.9
						c-0.6,0.7-1.3,1.3-2,1.9c-0.2,0.1-0.3,0.3-0.5,0.4c-0.2,0.2,0,0,0,0c-0.1,0.1-0.2,0.1-0.3,0.2c-0.4,0.3-0.8,0.6-1.3,0.9
						c-0.8,0.5-1.6,1-2.5,1.4c-6.8,3.5-15.2,4.9-22.8,5.5c-8.6,0.6-18.2,0.9-25.6-4.1c-0.9-0.6-1.6-1.2-2.4-2
						c-0.3-0.3-0.5-0.5-0.7-0.8c-0.1-0.2-0.3-0.3-0.4-0.5c0.2,0.3-0.1-0.2-0.2-0.3c-1.1-1.6-2.1-3.3-2.8-5.1c-0.2-0.5-0.7-1.8-1-2.6
						c-0.3-1-0.6-2-0.7-3c-0.1-0.7-0.2-1.6-0.2-2.6c0-0.5,0-0.9,0.1-1.4c0-0.4,0,0.2,0-0.2c0-0.2,0.1-0.5,0.1-0.7
						c0.1-0.4,0.2-0.8,0.4-1.2c-0.1,0.3,0-0.1,0.1-0.2c0.1-0.2,0.2-0.3,0.3-0.5c0.1-0.2,0.2-0.3,0.3-0.5c-0.2,0.3,0.1-0.1,0.2-0.2
						C427,238.2,427.5,237.7,428.1,237.2c0.9-0.8,0.8-2.3,0-3.1c-0.9-0.9-2.2-0.8-3.1,0c-1.8,1.5-3.2,3.2-3.9,5.5
						c-0.6,2-0.6,4.2-0.4,6.2c0.6,4.4,2.2,8.7,4.7,12.5c5.7,8.7,16.4,10.9,26.2,10.9c8.3,0,17-0.9,25-3.3c4-1.2,8-2.9,11.4-5.5
						c1.7-1.2,3.2-2.6,4.4-4.2c1.5-2,2.6-4.2,3.6-6.5c4.2-10,4.1-21.4,1.9-31.9c-2.4-11.2-7.6-21.6-13.8-31.2
						c-3.2-5-6.7-9.7-10.3-14.4c-3.5-4.6-7.1-9.1-11.1-13.4c-2-2.1-4.1-4.2-6.2-6.2c-1.2-1.1-2.4-2.5-4.2-2.5c-1.5,0-2.7,1-3.3,2.3
						c-0.5,1.3-0.5,2.6-0.5,4c0,1.7-0.1,3.4-0.1,5.1c-0.1,3.3-0.1,6.5-0.2,9.8c-0.1,6.2-0.3,12.4-0.3,18.6c0,5.3,0,10.6-0.8,15.8
						c-0.8,5.4-2.4,10.5-5.2,15.2c-1.2,2-2.7,3.8-4.5,5.2c-2,1.5-4.1,2.7-6.3,3.9c-2.2,1.2-4.2,2.5-6.2,4.1c-0.9,0.7-0.8,2.3,0,3.1
						C425.9,238.1,427.2,238,428.1,237.2z"/>
				</g>
			</g>
		</g>
		<g>
			<g>
				<path class="st5" d="M436.6,264.4c3.8-0.6,7-2.5,8.7-7.3c1.3-3.6,1-7.5-0.4-11.1c-0.8-2.2-2-4.2-3.1-6.2c-1.5-2.6-3-5.2-4.5-7.8
					c-0.8-1.3-1.5-2.7-2.7-3.7c-1.2-1-2.8-1.7-4.3-1.3c-2.6,0.6-3.6,3.7-4.1,6.2c-4.9-0.5-10.1,1.5-13.1,5.3
					c-0.6,0.8-1.2,1.8-1.1,2.9c0.1,1.3,1.3,2.3,2.6,2.8s2.7,0.4,4,0.3c-1.2,0.9-2.5,1.8-3.2,3.1c-0.7,1.3-0.9,3,0.1,4.1
					c0.9,1,2.5,1.2,3.9,1.4c-0.9,0.4-1.9,0.9-2.6,1.6c-0.7,0.7-1.1,1.9-0.6,2.8c0.8,1.5,3,1.3,4.6,1c-1.2,0.9-0.8,2.9,0.3,3.9
					c1.1,1,2.7,1.3,4.3,1.5C429.2,264.4,433.2,264.9,436.6,264.4z"/>
			</g>
			<g>
				<g>
					<path class="st1" d="M437.2,266.5c3.5-0.6,6.6-2.4,8.6-5.4c2.5-3.7,3-8.5,2.1-12.8c-1-4.7-3.8-8.9-6.1-13c-1.1-2-2.2-4-3.5-6
						c-1.3-2-3-3.7-5.4-4.4c-2.3-0.6-4.8,0.1-6.3,2c-1.4,1.6-2,3.7-2.4,5.7c0.7-0.5,1.4-1.1,2.1-1.6c-5-0.4-10.4,1.4-13.9,5.1
						c-1.9,2.1-3.4,5-1.6,7.6c1.8,2.6,5,2.9,7.9,2.8c-0.4-1.4-0.7-2.7-1.1-4.1c-2.5,1.8-5.1,4.1-4.9,7.4c0.1,1.6,0.9,3.1,2.3,4
						c1.3,0.8,2.9,1,4.4,1.2c-0.4-1.4-0.7-2.7-1.1-4.1c-1.4,0.6-2.7,1.3-3.6,2.6c-0.9,1.3-1.2,3.1-0.5,4.6c1.4,2.7,4.6,2.6,7.1,2.1
						c-0.7-1.2-1.4-2.4-2.1-3.6c-1.6,1.4-1.7,3.8-0.7,5.6c1,1.8,3,2.8,5,3.2C428,266.5,432.7,267.1,437.2,266.5
						c1.2-0.2,1.8-1.6,1.5-2.7c-0.3-1.2-1.5-1.7-2.7-1.5c-3.1,0.4-6.4-0.1-9.5-0.5c-1.2-0.2-2.8-0.3-3.8-1c-0.2-0.2-0.3-0.4-0.4-0.6
						c-0.1-0.3-0.1-0.3,0-0.1c0-0.3,0-0.3,0-0.1c0.1-0.2,0.1-0.3,0-0.1c-0.1,0.2-0.1,0.1,0.1,0c0.7-0.6,0.8-1.8,0.3-2.6
						c-0.5-0.9-1.5-1.2-2.5-1c-0.7,0.1-0.9,0.2-1.6,0.1c-0.1,0-0.4,0-0.1,0c-0.1,0-0.3-0.1-0.4-0.1c0.3,0.1-0.1,0-0.1,0
						c0.1-0.1,0.3,0.4,0.1,0.1c-0.1-0.1-0.1-0.1,0,0.1c0,0.2,0.1,0.2,0,0c-0.3,0.2,0.1-0.2,0-0.1c0.1-0.2,0.2-0.4,0.4-0.5
						c0.5-0.4,1.2-0.7,1.9-1c0.9-0.4,1.2-1.6,1-2.5c-0.3-1-1.1-1.5-2.1-1.6c-0.6-0.1-1.4-0.2-1.9-0.4c-0.5-0.2-0.6-0.5-0.5-0.9
						c0-0.4,0.3-0.9,0.7-1.4c0.6-0.7,1.3-1.2,2.1-1.8c0.8-0.6,1.3-1.5,1-2.5c-0.2-0.9-1.1-1.6-2.1-1.6c-0.9,0-1.9,0.1-2.8-0.1
						c-0.5-0.1-0.7-0.1-1.1-0.4c-0.1-0.1-0.4-0.4-0.4-0.5c-0.1-0.1-0.1-0.2,0-0.3c0.1-0.4,0.3-0.7,0.5-1c0.5-0.7,1.1-1.3,1.8-1.8
						c2.7-2.2,6.3-3,9.7-2.7c0.9,0.1,1.9-0.7,2.1-1.6c0.1-0.7,0.3-1.4,0.5-2.1c0.2-0.7,0.3-1,0.7-1.6c0,0,0.2-0.3,0.1-0.1
						c0.1-0.1,0.2-0.2,0.3-0.3c0.1-0.1,0.2-0.2,0.3-0.3c-0.2,0.2,0.1,0,0.1,0c0.2-0.1,0.1-0.1,0.5-0.2c0.3-0.1,0.7,0,1,0.1
						c1.5,0.4,2.4,1.9,3.1,3.1c1.1,1.8,2.1,3.6,3.1,5.3c1.9,3.4,4.2,6.7,5.3,10.5c0.9,3.3,0.8,6.9-0.8,9.9c-0.7,1.3-1.6,2.3-2.7,2.9
						c-0.3,0.2-0.6,0.4-1,0.5c0,0-0.4,0.2-0.1,0c-0.2,0.1-0.3,0.1-0.5,0.2c-0.7,0.3-1.5,0.4-2.3,0.5c-1.2,0.2-1.8,1.6-1.5,2.7
						C434.8,266.2,436,266.7,437.2,266.5z"/>
				</g>
			</g>
		</g>
		<g>
			<g>
				<path class="st0" d="M390.1,285.8H286.8c-2.6,0-4.5-2.5-3.7-4.9l23.4-68.6c0.5-1.5,2-2.6,3.7-2.6h103.3c2.6,0,4.5,2.5,3.7,4.9
					l-23.4,68.6C393.3,284.7,391.8,285.8,390.1,285.8z"/>
				<path class="st1" d="M390.1,287.9H286.8c-2,0-3.8-0.9-5-2.5c-1.1-1.5-1.4-3.5-0.8-5.3l23.4-68.6c0.8-2.4,3.1-4,5.7-4h103.3
					c2,0,3.8,0.9,5,2.5c1.1,1.5,1.4,3.5,0.8,5.3l-23.4,68.6C395,286.3,392.7,287.9,390.1,287.9z M310.2,211.9
					c-0.8,0-1.4,0.4-1.6,1.1l-23.4,68.6c-0.2,0.6,0,1.1,0.2,1.3c0.3,0.5,0.8,0.7,1.4,0.7h103.3c0.8,0,1.4-0.4,1.6-1.1l23.4-68.6
					c0.2-0.6,0-1.1-0.2-1.3c-0.3-0.5-0.8-0.7-1.4-0.7H310.2z"/>
			</g>
			<g>
				<path class="st1" d="M313.1,216c-0.2,0-0.4,0-0.6-0.1c-1.2-0.3-1.8-1.6-1.5-2.7l2.3-7.7c0.3-1.2,1.6-1.8,2.7-1.5
					c1.2,0.3,1.8,1.6,1.5,2.7l-2.3,7.7C314.9,215.4,314,216,313.1,216z"/>
			</g>
			<g>
				<path class="st1" d="M322.4,216c-0.2,0-0.4,0-0.6-0.1c-1.2-0.3-1.8-1.6-1.5-2.7l2.3-7.7c0.3-1.2,1.6-1.8,2.7-1.5
					c1.2,0.3,1.8,1.6,1.5,2.7l-2.3,7.7C324.2,215.4,323.3,216,322.4,216z"/>
			</g>
			<g>
				<path class="st1" d="M331.7,216c-0.2,0-0.4,0-0.6-0.1c-1.2-0.3-1.8-1.6-1.5-2.7l2.3-7.7c0.3-1.2,1.6-1.8,2.7-1.5
					c1.2,0.3,1.8,1.6,1.5,2.7l-2.3,7.7C333.5,215.4,332.6,216,331.7,216z"/>
			</g>
			<g>
				<path class="st1" d="M340.9,216c-0.2,0-0.4,0-0.6-0.1c-1.2-0.3-1.8-1.6-1.5-2.7l2.3-7.7c0.3-1.2,1.6-1.8,2.7-1.5
					c1.2,0.3,1.8,1.6,1.5,2.7l-2.3,7.7C342.7,215.4,341.9,216,340.9,216z"/>
			</g>
			<g>
				<path class="st1" d="M350.2,216c-0.2,0-0.4,0-0.6-0.1c-1.2-0.3-1.8-1.6-1.5-2.7l2.3-7.7c0.3-1.2,1.6-1.8,2.7-1.5
					c1.2,0.3,1.8,1.6,1.5,2.7l-2.3,7.7C352,215.4,351.2,216,350.2,216z"/>
			</g>
			<g>
				<path class="st1" d="M359.5,216c-0.2,0-0.4,0-0.6-0.1c-1.2-0.3-1.8-1.6-1.5-2.7l2.3-7.7c0.3-1.2,1.6-1.8,2.7-1.5
					c1.2,0.3,1.8,1.6,1.5,2.7l-2.3,7.7C361.3,215.4,360.5,216,359.5,216z"/>
			</g>
			<g>
				<path class="st1" d="M368.8,216c-0.2,0-0.4,0-0.6-0.1c-1.2-0.3-1.8-1.6-1.5-2.7l2.3-7.7c0.3-1.2,1.5-1.8,2.7-1.5
					c1.2,0.3,1.8,1.6,1.5,2.7l-2.3,7.7C370.6,215.4,369.7,216,368.8,216z"/>
			</g>
			<g>
				<path class="st1" d="M378.1,216c-0.2,0-0.4,0-0.6-0.1c-1.2-0.3-1.8-1.6-1.5-2.7l2.3-7.7c0.3-1.2,1.6-1.8,2.7-1.5
					c1.2,0.3,1.8,1.6,1.5,2.7l-2.3,7.7C379.9,215.4,379,216,378.1,216z"/>
			</g>
			<g>
				<path class="st1" d="M387.4,216c-0.2,0-0.4,0-0.6-0.1c-1.2-0.3-1.8-1.6-1.5-2.7l2.3-7.7c0.3-1.2,1.6-1.8,2.7-1.5
					c1.2,0.3,1.8,1.6,1.5,2.7l-2.3,7.7C389.2,215.4,388.3,216,387.4,216z"/>
			</g>
			<g>
				<path class="st1" d="M396.7,216c-0.2,0-0.4,0-0.6-0.1c-1.2-0.3-1.8-1.6-1.5-2.7l2.3-7.7c0.3-1.2,1.5-1.8,2.7-1.5
					c1.2,0.3,1.8,1.6,1.5,2.7l-2.3,7.7C398.5,215.4,397.6,216,396.7,216z"/>
			</g>
			<g>
				<path class="st1" d="M406,216c-0.2,0-0.4,0-0.6-0.1c-1.2-0.3-1.8-1.6-1.5-2.7l2.3-7.7c0.3-1.2,1.6-1.8,2.7-1.5
					c1.2,0.3,1.8,1.6,1.5,2.7l-2.3,7.7C407.8,215.4,406.9,216,406,216z"/>
			</g>
		</g>
		<g>
			<g>
				<path class="st1" d="M358.3,318.6c-2.2-1-3.8-2.8-4.4-5.1c-0.2-0.9-0.5-2.3,0.2-3.1c-0.2,0.3,0.5-0.3,0.2-0.2
					c0.2-0.2,0.4-0.2,0.4-0.2c0.6-0.3,0.7-0.2,1.4-0.2c0.2,0,0.7,0.2,1,0.3c0.4,0.2,0.7,0.5,0.9,0.9c0.7,1,0.8,1.9,0.8,3.1
					c0,0.4,0,0.1,0,0c0,0.1-0.1,0.3-0.1,0.4c-0.1,0.2-0.2,0.5-0.2,0.7c-0.1,0.2,0,0.1,0,0c-0.1,0.1-0.1,0.3-0.2,0.4
					c-0.1,0.3-0.3,0.6-0.4,0.9c-0.5,1.1-1.1,2.2-1.3,3.4c-0.2,1.4,0.1,2.8,1.2,3.8c0.9,0.9,2.1,1.3,3.3,1.7c0.4,0.2,0.2,0.1,0.1,0
					c0.1,0.1,0.3,0.1,0.4,0.2c0.1,0.1,0.6,0.3,0.5,0.2c-0.2-0.1,0.4,0.4,0.1,0.1c0.1,0.1,0.4,0.7,0.3,0.6c0.2,0.6,0.3,0.9,0.3,1.5
					c0,0.1,0,0.2,0,0.4c0-0.3,0,0.1,0,0.1c0,0.2-0.1,0.3-0.1,0.5c0,0.1-0.2,0.3-0.1,0.1c-0.4,0.7-1.4,1.2-2.3,1.3
					c-1,0.1-1.9,0-2.4-0.8c-0.2-0.4-0.3-0.8-0.3-1.4c0-0.3,0-0.6,0-1c0-0.2,0-0.4,0-0.5c0,0.2-0.1,0.4,0,0.1
					c0.3-1.1,0.7-2.2,0.9-3.3c1-6-7-5.3-10.7-6.8c-1.1-0.5-2.4,0.5-2.7,1.5c-0.3,1.3,0.4,2.2,1.5,2.7c2.1,0.9,4.4,0.9,6.6,1.6
					c0.2,0.1,0.5,0.1,0.7,0.2c0.1,0,0.2,0.1,0.3,0.1c-0.1,0-0.4-0.2-0.1,0c0.2,0.1,0.3,0.2,0.5,0.3c-0.4-0.3-0.3-0.2-0.1-0.1
					c-0.3-0.3-0.1-0.1-0.3-0.5c0-0.1,0-0.5,0-0.1c0,0.4,0,0.1,0,0c0,0.3-0.1,0.6-0.2,0.9c-0.2,0.7-0.4,1.3-0.6,2
					c-0.9,3.4,0,7.7,3.6,9c3.1,1.2,7.5,0.1,9.2-3c1.5-2.9,0.9-7.2-2-9.1c-0.6-0.4-1.2-0.6-1.8-0.9c-0.3-0.1-0.5-0.2-0.8-0.3
					c-0.4-0.2-0.1-0.1-0.1,0c-0.2-0.1-0.4-0.2-0.5-0.3c-0.1-0.1-0.2-0.1-0.3-0.2c0.4,0.3,0.1,0,0,0c0.2,0.1,0.1,0.2,0,0
					c0.1,0.2,0.1,0.3,0.1,0.5c0-0.1,0-0.2,0-0.3c-0.1,0.5,0,0.1,0-0.1c0.1-0.3,0.2-0.6,0.3-0.9c-0.1,0.3,0-0.1,0-0.1
					c0.1-0.2,0.2-0.4,0.3-0.5c0.1-0.3,0.3-0.6,0.4-0.9c0.3-0.7,0.7-1.5,0.9-2.2c0.5-1.5,0.4-3.2,0-4.7c-0.9-3.2-3.7-5.9-7.2-5.8
					c-1.9,0.1-3.7,0.8-4.9,2.3c-1.4,1.8-1.5,4-1.2,6.1c0.6,3.6,3.2,6.9,6.5,8.5c1.1,0.5,2.3,0.3,3-0.8
					C359.7,320.7,359.4,319.1,358.3,318.6L358.3,318.6z"/>
			</g>
		</g>
		<g>
			<g>
				<path class="st1" d="M354.5,320.3c-2.2,2.2-4.5,4.3-6.7,6.5c-0.8,0.8-0.9,2.3,0,3.1c0.9,0.8,2.2,0.8,3.1,0
					c2.2-2.2,4.5-4.3,6.7-6.5c0.8-0.8,0.9-2.3,0-3.1C356.7,319.5,355.4,319.4,354.5,320.3L354.5,320.3z"/>
			</g>
		</g>
	</g>
</g>
</svg>
