<svg width="57" height="29" viewBox="0 0 57 29" fill="none" xmlns="http://www.w3.org/2000/svg">
<path d="M1.25351 16.4088C3.42181 24.8088 14.8054 24.9088 20.2262 23.9088C20.2262 26.9087 22.3942 26.9087 25.6462 26.9087H25.647C28.8995 26.9087 29.9836 25.9087 31.0678 23.9088C31.0678 26.4089 34.3202 26.9087 36.4885 26.9087C40.8252 26.9087 39.1989 23.9088 39.1989 22.4087C39.6326 21.2086 41.9093 21.242 42.9935 21.4087C42.8128 21.5754 42.9935 22.4087 45.1618 24.4087C47.8721 26.9087 49.4984 25.9087 52.2088 24.9087C54.9191 23.9087 55.4612 21.9087 54.3771 21.4087C53.2929 20.9087 51.1246 19.4087 50.0405 18.4087C54.9191 14.9087 54.9191 10.9087 54.3771 7.90869C50.9078 -0.0913086 39.5603 1.24202 34.3202 2.90869C34.6816 2.5754 35.0791 1.60881 33.7782 0.408814C32.1519 -1.09119 27.8153 1.90881 26.1891 3.40881C22.9366 1.40881 18.0579 0.408814 14.8054 0.408814C-0.914797 1.40881 0.169356 13.4088 1.25351 16.4088Z" fill="white"/>
<path d="M21.4557 27.8521C20.9223 27.6122 20.4939 27.2114 20.2414 26.7161C20.1089 26.4619 20.0127 26.193 19.9552 25.9161C19.8939 25.6212 19.8663 25.3212 19.8728 25.0211L19.7644 25.0451C19.1529 25.1841 18.5198 25.3291 17.8313 25.4501C16.941 25.5535 16.0453 25.6126 15.1481 25.6271H14.7242C11.9793 25.7064 9.25239 25.1927 6.76106 24.1271C4.41145 22.9811 2.53058 21.1602 1.40317 18.9401C0.612222 17.3702 0.144244 15.6785 0.0230468 13.9511C-0.0420138 12.9105 0.0308012 11.8664 0.239878 10.8421C0.484218 9.66498 0.893104 8.5221 1.4563 7.44207C2.64871 5.23048 4.52384 3.39373 6.84562 2.16307C9.43941 0.942335 12.3202 0.332223 15.2315 0.387069H15.7834H16.3092C18.3464 0.471464 20.3622 0.807802 22.3024 1.38707C23.705 1.81057 25.0418 2.40087 26.2791 3.14307C26.3127 3.12107 26.3485 3.09907 26.3875 3.07807L26.7387 2.83607C28.6057 1.56007 30.7263 0.113069 32.3677 0.00606879C32.4403 0.00606879 32.5129 6.88087e-05 32.5845 6.88087e-05C33.1083 -0.0032148 33.6251 0.11107 34.0904 0.333069C34.3267 0.447186 34.5424 0.59425 34.73 0.769069C34.9261 0.95254 35.086 1.16605 35.2027 1.40007C35.362 1.70993 35.4764 2.03773 35.5432 2.37507C37.103 1.95557 38.7082 1.69567 40.3297 1.60007L40.7178 1.57707C41.0214 1.57107 41.3239 1.56807 41.6177 1.56807C42.6926 1.56515 43.7669 1.61322 44.8365 1.71207C45.7333 1.79566 46.6234 1.93193 47.5014 2.12007C48.2407 2.27985 48.9656 2.4918 49.6697 2.75407C50.2752 2.98011 50.8581 3.25449 51.4119 3.57407C52.3515 4.11639 53.1775 4.81049 53.8502 5.62307C54.4377 6.34414 54.9264 7.12942 55.3051 7.96107C55.5844 8.60316 55.7989 9.26764 55.9458 9.94607C56.0945 10.6867 56.1411 11.4417 56.0846 12.1931C55.91 13.7789 55.2463 15.2854 54.1722 16.5341C53.4326 17.5026 52.5153 18.3445 51.4618 19.0221C52.1698 19.739 53.027 20.3172 53.9824 20.7221C54.5637 20.9517 55.0874 21.2894 55.5208 21.7141C55.7463 21.9648 55.9034 22.2617 55.9789 22.5799C56.0543 22.8981 56.046 23.2284 55.9545 23.5431C55.6956 24.2042 55.2767 24.8021 54.7296 25.2914C54.1826 25.7808 53.5218 26.1486 52.7975 26.3671C51.6992 26.8005 50.5354 27.076 49.3466 27.1841C49.1894 27.1941 49.0333 27.1991 48.8826 27.1991C47.7726 27.2063 46.6883 26.8915 45.783 26.2991C44.7693 25.502 43.9112 24.5506 43.2461 23.4861L43.2396 23.4771C43.0683 23.2381 42.8742 22.9671 42.7484 22.8111C42.6654 22.8017 42.5817 22.7981 42.498 22.8001C42.4384 22.8001 42.3744 22.8001 42.3072 22.8061C41.6701 22.8681 41.0459 23.0136 40.4533 23.2381C40.5717 23.7878 40.6517 24.3439 40.6929 24.9031C40.7261 25.2877 40.7012 25.6747 40.6192 26.0531C40.4615 26.5186 40.1677 26.935 39.77 27.2565C39.3724 27.578 38.8863 27.792 38.3652 27.8751L38.2503 27.8941C37.6828 27.9885 37.1103 28.0552 36.5352 28.0941C36.2609 28.1121 35.9931 28.1211 35.7394 28.1211C34.6507 28.1766 33.5689 27.9304 32.6333 27.4141C32.1837 27.0974 31.8181 26.6904 31.5643 26.2241C31.1926 26.6809 30.739 27.0759 30.2232 27.3921C29.6648 27.7315 29.0546 27.9921 28.4127 28.1651C27.5609 28.4499 26.6635 28.6016 25.7576 28.6141H25.3727C24.0222 28.6288 22.6847 28.3686 21.4557 27.8521ZM21.4557 23.6521C21.6725 23.8901 21.6259 24.1271 21.5522 24.5211C21.5402 24.5831 21.5283 24.6471 21.5164 24.7211C21.4191 25.0869 21.4487 25.4716 21.601 25.821C21.7533 26.1705 22.0206 26.4671 22.3653 26.6691C23.3063 27.074 24.337 27.2699 25.3749 27.2411H25.7457C26.5163 27.2445 27.2825 27.1334 28.0148 26.9121C28.5693 26.7889 29.0909 26.5634 29.5482 26.249C30.0055 25.9346 30.3889 25.538 30.6753 25.0831L30.7057 25.0331C30.7606 24.9364 30.8115 24.8364 30.8585 24.7331L30.8997 24.6501C31.1549 24.0226 31.2785 23.3561 31.264 22.6861L31.2781 22.3461C31.2781 21.9861 31.2835 21.4941 31.264 20.9231L31.2477 20.4231L31.7638 20.2561C32.3657 20.0803 32.9352 19.8214 33.4529 19.4881C34.2569 19.0683 34.875 18.4007 35.1988 17.6026C35.5225 16.8044 35.5312 15.9266 35.2233 15.1231C35.0827 14.4558 34.7196 13.8457 34.1847 13.3781C33.8347 13.1434 33.4106 13.0218 32.978 13.0321C32.477 13.0485 31.9816 13.1355 31.509 13.2901C31.1601 15.0197 30.0826 16.5514 28.5124 17.5501C26.7652 18.408 24.8327 18.8962 22.8553 18.9791C22.3794 19.0091 21.8796 19.0361 21.3516 19.0521C19.5349 19.0997 17.7178 18.9697 15.9308 18.6641L15.701 18.6251C14.8617 18.5074 14.0347 18.3241 13.2291 18.0771C12.0449 17.7513 10.9356 17.228 9.95606 16.5331C9.87763 16.4758 9.81244 16.4046 9.76433 16.3237C9.71623 16.2428 9.68618 16.1538 9.67595 16.062C9.66573 15.9702 9.67554 15.8774 9.70481 15.7892C9.73408 15.701 9.78222 15.619 9.84638 15.5482C9.91054 15.4774 9.98942 15.4192 10.0784 15.377C10.1673 15.3347 10.2646 15.3094 10.3643 15.3024C10.4641 15.2954 10.5643 15.3069 10.6592 15.3362C10.754 15.3655 10.8416 15.412 10.9166 15.4731C11.7554 16.0605 12.7038 16.5011 13.7148 16.7731C14.4412 16.9954 15.1869 17.1597 15.9438 17.2641C16.114 17.2901 16.2246 17.3111 16.2691 17.3231C18.5141 17.6495 20.7936 17.7243 23.058 17.5461C24.5792 17.5672 26.0807 17.2273 27.4185 16.5591C27.5707 16.4837 27.7157 16.3968 27.8522 16.2991C28.4675 15.9053 28.9871 15.3975 29.3778 14.8081C29.7685 14.2187 30.0217 13.5607 30.1213 12.8761C30.1267 12.7631 30.1311 12.6821 30.1311 12.6821C30.2678 10.2939 29.4288 7.94533 27.7795 6.10007C27.4107 5.69976 27.0028 5.33154 26.5609 5.00007C26.3246 4.83807 25.5852 4.34107 24.9998 4.02707C22.3336 2.62072 19.3317 1.84434 16.2615 1.76707H15.7877H15.263C9.10608 1.86707 5.25734 3.80807 2.78764 8.06107C1.94513 9.66442 1.505 11.4222 1.49993 13.204C1.49487 14.9857 1.92499 16.7457 2.75837 18.3531C3.75109 20.3095 5.40882 21.9137 7.47985 22.9221C9.75354 23.8702 12.2323 24.3258 14.7263 24.2541H15.1231C15.9642 24.2402 16.8038 24.1848 17.6384 24.0881C18.3132 23.9911 18.9808 23.8558 19.6375 23.6831C19.9183 23.6151 20.2089 23.5441 20.532 23.4711C20.6254 23.4561 20.7201 23.4488 20.8149 23.4491C20.9311 23.4403 21.0481 23.4538 21.1583 23.4887C21.2686 23.5236 21.3698 23.5793 21.4557 23.6521ZM33.0225 25.7081C33.1444 25.9132 33.3087 26.0942 33.506 26.2411C34.1869 26.5867 34.9606 26.7456 35.7361 26.6991C35.953 26.6991 36.1893 26.6911 36.4278 26.6761C36.9496 26.6395 37.4688 26.5777 37.9836 26.4911L38.1083 26.4701C38.3291 26.4297 38.5361 26.3405 38.7115 26.2103C38.8869 26.08 39.0255 25.9125 39.1154 25.7221C39.2049 24.9395 39.1362 24.1485 38.9127 23.3891C38.862 23.1079 38.9063 22.8192 39.0395 22.5621L39.0461 22.5541C39.1356 22.3846 39.2726 22.2403 39.4429 22.1361C39.8589 21.9087 40.3094 21.7402 40.7796 21.6361C41.2437 21.514 41.7186 21.4303 42.1988 21.3861C42.3072 21.3801 42.4058 21.3761 42.5012 21.3761C42.8344 21.368 43.166 21.4207 43.477 21.5311L43.6038 21.5791L43.7047 21.6641C44.0212 21.9828 44.3 22.3318 44.5362 22.7051C45.1016 23.6019 45.8103 24.415 46.6384 25.1171C47.2923 25.5545 48.0814 25.7863 48.8891 25.7781C49.0029 25.7781 49.1222 25.7781 49.2425 25.7661C50.2658 25.667 51.2672 25.4266 52.2131 25.0531C54.0431 24.3321 54.3955 23.4661 54.4605 23.2191C54.4944 23.1207 54.5017 23.0162 54.4818 22.9146C54.462 22.813 54.4156 22.7174 54.3467 22.6361C54.0383 22.3657 53.6785 22.1501 53.2853 22.0001C52.0851 21.4795 51.0186 20.7296 50.1565 19.8001C49.9848 19.6177 49.8316 19.4212 49.6989 19.2131L49.3238 18.6241L49.945 18.2531C51.1153 17.5905 52.1301 16.7187 52.9297 15.6891C53.8242 14.6578 54.3845 13.4143 54.5462 12.1021C54.6339 10.8699 54.4063 9.63606 53.8816 8.50007C52.5904 5.77607 50.125 2.99107 41.6307 2.99107C41.3531 2.99107 41.0691 2.99107 40.7818 3.00007L40.4403 3.02007C38.6681 3.12834 36.9176 3.44111 35.2298 3.95107L35.1279 3.98007H35.0195H34.987C34.3517 3.98007 34.2281 3.45207 34.1121 2.98507C34.0471 2.66884 33.955 2.35787 33.8367 2.05507C33.721 1.85556 33.5466 1.69027 33.3335 1.57827C33.1203 1.46627 32.8772 1.41212 32.6322 1.42207H32.5314C31.2857 1.50107 29.1868 2.93407 27.6527 3.98007L27.5996 4.01607H27.6126C28.091 4.38294 28.5333 4.78819 28.9342 5.22707C30.5933 7.08935 31.5427 9.40316 31.6359 11.8121C32.074 11.7049 32.5248 11.6481 32.978 11.6431C33.7574 11.6328 34.5177 11.8657 35.1355 12.3041C35.9059 12.9461 36.4393 13.7944 36.6609 14.7301C37.0557 15.8085 37.0387 16.9791 36.6127 18.0474C36.1867 19.1157 35.3774 20.0175 34.3191 20.6031C33.8441 20.9225 33.3239 21.1805 32.7731 21.3701C32.7786 21.7521 32.7731 22.0851 32.7731 22.3501V22.5681C32.7784 23.2579 32.6713 23.9446 32.4555 24.6051C32.6097 24.9871 32.7994 25.3562 33.0225 25.7081ZM25.3684 14.0001H23.8506C23.8459 13.4483 24.0662 12.915 24.4679 12.506C24.8695 12.097 25.4231 11.8422 26.0189 11.7921C26.6146 11.8422 27.1682 12.097 27.5699 12.506C27.9715 12.915 28.1918 13.4483 28.1872 14.0001H26.6694C26.6565 13.7559 26.5496 13.524 26.368 13.3461C26.3237 13.3004 26.2701 13.2632 26.2102 13.2368C26.1502 13.2104 26.0852 13.1952 26.0189 13.1921C25.6481 13.1921 25.3684 13.6821 25.3684 13.9991V14.0001ZM18.8635 14.0001H17.3456C17.339 13.4456 17.5581 12.9091 17.9595 12.4964C18.361 12.0837 18.9157 11.8249 19.514 11.7711C20.1123 11.8246 20.6672 12.0834 21.0687 12.4961C21.4702 12.9089 21.6891 13.4456 21.6823 14.0001H20.1644C20.1517 13.7459 20.0401 13.5045 19.85 13.3201C19.8076 13.2758 19.756 13.2398 19.6983 13.214C19.6406 13.1883 19.5779 13.1733 19.514 13.1701C19.1551 13.1701 18.8635 13.6701 18.8635 14.0001ZM49.2197 13.1001H47.7019C47.6716 12.8206 47.7051 12.5384 47.8002 12.2716C47.8954 12.0049 48.0501 11.7594 48.2544 11.5512C48.4587 11.3429 48.708 11.1765 48.9864 11.0626C49.2647 10.9487 49.5658 10.8898 49.8702 10.8898C50.1747 10.8898 50.4758 10.9487 50.7541 11.0626C51.0324 11.1765 51.2818 11.3429 51.4861 11.5512C51.6904 11.7594 51.8451 12.0049 51.9402 12.2716C52.0354 12.5384 52.0689 12.8206 52.0385 13.1001H50.5207C50.5083 12.8555 50.4014 12.6232 50.2193 12.4451C50.1754 12.3989 50.1219 12.3613 50.0619 12.3345C50.0019 12.3077 49.9368 12.2922 49.8702 12.2891C49.4995 12.2891 49.2197 12.7791 49.2197 13.0961V13.1001ZM42.7148 13.1001H41.197C41.1904 12.5456 41.4094 12.0091 41.8109 11.5964C42.2123 11.1837 42.767 10.9249 43.3653 10.8711C43.9635 10.9251 44.518 11.184 44.9195 11.5966C45.3209 12.0092 45.54 12.5457 45.5336 13.1001H44.0158C44.0017 12.8462 43.8903 12.6052 43.7014 12.4201C43.6593 12.3751 43.6079 12.3383 43.5502 12.3118C43.4925 12.2854 43.4296 12.2698 43.3653 12.2661C43.0065 12.2661 42.7148 12.7661 42.7148 13.0961V13.1001Z" fill="#573300"/>
</svg>
