<?xml version="1.0" encoding="utf-8"?>
<!-- Generator: Adobe Illustrator 25.4.1, SVG Export Plug-In . SVG Version: 6.00 Build 0)  -->
<svg version="1.1" id="레이어_1" xmlns="http://www.w3.org/2000/svg" xmlns:xlink="http://www.w3.org/1999/xlink" x="0px"
	 y="0px" viewBox="0 0 500 386" style="enable-background:new 0 0 500 386;" xml:space="preserve">
<style type="text/css">
	.st0{fill:#372E2B;}
	.st1{fill:#0E0E0E;}
	.st2{fill:#FFFFFF;}
	.st3{fill:#6EA1DD;}
	.st4{fill:#1BDDAA;}
	.st5{fill:#FFD8C7;}
	.st6{fill:#FFB9A0;}
	.st7{fill:#FFD976;}
	.st8{fill:#919191;}
	.st9{fill:#FF827D;}
	.st10{fill:#686867;}
	.st11{fill:#54453F;}
</style>
<g>
	<g>
		<g>
			<path class="st0" d="M286.6,75.1c0.2-0.4,0.3-0.9,0.5-1.3c4.3-11.1,6.7-22,1.7-33.4c-5-11.5-16.9-24.5-29.5-27
				c-2.8-0.6-5.6-0.7-8.4-1.4c-3.2-0.8-6.2-2.2-9.4-3.4c-11.6-4.2-24.8-3.3-36,1.7c-12.3,5.5-18.5,17.2-29.8,23.8
				c-4.1,2.4-8.8,4.1-11.7,7.9c-2.9,3.8-2.3,10.6,2.3,11.8c-2.6,3.1-4.9,6.7-4.9,10.8c0,4,3.2,8.3,7.2,8c-3.5,7-0.3,16.7,6.8,20.1
				c2.6,1.3,5.5,1.7,8.3,2.6c10.1,3,14.6,13.2,25,14.2c12,1.1,23,6.4,35.6,6.8c10,0.3,20.3-1.8,28.5-7.6c2.6-1.8,5-4.1,6.2-7
				C282.6,93.3,283.5,83.6,286.6,75.1z"/>
		</g>
		<g>
			<g>
				<path class="st1" d="M288.2,75.5c1.3-3.7,2.7-7.3,3.7-11.1c0.9-3.6,1.4-7.4,1.4-11.1c-0.1-7.3-2.6-14.1-6.4-20.2
					c-3.5-5.6-8-10.7-13.3-14.7c-2.5-1.9-5.1-3.5-8-4.8c-1.5-0.6-3-1.2-4.5-1.6c-1.8-0.5-3.6-0.7-5.4-1c-2-0.3-3.9-0.6-5.8-1.2
					c-1.8-0.5-3.5-1.2-5.2-1.9c-3.5-1.4-7-2.5-10.7-3.1c-7.3-1.2-14.8-0.7-21.9,1.3c-3.5,1-6.9,2.3-10,4c-2.8,1.5-5.3,3.4-7.7,5.5
					c-4.7,4-8.7,8.7-13.4,12.6c-2.4,2-4.9,3.8-7.7,5.2c-2.9,1.6-5.9,3-8.4,5.1c-2.3,2-3.8,4.5-4.2,7.5c-0.3,2.6,0.3,5.4,2,7.4
					c0.8,0.9,2,1.6,3.2,1.9c-0.3-1-0.5-1.9-0.8-2.9c-3.1,3.8-6.1,8.5-5.3,13.6c0.6,4.2,4.3,8.3,8.8,8c-0.5-0.9-1-1.7-1.5-2.6
					c-2.2,4.5-2.1,9.6-0.2,14.2c0.9,2.2,2.3,4.1,4,5.7c2,1.9,4.5,3.1,7.1,3.9s5.5,1.3,7.8,2.4c2,1,4,2.4,5.6,3.6
					c3.6,2.8,6.9,6.1,11.1,8c1.1,0.5,2.2,0.9,3.4,1.2c1.3,0.3,2.7,0.4,4.1,0.6c2.9,0.3,5.8,1,8.7,1.7c5.9,1.4,11.7,3.2,17.7,4.2
					c11.7,1.9,24.6,0.6,34.9-5.6c2.5-1.5,5-3.3,6.8-5.6c1.9-2.4,3-5.1,4-8c1.9-5.9,2.9-12,4.6-17.9
					C287.3,78.4,287.7,76.9,288.2,75.5c0.3-0.9-0.3-1.9-1.2-2.1c-0.9-0.3-1.8,0.3-2.1,1.2c-2,5.6-3,11.5-4.5,17.3
					c-0.7,2.8-1.6,5.7-2.7,8.4c-1,2.4-2.8,4.3-4.8,5.9c-8.6,6.9-20.8,8.8-31.5,7.9c-5.8-0.5-11.5-2.1-17.1-3.5
					c-2.8-0.7-5.6-1.4-8.4-2c-1.5-0.3-2.9-0.5-4.4-0.7c-1.3-0.2-2.7-0.3-3.8-0.5c-2.2-0.4-3.9-1.2-5.8-2.4c-1.9-1.2-3.3-2.3-4.9-3.7
					c-3.6-3-7.2-6-11.7-7.6c-2.7-1-5.6-1.3-8.3-2.5c-2-0.9-3.5-2.1-4.9-3.8c-0.5-0.6-1.2-1.7-1.6-2.6c-0.4-0.8-0.7-1.8-1-2.8
					c-0.1-0.5-0.2-1-0.3-1.6c0,0.2,0-0.4,0-0.5c0-0.3,0-0.6-0.1-0.9c0-0.5,0-1.1,0-1.6c0-0.6,0.1-0.7,0.2-1.4c0.1-0.5,0.2-1,0.4-1.5
					c0.2-0.6,0.3-0.8,0.5-1.3c0.5-1.1-0.1-2.7-1.5-2.6c-1.5,0.1-2.6-0.4-3.7-1.6c-0.5-0.5-0.9-1.2-1.3-1.9c-0.1-0.2-0.2-0.6-0.3-1
					c-0.1-0.2-0.1-0.4-0.2-0.7c-0.1-0.3,0,0-0.1-0.3c-0.4-3.9,2.1-7.5,4.4-10.3c0.8-1,0.6-2.5-0.8-2.9c-0.2,0-0.3-0.1-0.5-0.1
					c-0.3-0.1-0.1,0,0,0c-0.2-0.1-0.4-0.2-0.7-0.4c-0.4-0.2,0.2,0.2-0.1-0.1c-0.1-0.1-0.1-0.1-0.2-0.2c-0.1-0.1-0.2-0.2-0.3-0.3
					c0.2,0.3-0.1-0.1-0.1-0.1c-0.1-0.2-0.3-0.4-0.4-0.7c0,0-0.2-0.5-0.1-0.2c0-0.1-0.1-0.2-0.1-0.3c-0.1-0.3-0.2-0.5-0.2-0.8
					c0-0.2-0.1-0.3-0.1-0.5c-0.1-0.5,0,0.3,0-0.2c0-0.6,0-1.1,0-1.7c0,0,0.1-0.6,0-0.2c0-0.1,0-0.2,0.1-0.3c0.1-0.3,0.1-0.7,0.2-1
					c0.3-0.9,0.8-1.8,1.6-2.7c2-2.3,4.8-3.7,7.5-5.1c2.7-1.4,5.3-3,7.8-4.9c4.7-3.6,8.7-8.1,13-12.1c2.1-2,4.3-3.9,6.7-5.5
					c2.6-1.8,5.5-3.1,8.4-4.2c6.4-2.3,13.3-3.3,20.1-2.8c3.4,0.3,6.8,0.9,10,2c3.5,1.1,6.7,2.8,10.3,3.7c3.5,0.9,7.2,1,10.7,2
					c2.8,0.8,5.3,2,7.8,3.5c5.1,3.2,9.5,7.6,13.1,12.4c3.8,5.2,6.9,11,8,17.4c1.1,7-0.4,14-2.6,20.6c-0.6,1.8-1.3,3.5-1.9,5.2
					c-0.3,0.9,0.4,1.9,1.2,2.1C287.1,77,287.9,76.4,288.2,75.5z"/>
			</g>
		</g>
	</g>
	<g>
		<g>
			<path class="st2" d="M193.3,270.6c4.4,5.1,7.2,11.4,11.9,16.1s12.6,7.8,18.5,4.4c4.4-2.6,6.2-7.8,6.7-12.7
				c0.7-5.7,0.1-11.5-1.5-17"/>
		</g>
		<g>
			<g>
				<path class="st1" d="M192.1,271.8c3.3,3.9,5.7,8.4,8.8,12.5c3,4,6.7,7.2,11.4,8.9c4.3,1.6,9.4,1.5,13.3-1.3
					c3.8-2.8,5.7-7.3,6.4-11.9c1-6.4,0.5-12.9-1.4-19.1c-0.6-2.1-3.9-1.2-3.3,0.9c1.5,5.1,2.1,10.4,1.6,15.7
					c-0.4,3.8-1.5,8.1-4.4,10.8c-2.9,2.7-6.8,2.9-10.5,1.8c-4.1-1.3-7.4-4.1-10-7.5c-3.4-4.3-5.9-9.1-9.5-13.3
					c-0.6-0.7-1.8-0.6-2.4,0C191.4,270,191.5,271.1,192.1,271.8L192.1,271.8z"/>
			</g>
		</g>
	</g>
	<g>
		<g>
			<path class="st3" d="M240.3,232c-16.5-10.6-34.3-11.2-52.1-18.3c-12.9-5.1-24.1-9.2-37.7-1.3c-10.8,6.2-17,20.1-12,31.2
				c3.2,7,10.1,11.8,17,15.6c11.3,6.2,23.6,10.7,36.3,13.2c5.8,1.2,12.1,1.9,17.5-0.6c5.4-2.4,9.1-9,6.3-14
				c8.3-0.5,16.5-3.3,23.2-8.1c4.6-3.2,8.7-9,6-13.8C243.7,234.3,242,233.1,240.3,232z"/>
		</g>
		<g>
			<g>
				<path class="st1" d="M241.2,230.6c-7.1-4.6-15.1-7.6-23.2-9.9c-7.9-2.2-15.9-4-23.7-6.5c-7.5-2.5-14.7-6.1-22.6-7.3
					c-3.8-0.6-7.7-0.6-11.5,0.1c-4,0.8-8,2.4-11.4,4.6c-11.3,7.1-17.9,22.7-10.7,35c3.9,6.6,10.5,11,17,14.5
					c7.5,4.1,15.3,7.4,23.5,9.9c4,1.3,8.2,2.3,12.3,3.1c4.2,0.8,8.5,1.5,12.7,1.1c3.9-0.4,7.6-1.7,10.5-4.4c2.4-2.3,4.1-5.6,4.2-8.9
					c0-1.7-0.4-3.3-1.2-4.7c-0.5,0.9-1,1.7-1.5,2.6c7-0.4,13.8-2.4,20-5.7c2.9-1.6,5.7-3.5,7.9-5.9c2.1-2.4,3.9-5.3,3.9-8.6
					c0-1.8-0.6-3.5-1.6-4.9C244.5,232.8,242.9,231.6,241.2,230.6c-0.8-0.5-1.9-0.2-2.3,0.6c-0.5,0.8-0.2,1.8,0.6,2.3
					c1.2,0.8,2.3,1.5,3.2,2.6c0.3,0.4,0.7,1,0.8,1.4c0.2,0.6,0.3,1.1,0.3,1.6c0,1-0.3,2.2-0.7,3.2c-0.6,1.2-1.3,2.3-2.2,3.2
					c-2,2.2-4.4,3.8-6.9,5.2c-2.6,1.5-5.4,2.7-8.3,3.6c-3.3,1-6.7,1.6-10.1,1.8c-1.3,0.1-2.1,1.4-1.5,2.6s0.8,2.3,0.7,3.7
					c-0.1,1.1-0.6,2.4-1.3,3.5c-1.6,2.6-4.2,4.4-7.3,5.2c-3.7,1-7.6,0.7-11.3,0.1c-4-0.7-8-1.6-11.9-2.7c-7.7-2.2-15.3-5-22.5-8.7
					c-6.4-3.2-13-6.9-17.6-12.5c-2-2.5-3.4-5.2-4.1-8.3c-0.6-2.6-0.5-5.7,0.1-8.4c1.3-5.9,4.8-11.2,9.6-15c5.5-4.3,12.9-6.5,20-5.9
					c7.3,0.6,14.1,3.7,21,6.2c14.7,5.5,30.7,7.1,44.8,14.4c1.8,0.9,3.5,1.9,5.2,3c0.8,0.5,1.9,0.2,2.3-0.6
					C242.3,232.1,242,231.1,241.2,230.6z"/>
			</g>
		</g>
	</g>
	<g>
		<g>
			<path class="st4" d="M278.4,139.9c-2.7-5.6-5.3-10-9-13.4c-3.2-3-7.3-5.3-12.9-6.8c-15.3-4.3-29.9-5.3-44.9,1.3
				c-9.3,4.1-16.2,13.2-26,15.8c-5.9,1.6-11.7-2.1-17.5-4.1c-5.5-1.9-11.6-2.1-17.2-0.8c-3.6,0.9-7.2,2.5-9.6,5.4
				c-4.4,5.3-1.9,11.9-1,18.1c1.2,7.7,2.8,15.4,5.9,22.6c4.6,10.4,13,19.8,24,22.8c4.3,1.1,9.1,1.4,12.3,4.4c2.2,2,3.4,5,4.5,7.8
				c1.7,4.4,2.8,11.7,7,14.2c4.1,2.4,11.3,2.8,15.9,3.5c11.9,1.7,24,1.6,36,0.4c12.3-1.4,26.2,2.2,34.8-9.1
				c2.7-3.5,4.1-7.9,5.1-12.1C291.6,186.7,288.8,161.6,278.4,139.9z"/>
		</g>
		<g>
			<g>
				<path class="st1" d="M279.9,139c-3.1-6.5-6.9-12.8-13.1-16.8c-3.1-2-6.5-3.3-10-4.3c-4-1.1-8-2-12.1-2.6
					c-8.1-1.2-16.2-1.1-24.2,0.8c-4,1-7.9,2.3-11.5,4.2c-3,1.6-5.8,3.6-8.5,5.7s-5.4,4.2-8.3,6c-2.7,1.7-5.9,3.4-9.2,3.5
					c-3.9,0.1-7.6-1.7-11.1-3.2c-3.9-1.6-7.8-2.7-12-2.9c-7.3-0.4-16.7,1.5-20.9,8.2c-2,3.1-2.2,6.8-1.7,10.3c0.2,1.8,0.6,3.6,1,5.5
					s0.6,3.8,0.9,5.7c1.4,8,3.4,15.9,7.2,23.1c3.2,6,7.7,11.5,13.3,15.4c2.8,1.9,5.8,3.5,9,4.5c3.3,1,6.9,1.3,10.1,2.7
					c1.5,0.7,2.8,1.6,3.8,3s1.7,3,2.3,4.6c1.1,2.8,1.8,5.6,2.8,8.4c1,2.9,2.4,5.8,5,7.6s6.1,2.4,9.1,2.9c1.7,0.3,3.5,0.5,5.2,0.7
					c1.9,0.2,3.2,0.4,5.1,0.7c4.4,0.5,8.7,0.9,13.1,1c4.4,0.1,8.8,0,13.1-0.2c3.8-0.2,7.6-0.7,11.5-0.9c6.3-0.3,12.7,0.2,18.9-1.2
					c3-0.7,6-1.8,8.5-3.6c3-2.1,5.3-4.9,7-8.2c1.8-3.5,2.8-7.3,3.6-11.2c0.9-3.9,1.5-7.9,1.9-11.8c1.6-15.7-0.3-31.8-5.6-46.7
					C283.1,146.2,281.6,142.6,279.9,139c-0.4-0.8-1.6-1.1-2.3-0.6c-0.9,0.5-1,1.5-0.6,2.3c6.6,13.8,10.1,29,10.2,44.3
					c0,7.6-0.7,15.2-2.4,22.7c-0.8,3.6-1.7,7.3-3.5,10.5c-1.5,2.8-3.7,5.4-6.3,7c-4.9,3.2-10.9,3.5-16.7,3.6c-3.1,0.1-6.1,0-9.2,0.2
					c-3.8,0.2-7.6,0.7-11.4,0.9c-8.5,0.5-17.1,0.3-25.6-0.8c-3.2-0.4-6.4-0.8-9.6-1.3c-1.6-0.3-3.3-0.6-4.9-1.1
					c-0.6-0.2-1.2-0.4-1.7-0.7c-0.3-0.1-0.6-0.3-0.9-0.5c-0.1-0.1-0.3-0.2-0.4-0.3c-0.3-0.2,0.1,0.1-0.2-0.2
					c-0.3-0.2-0.5-0.5-0.7-0.7s-0.3-0.4-0.4-0.5c-0.4-0.6-0.8-1.2-1.1-1.9c-0.6-1.2-1-2.4-1.5-3.8c-0.9-2.9-1.8-5.8-3-8.6
					c-1.4-3.3-3.6-6.3-6.9-7.8c-3.2-1.5-6.7-1.9-10.1-2.8c-13.1-3.7-21.4-16.3-25.2-28.7c-1.2-3.9-2-7.8-2.7-11.8
					c-0.3-1.9-0.6-3.8-0.9-5.7c-0.3-1.7-0.7-3.3-0.9-5c-0.4-3.1-0.4-6.3,1.5-9s5.2-4.3,8.3-5.1c3.7-1,7.7-1.3,11.5-0.8
					c3.9,0.5,7.4,2,11,3.4c3.5,1.4,7.3,2.8,11.1,2.3c3.4-0.4,6.8-2,9.7-3.8c5.7-3.5,10.5-8.3,16.4-11.4c6.7-3.6,14.6-5.4,22.2-5.6
					c7.8-0.2,15.6,1.2,23.1,3.2c3.3,0.9,6.4,2.1,9.3,4c2.5,1.6,4.7,3.8,6.5,6.3c2.1,2.9,3.8,6.1,5.3,9.3c0.4,0.8,1.6,1.1,2.3,0.6
					C280.2,140.9,280.3,139.9,279.9,139z"/>
			</g>
		</g>
	</g>
	<g>
		<g>
			<path class="st2" d="M221.3,117.6c-2.8,0-4.7,2.7-6,5.1c-2.2,4.1-4.3,9.2-2,13.3c1.2,2,3.2,3.4,5.5,4.2c4,1.5,9.3,0.9,11.4-2.8
				c2.5,6.6,11.1,9.7,17.7,7.1c6.6-2.6,10.7-9.8,10.7-16.9c0-5.2-2.2-10.5-6.2-13.8"/>
		</g>
		<g>
			<g>
				<path class="st1" d="M221.3,115.9c-3.4,0-5.7,2.8-7.2,5.5c-1.7,3-3.2,6.3-3.5,9.8c-0.2,3.6,1.3,6.8,4.2,8.9
					c2.4,1.8,5.5,2.7,8.5,2.6c3.3-0.1,6.6-1.5,8.4-4.4c-1-0.1-2.1-0.3-3.1-0.4c2.9,7.4,11.9,11,19.3,8.5c8.2-2.8,13-11.8,12.4-20.2
					c-0.4-5.1-2.6-10.2-6.6-13.6c-0.7-0.6-1.7-0.7-2.4,0c-0.6,0.6-0.7,1.8,0,2.4c3,2.5,4.8,6,5.5,9.8c0.6,3.5,0.1,7.2-1.5,10.3
					c-1.5,3.2-3.9,5.9-7.1,7.4c-2.8,1.4-5.9,1.4-8.9,0.6c-1.5-0.5-3.2-1.3-4.4-2.3c-0.3-0.3-0.7-0.6-1-0.9c-0.2-0.2-0.3-0.4-0.5-0.5
					c-0.1-0.1-0.1-0.1-0.2-0.2c-0.2-0.2,0.1,0.2-0.1-0.1c-0.3-0.4-0.5-0.7-0.7-1.1c-0.1-0.2-0.2-0.4-0.3-0.6c0-0.1-0.1-0.2-0.1-0.2
					c-0.1-0.3,0.1,0.4-0.1-0.2c-0.5-1.3-2.3-1.8-3.1-0.4c-1,1.6-2.9,2.5-4.7,2.7c-2.3,0.2-4.4-0.2-6.4-1.4c-2.2-1.2-3.6-3.2-3.6-5.7
					c0-2.7,1.1-5.4,2.3-7.7c0.6-1.2,1.3-2.5,2.1-3.4c0.4-0.5,0.9-0.9,1.4-1.2c0.5-0.3,0.9-0.4,1.4-0.4
					C223.4,119.3,223.5,115.9,221.3,115.9L221.3,115.9z"/>
			</g>
		</g>
	</g>
	<g>
		<g>
			<path class="st5" d="M220.8,115.2c1.1,3.1-0.1,6.7,0.7,9.9c1.1,4.1,5.1,6.2,8.9,7c4.1,0.9,8.3,0.8,12.3-0.3
				c2.3-0.6,4.6-1.6,6.2-3.5c2-2.3,2.6-5.7,2.7-8.9s-0.3-6.4,0-9.6"/>
		</g>
		<g>
			<g>
				<path class="st1" d="M219.1,115.7c0.7,2,0.4,4,0.4,6.1s0.3,4.2,1.3,6.1c1.8,3.2,5.3,5.1,8.8,5.9c4.6,1.1,9.5,0.9,14.1-0.4
					c2-0.6,4-1.5,5.6-2.8c1.6-1.4,2.7-3.3,3.3-5.3c1.6-5,0.5-10.3,0.9-15.4c0.1-0.9-0.8-1.7-1.7-1.7c-1,0-1.6,0.8-1.7,1.7
					c-0.3,4.1,0.5,8.4-0.2,12.5c-0.3,1.6-0.8,3.3-1.8,4.7c-1,1.4-2.5,2.2-4.1,2.8c-3.7,1.3-8,1.6-11.9,1c-1.6-0.3-3.2-0.7-4.5-1.3
					c-1.3-0.7-2.5-1.5-3.2-2.6c-2.4-3.4-0.4-8.1-1.7-12.1c-0.3-0.9-1.2-1.4-2.1-1.2C219.4,113.8,218.8,114.8,219.1,115.7
					L219.1,115.7z"/>
			</g>
		</g>
	</g>
	<g>
		<g>
			<g>
				<path class="st5" d="M285,68.4c-1.2,6.3-8.8,9.8-14.9,9.1c-5.6-0.6-10.7-4.6-12.7-9.9c-6.8,2.5-15.3-1.9-17.3-8.9
					c-4.1,7.9-15.2,11.3-23.1,7c-3.3,3.4-7,6.5-11.5,7.9s-9.9,0.5-12.9-3.2c-2.6,4.1-9.2,5.1-11.1,8.8c-2,3.7,1.5,9.1,2.8,12.4
					c7.4,18.4,25.8,30.8,45.7,30.8c19.6,0,36.6-11.5,44.5-28.1c1.1,0.3,2.2,0.4,3.4,0.4c7.8,0,14.1-6.3,14.1-14.1
					C292.2,75.5,289.3,71,285,68.4z"/>
			</g>
			<g>
				<g>
					<path class="st1" d="M283.4,67.9c-0.4,2-1.3,3.4-2.9,4.8c-1.4,1.2-3.3,2.2-5.2,2.7c-1.9,0.5-3.8,0.7-5.8,0.3
						c-2.3-0.4-4.3-1.3-6.1-2.7c-1.9-1.5-3.5-3.6-4.4-5.8c-0.3-0.8-1.2-1.5-2.1-1.2c-3.1,1.1-6.3,0.7-9.2-0.7c-2.9-1.5-5.1-3.9-6-7
						c-0.4-1.4-2.4-1.7-3.1-0.4c-0.8,1.5-1.6,2.6-2.9,3.7c-1.1,1-2.4,1.9-3.9,2.6c-0.7,0.3-1.2,0.5-2,0.8s-1.6,0.5-2.4,0.6
						c-0.7,0.1-1.3,0.2-2.2,0.2c-0.8,0-1.7,0-2.5-0.1c-0.2,0,0,0,0,0c-0.1,0-0.2,0-0.4-0.1c-0.2,0-0.5-0.1-0.7-0.1
						c-0.4-0.1-0.9-0.2-1.3-0.3c-0.4-0.1-0.9-0.3-1.3-0.5c0.1,0.1-0.4-0.2-0.4-0.2c-0.2-0.1-0.4-0.2-0.7-0.3
						c-0.7-0.4-1.5-0.3-2.1,0.3c-3.2,3.3-6.9,6.6-11.5,7.7c-3.7,0.9-7.9,0.1-10.5-2.9c-0.7-0.9-2.1-0.5-2.7,0.3
						c-0.1,0.2-0.3,0.4-0.3,0.4c-0.2,0.2-0.3,0.4-0.5,0.5c-0.2,0.2-0.4,0.4-0.6,0.5c-0.1,0.1-0.2,0.2-0.3,0.2c-0.2,0.2,0,0-0.2,0.2
						c-0.8,0.6-1.8,1.1-2.7,1.7c-1.8,1-3.8,2-5.3,3.5c-3.9,3.9-1.4,9.4,0.6,13.6c1,2,1.7,4.1,2.8,6.3c1.1,2.1,2.4,4.2,3.8,6.1
						c2.8,3.9,6.2,7.5,10,10.5c7.7,6,17,9.8,26.7,10.8c9.9,1,20-1.1,28.8-5.8c8.5-4.5,15.6-11.5,20.4-19.9c0.6-1,1.1-2,1.6-3.1
						c-0.6,0.3-1.3,0.5-1.9,0.8c5.8,1.4,12.2-0.5,16-5.2c3.8-4.6,4.7-10.9,2.3-16.4c-1.4-3.1-3.8-5.7-6.6-7.5
						c-1.9-1.2-3.6,1.8-1.7,3c4.2,2.6,6.7,7.2,6.2,12.2c-0.4,4.2-3.2,8-7.2,9.9c-2.4,1.1-5.3,1.4-8.1,0.7c-0.7-0.2-1.6,0.1-1.9,0.8
						c-3.9,8.2-10,15.1-17.7,20c-7.9,5-17,7.5-26.3,7.3c-9.1-0.2-18-3.1-25.5-8.1s-13.6-12.2-17.2-20.6c-0.8-1.8-1.8-4-2.6-5.8
						c-0.4-1.1-0.8-2.2-1-3.3c-0.1-0.3-0.1-0.8-0.1-1.3s0-0.7,0.3-1.3c0.1-0.3-0.1,0.2,0-0.1c0-0.1,0.1-0.2,0.2-0.3
						c0-0.1,0.3-0.5,0.3-0.4c-0.1,0.1,0.3-0.3,0.3-0.4c0.2-0.2,0.4-0.4,0.6-0.5c0,0,0.3-0.2,0.1-0.1c-0.1,0.1,0.1-0.1,0.2-0.1
						c0.2-0.1,0.4-0.3,0.6-0.4c0.4-0.3,0.8-0.5,1.3-0.8c1.9-1.1,3.8-2.1,5.5-3.4c0.9-0.7,1.6-1.5,2.2-2.4c-0.9,0.1-1.8,0.2-2.7,0.3
						c2.4,3,6.3,4.3,10.1,4.3c4.1,0,8-1.8,11.3-4.2c2-1.4,3.7-3.1,5.5-4.8c-0.7,0.1-1.4,0.2-2.1,0.3c6.9,3.7,15.6,2.3,21.5-2.6
						c1.6-1.4,3-3.1,3.9-4.9c-1-0.1-2.1-0.3-3.1-0.4c2.3,7.9,11.6,12.9,19.4,10.1c-0.7-0.4-1.4-0.8-2.1-1.2c2,5.2,6.5,9.4,12,10.7
						c5,1.2,10.5,0,14.5-3.2c2.2-1.7,3.8-4.1,4.4-6.8c0.2-0.9-0.3-1.8-1.2-2.1C284.6,66.5,283.6,67,283.4,67.9z"/>
				</g>
			</g>
		</g>
	</g>
	<g>
		<circle class="st6" cx="248.7" cy="99.9" r="10.3"/>
	</g>
	<g>
		<circle class="st6" cx="201.5" cy="98.8" r="9"/>
	</g>
	<g>
		<circle class="st1" cx="239.5" cy="90.6" r="3.9"/>
	</g>
	<g>
		<circle class="st1" cx="205.8" cy="90.2" r="3.9"/>
	</g>
	<g>
		<path class="st7" d="M257.6,238.1h-53c-2.5,0-4.7-1.6-5.5-3.8l-18.3-53.6c-1.2-3.6,1.6-7.3,5.5-7.3h53c2.5,0,4.7,1.6,5.5,3.8
			l18.3,53.6C264.4,234.4,261.6,238.1,257.6,238.1z"/>
		<path class="st1" d="M257.6,239.8h-53c-3.2,0-6.1-2-7.1-5l-18.3-53.6c-0.8-2.2-0.4-4.6,1-6.5c1.4-2,3.7-3.1,6.2-3.1h53
			c3.2,0,6.1,2,7.1,5l18.3,53.6c0.8,2.2,0.4,4.6-1,6.5S260.1,239.8,257.6,239.8z M186.3,175c-1.4,0-2.6,0.6-3.4,1.7
			c-0.7,1-0.9,2.2-0.5,3.4l18.3,53.6c0.5,1.6,2.1,2.7,3.9,2.7h53c1.4,0,2.6-0.6,3.4-1.7c0.7-1,0.9-2.2,0.5-3.4l-18.3-53.6
			c-0.5-1.6-2.1-2.7-3.9-2.7L186.3,175L186.3,175z"/>
	</g>
	<g>
		<g>
			<path class="st2" d="M213.1,249.4c-8.3,1.8-16.6,3.6-24.8,5.4c-3.1,0.7-6.2,1.3-9.1,2.7c-4.1,1.9-7.5,5.1-9.6,8.9
				c-1,1.9-1.8,4.1-1.4,6.3c0.4,2.9,2.8,5.3,5.5,6.6c2.8,1.3,5.9,1.7,8.9,1.9c14.8,0.9,30.7-2.4,40.9-12.7"/>
		</g>
		<g>
			<g>
				<path class="st1" d="M212.7,247.7c-9.1,2-18.1,3.8-27.2,5.9c-4,0.9-7.9,2.2-11.2,4.8c-3.2,2.4-5.8,5.6-7.2,9.4
					c-0.7,1.9-1,4.1-0.4,6.1c0.5,1.8,1.6,3.4,3,4.7c3.1,2.9,7.3,3.8,11.4,4.1c7.4,0.7,15.1,0.2,22.3-1.6c7.9-1.9,15.5-5.6,21.3-11.5
					c1.6-1.6-0.9-4-2.4-2.4c-9.6,9.7-24,12.7-37.2,12.3c-3.6-0.1-7.5-0.2-10.7-1.8c-2.7-1.4-5-3.9-4.5-7.1c0.5-3.4,3-6.5,5.5-8.7
					c2.7-2.4,6-3.7,9.5-4.6c4.7-1.2,9.4-2.1,14.1-3.1c4.9-1.1,9.8-2.1,14.6-3.2c0.9-0.2,1.4-1.2,1.2-2.1
					C214.5,248,213.6,247.5,212.7,247.7L212.7,247.7z"/>
			</g>
		</g>
	</g>
	<g>
		<g>
			<path class="st3" d="M204.6,249.7c-9.1,13.3-0.4,27.1,14.8,29.6c8.2,1.4,16.5-0.1,24.7-1.6c8.5-1.5,16.9-3.1,25.4-4.6
				c8.6-1.6,17.5-3.2,25.1-7.5c11.1-6.2,20.9-22.4,15.2-34.6c-3.3-7-11-11.4-18.9-12.6c-7.9-1.2-15.9,0.2-23.7,2.1
				c-18.1,4.4-35.5,11.3-51.6,20.5C211.4,243.2,207.3,245.8,204.6,249.7z"/>
		</g>
		<g>
			<g>
				<path class="st1" d="M203.2,248.8c-2.3,3.3-3.8,7.2-3.9,11.3c-0.1,3.6,0.9,7.2,2.7,10.2c4.4,7.1,12.5,10.4,20.6,11.1
					c5.5,0.5,11-0.2,16.4-1.1s10.8-1.9,16.2-2.9c5.4-1,10.8-2,16.3-3c4.9-0.9,9.8-1.9,14.6-3.4c4.4-1.4,8.7-3.2,12.4-5.9
					c3.3-2.4,6.1-5.4,8.5-8.8c4.6-6.5,7.6-14.9,5.5-22.9c-2.2-8.4-9.9-14-18-16.1c-10.2-2.7-21-0.3-31,2.3c-9.9,2.6-19.6,6-29.1,10
					c-4.7,2-9.3,4.2-13.8,6.6c-4.3,2.3-8.7,4.6-12.6,7.6C206.1,245.3,204.5,246.9,203.2,248.8c-0.5,0.8-0.1,1.9,0.6,2.3
					c0.9,0.5,1.8,0.1,2.3-0.6c2.5-3.6,6.3-5.9,10-8c4.2-2.4,8.6-4.7,13-6.8c8.8-4.2,17.9-7.7,27.2-10.6c4.7-1.5,9.5-2.8,14.4-3.8
					c4.9-1.1,10-1.9,15-1.8c7.9,0.2,16.5,3,21.1,9.7c4.2,6.1,3.3,13.8,0.1,20.3c-3.4,6.9-8.8,12.5-15.8,15.8
					c-4.3,2-8.9,3.3-13.5,4.3c-4.8,1.1-9.7,1.9-14.6,2.8c-5.3,1-10.6,1.9-15.9,2.9c-5.1,0.9-10.2,2-15.3,2.5
					c-4.8,0.5-9.8,0.5-14.5-0.7c-3.4-0.9-6.7-2.5-9.2-4.7c-0.6-0.6-1.2-1.1-1.8-1.8c-0.6-0.7-0.8-1-1.3-1.7s-0.9-1.4-1.2-2.2
					c-0.3-0.6-0.5-1.2-0.7-2c-0.5-1.7-0.6-2.7-0.6-4.5c0-0.4,0-0.8,0.1-1.2c0-0.4,0.1-0.5,0.1-1c0.2-0.9,0.4-1.8,0.7-2.6
					c0.6-1.7,1.5-3.3,2.5-4.9c0.5-0.8,0.1-1.9-0.6-2.3C204.7,247.7,203.7,248.1,203.2,248.8z"/>
			</g>
		</g>
	</g>
	<g>
		<g>
			<path class="st4" d="M266.9,124.3c2.5,1.3,6.8,4.6,9,6.3c4.6,3.6,9,6.7,12.9,11.1c7.7,8.7,13.6,18.9,17.7,29.8
				c4.5,11.8,6,26.7-0.3,38.2c-5.6,10.1-22.8,12.1-33.3,12.3c-7.2,0.2-15-0.9-20-5.8c-4-3.9-8.6-15.1-4-19.7
				c0.4-0.4,0.8-0.8,1.3-1.1c4.5-3.7,10.6-5.3,13.9-10.2c4.1-6.1,5.5-12.5,5.9-19.2"/>
		</g>
		<g>
			<g>
				<path class="st1" d="M266,125.8c2.9,1.5,5.6,3.6,8.2,5.6c3.1,2.4,6.3,4.7,9.2,7.3c6.2,5.5,11,12.5,15.1,19.7
					c3.9,6.9,7.2,14.3,8.9,22.1c1.6,7.4,1.9,15.2-0.3,22.5c-0.5,1.8-1.2,3.5-2.1,5.2c-0.4,0.7-0.7,1.3-1.2,2
					c-0.3,0.4-0.6,0.8-1.1,1.4c-0.5,0.5-1,1-1.5,1.4s-0.8,0.7-1.5,1.1c-1.2,0.8-2.5,1.5-3.8,2.1c-0.6,0.3-1.2,0.5-2,0.8
					c-0.7,0.3-1.5,0.5-2.2,0.7c-1.5,0.5-3,0.8-4.6,1.2c-1.5,0.3-3.1,0.6-4.6,0.8c0.2,0-0.2,0-0.3,0c-0.2,0-0.4,0-0.5,0.1
					c-0.4,0-0.8,0.1-1.2,0.1c-0.7,0.1-1.5,0.1-2.2,0.2c-6.5,0.5-13.6,0.8-19.6-1.8c-1.6-0.7-3-1.6-4.3-2.7c-0.5-0.4-0.9-0.9-1.4-1.4
					c0-0.1-0.3-0.4-0.2-0.2c0.1,0.1-0.2-0.2-0.2-0.3c-0.2-0.3-0.4-0.6-0.6-0.9c-1.7-2.6-2.8-5.3-3.3-8.3c0-0.2-0.1-0.4-0.1-0.5
					c0-0.2,0,0,0,0c0-0.1,0-0.2,0-0.3c0-0.4-0.1-0.8-0.1-1.1s0-0.7,0-1c0-0.2,0-0.3,0-0.5c0,0,0-0.3,0-0.1s0-0.1,0-0.2
					c0.1-0.3,0.1-0.6,0.2-0.9c0-0.1,0.1-0.3,0.1-0.4c0.1-0.2,0,0,0,0.1c0-0.1,0.1-0.2,0.1-0.3c0.1-0.3,0.3-0.5,0.5-0.8
					s-0.1,0.1,0.1-0.1c0.1-0.1,0.3-0.3,0.4-0.4c2.5-2.5,5.8-4,8.8-5.8c1.5-0.9,3-2,4.3-3.2c1.4-1.4,2.5-3.1,3.5-4.8
					c2-3.6,3.4-7.7,4.1-11.8c0.3-2,0.6-4,0.7-6c0.1-0.9-0.8-1.7-1.7-1.7c-1,0-1.6,0.8-1.7,1.7c-0.3,4.1-1,8.1-2.4,11.9
					c-1.3,3.5-3.3,7.1-6.2,9.4c-2.9,2.2-6.3,3.6-9.2,5.8c-1.5,1.1-3,2.2-3.9,3.9c-0.8,1.4-1.1,2.9-1.2,4.5c-0.2,3.3,0.9,6.6,2.2,9.6
					c1.2,2.8,2.9,5.5,5.3,7.4c6,4.9,14.1,5.6,21.6,5.3c6.3-0.3,12.8-1,18.8-2.9s11.8-5.1,14.8-10.8c3.8-7.2,4.7-15.6,3.9-23.5
					c-0.9-8.3-3.6-16.2-7.2-23.7c-3.7-7.8-8.4-15.1-14.1-21.7c-2.8-3.3-6.1-6.1-9.5-8.8c-3-2.3-6-4.7-9.1-6.9
					c-1.3-0.9-2.7-1.9-4.1-2.6c-0.8-0.4-1.9-0.2-2.3,0.6C264.9,124.2,265.2,125.3,266,125.8L266,125.8z"/>
			</g>
		</g>
	</g>
	<g>
		<g>
			<path class="st5" d="M258.7,219.9c3.3-0.5,6-2.2,7.4-6.2c1.1-3,0.8-6.4-0.3-9.4c-0.7-1.8-1.7-3.6-2.7-5.3
				c-1.3-2.2-2.6-4.4-3.8-6.7c-0.7-1.1-1.3-2.3-2.3-3.2s-2.4-1.4-3.7-1.1c-2.2,0.5-3.1,3.1-3.5,5.3c-4.2-0.4-8.6,1.3-11.1,4.5
				c-0.6,0.7-1,1.5-0.9,2.4c0.1,1.1,1.1,2,2.2,2.4c1.1,0.4,2.3,0.3,3.4,0.3c-1,0.7-2.1,1.5-2.7,2.6c-0.6,1.1-0.7,2.6,0.1,3.5
				s2.1,1.1,3.3,1.2c-0.8,0.4-1.6,0.7-2.2,1.4c-0.6,0.6-0.9,1.6-0.5,2.3c0.7,1.3,2.5,1.1,3.9,0.8c-1,0.8-0.7,2.5,0.3,3.3
				s2.3,1.1,3.6,1.3C252.4,219.8,255.7,220.3,258.7,219.9z"/>
		</g>
		<g>
			<g>
				<path class="st1" d="M259.1,221.5c3-0.5,5.5-2,7.2-4.5c2.2-3.2,2.5-7.3,1.7-11c-0.9-4-3.3-7.5-5.3-11c-1-1.7-1.8-3.4-2.9-5
					c-1-1.6-2.4-3-4.2-3.5c-1.9-0.6-4.1-0.1-5.4,1.5c-1.2,1.4-1.8,3.2-2.1,4.9c0.5-0.4,1.1-0.8,1.6-1.3c-4.2-0.4-8.6,1.1-11.6,4.1
					c-1.7,1.7-3.1,4.3-1.5,6.5c1.5,2.2,4.2,2.4,6.6,2.3c-0.3-1.1-0.6-2.1-0.9-3.2c-2.1,1.5-4.3,3.4-4.1,6.2c0.1,1.4,0.8,2.6,2,3.3
					c1.1,0.7,2.4,0.8,3.6,1c-0.3-1.1-0.6-2.1-0.9-3.2c-1.2,0.5-2.4,1.2-3.1,2.3c-0.7,1.1-0.9,2.6-0.2,3.7c1.2,2.1,3.8,2,5.9,1.6
					c-0.6-1-1.1-1.9-1.7-2.9c-1.3,1.2-1.4,3.2-0.6,4.7c0.9,1.6,2.6,2.3,4.3,2.6C251.5,221.5,255.4,222.1,259.1,221.5
					c0.9-0.1,1.4-1.3,1.2-2.1c-0.3-1-1.2-1.3-2.1-1.2c-2.7,0.4-5.4,0-8.1-0.4c-1.1-0.2-2.5-0.2-3.4-0.9c-0.3-0.3-0.3-0.3-0.4-0.7
					c0.1,0.4,0-0.6,0-0.1c-0.1,0.1-0.1,0.1,0-0.1c-0.1,0.1-0.1,0.1,0.1,0c0.6-0.5,0.6-1.5,0.3-2.1c-0.4-0.7-1.2-0.9-1.9-0.8
					c-0.5,0.1-0.8,0.1-1.4,0.1c-0.1,0-0.3,0-0.1,0c-0.1,0-0.3-0.1-0.4-0.1c-0.1,0-0.1,0,0,0s0.1,0,0,0c0-0.1,0,0,0.1,0.1
					c-0.2-0.2,0-0.2,0-0.1c0-0.2,0.1-0.3,0.3-0.5c0.4-0.5,1.2-0.7,1.8-1c0.7-0.3,1-1.3,0.8-1.9c-0.2-0.8-0.9-1.2-1.6-1.3
					c-0.5-0.1-1.2-0.1-1.6-0.3c-0.5-0.2-0.6-0.5-0.6-0.9c0.1-1.1,1.4-2.1,2.4-2.8c0.6-0.5,1-1.1,0.8-1.9c-0.2-0.7-0.9-1.3-1.6-1.3
					c-0.8,0-1.7,0.1-2.5-0.1c-0.6-0.1-1.1-0.4-1.3-0.8c-0.1-0.2-0.1-0.2,0-0.5s0.3-0.6,0.5-0.9c0.4-0.6,1-1.1,1.6-1.6
					c2.3-1.8,5.3-2.5,8.2-2.3c0.7,0.1,1.5-0.6,1.6-1.3c0.2-1.2,0.5-2.3,1.1-3.3c0.2-0.3,0.1-0.2,0.4-0.4c0.4-0.4-0.1,0.1,0.1-0.1
					c0.1-0.1,0.2-0.2,0.4-0.2c-0.1,0-0.2,0.1,0.1,0l0.4-0.1c0.3,0,0.6,0,0.8,0.1c1.2,0.4,1.9,1.5,2.6,2.6c0.9,1.4,1.7,2.9,2.5,4.4
					c1.7,2.9,3.7,5.9,4.7,9.2c0.8,2.8,0.8,5.9-0.6,8.5c-0.6,1.1-1.4,2.1-2.3,2.6c-0.2,0.2-0.5,0.3-0.8,0.4c0,0-0.5,0.2-0.2,0.1
					c-0.2,0.1-0.3,0.1-0.5,0.2c-0.6,0.2-1.2,0.3-1.9,0.4c-0.9,0.1-1.4,1.3-1.2,2.1C257.3,221.3,258.2,221.7,259.1,221.5z"/>
			</g>
		</g>
	</g>
	<g>
		<g>
			<path class="st2" d="M219,238.1h-56.9c-2.3,0-3.8-2.1-3.1-4.2l19.9-58.5c0.4-1.3,1.7-2.2,3.1-2.2h57c2.3,0,3.8,2.1,3.1,4.2
				l-19.9,58.5C221.7,237.2,220.5,238.1,219,238.1z"/>
			<path class="st1" d="M219,239.8h-56.9c-1.6,0-3.2-0.8-4.1-2.1c-0.9-1.3-1.2-2.9-0.6-4.3l19.9-58.5c0.7-2,2.6-3.3,4.8-3.3H239
				c1.6,0,3.2,0.8,4.1,2.1c0.9,1.3,1.2,2.9,0.6,4.3l-19.9,58.5C223.1,238.5,221.2,239.8,219,239.8z M182.1,175c-0.7,0-1.3,0.4-1.5,1
				l-19.9,58.5c-0.2,0.6,0,1,0.2,1.3c0.3,0.4,0.8,0.7,1.3,0.7H219c0.7,0,1.3-0.4,1.5-1l19.9-58.5c0.2-0.6,0-1-0.2-1.3
				c-0.3-0.4-0.8-0.7-1.3-0.7H182.1z"/>
		</g>
		<g>
			<path class="st1" d="M186.3,178.5c-0.2,0-0.3,0-0.5-0.1c-0.9-0.3-1.4-1.2-1.2-2.1l1.9-6.6c0.3-0.9,1.2-1.4,2.1-1.2
				c0.9,0.3,1.4,1.2,1.2,2.1l-1.9,6.6C187.7,178,187,178.5,186.3,178.5z"/>
		</g>
		<g>
			<path class="st1" d="M195.5,178.5c-0.2,0-0.3,0-0.5-0.1c-0.9-0.3-1.4-1.2-1.2-2.1l1.9-6.6c0.3-0.9,1.2-1.4,2.1-1.2
				c0.9,0.3,1.4,1.2,1.2,2.1l-1.9,6.6C197,178,196.3,178.5,195.5,178.5z"/>
		</g>
		<g>
			<path class="st1" d="M204.8,178.5c-0.2,0-0.3,0-0.5-0.1c-0.9-0.3-1.4-1.2-1.2-2.1l1.9-6.6c0.3-0.9,1.2-1.4,2.1-1.2
				c0.9,0.3,1.4,1.2,1.2,2.1l-1.9,6.6C206.2,178,205.5,178.5,204.8,178.5z"/>
		</g>
		<g>
			<path class="st1" d="M214,178.5c-0.2,0-0.3,0-0.5-0.1c-0.9-0.3-1.4-1.2-1.2-2.1l1.9-6.6c0.3-0.9,1.2-1.4,2.1-1.2
				c0.9,0.3,1.4,1.2,1.2,2.1l-1.9,6.6C215.5,178,214.8,178.5,214,178.5z"/>
		</g>
		<g>
			<path class="st1" d="M223.3,178.5c-0.2,0-0.3,0-0.5-0.1c-0.9-0.3-1.4-1.2-1.2-2.1l1.9-6.6c0.3-0.9,1.2-1.4,2.1-1.2
				c0.9,0.3,1.4,1.2,1.2,2.1l-1.9,6.6C224.7,178,224,178.5,223.3,178.5z"/>
		</g>
		<g>
			<path class="st1" d="M232.6,178.5c-0.2,0-0.3,0-0.5-0.1c-0.9-0.3-1.4-1.2-1.2-2.1l1.9-6.6c0.3-0.9,1.2-1.4,2.1-1.2
				c0.9,0.3,1.4,1.2,1.2,2.1l-1.9,6.6C234,178,233.3,178.5,232.6,178.5z"/>
		</g>
	</g>
	<g>
		<g>
			<path class="st1" d="M191.9,266.2c-1.9-0.9-3.3-2.5-3.8-4.5c-0.2-0.8-0.4-1.9,0.2-2.7c-0.2,0.2,0.4-0.3,0.1-0.1
				c0.2-0.1,0.4-0.3,0.6-0.4c-0.2,0.1,0.1,0,0.1,0c0.1,0,0.2-0.1,0.3-0.1c0.4-0.1,0.2,0,0.1,0c0.2,0,0.3,0,0.5,0
				c0.6,0,1.3,0.4,1.8,1c0.6,0.8,0.8,1.8,0.8,2.7c0,0,0,0.4,0,0.2c0-0.2,0,0.1,0,0.1c-0.1,0.2-0.1,0.4-0.2,0.5
				c-0.1,0.4-0.3,0.7-0.6,1.2c-0.4,0.9-0.9,1.8-1.1,2.8c-0.2,1.2,0,2.3,0.8,3.2c0.8,0.8,1.8,1.1,2.8,1.5c0,0,0.3,0.1,0.1,0
				c0.1,0,0.2,0.1,0.3,0.1c0.2,0.1,0.4,0.2,0.6,0.3c-0.3-0.2,0.3,0.3,0,0c0.1,0.1,0.3,0.5,0.3,0.4c0.2,0.5,0.3,0.8,0.3,1.2
				c0,0.5,0,0.8-0.2,1.1c-0.1,0.3-0.3,0.5-0.6,0.7c-0.4,0.3-1.1,0.4-1.5,0.5c-0.9,0.1-1.8,0-2.2-0.8c-0.1-0.3-0.2-0.7-0.2-1
				s0-0.6,0-0.8c0-0.1,0-0.3,0-0.4c0-0.6-0.1,0.3,0-0.1c0.2-0.9,0.6-1.8,0.7-2.8c0.9-5.1-5.9-4.4-9-5.7c-0.9-0.4-1.9,0.4-2.1,1.2
				c-0.3,1,0.3,1.7,1.2,2.1c1.7,0.7,3.7,0.8,5.5,1.3c0.2,0.1,0.4,0.1,0.6,0.2c0.1,0,0.2,0.1,0.3,0.1c-0.3-0.1-0.1,0,0,0
				c0.2,0.1,0.3,0.2,0.5,0.3c0,0-0.3-0.3-0.1-0.1c0.2,0.2-0.2-0.3,0-0.1c0,0-0.2-0.4-0.1-0.5v0.3c0,0.3,0.1-0.4,0,0.1
				c0,0.1-0.1,0.2-0.1,0.3c-0.2,0.6-0.4,1.2-0.5,1.8c-0.7,2.6-0.2,6.2,2.5,7.4c2.7,1.3,6.7,0.4,8.1-2.3c1.2-2.4,0.7-6-1.7-7.5
				c-0.5-0.3-1-0.5-1.5-0.7c-0.3-0.1-0.5-0.2-0.8-0.3c0.2,0.1-0.4-0.2-0.5-0.2s-0.2-0.1-0.3-0.2c0.4,0.3-0.1-0.2,0.1,0.1
				c0.1,0.1,0-0.3,0.1,0.1c0-0.1-0.1-0.3,0,0.1c0,0,0-0.2,0-0.3c-0.2,0.3,0,0.1,0,0c0.1-0.3,0.2-0.6,0.3-0.8
				c-0.1,0.2,0.2-0.4,0.2-0.4c0.1-0.3,0.2-0.5,0.4-0.8c0.3-0.6,0.6-1.2,0.8-1.8c0.5-1.3,0.4-2.6,0.1-3.9c-0.7-2.7-3.1-5-6.1-4.9
				c-1.5,0.1-3,0.6-4,1.8c-1.2,1.5-1.4,3.4-1.1,5.2c0.5,3.1,2.7,5.9,5.5,7.2c0.8,0.4,1.8,0.2,2.3-0.6
				C192.9,267.8,192.7,266.6,191.9,266.2L191.9,266.2z"/>
		</g>
	</g>
	<g>
		<g>
			<path class="st1" d="M188.8,267.6c-1.9,1.8-3.8,3.7-5.8,5.5c-0.6,0.6-0.7,1.8,0,2.4s1.7,0.7,2.4,0c1.9-1.8,3.8-3.7,5.8-5.5
				c0.6-0.6,0.7-1.8,0-2.4S189.5,266.9,188.8,267.6L188.8,267.6z"/>
		</g>
	</g>
	<g>
		<g>
			<path class="st1" d="M218.3,85.2c0.2,0.5,0.4,1,0.5,1.5c0,0.1,0,0.1,0,0c0,0.1,0,0.1,0,0.2s0,0.3,0,0.4s0,0.3,0,0.4
				c0,0,0,0.4,0,0.3s0,0.2,0,0.2c0,0.2-0.1,0.3-0.1,0.5c0,0.1-0.1,0.2-0.1,0.4c0,0-0.1,0.3,0,0.1c-0.2,0.6-0.6,1.1-0.7,1.8
				c-0.6,2.5,1,4.5,2.8,6c0.7,0.6,1.7,0.7,2.4,0c0.6-0.6,0.7-1.8,0-2.4c-0.3-0.3-0.7-0.6-1-0.9c-0.1-0.1-0.2-0.2-0.2-0.3
				c0,0-0.3-0.3-0.2-0.2c0.1,0.1-0.1-0.1-0.1-0.2c-0.1-0.1-0.1-0.2-0.2-0.3c-0.1-0.3-0.2-0.4-0.2-0.7c0,0,0-0.3,0-0.2
				c0,0.1,0.1-0.2,0.1-0.2s0.1-0.3,0.1-0.2c0,0.1,0.1-0.3,0.1-0.3c1-2.1,1.2-4.6,0.3-6.8c-0.3-0.8-1.1-1.5-2.1-1.2
				C218.7,83.4,217.9,84.3,218.3,85.2L218.3,85.2z"/>
		</g>
	</g>
	<g>
		<g>
			<path class="st2" d="M223,111c-3.8-0.7-6.6-3.3-8.6-5.8c-0.6-0.8-0.8-2.1,0.3-2.6c1.6-0.7,6-0.8,8-1c3.5-0.3,7.2-0.2,10.7,0
				c0.3,0,0.7,0,0.9,0.2c0.3,0.2,0.4,0.5,0.4,0.8c0.4,2.4-0.8,5-3.1,6.7S226,111.6,223,111z"/>
		</g>
		<g>
			<g>
				<path class="st1" d="M223.5,109.3c-3-0.6-5.4-2.4-7.4-4.7c-0.2-0.2-0.4-0.4-0.4-0.6c-0.3-0.5,0,0.1-0.1-0.1v-0.1
					c0,0.2,0,0.2,0,0c-0.1,0.1-0.3,0.6-0.1,0.3c-0.2,0.2-0.2,0.1,0,0c0.2,0,0.3-0.1,0.5-0.1c1.2-0.3,2.1-0.3,3.5-0.4
					c3.1-0.2,6.1-0.5,9.2-0.4c0.9,0,1.8,0.1,2.7,0.1c0.5,0,0.9,0,1.4,0.1c0.1,0,0.8,0,0.8,0c-0.2-0.1-0.4-0.3-0.5-0.4
					s-0.1-0.1,0,0.1c-0.1,0.3,0,1.1-0.1,1.5c-0.2,0.7-0.4,1.2-0.8,1.8C230.3,109,226.5,109.9,223.5,109.3c-0.9-0.2-1.8,0.2-2.1,1.2
					c-0.2,0.8,0.3,1.9,1.2,2.1c4,0.7,8.7-0.2,11.6-3.4c1.3-1.5,2.2-3.4,2.3-5.4c0.1-1-0.1-2.2-0.7-3c-0.9-1.1-2.2-1-3.5-1.1
					c-2.3-0.1-4.7-0.2-7-0.1c-1.7,0.1-3.5,0.2-5.2,0.3c-1.7,0.1-3.4,0.2-5,0.6c-0.8,0.2-1.6,0.5-2.1,1.1c-0.7,0.8-0.9,2-0.6,3
					c0.3,1,1,1.8,1.7,2.6c0.7,0.8,1.4,1.5,2.3,2.2c1.9,1.5,3.9,2.6,6.3,3.1c0.9,0.2,1.8-0.3,2.1-1.2
					C224.9,110.6,224.4,109.5,223.5,109.3z"/>
			</g>
		</g>
	</g>
	<g>
		<path class="st3" d="M179,142.2l3.1,6.1c0.9,1.8-0.9,3.7-2.8,3l-6.5-2.4l-35-31.9l6.2-6.7L179,142.2z"/>
		<path class="st1" d="M180.2,153.2c-0.5,0-1-0.1-1.5-0.3l-6.5-2.4c-0.2-0.1-0.4-0.2-0.6-0.3l-35-31.9c-0.3-0.3-0.5-0.7-0.6-1.2
			c0-0.5,0.1-0.9,0.5-1.2l6.2-6.7c0.6-0.7,1.7-0.7,2.4-0.1l35,31.9c0.2,0.1,0.3,0.3,0.4,0.5l3.1,6.1c0.7,1.5,0.5,3.1-0.5,4.3
			C182.4,152.7,181.3,153.2,180.2,153.2z M173.7,147.4l6.2,2.3c0.4,0.1,0.6,0,0.7-0.1c0.2-0.2,0.1-0.4,0-0.5l-3-5.8l-33.5-30.5
			l-3.9,4.2L173.7,147.4z"/>
	</g>
	<g>
		<g>
			<path class="st5" d="M142.1,149.8c-0.9-1-1.7-2-2.3-3.1c-6.5-11.7,2-28.8,16.1-28.6c2,0,4.1,0.5,5.2,2.1s0.5,4.4-1.5,4.6
				c1.7,0.4,3.1,1.9,3.3,3.6s-0.7,3.5-2.3,4.3c1.5,0.5,2.6,1.9,2.7,3.5c0.1,1.6-0.8,3.1-2.3,3.8c1.4,1.4,2.8,3.3,2.3,5.3
				c-0.2,0.9-0.8,1.6-1.4,2.2c-2.6,3.1-5.7,6.5-9.8,6.8C148.4,154.7,144.7,152.6,142.1,149.8z"/>
		</g>
		<g>
			<g>
				<path class="st1" d="M143.3,148.6c-0.8-0.9-1.5-1.8-2.1-2.8c-0.2-0.3-0.3-0.7-0.5-1c-0.2-0.5-0.2-0.4-0.4-0.9
					c-0.3-0.8-0.5-1.5-0.7-2.3c-0.1-0.4-0.1-0.8-0.2-1.2c-0.1-0.3,0,0.1,0-0.2c0-0.2,0-0.4-0.1-0.7c-0.1-0.8-0.1-1.6,0-2.4
					c0-0.4,0-0.8,0.1-1.2c0-0.2,0-0.4,0.1-0.6c0,0.3,0.1-0.3,0.1-0.4c0.3-1.5,0.8-3.2,1.3-4.4s1.4-2.8,2.3-4
					c0.3-0.4,0.2-0.3,0.5-0.6c0.3-0.3,0.5-0.6,0.8-0.9c0.5-0.6,1.1-1.1,1.7-1.6c0.1,0,0.4-0.4,0.2-0.2c0.1-0.1,0.3-0.2,0.4-0.3
					c0.3-0.2,0.7-0.5,1-0.7c0.7-0.4,1.4-0.8,2.1-1.1c-0.2,0.1,0.2-0.1,0.3-0.1c0.2-0.1,0.4-0.1,0.6-0.2c0.4-0.1,0.7-0.2,1.1-0.3
					c0.4-0.1,0.8-0.2,1.2-0.3c0.2,0,0.4-0.1,0.6-0.1c0.2,0,0,0,0,0c0.1,0,0.3,0,0.4,0c1.8-0.2,4-0.2,5.3,0.9
					c0.2,0.1,0.3,0.3,0.4,0.4c0,0.1,0.1,0.1,0.1,0.2c0.2,0.4,0-0.1,0.1,0.1c0,0.1,0,0.2,0.1,0.2c0.1,0.4,0-0.1,0,0.1
					c0,0.1,0,0.6,0,0.5c0,0.2-0.1,0.5-0.2,0.6c0.1-0.1-0.1,0-0.1,0.1c-0.2,0.3,0.1,0-0.1,0.1c-0.1,0.1,0,0,0.1,0
					c-0.1,0.1-0.3,0.1-0.5,0.1c-1.7,0.3-1.5,2.9,0,3.3c1.1,0.3,1.9,1.1,2.1,2.2c0.1,1-0.5,2.1-1.5,2.6c-1.4,0.7-0.9,2.7,0.4,3.1
					c1.9,0.7,1.8,3.2,0,4.1c-1,0.5-1.1,1.9-0.3,2.7c1.1,1.1,2.5,2.7,1.6,4.2c-0.5,0.8-1.1,1.4-1.7,2.1c-0.6,0.7-1.3,1.4-2,2.1
					c-1.2,1.2-2.7,2.2-4.2,2.7c-1.7,0.5-3.4,0.3-5.1-0.3C146.4,151.5,144.7,150.1,143.3,148.6c-1.5-1.6-3.9,0.8-2.4,2.4
					c3.3,3.5,8.3,6,13.1,4.8c2.3-0.6,4.2-1.9,5.9-3.5c0.8-0.8,1.6-1.6,2.3-2.4c0.8-0.9,1.8-1.9,2.3-3c1.5-3-0.2-5.8-2.3-8
					c-0.1,0.9-0.2,1.8-0.3,2.7c1.9-1,3.3-3.2,3.1-5.3c-0.2-2.3-1.8-4.2-3.9-5c0.1,1,0.3,2.1,0.4,3.1c2.1-1.2,3.4-3.6,3.1-6
					c-0.3-2.4-2.2-4.5-4.5-5.1c0,1.1,0,2.2,0,3.3c2.4-0.4,3.5-3,3.2-5.2c-0.3-2.5-2.6-4.1-4.9-4.7c-4-0.9-8.4,0.2-11.9,2.1
					c-6.6,3.8-10.6,11.4-10.7,19c0,4.9,1.7,9.6,5,13.2c0.6,0.7,1.8,0.6,2.4,0C143.9,150.4,143.9,149.3,143.3,148.6z"/>
			</g>
		</g>
	</g>
	<g>
		<path class="st8" d="M227.2,187.4H187c-0.9,0-1.7-0.8-1.7-1.7s0.8-1.7,1.7-1.7h40.2c0.9,0,1.7,0.8,1.7,1.7
			C228.9,186.6,228.1,187.4,227.2,187.4z"/>
	</g>
	<g>
		<path class="st8" d="M209.6,199.5H183c-0.9,0-1.7-0.8-1.7-1.7s0.8-1.7,1.7-1.7h26.6c0.9,0,1.7,0.8,1.7,1.7
			S210.5,199.5,209.6,199.5z"/>
	</g>
	<g>
		<path class="st8" d="M215,211.6h-35.9c-0.9,0-1.7-0.8-1.7-1.7s0.8-1.7,1.7-1.7H215c0.9,0,1.7,0.8,1.7,1.7
			C216.7,210.9,216,211.6,215,211.6z"/>
	</g>
	<g>
		<path class="st8" d="M193.7,223.8h-18.6c-0.9,0-1.7-0.8-1.7-1.7s0.8-1.7,1.7-1.7h18.6c0.9,0,1.7,0.8,1.7,1.7
			S194.7,223.8,193.7,223.8z"/>
	</g>
</g>
<g>
	<g>
		<g>
			<path class="st0" d="M66.9,354.9c-8.7,2.8-18.4-3.2-22.5-11.4s-3.8-17.9-2.6-26.9c0.5-3.8,1.1-7.7,0.5-11.5
				c-1.1-6.6-6.2-12.6-12.8-14.2c-6.5-1.6-14,1.4-17.4,7.2s-1.9,14.1,3.4,18.2c-7.2,0.5-13.3,7.6-12.7,14.8s7.7,13.2,14.9,12.5
				c-4.3,1.6-6.2,7-5.1,11.5c1.1,4.4,4.6,7.9,8.3,10.6c14,9.9,34.2,10,48.2,0.2"/>
		</g>
		<g>
			<g>
				<path class="st1" d="M66.4,353.2c-3.5,1.1-7.3,0.7-10.7-0.9c-3.5-1.7-6.6-4.3-8.7-7.6c-5.1-7.9-4.8-18.1-3.8-27.1
					c0.6-5.1,1.6-10.2,0.1-15.2c-1.2-4-3.7-7.6-7.1-10.1c-3.3-2.5-7.4-3.8-11.5-3.5s-8.1,1.9-11.2,4.7c-6.2,5.7-6.6,15.6-1.3,22.1
					c0.6,0.7,1.3,1.4,2,2c0.4-1,0.8-1.9,1.2-2.9C9,315.2,3.5,319.9,1.6,326c-1.9,6.3,0.9,12.8,6.1,16.5c2.8,2,6.4,3.2,9.9,2.9
					c-0.2-1.1-0.3-2.2-0.5-3.4c-5.1,2-7.4,7.7-6.5,12.8c1,5.7,5.7,10.1,10.3,13.1c9.3,6.1,21,8.1,31.9,6.3c6.1-1,12-3.4,17-6.9
					c0.8-0.5,1.1-1.5,0.6-2.3c-0.4-0.8-1.6-1.1-2.3-0.6c-8.3,5.7-18.4,8-28.4,6.8c-4.8-0.6-9.6-2.1-13.9-4.3
					c-4.3-2.3-8.7-5.4-10.9-9.9c-1.1-2.2-1.4-4.6-0.8-6.8c0.3-1.1,0.8-2.2,1.4-2.9c0.2-0.2,0.4-0.5,0.6-0.7c0.1-0.1,0.2-0.2,0.3-0.2
					c0,0,0.4-0.3,0.2-0.2c0.4-0.3,1.1-0.7,1.4-0.8c0.8-0.3,1.4-1,1.2-1.9c-0.1-0.8-0.8-1.6-1.7-1.5c-5,0.4-9.8-2.5-12.1-7.1
					c-2.2-4.5-0.9-9.8,2.7-13.3c2-1.9,4.6-3.3,7.2-3.5c0.7-0.1,1.3-0.4,1.6-1.1c0.2-0.6,0.2-1.4-0.4-1.9c-5.6-4.5-6.3-13.3-1.4-18.4
					c2.4-2.6,5.9-4.2,9.4-4.5c3.6-0.3,7.1,0.8,9.9,3c3,2.4,5,5.6,5.8,9.2c1.1,4.8-0.2,9.9-0.7,14.7c-0.9,9.1-0.7,19.2,4.3,27.2
					c4.2,6.6,12.1,11.8,20.2,10.8c1-0.1,2-0.3,3-0.6c0.9-0.3,1.4-1.2,1.2-2.1C68.3,353.6,67.3,352.9,66.4,353.2L66.4,353.2z"/>
			</g>
		</g>
	</g>
	<g>
		<g>
			<path class="st2" d="M158.5,364.2c-1-0.9-2.1-1.7-3-2.7c-3.8-4.1-4.8-10-5.5-15.6c-2.2-16.5-4.5-33-6.7-49.4
				c-1.5-11.3-5.3-28.1-16.8-33.8c-8.2-4-17.6-4.5-26.7-4.3c-3.7,0.1-7.4,0.3-10.7,1.9c-3.5,1.7-6.1,4.9-8.5,7.9
				C68.3,283.4,56,297.5,48,315.4c-5.9,13.4-12,30.7-6.8,45.3c7,19.5,28.9,15.9,45.5,15.7c14.9-0.2,29.7-0.2,44.6-0.9
				c7.5-0.3,15-0.6,22.6-0.6c1.9,0,3.8,0,5.5-0.7c3.6-1.6,3.3-4.9,1.3-7.6C160.1,365.7,159.3,364.9,158.5,364.2z"/>
		</g>
		<g>
			<g>
				<path class="st1" d="M159.7,363c-1.3-1.1-2.7-2.2-3.7-3.6c-0.9-1.2-1.6-2.6-2.2-3.9c-1.1-3-1.7-6.3-2.1-9.5
					c-1.1-8-2.2-16.1-3.3-24.1c-1.1-8.1-2.2-16.1-3.3-24.2c-0.7-5.3-1.6-10.6-3.2-15.7c-1.6-5.3-3.9-10.5-7.4-14.8
					c-1.7-2-3.7-3.8-5.9-5.2c-2.9-1.8-6.3-2.9-9.7-3.7c-7.1-1.7-14.6-1.8-21.8-1.4c-3.7,0.2-7.4,0.8-10.5,2.9
					c-2.9,1.9-5.2,4.5-7.3,7.2c-9,11.2-18.4,22.2-25.9,34.5c-3.7,6.1-6.8,12.6-9.5,19.3c-2.7,6.6-4.9,13.4-5.9,20.5
					c-1.6,11.8,0.4,25.8,11.3,32.6c4.1,2.6,8.9,3.7,13.7,4.3c4.9,0.6,9.9,0.5,14.9,0.3c14.3-0.5,28.6-0.4,42.9-0.8
					c8-0.2,16.1-0.7,24.1-0.9c2,0,4-0.1,6-0.1c1.9,0,3.9,0.1,5.8-0.1c3.3-0.3,6.9-2,7.2-5.7C164.2,367.7,161.9,365,159.7,363
					c-0.7-0.6-1.7-0.7-2.4,0c-0.6,0.6-0.7,1.8,0,2.4c1.2,1,2.2,2.1,2.9,3.5c0.1,0.1,0.1,0.3,0.2,0.6c0,0.2,0.1,0.3,0.1,0.5
					c0.1,0.3,0,0.1,0,0c0,0.3,0,0.5,0,0.8c0-0.4-0.2,0.7-0.1,0.3c0,0.1-0.4,0.7-0.3,0.5c-0.1,0.1-0.2,0.3-0.4,0.4
					c-0.3,0.2-0.2,0.1-0.1,0.1c-0.6,0.5-1.4,0.7-2.1,0.9c-1.7,0.4-3.5,0.2-5.3,0.2c-7.8,0-15.6,0.4-23.5,0.7
					c-7.9,0.3-15.8,0.5-23.7,0.6c-7.2,0.1-14.3,0.1-21.5,0.3c-4.8,0.1-9.6,0.4-14.4,0.3c-1.2,0-2.4-0.1-3.6-0.2
					c-0.6,0-1.2-0.1-1.8-0.2c-0.3,0-0.6-0.1-0.8-0.1c-0.1,0-0.2,0-0.3,0c-0.2,0-0.2,0,0,0c-0.1,0-0.2,0-0.2,0
					c-2.2-0.3-4.5-0.8-6.6-1.6c-3.9-1.4-7.7-3.9-10.1-7.4c-3.4-4.9-4.7-11-4.7-17c0-6.9,1.6-13.6,3.7-20.1
					c2.1-6.4,4.8-12.7,7.9-18.7c6.5-12.3,15.2-23.2,23.9-34c2.2-2.7,4.3-5.4,6.5-8c2-2.5,4.3-4.9,7.3-6.2c3.1-1.3,6.6-1.4,9.9-1.5
					c3.5-0.1,7.1,0,10.6,0.3c3.4,0.3,6.8,0.9,10.1,1.9c1.6,0.5,3.2,1.1,4.7,1.9c0.5,0.3,1.1,0.6,1.6,0.9c0.3,0.2,0.5,0.3,0.7,0.5
					c0.1,0.1,0.3,0.2,0.4,0.3c0,0,0.4,0.3,0.2,0.2c2,1.5,3.6,3.4,4.9,5.3c0.7,1.1,1.4,2.2,2,3.4c0.6,1.1,1.2,2.4,1.6,3.4
					c2,4.8,3.2,10,4.1,15.1c1.2,6.9,1.9,13.9,2.9,20.8c1.1,7.8,2.1,15.6,3.2,23.5c0.5,3.7,1,7.5,1.5,11.2c0.5,3.2,1.2,6.4,2.5,9.3
					c0.6,1.4,1.4,2.7,2.4,3.9c1.1,1.4,2.4,2.4,3.7,3.6c0.7,0.6,1.7,0.7,2.4,0C160.3,364.8,160.4,363.6,159.7,363z"/>
			</g>
		</g>
	</g>
	<g>
		<g>
			<path class="st2" d="M172.6,227.1c-1.3-8.3-6.7-15.8-13.7-17.4c-1-0.2-2.1-0.3-3.2-0.4c-7.2-16-23.3-27.2-42-27.2
				c-25.4,0-46,20.6-46,46s20.6,46,46,46c5.6,0,11.1-1,16.1-2.9c7-0.6,13.9-2.5,20.3-5.8c6.5-3.3,12.7-8,17-14.6
				C171.5,244.2,173.9,235.4,172.6,227.1z"/>
		</g>
		<g>
			<g>
				<path class="st1" d="M174.2,226.7c-1.1-6.9-5.2-14.3-11.8-17.5c-2.2-1-4.4-1.4-6.8-1.6c0.5,0.3,1,0.6,1.5,0.8
					c-3.8-8.4-10.1-15.6-17.9-20.6c-8-5.1-17.5-7.7-27-7.4c-8.8,0.3-17.6,3-24.9,7.9c-7.2,4.8-13,11.5-16.7,19.3
					c-3.8,8.1-5.4,17.3-4.3,26.2c1.1,8.8,4.6,17.1,10.1,24.1c5.4,6.8,12.6,12,20.7,15c9.4,3.5,20,3.9,29.7,1.1c1.3-0.4,2.6-1,4-1.2
					c1.5-0.2,3.1-0.4,4.6-0.6c2.9-0.5,5.8-1.3,8.6-2.3c5.2-1.8,10.1-4.3,14.5-7.6c4.3-3.2,8.1-7.1,10.9-11.8
					c2.9-4.8,4.6-10.2,5.2-15.7C174.7,232.1,174.6,229.4,174.2,226.7c-0.1-0.9-1.3-1.4-2.1-1.2c-1,0.3-1.3,1.2-1.2,2.1
					c1.5,10.1-2.6,20.6-9.6,27.8c-7.3,7.5-17.6,12.1-27.9,13.8c-0.6,0.1-1.2,0.2-1.9,0.3c-0.8,0.1-1.6,0.1-2.4,0.3
					c-1.3,0.4-2.7,0.9-4,1.3c-2.7,0.7-5.4,1.2-8.1,1.4c-2.5,0.2-4.9,0.2-7.4-0.1c-2-0.2-3.9-0.5-6-1c-7.9-1.9-15.1-5.8-20.9-11.5
					c-5.8-5.7-9.9-12.8-11.9-20.6c-2.1-8.1-1.8-16.7,0.8-24.8c1.2-3.8,3-7.4,5.3-10.8c2.2-3.3,4.8-6.3,7.9-8.9
					c1.5-1.3,2.9-2.4,4.7-3.6c1.7-1.1,3.5-2.1,5.3-3s3.6-1.6,5.6-2.2c2-0.6,4-1.1,6.1-1.5c4.1-0.7,8.7-0.8,13.1-0.2
					c4.1,0.5,8.7,1.8,12.4,3.6c7.9,3.6,14.6,9.4,19.2,16.7c1.1,1.8,2.2,3.7,3,5.7c0.3,0.6,0.9,0.8,1.5,0.8c2.2,0.1,4.2,0.6,6,1.6
					c1.7,0.9,3,2.1,4.3,3.6c2.7,3.1,4.3,7.2,5,11.3c0.1,0.9,1.3,1.4,2.1,1.2C174,228.5,174.4,227.6,174.2,226.7z"/>
			</g>
		</g>
	</g>
	<g>
		<circle class="st1" cx="130.5" cy="214.4" r="3.7"/>
	</g>
	<g>
		<g>
			<path class="st0" d="M98,226.1c4.7-5.4,15.7-22.4,7-28.2c-7.6-5.1-22.3,1.1-29.8,3.8c-2.8,1-5.9,2.5-6.9,5.3
				c-0.7,1.9-0.3,3.9,0.1,5.9c1.2,5.2,3.1,10.4,6.6,14.3c3.6,3.9,9.2,6.4,14.3,5C92.8,231.3,95.7,228.8,98,226.1z"/>
		</g>
		<g>
			<g>
				<path class="st1" d="M99.2,227.3c2.1-2.3,3.8-4.9,5.4-7.6c1.9-3.2,3.6-6.6,4.6-10.3c0.9-3.2,1.2-6.8-0.4-9.8
					c-1.8-3.4-5.7-4.9-9.4-5.2c-4.2-0.4-8.6,0.5-12.6,1.6c-3.9,1.1-7.6,2.5-11.3,3.8c-2.2,0.8-4.3,1.6-6.1,3.1
					c-2.1,1.6-3.2,4-3.2,6.6s0.8,5.3,1.6,7.8c0.8,2.5,1.8,4.9,3.1,7.2c2.6,4.4,6.6,8,11.6,9.3c2.4,0.7,5.1,0.7,7.5,0
					c2.5-0.7,4.7-2.1,6.6-3.8C97.6,229.1,98.4,228.3,99.2,227.3c0.6-0.7,0.7-1.7,0-2.4c-0.6-0.6-1.8-0.7-2.4,0
					c-2.9,3.2-6.4,6.1-10.9,5.9c-4.1-0.2-8-2.7-10.6-6c-2.8-3.7-4.3-8.2-5.3-12.7c-0.3-1.1-0.5-2.3-0.4-3.5c0.1-0.9,0.5-1.7,1-2.3
					c1.2-1.4,3.1-2.3,4.8-2.9c3.3-1.2,6.7-2.5,10.1-3.5c3.8-1.2,7.6-2.1,11.5-2.2c0.9,0,1.8,0,2.6,0.1c0.4,0,0.1,0,0.1,0
					c0.1,0,0.2,0,0.3,0.1c0.2,0,0.4,0.1,0.6,0.1c0.4,0.1,0.8,0.2,1.2,0.3c0.2,0.1,0.4,0.1,0.6,0.2c0.1,0,0.2,0.1,0.2,0.1
					c0.3,0.1-0.2-0.1,0,0c0.4,0.2,0.7,0.4,1.1,0.6c0.2,0.1,0.3,0.2,0.5,0.3c0.3,0.2-0.1-0.1,0.1,0.1c0.3,0.2,0.5,0.5,0.8,0.8
					c0.1,0.1,0.1,0.1,0.2,0.2c0,0-0.2-0.2-0.1-0.1c0.1,0.1,0.2,0.2,0.3,0.4c0.2,0.3,0.3,0.6,0.5,0.9c-0.1-0.3,0,0,0,0.1
					s0.1,0.3,0.1,0.4c0.1,0.3,0.2,0.7,0.2,1c-0.1-0.3,0,0,0,0.2s0,0.3,0,0.5c0,0.4,0,0.8,0,1.1s-0.1,0.7-0.1,1c0-0.3,0,0.1,0,0.2
					c0,0.2-0.1,0.5-0.1,0.7c-0.3,1.6-0.8,3.1-1.4,4.6c-0.2,0.4-0.2,0.4-0.4,0.9c-0.2,0.4-0.4,0.8-0.5,1.2c-0.4,0.8-0.8,1.5-1.2,2.3
					c-0.8,1.5-1.7,2.9-2.6,4.3c-0.4,0.6-0.8,1.2-1.2,1.8c-0.2,0.3-0.4,0.6-0.6,0.8c-0.1,0.1-0.2,0.2-0.3,0.4c0.2-0.3,0,0-0.1,0.2
					c-0.3,0.4-0.7,0.9-1.1,1.3c-0.6,0.7-0.7,1.7,0,2.4C97.4,228,98.6,228,99.2,227.3z"/>
			</g>
		</g>
	</g>
	<g>
		<g>
			<path class="st1" d="M168.9,219.3c0.2-0.5,0.3-0.9,0.2-1.4c-0.1-1.1-1-1.9-2-2.3c-3-1.1-7.9-0.1-10.9,0.7
				c-0.4,0.1-0.9,0.3-1.1,0.7c-0.6,0.9,0.3,2.1,1.1,2.7c2.1,1.7,4.3,3.5,6.9,3.6C165,223.3,168.1,221.5,168.9,219.3z"/>
		</g>
		<g>
			<g>
				<path class="st1" d="M170.6,219.8c0.6-1.7,0.2-3.5-1.1-4.7c-1.2-1.1-2.6-1.4-4.2-1.6c-2.7-0.3-5.6,0.2-8.2,0.9
					c-1.5,0.4-3.2,0.7-3.7,2.4s0.6,3.3,1.8,4.3c2.3,1.9,5.1,4.1,8.2,3.9C166.5,224.8,169.4,222.6,170.6,219.8
					c0.4-0.9-0.4-1.9-1.2-2.1c-1-0.3-1.7,0.3-2.1,1.2c0.1-0.2-0.1,0.2-0.2,0.3c0,0.1-0.3,0.4-0.2,0.3c-0.3,0.3-0.7,0.7-0.9,0.9
					c-0.6,0.5-1.4,0.9-2.1,1.1c-0.1,0-0.7,0.1-0.3,0.1c-0.1,0-0.3,0-0.4,0c-0.5,0-1-0.1-1.5-0.3c-1-0.4-1.9-1-2.7-1.6
					s-1.6-1.2-2.1-1.9c-0.2-0.3,0-0.1-0.1,0c0,0-0.3,0.4-0.3,0.3c0,0,1.2-0.3,1.3-0.4c2-0.5,3.9-0.9,6-0.9c1.1,0,1.9,0,2.9,0.4
					c0.3,0.1,0.6,0.3,0.8,0.6s0.2,0.6,0,1.1c-0.3,0.9,0.3,1.9,1.2,2.1C169.4,221.2,170.3,220.6,170.6,219.8z"/>
			</g>
		</g>
	</g>
	<g>
		<g>
			<path class="st2" d="M118.4,324.6c1.1,8.2,2.4,16.4,4.3,24.4c1.4,6.1,3.1,12.2,8.1,16.4c2.1,1.7,4.8,3.4,4.9,6.1
				c0.1,3.9-5,5.2-8.9,5.4c-6.8,0.2-14.3,0.2-19.7-4c-1.9-1.5-3.4-3.4-4.7-5.4c-7.6-11.2-12-24.5-12.6-38.1"/>
		</g>
		<g>
			<g>
				<path class="st1" d="M116.7,324.6c1.3,9.6,2.7,19.3,5.3,28.7c1.1,4,2.6,7.8,5.3,11c1.3,1.5,2.8,2.7,4.3,3.9
					c0.3,0.3,0.7,0.6,1,0.9s0.6,0.7,0.7,0.8c0.2,0.3,0.4,0.6,0.5,0.8c0.2,0.5,0.1,0.5,0.1,1c0,0.3,0,0.1,0,0c0,0.1,0,0.2,0,0.2
					c0,0.1-0.1,0.5-0.1,0.3c0.1-0.1-0.1,0.3-0.2,0.3c0,0.1-0.1,0.1-0.1,0.2c-0.1,0.2,0.3-0.2-0.1,0.1c-0.1,0.1-0.2,0.2-0.3,0.3
					c-0.1,0.1-0.4,0.3-0.1,0.1c-0.3,0.2-0.6,0.4-1,0.6c-0.1,0.1-0.2,0.1-0.3,0.1c0,0-0.3,0.1-0.1,0.1c0.1-0.1-0.1,0-0.1,0
					c-0.1,0-0.2,0.1-0.3,0.1c-0.4,0.1-0.8,0.3-1.2,0.4s-0.7,0.2-1.1,0.2c-0.1,0-0.2,0-0.4,0.1c0,0,0.2,0,0,0s-0.5,0.1-0.7,0.1
					c-1.9,0.2-3.9,0.2-5.9,0.1c-2,0-4-0.1-5.9-0.5c-1.9-0.3-3.8-0.9-5.5-1.8c-1.9-1-3.4-2.3-4.7-3.9c-2.8-3.3-5-7.3-6.9-11.2
					c-3.9-7.9-6.3-16.5-7.1-25.2c-0.1-1.1-0.2-2.2-0.2-3.3c0-0.9-0.8-1.7-1.7-1.7c-0.9,0-1.7,0.8-1.7,1.7c0.4,9.5,2.6,18.8,6.4,27.5
					c1.9,4.2,4.1,8.3,6.8,12.1c1.4,2,3,3.9,4.9,5.4c1.7,1.3,3.7,2.3,5.8,3c4.2,1.3,8.6,1.4,13,1.3c3.6-0.1,7.7-0.3,10.5-2.9
					c1.4-1.2,2.1-3.1,1.8-4.9c-0.3-2.1-1.7-3.7-3.2-5c-1.6-1.3-3.1-2.5-4.4-4.1c-1.2-1.5-2.1-3.2-2.8-4.9c-1.7-4.2-2.6-8.7-3.5-13
					c-1.1-5.1-1.9-10.3-2.7-15.5c-0.2-1.2-0.3-2.5-0.5-3.7c-0.1-0.9-0.7-1.7-1.7-1.7C117.5,322.9,116.5,323.7,116.7,324.6
					L116.7,324.6z"/>
			</g>
		</g>
	</g>
	<g>
		<g>
			<path class="st1" d="M135.6,307.9c-0.3,1.1-0.9,2.1-1.7,2.9s-1.7,1.3-2.8,1.7c-1.2,0.5-2.3,1.4-2.6,2.6c-0.4,1.6,0.4,2.8,1.3,4.1
				c0.1,0.2,0.3,0.4,0.4,0.6c0.3,0.5,0-0.2,0.1,0.1c0,0.1,0.1,0.2,0.1,0.3c0.2,0.6,0.2,0.6,0.1,1.3c0,0.1,0,0.2,0,0.3
				c0-0.1,0.1-0.3,0,0c-0.1,0.2-0.1,0.4-0.2,0.7c0,0.1-0.1,0.2-0.1,0.3c-0.2,0.5,0.1-0.1-0.1,0.1c-0.1,0.3-0.3,0.5-0.4,0.7
				c-0.1,0.2-0.4,0.5-0.8,0.9c0,0-0.3,0.2,0,0c-0.1,0.1-0.2,0.1-0.3,0.2s-0.2,0.1-0.3,0.2c-0.3,0.2,0.1,0-0.2,0.1
				c-1.1,0.4-2.3,0.3-3.4,0.7c-0.8,0.3-1.5,0.8-2,1.6c-0.5,0.7-0.5,1.5-0.9,2.3c-0.4,0.9-1.3,1.6-2.4,1.8c-0.9,0.2-1.4,1.2-1.2,2.1
				c0.3,0.9,1.2,1.4,2.1,1.2c1.4-0.3,2.7-1.1,3.6-2.2c0.5-0.6,0.8-1.2,1.1-1.9c0.2-0.5,0.3-1.2,0.5-1.5c-0.1,0.2,0.1-0.1,0.2-0.1
				c0.3-0.1-0.4,0.1,0.2-0.1c0.3-0.1,0.5-0.1,0.8-0.2c0.6-0.1,1.3-0.2,2-0.3c1.1-0.3,2.2-1,3-1.8c1.7-1.8,2.5-4.4,2.1-6.8
				c-0.2-1.3-0.9-2.2-1.6-3.2c-0.1-0.1-0.2-0.3-0.3-0.4c0,0-0.2-0.3-0.1-0.1c-0.3-0.4,0-0.2,0-0.1v0.1c-0.1,0.1-0.1,0.1,0,0
				c0,0-0.1,0,0.1-0.1c-0.1,0-0.2,0.2,0.1,0s0.5-0.3,0.8-0.4c1.4-0.6,2.6-1.3,3.7-2.5c1.1-1.2,1.9-2.7,2.4-4.3
				c0.3-0.9-0.3-1.9-1.2-2.1C136.8,306.4,135.9,307,135.6,307.9L135.6,307.9z"/>
		</g>
	</g>
	<g>
		<g>
			<path class="st7" d="M127,284.3c0.1-0.4,0.2-0.7,0.3-1.1c1-2.7,2.9-4.6,3.5-7.6c0.2-0.9,0.3-1.9,0.8-2.7c0.5-0.8,1.5-1.4,2.4-1
				c0.6,0.2,0.9,0.8,1.2,1.4c0.4,0.9,0.7,1.9,0.8,2.9c0,0.3,0.1,0.7,0.2,1c0.3,0.9,1.2,1.5,1.9,2.1c2.8,2.1,5,5,4,8.7
				c-1.1,4.1-5.9,6.7-9.9,5.4C128.4,292.1,126.3,288.1,127,284.3z"/>
		</g>
		<g>
			<g>
				<path class="st1" d="M128.7,284.7c0.4-1.8,1.4-3.3,2.3-4.9c0.5-0.9,0.9-1.8,1.2-2.7c0.3-0.9,0.4-1.9,0.7-2.9
					c0.1-0.3,0.2-0.6,0.3-0.7s0.2-0.1,0.3-0.2c0,0-0.1,0-0.2,0c0.5,0.4,0.7,1.5,0.9,2.2c0.3,1,0.2,2.1,0.9,3c0.6,0.9,1.4,1.4,2.2,2
					c1.3,1,2.4,2.1,3.1,3.6c0.3,0.6,0.4,1.3,0.4,2s-0.3,1.5-0.5,2c-0.7,1.4-1.6,2.3-3,3c-0.5,0.3-1.2,0.5-2,0.7
					c-0.2,0-0.5,0.1-0.8,0.1c-0.2,0-0.4,0-0.6,0c-0.1,0-0.2,0-0.3,0c-0.3,0,0.2,0-0.1,0c-1.7-0.3-3.1-1.2-3.9-2.5
					C128.7,287.9,128.4,286.3,128.7,284.7c0.2-0.9-0.3-1.8-1.2-2.1c-0.8-0.2-1.9,0.3-2.1,1.2c-0.8,4.3,1.2,8.8,5.3,10.7
					c3.9,1.7,8.7,0.5,11.4-2.8c1.4-1.7,2.3-3.9,2.1-6.2c-0.2-2.3-1.3-4.3-2.9-5.9c-0.8-0.8-1.7-1.5-2.6-2.2
					c-0.2-0.2-0.6-0.5-0.8-0.7c-0.2-0.3-0.2-1.1-0.3-1.6c-0.5-2.4-1.9-5.8-5-5c-1.5,0.4-2.6,1.7-3,3.2c-0.4,1.2-0.4,2.5-0.9,3.6
					c-1,2.4-2.7,4.4-3.3,6.9c-0.2,0.9,0.3,1.8,1.2,2.1C127.4,286.2,128.5,285.6,128.7,284.7z"/>
			</g>
		</g>
	</g>
	<g>
		<g>
			<path class="st1" d="M122,372.7c0.3,0.1,0.5,0.3,0.7,0.4c-0.1-0.1-0.2-0.2-0.3-0.3c0.3,0.2,0.6,0.5,0.8,0.8
				c-0.1-0.1-0.2-0.2-0.3-0.3c0.2,0.3,0.5,0.7,0.6,1c-0.1-0.1-0.1-0.3-0.2-0.4c0.2,0.4,0.3,0.8,0.3,1.2c0-0.2,0-0.3-0.1-0.5
				c0,0.3,0.1,0.6,0,1c0,0.4,0.2,0.9,0.5,1.2c0.3,0.3,0.8,0.5,1.2,0.5c0.4,0,0.9-0.2,1.2-0.5c0.3-0.3,0.5-0.7,0.5-1.2
				c0.2-2.4-1.2-4.9-3.3-5.9c-0.4-0.2-0.9-0.3-1.3-0.2c-0.4,0.1-0.8,0.4-1,0.8C121,371.1,121.2,372.3,122,372.7L122,372.7z"/>
		</g>
	</g>
	<g>
		<g>
			<path class="st1" d="M150.3,370.2c0.4,0.3,0.7,0.7,1,1.1c-0.1-0.1-0.2-0.2-0.3-0.3c0.5,0.6,0.9,1.3,1.2,2
				c-0.1-0.1-0.1-0.3-0.2-0.4c0.1,0.2,0.2,0.5,0.3,0.7c0.1,0.4,0.4,0.8,0.8,1c0.4,0.2,0.9,0.3,1.3,0.2c0.4-0.1,0.8-0.4,1-0.8
				s0.3-0.9,0.2-1.3c-0.6-1.8-1.6-3.4-2.9-4.7c-0.3-0.3-0.8-0.5-1.2-0.5s-0.9,0.2-1.2,0.5s-0.5,0.8-0.5,1.2
				C149.9,369.5,150,369.9,150.3,370.2L150.3,370.2z"/>
		</g>
	</g>
	<g>
		<g>
			<path class="st1" d="M97.3,376.2c1.4-3.3,0.6-6.9-1.6-9.7c-2.1-2.6-5.3-4.1-8.5-5c0.4,0.5,0.8,1.1,1.3,1.6
				c0.1-12.2-2.3-25.1-11.2-34.1c-2.2-2.2-4.8-4.1-7.6-5.5c-0.8-0.4-1.9-0.2-2.3,0.6c-0.4,0.8-0.2,1.9,0.6,2.3
				c4.6,2.3,8.4,5.9,11.1,10.2c3.1,4.9,4.7,10.4,5.5,16.1c0.5,3.4,0.6,6.9,0.6,10.3c0,0.8,0.5,1.4,1.3,1.6c2.4,0.7,4.8,1.7,6.6,3.6
				c1.4,1.6,2.3,4.1,1.5,6c-0.4,0.8-0.3,1.8,0.6,2.3C95.7,377.3,96.9,377.1,97.3,376.2L97.3,376.2z"/>
		</g>
	</g>
	<g>
		<g>
			<path class="st1" d="M84.5,372.3c0.2,0.1,0.3,0.2,0.5,0.3c-0.1-0.1-0.2-0.2-0.3-0.3c0.5,0.4,0.9,0.8,1.2,1.3
				c-0.1-0.1-0.2-0.2-0.3-0.3c0.4,0.5,0.7,1,0.9,1.5c-0.1-0.1-0.1-0.3-0.2-0.4c0.2,0.4,0.3,0.7,0.4,1.1c0.2,0.9,1.2,1.5,2.1,1.2
				s1.4-1.2,1.2-2.1c-0.5-2.2-1.9-4.1-3.8-5.3c-0.8-0.5-1.9-0.2-2.3,0.6C83.4,370.9,83.6,371.8,84.5,372.3L84.5,372.3z"/>
		</g>
	</g>
	<g>
		<g>
			<path class="st9" d="M143,230c-3.1,0.4-6.2,1.2-8.5,3.3s-3.4,5.7-1.8,8.4c1.3,2.3,4.2,3.2,6.9,3.1c5.5-0.2,10.6-4.6,11.7-10"/>
		</g>
		<g>
			<g>
				<path class="st1" d="M143,228.3c-3.6,0.5-7.2,1.3-9.9,3.9c-2.3,2.2-3.6,5.8-2.6,8.9c1.1,3.4,4.4,5.1,7.8,5.4
					c3.1,0.3,6.3-0.8,8.8-2.6c2.9-2.1,5-5.1,5.7-8.6c0.2-0.9-0.3-1.8-1.2-2.1c-0.8-0.2-1.9,0.3-2.1,1.2c-0.9,4.5-4.9,8.3-9.4,8.7
					c-2.2,0.2-4.7-0.3-5.9-2.1c-1.1-1.7-0.6-4.1,0.8-5.7c1.9-2.3,5.2-3.1,8-3.5c0.9-0.1,1.7-0.7,1.7-1.7
					C144.7,229.1,143.9,228.1,143,228.3L143,228.3z"/>
			</g>
		</g>
	</g>
	<g>
		<g>
			<path class="st1" d="M145.2,231.2c-2.3,1.6-4.5,3.3-6.8,4.9c-0.4,0.3-0.7,0.6-0.8,1s-0.1,1,0.2,1.3c0.5,0.7,1.6,1.2,2.3,0.6
				c2.3-1.6,4.5-3.3,6.8-4.9c0.4-0.3,0.7-0.6,0.8-1s0.1-1-0.2-1.3C147.1,231.1,146,230.6,145.2,231.2L145.2,231.2z"/>
		</g>
	</g>
	<g>
		<g>
			<path class="st1" d="M141.3,230.1c5.8,6.5,16.3,8.1,23.8,3.7c1.9-1.1,0.2-4.1-1.7-3c-1.6,0.9-3.2,1.5-5.1,1.8
				c-1.4,0.2-3.7,0.2-5.1,0c-3.7-0.6-6.9-2.3-9.4-5c-0.6-0.7-1.8-0.6-2.4,0C140.6,228.4,140.7,229.5,141.3,230.1L141.3,230.1z"/>
		</g>
	</g>
	<g>
		<g>
			<path class="st3" d="M92.3,270.1c-3.3-0.8-6.6-1.6-9.9-2.3c-0.6-0.1-1.2-0.3-1.6-0.7c-0.4-0.4-0.5-0.9-0.7-1.4
				c-0.8-2.6-2.4-5.9-1.1-8.6c9.9,1.2,19.8,5,29.6,7.1c7.2,1.6,14.5,3,21.9,3.8c3.5,0.4,7.5-0.1,10.8,0.6c0.4,2.5,0,5.4-0.5,7.9
				c-0.1,0.4-0.2,0.8-0.5,1.1c-0.3,0.2-0.6,0.3-1,0.3c-11.1,1.3-22.5-2.1-33.2-4.6C101.5,272.2,96.9,271.1,92.3,270.1z"/>
		</g>
		<g>
			<g>
				<path class="st1" d="M92.7,268.4c-1.9-0.5-3.9-0.9-5.8-1.4c-0.9-0.2-1.8-0.4-2.8-0.6c-0.5-0.1-0.9-0.2-1.4-0.3
					c-0.2-0.1-0.7-0.1-0.8-0.3c-0.3-0.3-0.4-1.1-0.6-1.5c-0.3-0.8-0.5-1.5-0.8-2.3c-0.4-1.3-0.7-2.8-0.2-4c-0.5,0.3-1,0.6-1.5,0.8
					c8.2,1,16,3.7,23.9,5.8c8.1,2.2,16.5,3.7,24.8,4.8c2.3,0.3,4.5,0.5,6.8,0.5c2.1,0,4.2-0.1,6.3,0.3c-0.4-0.5-0.8-1.1-1.3-1.6
					c0.2,1.7,0.2,3.5-0.1,5.2c-0.1,0.8-0.2,1.6-0.4,2.4c0,0.1-0.1,0.3,0,0.3c-0.3,0,0.2-0.2,0.2-0.2c0,0.1-1.1,0.1-1.3,0.1
					c-3.7,0.3-7.4,0.1-11-0.3c-7.3-0.9-14.4-3-21.5-4.6C101.2,270.4,97,269.4,92.7,268.4c-0.9-0.2-1.9,0.3-2.1,1.2
					c-0.2,0.9,0.3,1.9,1.2,2.1c7.9,1.8,15.7,3.8,23.6,5.6c7.7,1.8,15.7,3.3,23.6,2.4c1.2-0.1,2.3-0.4,3-1.5c0.5-0.9,0.6-2,0.7-2.9
					c0.3-2.2,0.6-4.4,0.3-6.6c-0.1-0.7-0.5-1.5-1.3-1.6c-3.9-0.7-8-0.2-12-0.7c-4.2-0.5-8.4-1.2-12.6-1.9c-4.1-0.8-8.3-1.6-12.3-2.7
					c-4-1-8-2.2-12-3.3c-4.6-1.2-9.2-2.3-13.9-2.9c-0.5-0.1-1.2,0.4-1.5,0.8c-0.9,1.9-0.9,3.9-0.4,6c0.2,0.9,0.5,1.8,0.8,2.7
					c0.3,0.9,0.5,1.9,1.1,2.7c0.6,1,1.6,1.4,2.7,1.7c1.1,0.3,2.2,0.5,3.3,0.8c2.3,0.5,4.5,1.1,6.8,1.6c0.9,0.2,1.9-0.3,2.1-1.2
					C94.2,269.7,93.6,268.6,92.7,268.4z"/>
			</g>
		</g>
	</g>
</g>
<g>
	<g>
		<g>
			<g>
				<path class="st10" d="M457.8,346.9c-4.7-7.9-11-15-18.2-20.7c-3.3,9.7-7.7,19-12.9,27.8c4.3,2.4,8.5,5.1,12.5,8
					c1.6,1.2,3.4,2.4,5.3,2.1c1.4-0.2,2.5-1.3,3.5-2.3c2.7-2.7,10.5-8,10.6-12.3C458.7,348.5,458.2,347.6,457.8,346.9z"/>
			</g>
			<g>
				<g>
					<path class="st1" d="M459.2,346c-4.8-8.1-11.1-15.2-18.4-21.1c-1-0.8-2.4-0.5-2.9,0.8c-3.3,9.5-7.6,18.7-12.7,27.4
						c-0.5,0.8-0.2,1.9,0.6,2.3c3.3,1.8,6.6,3.8,9.7,6c2.8,1.9,6.1,5.3,9.8,4.2c1.6-0.5,2.8-1.7,4-2.8c0.8-0.8,1.7-1.5,2.5-2.2
						c2-1.7,4.1-3.4,5.8-5.5c1-1.2,1.8-2.4,2.3-3.8C460.7,349.4,460.2,347.7,459.2,346c-1.1-1.9-4.1-0.2-3,1.7
						c0.4,0.6,0.6,1.1,0.7,1.8c0,0.1-0.1,0.3,0-0.1c0,0.1,0,0.2-0.1,0.3c-0.1,0.3-0.2,0.5-0.3,0.8c0.1-0.3-0.1,0.3-0.2,0.3
						c-0.1,0.2-0.2,0.4-0.4,0.6c-0.3,0.5-0.5,0.8-0.9,1.2c-1.6,1.9-3.5,3.5-5.3,5.1c-0.8,0.7-1.6,1.4-2.4,2.1
						c-0.9,0.8-1.6,1.7-2.6,2.3c-1.2,0.6-2.3,0-3.3-0.6c-1.4-0.9-2.7-1.9-4.1-2.9c-3.2-2.2-6.5-4.3-9.9-6.1c0.2,0.8,0.4,1.6,0.6,2.3
						c5.3-8.9,9.7-18.4,13.1-28.2c-1,0.3-1.9,0.5-2.9,0.8c7.1,5.7,13.2,12.6,17.9,20.4C457.4,349.6,460.4,347.9,459.2,346z"/>
				</g>
			</g>
		</g>
		<g>
			<g>
				<path class="st5" d="M412.7,312.2l-13.6,31c9.6,2.4,18.9,6,27.6,10.8c5.2-8.8,9.5-18.1,12.9-27.8
					C431.6,319.8,422.5,315,412.7,312.2z"/>
			</g>
			<g>
				<g>
					<path class="st1" d="M411.2,311.3c-1.5,3.5-3.1,7-4.6,10.5c-2.4,5.5-4.9,11.1-7.3,16.6c-0.6,1.3-1.1,2.6-1.7,3.8
						c-0.4,1-0.2,2.2,1,2.5c9.5,2.3,18.6,5.9,27.2,10.6c0.8,0.4,1.9,0.2,2.3-0.6c5.3-8.9,9.7-18.4,13.1-28.2c0.2-0.5,0-1.3-0.4-1.7
						c-8.2-6.5-17.5-11.5-27.6-14.4c-2.1-0.6-3,2.7-0.9,3.3c9.5,2.7,18.4,7.4,26.1,13.5c-0.1-0.6-0.3-1.1-0.4-1.7
						c-3.3,9.5-7.6,18.7-12.7,27.4c0.8-0.2,1.6-0.4,2.3-0.6c-8.8-4.8-18.2-8.6-28-11c0.3,0.8,0.7,1.7,1,2.5c1.5-3.5,3.1-7,4.6-10.5
						c2.4-5.5,4.9-11.1,7.3-16.6c0.6-1.3,1.1-2.6,1.7-3.8c0.4-0.8,0.2-1.8-0.6-2.3C412.9,310.2,411.6,310.4,411.2,311.3z"/>
				</g>
			</g>
		</g>
	</g>
	<g>
		<g>
			<path class="st2" d="M443,358.3c4.7-2.5,7-6.5,7.6-11.8c0.2-2.1,0.9-4.3,2.7-5.5c1.6-1.1,3.7-1,5.6-0.5c5.3,1.4,7.2,1.7,12.6,0.3
				c3.5-0.9,7.3-1.9,10.8-0.6c4.7,1.8,6.9,8.4,4.2,12.7c-3,4.9-10.7,8.8-15.1,12.6c-6.2,5.5-13.8,13.9-22.8,9.2
				c-3.5-1.8-6.2-4.8-8.8-7.7c-1.1-1.2-2.2-2.6-2.1-4.2c0.2-2.3,2.8-3.4,4.9-4.4C442.7,358.5,442.9,358.4,443,358.3z"/>
		</g>
		<g>
			<g>
				<path class="st1" d="M443.9,359.8c3.8-2.1,6.5-5.4,7.8-9.6c0.6-2,0.5-4.1,1.3-6c0.4-0.9,0.9-1.7,1.8-2.1s1.9-0.4,2.8-0.2
					c2.3,0.4,4.5,1.2,6.9,1.4c2.2,0.2,4.4-0.2,6.5-0.7c2.5-0.6,5-1.4,7.7-1.4c0.5,0,1,0,1.5,0.1c0.3,0.1,0.7,0.1,1,0.2
					c0.2,0,0.3,0.1,0.5,0.2c0,0,0.4,0.1,0.2,0.1c0.4,0.2,0.8,0.4,1.1,0.6c0.3,0.2,0.1,0,0.3,0.2c0.2,0.2,0.4,0.3,0.6,0.5
					c0.1,0.1,0.3,0.3,0.4,0.4s0.2,0.2,0.2,0.3c-0.1-0.2,0,0.1,0,0.1c0.3,0.4,0.5,0.8,0.7,1.2c0.2,0.5,0.2,0.4,0.4,0.9
					c0.1,0.4,0.3,0.9,0.3,1.4c0.1,0.3,0,0.1,0,0.1c0,0.1,0,0.2,0,0.4c0,0.2,0,0.4,0,0.6s0,0.4,0,0.6c0,0.1,0,0.2,0,0.3
					c0,0.5,0-0.2,0,0.2c-0.2,1-0.4,1.5-0.8,2.3c-0.5,0.8-0.9,1.3-1.6,2c-0.7,0.8-1.5,1.5-2.3,2.2c-1.7,1.4-3.5,2.6-5.3,3.9
					c-1.8,1.2-3.6,2.5-5.2,3.9c-1.6,1.3-3,2.7-4.5,4.1c-3,2.7-6.3,5.4-10.2,6.3c-1.8,0.4-3.7,0.3-5.6-0.4c-2.1-0.8-4-2.3-5.6-3.8
					c-0.9-0.9-1.8-1.8-2.6-2.7c-0.8-0.8-1.6-1.6-2.2-2.5c-0.3-0.4-0.6-0.8-0.6-1.3c0-0.2,0-0.4,0-0.5c0,0.2,0-0.1,0-0.1
					c0.1-0.3,0,0,0.1-0.2c0.3-0.7,0.9-1.1,1.7-1.5C442.1,360.7,443,360.3,443.9,359.8c0.8-0.4,1.1-1.6,0.6-2.3
					c-0.5-0.8-1.5-1-2.3-0.6c-2,1-4.2,1.9-5.5,3.9c-1.6,2.7-0.1,5.4,1.7,7.4c3.4,3.9,7.4,8.2,12.6,9.4c4.7,1.1,9.2-0.7,13-3.4
					c3.7-2.6,6.8-6.1,10.3-8.7c3.8-2.9,8-5.3,11.3-8.7c1.5-1.5,2.9-3.4,3.4-5.5c0.5-2,0.4-4.3-0.3-6.3c-0.8-2.1-2-3.9-3.8-5.2
					c-2.1-1.5-4.9-2-7.4-1.8c-2.9,0.2-5.7,1.1-8.5,1.7c-1.1,0.2-2,0.4-3.1,0.4s-1.9-0.1-2.9-0.3c-2.7-0.5-5.3-1.6-8.1-1.2
					c-2.8,0.5-4.6,2.6-5.4,5.2c-0.4,1.1-0.4,2.4-0.6,3.4c-0.2,1.1-0.5,2.1-0.9,3.2c-0.6,1.7-1.8,3.3-3.2,4.7
					c-0.7,0.6-1.6,1.2-2.6,1.7C440.2,357.9,441.9,360.9,443.9,359.8z"/>
			</g>
		</g>
	</g>
	<g>
		<g>
			<g>
				<path class="st10" d="M469.4,285.2c-8-4.6-16.9-7.6-26-9c1.9,10.1,2.7,20.3,2.5,30.5c4.9-0.1,9.9,0.2,14.8,0.8
					c1.9,0.2,4.1,0.4,5.6-0.8c1.1-0.9,1.5-2.4,1.9-3.7c1-3.7,5.2-12.1,3.2-16C471.1,286.1,470.2,285.6,469.4,285.2z"/>
			</g>
			<g>
				<g>
					<path class="st1" d="M470.3,283.7c-8.2-4.6-17.2-7.7-26.5-9.2c-1.3-0.2-2.4,0.7-2.1,2.1c1.8,9.9,2.7,20,2.5,30.1
						c0,0.9,0.8,1.7,1.7,1.7c4.1,0,8.1,0.1,12.2,0.5c3.3,0.3,7.6,1.4,10.1-1.6c1-1.2,1.4-2.7,1.9-4.2c0.3-1.1,0.7-2.1,1.1-3.2
						c0.9-2.5,1.9-5.1,2.3-7.7c0.2-1.5,0.4-3,0-4.4C473.1,285.8,471.9,284.6,470.3,283.7c-1.9-1.1-3.6,1.9-1.7,3
						c0.5,0.3,1,0.6,1.3,1c0.1,0.1,0.1,0.2,0.2,0.3c0.2,0.4-0.1-0.2,0,0s0.1,0.5,0.2,0.7c0.1,0.3,0,0.1,0,0c0,0.2,0,0.3,0,0.5
						s0,0.4,0,0.6c0,0.3,0,0.5,0,0.8c0,0.1,0,0.3,0,0.4s0,0.1,0,0c0,0.1,0,0.2,0,0.3c-0.4,2.4-1.3,4.8-2.1,7.1c-0.4,1-0.7,2-1.1,3
						c-0.3,1-0.5,2.2-1,3.1c-0.6,1.1-1.5,1.4-2.8,1.4c-1.6,0-3.2-0.3-4.8-0.4c-4.1-0.4-8.3-0.6-12.4-0.5c0.6,0.6,1.1,1.1,1.7,1.7
						c0.2-10.4-0.7-20.8-2.6-31c-0.7,0.7-1.4,1.4-2.1,2.1c9,1.4,17.7,4.4,25.6,8.9C470.5,287.7,472.2,284.8,470.3,283.7z"/>
				</g>
			</g>
		</g>
		<g>
			<g>
				<path class="st5" d="M413.1,277.3l3.5,33.6c9.5-2.7,19.4-4.1,29.3-4.3c0.2-10.2-0.7-20.5-2.5-30.5
					C433.4,274.6,423,274.9,413.1,277.3z"/>
			</g>
			<g>
				<g>
					<path class="st1" d="M411.4,277.3c0.4,3.8,0.8,7.6,1.2,11.4c0.6,6,1.2,12.1,1.9,18.1c0.1,1.4,0.3,2.8,0.4,4.2
						c0.1,1.1,1,2,2.2,1.6c9.4-2.7,19.1-4.1,28.9-4.2c0.9,0,1.7-0.8,1.7-1.7c0.2-10.4-0.7-20.8-2.6-31c-0.1-0.5-0.7-1.1-1.2-1.2
						c-10.4-1.6-20.9-1.3-31.2,1.1c-2.1,0.5-1.2,3.8,0.9,3.3c9.6-2.3,19.6-2.7,29.3-1.1c-0.4-0.4-0.8-0.8-1.2-1.2
						c1.8,9.9,2.7,20,2.5,30.1c0.6-0.6,1.1-1.1,1.7-1.7c-10.1,0.1-20.1,1.6-29.8,4.3c0.7,0.5,1.4,1.1,2.2,1.6
						c-0.4-3.8-0.8-7.6-1.2-11.4c-0.6-6-1.2-12.1-1.9-18.1c-0.1-1.4-0.3-2.8-0.4-4.2c-0.1-0.9-0.7-1.7-1.7-1.7
						C412.3,275.6,411.3,276.4,411.4,277.3z"/>
				</g>
			</g>
		</g>
	</g>
	<g>
		<g>
			<path class="st2" d="M462.3,302.5c2.8-4.5,2.9-9.1,0.8-14.1c-0.8-1.9-1.3-4.2-0.4-6.1c0.9-1.7,2.8-2.7,4.6-3.2
				c5.3-1.4,7.1-2.1,11.1-6c2.6-2.6,5.5-5.3,9.1-5.8c5-0.7,10.2,3.9,10,9c-0.2,5.7-5,12.9-6.9,18.5c-2.7,7.9-5.1,18.9-15.3,19.3
				c-3.9,0.2-7.7-1.1-11.5-2.3c-1.5-0.5-3.2-1.2-3.9-2.6c-0.9-2.1,0.8-4.3,2.1-6.3C462.2,302.7,462.2,302.6,462.3,302.5z"/>
		</g>
		<g>
			<g>
				<path class="st1" d="M463.8,303.3c1.4-2.3,2.3-4.8,2.5-7.5c0.2-2.6-0.4-5.2-1.4-7.6c-0.7-1.8-1.6-4.3,0-5.9
					c1.4-1.4,3.7-1.7,5.6-2.2c1.7-0.5,3.4-1.2,4.9-2.1c1.7-1.1,3.2-2.5,4.7-4c1.6-1.6,3.3-3.2,5.4-4.2c1.9-0.9,3.6-1,5.5-0.3
					c1.6,0.6,3.1,1.9,3.9,3.5c0.9,1.6,1,3.4,0.6,5.1c-0.9,4.4-3.3,8.5-5.1,12.6c-1.5,3.5-2.5,7.1-3.8,10.7c-1.1,3-2.6,6.2-4.9,8.4
					c-0.1,0.1-0.3,0.3-0.4,0.4s-0.4,0.4-0.4,0.3c0.1-0.1-0.3,0.2-0.3,0.2c-0.2,0.1-0.4,0.3-0.6,0.4c-0.3,0.2-0.7,0.4-1.1,0.6
					c0,0-0.3,0.1-0.1,0c0.2-0.1-0.1,0.1-0.2,0.1c-0.2,0.1-0.5,0.2-0.7,0.2c-1,0.3-1.5,0.4-2.5,0.4c-1.3,0.1-2.6,0-3.9-0.3
					c-2.7-0.5-5.3-1.3-7.8-2.2c-0.4-0.2-0.7-0.3-1.1-0.5c-0.1-0.1-0.5-0.3-0.5-0.3c-0.1-0.1-0.2-0.2-0.3-0.3c0,0-0.2-0.2-0.1-0.1
					c-0.5-0.7-0.3-1.5,0.1-2.3C462.4,305.3,463.1,304.4,463.8,303.3c0.5-0.8,0.2-1.9-0.6-2.3c-0.8-0.5-1.8-0.2-2.3,0.6
					c-1.4,2.2-3.5,4.8-2.6,7.6c0.9,2.8,3.7,3.7,6.2,4.5c4.9,1.6,10.5,3.2,15.5,1.1c7.6-3.1,9.8-11.9,12.1-18.9
					c1.5-4.6,4.1-8.8,5.8-13.4c0.8-2.2,1.5-4.5,1.4-6.9c-0.1-2.5-1.2-4.8-2.8-6.6c-1.5-1.7-3.7-3-6-3.4c-2.6-0.5-5.2,0.2-7.5,1.5
					s-4.1,3.2-6,5c-1.5,1.5-2.7,2.5-4.6,3.5c-0.2,0.1-0.4,0.2-0.6,0.3c-0.2,0.1,0.2-0.1,0,0c-0.1,0-0.2,0.1-0.3,0.1
					c-0.5,0.2-0.9,0.3-1.4,0.5c-1.1,0.4-2.2,0.6-3.4,0.9c-2.6,0.7-5,2.3-5.9,4.9c-0.4,1.4-0.4,2.9-0.1,4.2c0.3,1.3,0.9,2.6,1.3,3.9
					c0.8,2.4,1,5,0.4,7.5c-0.4,1.3-0.9,2.5-1.6,3.6C459.7,303.5,462.6,305.2,463.8,303.3z"/>
			</g>
		</g>
	</g>
	<g>
		<g>
			<path class="st2" d="M390,272.3c7.9-0.8,15.7-1.3,23.6-1.4c3,0,7.6-1,8.9,1.5c1,2-1.4,9.3-1.7,11.7c-0.1,1-0.3,2,0.1,2.9
				c0.5,1.3,1.9,1.9,2.8,2.9c3.7,3.8,0.3,10.3,1.2,15.5c0.3,1.6,0.9,3.1,1.2,4.6c1.1,5.5-2.2,10.7-5,15.5c-0.6,1-1.2,2.1-1.2,3.3
				c0,1.1,0.5,2.1,0.7,3.1c0.6,2.9-0.9,5.7-2.3,8.3c-2.8,5.1-5.9,10-9.2,14.8c-0.6,0.9-1.4,1.9-2.4,2.2c-0.9,0.3-1.8,0-2.6-0.2
				c-9.5-2.4-19.1-4.9-28.6-7.3c-8.8-2.3-16.2-5.9-24.8-8.7c-7.6-2.5-15.6-3.8-22.5-7.9S315.6,321,317,312.8"/>
		</g>
		<g>
			<g>
				<path class="st1" d="M390,274c4.4-0.5,8.9-0.8,13.4-1.1c4.1-0.2,8.2-0.1,12.2-0.4c0.7,0,1.4-0.1,2.1-0.1c0.4,0,0.7,0,1.1,0
					c0.1,0,0.2,0,0.4,0c0.1,0,0.2,0,0.3,0c-0.2,0-0.2,0,0.1,0c0.3,0.1,0.6,0.1,0.9,0.2c-0.3-0.1,0.1,0,0.1,0.1
					c0.1,0,0.2,0.1,0.2,0.2c-0.3-0.2,0,0.1,0.1,0.1c0.3,0.3-0.3-0.2,0.1,0.1c0.3,0.3,0-0.3,0,0c0,0.1,0.1,0.3,0.1,0.4
					c-0.1-0.5,0,0.1,0,0.2c0,0.3,0,0.5,0,0.8s-0.1,0.6-0.1,0.9c0-0.3,0,0,0,0c0,0.2-0.1,0.4-0.1,0.7c-0.2,1.4-0.6,2.7-0.9,4.1
					c-0.7,2.9-1.9,6.3,0.3,8.9c1,1.2,2.4,1.8,3,3.1c0.1,0.2,0.2,0.5,0.3,0.8c0.1,0.2,0.1,0.4,0.1,0.5c0,0,0.1,0.6,0.1,0.3
					c0.1,0.8,0.1,1.6,0,2.4c-0.2,3.4-1.1,6.8-0.4,10.2c0.4,1.9,1.3,3.7,1.3,5.7c0,1.9-0.5,3.6-1.1,5.4c-0.7,1.8-1.7,3.6-2.7,5.3
					c-1,1.8-2.3,3.6-2.5,5.6s1,3.7,0.7,5.7c-0.2,1.9-1.2,3.7-2.1,5.3c-2.1,3.7-4.3,7.4-6.6,10.9c-0.6,0.9-1.2,1.8-1.8,2.7
					c-0.5,0.7-0.9,1.5-1.6,2.1c-0.4,0.4-0.8,0.6-1.4,0.5c-1.1-0.1-2.1-0.5-3.2-0.8c-8.6-2.2-17.3-4.4-25.9-6.6
					c-8-2-15.5-5.4-23.3-8.2c-7.4-2.6-15.3-3.8-22.3-7.5c-5.9-3-11-8.3-12.2-15c-0.2-1.3-0.3-3.1,0-4.4c0.1-0.9-0.2-1.8-1.2-2.1
					c-0.8-0.2-2,0.3-2.1,1.2c-1.2,7.5,2.5,14.7,8.2,19.5c6.3,5.3,14.4,7.3,22.1,9.5c8.1,2.3,15.8,5.8,23.8,8.5
					c4.3,1.4,8.7,2.4,13,3.5c4.5,1.1,9,2.3,13.5,3.4c2.2,0.6,4.4,1.1,6.6,1.7c1.1,0.3,2.1,0.6,3.2,0.6c1.2,0,2.3-0.4,3.2-1.2
					c0.7-0.6,1.3-1.4,1.8-2.2c0.6-0.9,1.2-1.8,1.8-2.7c1.3-1.9,2.5-3.8,3.7-5.7c1.1-1.9,2.2-3.7,3.3-5.6c1.1-1.9,2.2-3.9,2.7-6.1
					c0.2-1,0.3-2,0.2-3c-0.1-1.2-0.6-2.2-0.7-3.4c-0.1-0.8,0.3-1.6,0.7-2.3c0.5-1,1.1-1.9,1.6-2.9c2-3.6,4-7.5,4-11.8
					c0-2.2-0.7-4.1-1.3-6.2c-0.4-1.6-0.4-3.2-0.2-5c0.4-3.4,1.2-7-0.3-10.3c-0.3-0.8-0.9-1.5-1.4-2.1c-0.6-0.6-1.4-1.1-2-1.8
					c-0.8-0.8-0.5-2.2-0.3-3.4c0.6-2.7,1.4-5.4,1.7-8.2c0.1-1.1,0.2-2.3-0.2-3.4c-0.6-1.5-1.9-2.5-3.5-2.8c-1.6-0.4-3.2-0.3-4.8-0.2
					c-1.8,0.1-3.6,0.1-5.4,0.2c-4.6,0.1-9.2,0.3-13.8,0.7c-2.3,0.2-4.5,0.4-6.7,0.6c-0.9,0.1-1.7,0.7-1.7,1.7
					C388.3,273.2,389.1,274.1,390,274L390,274z"/>
			</g>
		</g>
	</g>
	<g>
		<g>
			<path class="st2" d="M377.6,312.2c0.8-0.5,1.9-0.1,2.7,0.3c11.7,5.3,23.4,10.6,35.1,15.9"/>
		</g>
		<g>
			<g>
				<path class="st1" d="M378.4,313.7c0.1-0.1,0.8,0.2,1,0.3c0.5,0.2,1.1,0.5,1.6,0.7c1.2,0.5,2.4,1.1,3.6,1.6
					c2.4,1.1,4.8,2.2,7.2,3.3c4.8,2.2,9.6,4.4,14.5,6.6c2.8,1.2,5.5,2.5,8.3,3.7c0.8,0.4,1.8,0.2,2.3-0.6c0.4-0.7,0.2-2-0.6-2.3
					c-10.2-4.6-20.4-9.2-30.6-13.9c-1.4-0.6-2.8-1.3-4.3-1.9c-1.6-0.7-3-1.2-4.7-0.4c-0.8,0.4-1,1.6-0.6,2.3
					C376.6,314,377.6,314.1,378.4,313.7L378.4,313.7z"/>
			</g>
		</g>
	</g>
	<g>
		<g>
			<path class="st1" d="M387.6,296.3c9.7,1.6,19.2,4.3,28.3,8.1c0.9,0.4,1.9-0.4,2.1-1.2c0.3-1-0.3-1.7-1.2-2.1
				c-9.1-3.8-18.6-6.5-28.3-8.1c-0.9-0.1-1.8,0.2-2.1,1.2C386.2,295,386.7,296.2,387.6,296.3L387.6,296.3z"/>
		</g>
	</g>
	<g>
		<g>
			<path class="st1" d="M391.7,285.5c6.9-0.4,13.9-0.2,20.8,0.7c0.9,0.1,1.7-0.9,1.7-1.7c0-1-0.8-1.6-1.7-1.7
				c-6.9-0.9-13.8-1.1-20.8-0.7c-0.9,0.1-1.7,0.7-1.7,1.7C390,284.7,390.8,285.5,391.7,285.5L391.7,285.5z"/>
		</g>
	</g>
	<g>
		<g>
			<path class="st1" d="M355.1,320.1c0,3.1,3.6,4.5,5.9,5.7c2.8,1.5,5.5,3.1,8.3,4.6c5.4,3.1,10.9,6.1,16.3,9.2
				c3.1,1.8,6.3,3.5,9.4,5.3c1.9,1.1,3.6-1.9,1.7-3c-10.5-5.9-20.9-11.7-31.4-17.6c-1.5-0.8-3-1.7-4.4-2.5c-0.6-0.3-1.2-0.6-1.8-1
				c-0.2-0.1-0.4-0.3-0.5-0.5c0.1,0.1-0.1-0.1-0.1-0.1c0,0.1,0,0.3,0-0.1C358.6,317.9,355.2,317.9,355.1,320.1L355.1,320.1z"/>
		</g>
	</g>
	<g>
		<g>
			<path class="st2" d="M431.6,247l-37-6.6c-2.6-0.5-4.1-3.1-3.2-5.6l18.4-48.6c0.7-1.9,2.6-3,4.6-2.6l37,6.6
				c2.6,0.5,4.1,3.1,3.2,5.6l-18.4,48.6C435.5,246.2,433.6,247.3,431.6,247z"/>
			<path class="st1" d="M432.4,248.7c-0.3,0-0.7,0-1-0.1l0,0l-37-6.6c-1.7-0.3-3.2-1.4-4.1-2.9s-1-3.3-0.4-5l18.4-48.6
				c1-2.6,3.7-4.2,6.5-3.7l37,6.6c1.7,0.3,3.2,1.4,4.1,2.9s1,3.3,0.4,5l-18.4,48.6C437,247.2,434.8,248.7,432.4,248.7z M431.9,245.3
				c1.1,0.2,2.3-0.4,2.7-1.5l18.4-48.6c0.3-0.7,0.2-1.4-0.2-2.1c-0.4-0.6-1-1.1-1.7-1.2l-37-6.6c-1.2-0.2-2.3,0.4-2.7,1.5L393,235.4
				c-0.3,0.7-0.2,1.4,0.2,2.1c0.4,0.6,1,1.1,1.7,1.2L431.9,245.3z"/>
		</g>
		<g>
			<path class="st8" d="M442.2,204.1c-0.1,0-0.2,0-0.3,0l-29-5.9c-0.9-0.2-1.5-1.1-1.3-2s1.1-1.5,2-1.3l29,5.9
				c0.9,0.2,1.5,1.1,1.3,2C443.7,203.5,443,204.1,442.2,204.1z"/>
		</g>
		<g>
			<path class="st8" d="M438,214.7c-0.1,0-0.2,0-0.3,0l-29-5.9c-0.9-0.2-1.5-1.1-1.3-2s1.1-1.5,2-1.3l29,5.9c0.9,0.2,1.5,1.1,1.3,2
				C439.5,214.1,438.8,214.7,438,214.7z"/>
		</g>
		<g>
			<path class="st1" d="M415,189.2c-0.2,0-0.3,0-0.5-0.1c-0.9-0.3-1.4-1.2-1.1-2.1l2.2-7.4c0.3-0.9,1.2-1.4,2.1-1.1
				c0.9,0.3,1.4,1.2,1.1,2.1l-2.2,7.4C416.4,188.7,415.7,189.2,415,189.2z"/>
		</g>
		<g>
			<path class="st1" d="M421.5,190.4c-0.2,0-0.3,0-0.5-0.1c-0.9-0.3-1.4-1.2-1.1-2.1l2.2-7.4c0.3-0.9,1.2-1.4,2.1-1.1
				c0.9,0.3,1.4,1.2,1.1,2.1l-2.2,7.4C422.9,189.9,422.2,190.4,421.5,190.4z"/>
		</g>
		<g>
			<path class="st1" d="M428.6,191.9c-0.2,0-0.3,0-0.5-0.1c-0.9-0.3-1.4-1.2-1.1-2.1l2.2-7.4c0.3-0.9,1.2-1.4,2.1-1.1
				c0.9,0.3,1.4,1.2,1.1,2.1l-2.2,7.4C430,191.4,429.3,191.9,428.6,191.9z"/>
		</g>
		<g>
			<path class="st1" d="M435.6,193.4c-0.2,0-0.3,0-0.5-0.1c-0.9-0.3-1.4-1.2-1.1-2.1l2.2-7.4c0.3-0.9,1.2-1.4,2.1-1.1
				c0.9,0.3,1.4,1.2,1.1,2.1l-2.2,7.4C437,192.9,436.4,193.4,435.6,193.4z"/>
		</g>
		<g>
			<path class="st1" d="M442.7,194.9c-0.2,0-0.3,0-0.5-0.1c-0.9-0.3-1.4-1.2-1.1-2.1l2.2-7.4c0.3-0.9,1.2-1.4,2.1-1.1
				c0.9,0.3,1.4,1.2,1.1,2.1l-2.2,7.4C444.1,194.4,443.4,194.9,442.7,194.9z"/>
		</g>
		<g>
			<path class="st1" d="M449.7,196.3c-0.2,0-0.3,0-0.5-0.1c-0.9-0.3-1.4-1.2-1.1-2.1l2.2-7.4c0.3-0.9,1.2-1.4,2.1-1.1
				c0.9,0.3,1.4,1.2,1.1,2.1l-2.2,7.4C451.1,195.9,450.5,196.3,449.7,196.3z"/>
		</g>
	</g>
	<g>
		<g>
			<path class="st5" d="M382,221c3.7-6.1,10.5-10.2,17.6-10.7c2.3-0.1,5.4-0.2,5.7,2.9c0.2,2.2-1.6,3.9-3.4,5.1
				c-3.8,2.5,0.7,8.1-3.3,11.1c-3.4,2.5-9.6,3.3-13.3,1.5"/>
		</g>
		<g>
			<g>
				<path class="st1" d="M383.4,221.9c2.2-3.5,5.4-6.3,9.2-8c1.7-0.8,3.8-1.4,5.7-1.6c0.9-0.1,1.8-0.2,2.7-0.2c0.4,0,0.7,0,1.1,0.1
					c-0.4,0,0.2,0,0.3,0.1c0.2,0,0.4,0.1,0.6,0.2c-0.3-0.1,0.1,0.1,0.2,0.1c0,0,0.3,0.2,0.1,0.1c-0.2-0.1,0,0,0,0.1
					c0.2,0.3,0.1,0,0,0c0.1,0.1,0.1,0.2,0.2,0.3c0,0,0.1,0.2,0,0.1c-0.1-0.2,0.1,0.3,0.1,0.3c0.1,0.2,0.1,0.6,0,0.9
					c-0.1,0.4-0.3,0.7-0.6,1.1c-0.6,0.8-1.4,1.3-2.2,1.9c-0.9,0.6-1.5,1.4-1.9,2.5c-0.6,1.6-0.4,3.3-0.3,4.9c0,0.4,0,0.8,0,1.2
					c0,0.2,0,0.4,0,0.6c0,0,0,0.3,0,0.1s0,0.2-0.1,0.2c0,0.2-0.1,0.4-0.2,0.5c-0.1,0.3,0.1-0.2,0,0c0,0.1-0.1,0.1-0.1,0.2
					c-0.1,0.1-0.1,0.2-0.2,0.3c0-0.1,0.2-0.2,0,0.1c-0.2,0.2-0.3,0.4-0.5,0.5c-0.1,0.1-0.7,0.5-1,0.6c-0.5,0.3-0.8,0.4-1.3,0.6
					c-1,0.3-2.2,0.7-3,0.8c-1.1,0.1-2.3,0.2-3.5,0c-0.3,0-0.8-0.1-1.3-0.2c-0.3-0.1-0.5-0.2-0.8-0.2c-0.1,0-0.2-0.1-0.3-0.1
					c0.2,0.1-0.2-0.1-0.2-0.1c-0.8-0.4-1.8-0.2-2.3,0.6c-0.4,0.7-0.2,1.9,0.6,2.3c4.2,2,9.7,1.5,13.7-0.7c2.1-1.1,3.6-2.8,3.9-5.3
					c0.2-1.8-0.2-3.5,0-5.3c0,0.4,0-0.2,0.1-0.3c0-0.1,0.2-0.6,0.1-0.3c0.1-0.2,0.2-0.4,0.3-0.5c-0.2,0.3,0.4-0.4,0.2-0.2
					c1-0.8,2.1-1.5,2.9-2.5c1.6-2,2.2-5.1,0.3-7.2c-1.4-1.5-3.6-1.8-5.5-1.7c-2.3,0.1-4.7,0.5-6.9,1.3c-5.3,1.8-10,5.5-13,10.3
					C379.3,222,382.3,223.8,383.4,221.9L383.4,221.9z"/>
			</g>
		</g>
	</g>
	<g>
		<path class="st4" d="M460.8,233.4l5.3,3.6c1.6,1.1,3.2-0.3,2.5-2.1l-2.2-6.1l-21.2-28l-5.6,4.6L460.8,233.4z"/>
		<path class="st1" d="M467.2,239c-0.7,0-1.4-0.2-2.1-0.7l-5.3-3.6c-0.2-0.1-0.3-0.2-0.4-0.4l-21.2-28c-0.6-0.7-0.4-1.8,0.3-2.4
			l5.6-4.6c0.4-0.3,0.8-0.4,1.3-0.4c0.5,0.1,0.9,0.3,1.2,0.7l21.2,28c0.1,0.1,0.2,0.3,0.2,0.5l2.2,6.1c0.6,1.6,0.2,3.2-1,4.1
			C468.6,238.8,468,239,467.2,239z M462,232.1l5,3.4v-0.1l-2.1-5.8l-20-26.3l-2.9,2.4L462,232.1z"/>
	</g>
	<g>
		<g>
			<path class="st9" d="M338.8,323c-3.5-0.2-7.1-0.7-10.6-1.2c-5.8-0.9-12.3-2.5-15.1-7.6c-1.3-2.3-1.6-5-2.2-7.5
				c-0.7-2.9-1.7-5.7-2.5-8.6c-5-18.6,0.7-43.7,6.6-61.7c2.4-7.4,5.1-14.1,6.8-21.8c1.5-6.9,3-15.4,8.6-20.3
				c5.7-5,14.3-4.3,21.1-2.8c18.3,3.9,32.6,13,36.1,32c3.6,19.3,5.7,38.8,6.5,58.3c0.7,18.4-14,34.4-31.3,39.2
				C355,323.2,346.9,323.6,338.8,323z"/>
		</g>
		<g>
			<g>
				<path class="st1" d="M338.8,321.3c-3.5-0.2-7-0.6-10.5-1.2c-2.6-0.4-5.2-0.9-7.6-1.9c-1-0.4-2.2-1-3.2-1.7
					c-0.8-0.5-1.7-1.5-2.3-2.2c-1.8-2.5-2-5.7-2.7-8.6c-0.8-3.2-2-6.3-2.7-9.5c-0.6-2.7-1-5.5-1.3-8.3c-0.5-6-0.2-12.1,0.5-18.1
					c1.4-11.9,4.5-23.6,8.3-34.9c2.2-6.5,4.6-12.9,6.1-19.6c1.2-5.1,2.1-10.5,4.6-15.1c1.2-2.2,2.7-4.2,4.9-5.6
					c2.1-1.4,4.7-2.1,7.1-2.3c5.3-0.5,10.4,0.6,15.5,2c4.7,1.3,9,2.9,13.2,5.3c4,2.3,7.2,4.9,10.2,8.5c0.6,0.7,1.2,1.6,1.8,2.5
					c0.6,1,1.2,1.9,1.7,2.9c1.1,2.2,1.9,4.2,2.6,6.6c0.8,3,1.3,6,1.8,9c0.6,3.5,1.2,7.1,1.7,10.6c1,7.1,1.9,14.2,2.5,21.4
					c0.6,7.1,1.2,14.2,1.3,21.3c0.2,10.3-4.7,20-12.2,27c-3.7,3.5-8.1,6.4-12.9,8.4c-5.6,2.4-12,3.5-18.2,3.7
					C345.6,321.6,342.2,321.5,338.8,321.3c-0.9-0.1-1.7,0.8-1.7,1.7c0,1,0.8,1.6,1.7,1.7c7.3,0.5,14.6,0.3,21.8-1.3
					c5.5-1.2,10.8-3.4,15.6-6.6c9.1-6,16.4-15.3,18.8-26.1c1.4-6.3,0.7-12.8,0.3-19.2c-0.5-7.4-1.1-14.8-2-22.2
					c-0.9-7.4-2-14.8-3.2-22.2c-0.5-3-1-6.1-1.9-9c-0.8-2.5-1.8-4.9-3-7.1c-4.8-8.7-13-14.5-22.1-18c-4.8-1.9-9.9-3.2-15.1-3.9
					c-5.7-0.8-12.1-0.7-17,2.7c-4.9,3.3-7.3,8.9-8.8,14.4c-0.7,2.6-1.3,5.3-1.9,7.9c-0.8,3.5-1.8,6.9-2.9,10.3
					c-2,6.2-4.2,12.2-6.1,18.5c-1.7,6-3.2,12-4.4,18.2c-2.2,12.1-3.3,25-0.2,37.1c0.9,3.4,2.2,6.7,2.9,10.2c0.7,3.2,1.4,6.3,3.6,8.8
					c3.6,4.2,9.5,5.5,14.7,6.3c3.7,0.5,7.3,1,11,1.2c0.9,0.1,1.7-0.8,1.7-1.7C340.5,322,339.7,321.4,338.8,321.3z"/>
			</g>
		</g>
	</g>
	<g>
		<g>
			<path class="st5" d="M340.8,184.4c-2,2.3-3.1,5.2-3.8,8.2c-0.9,3.7-1.3,7.6,0.1,11.1c2.3,5.8,8.7,8.9,14.9,9.5
				c2.3,0.2,4.7,0.2,6.9-0.7c3.6-1.4,6.1-5,7.3-8.7c1.2-3.7,1.2-7.7,1.2-11.6"/>
		</g>
		<g>
			<g>
				<path class="st1" d="M339.6,183.2c-1.7,2-2.9,4.3-3.6,6.8c-0.8,2.5-1.3,5.2-1.4,7.8c-0.2,4.8,1.6,9.4,5.5,12.5
					c3.5,2.8,7.9,4.2,12.3,4.6c2.7,0.2,5.5,0,8.1-1.2c2.1-1,3.8-2.7,5.1-4.5c3.5-4.9,3.6-11.2,3.6-17c0-2.2-3.4-2.2-3.4,0
					c0,4.5,0,9.5-2.1,13.5c-0.8,1.6-2,3.1-3.4,4.1c-1.8,1.2-3.8,1.7-5.9,1.7c-7.3,0-15.8-3.9-16.3-12c-0.2-2.6,0.3-5.1,1-7.6
					c0.6-2.3,1.5-4.5,3.1-6.4c0.6-0.7,0.7-1.7,0-2.4C341.4,182.6,340.2,182.5,339.6,183.2L339.6,183.2z"/>
			</g>
		</g>
	</g>
	<g>
		<g>
			<circle class="st5" cx="365.5" cy="154.9" r="47.9"/>
		</g>
		<g>
			<g>
				<path class="st1" d="M411.7,154.9c0,9.6-3,19-8.6,26.9c-2.5,3.5-6,7.1-9.4,9.8c-3.7,2.8-8,5.2-12.2,6.7
					c-9.2,3.4-19.3,3.7-28.7,1.1c-4.6-1.3-8.7-3.2-12.7-5.8c-3.8-2.5-7.3-5.6-10.3-9.2c-5.9-7.2-9.7-16.5-10.4-25.8
					c-0.7-9.7,1.5-19.2,6.5-27.5c4.8-8,12-14.4,20.6-18.3c2-0.9,4.2-1.7,6.5-2.3c1.2-0.3,2.4-0.6,3.6-0.8c1.2-0.2,2.3-0.4,3.4-0.5
					c4.9-0.6,9.9-0.4,14.6,0.6c9.3,1.9,17.7,6.6,24.3,13.4c6.5,6.8,10.7,15.4,12.2,24.8C411.5,150,411.7,152.5,411.7,154.9
					c0,2.2,3.4,2.2,3.4,0c0-10.2-3.2-20.4-9.1-28.7c-5.9-8.2-14.1-14.5-23.6-18c-9.7-3.5-20.6-3.9-30.5-1.1
					c-9.6,2.7-18.3,8.4-24.6,16.1c-6.5,7.9-10.4,17.6-11.2,27.8c-0.8,10.2,1.7,20.6,7,29.4c5.1,8.5,12.9,15.4,21.9,19.5
					c9.6,4.3,20.3,5.5,30.6,3.4c9.8-2,18.9-7.1,25.8-14.3c6.9-7.3,11.6-16.6,13.1-26.5c0.4-2.6,0.6-5.2,0.6-7.8
					C415.1,152.7,411.7,152.7,411.7,154.9z"/>
			</g>
		</g>
	</g>
	<g>
		<circle class="st1" cx="397.2" cy="154.7" r="3.8"/>
	</g>
	<g>
		<circle class="st6" cx="381.1" cy="171.5" r="11.1"/>
	</g>
	<g>
		<g>
			<path class="st5" d="M408.7,167.5c1.9,0.1,3.9-0.6,5.2-1.9s2-3.4,1.6-5.3c-0.4-1.9-2-3.5-3.9-3.8"/>
		</g>
		<g>
			<g>
				<path class="st1" d="M408.7,169.2c3.8,0.2,7.6-2.2,8.5-6c0.4-1.8,0.2-3.7-0.8-5.3c-1-1.5-2.5-2.7-4.2-3
					c-0.9-0.2-1.9,0.2-2.1,1.2c-0.2,0.8,0.3,1.9,1.2,2.1c0.2,0,0.3,0.1,0.5,0.1c0,0,0.5,0.2,0.2,0c0.3,0.1,0.5,0.3,0.8,0.5
					c-0.2-0.2,0.1,0.1,0.1,0.1c0.1,0.1,0.2,0.2,0.3,0.3c0,0,0.3,0.4,0.2,0.2c-0.1-0.2,0.1,0.2,0.1,0.2c0.1,0.1,0.2,0.3,0.2,0.4
					c0,0,0.2,0.5,0.1,0.2c0.1,0.3,0.2,0.6,0.2,0.9c0-0.3,0,0.1,0,0.2c0,0.1,0,0.3,0,0.4c0,0.1,0,0.2,0,0.3c0-0.1,0-0.2,0,0
					s-0.1,0.3-0.1,0.5c0,0.1-0.1,0.3-0.1,0.4c0,0-0.2,0.5-0.1,0.2c-0.1,0.3-0.3,0.6-0.5,0.9c-0.2,0.3,0.1-0.1-0.2,0.2
					c-0.1,0.1-0.2,0.3-0.4,0.4c-0.1,0.1-0.2,0.2-0.3,0.3c-0.1,0.1-0.1,0.1,0,0c-0.1,0.1-0.1,0.1-0.2,0.1c-0.3,0.2-0.5,0.3-0.8,0.5
					c0.3-0.1-0.2,0.1-0.2,0.1c-0.2,0.1-0.3,0.1-0.5,0.2c-0.2,0-0.3,0.1-0.5,0.1c-0.3,0.1,0.1,0-0.2,0c-0.4,0-0.7,0-1,0
					c-0.9,0-1.8,0.8-1.7,1.7C407.1,168.5,407.8,169.2,408.7,169.2L408.7,169.2z"/>
			</g>
		</g>
	</g>
	<g>
		<g>
			<path class="st11" d="M403.5,105.4c6.2,6.4,10.5,14.4,11.8,23.2c0.4,3,0.4,6.5-1.8,8.6c-4.1,3.9-9.5,0.7-13.4-1.4
				c-5.7-3.1-11.7-5.4-17.2-8.9c-3.9,6.7-8.6,13-14,18.7c-3.4,3.6-9.2,6.8-11.6,10.7c-2.9,4.8-1.6,13.4-1.6,18.7
				c0.1,11.2-1.2,22.5-3.8,33.4c-2.2,9.5-5.7,19.2-12.8,25.9s-18.7,9.5-26.9,4.1c-1.5,4.2-7,6.1-11.3,4.7c-4.3-1.4-7.3-5.4-8.8-9.7
				c-4.2,1.2-8.8-1.7-10.6-5.6s-1.3-8.6,0.2-12.8c1.5-4.1,3.8-7.8,5.6-11.8c11-23,6-51,15.8-74.6c4.5-10.8,12-20.2,21.5-27
				c4.4-3.1,8.3-4.1,13.3-5.5c4.4-1.2,8.3-3.9,12.8-5.1c3.9-1,8-1.4,12-1.4c11.9,0,23.9,3.1,33.6,9.8
				C399,101.2,401.4,103.2,403.5,105.4z"/>
		</g>
		<g>
			<g>
				<path class="st1" d="M402.3,106.6c5.9,6.1,10.4,14.1,11.4,22.6c0.2,1.7,0.3,3.7-0.4,5.3c-0.7,1.6-2.3,2.6-3.9,2.7
					c-1.7,0.1-3.5-0.5-5.1-1.2c-1.9-0.9-3.8-2-5.7-2.9c-5-2.5-10.2-4.7-15-7.7c-0.8-0.5-1.9-0.2-2.3,0.6c-2.7,4.6-5.8,9.1-9.2,13.2
					c-1.7,2-3.4,4.1-5.3,5.9c-1.7,1.6-3.5,2.9-5.3,4.4c-1.7,1.4-3.5,2.8-4.8,4.5s-2.2,3.7-2.6,5.8c-0.8,4.4-0.4,8.8-0.2,13.2
					c0.2,5.4-0.1,10.8-0.6,16.2c-0.5,5.8-1.5,11.5-2.7,17.2c-2.1,9.3-5.1,18.9-11.9,25.8c-5.8,5.9-15.2,9.2-23,6
					c-0.9-0.4-1.8-0.9-2.6-1.4c-1-0.7-2.1,0-2.5,1c-1.2,3.2-5.4,4.5-8.6,3.7c-4-1.1-6.8-4.9-8.2-8.6c-0.3-0.9-1.2-1.5-2.1-1.2
					c-2.8,0.7-5.7-0.7-7.5-3c-2.2-2.8-2.4-6.6-1.7-9.9c0.8-3.8,2.6-7.3,4.4-10.8s3.5-7.1,4.8-10.8c5-14.5,5.2-30,7.3-45
					c1-7.5,2.6-14.9,5.3-21.9c2.6-6.6,6.4-12.7,11.1-18c2.4-2.7,5.1-5.2,7.9-7.5c2.8-2.2,5.8-4.1,9.2-5.2c1.6-0.6,3.3-1,5-1.5
					c1.9-0.5,3.8-1.2,5.6-2c1.7-0.8,3.4-1.6,5.2-2.3c1.9-0.8,3.9-1.3,5.9-1.7c7.6-1.4,15.7-0.9,23.2,0.9c7.4,1.7,14.6,4.9,20.5,9.6
					C399.4,103.8,400.9,105.2,402.3,106.6c1.5,1.6,4-0.8,2.4-2.4c-11.5-11.8-28.5-17-44.7-16.2c-4.3,0.2-8.7,0.8-12.8,2.5
					c-1.9,0.8-3.7,1.7-5.6,2.5c-1.8,0.8-3.6,1.4-5.5,1.9c-3.6,1-7.2,2.1-10.4,4.1c-3.3,2-6.3,4.5-9,7.1
					c-5.5,5.2-10.1,11.5-13.4,18.3c-3.4,7-5.5,14.6-6.8,22.3c-2.7,15.5-2.6,31.5-7.1,46.7c-1.1,3.7-2.5,7.3-4.3,10.7
					c-1.9,3.7-4,7.4-5.3,11.5c-1.2,4-1.5,8.5,0.1,12.4c1.4,3.3,4.2,6,7.7,7c1.7,0.5,3.4,0.5,5.1,0c-0.7-0.4-1.4-0.8-2.1-1.2
					c1.4,4,3.9,7.8,7.7,9.9c3.5,1.9,7.9,2,11.4,0c2-1.1,3.4-2.8,4.2-5c-0.8,0.3-1.7,0.7-2.5,1c7.8,5.1,18.4,3.4,25.7-1.7
					c8.3-5.7,12.7-15.4,15.3-24.8c3.2-11.2,4.7-22.9,5-34.5c0.1-4.6-0.4-9.3-0.3-13.9c0-2.1,0.2-4.1,0.9-6.1
					c0.6-1.8,1.8-3.3,3.3-4.6c1.8-1.6,3.7-3,5.6-4.5s3.6-3.2,5.2-5c3.7-4.2,7.1-8.6,10.1-13.3c0.8-1.2,1.5-2.4,2.2-3.6
					c-0.8,0.2-1.6,0.4-2.3,0.6c4.6,2.9,9.6,5,14.4,7.4c3.9,1.9,8,4.9,12.5,4.9c2.3,0,4.7-1,6.2-2.8s2.1-4.1,2.1-6.4
					c0.1-4.7-1.5-9.6-3.4-13.9c-2.2-5-5.4-9.5-9.2-13.4C403.2,102.6,400.8,105,402.3,106.6z"/>
			</g>
		</g>
	</g>
	<g>
		<g>
			<path class="st5" d="M361.3,178.2c-1.6,0.7-3.4,1.1-5.3,1.1c-7.6,0-13.7-6.1-13.7-13.7s6.1-13.7,13.7-13.7c2.8,0,5.5,0.9,7.7,2.3
				"/>
		</g>
		<g>
			<g>
				<path class="st1" d="M360.8,176.6c-1.9,0.8-3.8,1.1-5.9,1c-1.3-0.1-3.1-0.6-4.3-1.2c-2.7-1.4-4.9-3.7-5.9-6.5
					c-0.6-1.6-0.8-3-0.8-4.7c0-0.9,0.1-1.4,0.3-2.3c0.2-0.7,0.5-1.6,0.7-2.1c0.7-1.5,1.5-2.7,2.6-3.8s2.3-1.9,3.8-2.5
					c-0.1,0,0.4-0.1,0.5-0.2c0.2-0.1,0.4-0.1,0.6-0.2c0.5-0.1,0.9-0.3,1.4-0.3c0.8-0.1,1.7-0.2,2.7-0.2c2.2,0.1,4.3,0.9,6.2,2.1
					c0.8,0.5,1.9,0.2,2.3-0.6c0.5-0.8,0.2-1.8-0.6-2.3c-3.8-2.5-8.7-3.2-13-1.9c-3.7,1.1-6.9,3.7-8.9,7.1c-2,3.5-2.6,7.7-1.5,11.6
					c1,3.7,3.4,7,6.7,9.1c4.1,2.6,9.5,3.1,14,1.2c0.9-0.4,1.5-1.1,1.2-2.1C362.7,177,361.7,176.2,360.8,176.6L360.8,176.6z"/>
			</g>
		</g>
	</g>
	<g>
		<g>
			<path class="st1" d="M320.9,306.1c11.1,3.9,23.1,4.2,34.7,3.8c3.3-0.1,6.7-0.3,10-0.6c0.9-0.1,1.7-0.7,1.7-1.7
				c0-0.9-0.8-1.8-1.7-1.7c-11.5,0.7-23.1,1.5-34.5-0.6c-3.2-0.6-6.3-1.4-9.4-2.5c-0.9-0.3-1.9,0.3-2.1,1.2
				C319.4,305,320,305.8,320.9,306.1L320.9,306.1z"/>
		</g>
	</g>
	<g>
		<g>
			<path class="st5" d="M454,242.4c-4.3,1.3-9.6,5.5-14.2,3.8c-5-1.8-10.6-6.5-10.9-12.2c-0.1-2.6,1.1-4.5,1.7-7
				c0.9-3.9,1.2-7.3,3.4-10.8c1-1.6,2.4-3.2,4.3-3.5c2.2-0.4,4.4,1.1,6.6,1.1c4,0.1,10.4-3.5,12.9,1.7c0.9,1.8,0.1,4.3-1.7,5
				c1.8-0.1,3.5,1.1,4,2.8s-0.2,3.7-1.7,4.6c1.3,0.6,2.2,2,2.1,3.5s-1.1,2.8-2.5,3.2c0.8,1.5,1.6,3.4,0.9,5
				C458.1,241.4,455.9,241.9,454,242.4z"/>
		</g>
		<g>
			<g>
				<path class="st1" d="M453.5,240.8c-2.6,0.8-4.9,2.2-7.4,3.2c-1.2,0.5-2.5,0.9-3.6,0.9c-1.1,0.1-2.2-0.2-3.2-0.7
					c-2.4-1.1-4.4-2.5-6.1-4.4c-1.5-1.7-2.7-4-2.7-6.2c0-1.4,0.5-2.7,1-4c0.5-1.4,0.8-2.9,1.2-4.3c0.6-2.9,1.2-5.8,2.9-8.4
					c0.6-0.9,1.4-1.9,2.4-2.3c1.2-0.5,2.6,0,3.8,0.4c1.3,0.4,2.7,0.7,4.1,0.6c1.1-0.1,2.2-0.3,3.3-0.5c0.6-0.1,1.2-0.2,1.8-0.3
					c0.1,0,0.3,0,0.4-0.1c0.1,0,0.5-0.1,0.2,0c0.3,0,0.6-0.1,0.8-0.1c0.3,0,0.5,0,0.8,0c0.1,0,0.3,0,0.4,0s0.5,0.1,0.3,0
					c-0.3,0,0.2,0.1,0.2,0.1c0.1,0,0.3,0.1,0.4,0.1s0.2,0.1,0.3,0.1c-0.3-0.1,0.1,0,0.1,0.1c0.1,0.1,0.2,0.1,0.3,0.2
					c0.1,0.1,0.1,0.1,0,0c0.1,0,0.1,0.1,0.2,0.2c0.1,0.1,0.2,0.2,0.3,0.3c0,0,0.3,0.4,0.2,0.2c0.4,0.6,0.5,0.8,0.6,1.4
					c0-0.3,0,0.1,0,0.2c0,0.1,0,0.5,0,0.4c0-0.2-0.1,0.3-0.1,0.3s-0.2,0.5-0.1,0.2c0,0.1-0.1,0.2-0.2,0.3c-0.2,0.3,0.1,0-0.1,0.2
					c0,0-0.4,0.3-0.2,0.2c0.2-0.1-0.5,0.2-0.2,0.1c-0.8,0.3-1.4,1-1.2,1.9c0.1,0.8,0.8,1.5,1.7,1.5c1,0,2.1,0.6,2.4,1.6
					c0.3,0.9-0.1,2-0.9,2.6c-1,0.7-1.2,2.3,0,3c1.6,0.8,1.7,3,0,3.6c-1.1,0.4-1.6,1.5-1,2.5c0.4,0.7,0.8,1.6,0.9,2.4
					c0.1,0.6-0.1,1.2-0.4,1.5s-0.9,0.6-1.4,0.8C455,240.4,454.2,240.6,453.5,240.8c-2.1,0.6-1.2,3.9,0.9,3.3c2-0.6,4.2-1.1,5.5-2.9
					c1.8-2.3,0.8-5.2-0.4-7.5c-0.3,0.8-0.7,1.7-1,2.5c2.1-0.7,3.6-2.5,3.7-4.8c0.2-2.1-1.1-4.2-2.9-5.1c0,1,0,2,0,3
					c2.1-1.4,3.2-4,2.5-6.4c-0.7-2.5-3.2-4.2-5.7-4.1c0.2,1.1,0.3,2.2,0.5,3.4c3.1-1.2,4.2-5,2.6-7.8c-1.4-2.4-3.9-3.5-6.6-3.3
					c-1.3,0.1-2.7,0.3-4,0.6c-0.6,0.1-1.1,0.2-1.7,0.3c-0.3,0-0.5,0.1-0.8,0.1c0.3,0,0,0-0.1,0c-0.2,0-0.3,0-0.5,0
					c-1.5,0.1-2.8-0.5-4.2-0.9c-1.8-0.4-3.6-0.4-5.2,0.5c-3,1.6-4.8,5.4-5.7,8.5c-0.5,1.6-0.8,3.2-1.1,4.9c-0.4,1.6-0.9,3.2-1.4,4.8
					c-1.1,3.3-0.8,6.6,0.9,9.5c1.5,2.7,3.8,4.8,6.4,6.4c1.4,0.9,3,1.7,4.6,2.2c1.7,0.5,3.6,0.4,5.3-0.1c3.3-0.8,6.3-2.9,9.4-3.8
					C456.5,243.4,455.6,240.1,453.5,240.8z"/>
			</g>
		</g>
	</g>
	<g>
		<g>
			<path class="st9" d="M369.5,220.5c4.5-5.1,13.8-2.9,18.8,0.1c3.4,2.1,6.3,4.8,9.5,7.1c3.3,2.2,7.2,4,11.1,3.4
				c5.9-0.8,10.4-5.5,16.1-6.7c4.8-1.1,9.4,2.5,12,6.7c10.7,17-5.8,35.4-22.2,40.4c-14,4.3-29.4,1.4-42.6-4.8"/>
		</g>
		<g>
			<g>
				<path class="st1" d="M370.7,221.7c0.8-0.9,1.3-1.3,2.4-1.8c0.3-0.1,0.1-0.1,0.1,0c0.2-0.1,0.3-0.1,0.5-0.2
					c0.2-0.1,0.4-0.1,0.7-0.2c0.6-0.2,1.1-0.2,1.5-0.3c2.4-0.2,4.4,0.1,6.8,0.8c2.2,0.6,3.9,1.5,5.9,2.8c2.7,1.8,5.1,3.9,7.7,5.8
					c2.6,1.9,5.5,3.5,8.7,4.1c3.1,0.6,6.1,0,9-1.2c2.6-1.1,4.9-2.6,7.4-3.9c2.2-1.1,4.7-2.1,7.1-1.5c5,1.3,8.4,6.6,9.7,11.3
					c1.3,4.6,0.6,9.5-1.4,13.8c-4.3,9.1-13.4,16-22.9,18.8c-12.1,3.5-25.1,1.5-36.6-3c-1.4-0.5-2.7-1.1-4.1-1.8
					c-0.8-0.4-1.8-0.2-2.3,0.6c-0.4,0.7-0.2,1.9,0.6,2.3c12.1,5.7,25.8,8.7,39.1,6.2c11.1-2.1,21.6-8.7,27.6-18.4
					c2.8-4.5,4.5-9.9,4.1-15.2c-0.5-5.8-3.2-11.7-7.8-15.4c-2.4-1.8-5.3-3.2-8.4-2.8c-3,0.3-5.8,1.8-8.4,3.2
					c-2.5,1.4-4.9,2.8-7.7,3.5c-2.9,0.7-5.9-0.1-8.5-1.5c-2.9-1.5-5.4-3.7-7.9-5.7c-2.3-1.8-4.7-3.4-7.4-4.6
					c-4.5-1.9-10.2-2.7-14.7-0.5c-1.1,0.5-2.1,1.3-2.9,2.2c-0.6,0.7-0.7,1.7,0,2.4C368.9,222.3,370.1,222.4,370.7,221.7L370.7,221.7
					z"/>
			</g>
		</g>
	</g>
	<g>
		<g>
			<path class="st2" d="M395.4,180.4c3.4-1.6,5-6.5,5-10c0-0.2,0-0.4-0.2-0.6c-0.1-0.2-0.4-0.2-0.6-0.3c-2.7-0.6-5.1-0.7-7.8-0.5
				c-0.7,0-1.4,0.1-1.9,0.6s-0.5,1.3-0.5,2c0,0.8,0.1,1.6,0.1,2.4c0.1,1.3,0.1,2.7,0.6,4c0.5,1.2,1.5,2.4,2.8,2.7
				C393.8,180.9,394.7,180.7,395.4,180.4z"/>
		</g>
		<g>
			<g>
				<path class="st1" d="M396.3,181.8c2.4-1.2,4-3.6,4.9-6c0.5-1.2,0.7-2.5,0.9-3.9c0.2-1.6,0.1-3.5-1.8-4.1c-1.6-0.4-3.4-0.6-5-0.7
					c-0.8,0-1.5,0-2.3,0s-1.7,0-2.6,0.3c-1.9,0.6-2.6,2.3-2.6,4.2c0.1,1.7,0.1,3.5,0.3,5.2c0.3,1.8,1.1,3.6,2.6,4.7
					C392.5,182.8,394.5,182.6,396.3,181.8c0.8-0.4,1-1.6,0.6-2.3c-0.5-0.9-1.5-1-2.3-0.6c-0.3,0.1-0.8,0.2-1.2,0.2
					c0.2,0-0.1,0-0.1,0c-0.5-0.1,0.1,0.1-0.1,0c-0.1-0.1-0.2-0.1-0.4-0.2l-0.1-0.1c0.1,0.1,0.1,0.1,0,0s-0.2-0.2-0.3-0.3
					c0,0-0.2-0.2-0.1,0c-0.2-0.2-0.3-0.4-0.4-0.6c0-0.1-0.2-0.4-0.1-0.1c-0.1-0.1-0.1-0.3-0.1-0.4c-0.1-0.3-0.2-0.7-0.2-1
					c-0.2-1.1-0.2-2.5-0.2-3.7c0-0.5-0.1-1.1,0-1.7c0,0.3,0.1-0.1,0,0c0,0-0.2,0.2,0,0.1c0.1-0.1-0.1,0.1-0.1,0.1
					c0.2,0,0.3-0.1,0.5-0.1c-0.1,0-0.3,0,0.1,0c0.1,0,0.3,0,0.4,0c0.3,0,0.7,0,1,0c0.7,0,1.3,0,2,0c1.3,0,2.4,0.2,3.6,0.4
					c0.2,0,0.4,0.1,0.5,0.1h0.1c0.4,0.1,0.2-0.1-0.5-0.6c-0.1,0,0-0.3,0,0c0,0.1,0,0.2,0,0.3c0,0.5,0,0.9-0.1,1.4
					c0-0.4,0,0.2-0.1,0.3c0,0.3-0.1,0.5-0.2,0.8c-0.1,0.5-0.2,0.9-0.4,1.4c0,0.1-0.1,0.2-0.1,0.4c0,0.1-0.1,0.1-0.1,0.2
					c0.1-0.1,0.1-0.2,0,0s-0.2,0.5-0.3,0.7c-0.3,0.5-0.5,0.9-0.9,1.4c0.2-0.2,0,0,0,0c-0.1,0.1-0.2,0.2-0.3,0.3
					c-0.2,0.2-0.3,0.4-0.5,0.5c0,0-0.4,0.3-0.2,0.1c0.2-0.1-0.2,0.1-0.2,0.1c-0.2,0.2-0.5,0.3-0.8,0.4c-0.8,0.4-1.1,1.6-0.6,2.3
					C394.5,182.1,395.5,182.2,396.3,181.8z"/>
			</g>
		</g>
	</g>
</g>
</svg>
