<?xml version="1.0" encoding="utf-8"?>
<!-- Generator: Adobe Illustrator 25.4.1, SVG Export Plug-In . SVG Version: 6.00 Build 0)  -->
<svg version="1.1" id="레이어_1" xmlns="http://www.w3.org/2000/svg" xmlns:xlink="http://www.w3.org/1999/xlink" x="0px"
	 y="0px" viewBox="0 0 500 323" style="enable-background:new 0 0 500 323;" xml:space="preserve">
<style type="text/css">
	.st0{fill:#FFFFFF;}
	.st1{fill:#0E0E0E;}
	.st2{fill:#6EA1DD;}
	.st3{fill:#54453F;}
	.st4{fill:#FFD8C7;}
	.st5{fill:#FFB9A0;}
	.st6{fill:#1BDDAA;}
	.st7{fill:#714038;}
	.st8{fill:#E38EF0;}
	.st9{fill:#372E2B;}
</style>
<g>
	<g>
		<g>
			<g>
				<path class="st0" d="M243.4,317.5c6.4,1.5,13.2,1.2,19.4-1.1c0.9-0.3,1.8-0.7,2.4-1.4c0.7-0.9,0.8-2.1,0.9-3.2
					c0.4-6.9,2-17.2-4.6-21.7c-2.7-1.8-6.4-1.7-9.4-0.6c-2.6,1-5.1,2.7-6.2,5.3c-1.5,3.5-0.9,7-3.1,10.3c-1.1,1.7-2.7,3.2-3.6,5
					c-0.9,1.8-1,4.3,0.4,5.8c0.8,0.8,1.8,1.1,2.8,1.4C242.7,317.3,243,317.4,243.4,317.5z"/>
			</g>
			<g>
				<g>
					<path class="st1" d="M243,319c3.8,0.9,7.8,1.2,11.7,0.8c2-0.2,3.9-0.5,5.8-1c1.8-0.5,3.9-1,5.3-2.2c1.4-1.2,1.7-3.1,1.8-4.9
						c0.1-1.3,0.2-2.6,0.3-3.9c0.2-2.8,0.3-5.6,0-8.3c-0.3-2.8-1.1-5.6-2.8-7.9c-2-2.7-5-4.4-8.5-4.4c-3.5,0-7,1.3-9.7,3.5
						c-1.3,1.1-2.3,2.5-2.9,4.2c-0.6,1.7-0.8,3.5-1.2,5.3c-0.4,1.9-1.1,3.6-2.3,5.1c-1.3,1.7-2.7,3.3-3.4,5.3
						c-0.6,1.8-0.6,3.9,0.5,5.5C238.9,317.9,240.9,318.5,243,319c1.9,0.5,2.8-2.5,0.8-3c-1.2-0.3-2.9-0.6-3.5-1.7
						c-0.2-0.4-0.3-0.9-0.3-1.3c0-0.7,0.1-1.3,0.4-2c0.5-1.2,1.6-2.5,2.5-3.6c1.1-1.4,2-2.9,2.6-4.6c0.9-2.8,0.7-6.3,2.5-8.7
						c1.6-2.1,4.6-3.4,7.2-3.8c1.4-0.2,2.7-0.1,4,0.4c1.2,0.4,2,1.1,2.9,2c0.1,0.1,0.2,0.2,0.3,0.4c0.3,0.4-0.1-0.1,0.1,0.1
						c0.2,0.2,0.3,0.5,0.5,0.7c0.3,0.5,0.6,1,0.8,1.5c-0.1-0.3,0.1,0.2,0.1,0.2c0.1,0.2,0.1,0.3,0.2,0.5c0.1,0.3,0.2,0.5,0.2,0.8
						c0.2,0.6,0.3,1.2,0.4,1.8c0.1,0.6,0.1,0.8,0.2,1.5c0.1,0.7,0.1,1.4,0.1,2.1c0,1.3,0,2.5-0.1,3.8c-0.1,1.2-0.2,2.4-0.2,3.6
						c-0.1,1.2,0,2.4-0.3,3.5c-0.2,0.7-0.5,1.1-1.2,1.4c-0.7,0.4-1.5,0.6-2.3,0.8c-1.8,0.6-3.7,1-5.5,1.2c-3.8,0.4-7.7,0.2-11.5-0.6
						C241.8,315.5,241,318.5,243,319z"/>
				</g>
			</g>
		</g>
		<g>
			<g>
				<path class="st0" d="M211.9,296.3c-1,3.2-4.1,5.3-7.1,6.7s-6.4,2.4-8.9,4.6c-1.5,1.3-2.7,3.3-2.1,5.1c0.8,2.4,3.9,3,6.4,3.1
					c7,0.3,13.9,0.1,20.9-0.6c2.9-0.3,6.2-0.9,7.6-3.5c0.7-1.2,0.8-2.7,0.9-4.1c0.3-4.7,0.2-9.5-0.1-14.2"/>
			</g>
			<g>
				<g>
					<path class="st1" d="M210.4,295.9c-0.7,2.1-2.5,3.7-4.5,4.8c-2.4,1.4-5,2.2-7.5,3.4c-2.5,1.3-5.1,3.1-6.1,5.8
						c-1,2.6,0.4,5.3,2.8,6.5c2.4,1.1,5.2,1.1,7.8,1.1c3.2,0.1,6.5,0,9.7-0.1c3.1-0.1,6.2-0.3,9.3-0.7c2.5-0.3,5.1-0.9,7-2.7
						c2.5-2.4,2.3-6.4,2.4-9.6c0.1-3.6,0-7.3-0.2-10.9c-0.1-0.8-0.7-1.6-1.6-1.6c-0.8,0-1.6,0.7-1.6,1.6c0.2,3,0.3,6.1,0.3,9.1
						c0,1.5-0.1,3-0.1,4.4c-0.1,1.2-0.1,2.5-0.6,3.6c-0.4,0.9-1,1.4-1.9,1.9c-0.8,0.4-1.9,0.7-3,0.9c-1.1,0.2-2.4,0.3-3.6,0.4
						c-1.5,0.1-3,0.2-4.4,0.3c-3,0.2-6,0.3-9,0.2c-1.5,0-3.1,0-4.6-0.1c-1.2,0-2-0.1-3.1-0.3c-0.2-0.1-0.4-0.1-0.7-0.2
						c-0.1,0-0.6-0.2-0.4-0.1c-0.5-0.2-0.8-0.4-1.1-0.7c-0.1-0.1-0.1-0.1-0.2-0.2c-0.2-0.2,0.2,0.3-0.1-0.1
						c-0.1-0.1-0.1-0.2-0.2-0.3c0,0.1,0.1,0.2,0-0.1c-0.1-0.5-0.1-0.8,0-1.3c0.7-2.2,3.3-3.6,5.2-4.5c2.5-1.2,5.3-2.1,7.6-3.6
						c2.4-1.5,4.4-3.5,5.2-6.3c0.3-0.8-0.3-1.7-1.1-1.9C211.5,294.6,210.6,295.1,210.4,295.9L210.4,295.9z"/>
				</g>
			</g>
		</g>
		<g>
			<g>
				<path class="st2" d="M198.3,178.1c-1.1,7.9-2.8,15.1-3.3,23.1c-0.6,9.4-0.8,18.8-0.6,28.2c0.5,18.4,2.6,36.8,6.5,54.8
					c0.6,2.6,1.2,5.4,3.2,7.3c1.4,1.4,3.4,2.2,4.1,4.1c0.3,0.9,0.3,1.9,0.8,2.6c0.7,0.9,2.1,1,3.2,0.9c5.4-0.2,10.8-0.4,16.3-0.5
					c0.9,0,1.9-0.1,2.6-0.7c2.5-2.1,4.4-9.4,6.2-12.5c1.9-3.2,3.7-6.3,3.9-10.2c0.3-6.7-2.9-13-2.5-19.9c1.4-22.6,4.5-45.2,6.8-67.7
					"/>
			</g>
			<g>
				<g>
					<path class="st1" d="M196.8,177.7c-0.6,4.4-1.4,8.7-2.1,13.1c-0.7,4.5-1.2,9.1-1.4,13.7c-0.5,9.3-0.6,18.7-0.3,28
						c0.3,9.1,1.1,18.2,2.2,27.3c0.6,4.6,1.3,9.2,2,13.7c0.8,4.4,1.5,8.8,2.6,13.1c0.5,1.9,1.2,3.7,2.3,5.2c1.1,1.4,2.7,2.2,3.9,3.4
						c0.5,0.5,0.7,1,0.9,1.8c0.2,1,0.5,1.9,1.3,2.6c1.7,1.4,4.1,1.1,6.1,1c4.6-0.2,9.3-0.3,13.9-0.5c1,0,2.1-0.1,3-0.5
						c0.6-0.3,1.2-0.8,1.6-1.4c0.9-1.1,1.6-2.5,2.2-3.8c0.7-1.5,1.3-3.1,1.9-4.6c0.3-0.8,0.5-1.3,0.8-1.9c0.2-0.6,0.5-1.1,0.8-1.6
						c2-3.6,4-7.1,4.1-11.4c0.1-4.1-1-8.2-1.8-12.2c-0.4-2-0.7-3.9-0.7-5.9c0-2.3,0.2-4.6,0.4-6.9c0.7-9.3,1.6-18.5,2.6-27.7
						c1-9.3,2.1-18.5,3.1-27.8c0.2-2.3,0.5-4.5,0.7-6.8c0.1-0.8-0.8-1.6-1.6-1.6c-0.9,0-1.5,0.7-1.6,1.6c-0.9,9.1-2,18.1-3,27.2
						c-1,9-2,18-2.8,27.1c-0.4,4.5-0.8,9.1-1,13.6c-0.2,4.1,0.8,8.1,1.6,12.1c0.8,3.7,1.4,7.6,0.1,11.3c-0.6,1.8-1.6,3.4-2.5,5
						c-0.7,1.3-1.3,2.5-1.9,3.9c-1.1,2.8-1.9,5.4-3.6,7.9c-0.1,0.1-0.2,0.3-0.3,0.4c0,0.1-0.1,0.1-0.1,0.2c0,0,0.2-0.2,0-0.1
						c-0.1,0.1-0.2,0.2-0.2,0.3c0,0.1-0.3,0.3-0.2,0.3c-0.1,0.1-0.5,0.2-0.8,0.3c-0.3,0-0.8,0-1.1,0c-2.3,0.1-4.6,0.2-6.8,0.2
						c-2.3,0.1-4.6,0.2-6.8,0.2c-1,0-2.1,0.1-3.1,0.1c-0.4,0-0.5,0-0.9-0.2c0.1,0-0.1-0.1-0.1-0.1c0,0-0.1-0.2-0.1-0.2
						c-0.2-0.4-0.2-0.8-0.3-1.2c-0.1-0.5-0.3-0.9-0.5-1.4c-0.4-0.8-1-1.5-1.7-2c-1.3-1.1-2.6-1.8-3.5-3.3c-0.9-1.5-1.3-3.2-1.7-4.9
						c-0.5-2.1-0.9-4.3-1.3-6.5c-0.8-4.4-1.6-8.7-2.2-13.1c-1.3-8.8-2.2-17.7-2.6-26.6c-0.5-9.1-0.6-18.1-0.2-27.2
						c0.2-4.5,0.3-9,0.8-13.4c0.4-4.2,1.2-8.4,1.9-12.6c0.4-2.1,0.7-4.2,1-6.4c0.1-0.8-0.2-1.7-1.1-1.9
						C198,176.4,196.9,176.8,196.8,177.7L196.8,177.7z"/>
				</g>
			</g>
		</g>
		<g>
			<g>
				<path class="st2" d="M223.1,208.2c2.9,13.8,7.6,26.4,9,40.8c1,10.3,2,20.5,3,30.8c0.5,4.7,1.2,9.9,4.9,12.9
					c0.9,0.7,1.9,1.3,2.6,2.2c0.7,1,0.9,2.3,1.9,3c0.7,0.6,1.7,0.7,2.6,0.8c5.1,0.4,10.2,0.4,15.2-0.1c1.2-0.1,2.5-0.3,3.5-1.1
					c1.2-1,1.6-2.7,2.1-4.2c1.3-3.6,4.5-5.5,6-9c2-4.8,2.4-10.8,2.7-15.9c0.7-11.2-0.6-22.3-1.5-33.4c-1.5-16.9-5-33.8-11.4-49.6"/>
			</g>
			<g>
				<g>
					<path class="st1" d="M221.5,208.6c1.6,7.6,3.8,15.1,5.7,22.6c0.9,3.8,1.8,7.6,2.4,11.4c0.7,4,1,8,1.4,12
						c0.8,8.4,1.6,16.8,2.5,25.2c0.3,3.3,0.7,6.6,2.1,9.6c0.6,1.4,1.5,2.7,2.7,3.8c1.1,1.1,2.6,1.7,3.4,3.1c0.3,0.6,0.6,1.3,1,1.9
						c0.7,0.9,1.6,1.4,2.6,1.7c1.9,0.4,4,0.4,6,0.5c4.1,0.1,8.3,0.1,12.4-0.6c1.9-0.3,3.5-1.3,4.4-3c0.7-1.4,1-2.9,1.8-4.3
						c0.8-1.4,1.8-2.4,2.8-3.7c1.1-1.3,2-2.7,2.7-4.3c1.4-3.4,1.9-7.1,2.3-10.7c0.4-3.8,0.6-7.7,0.6-11.6c0.1-8.4-0.8-16.8-1.5-25.2
						c-0.7-8-1.7-15.9-3.3-23.8c-1.6-7.8-3.6-15.6-6.3-23.1c-0.7-1.8-1.4-3.7-2.1-5.5c-0.3-0.8-1-1.3-1.9-1.1
						c-0.7,0.2-1.4,1.1-1.1,1.9c5.8,14.4,9.3,29.7,10.9,45.1c0.9,8.1,1.6,16.3,2,24.4c0.2,4,0.2,8.1,0,12.1c-0.2,3.5-0.4,7-1,10.5
						c-0.3,1.7-0.7,3.4-1.3,5.1c-0.5,1.4-1.3,2.6-2.1,3.7c-1,1.2-2.1,2.4-3,3.8c-0.9,1.4-1.3,2.9-1.9,4.5c-0.2,0.5-0.5,1-0.9,1.4
						c-0.5,0.5-1.2,0.6-1.9,0.7c-1.9,0.3-3.8,0.4-5.7,0.5c-2,0.1-4.1,0.1-6.1,0c-1,0-2-0.1-3-0.2c-0.7-0.1-1.6,0-2.3-0.3
						c-0.6-0.2-0.8-0.7-1-1.3c-0.4-0.8-0.8-1.6-1.4-2.3c-1.1-1.1-2.5-1.8-3.6-3c-1.8-2.1-2.4-5.2-2.8-8c-0.5-3.6-0.8-7.5-1.1-11.2
						c-0.4-4.1-0.8-8.2-1.2-12.3c-0.4-4-0.7-8.1-1.2-12.1c-0.5-3.8-1.2-7.6-2-11.4c-1.6-7.4-3.8-14.7-5.6-22
						c-0.4-1.8-0.8-3.6-1.2-5.4c-0.2-0.8-1.1-1.3-1.9-1.1C221.8,206.9,221.4,207.8,221.5,208.6L221.5,208.6z"/>
				</g>
			</g>
		</g>
		<g>
			<g>
				<path class="st3" d="M218.1,42.2c3.8-5.9,7.5-11.5,13.6-16.1c12-8.9,26.7-12.3,40.4-8.2c26,7.8,42.4,24.2,41.4,50.7
					c-0.2,4-2.5,16.6-2.2,20.6c0.3,4.6,1.7,9.1,4,13.1c0.5,0.8,1,1.6,0.9,2.5c-0.1,1.3-1.4,2.2-2.6,2.9c-13,7.4-25.3,11.9-40.5,11
					c-11.5-0.6-25.2-4-33.6-12.3c-8.9-8.8-19.8-13.5-25.9-25.3C205.8,66,209.6,55.4,218.1,42.2z"/>
			</g>
			<g>
				<g>
					<path class="st1" d="M219.5,42.9c3.2-4.9,6.5-9.9,10.9-13.8c4.5-3.9,10-7,15.7-9c5.5-1.9,11.4-2.8,17.2-2.4
						c5.5,0.4,10.8,2.1,15.9,4.2c8.4,3.3,16.4,8.2,22.4,15c1.4,1.7,2.5,3.1,3.7,5c1.2,1.8,2.2,3.7,3,5.6c0.1,0.1,0.1,0.2,0.2,0.4
						c0.2,0.5-0.1-0.1,0.1,0.1c0.1,0.2,0.2,0.5,0.3,0.7c0.2,0.5,0.4,1.1,0.6,1.6c0.4,1,0.7,2.1,1,3.1c0.6,2.2,1,4.6,1.2,6.6
						c0.5,4.3,0.4,8.5-0.2,12.7c0,0.2-0.1,0.5-0.1,0.7c0,0.1,0,0.2,0,0.3c-0.1,0.5,0-0.3,0,0.2c-0.1,0.6-0.2,1.2-0.2,1.8
						c-0.2,1.2-0.3,2.4-0.5,3.7c-0.3,2.1-0.6,4.3-0.7,6.5c-0.4,5.4,1,10.9,3.5,15.8c0.4,0.7,0.8,1.3,1.1,2c0.3,0.6,0.3,0.9,0,1.3
						c-0.6,0.8-2.2,1.5-3.2,2.1c-2.7,1.5-5.4,2.9-8.2,4.1c-5.3,2.4-10.9,4.2-16.7,5.1c-5.8,1-11.8,0.9-17.6,0.3
						c-5.3-0.6-10.8-1.8-15.8-3.8c-2.5-1-4.9-2.2-7.2-3.6c-2.3-1.4-4.1-3.2-6.1-5c-7.8-7.4-17.8-12.5-23.5-22
						c-3-5-5.1-10.8-5.2-16.7c0-5.2,1.6-10.2,4-14.9C216.3,48.1,217.9,45.5,219.5,42.9c0.5-0.7,0.1-1.7-0.6-2.1
						c-0.8-0.4-1.7-0.2-2.1,0.6c-3.3,5.1-6.3,10.4-7.9,16.3c-1.5,5.6-1.3,11.4,0.4,17c1.9,6,5.1,11.5,9.4,16.1
						c3.8,4,8.3,7.3,12.6,10.6c2.2,1.7,4.4,3.5,6.4,5.5c2.1,2,4.2,3.8,6.6,5.3c4.9,3.1,10.4,5.1,16,6.3c11.8,2.7,24.3,2.5,35.9-1.2
						c6-1.9,11.7-4.6,17.2-7.7c1.3-0.7,2.7-1.5,3.6-2.7c1.1-1.6,0.8-3.4-0.1-5c-1.6-2.9-2.8-5.8-3.5-9c-0.5-2.2-0.6-4.3-0.4-6.5
						c0.2-2.2,0.5-4.4,0.7-6.6c0.1-0.9,0.3-2.1,0.4-3.3c0.2-1.2,0.3-2.5,0.5-3.7c0.2-1.8,0.4-3.7,0.5-5.5c0.2-9.6-2.1-19.2-7.3-27.2
						c-5.1-7.9-12.7-13.8-21-18c-4.7-2.4-9.6-4.3-14.7-5.7c-6-1.7-12.3-2.1-18.5-1.1c-6.2,0.9-12.2,3.1-17.6,6.3
						c-2.8,1.6-5.6,3.5-8,5.7c-2.3,2.1-4.4,4.4-6.3,6.9c-1.8,2.4-3.4,4.8-5,7.3c-0.5,0.7-0.1,1.7,0.6,2.1
						C218.1,43.9,219,43.6,219.5,42.9z"/>
				</g>
			</g>
		</g>
		<g>
			<g>
				<path class="st4" d="M225.1,38.7c-2.2,0.6-4.5,0.4-6.6-1.1c-4.8-3.4-13.3-8.8-10-15.6c3.3-6.9,8.6-12.9,14.3-18
					c1-0.9,2.1-1.9,3.5-2.2s3,0,3.7,1.2c1.1,1.9-0.6,4.2-2.1,5.7c1.5-1.3,4-1.3,5.5,0.1c1.4,1.4,1.5,4,0.1,5.4
					c1.1-1.3,3.4-0.5,4.1,1c0.7,1.5,0.2,3.4-0.7,4.8c1.9-0.3,3.5,1.8,3.3,3.7c-0.1,1.9-1.3,3.5-2.6,4.9
					C234.5,32.1,230,37.3,225.1,38.7z"/>
			</g>
			<g>
				<g>
					<path class="st1" d="M224.7,37.2c-2.1,0.6-3.9,0.2-5.7-1.1c-1.3-0.9-2.7-1.9-3.9-2.8c-1.3-1-2.6-2.2-3.7-3.5
						c-0.9-1.1-1.7-2.4-2-3.8c0-0.1,0-0.2-0.1-0.3c0,0,0,0.2,0,0c0-0.2,0-0.4,0-0.5c0-0.2,0-0.4,0-0.6c0-0.1,0-0.2,0-0.3
						c0,0.2,0,0,0-0.1c0.2-1,0.5-1.6,0.9-2.4c1.1-2.1,2.3-4,3.6-5.9c2.6-3.7,5.8-7,9.1-10.1c0.9-0.8,1.7-1.7,2.8-2.2
						c0.2-0.1,0.4-0.2,0.6-0.3c0.2-0.1,0.5-0.1,0.6-0.1c0.4,0,0.8,0,1,0.1c0.1,0,0.2,0.1,0.3,0.2c0.2,0.1,0.1,0,0.1,0.1
						c0.1,0.1,0.1,0.1,0,0c0,0,0.2,0.3,0.2,0.3c0.2,0.4,0.1,0.6-0.1,1.1c-0.4,1-1.2,1.8-1.9,2.6c-0.6,0.6-0.6,1.6,0,2.2
						c0.6,0.6,1.6,0.5,2.2,0c0.9-0.7,2.4-0.7,3.3,0.1c0.8,0.8,0.9,2.4,0.1,3.2c-0.6,0.6-0.6,1.6,0,2.2c0.6,0.6,1.6,0.6,2.2,0
						c0.3-0.4-0.2,0.2,0.1-0.1c0.1-0.1,0.2-0.1,0.1,0c-0.1,0-0.1,0,0.1,0c-0.2-0.1,0,0,0.2,0c0.3,0-0.1,0,0.1,0
						c0.1,0,0.4,0.1,0.3,0.1c-0.1-0.1,0.2,0.1,0.2,0.1c0.4,0.2-0.1-0.2,0.2,0.1c0,0,0.3,0.4,0.2,0.1c0.7,1,0.2,2.6-0.4,3.6
						c-0.5,0.9,0.1,2.5,1.3,2.3c0.2,0,0.3,0,0.5,0c-0.2,0,0.2,0,0.2,0.1c-0.2-0.1,0.2,0.1,0.2,0.1c0,0-0.1-0.1,0,0
						c0.1,0.1,0.2,0.2,0.3,0.3c0.3,0.3,0.5,0.9,0.5,1.4c0,1.6-1.2,3-2.1,4.1c-2.2,2.5-4.4,5-7,7C228,35.7,226.4,36.7,224.7,37.2
						c-1.9,0.6-1.1,3.6,0.8,3c4-1.2,7.2-4.1,10-7c1.3-1.4,2.7-2.8,3.9-4.3c1.4-1.8,2.6-3.9,2.2-6.3c-0.4-2.2-2.4-4.4-4.8-4.1
						c0.4,0.8,0.9,1.6,1.3,2.3c1.3-2.2,1.9-5.2,0-7.3c-1.5-1.6-4.3-2.1-5.9-0.4c0.7,0.7,1.5,1.5,2.2,2.2c1.9-2.1,1.9-5.6-0.1-7.6
						c-2.1-2.1-5.5-2-7.7-0.1c0.7,0.7,1.5,1.5,2.2,2.2c1.7-1.7,3.7-4.3,2.7-6.9c-1-2.6-4-3.3-6.4-2.4c-2.5,1-4.4,3.2-6.3,5
						c-1.9,1.8-3.7,3.8-5.3,5.8c-1.7,2.1-3.3,4.3-4.6,6.6c-1.2,2.1-2.5,4.2-2.7,6.7c-0.4,4.1,2.7,7.6,5.6,10.1
						c1.7,1.4,3.5,2.7,5.3,4c1.2,0.8,2.4,1.5,3.9,1.8c1.5,0.3,3.1,0.2,4.6-0.2C227.5,39.6,226.7,36.6,224.7,37.2z"/>
				</g>
			</g>
		</g>
		<g>
			<g>
				<path class="st0" d="M225.7,43.2c0.6-0.9,1.3-1.8,2-2.6c1.1-1.3,2.3-2.7,2.5-4.3c0.2-2.2-1.5-4-3-5.6
					c-8.8-8.6-17.3-19.3-27.3-5.7c-9.9,13.6-15.9,30.1-16.8,46.9c-1.1,19.1,4.4,38.6,15.2,54.4c2.2,3.3,5.4,6.7,9.4,6.4
					c2.2-0.2,4-1.5,5.8-2.8c9.5-7,20.4-12.4,24.3-24.1c1.7-5.1,2.2-10.5,1.8-15.8c-0.2-2.8-0.7-5.6-1.5-8.3c-0.5-1.6-3-5.5-2.8-7
					c-2.8-5.4-6.8-10.1-10.1-15.2C220.9,53.2,221.4,49.6,225.7,43.2z"/>
			</g>
			<g>
				<g>
					<path class="st1" d="M227,44c1.4-2.1,3.4-3.8,4.3-6.1c1-2.5-0.2-5-1.8-7c-1.4-1.6-3.1-3.1-4.6-4.6c-1.5-1.5-2.9-2.9-4.5-4.2
						c-2.8-2.4-6.1-4.7-9.9-5.1c-4.2-0.4-7.8,2.1-10.4,5.1c-1.7,2-3.2,4.2-4.6,6.4c-1.3,2.1-2.6,4.3-3.8,6.5
						c-2.4,4.5-4.3,9.1-5.9,13.9c-3.2,9.5-4.7,19.6-4.5,29.7c0.2,10,2.2,20,5.7,29.4c1.8,4.7,3.9,9.3,6.4,13.7
						c1.2,2.1,2.5,4.2,3.9,6.1c1.4,1.9,3,3.8,5,5.1c2,1.3,4.4,1.8,6.7,1.2c2.4-0.6,4.3-2.2,6.3-3.6c3.4-2.5,7-4.8,10.4-7.3
						c3.4-2.6,6.6-5.4,9.2-8.8c2.8-3.7,4.5-8.1,5.4-12.7c1.1-5.5,1.1-11.1,0-16.6c-0.4-2.2-1-4.2-2-6.2c-0.4-0.8-0.9-1.7-1.2-2.5
						c0,0-0.1-0.3,0-0.1c0-0.1-0.1-0.2-0.1-0.3c-0.1-0.2-0.1-0.4-0.2-0.5c0-0.2-0.1-0.3-0.1-0.5c0-0.1,0-0.2,0,0.1
						c0-0.1,0-0.2,0-0.2c0-0.7-0.4-1.3-0.7-1.9c-0.3-0.6-0.7-1.2-1-1.7c-0.7-1.1-1.4-2.2-2.2-3.3c-1.5-2.2-3-4.3-4.6-6.4
						c-1.4-2-3-4-3.8-6.3c-0.2-0.5-0.3-0.9-0.5-1.4c-0.1-0.2-0.1-0.5-0.1-0.7c0,0,0-0.3,0-0.1c0-0.1,0-0.3,0-0.4
						c-0.1-1,0-1.7,0.2-2.6C224.6,47.8,225.8,45.9,227,44c0.5-0.7,0.1-1.7-0.6-2.1c-0.8-0.4-1.7-0.1-2.1,0.6c-1.3,2-2.6,4.2-3.3,6.5
						c-0.6,2-0.5,4.1,0.1,6.2c0.7,2.4,2.1,4.4,3.5,6.4c1.5,2.1,3,4.2,4.5,6.3c1.7,2.4,3.3,4.9,4.7,7.5c-0.1-0.3-0.1-0.5-0.2-0.8
						c-0.1,1.4,0.7,2.9,1.3,4.1c0.3,0.7,0.7,1.4,1.1,2.1c0.1,0.3,0.3,0.6,0.4,0.8c-0.1-0.3,0,0,0,0.1c0.1,0.2,0.1,0.4,0.2,0.6
						c1.2,4.4,1.7,9,1.4,13.6c-0.3,4.1-1.1,8.4-2.9,12c-1.5,3.2-3.5,5.8-6,8.2c-5,4.9-11.2,8.4-16.8,12.6c-1.5,1.1-3.2,2.4-5.1,2.4
						c-1.5,0-3-0.7-4.2-1.8c-1.4-1.2-2.6-2.7-3.6-4.2c-1.2-1.7-2.3-3.5-3.3-5.3c-4.2-7.2-7.2-15-9.2-23.2
						c-1.9-8.1-2.7-16.4-2.3-24.7c0.5-8.3,2.2-16.5,5-24.4c2.8-7.9,6.8-15.4,11.8-22.1c1.1-1.5,2.5-3,3.9-4c0.3-0.2,0.7-0.4,1-0.6
						c0.2-0.1,0.3-0.2,0.5-0.3c0.1,0,0.1-0.1,0.2-0.1c-0.2,0.1,0,0,0.1,0c0.3-0.1,0.7-0.2,1-0.3c0.2,0,0.3-0.1,0.5-0.1
						c0.1,0,0.1,0,0.2,0c-0.2,0,0,0,0.1,0c0.3,0,0.6,0,0.9,0c0.2,0,0.3,0,0.5,0c0.1,0,0.1,0,0.2,0c0.4,0-0.2,0,0.1,0
						c0.7,0.1,1.3,0.3,1.9,0.5c0.2,0.1,0.3,0.1,0.5,0.2c-0.2-0.1,0.2,0.1,0.2,0.1c0.3,0.2,0.6,0.3,1,0.5c0.7,0.4,1.3,0.8,1.9,1.2
						c1.2,0.9,2.5,2,3.7,3.1c1.3,1.2,2.5,2.4,3.8,3.7c1.3,1.3,2.7,2.5,3.9,3.9c1.1,1.4,1.5,2.8,0.6,4.3c-0.5,0.7-1,1.4-1.6,2.1
						c-0.7,0.9-1.4,1.8-2.1,2.8c-0.5,0.7-0.1,1.7,0.6,2.1C225.6,45,226.5,44.7,227,44z"/>
				</g>
			</g>
		</g>
		<g>
			<g>
				<path class="st0" d="M273.7,108.2c11.1,6.5,21.4,14.6,28.6,25.1c9.4,13.6,15.4,29.9,11.1,46.5c-1.5,5.9-4.4,11.7-9.1,15.5
					c-3.9,3.1-8.9,4.8-13.9,4.9c-1.7,0-3.4-0.1-4.9,0.6c-1.2,0.6-2.2,1.6-3.2,2.4c-4.8,3.7-11.8,3.1-16.3-0.4
					c-3.5-2.7-10.1-7.2-9.3-12.4c0.5-3.1,3.6-4.9,5.5-7c2.5-2.7,3.8-5.9,5.5-9.2c1.7-3.4,3.4-6.8,4.4-10.4c4.6-16,0-29-4.8-44.2"/>
			</g>
			<g>
				<g>
					<path class="st1" d="M272.9,109.5c6.7,3.9,13.2,8.5,18.8,13.9c5.7,5.5,10.4,11.8,14.2,18.7c3.7,6.9,6.5,14.5,7.2,22.4
						c0.7,7.7-0.5,15.9-4.2,22.7c-1.7,3.2-4.1,6.1-7.2,8.1c-3.2,2-6.9,3.2-10.7,3.4c-2.2,0.1-4.4-0.1-6.4,0.9
						c-1.7,0.8-2.9,2.3-4.5,3.3c-2.8,1.6-6.2,1.7-9.3,0.8c-2.9-0.9-5.4-3-7.6-4.8c-1.2-1-2.4-2.1-3.4-3.4c-0.8-1-1.5-2.2-1.7-3.5
						c0,0.3,0-0.2,0-0.3c0-0.2,0-0.3,0-0.5c0-0.4,0-0.4,0.1-0.9c0.1-0.5,0.6-1.3,0.9-1.7c1-1.3,2.4-2.3,3.6-3.5
						c2.9-2.8,4.5-6.4,6.2-9.9c2-4,3.9-8,5-12.4c1.1-4.2,1.6-8.6,1.5-12.9c-0.1-8.4-2.3-16.5-4.8-24.5c-0.6-2-1.3-4.1-1.9-6.1
						c-0.3-0.8-1.1-1.3-1.9-1.1c-0.8,0.2-1.3,1.1-1.1,1.9c2.6,8.1,5.4,16.4,6.3,24.9c0.4,4.2,0.4,8.4-0.2,12.6
						c-0.7,4.5-2.1,8.7-4,12.9c-0.9,1.9-1.9,3.8-2.8,5.8c-0.9,1.8-1.8,3.5-3,5.1c-2.2,2.8-5.6,4.5-6.7,8.1c-1,3.4,0.9,6.8,3.1,9.2
						c1.1,1.2,2.3,2.3,3.6,3.3c1.2,1,2.5,2,3.8,2.9c3,2,6.8,3,10.4,2.5c1.9-0.2,3.8-0.8,5.5-1.8c0.9-0.5,1.7-1.1,2.4-1.8
						c0.7-0.6,1.3-1.2,2.1-1.5c0.9-0.4,2-0.4,2.9-0.4c1,0,2.1,0,3.1-0.1c2.1-0.2,4.1-0.6,6-1.3c3.9-1.4,7.4-3.7,10-6.9
						c5.2-6.3,7.6-14.7,7.9-22.8c0.4-8.4-1.6-16.7-4.9-24.4c-3.3-7.6-7.8-14.7-13.3-20.9c-5.4-6.1-11.9-11.2-18.7-15.6
						c-1.6-1.1-3.3-2.1-5-3.1C272.7,105.8,271.1,108.5,272.9,109.5L272.9,109.5z"/>
				</g>
			</g>
		</g>
		<g>
			<g>
				<path class="st2" d="M279.8,145.6c-1.7,9.3-3.6,18.4-6,27.5c-1.4,5.4-2.8,10-3,15.4c-0.3,7.7-1.4,11.1-9.5,12.4
					c-22,3.6-44.4,0-66.4-3.9c-0.7-0.1-1.3-0.2-1.8-0.7c-1.5-1.3-0.2-3.6,0-5.5c0.4-3.4-2.7-6.1-3.9-9.3c-1.1-2.9-0.6-6.2-0.1-9.3
					c1.8-11.1,3.7-22,7.3-32.7c2.9-8.7,6.3-17.2,10.3-25.5c3.1-6.5,5.4-13.8,10.2-19.3c1.7-1.9,3.6-3.7,6.1-4.5
					c4.1-1.3,8.4,0.4,12.2,2.3c9.1,4.6,18.7,3.4,28.2,7.1c7.1,2.7,18,7.6,19.4,17.2c0.6,4,0.1,8.2-0.4,12.3
					C281.6,134.9,280.7,140.3,279.8,145.6z"/>
			</g>
			<g>
				<g>
					<path class="st1" d="M278.3,145.2c-1.1,6.2-2.4,12.5-3.8,18.7c-0.7,3.1-1.4,6.1-2.2,9.1c-0.7,2.9-1.5,5.8-2.1,8.7
						c-0.5,2.8-0.7,5.6-0.9,8.4c0,0.5-0.1,0.9-0.1,1.4c0,0.2-0.1,0.5-0.1,0.7c0,0.1,0,0.3,0,0c0,0.1,0,0.3-0.1,0.4
						c-0.1,0.8-0.3,1.5-0.6,2.3c0,0.1-0.2,0.6-0.1,0.2c-0.1,0.2-0.1,0.3-0.2,0.5c-0.2,0.3-0.4,0.6-0.5,0.9c-0.1,0.2,0,0,0-0.1
						c-0.1,0.1-0.1,0.1-0.2,0.2c-0.1,0.1-0.2,0.2-0.3,0.4c-0.1,0.1-0.2,0.2-0.4,0.3c-0.1,0.1-0.3,0.2,0,0c-0.1,0.1-0.2,0.1-0.3,0.2
						c-0.3,0.2-0.6,0.4-0.9,0.6c-0.2,0.1-0.3,0.2-0.5,0.2c-0.3,0.1-0.1,0,0,0c-0.1,0.1-0.3,0.1-0.4,0.2c-1,0.3-1.9,0.6-2.9,0.8
						c-6,1.1-12.2,1.5-18.3,1.5c-6.3,0.1-12.5-0.3-18.8-1c-6.2-0.6-12.3-1.5-18.5-2.5c-3.1-0.5-6.3-1.1-9.4-1.6
						c-0.7-0.1-1.4-0.2-2.1-0.4c-0.2,0-0.4-0.1-0.5-0.1c-0.2-0.1-0.2-0.1-0.2-0.3c-0.1-0.3,0-0.2,0-0.1c0-0.1,0-0.3,0-0.4
						c0-0.3,0-0.3,0.1-0.6c0.1-0.6,0.3-1.3,0.4-1.9c0.5-2.6-0.3-4.9-1.7-7.1c-0.6-1-1.3-2-1.8-3.1c-0.5-1.1-0.8-2.3-0.9-3.6
						c-0.1-2.9,0.5-5.8,1-8.6c0.5-3.1,1-6.1,1.6-9.2c1.2-6.1,2.5-12.1,4.3-18c1.8-5.8,4-11.6,6.3-17.2c2.2-5.4,4.9-10.6,7.2-16
						c2.1-4.8,4.2-9.8,7.8-13.7c1.7-1.9,3.7-3.5,6.3-3.9c2.7-0.4,5.5,0.6,8,1.7c1.4,0.6,2.7,1.3,4.1,1.9c1.4,0.6,2.8,1.1,4.3,1.4
						c2.8,0.8,5.6,1.2,8.4,1.6c2.8,0.4,5.7,0.9,8.5,1.5c2.4,0.6,4.8,1.4,7.1,2.4c0.5,0.2,0.5,0.2,1,0.4c0.5,0.2,0.9,0.4,1.4,0.6
						c0.9,0.4,1.9,0.9,2.8,1.4c0.9,0.5,1.7,1,2.6,1.5c0.8,0.5,1.8,1.2,2.4,1.7c0.8,0.6,1.6,1.3,2.3,2.1c0.7,0.8,1.2,1.3,1.7,2.2
						c0.3,0.4,0.5,0.8,0.8,1.3c0.1,0.2,0.2,0.4,0.3,0.7c0.2,0.4,0.1,0.3,0.3,0.6c0.4,0.9,0.6,1.9,0.8,2.9c0.4,3.1,0.2,6.2-0.2,9.3
						c-0.4,3.1-0.8,6.2-1.3,9.3C279.3,139.2,278.8,142.2,278.3,145.2c-0.1,0.8,0.2,1.7,1.1,1.9c0.8,0.2,1.8-0.3,1.9-1.1
						c1.2-6.5,2.2-13.1,3-19.6c0.6-5.4,0.7-11.2-2.4-15.9c-2.4-3.7-6.1-6.4-9.9-8.5c-4-2.2-8.3-4-12.7-5.1
						c-5.8-1.5-11.8-1.8-17.6-3.4c-1.4-0.4-2.8-0.8-4.1-1.4c-1.5-0.6-2.8-1.4-4.3-2c-2.9-1.2-6-2-9.1-1.6c-5.8,0.8-9.7,6.3-12.3,11
						c-1.3,2.4-2.5,4.9-3.6,7.5c-1.1,2.6-2.3,5.2-3.5,7.8c-5.4,11.5-10.1,23.5-13,35.9c-1.5,6.2-2.6,12.5-3.6,18.8
						c-0.5,3-1.2,6.1-1,9.2c0.1,1.6,0.5,3,1.2,4.4c0.5,1.1,1.3,2.2,1.9,3.3c0.6,1,1.2,2,1.4,3.1c0.2,1-0.1,1.9-0.3,3.1
						c-0.3,1.3-0.5,2.7,0.1,4c0.7,1.4,2.1,1.9,3.5,2.1c6.4,1.1,12.8,2.2,19.3,3.2c12.8,1.8,25.9,2.9,38.8,1.8
						c3.2-0.3,6.4-0.6,9.5-1.2c1.9-0.4,3.8-0.9,5.4-2c3.1-2.1,4-5.6,4.3-9.2c0.2-2.6,0.3-5.3,0.7-7.9c0.5-3.1,1.4-6,2.1-9
						c1.6-6.3,3.1-12.7,4.4-19.1c0.6-3.1,1.2-6.1,1.8-9.2c0.1-0.8-0.2-1.7-1.1-1.9C279.4,143.9,278.4,144.4,278.3,145.2z"/>
				</g>
			</g>
		</g>
		<g>
			<g>
				<path class="st4" d="M226.3,67.6c-1.5,0-3.1-0.3-4.6-1c-6-2.6-8.7-9.6-6.1-15.6c2.6-6,9.6-8.7,15.6-6.1c2.2,1,4,2.6,5.2,4.5"/>
			</g>
			<g>
				<g>
					<path class="st1" d="M226.3,66c-1.7,0-3.4-0.5-4.9-1.4c-0.6-0.4-1.1-0.7-1.6-1.1c-0.5-0.4-1.1-1.1-1.4-1.4
						c-0.9-1.1-1.4-2.2-1.8-3.4c-0.4-1.4-0.5-2.5-0.4-4c0.2-2.5,1.6-5.1,3.6-6.9c1.9-1.6,4.5-2.5,7.1-2.4c0.8,0,1.3,0.1,2.2,0.3
						c0.9,0.2,1.5,0.5,2.3,0.9c1.5,0.8,2.8,2,3.8,3.5c0.5,0.7,1.4,1,2.1,0.6c0.7-0.4,1-1.4,0.6-2.1c-2-3.2-5.4-5.5-9.2-6.1
						c-3.4-0.5-6.9,0.2-9.7,2.1c-2.9,2-5,5.1-5.6,8.6c-0.6,3.4,0.1,6.9,2,9.8c2.5,3.7,6.6,6,11,6.1C228.3,69.2,228.3,66.1,226.3,66
						L226.3,66z"/>
				</g>
			</g>
		</g>
		<g>
			<g>
				<path class="st4" d="M270.2,97.8c-3.6,5.6-5.9,12.3-12.3,15.4c-4.5,2.2-10,2.3-14.6,0.2c-1.4-0.6-2.7-1.5-3.8-2.6
					c-6.1-6.7-1.1-15,1.1-22"/>
			</g>
			<g>
				<g>
					<path class="st1" d="M268.8,97c-2,3.2-3.6,6.6-5.8,9.6c-2.2,3-5.1,5.2-8.8,6.2c-4,1-8.5,0.5-12-1.7c-1.6-1-2.9-2.7-3.6-4.4
						c-0.6-1.7-0.7-3.4-0.5-5.2c0.5-4.1,2.6-8.3,3.9-12.3c0.3-0.8-0.3-1.7-1.1-1.9c-0.8-0.2-1.7,0.3-1.9,1.1
						c-1.3,3.9-3.2,7.7-3.8,11.9c-0.3,2.1-0.4,4.3,0.2,6.4c0.6,2.2,1.9,4.3,3.6,5.8c3.6,3.2,9,4.4,13.7,3.8
						c4.5-0.6,8.6-2.7,11.6-6.1c3-3.5,4.8-7.7,7.3-11.5C272.6,96.9,269.9,95.4,268.8,97L268.8,97z"/>
				</g>
			</g>
		</g>
		<g>
			<g>
				<path class="st4" d="M290.2,97.9c1.1,1.1,2.3,2.1,3.8,2.7c6,2.6,13-0.1,15.6-6.1s-0.1-13-6.1-15.6c-2.2-1-4.6-1.2-6.9-0.8"/>
			</g>
			<g>
				<g>
					<path class="st1" d="M289.1,99c2.6,2.7,6.3,4.3,10.1,4.2c3.4-0.1,6.7-1.5,9.1-3.9c2.5-2.5,3.9-5.9,4-9.4c0-3.4-1.3-6.7-3.5-9.2
						c-3.1-3.4-7.9-4.9-12.4-4.1c-0.8,0.1-1.3,1.2-1.1,1.9c0.2,0.9,1.1,1.2,1.9,1.1c3.2-0.5,6.5,0.6,8.7,2.7
						c1.9,1.8,3.1,4.3,3.2,6.8c0.2,2.6-0.7,5.3-2.3,7.3c-1,1.1-1.9,1.9-3.1,2.6c-0.6,0.3-0.9,0.4-1.5,0.6c-0.3,0.1-0.7,0.2-1,0.3
						c-0.2,0-0.3,0.1-0.5,0.1c-0.1,0-0.6,0.1-0.4,0.1c-3.3,0.4-6.5-0.7-8.9-3.2C289.9,95.4,287.7,97.6,289.1,99L289.1,99z"/>
				</g>
			</g>
		</g>
		<g>
			<g>
				<g>
					<path class="st4" d="M301.6,76.5c-5.5-4.6-10.1-10.2-14.6-15.8c-4.6-5.7-9.4-12-9.8-19.5c-15.5,3.5-31.5,4.5-47.1,2.9
						c-0.9,1.5-1.7,3-2.4,4.6c-9.2,20.9,0.3,45.4,21.2,54.6c20.9,9.2,45.4-0.3,54.6-21.2c0.6-1.3,1-2.5,1.5-3.8
						C303.9,78,302.8,77.5,301.6,76.5z"/>
				</g>
				<g>
					<g>
						<path class="st1" d="M302.7,75.4c-4.5-3.8-8.4-8.2-12.1-12.7c-3.4-4.2-7.1-8.4-9.5-13.3c-1.3-2.6-2.2-5.4-2.3-8.2
							c-0.1-1-0.9-1.7-2-1.5c-11.9,2.7-24.1,3.9-36.3,3.5c-3.5-0.1-7-0.3-10.4-0.7c-0.5-0.1-1.1,0.3-1.3,0.8
							c-5.1,8.6-7.1,18.6-5.6,28.4c1.3,8.9,5.6,17.4,11.9,23.8c6.7,6.8,15.6,11.2,25.1,12.4c9,1.2,18.3-0.6,26.2-5
							c8.1-4.4,14.7-11.5,18.4-20c0.6-1.4,1.2-2.9,1.7-4.3c0.3-0.8-0.3-1.8-1.1-1.9C304.3,76.5,303.5,76.1,302.7,75.4
							c-0.7-0.5-1.6-0.6-2.2,0c-0.5,0.5-0.7,1.7,0,2.2c1.2,1,2.5,1.8,4,2.1c-0.4-0.6-0.7-1.3-1.1-1.9c-0.8,2.4-1.8,4.8-3.1,7
							c-1,1.8-2.3,3.8-3.5,5.3c-2.7,3.4-5.9,6.3-9.4,8.6c-7.2,4.6-15.5,6.9-24,6.4c-4.3-0.2-8.6-1.2-12.7-2.8c-4-1.6-7.9-4-11.1-6.8
							c-6.5-5.6-10.9-13.1-12.8-21.4c-1.9-8.3-1-17.4,2.6-25.2c0.6-1.4,1.3-2.7,2.1-4c-0.4,0.3-0.9,0.5-1.3,0.8
							c12.4,1.3,24.9,0.9,37.2-1c3.5-0.5,6.9-1.2,10.4-2c-0.7-0.5-1.3-1-2-1.5c0.3,5.8,3,10.9,6.3,15.5c1.7,2.3,3.5,4.6,5.3,6.8
							c1.9,2.3,3.8,4.7,5.8,6.9c2.3,2.5,4.7,5,7.4,7.2c0.6,0.5,1.6,0.6,2.2,0C303.2,77.1,303.3,76,302.7,75.4z"/>
					</g>
				</g>
			</g>
		</g>
		<g>
			<circle class="st5" cx="283.6" cy="83.8" r="8.6"/>
		</g>
		<g>
			<circle class="st5" cx="238.7" cy="64" r="8.6"/>
		</g>
		<g>
			<circle class="st1" cx="278.6" cy="69.9" r="3.2"/>
		</g>
		<g>
			<circle class="st1" cx="252.8" cy="58.2" r="3.2"/>
		</g>
		<g>
			<g>
				<path class="st1" d="M267.2,62.7c-0.3-0.5-0.8-0.9-1.4-1.1c-0.5-0.1-1-0.1-1.5,0c-0.9,0.3-1.6,1-2.1,1.8
					c-0.8,1.2-1.2,2.7-1.1,4.2c0,0.4,0.2,0.8,0.5,1.1c0.3,0.3,0.7,0.5,1.1,0.5c0.8,0,1.6-0.7,1.6-1.6c0-0.4,0-0.7,0-1.1
					c0,0.1,0,0.3-0.1,0.4c0.1-0.5,0.2-0.9,0.4-1.4c-0.1,0.1-0.1,0.2-0.2,0.4c0.2-0.4,0.4-0.8,0.7-1.1c-0.1,0.1-0.2,0.2-0.2,0.3
					c0.2-0.2,0.3-0.4,0.5-0.6c-0.1,0.1-0.2,0.2-0.3,0.2c0.1-0.1,0.2-0.2,0.4-0.2c-0.1,0.1-0.2,0.1-0.4,0.2c0.1,0,0.2-0.1,0.3-0.1
					c-0.1,0-0.3,0-0.4,0.1c0.1,0,0.2,0,0.3,0c-0.1,0-0.3,0-0.4-0.1c0.1,0,0.2,0,0.3,0.1c-0.1-0.1-0.2-0.1-0.4-0.2
					c0.1,0,0.1,0.1,0.1,0.1c-0.1-0.1-0.2-0.2-0.3-0.2c0.1,0,0.1,0.1,0.2,0.2c-0.1-0.1-0.2-0.2-0.2-0.3c0,0,0,0,0,0
					c0.2,0.3,0.5,0.6,0.9,0.7c0.4,0.1,0.9,0.1,1.2-0.2C267.3,64.4,267.7,63.4,267.2,62.7L267.2,62.7z"/>
			</g>
		</g>
		<g>
			<g>
				<path class="st0" d="M250.8,79.7c-0.5-2.5-0.2-7.2,2-9c1.5-1.2,4.7,0.6,6.2,1.2c2.8,1.1,5.6,2.6,8,4.4c0.8,0.5,1.5,1.2,1.8,2
					c0.5,1.3-0.2,2.7-1.1,3.7c-2.6,3-5.9,5.7-10.2,4.6C254.1,85.7,251.5,83.3,250.8,79.7z"/>
			</g>
			<g>
				<g>
					<path class="st1" d="M252.3,79.3c0-0.1,0-0.3-0.1-0.4c0.1,0.3,0-0.1,0-0.2c0-0.4-0.1-0.7-0.1-1.1c0-0.7,0-1.5,0.1-2.1
						c0.1-0.6,0.3-1.4,0.5-2.1c0-0.1,0.1-0.3,0.3-0.6c0.1-0.2,0.2-0.3,0.3-0.4c0.1-0.1,0,0,0,0c0.1-0.1,0.1-0.1,0.2-0.2
						c0.1-0.1,0.2-0.2,0.3-0.3c-0.2,0.2-0.1,0,0,0c0,0-0.2,0.1-0.1,0c0.1,0,0.1,0,0.2-0.1c0,0-0.3,0-0.1,0c0.2,0,0.4,0,0.6,0
						c0.2,0,0,0,0,0c0.1,0,0.2,0,0.2,0c0.2,0,0.3,0.1,0.5,0.1c0.4,0.1,0.8,0.2,1.1,0.4c0.6,0.2,1,0.4,1.7,0.7
						c0.9,0.4,1.7,0.7,2.6,1.1c1.9,0.9,3.7,1.9,5.4,3.1c0.6,0.4,1.3,0.9,1.5,1.5c0.2,0.6-0.2,1.3-0.6,1.8c-0.9,1.3-2.2,2.4-3.5,3.3
						c-1.3,0.9-2.7,1.4-4.3,1.3c-1.6-0.1-3.3-0.9-4.4-1.9C253.3,82.3,252.6,81,252.3,79.3c-0.2-0.8-1.1-1.3-1.9-1.1
						c-0.9,0.2-1.3,1.1-1.1,1.9c0.8,4,4.1,7.1,8,8c4.5,1.1,8.4-1.5,11.3-4.7c1.6-1.8,2.8-4.4,1.2-6.6c-0.7-1-1.7-1.7-2.7-2.4
						c-1-0.7-2-1.3-3.1-1.9c-1.1-0.6-2.2-1.1-3.4-1.6c-0.3-0.1-0.6-0.3-0.9-0.4c-0.1-0.1-0.3-0.1-0.4-0.2c-0.2-0.1,0.3,0.1,0,0
						c-0.4-0.2-0.7-0.3-1.1-0.5c-1.7-0.7-3.7-1.6-5.5-0.9c-2,0.7-3,3.1-3.4,5c-0.4,2-0.5,4.1-0.1,6.1c0.2,0.8,1.2,1.3,1.9,1.1
						C252,81,252.4,80.1,252.3,79.3z"/>
				</g>
			</g>
		</g>
		<g>
			<g>
				<path class="st1" d="M204.6,30.8c6.8,3.7,12.9,8.4,18.2,13.9c1.4,1.5,3.6-0.7,2.2-2.2c-5.5-5.8-11.9-10.7-18.9-14.4
					C204.4,27.2,202.9,29.9,204.6,30.8L204.6,30.8z"/>
			</g>
		</g>
		<g>
			<g>
				<path class="st1" d="M229.6,96.7c-2.6,4-3.5,9-2.4,13.6c0.9,4.3,3.6,8.1,7.1,10.6c4,2.9,9.1,3.9,13.8,4.5
					c4.9,0.6,9.9,0.5,14.5-1.5c4.3-1.9,8-5.4,9.3-10c0.6-1.9-2.4-2.8-3-0.8c-1,3.3-3.5,5.9-6.6,7.5c-3.7,1.9-8.1,2.2-12.2,1.8
					c-2.2-0.2-4.4-0.6-6.6-1.1c-2-0.5-4.1-1.1-5.9-2.1c-3.2-1.8-5.8-4.8-6.9-8.3c-1.4-4.3-0.7-9,1.7-12.7c0.5-0.7,0.1-1.7-0.6-2.1
					C231,95.7,230.1,96,229.6,96.7L229.6,96.7z"/>
			</g>
		</g>
		<g>
			<g>
				<path class="st1" d="M281.2,168.9c6.7-3.8,14.8-3.7,22.3-3c0.8,0.1,1.6-0.8,1.6-1.6c0-0.9-0.7-1.5-1.6-1.6
					c-8-0.7-16.6-0.7-23.8,3.4C277.9,167.2,279.5,169.9,281.2,168.9L281.2,168.9z"/>
			</g>
		</g>
		<g>
			<g>
				<path class="st4" d="M280.8,203.3c0.6-4.6-0.9-10.6-4.4-13.9c-3.4-3.3-9.2-7.4-14.2-6.3c-4.5,0.9-8.1,5.4-8,10
					c0,0.3,0,0.6,0.2,0.8c0.2,0.2,0.5,0.2,0.8,0.3c1,0.1,2,0.3,3,0.4c-1.1,0.6-2.2,1.4-2.5,2.6c-0.4,1.5,0.7,3.1,2.1,3.8
					s3,0.6,4.6,0.6c-1.4,0.1-2.2,1.8-1.7,3.1c0.5,1.3,1.9,2,3.3,2c1.4,0,2.7-0.6,3.8-1.3c-0.5,1,0.1,2.2,0.9,2.9
					c0.9,0.7,2,1,3.1,1.2c1.9,0.4,4,0.6,5.7-0.3C279.6,208,280.5,205.6,280.8,203.3z"/>
			</g>
			<g>
				<g>
					<path class="st1" d="M282.3,203.3c0.4-3.5-0.3-7.2-1.7-10.4c-1.5-3.3-4-5.7-6.9-7.8c-2.9-2.1-6.6-4-10.3-3.8
						c-3.6,0.2-6.9,2.4-8.9,5.4c-1.1,1.7-1.8,3.7-1.9,5.7c-0.1,1.3,0.2,2.5,1.5,3.1c0.5,0.2,1.1,0.3,1.7,0.3c0.7,0.1,1.4,0.2,2,0.3
						c-0.1-0.9-0.2-1.9-0.4-2.8c-1.1,0.7-2.3,1.5-2.9,2.7c-0.7,1.4-0.6,2.9,0.2,4.2c1.6,2.7,4.8,3,7.7,2.9c-0.1-1-0.3-2-0.4-3.1
						c-1.4,0.2-2.4,1.4-2.8,2.6c-0.4,1.4,0,2.9,1,3.9c2.3,2.5,5.9,1.6,8.4,0.1c-0.8-0.6-1.5-1.2-2.3-1.8c-0.8,2.1,0.7,4.3,2.5,5.2
						c1,0.5,2,0.7,3,0.9c1,0.2,2.1,0.3,3.1,0.3c2.2-0.1,4.1-1,5.4-2.7C281.6,207.1,282.1,205.2,282.3,203.3c0.1-0.8-0.8-1.6-1.6-1.6
						c-0.9,0-1.4,0.7-1.6,1.6c-0.3,2.2-1.4,4.7-4,4.9c-1.4,0.1-2.9-0.1-4.3-0.5c-0.5-0.2-1.1-0.4-1.5-0.8c-0.1-0.1-0.2-0.3-0.2-0.5
						c-0.1-0.2-0.1-0.1,0-0.3c0,0.2,0.1-0.3,0.1-0.3c0.5-1.3-1.2-2.4-2.3-1.8c-0.8,0.5-1.6,1-2.6,1.1c-0.7,0.1-1.3,0-1.8-0.4
						c-0.1,0-0.3-0.3-0.4-0.4c0,0.1-0.1-0.5-0.1-0.2c0,0,0-0.5,0-0.2c0-0.1,0.1-0.5,0.1-0.4c-0.1,0.2,0.3-0.4,0.1-0.1
						c0.2-0.2-0.1,0,0.2-0.1c0.2-0.1,0.2-0.1,0,0c0.1,0,0.2,0,0.3-0.1c0.8-0.1,1.2-1,1.1-1.7c-0.1-0.7-0.7-1.4-1.5-1.4
						c-1.6,0-3.8,0.2-4.8-1.2c-0.2-0.3-0.3-0.5-0.4-0.8c0-0.1,0-0.4,0.1-0.6c0.3-0.7,1.1-1.1,1.7-1.5c0.5-0.3,0.8-0.9,0.7-1.6
						c-0.1-0.5-0.5-1.2-1.1-1.3c-1-0.1-2-0.3-3-0.4c-0.1,0-0.1,0-0.2,0c-0.3-0.1-0.2,0,0.2,0.3c0.1,0.1,0,0.5,0.1,0.1
						c0-0.4,0-0.9,0.1-1.3c0.2-1.2,0.7-2.5,1.4-3.6c1.4-2.2,4-3.8,6.6-3.8c2.9,0,5.8,1.6,8.2,3.3c2.4,1.7,4.4,3.6,5.6,6.2
						c1.4,2.9,1.9,6.2,1.5,9.4c-0.1,0.8,0.8,1.6,1.6,1.6C281.7,204.9,282.2,204.2,282.3,203.3z"/>
				</g>
			</g>
		</g>
		<g>
			<g>
				<path class="st1" d="M207.1,303.7c1.3,1,2.6,1.9,3.9,2.9c0.3,0.2,0.9,0.3,1.2,0.2c0.4-0.1,0.8-0.4,0.9-0.7
					c0.2-0.4,0.3-0.8,0.2-1.2c-0.1-0.1-0.1-0.2-0.2-0.4c-0.1-0.2-0.3-0.4-0.6-0.6c-1.3-1-2.6-1.9-3.9-2.9c-0.3-0.2-0.9-0.3-1.2-0.2
					c-0.4,0.1-0.8,0.4-0.9,0.7c-0.2,0.4-0.3,0.8-0.2,1.2c0.1,0.1,0.1,0.2,0.2,0.4C206.7,303.4,206.9,303.6,207.1,303.7L207.1,303.7z
					"/>
			</g>
		</g>
		<g>
			<g>
				<path class="st1" d="M200.5,306.6c1.2,1.2,2.3,2.3,3.5,3.5c0.3,0.3,0.7,0.5,1.1,0.5c0.4,0,0.8-0.2,1.1-0.5
					c0.3-0.3,0.5-0.7,0.5-1.1c0-0.4-0.2-0.8-0.5-1.1c-1.2-1.2-2.3-2.3-3.5-3.5c-0.3-0.3-0.7-0.5-1.1-0.5c-0.4,0-0.8,0.2-1.1,0.5
					c-0.3,0.3-0.5,0.7-0.5,1.1C200.1,305.9,200.2,306.3,200.5,306.6L200.5,306.6z"/>
			</g>
		</g>
		<g>
			<g>
				<path class="st1" d="M249.7,306.2c0.3-0.1,0.5-0.2,0.8-0.2c0.1,0,0.3-0.1,0.4-0.1c0.3-0.1-0.3,0,0,0c0.6,0,1.1,0,1.6,0
					c0.1,0,0.1,0-0.2,0c0.1,0,0.1,0,0.2,0c0.1,0,0.3,0.1,0.4,0.1c0.3,0.1,0.5,0.1,0.8,0.2c0.1,0,0.3,0.1,0.3,0.1
					c-0.2-0.1-0.2-0.1-0.1,0c0.1,0,0.1,0.1,0.2,0.1c0.3,0.1,0.5,0.3,0.7,0.4c0.7,0.4,1.8,0.2,2.1-0.6c0.4-0.8,0.2-1.7-0.6-2.1
					c-2.2-1.4-5.2-1.8-7.7-0.9c-0.8,0.3-1.4,1.1-1.1,1.9C248,305.9,248.9,306.5,249.7,306.2L249.7,306.2z"/>
			</g>
		</g>
		<g>
			<g>
				<path class="st1" d="M247.3,311.3c1.2,0,2.3,0.1,3.5,0.3c0.1,0,0.3,0,0.4,0c0.1,0,0.6,0.1,0.2,0c0.3,0,0.5,0.1,0.8,0.1
					c0.6,0.1,1.2,0.2,1.7,0.3c0.8,0.2,1.7-0.2,1.9-1.1c0.2-0.8-0.2-1.8-1.1-1.9c-2.4-0.5-4.9-0.8-7.4-0.9c-0.8,0-1.6,0.7-1.6,1.6
					C245.8,310.6,246.4,311.2,247.3,311.3L247.3,311.3z"/>
			</g>
		</g>
	</g>
	<g>
		<g>
			<g>
				<path class="st6" d="M428.1,317.5c6.4,1.5,13.2,1.2,19.4-1.1c0.9-0.3,1.8-0.7,2.4-1.4c0.7-0.9,0.8-2.1,0.9-3.2
					c0.4-6.9,2-17.2-4.6-21.7c-2.7-1.8-6.4-1.7-9.4-0.6c-2.6,1-5.1,2.7-6.2,5.3c-1.5,3.5-0.9,7-3.1,10.3c-1.1,1.7-2.7,3.2-3.6,5
					c-0.9,1.8-1,4.3,0.4,5.8c0.8,0.8,1.8,1.1,2.8,1.4C427.4,317.3,427.8,317.4,428.1,317.5z"/>
			</g>
			<g>
				<g>
					<path class="st1" d="M427.7,319c3.8,0.9,7.8,1.2,11.7,0.8c2-0.2,3.9-0.5,5.8-1c1.8-0.5,3.9-1,5.3-2.2c1.4-1.2,1.7-3.1,1.8-4.9
						c0.1-1.3,0.2-2.6,0.3-3.9c0.2-2.8,0.3-5.6,0-8.3c-0.3-2.8-1.1-5.6-2.8-7.9c-2-2.7-5-4.4-8.5-4.4c-3.5,0-7,1.3-9.7,3.5
						c-1.3,1.1-2.3,2.5-2.9,4.2c-0.6,1.7-0.8,3.5-1.2,5.3c-0.4,1.9-1.1,3.6-2.3,5.1c-1.3,1.7-2.7,3.3-3.4,5.3
						c-0.6,1.8-0.6,3.9,0.5,5.5C423.6,317.9,425.7,318.5,427.7,319c1.9,0.5,2.8-2.5,0.8-3c-1.2-0.3-2.9-0.6-3.5-1.7
						c-0.2-0.4-0.3-0.9-0.3-1.3c0-0.7,0.1-1.3,0.4-2c0.5-1.2,1.6-2.5,2.5-3.6c1.1-1.4,2-2.9,2.6-4.6c0.9-2.8,0.7-6.3,2.5-8.7
						c1.6-2.1,4.6-3.4,7.2-3.8c1.4-0.2,2.7-0.1,4,0.4c1.2,0.4,2,1.1,2.9,2c0.1,0.1,0.2,0.2,0.3,0.4c0.3,0.4-0.1-0.1,0.1,0.1
						c0.2,0.2,0.3,0.5,0.5,0.7c0.3,0.5,0.6,1,0.8,1.5c-0.1-0.3,0.1,0.2,0.1,0.2c0.1,0.2,0.1,0.3,0.2,0.5c0.1,0.3,0.2,0.5,0.2,0.8
						c0.2,0.6,0.3,1.2,0.4,1.8c0.1,0.6,0.1,0.8,0.2,1.5c0.1,0.7,0.1,1.4,0.1,2.1c0,1.3,0,2.5-0.1,3.8c-0.1,1.2-0.2,2.4-0.2,3.6
						c-0.1,1.2,0,2.4-0.3,3.5c-0.2,0.7-0.5,1.1-1.2,1.4c-0.7,0.4-1.5,0.6-2.3,0.8c-1.8,0.6-3.7,1-5.5,1.2c-3.8,0.4-7.7,0.2-11.5-0.6
						C426.6,315.5,425.8,318.5,427.7,319z"/>
				</g>
			</g>
		</g>
		<g>
			<g>
				<path class="st6" d="M396.6,296.3c-1,3.2-4.1,5.3-7.1,6.7c-3.1,1.4-6.4,2.4-8.9,4.6c-1.5,1.3-2.7,3.3-2.1,5.1
					c0.8,2.4,3.9,3,6.4,3.1c7,0.3,13.9,0.1,20.9-0.6c2.9-0.3,6.2-0.9,7.6-3.5c0.7-1.2,0.8-2.7,0.9-4.1c0.3-4.7,0.2-9.5-0.1-14.2"/>
			</g>
			<g>
				<g>
					<path class="st1" d="M395.1,295.9c-0.7,2.1-2.5,3.7-4.5,4.8c-2.4,1.4-5,2.2-7.5,3.4c-2.5,1.3-5.1,3.1-6.1,5.8
						c-1,2.6,0.4,5.3,2.8,6.5c2.4,1.1,5.2,1.1,7.8,1.1c3.2,0.1,6.5,0,9.7-0.1c3.1-0.1,6.2-0.3,9.3-0.7c2.5-0.3,5.1-0.9,7-2.7
						c2.5-2.4,2.3-6.4,2.4-9.6c0.1-3.6,0-7.3-0.2-10.9c-0.1-0.8-0.7-1.6-1.6-1.6c-0.8,0-1.6,0.7-1.6,1.6c0.2,3,0.3,6.1,0.3,9.1
						c0,1.5-0.1,3-0.1,4.4c-0.1,1.2-0.1,2.5-0.6,3.6c-0.4,0.9-1,1.4-1.9,1.9c-0.8,0.4-1.9,0.7-3,0.9c-1.1,0.2-2.4,0.3-3.6,0.4
						c-1.5,0.1-3,0.2-4.4,0.3c-3,0.2-6,0.3-9,0.2c-1.5,0-3.1,0-4.6-0.1c-1.2,0-2-0.1-3.1-0.3c-0.2-0.1-0.4-0.1-0.7-0.2
						c-0.1,0-0.6-0.2-0.4-0.1c-0.5-0.2-0.8-0.4-1.1-0.7c-0.1-0.1-0.1-0.1-0.2-0.2c-0.2-0.2,0.2,0.3-0.1-0.1
						c-0.1-0.1-0.1-0.2-0.2-0.3c0,0.1,0.1,0.2,0-0.1c-0.1-0.5-0.1-0.8,0-1.3c0.7-2.2,3.3-3.6,5.2-4.5c2.5-1.2,5.3-2.1,7.6-3.6
						c2.4-1.5,4.4-3.5,5.2-6.3c0.3-0.8-0.3-1.7-1.1-1.9C396.2,294.6,395.4,295.1,395.1,295.9L395.1,295.9z"/>
				</g>
			</g>
		</g>
		<g>
			<g>
				<path class="st2" d="M383.1,178.1c-1.1,7.9-2.8,15.1-3.3,23.1c-0.6,9.4-0.8,18.8-0.6,28.2c0.5,18.4,2.6,36.8,6.5,54.8
					c0.6,2.6,1.2,5.4,3.2,7.3c1.4,1.4,3.4,2.2,4.1,4.1c0.3,0.9,0.3,1.9,0.8,2.6c0.7,0.9,2.1,1,3.2,0.9c5.4-0.2,10.8-0.4,16.3-0.5
					c0.9,0,1.9-0.1,2.6-0.7c2.5-2.1,4.4-9.4,6.2-12.5c1.9-3.2,3.7-6.3,3.9-10.2c0.3-6.7-2.9-13-2.5-19.9c1.4-22.6,4.5-45.2,6.8-67.7
					"/>
			</g>
			<g>
				<g>
					<path class="st1" d="M381.6,177.7c-0.6,4.4-1.4,8.7-2.1,13.1c-0.7,4.5-1.2,9.1-1.4,13.7c-0.5,9.3-0.6,18.7-0.3,28
						c0.3,9.1,1.1,18.2,2.2,27.3c0.6,4.6,1.3,9.2,2,13.7c0.8,4.4,1.5,8.8,2.6,13.1c0.5,1.9,1.2,3.7,2.3,5.2c1.1,1.4,2.7,2.2,3.9,3.4
						c0.5,0.5,0.7,1,0.9,1.8c0.2,1,0.5,1.9,1.3,2.6c1.7,1.4,4.1,1.1,6.1,1c4.6-0.2,9.3-0.3,13.9-0.5c1,0,2.1-0.1,3-0.5
						c0.6-0.3,1.2-0.8,1.6-1.4c0.9-1.1,1.6-2.5,2.2-3.8c0.7-1.5,1.3-3.1,1.9-4.6c0.3-0.8,0.5-1.3,0.8-1.9c0.2-0.6,0.5-1.1,0.8-1.6
						c2-3.6,4-7.1,4.1-11.4c0.1-4.1-1-8.2-1.8-12.2c-0.4-2-0.7-3.9-0.7-5.9c0-2.3,0.2-4.6,0.4-6.9c0.7-9.3,1.6-18.5,2.6-27.7
						c1-9.3,2.1-18.5,3.1-27.8c0.2-2.3,0.5-4.5,0.7-6.8c0.1-0.8-0.8-1.6-1.6-1.6c-0.9,0-1.5,0.7-1.6,1.6c-0.9,9.1-2,18.1-3,27.2
						c-1,9-2,18-2.8,27.1c-0.4,4.5-0.8,9.1-1,13.6c-0.2,4.1,0.8,8.1,1.6,12.1c0.8,3.7,1.4,7.6,0.1,11.3c-0.6,1.8-1.6,3.4-2.5,5
						c-0.7,1.3-1.3,2.5-1.9,3.9c-1.1,2.8-1.9,5.4-3.6,7.9c-0.1,0.1-0.2,0.3-0.3,0.4c0,0.1-0.1,0.1-0.1,0.2c0,0,0.2-0.2,0-0.1
						c-0.1,0.1-0.2,0.2-0.2,0.3c0,0.1-0.3,0.3-0.2,0.3c-0.1,0.1-0.5,0.2-0.8,0.3c-0.3,0-0.8,0-1.1,0c-2.3,0.1-4.6,0.2-6.8,0.2
						c-2.3,0.1-4.6,0.2-6.8,0.2c-1,0-2.1,0.1-3.1,0.1c-0.4,0-0.5,0-0.9-0.2c0.1,0-0.1-0.1-0.1-0.1c0,0-0.1-0.2-0.1-0.2
						c-0.2-0.4-0.2-0.8-0.3-1.2c-0.1-0.5-0.3-0.9-0.5-1.4c-0.4-0.8-1-1.5-1.7-2c-1.3-1.1-2.6-1.8-3.5-3.3c-0.9-1.5-1.3-3.2-1.7-4.9
						c-0.5-2.1-0.9-4.3-1.3-6.5c-0.8-4.4-1.6-8.7-2.2-13.1c-1.3-8.8-2.2-17.7-2.6-26.6c-0.5-9.1-0.6-18.1-0.2-27.2
						c0.2-4.5,0.3-9,0.8-13.4c0.4-4.2,1.2-8.4,1.9-12.6c0.4-2.1,0.7-4.2,1-6.4c0.1-0.8-0.2-1.7-1.1-1.9
						C382.7,176.4,381.7,176.8,381.6,177.7L381.6,177.7z"/>
				</g>
			</g>
		</g>
		<g>
			<g>
				<path class="st2" d="M407.8,208.2c2.9,13.8,7.6,26.4,9,40.8c1,10.3,2,20.5,3,30.8c0.5,4.7,1.2,9.9,4.9,12.9
					c0.9,0.7,1.9,1.3,2.6,2.2c0.7,1,0.9,2.3,1.9,3c0.7,0.6,1.7,0.7,2.6,0.8c5.1,0.4,10.2,0.4,15.2-0.1c1.2-0.1,2.5-0.3,3.5-1.1
					c1.2-1,1.6-2.7,2.1-4.2c1.3-3.6,4.5-5.5,6-9c2-4.8,2.4-10.8,2.7-15.9c0.7-11.2-0.6-22.3-1.5-33.4c-1.5-16.9-5-33.8-11.4-49.6"/>
			</g>
			<g>
				<g>
					<path class="st1" d="M406.3,208.6c1.6,7.6,3.8,15.1,5.7,22.6c0.9,3.8,1.8,7.6,2.4,11.4c0.7,4,1,8,1.4,12
						c0.8,8.4,1.6,16.8,2.5,25.2c0.3,3.3,0.7,6.6,2.1,9.6c0.6,1.4,1.5,2.7,2.7,3.8c1.1,1.1,2.6,1.7,3.4,3.1c0.3,0.6,0.6,1.3,1,1.9
						c0.7,0.9,1.6,1.4,2.6,1.7c1.9,0.4,4,0.4,6,0.5c4.1,0.1,8.3,0.1,12.4-0.6c1.9-0.3,3.5-1.3,4.4-3c0.7-1.4,1-2.9,1.8-4.3
						c0.8-1.4,1.8-2.4,2.8-3.7c1.1-1.3,2-2.7,2.7-4.3c1.4-3.4,1.9-7.1,2.3-10.7c0.4-3.8,0.6-7.7,0.6-11.6c0.1-8.4-0.8-16.8-1.5-25.2
						c-0.7-8-1.7-15.9-3.3-23.8c-1.6-7.8-3.6-15.6-6.3-23.1c-0.7-1.8-1.4-3.7-2.1-5.5c-0.3-0.8-1-1.3-1.9-1.1
						c-0.7,0.2-1.4,1.1-1.1,1.9c5.8,14.4,9.3,29.7,10.9,45.1c0.9,8.1,1.6,16.3,2,24.4c0.2,4,0.2,8.1,0,12.1c-0.2,3.5-0.4,7-1,10.5
						c-0.3,1.7-0.7,3.4-1.3,5.1c-0.5,1.4-1.3,2.6-2.1,3.7c-1,1.2-2.1,2.4-3,3.8c-0.9,1.4-1.3,2.9-1.9,4.5c-0.2,0.5-0.5,1-0.9,1.4
						c-0.5,0.5-1.2,0.6-1.9,0.7c-1.9,0.3-3.8,0.4-5.7,0.5c-2,0.1-4.1,0.1-6.1,0c-1,0-2-0.1-3-0.2c-0.7-0.1-1.6,0-2.3-0.3
						c-0.6-0.2-0.8-0.7-1-1.3c-0.4-0.8-0.8-1.6-1.4-2.3c-1.1-1.1-2.5-1.8-3.6-3c-1.8-2.1-2.4-5.2-2.8-8c-0.5-3.6-0.8-7.5-1.1-11.2
						c-0.4-4.1-0.8-8.2-1.2-12.3c-0.4-4-0.7-8.1-1.2-12.1c-0.5-3.8-1.2-7.6-2-11.4c-1.6-7.4-3.8-14.7-5.6-22
						c-0.4-1.8-0.8-3.6-1.2-5.4c-0.2-0.8-1.1-1.3-1.9-1.1C406.5,206.9,406.1,207.8,406.3,208.6L406.3,208.6z"/>
				</g>
			</g>
		</g>
		<g>
			<g>
				<path class="st4" d="M390.9,40.2c-2.1,0.9-4.4,1-6.7-0.3c-5.2-2.7-14.3-7.1-11.8-14.3c2.5-7.2,7-13.9,12-19.6
					c0.9-1,1.9-2.1,3.2-2.6s3-0.4,3.8,0.7c1.4,1.7,0,4.2-1.4,5.9c1.3-1.5,3.9-1.7,5.4-0.5s2,3.8,0.8,5.4c0.9-1.4,3.3-0.9,4.2,0.5
					c0.9,1.4,0.6,3.3-0.1,4.9c1.8-0.5,3.6,1.3,3.8,3.2c0.1,1.9-0.9,3.7-2,5.2C399.4,32.6,395.5,38.3,390.9,40.2z"/>
			</g>
			<g>
				<g>
					<path class="st1" d="M390.5,38.7c-1,0.4-2.1,0.7-3.2,0.6c-1-0.1-1.9-0.5-2.7-0.9c-1.4-0.7-2.8-1.5-4.2-2.3
						c-1.5-0.9-2.7-1.7-3.9-2.7c-0.6-0.5-1.2-1.1-1.7-1.8c0.2,0.2-0.2-0.2-0.2-0.3c-0.1-0.1-0.2-0.3-0.3-0.4
						c-0.1-0.1-0.2-0.3-0.2-0.4c0-0.1-0.1-0.2-0.1-0.3c0,0-0.2-0.4-0.1-0.2c0.1,0.2,0-0.1,0-0.1c0-0.1-0.1-0.2-0.1-0.3
						c0-0.2-0.1-0.3-0.1-0.5c0-0.2-0.1-0.4-0.1-0.6c0,0.3,0-0.3,0-0.4c0-0.2,0-0.3,0-0.5c0-0.1,0.1-0.6,0-0.3
						c0.1-0.4,0.2-0.8,0.3-1.3c0.7-2.2,1.7-4.3,2.8-6.3c2.2-4.1,4.9-8,7.9-11.5c0.8-1,1.6-2,2.6-2.8c0.4-0.3,0.8-0.5,1.1-0.6
						c0.3-0.1,0.3-0.1,0.5-0.1c0.1,0,0.2,0,0.4,0c0.1,0,0.1,0,0.2,0c-0.1,0-0.1,0,0,0c0.7,0.1,1,0.6,0.9,1.3
						c-0.1,1.1-0.9,2.1-1.5,2.9c-0.5,0.7-0.6,1.6,0,2.2c0.6,0.6,1.6,0.6,2.2,0c0.3-0.3,0.4-0.4,0.9-0.6c0.2-0.1,0.7-0.2,0.8-0.2
						c0.7,0,1.3,0.1,1.7,0.4c1.1,0.8,1.2,2.3,0.4,3.4c-0.5,0.7-0.1,1.7,0.6,2.1c0.8,0.5,1.6,0.1,2.1-0.6c-0.1,0.1-0.1,0.1,0,0
						c0.1-0.1,0.1-0.1,0,0c0.1-0.1,0.2-0.1,0.1-0.1c-0.1,0-0.1,0,0.1,0c0,0,0.1,0,0.1,0c-0.2,0-0.2,0,0,0c0,0,0.4,0,0.2,0
						c0.4,0,0.7,0.2,1,0.5c-0.2-0.2,0.1,0.2,0.1,0.2c0.1,0.1,0.1,0.2,0.1,0.3c0.1,0.3,0.1,0.6,0.1,0.9c0,0.8-0.3,1.5-0.6,2.3
						c-0.5,1.2,0.9,2.2,1.9,1.9c0.2-0.1,0.1-0.1,0.3,0c-0.2,0,0.2,0,0.3,0.1c0.1,0,0.5,0.3,0.6,0.5c0.4,0.4,0.6,1,0.6,1.6
						c0,1.7-1.1,3.2-2.1,4.5c-1.8,2.7-3.7,5.3-6,7.5c-1.3,1.2-2.6,2.3-4.3,3c-0.8,0.3-0.9,1.5-0.6,2.1c0.5,0.8,1.4,0.9,2.1,0.6
						c3.7-1.6,6.4-4.8,8.8-7.9c1.1-1.5,2.2-3,3.2-4.6c1.2-1.9,2.3-4.2,1.7-6.5c-0.6-2.5-3-4.4-5.6-3.8c0.6,0.6,1.3,1.3,1.9,1.9
						c0.9-2.2,1.1-5.3-0.9-7c-1.9-1.5-4.6-1.5-6.1,0.5c0.9,0.5,1.8,1,2.7,1.6c1.5-2.2,1-5.6-1-7.3c-2.2-1.8-5.7-1.6-7.6,0.5
						c0.7,0.7,1.5,1.5,2.2,2.2c1.6-2,3.4-4.9,1.9-7.5c-1.4-2.4-4.6-2.6-6.8-1.3c-1.1,0.7-2.1,1.6-2.9,2.6c-0.9,1-1.7,2-2.5,3
						c-1.7,2.2-3.4,4.5-4.8,6.8c-1.4,2.3-2.7,4.7-3.7,7.1c-0.9,2.1-1.9,4.3-1.7,6.7c0.4,4.1,3.6,7,6.8,9.1c1.7,1.1,3.6,2.1,5.4,3.1
						c1.3,0.7,2.6,1.3,4,1.5c1.6,0.2,3.2,0,4.7-0.6c0.8-0.3,1.3-1,1.1-1.9C392.2,39.1,391.2,38.4,390.5,38.7z"/>
				</g>
			</g>
		</g>
		<g>
			<g>
				<path class="st0" d="M392,44.7c0.5-1,1-1.9,1.6-2.9c0.9-1.4,2-2.9,1.9-4.6c-0.1-2.2-1.9-3.8-3.7-5.2c-9.8-7.4-19.6-17-27.8-2.4
					c-8.2,14.7-12.1,31.8-11,48.6c1.3,19.1,9,37.8,21.7,52.1c2.6,3,6.2,6,10.1,5.2c2.1-0.5,3.8-2,5.4-3.5
					c8.6-8.1,18.8-14.8,21.2-26.9c1-5.2,1-10.7-0.1-15.9c-0.6-2.8-1.4-5.5-2.5-8c-0.7-1.6-3.7-5.1-3.6-6.6c-3.5-5-7.9-9.2-11.9-13.8
					C388.5,55.2,388.5,51.5,392,44.7z"/>
			</g>
			<g>
				<g>
					<path class="st1" d="M393.3,45.5c0.6-1.2,1.3-2.3,2-3.4c0.7-1.1,1.4-2.3,1.6-3.6c0.5-2.6-0.9-4.9-2.8-6.5
						c-1.6-1.4-3.2-2.5-4.9-3.9c-1.6-1.3-3.2-2.5-4.9-3.6c-2.9-2-6.3-3.8-9.9-4c-4-0.1-7.2,2.2-9.6,5.3c-1.6,2-2.8,4.3-3.9,6.6
						c-1.2,2.4-2.3,4.8-3.3,7.3c-1.9,4.8-3.4,9.8-4.4,14.8c-2.1,10.2-2.4,20.6-0.9,30.9c1.4,9.7,4.5,19.2,9,27.9
						c2.2,4.3,4.8,8.5,7.7,12.4c1.5,2,3.1,4,4.7,5.9c1.6,1.8,3.4,3.6,5.6,4.7c2.2,1.1,4.8,1.5,7.2,0.5c2.3-1,4.1-2.8,5.9-4.4
						c3.2-2.9,6.5-5.7,9.6-8.7c3.1-3,5.9-6.2,8-9.9c2.4-4.4,3.5-9.2,3.7-14.2c0.3-5.6-0.6-11.3-2.6-16.6c-0.4-1-0.8-2.1-1.3-3.1
						c-0.4-0.7-0.9-1.4-1.4-2.1c-0.5-0.8-1-1.5-1.4-2.3c0-0.1-0.1-0.2-0.1-0.2c-0.1-0.2,0.1,0.2,0,0c-0.1-0.2-0.1-0.3-0.2-0.5
						c-0.1-0.2,0.1-0.1,0,0.1c0-0.1-0.1-0.8-0.1-0.5c-0.1-0.4-0.4-0.7-0.6-1c-3.1-4.3-6.8-8-10.3-11.9c-1.5-1.7-3-3.4-4-5.5
						c-0.1-0.3-0.2-0.5-0.4-1c-0.1-0.2-0.1-0.4-0.2-0.6c0-0.1-0.1-0.3-0.1-0.4c0-0.1-0.1-0.3,0-0.1c-0.1-0.4-0.1-0.8-0.1-1.2
						c0-0.2,0-0.4,0-0.6c0-0.1,0-0.2,0-0.3c0.1-0.5-0.1,0.3,0-0.2C391.5,49.3,392.4,47.4,393.3,45.5c0.4-0.8,0.2-1.7-0.6-2.1
						c-0.7-0.4-1.8-0.2-2.1,0.6c-1.9,3.9-3.6,8.3-1.9,12.5c0.9,2.3,2.4,4.2,4,6c1.8,2,3.6,4,5.5,6c2,2.2,4,4.5,5.8,7
						c-0.1-0.3-0.1-0.5-0.2-0.8c0,1.5,1,2.8,1.7,4c0.7,1.1,1.6,2.2,2.2,3.5c1.8,4.1,2.8,8.7,3.1,13.2c0.2,4.3-0.1,8.7-1.5,12.8
						c-1.1,3.2-3,6.2-5.1,8.8c-2.3,2.7-4.9,5.2-7.5,7.6c-2.8,2.5-5.5,5-8.2,7.4c-1.3,1.2-2.8,2.2-4.6,2.3c-1.7,0-3.3-0.9-4.7-1.9
						c-1.6-1.2-2.9-2.8-4.2-4.3c-1.3-1.5-2.5-3.1-3.7-4.7c-4.7-6.5-8.6-13.7-11.3-21.3c-2.8-7.6-4.5-15.6-5-23.7
						c-0.6-8.6,0.2-17.3,2.2-25.7c1-4.2,2.3-8.4,4-12.5c0.8-1.9,1.6-3.8,2.6-5.7c1-2,2-3.9,3.2-5.7c0.5-0.7,1-1.4,1.6-2.1
						c0.3-0.3,0.6-0.6,0.9-0.9c0.3-0.3,0.5-0.4,0.8-0.6c0.3-0.2,0.5-0.4,0.8-0.5c0.1-0.1,0.3-0.2,0.5-0.2c0.1,0,0.6-0.2,0.3-0.1
						c0.6-0.2,1.2-0.4,1.8-0.5c-0.3,0,0.1,0,0.2,0c0.2,0,0.3,0,0.5,0c0.3,0,0.7,0,1,0c0.1,0,0.5,0.1,0.2,0c0.1,0,0.3,0,0.4,0.1
						c0.3,0.1,0.7,0.1,1,0.2c0.3,0.1,0.6,0.2,1,0.3c0.1,0.1,0.3,0.1,0.4,0.2c0,0,0.3,0.1,0.2,0.1c-0.1-0.1,0.1,0.1,0.2,0.1
						c0.7,0.3,1.4,0.7,2,1c2.8,1.6,5.4,3.6,7.8,5.5c1.4,1.1,2.9,2.1,4.2,3.3c1.3,1.2,2.1,2.4,1.5,4.1c-0.3,0.9-0.9,1.7-1.5,2.5
						c-0.6,0.9-1.1,1.9-1.6,2.9c-0.4,0.8-0.2,1.7,0.6,2.1C391.9,46.5,392.9,46.2,393.3,45.5z"/>
				</g>
			</g>
		</g>
		<g>
			<g>
				<path class="st0" d="M447.5,103.3c11.8,5.1,23,11.9,31.5,21.4c10.9,12.4,18.9,27.8,16.7,44.8c-0.8,6.1-2.9,12.1-7.2,16.5
					c-3.5,3.6-8.2,5.8-13.2,6.5c-1.6,0.2-3.4,0.3-4.8,1.2c-1.1,0.7-1.9,1.8-2.9,2.8c-4.3,4.3-11.3,4.5-16.2,1.6
					c-3.8-2.3-10.9-5.9-10.8-11.2c0.1-3.1,2.9-5.3,4.6-7.6c2.2-2.9,3.1-6.3,4.3-9.8c1.2-3.6,2.5-7.2,3.1-10.9
					c2.6-16.4-3.5-28.8-10.1-43.2"/>
			</g>
			<g>
				<g>
					<path class="st1" d="M446.7,104.7c7.5,3.2,14.7,7.1,21.2,12c6.3,4.7,11.7,10.6,16.2,17c4.4,6.3,7.8,13.3,9.4,20.9
						c1.6,7.5,1.4,15.8-1.4,23c-1.4,3.5-3.6,6.8-6.5,9.1c-3,2.4-6.7,3.8-10.4,4.4c-2.1,0.3-4.2,0.5-5.9,1.8
						c-1.5,1.1-2.6,2.8-4.1,3.8c-1.4,1-2.9,1.5-4.6,1.8c-1.4,0.2-3.2,0.2-4.7-0.1c-2.9-0.6-5.5-2.3-8-4c-1.4-0.9-2.4-1.6-3.5-2.8
						c-0.2-0.2-0.5-0.5-0.7-0.8c0,0-0.3-0.4-0.2-0.2c-0.1-0.2-0.2-0.3-0.4-0.5c-0.2-0.3-0.3-0.6-0.5-0.9c0-0.1-0.1-0.1-0.1-0.2
						c0,0.1,0.1,0.2,0,0c-0.1-0.2-0.1-0.3-0.2-0.5c-0.4-1.3-0.1-2.5,0.7-3.8c0.9-1.4,2.2-2.6,3.2-4c2.6-3.4,3.8-7.6,5.1-11.5
						c1.5-4.4,2.7-8.7,3.2-13.3c0.4-4.2,0.2-8.4-0.4-12.6c-1.2-8-4.4-15.5-7.7-22.9c-0.8-1.9-1.7-3.7-2.6-5.6
						c-0.3-0.8-1.5-1-2.1-0.6c-0.8,0.5-0.9,1.4-0.6,2.1c3.4,7.5,7,15,9,23.1c2,8.3,2,17-0.6,25.2c-0.7,2.2-1.5,4.4-2.2,6.6
						c-0.7,1.9-1.3,3.9-2.3,5.7c-0.9,1.7-2.1,2.8-3.3,4.3c-1.2,1.5-2.4,3.1-2.6,5.1c-0.5,3.4,1.6,6.4,4.1,8.5c2.4,2,5.1,3.7,7.9,5.1
						c3.3,1.7,7.2,2.3,10.8,1.5c1.8-0.4,3.5-1.1,5-2.2c0.8-0.6,1.6-1.3,2.3-2c0.6-0.7,1.2-1.4,2-1.9c1.7-1.1,3.9-1,5.8-1.3
						c2-0.4,4-1.1,5.9-2c3.8-1.8,7-4.5,9.3-7.9c2.3-3.4,3.8-7.4,4.6-11.5c0.8-4.1,1-8.2,0.7-12.4c-0.7-8.1-3.4-15.8-7.4-22.9
						c-4-7-9.2-13.6-15.3-19c-6.2-5.6-13.4-10.1-20.9-13.7c-1.8-0.9-3.7-1.7-5.6-2.6c-0.8-0.3-1.7-0.2-2.1,0.6
						C445.8,103.2,445.9,104.3,446.7,104.7L446.7,104.7z"/>
				</g>
			</g>
		</g>
		<g>
			<g>
				<path class="st2" d="M458.2,139.8c-0.5,9.4-1.4,18.7-2.6,28.1c-0.7,5.1-1.9,10.7-0.9,15.8c0.9,4.7,1.2,8.3,0.2,13.2
					c-0.3,1.3-0.6,2.7-1.5,3.7c-1.6,1.9-4.5,1.9-7,1.8c-22.9-1.1-45.8-2.2-68.7-3.3c-0.6,0-1.2-0.1-1.7-0.3
					c-2.2-1.1-0.5-4.4-0.6-6.8c0-3-2.8-5-4.3-7.6c-1.8-3.1-1.5-6.9-1.2-10.5c1.1-9.9,2.6-20,4.6-29.8c1.8-9,4.2-17.9,7.1-26.5
					c2.3-6.8,3.7-14.3,7.7-20.4c1.4-2.1,3.2-4.1,5.5-5.2c3.9-1.8,8.4-0.6,12.4,0.8c9.6,3.5,19,1.1,28.9,3.6
					c7.3,1.9,18.7,5.4,21.3,14.8c1.1,3.9,1.1,8.2,1.1,12.3C458.6,128.9,458.5,134.3,458.2,139.8z"/>
			</g>
			<g>
				<g>
					<path class="st1" d="M456.6,139.8c-0.3,6.3-0.8,12.6-1.5,18.9c-0.3,3.1-0.7,6.3-1.1,9.4c-0.4,2.9-0.9,5.8-1.1,8.8
						c-0.1,1.5-0.2,2.9-0.1,4.4c0.1,1.5,0.4,3,0.7,4.5c0.4,2.7,0.6,5.3,0.4,8c-0.1,1.4-0.3,2.7-0.7,4c-0.3,1.1-0.8,1.9-1.7,2.4
						c-0.8,0.4-1.9,0.6-2.9,0.6c-1.4,0-2.7-0.1-4.1-0.1c-12.7-0.6-25.5-1.2-38.2-1.8c-6.4-0.3-12.7-0.6-19.1-0.9
						c-3.2-0.2-6.4-0.2-9.5-0.5c-0.2,0-0.4-0.1-0.6-0.1c-0.1,0-0.2-0.1-0.1-0.1c0.1,0.1-0.2-0.2-0.2-0.2c0.2,0.2-0.1-0.4,0,0
						c0-0.1,0-0.2-0.1-0.3c0.1,0.3,0-0.1,0-0.2c0-0.3,0-0.5,0-0.8c0-0.2,0-0.2,0.1-0.4c0.1-0.6,0.2-1.2,0.3-1.8
						c0.2-1.2,0.3-2.4-0.1-3.6c-0.4-1.2-1.1-2.3-1.8-3.3c-0.7-0.9-1.5-1.8-2.1-2.8c-0.7-1.1-1.1-2.3-1.3-3.6c-0.5-2.6,0-5.4,0.2-8.1
						c0.3-3,0.7-6,1.1-8.9c1.7-12.3,4-24.4,7.5-36.3c1.6-5.6,3.5-11.1,5.2-16.7c1.5-5,3.1-10.3,6.6-14.3c1.6-1.8,3.5-3.2,6-3.5
						c2.7-0.3,5.4,0.4,8,1.3c2.9,1,5.8,1.7,8.9,2.1c2.9,0.3,5.8,0.4,8.8,0.5c2.9,0.1,5.8,0.2,8.7,0.6c2.2,0.3,4.4,0.9,6.6,1.5
						c3.9,1.1,7.3,2.4,10.7,4.6c3.3,2.2,5.7,5.2,6.7,9.1c0.7,2.9,0.8,5.8,0.8,8.8c0,3.1-0.1,6.2-0.2,9.4
						C456.9,133.6,456.8,136.7,456.6,139.8c0,0.8,0.7,1.6,1.6,1.6c0.9,0,1.5-0.7,1.6-1.6c0.4-6.5,0.6-13,0.6-19.4
						c0-3.2-0.2-6.4-1.1-9.4c-0.6-2.2-1.6-4.2-3.1-6c-2.7-3.4-6.5-5.6-10.5-7.2c-4-1.7-8.3-2.9-12.5-3.6c-6.1-0.9-12.3-0.5-18.4-1.3
						c-1.5-0.2-2.9-0.5-4.3-0.8c-1.5-0.4-2.9-0.9-4.3-1.4c-2.8-0.9-5.8-1.5-8.8-1c-5.8,0.8-9.4,6.2-11.6,11.1
						c-2.4,5.2-3.6,10.8-5.4,16.2c-4.1,12.1-7,24.4-9.1,37c-1.1,6.3-2,12.7-2.7,19.1c-0.3,2.9-0.6,5.8,0,8.7
						c0.3,1.4,0.8,2.7,1.6,3.9c0.7,1.1,1.5,2,2.3,3c0.7,0.9,1.3,1.8,1.4,2.9c0,0.2,0,0.9-0.1,1.3c0-0.2,0,0.1,0,0.1
						c0,0.1,0,0.3-0.1,0.4c-0.1,0.3-0.1,0.6-0.2,1c-0.2,1.1-0.4,2.4,0,3.5c0.4,1.3,1.5,2.3,2.9,2.5c1.6,0.3,3.3,0.2,4.9,0.3
						c1.6,0.1,3.3,0.2,4.9,0.2c3.3,0.2,6.5,0.3,9.8,0.5c13.2,0.6,26.4,1.3,39.5,1.9c3.3,0.2,6.5,0.3,9.8,0.5c2.6,0.1,5.4,0.3,7.7-1
						c2.7-1.6,3.2-4.7,3.6-7.5c0.4-3,0.4-5.9,0-8.8c-0.2-1.4-0.5-2.9-0.7-4.3c-0.2-1.5-0.2-3-0.1-4.5c0.2-3,0.7-5.9,1.1-8.8
						c0.9-6.5,1.5-13,2.1-19.6c0.2-3.2,0.5-6.3,0.6-9.5c0-0.8-0.7-1.6-1.6-1.6C457.3,138.2,456.6,138.9,456.6,139.8z"/>
				</g>
			</g>
		</g>
		<g>
			<g>
				<path class="st1" d="M369.8,35c7,2.7,13.6,6.6,19.5,11.4c0.6,0.5,1.6,0.6,2.2,0c0.6-0.6,0.7-1.7,0-2.2
					c-6.3-5.2-13.3-9.3-20.8-12.2c-0.8-0.3-1.7,0.3-1.9,1.1C368.4,34,369,34.7,369.8,35L369.8,35z"/>
			</g>
		</g>
		<g>
			<g>
				<path class="st1" d="M402.5,97.2c-2.1,4.4-2.5,9.6-0.8,14.1c1.5,4,4.4,7.4,8.2,9.5c4.3,2.4,9.6,2.8,14.4,2.8
					c4.8,0,9.7-0.7,13.9-3.1c4-2.3,7.4-6.3,8.2-11c0.1-0.8-0.2-1.7-1.1-1.9c-0.7-0.2-1.8,0.3-1.9,1.1c-0.6,3.5-2.7,6.4-5.6,8.4
					c-3.4,2.3-7.6,3.2-11.7,3.4c-4.3,0.2-9,0-13-1.6c-3.4-1.3-6.2-3.9-7.9-7.1c-2-4-2-8.9-0.1-13c0.4-0.8,0.2-1.7-0.6-2.1
					C403.9,96.2,402.9,96.4,402.5,97.2L402.5,97.2z"/>
			</g>
		</g>
		<g>
			<g>
				<path class="st1" d="M462.3,162.8c6.2-4.7,14.2-5.5,21.7-5.8c2-0.1,2-3.2,0-3.1c-8,0.3-16.6,1.3-23.3,6.2
					c-0.7,0.5-1,1.3-0.6,2.1C460.5,162.9,461.6,163.3,462.3,162.8L462.3,162.8z"/>
			</g>
		</g>
		<g>
			<g>
				<path class="st4" d="M466.1,196.9c0-4.7-2.2-10.4-6-13.3c-3.8-2.9-10-6.2-14.9-4.6c-4.4,1.5-7.3,6.3-6.7,10.9
					c0,0.3,0.1,0.6,0.3,0.8c0.2,0.2,0.5,0.2,0.8,0.2c1,0,2,0,3.1,0.1c-1,0.7-2,1.6-2.2,2.9c-0.2,1.5,1.1,3,2.6,3.5
					c1.5,0.5,3.1,0.3,4.6,0c-1.3,0.3-1.9,2.1-1.3,3.3c0.6,1.2,2.1,1.8,3.5,1.6s2.6-0.9,3.6-1.8c-0.3,1.1,0.3,2.2,1.3,2.8
					c0.9,0.6,2.1,0.7,3.2,0.8c1.9,0.1,4,0.1,5.6-1C465.5,201.7,466.1,199.2,466.1,196.9z"/>
			</g>
			<g>
				<g>
					<path class="st1" d="M467.7,196.9c0-3.5-1-7.1-2.9-10.2c-1.9-3.1-4.7-5.3-7.8-7c-3.3-1.8-7.1-3.2-10.9-2.5
						c-3.4,0.6-6.5,3.2-8,6.3c-0.8,1.8-1.3,3.7-1.2,5.7c0.1,1.3,0.4,2.8,1.8,3.2c0.6,0.2,1.3,0.1,2,0.1c0.7,0,1.4,0,2,0
						c-0.3-1-0.5-1.9-0.8-2.9c-1.1,0.9-2.2,1.8-2.7,3.1c-0.5,1.4-0.2,2.9,0.7,4.1c2,2.6,5.3,2.4,8.3,2c-0.3-1-0.6-2-0.8-3
						c-3,0.8-3.5,4.9-1.2,6.8c1.2,1,2.7,1.3,4.2,1.1c1.6-0.2,3-1.1,4.3-2.2c-0.9-0.5-1.7-1-2.6-1.5c-0.6,2.3,1,4.4,3.2,5.1
						c1,0.4,2.2,0.4,3.2,0.5c1,0.1,2,0,3-0.1c2-0.3,3.8-1.4,4.8-3.2C467.4,200.8,467.7,198.8,467.7,196.9c0-2-3.1-2-3.1,0
						c0,2.4-0.7,4.9-3.3,5.5c-1.3,0.3-2.8,0.2-4.1,0c-0.6-0.1-1.3-0.3-1.6-0.6c-0.2-0.2-0.3-0.3-0.4-0.6c0.1,0.1-0.1-0.3,0-0.1
						c0-0.2,0,0,0-0.3c0.2-0.7-0.1-1.4-0.7-1.8c-0.6-0.4-1.3-0.2-1.9,0.2c-0.7,0.5-1.4,1-2.3,1.3c-0.6,0.2-1.2,0.1-1.7-0.1
						c-0.3-0.1-0.4-0.3-0.5-0.4c-0.1-0.1-0.1-0.1-0.1-0.2c0,0.1,0,0.1,0-0.1c-0.1-0.3,0,0.1,0-0.2c0-0.1,0.1-0.4,0.2-0.6
						c0.3-0.4-0.2,0.2,0.1-0.1c-0.1,0.1-0.1,0.1,0.1,0c-0.1,0.1-0.1,0.1,0.1,0c0.8-0.2,1.3-1.1,1.1-1.9c-0.2-0.9-1.1-1.2-1.9-1.1
						c-1.6,0.2-3.6,0.5-4.8-0.7c-0.4-0.4-0.6-0.8-0.4-1.4c0.2-0.5,0.8-1.1,1.3-1.5c0.6-0.4,0.9-1,0.7-1.8c-0.2-0.7-0.8-1.1-1.5-1.1
						c-0.5,0-1,0-1.5,0c-0.5,0-1.1-0.1-1.5,0c-0.1,0-0.1,0-0.2,0c0.5,0.6,0.7,0.8,0.6,0.4c0,0-0.1-0.4,0-0.2c-0.1-0.4-0.1-0.8,0-1.3
						c0-1.2,0.4-2.5,1-3.6c1.2-2.3,3.4-4.2,5.9-4.5c2.9-0.4,6,0.8,8.6,2.2c2.5,1.4,4.8,3,6.4,5.4c1.7,2.7,2.7,5.9,2.7,9.1
						C464.6,198.9,467.7,198.9,467.7,196.9z"/>
				</g>
			</g>
		</g>
		<g>
			<g>
				<path class="st4" d="M442.1,94.2c-1.8,3.9-3.6,7.7-5.5,11.6c-1,2.1-2.1,4.3-3.9,5.7c-2.1,1.6-5,1.9-7.6,1.7
					c-4.2-0.3-8.3-1.6-12-3.7c-1.8-1-3.5-2.5-4-4.5c-0.3-1.2-0.1-2.5,0.2-3.8c0.8-4.1,1.6-8.2,2.3-12.3"/>
			</g>
			<g>
				<g>
					<path class="st1" d="M440.7,93.4c-1.8,3.9-3.7,7.9-5.5,11.8c-0.7,1.5-1.4,3.1-2.6,4.3c-1.2,1.2-2.7,1.8-4.3,2.1
						c-3.6,0.5-7.5-0.4-10.8-1.7c-1.7-0.7-3.4-1.5-4.9-2.6c-1.3-1-2.1-2.1-2-3.7c0-1.1,0.3-2.1,0.5-3.2c0.2-1.2,0.5-2.4,0.7-3.6
						c0.5-2.4,0.9-4.9,1.4-7.3c0.2-0.8-0.2-1.7-1.1-1.9c-0.8-0.2-1.8,0.3-1.9,1.1c-0.4,2.3-0.9,4.7-1.3,7c-0.4,2.3-1,4.6-1.3,6.9
						c-0.3,2.3,0.3,4.3,1.8,6c1.4,1.5,3.2,2.6,5,3.4c3.8,1.8,8.2,3,12.4,2.9c2.1,0,4.2-0.4,6-1.5c1.8-1,3-2.6,4-4.4
						c1.2-2.1,2.1-4.4,3.2-6.6c1.1-2.4,2.3-4.9,3.4-7.3c0.4-0.8,0.2-1.7-0.6-2.1C442.2,92.4,441.1,92.6,440.7,93.4L440.7,93.4z"/>
				</g>
			</g>
		</g>
		<g>
			<g>
				<path class="st4" d="M464.5,88c1.2,1,2.6,1.7,4.2,2.2c6.3,1.9,12.9-1.7,14.7-8c1.9-6.3-1.7-12.9-8-14.7
					c-2.4-0.7-4.7-0.6-6.9,0.1"/>
			</g>
			<g>
				<g>
					<path class="st1" d="M463.4,89.1c3,2.5,6.8,3.5,10.7,3c3.2-0.5,6.3-2.2,8.3-4.8c2.1-2.7,3.3-6.2,2.9-9.6
						c-0.4-3.4-1.9-6.6-4.4-8.8c-3.5-3.1-8.4-4.1-12.9-2.8c-1.9,0.6-1.1,3.6,0.8,3c3.3-1,6.6-0.4,9.3,1.6c2,1.5,3.4,3.8,3.9,6.4
						c0.5,2.5-0.1,5.3-1.5,7.5c-1.4,2.1-3.6,3.7-6.1,4.3c-1.3,0.3-2.9,0.4-4.2,0.2c-1.7-0.3-3.4-1-4.7-2.1c-0.7-0.5-1.6-0.6-2.2,0
						C462.9,87.5,462.8,88.6,463.4,89.1L463.4,89.1z"/>
				</g>
			</g>
		</g>
		<g>
			<g>
				<path class="st4" d="M396.8,67.9c-1.5,0.2-3.1,0-4.7-0.4c-6.3-1.9-9.8-8.5-8-14.7c1.9-6.3,8.5-9.8,14.7-8
					c2.4,0.7,4.3,2.1,5.8,3.8"/>
			</g>
			<g>
				<g>
					<path class="st1" d="M396.8,66.3c-3.2,0.3-6.3-0.7-8.4-2.8c-1.9-1.8-3-4.4-3.1-6.9c-0.1-2.7,0.8-5.4,2.6-7.4
						c1.8-1.9,4.3-3.2,6.8-3.4c3.4-0.3,6.7,1.1,8.9,3.8c0.5,0.6,1.6,0.6,2.2,0c0.6-0.6,0.5-1.6,0-2.2c-2.5-3-6.2-4.7-10.1-4.8
						c-3.4,0-6.7,1.3-9.2,3.5c-2.6,2.4-4.1,5.8-4.3,9.3c-0.2,3.4,1,6.8,3.2,9.3c2.8,3.3,7.2,5,11.5,4.6c0.8-0.1,1.6-0.7,1.6-1.6
						C398.3,67.1,397.6,66.3,396.8,66.3L396.8,66.3z"/>
				</g>
			</g>
		</g>
		<g>
			<g>
				<circle class="st4" cx="435.2" cy="61.4" r="41.4"/>
			</g>
			<g>
				<g>
					<path class="st1" d="M394,49.2c-2.5,8.5-2.4,17.7,0.5,26c2.8,8.3,8.1,15.5,15.1,20.7c7.2,5.4,16.1,8.3,25.1,8.4
						c8.6,0.1,17.3-2.5,24.4-7.3c7.4-5,13-12.1,16.2-20.3c3.2-8.3,3.7-17.6,1.5-26.2c-2.2-8.3-6.9-16-13.4-21.6
						c-6.9-5.9-15.5-9.5-24.5-10.3c-8.6-0.8-17.5,1.2-25,5.5c-7.5,4.3-13.7,10.9-17.4,18.8C395.5,44.9,394.7,47,394,49.2
						c-0.6,1.9,2.4,2.7,3,0.8c2.4-7.9,7.1-14.9,13.7-20.1c1.4-1.1,3.2-2.3,4.9-3.3c1.7-1,3.5-1.8,5.3-2.5c1.9-0.7,3.9-1.3,5.9-1.8
						c2.1-0.5,3.8-0.7,5.9-0.8c8.4-0.5,16.7,1.6,23.9,6.1c6.8,4.3,12.2,10.7,15.4,18.2c3.1,7.4,3.9,15.9,2.2,23.8
						c-1.8,8.2-6,15.5-12.2,21.2c-1.5,1.4-2.9,2.5-4.7,3.6c-1.7,1.1-3.5,2.1-5.3,3c-3.5,1.6-7.5,2.8-11.5,3.4
						c-0.7,0.1-1.9,0.2-2.8,0.3c-1.1,0.1-2.1,0.1-3.2,0.1c-2.1,0-4.1-0.2-6-0.6c-4.3-0.7-8.3-2.1-12-4.1c-7.2-3.8-13-9.7-16.7-17
						c-3.7-7.1-5.1-15.5-4.1-23.5c0.3-1.9,0.7-4.1,1.3-6.1C397.6,48.1,394.6,47.3,394,49.2z"/>
				</g>
			</g>
		</g>
		<g>
			<circle class="st5" cx="455.5" cy="77.4" r="8.6"/>
		</g>
		<g>
			<circle class="st5" cx="408.4" cy="63.5" r="8.6"/>
		</g>
		<g>
			<circle class="st1" cx="448.7" cy="64.3" r="3.2"/>
		</g>
		<g>
			<circle class="st1" cx="421.6" cy="55.9" r="3.2"/>
		</g>
		<g>
			<g>
				<path class="st1" d="M436.4,58.4c-0.8-0.9-2-0.9-3-0.4c-0.7,0.3-1.3,1.1-1.6,1.8c-0.7,1.4-1,3.1-0.6,4.7
					c0.2,0.8,1.2,1.3,1.9,1.1c0.8-0.3,1.3-1.1,1.1-1.9c0-0.1,0-0.3-0.1-0.4c0,0.1,0,0.3,0.1,0.4c-0.1-0.5-0.1-0.9,0-1.4
					c0,0.1,0,0.3-0.1,0.4c0.1-0.4,0.2-0.9,0.3-1.3c-0.1,0.1-0.1,0.2-0.2,0.4c0.2-0.4,0.4-0.7,0.6-1.1c-0.1,0.1-0.2,0.2-0.2,0.3
					c0.1-0.1,0.2-0.3,0.4-0.4c-0.1,0.1-0.2,0.2-0.3,0.2c0.1-0.1,0.2-0.1,0.3-0.2c-0.1,0.1-0.2,0.1-0.4,0.2c0.1,0,0.2-0.1,0.3-0.1
					c-0.1,0-0.3,0-0.4,0.1c0.1,0,0.2,0,0.3,0c-0.1,0-0.3,0-0.4-0.1c0.1,0,0.2,0,0.2,0.1c-0.1-0.1-0.2-0.1-0.4-0.2
					c0.1,0,0.1,0.1,0.2,0.1c-0.1-0.1-0.2-0.2-0.3-0.2c0.1,0,0.1,0.1,0.1,0.1c0.5,0.6,1.7,0.6,2.2,0C437,60,436.9,59.1,436.4,58.4
					L436.4,58.4z"/>
			</g>
		</g>
		<g>
			<g>
				<path class="st0" d="M420.9,82.4c-0.5-3.4-0.2-10.2,2.1-13.4c1.6-2.1,4.9-0.6,6.5-0.3c3,0.7,5.8,1.9,8.4,3.7
					c0.8,0.5,1.6,1.2,1.9,2.3c0.5,1.7-0.2,3.9-1.1,5.6c-2.7,5.1-6.2,10-10.7,9.8C424.4,89.9,421.6,87.3,420.9,82.4z"/>
			</g>
			<g>
				<g>
					<path class="st1" d="M422.4,82C422.3,81.7,422.4,82,422.4,82c0,0,0-0.1,0-0.2c0-0.2,0-0.4-0.1-0.6c0-0.5-0.1-0.9-0.1-1.4
						c0-0.9,0-1.9,0.1-2.8c0.1-1.8,0.4-3.7,1.2-5.5c0,0,0.1-0.3,0-0.1c0-0.1,0.1-0.2,0.1-0.3c0.1-0.2,0.2-0.4,0.3-0.5
						c0.1-0.2,0.2-0.3,0.3-0.5c0,0,0.2-0.2,0,0c0.1-0.1,0.2-0.2,0.3-0.3c-0.1,0,0.2-0.1,0.2-0.1c-0.2,0.1,0.1,0,0.2,0
						c0.1,0,0.2,0,0.3-0.1c0.2-0.1-0.2,0,0,0c0.1,0,0.2,0,0.3,0c0.2,0,0.5,0,0.7,0c-0.2,0,0.3,0.1,0.4,0.1c0.2,0,0.4,0.1,0.6,0.1
						c0.4,0.1,0.8,0.2,1.3,0.4c1,0.3,2,0.5,3,0.8c1.1,0.4,2.3,0.9,3.3,1.4c0.5,0.3,1.1,0.6,1.6,0.9c0.4,0.3,1,0.6,1.3,0.9
						c0.7,0.6,0.9,1.3,0.8,2.2c-0.1,1-0.5,2.1-1,3c-1.1,2-2.3,4.1-3.8,5.9c-1.3,1.5-2.7,2.8-4.4,3.2c-0.1,0-0.2,0-0.3,0.1
						c-0.3,0,0,0-0.2,0c-0.3,0-0.5,0-0.8,0c-0.1,0-0.2,0-0.3,0c0,0-0.5-0.1-0.2,0c-0.2,0-0.4-0.1-0.6-0.1c-0.2-0.1-0.4-0.1-0.6-0.2
						c-0.3-0.1-0.1,0,0,0c-0.1-0.1-0.3-0.1-0.4-0.2c-0.2-0.1-0.4-0.2-0.6-0.3c-0.1-0.1-0.2-0.1-0.2-0.2c-0.1-0.1,0.1,0.1-0.1-0.1
						c-0.8-0.7-1.2-1.2-1.7-2.2C422.9,84.3,422.6,83.1,422.4,82c-0.1-0.8-1.2-1.3-1.9-1.1c-0.9,0.2-1.2,1.1-1.1,1.9
						c0.4,2.3,1.3,4.7,3,6.4c1.5,1.5,3.6,2.4,5.7,2.5c5.3,0.2,9-5.1,11.3-9.2c1.4-2.4,2.9-5.3,2-8.1c-0.4-1.4-1.4-2.3-2.5-3.1
						c-1.2-0.8-2.5-1.5-3.8-2.1c-2.3-1-4.7-1.7-7.1-2.3c-2.4-0.6-4.9-0.6-6.4,1.6c-1.5,2.1-2,4.8-2.3,7.3c-0.3,2.4-0.3,4.8,0.1,7.2
						c0.1,0.8,1.2,1.3,1.9,1.1C422.2,83.7,422.5,82.8,422.4,82z"/>
				</g>
			</g>
		</g>
		<g>
			<g>
				<path class="st7" d="M412.3,44.8c6.1-0.6,12.2-2.4,17.6-5.4c0.9,4.7,5,8.5,9.6,9.8c4.6,1.3,9.7,0.4,14-1.6
					c-0.3,3.7,1.4,7.5,4.4,9.8c3.1,2.3,6.9,2.6,10.5,1.7c0.7,4.9,2.1,11.4,7.7,12.6c6.3,1.4,8-7,9-11.8c1.2-6.2,0.9-12.6-0.8-18.7
					c-0.5-1.5-8.3-15.7-8.7-15.1c1.9-3.1,1.2-7.7-1.7-10c-2.8-2.4-7.4-2.3-10.2,0.2c-1.9-2.9-4-6-7.3-7.1c-3.3-1.1-7.8,0.9-7.6,4.4
					c-14-6.5-32.7-4.9-43.7,6.7c-1.9,2-3.6,4.4-5.8,6.1c-1.2,1-2.6,1.8-3.8,2.9c-3.4,3.3-4.3,11.3-0.2,14.4
					C399.4,46.8,407.7,45.3,412.3,44.8z"/>
			</g>
			<g>
				<g>
					<path class="st1" d="M412.3,46.4c6.4-0.6,12.7-2.5,18.3-5.6c-0.8-0.3-1.5-0.6-2.3-0.9c0.7,3.7,3.2,6.9,6.4,8.9
						c3.6,2.3,8,3,12.2,2.4c2.6-0.3,5-1.2,7.4-2.2c-0.8-0.4-1.6-0.9-2.3-1.3c-0.3,4,1.5,8.2,4.6,10.7c3.5,2.8,8,3.3,12.3,2.3
						c-0.6-0.4-1.3-0.7-1.9-1.1c0.8,5.3,2.4,11.9,8.3,13.6c2.5,0.8,5.2,0.2,7-1.8c1.7-1.8,2.7-4.3,3.4-6.7
						c1.9-6.8,2.3-13.8,0.9-20.7c-0.3-1.3-0.5-2.6-1.1-3.8c-0.2-0.6-0.5-1.1-0.8-1.7c-0.9-1.8-1.9-3.6-2.9-5.3
						c-1.1-2-2.2-3.9-3.4-5.8c-0.8-1.3-2.5-4.2-4.2-2c0.9,0.5,1.8,1,2.7,1.6c1.7-2.9,1.7-6.8-0.1-9.7c-1.8-3-5.3-4.7-8.8-4.3
						c-2,0.2-3.9,1-5.4,2.3c0.8,0.1,1.6,0.2,2.4,0.3c-2.3-3.6-5.3-7.7-9.9-8.1c-3.7-0.4-8,2.2-8,6.2c0.8-0.4,1.6-0.9,2.3-1.3
						c-6-2.7-12.6-4.1-19.2-4c-6.6,0.1-13.1,1.7-18.9,5c-2.9,1.6-5.5,3.7-7.8,6.2c-1.3,1.4-2.5,2.9-3.8,4.3
						c-1.4,1.4-3.1,2.4-4.6,3.7c-2.3,1.8-3.6,4.7-4,7.6c-0.4,3-0.1,6.2,1.8,8.6c1.9,2.5,5.1,3.3,8.1,3.5c3.1,0.2,6.2-0.2,9.3-0.5
						C411.1,46.5,411.7,46.4,412.3,46.4c0.8-0.1,1.6-0.7,1.6-1.6c0-0.8-0.7-1.6-1.6-1.6c-2.8,0.3-5.5,0.7-8.3,0.8
						c-1.4,0-3,0-4.2-0.2c-0.6-0.1-1.3-0.3-1.9-0.5c-0.1-0.1-0.3-0.1-0.4-0.2c0.3,0.1-0.2-0.1-0.2-0.1c-0.3-0.2-0.6-0.3-0.9-0.5
						c-0.3-0.2-0.1-0.1,0,0c-0.1-0.1-0.2-0.2-0.3-0.3c-0.1-0.1-0.2-0.2-0.3-0.3c0,0-0.3-0.4-0.1-0.1c-0.2-0.2-0.3-0.5-0.5-0.7
						c-0.1-0.1-0.1-0.3-0.2-0.4c0-0.1-0.1-0.2-0.1-0.3c0.1,0.1,0.1,0.1,0,0c-0.2-0.6-0.4-1.2-0.5-1.8c0,0.3,0-0.2,0-0.2
						c0-0.2,0-0.3,0-0.5c0-0.4,0-0.8,0-1.1c0-1.2,0.3-2.4,0.8-3.7c0.3-0.9,1-2,1.7-2.7c1.3-1.3,2.9-2.1,4.3-3.3
						c1.4-1.2,2.6-2.6,3.8-4c2.1-2.4,4.4-4.5,7-6.2c5-3.2,10.9-5,16.8-5.3c6.7-0.4,13.5,0.7,19.5,3.5c1,0.5,2.4-0.1,2.3-1.3
						c0-0.6,0.1-0.9,0.4-1.5c0.2-0.3-0.1,0.1,0.1-0.1c0.1-0.1,0.2-0.3,0.4-0.4c0.3-0.3,0.2-0.2,0.6-0.4c0.6-0.4,1-0.5,1.8-0.7
						c0.1,0,0.2,0,0.2,0c-0.1,0-0.1,0,0.1,0c0.2,0,0.3,0,0.5,0c0.2,0,0.4,0,0.6,0c0.1,0,0.2,0,0.2,0c-0.2,0-0.1,0,0.1,0
						c3.3,0.7,5.4,3.9,7.1,6.6c0.6,0.9,1.7,1,2.4,0.3c2.2-1.9,5.9-2,8.1-0.1c2.3,2,2.8,5.5,1.3,8c-0.4,0.7-0.2,1.7,0.6,2.1
						c0.8,0.5,1.6,0.1,2.1-0.6c-0.1,0.1-0.2,0.2-0.2,0.3c-0.2,0.1-0.5,0.3-0.7,0.4c-0.4,0.1-1.3,0-1.4-0.3c0,0,0.1,0.1,0.1,0.1
						c0,0,0.1,0.1,0.1,0.1c0.2,0.2-0.2-0.1-0.1-0.2c0,0,0.2,0.3,0.2,0.3c0.4,0.5,0.7,1.1,1.1,1.7c1,1.6,1.9,3.2,2.8,4.8
						c0.9,1.7,1.9,3.4,2.8,5.1c0.3,0.6,0.6,1.2,0.9,1.9c0.1,0.2,0.2,0.4,0.3,0.6c-0.3-0.4-0.1-0.3-0.1-0.1c0.1,0.2,0.1,0.5,0.2,0.7
						c1,3.5,1.4,7.1,1.4,10.7c0,3-0.5,5.9-1.2,8.8c-0.2,1.1-0.5,2.1-0.8,3.2c-0.2,0.5-0.3,1-0.6,1.5c0.1-0.3-0.1,0.1-0.1,0.2
						c-0.1,0.1-0.1,0.3-0.2,0.4c-0.1,0.3-0.3,0.5-0.4,0.7c-0.1,0.2-0.3,0.4-0.4,0.6c-0.1,0.1-0.1,0.2-0.2,0.3
						c-0.2,0.4,0.2-0.2-0.1,0.1c-0.1,0.2-0.3,0.3-0.4,0.5c-0.1,0.1-0.2,0.2-0.3,0.3c-0.1,0.1-0.1,0.1-0.2,0.2c0.2-0.1,0.2-0.1,0,0
						c-0.2,0.1-0.3,0.2-0.5,0.3c-0.1,0.1-0.2,0.1-0.3,0.2c0.3-0.2,0,0-0.1,0c-0.2,0.1-0.4,0.1-0.6,0.2c-0.4,0.1,0.3,0-0.1,0
						c-0.2,0-0.3,0-0.5,0c-0.1,0-0.2,0-0.4,0c-0.2,0-0.2,0,0,0c-0.1,0-0.2,0-0.3-0.1c-0.3-0.1-0.7-0.2-1-0.3
						c-0.4-0.1-1.1-0.5-1.6-0.9c0.2,0.2-0.2-0.1-0.2-0.1c-0.1-0.1-0.2-0.2-0.3-0.3c-0.3-0.3-0.5-0.5-0.7-0.8c0.2,0.2,0-0.1-0.1-0.1
						c-0.1-0.2-0.2-0.3-0.3-0.5c-0.2-0.3-0.4-0.6-0.5-0.9c-0.4-0.7-0.5-1-0.7-1.6c-0.2-0.7-0.4-1.4-0.6-2c-0.3-1.3-0.6-2.7-0.8-4.1
						c-0.1-0.9-1.2-1.3-1.9-1.1c-3.2,0.7-6.7,0.5-9.4-1.6c-2.5-2-3.8-5.2-3.6-8.4c0.1-1.3-1.4-1.8-2.3-1.3
						c-3.4,1.6-7.3,2.5-11.1,1.9c-3.2-0.5-6.1-2-8.2-4.6c-1.1-1.3-1.8-2.8-2.1-4.5c-0.2-1-1.5-1.4-2.3-0.9
						c-5.2,2.9-10.9,4.7-16.8,5.2c-0.8,0.1-1.6,0.7-1.6,1.6C410.8,45.6,411.5,46.5,412.3,46.4z"/>
				</g>
			</g>
		</g>
		<g>
			<g>
				<path class="st1" d="M389.9,305.4c0.2,0,0.5,0,0.7,0.1c0.1,0,0.5,0,0.2,0c-0.3,0,0.2,0,0.2,0c0.5,0.1,0.9,0.2,1.4,0.3
					c0.5,0.1,0.9,0.3,1.3,0.4c0.2,0.1,0.5,0.1,0.7,0.3c-0.2-0.1-0.2-0.1-0.1-0.1c0,0,0.1,0,0.1,0.1c0.1,0.1,0.3,0.1,0.4,0.2
					c0.4,0.2,0.8,0.3,1.2,0.2c0.4-0.1,0.8-0.4,0.9-0.7c0.4-0.7,0.2-1.8-0.6-2.1c-2.1-1-4.2-1.6-6.5-1.7c-0.8-0.1-1.6,0.8-1.6,1.6
					C388.4,304.7,389,305.3,389.9,305.4L389.9,305.4z"/>
			</g>
		</g>
		<g>
			<g>
				<path class="st1" d="M433.3,306.7c3.1-0.7,6.3-0.5,9.4,0.5c0.8,0.3,1.7-0.3,1.9-1.1c0.2-0.9-0.3-1.6-1.1-1.9
					c-3.6-1.2-7.4-1.3-11-0.5c-0.8,0.2-1.3,1.1-1.1,1.9C431.6,306.5,432.5,306.9,433.3,306.7L433.3,306.7z"/>
			</g>
		</g>
	</g>
	<g>
		<g>
			<g>
				<path class="st8" d="M108,296.3c1,3.2,4.1,5.3,7.1,6.7s6.4,2.4,8.9,4.6c1.5,1.3,2.7,3.3,2.1,5.1c-0.8,2.4-3.9,3-6.4,3.1
					c-7,0.3-13.9,0.1-20.9-0.6c-2.9-0.3-6.2-0.9-7.6-3.5c-0.7-1.2-0.8-2.7-0.9-4.1c-0.3-4.7-0.2-9.5,0.1-14.2"/>
			</g>
			<g>
				<g>
					<path class="st1" d="M106.5,296.7c1.6,5.1,6.7,7.2,11.2,9.1c2.2,0.9,4.8,2,6.3,4c0.6,0.8,1,1.7,0.7,2.6c0,0-0.1,0.3,0,0.1
						c0,0.1-0.1,0.2-0.2,0.3c-0.1,0.2-0.1,0.1,0,0.1c-0.1,0.1-0.1,0.2-0.2,0.2c-0.1,0.1-0.2,0.2-0.3,0.3c-0.2,0.2,0.2-0.1-0.1,0
						c-0.2,0.1-0.5,0.3-0.7,0.4c-0.3,0.1,0.3-0.1-0.2,0.1c-0.1,0-0.2,0.1-0.3,0.1c-0.2,0.1-0.4,0.1-0.7,0.2
						c-0.5,0.1-0.9,0.2-1.3,0.2c-1.3,0.1-2.7,0.1-4.1,0.2c-3.1,0.1-6.1,0-9.2-0.1c-2.9-0.1-5.9-0.3-8.8-0.6
						c-1.8-0.2-4.2-0.6-5.5-1.9c-0.8-0.8-1.1-2-1.3-3.2c-0.1-1.6-0.2-3.3-0.2-5c-0.1-3.4,0-6.8,0.2-10.2c0.1-0.8-0.8-1.6-1.6-1.6
						c-0.9,0-1.5,0.7-1.6,1.6c-0.2,3.2-0.3,6.4-0.2,9.6c0,1.6,0.1,3.3,0.2,4.9c0.1,1.5,0.3,3.1,1,4.4c1.2,2.3,3.7,3.4,6.1,3.9
						c2.9,0.6,6,0.7,9,0.9c3.2,0.2,6.4,0.3,9.7,0.3c2.8,0,5.7,0.1,8.4-0.6c2.5-0.6,4.6-2.3,4.8-5c0.2-3-2.3-5.4-4.6-6.9
						c-2.6-1.7-5.6-2.5-8.4-4c-2.3-1.2-4.5-2.8-5.3-5.3c-0.3-0.8-1.1-1.3-1.9-1.1C106.8,295,106.2,295.9,106.5,296.7L106.5,296.7z"
						/>
				</g>
			</g>
		</g>
		<g>
			<g>
				<path class="st1" d="M116.2,304.8c-2.2,1.3-5.1,1.5-7.4,0.5c-2.2-1-4-2.9-4.7-5.2c-0.3-0.8-1.1-1.3-1.9-1.1
					c-0.8,0.2-1.3,1.1-1.1,1.9c1,3.1,3.3,5.8,6.3,7.1c3.4,1.5,7.2,1.2,10.4-0.6C119.6,306.5,118,303.8,116.2,304.8L116.2,304.8z"/>
			</g>
		</g>
		<g>
			<g>
				<path class="st0" d="M51.6,102.7c-10.7,4.1-21.2,10-29.5,19.1C3.9,141.7-7,176.2,14.2,198.2c2.9,3,6.4,5.6,10.5,6.6
					c7,1.8,22.2-4.7,22.9-13.1c0.3-3.3-1.9-5.9-3.1-8.6c-1.5-3.3-1.9-7-2.5-10.8c-0.6-3.9-1.3-7.8-1.3-11.8
					c-0.3-17.6,6.4-30,13.8-44.5"/>
			</g>
			<g>
				<g>
					<path class="st1" d="M51.2,101.2c-8.5,3.2-16.5,7.5-23.5,13.2c-6.2,5.1-11.4,11.4-15.6,18.2c-4,6.5-7.1,13.6-9.1,20.9
						c-1.9,7.3-2.5,14.9-1.4,22.3c1.1,7.5,4.2,14.6,9,20.5c2.7,3.3,5.9,6.5,9.8,8.4c1.7,0.9,3.6,1.6,5.6,1.8c1.4,0.2,2.9,0,4.3-0.2
						c3.2-0.5,6.3-1.6,9.2-3.1c2.9-1.5,5.6-3.5,7.6-6.2c2.1-2.9,2.8-6.4,1.4-9.7c-0.8-1.9-2-3.7-2.8-5.6c-0.8-2.2-1.3-4.5-1.7-6.8
						c-0.8-5-1.8-10.1-1.8-15.2c0-4.5,0.4-9,1.4-13.4c1.8-8.4,5.4-16.1,9.2-23.7c1-1.9,2-3.9,2.9-5.8c0.4-0.7,0.2-1.7-0.6-2.1
						c-0.7-0.4-1.7-0.2-2.1,0.6c-3.9,7.6-7.9,15.2-10.6,23.3c-2.9,8.6-4.1,17.8-3.1,26.8c0.3,2.6,0.7,5.1,1.1,7.7
						c0.4,2.3,0.7,4.6,1.2,6.9c0.6,2.2,1.4,4.2,2.5,6.2c0.9,1.7,1.8,3.4,1.8,5.3c0,0.2,0,0.4,0,0.6c0-0.4,0,0.1,0,0.2
						c-0.1,0.3-0.2,0.7-0.3,1c0,0.1-0.1,0.3-0.2,0.4c-0.1,0.2,0-0.1,0-0.1c0,0.1-0.1,0.2-0.1,0.2c-0.2,0.3-0.3,0.6-0.5,0.9
						c-0.2,0.3-0.3,0.5-0.5,0.8c-0.1,0.1-0.1,0.1-0.2,0.2c0-0.1,0.2-0.2,0,0c-0.1,0.1-0.2,0.3-0.4,0.4c-0.5,0.5-1,1.1-1.5,1.5
						c-2.1,1.8-5.2,3.5-7.8,4.5c-1.4,0.5-2.9,0.9-4.4,1.2c-0.2,0-0.3,0.1-0.5,0.1c-0.1,0-0.2,0-0.3,0c0.3,0,0.1,0,0,0
						c-0.4,0-0.7,0.1-1.1,0.1c-0.6,0-1.3,0-1.9,0c-0.1,0-0.3,0-0.4,0c-0.4,0,0.2,0-0.1,0c-0.3-0.1-0.6-0.1-1-0.2
						c-1-0.3-1.9-0.6-2.8-1c-1.9-0.9-3.6-2.1-5.1-3.5c-5.5-4.9-9.4-11.5-11.3-18.5c-1-3.5-1.4-6.7-1.5-10.2
						c-0.1-3.6,0.2-7.2,0.8-10.5c1.3-7.2,3.8-14.1,7.2-20.6c3.4-6.5,7.6-12.4,12.8-17.6c6.2-6.2,13.6-11.1,21.6-14.7
						c1.8-0.8,3.7-1.6,5.6-2.3c0.8-0.3,1.3-1.1,1.1-1.9C52.9,101.6,52,100.9,51.2,101.2L51.2,101.2z"/>
				</g>
			</g>
		</g>
		<g>
			<g>
				<path class="st8" d="M47.3,296c-0.9,3.2-4,5.4-7,6.8c-3,1.4-6.3,2.5-8.9,4.7c-1.5,1.3-2.7,3.3-2.1,5.1c0.8,2.4,3.9,3,6.4,3
					c7,0.2,13.9-0.1,20.9-0.9c2.9-0.3,6.2-1,7.6-3.6c0.7-1.2,0.8-2.7,0.9-4.1c0.2-4.7,0.1-9.5-0.3-14.2"/>
			</g>
			<g>
				<g>
					<path class="st1" d="M45.8,295.6c-0.7,2.2-2.5,3.8-4.5,4.9c-2.3,1.4-4.9,2.2-7.3,3.5c-2.5,1.3-5,3.1-6,5.8
						c-1,2.6,0.3,5.3,2.8,6.5c2.4,1.1,5.2,1,7.8,1.1c3.2,0,6.5,0,9.7-0.2c3.2-0.2,6.4-0.4,9.6-0.9c2.4-0.3,4.9-1,6.6-2.8
						c2.4-2.5,2.2-6.3,2.2-9.5c0.1-3.7-0.1-7.4-0.4-11c-0.1-0.8-0.7-1.6-1.6-1.6c-0.8,0-1.6,0.7-1.6,1.6c0.2,3,0.4,6.1,0.4,9.1
						c0,1.5,0,3-0.1,4.6c0,1.2,0,2.5-0.6,3.6c-0.4,0.8-1,1.4-1.8,1.8c-0.8,0.4-1.8,0.7-2.9,0.9c-2.5,0.5-5.3,0.7-8,0.9
						c-3,0.2-6.1,0.3-9.2,0.4c-1.5,0-3.1,0-4.6,0c-1.1,0-2.1-0.1-3.1-0.3c-0.4-0.1-1-0.3-1.3-0.4c-0.3-0.1-0.7-0.4-0.9-0.6
						c-0.1-0.1-0.1-0.1-0.2-0.2c0,0.1,0.1,0.2,0-0.1c-0.1-0.1-0.1-0.2-0.2-0.3c0.1,0.2,0,0,0-0.1c-0.2-0.5-0.1-0.9,0-1.4
						c0.7-2.2,3.2-3.5,5.2-4.5c2.5-1.2,5.2-2.1,7.5-3.6c2.4-1.5,4.4-3.6,5.2-6.4C49.4,294.5,46.3,293.7,45.8,295.6L45.8,295.6z"/>
				</g>
			</g>
		</g>
		<g>
			<g>
				<path class="st2" d="M42.5,176.1c-1.7,7.8-3.9,14.9-5,22.8c-1.3,9.3-2.2,18.7-2.7,28c-0.9,18.4-0.1,36.9,2.4,55.2
					c0.4,2.7,0.8,5.5,2.6,7.5c1.3,1.5,3.3,2.5,3.8,4.4c0.2,0.9,0.1,1.9,0.6,2.6c0.6,1,2,1.1,3.1,1.2c5.4,0.2,10.8,0.4,16.3,0.7
					c0.9,0,1.9,0.1,2.6-0.5c2.6-1.9,5.1-9.1,7.1-12c2.1-3.1,4.2-6.1,4.6-9.9c0.8-6.7-1.9-13.2-1-20.1c3-22.4,7.9-44.7,11.8-67"/>
			</g>
			<g>
				<g>
					<path class="st1" d="M41,175.7c-0.9,4.3-2.1,8.6-3.1,12.9c-1,4.4-1.8,8.9-2.3,13.4c-1.2,9.1-2,18.3-2.4,27.6
						c-0.4,9.2-0.3,18.3,0.2,27.5c0.2,4.6,0.6,9.2,1,13.8c0.4,4.5,0.9,9,1.6,13.5c0.3,1.9,0.9,3.8,1.9,5.4c1,1.5,2.6,2.4,3.7,3.8
						c0.4,0.5,0.5,1,0.6,1.8c0.1,1.1,0.4,2.2,1.3,2.9c1.6,1.3,3.8,1.2,5.8,1.3c4.6,0.2,9.2,0.4,13.8,0.6c1.1,0,2.2,0.1,3.2-0.3
						c0.7-0.3,1.3-0.8,1.8-1.3c1-1.1,1.8-2.4,2.5-3.7c1.4-2.6,2.4-5.4,4.1-7.9c2.3-3.4,4.4-6.7,4.9-10.9c0.4-4.2-0.5-8.4-0.9-12.5
						c-0.2-2.1-0.4-4.2-0.2-6.4c0.2-2.2,0.6-4.4,0.9-6.6c1.4-9.1,3-18.2,4.7-27.2c1.7-9,3.4-18,5.1-27.1c0.4-2.2,0.8-4.4,1.2-6.7
						c0.1-0.8-0.2-1.7-1.1-1.9c-0.8-0.2-1.8,0.3-1.9,1.1c-1.6,8.9-3.3,17.7-4.9,26.5c-1.7,8.9-3.3,17.7-4.8,26.6
						c-0.7,4.5-1.4,8.9-2,13.4c-0.3,2.1-0.4,4.2-0.2,6.4c0.2,2.1,0.5,4.2,0.8,6.3c0.5,3.8,1,7.8-0.5,11.4c-1.3,3-3.5,5.5-5,8.4
						c-1.4,2.7-2.5,5.5-4.3,8c-0.2,0.2,0.1-0.1-0.1,0.1c-0.1,0.1-0.2,0.2-0.3,0.3c-0.2,0.2-0.4,0.4-0.6,0.6c0.2-0.2,0.1,0,0,0
						c-0.2,0.1-0.3,0.1-0.5,0.1c-0.5,0.1-0.9,0-1.4,0c-2.3-0.1-4.6-0.2-6.8-0.3c-2.3-0.1-4.6-0.2-6.8-0.3c-1,0-2,0-3-0.1
						c-0.2,0-0.6-0.1-0.8-0.2c-0.2-0.1-0.3-0.1-0.4-0.3c-0.3-0.8-0.2-1.7-0.5-2.5c-0.4-0.9-0.9-1.7-1.6-2.4c-1.1-1.1-2.5-2-3.2-3.5
						c-0.8-1.6-1.1-3.4-1.4-5.1c-0.3-2.1-0.6-4.3-0.8-6.5c-0.5-4.5-0.9-8.9-1.2-13.4c-0.6-9-0.8-18-0.7-27c0.2-9,0.8-18,1.8-27
						c0.5-4.4,1-8.8,1.8-13.2c0.8-4.2,1.8-8.3,2.9-12.5c0.5-2.1,1-4.2,1.5-6.3c0.2-0.8-0.2-1.7-1.1-1.9
						C42.2,174.4,41.2,174.9,41,175.7L41,175.7z"/>
				</g>
			</g>
		</g>
		<g>
			<g>
				<path class="st2" d="M68,215.6c3.7,12.2,6.4,19,7.8,33.4c1,10.3,2,20.5,3,30.8c0.5,4.7,1.2,9.9,4.9,12.9
					c0.9,0.7,1.9,1.3,2.6,2.2c0.7,1,0.9,2.3,1.9,3c0.7,0.6,1.7,0.7,2.6,0.8c5.1,0.4,10.2,0.4,15.2-0.1c1.2-0.1,2.5-0.3,3.5-1.1
					c1.2-1,1.6-2.7,2.1-4.2c1.3-3.6,4.5-5.5,6-9c2-4.8,2.4-10.8,2.7-15.9c0.7-11.2-0.6-22.3-1.5-33.4c-1.5-16.9-5-33.8-11.4-49.6"/>
			</g>
			<g>
				<g>
					<path class="st1" d="M66.5,216c1.8,6,3.8,11.9,5.3,18c1.7,7,2.3,14,3,21.1c0.8,8.3,1.6,16.7,2.5,25c0.3,3.3,0.8,6.6,2.2,9.6
						c0.7,1.4,1.6,2.7,2.8,3.7c0.6,0.5,1.3,1,1.9,1.4c0.6,0.5,1,1,1.3,1.7c0.4,0.7,0.7,1.5,1.3,2.1c0.7,0.7,1.7,1.2,2.7,1.3
						c2,0.3,4.1,0.4,6.1,0.4c2,0.1,4.1,0,6.1-0.1c2-0.1,4.2-0.2,6.2-0.6c1.8-0.4,3.3-1.4,4.1-3.1c0.7-1.5,1-3.1,1.9-4.5
						c0.8-1.3,1.7-2.3,2.7-3.5c1.1-1.3,2-2.7,2.6-4.3c1.4-3.4,1.9-7.1,2.2-10.7c0.4-3.8,0.6-7.7,0.6-11.6c0-8.3-0.8-16.6-1.5-24.9
						c-0.7-8.1-1.7-16.1-3.3-24c-1.6-7.7-3.6-15.4-6.3-22.8c-0.7-1.8-1.4-3.7-2.1-5.5c-0.3-0.8-1-1.3-1.9-1.1
						c-0.7,0.2-1.4,1.1-1.1,1.9c5.8,14.4,9.3,29.7,10.9,45.1c0.9,8,1.6,16.1,2,24.2c0.2,4,0.2,8.1,0,12.1c-0.2,3.5-0.4,7-1,10.5
						c-0.5,3.1-1.3,6.3-3.3,8.8c-1,1.2-2,2.4-2.9,3.7c-0.9,1.4-1.5,2.9-2,4.4c-0.2,0.5-0.5,1.1-0.8,1.5c-0.5,0.6-1.2,0.7-1.9,0.9
						c-1.8,0.4-3.8,0.4-5.6,0.5c-1.9,0.1-3.9,0.1-5.8,0c-1,0-2-0.1-3-0.1c-0.8-0.1-1.7,0-2.6-0.3c-0.7-0.2-0.8-0.5-1.1-1.2
						c-0.4-0.8-0.7-1.5-1.2-2.2c-1-1.2-2.5-1.9-3.6-3.1c-1.9-2.1-2.6-5.1-3-7.9c-0.5-3.6-0.8-7.4-1.1-11.1c-0.4-4-0.8-8-1.2-12.1
						c-0.7-7.6-1.3-15.2-2.8-22.6c-1.2-5.8-2.9-11.4-4.7-17.1c-0.5-1.5-1-3.1-1.4-4.6C68.9,213.2,65.9,214,66.5,216L66.5,216z"/>
				</g>
			</g>
		</g>
		<g>
			<g>
				<path class="st0" d="M98.5,102.7c10.6,4.1,21,10.1,29.2,19.2c10.8,11.9,19.4,27.3,19.5,45.5c0,6-2,13.6-4.8,19
					c-1.7,3.3-4.1,6.3-6.5,9.2c-5.2,6.3-14.1,13.1-22.8,8.9c-3-1.4-6.4-5.2-8.3-7.9c-3.6-5.1-1.4-8.3,0.8-13.4
					c1.5-3.3,1.9-7,2.5-10.8c0.6-3.9,1.3-7.8,1.3-11.8c0.2-17.6-6.4-30-13.7-44.5"/>
			</g>
			<g>
				<g>
					<path class="st1" d="M98.1,104.3c7.2,2.8,14.1,6.4,20.2,11.1c5.9,4.6,11,10.2,15.3,16.4c4.2,6,7.6,12.6,9.7,19.7
						c2.1,7.1,3.2,15,1.8,22.3c-0.7,3.7-1.8,7.4-3.4,10.8c-1.7,3.7-4.3,6.9-6.9,10c-2.3,2.8-5,5.3-8.1,7.2c-2.9,1.7-6.4,2.9-9.7,2.3
						c-3.6-0.7-6.3-3-8.6-5.7c-1.2-1.3-2.3-2.6-3.1-4.2c-0.7-1.4-0.9-2.9-0.6-4.2c0.4-1.7,1.1-3.2,1.8-4.7c0.9-2,1.7-3.9,2.1-6
						c0.5-2.1,0.7-4.2,1.1-6.2c0.4-2.3,0.7-4.6,1-6.9c1-8.2,0.1-16.6-2.2-24.5c-2.1-7.3-5.4-14.2-8.8-21c-0.9-1.7-1.7-3.4-2.6-5.2
						c-0.4-0.8-1.4-1-2.1-0.6c-0.8,0.4-0.9,1.4-0.6,2.1c3.5,6.9,7.1,13.9,9.7,21.2c2.7,7.6,4.1,15.7,3.8,23.8
						c-0.2,4.5-1,9.1-1.8,13.5c-0.3,2.1-0.7,4.2-1.5,6.2c-0.7,1.8-1.6,3.6-2.4,5.4c-0.6,1.6-1.1,3.4-0.9,5.1
						c0.2,2.1,1.1,3.9,2.4,5.6c2.2,2.9,4.8,6,8,7.8c3.5,1.9,7.7,2.2,11.5,1.1c3.8-1.1,7.2-3.4,10.1-6.1c3-2.7,5.6-6,7.9-9.3
						c2.4-3.4,4.1-7.1,5.4-11.1c1.2-3.8,2-7.8,2.1-11.8c0.1-4-0.3-8.1-1.1-12.1c-1.5-7.6-4.5-14.9-8.4-21.6
						c-3.9-6.6-8.8-12.8-14.5-18c-6-5.5-13-9.9-20.4-13.2c-1.8-0.8-3.6-1.6-5.5-2.3c-0.8-0.3-1.7,0.3-1.9,1.1
						C96.7,103.2,97.3,103.9,98.1,104.3L98.1,104.3z"/>
				</g>
			</g>
		</g>
		<g>
			<g>
				<path class="st1" d="M35,163.8c-4.9-5.7-12.1-8-19.2-9.2c-0.8-0.1-1.7,0.2-1.9,1.1c-0.2,0.7,0.3,1.8,1.1,1.9
					c6.7,1.1,13.3,3.1,17.9,8.4c0.5,0.6,1.6,0.6,2.2,0C35.7,165.4,35.6,164.5,35,163.8L35,163.8z"/>
			</g>
		</g>
		<g>
			<g>
				<path class="st1" d="M114.3,164.8c4.5-5.3,11.1-7.3,17.7-8.4c0.8-0.1,1.3-1.2,1.1-1.9c-0.2-0.9-1.1-1.2-1.9-1.1
					c-7.1,1.2-14.3,3.5-19,9.2c-0.5,0.6-0.6,1.6,0,2.2C112.6,165.4,113.7,165.5,114.3,164.8L114.3,164.8z"/>
			</g>
		</g>
		<g>
			<g>
				<path class="st2" d="M112.7,133.1c1.5,12.9,1.8,25.8,2.1,38.7c0.2,7.9,4.6,22.5-1.3,29c-2.7,3-7.2,3.3-11.2,3.5
					c-20.5,0.6-41.1,0.2-61.6-1.1c-2.5-0.2-5.6-0.8-6.2-3.2c-0.3-1.1,0.1-2.3,0-3.4c-0.2-2.1-1.9-3.7-2.7-5.6
					c-0.8-1.8-0.8-3.8-0.8-5.8c0.1-12,1.8-23.7,1.5-35.6c-0.3-12.1-0.3-24.3,1.8-36.3c1-5.7,6.7-9.3,12.1-11.3
					c9.4-3.3,19.5-3.7,29.5-3.8c5.9-0.1,11.9,0,17.7,1.5c9.4,2.5,14.4,8,16.4,17.2C111.3,122.2,112.1,127.6,112.7,133.1z"/>
			</g>
			<g>
				<g>
					<path class="st1" d="M111.2,133.1c1.5,12.6,1.8,25.4,2.1,38.1c0.1,4.1,0.9,8.1,1.3,12.2c0.2,2.2,0.4,4.4,0.4,6.6
						c0,2.1-0.1,3.9-0.6,5.8c-0.1,0.4-0.3,0.9-0.4,1.3c0,0.1-0.2,0.6-0.1,0.3c-0.1,0.2-0.2,0.4-0.3,0.7c-0.2,0.4-0.4,0.8-0.7,1.1
						c0,0-0.3,0.4-0.1,0.2c0.1-0.2-0.2,0.2-0.1,0.2c-0.2,0.2-0.4,0.4-0.6,0.6c-1.5,1.4-3.8,2.1-5.8,2.3c-2.7,0.4-5.5,0.3-8.3,0.4
						c-3.2,0.1-6.4,0.1-9.6,0.1c-12.8,0.1-25.5-0.2-38.3-0.8c-3.2-0.2-6.4-0.3-9.5-0.5c-1-0.1-1.8-0.2-2.8-0.6
						c-0.3-0.1-0.2-0.1-0.1,0c-0.1,0-0.2-0.1-0.3-0.1c-0.2-0.1-0.5-0.2-0.7-0.4c0.2,0.1-0.2-0.2-0.2-0.3c-0.3-0.3,0.1,0.1-0.1-0.1
						c0-0.1-0.2-0.4-0.2-0.3c-0.1-0.3-0.1-0.9-0.1-1.4c0.1-0.8,0.1-1.6,0-2.4c-0.2-1.3-0.9-2.5-1.6-3.6c-0.7-1.1-1.3-2.1-1.6-3.3
						c-0.3-1.3-0.3-2.7-0.2-4c0.1-6.3,0.6-12.7,1-19c0.4-6.3,0.6-12.5,0.4-18.8c-0.1-6.2-0.2-12.5,0.2-18.7c0.2-3.1,0.4-6.2,0.8-9.3
						c0.2-1.5,0.4-3,0.7-4.5c0.2-1.1,0.4-2.4,0.9-3.3c1.9-4,6.1-6.4,10.2-7.9c5.5-2,11.4-2.9,17.3-3.4c6-0.4,12-0.5,18-0.4
						c3,0.1,6,0.3,8.9,0.9c1.3,0.3,2.6,0.6,3.9,1c1.1,0.3,2,0.7,2.9,1.1c1.8,0.9,3.4,1.9,4.8,3.1c1.5,1.4,2.4,2.6,3.4,4.3
						c1,1.8,1.7,3.5,2.2,5.5c0.8,2.8,1.2,5.6,1.7,8.5C110.4,127.2,110.8,130.1,111.2,133.1c0.1,0.8,0.6,1.6,1.6,1.6
						c0.8,0,1.7-0.7,1.6-1.6c-0.4-3.3-0.8-6.5-1.4-9.8c-0.5-2.9-1-5.9-1.8-8.7c-1.2-4.1-3.2-8-6.3-10.8c-8.3-7.6-20.9-7.2-31.4-7
						c-6.2,0.1-12.5,0.4-18.7,1.5c-5.3,1-10.9,2.5-15.4,5.7c-2,1.4-3.8,3.2-5.1,5.3c-1.4,2.5-1.7,5.4-2.1,8.2
						c-0.9,6.4-1.2,12.9-1.3,19.4c-0.1,6.5,0.3,12.9,0.1,19.4c-0.2,6.5-0.7,12.9-1.1,19.4c-0.2,3.2-0.3,6.5-0.4,9.7
						c0,1.5,0,3.1,0.4,4.6c0.3,1.4,1,2.6,1.8,3.8c0.6,1,1.3,2,1.4,3.2c0,1.5-0.3,2.9,0.4,4.3c1.1,2.2,3.7,3,6,3.3
						c3,0.4,6.1,0.4,9.1,0.6c3.3,0.2,6.6,0.3,10,0.4c6.6,0.2,13.2,0.4,19.8,0.4c6.6,0,13.2,0,19.8-0.1c5.2-0.1,11.5,0.3,15.8-3.2
						c3.3-2.8,4.2-7.5,4.3-11.6c0.1-4.5-0.6-9.1-1.2-13.5c-0.7-5.1-0.7-10.2-0.9-15.3c-0.2-6.6-0.5-13.2-1-19.8
						c-0.2-3.2-0.5-6.3-0.9-9.5c-0.1-0.8-0.6-1.6-1.6-1.6C112,131.5,111.1,132.2,111.2,133.1z"/>
				</g>
			</g>
		</g>
		<g>
			<g>
				<path class="st1" d="M47.9,107.6c0.6,8.5,8,15.1,16.2,16.5c8,1.4,16.6-0.8,22.6-6.4c3.1-2.9,5.5-6.6,6.7-10.7
					c0.6-1.9-2.4-2.7-3-0.8c-1.9,6.1-6.8,11.4-12.8,13.6c-3.5,1.3-7.4,1.8-11.1,1.5c-3.7-0.3-7.3-1.7-10.1-4.1
					c-2.9-2.4-5.1-5.9-5.3-9.6c-0.1-0.8-0.7-1.6-1.6-1.6C48.7,106.1,47.8,106.8,47.9,107.6L47.9,107.6z"/>
			</g>
		</g>
		<g>
			<g>
				<path class="st4" d="M126.4,199.1c-1.1-4.6-4.5-9.6-8.9-11.6c-4.3-2-11.2-3.8-15.5-1.1c-3.9,2.4-5.7,7.8-4,12.1
					c0.1,0.3,0.3,0.6,0.5,0.7c0.2,0.1,0.5,0.1,0.8,0c1-0.2,2-0.4,3-0.6c-0.8,0.9-1.6,2.1-1.5,3.3c0.1,1.6,1.7,2.7,3.3,2.8
					s3.1-0.4,4.5-1c-1.2,0.6-1.4,2.5-0.5,3.5c0.9,1,2.5,1.2,3.8,0.8c1.3-0.5,2.3-1.5,3.1-2.5c-0.1,1.1,0.8,2.1,1.9,2.4
					c1.1,0.3,2.2,0.2,3.3,0c1.9-0.3,3.9-0.8,5.2-2.3C126.9,203.9,126.9,201.3,126.4,199.1z"/>
			</g>
			<g>
				<g>
					<path class="st1" d="M127.9,198.7c-0.8-3.5-2.8-6.9-5.3-9.5c-2.6-2.6-5.9-4-9.4-4.9c-3.6-0.9-7.6-1.3-11,0.3
						c-3.1,1.4-5.4,4.6-6.1,7.9c-0.4,1.9-0.4,3.9,0.2,5.8c0.4,1.2,1,2.5,2.4,2.6c0.7,0,1.4-0.2,2-0.3c0.7-0.1,1.3-0.3,2-0.4
						c-0.5-0.9-1-1.7-1.5-2.6c-1,1.2-1.8,2.4-1.9,3.9c-0.1,1.4,0.6,2.7,1.7,3.6c2.4,1.9,5.4,1.2,8.1,0.1c-0.4-0.9-0.8-1.9-1.2-2.8
						c-2.7,1.5-2.2,5.6,0.4,6.9c3,1.4,6-0.3,7.8-2.7c-0.9-0.4-1.8-0.7-2.7-1.1c-0.1,2.3,2,3.9,4.1,4.2c1.1,0.1,2.3-0.1,3.4-0.3
						c0.9-0.2,1.8-0.4,2.6-0.7c2-0.8,3.5-2.1,4.2-4.2C128.5,202.6,128.3,200.6,127.9,198.7c-0.2-0.8-1.1-1.3-1.9-1.1
						c-0.8,0.2-1.3,1.1-1.1,1.9c0.5,2.4,0.4,5-2.1,6.1c-1.1,0.5-2.6,0.8-3.8,0.9c-0.6,0.1-1.4,0.1-1.8-0.2c-0.2-0.1-0.4-0.2-0.5-0.4
						c-0.2-0.2-0.2-0.3-0.1-0.5c0-1.2-1.8-2.2-2.7-1.1c-0.5,0.7-1.1,1.4-1.9,1.9c-0.3,0.2-0.7,0.4-1.1,0.4c-0.2,0-0.6,0-0.7,0
						c-0.3-0.1-0.6-0.2-0.7-0.3c-0.1-0.1-0.2-0.2-0.3-0.3c0.1,0.1,0.1,0.1,0-0.1c0.1,0.2-0.1-0.2-0.1-0.2c-0.1-0.3,0,0.1,0-0.2
						c0-0.2,0-0.2,0-0.1c0-0.1,0-0.2,0.1-0.3c-0.1,0.2,0.1-0.1,0.1-0.2c-0.1,0.1,0,0,0.1,0c1.5-0.8,0.5-3.5-1.2-2.8
						c-0.9,0.4-1.9,0.8-2.9,0.9c-0.8,0.1-1.5,0.1-2.1-0.3c-0.3-0.1-0.5-0.3-0.6-0.4c-0.1-0.1-0.2-0.3-0.3-0.4c0,0.1,0-0.1,0-0.2
						c-0.1-0.8,0.5-1.5,1-2.1c1-1.2,0.1-2.9-1.5-2.6c-0.5,0.1-1,0.2-1.5,0.3c-0.2,0-1.4,0.2-1.5,0.3c-0.1,0.2,0.6,0.1,0.6,0.4
						c0-0.1-0.1-0.4-0.2-0.5c-0.1-0.3-0.2-0.7-0.3-1c-0.1-0.5-0.2-1.2-0.1-1.9c0-0.7,0.1-1.1,0.3-1.9c0.6-2.4,2.3-4.7,4.5-5.6
						c2.7-1.1,5.9-0.7,8.7,0c2.8,0.7,5.4,1.7,7.5,3.6c2.5,2.3,4.3,5.3,5,8.6C125.3,201.5,128.3,200.6,127.9,198.7z"/>
				</g>
			</g>
		</g>
		<g>
			<g>
				<path class="st4" d="M22.9,200.9c1.1-4.6,4.5-9.6,8.9-11.6c4.3-2,11.2-3.8,15.5-1.1c3.9,2.4,5.7,7.8,4,12.1
					c-0.1,0.3-0.3,0.6-0.5,0.7c-0.2,0.1-0.5,0.1-0.8,0c-1-0.2-2-0.4-3-0.6c0.8,0.9,1.6,2.1,1.5,3.3c-0.1,1.6-1.7,2.7-3.3,2.8
					c-1.6,0.1-3.1-0.4-4.5-1c1.2,0.6,1.4,2.5,0.5,3.5c-0.9,1-2.5,1.2-3.8,0.8c-1.3-0.5-2.3-1.5-3.1-2.5c0.1,1.1-0.8,2.1-1.9,2.4
					c-1.1,0.3-2.2,0.2-3.3,0c-1.9-0.3-3.9-0.8-5.2-2.3C22.4,205.7,22.4,203.1,22.9,200.9z"/>
			</g>
			<g>
				<g>
					<path class="st1" d="M24.4,201.3c0.7-2.9,2.2-5.6,4.2-7.7c2-2.2,4.4-3.3,7.2-4.1c2.8-0.9,6-1.4,8.8-0.7
						c2.5,0.7,4.4,2.6,5.2,4.9c0.6,1.5,0.8,2.8,0.5,4.5c0-0.3-0.1,0.3-0.1,0.3c0,0.2-0.1,0.5-0.2,0.7c-0.1,0.2-0.3,0.8-0.3,0.8
						c-0.3-0.6,1.2-0.2,0.3-0.4c-0.3-0.1-0.7-0.1-1-0.2c-0.6-0.1-1.2-0.3-1.7-0.4c-1.6-0.3-2.5,1.4-1.5,2.6c0.5,0.6,1,1.2,1,2
						c0,0.2,0,0.3,0,0.2c-0.1,0.2-0.1,0.2,0,0.1c-0.1,0.2-0.2,0.3-0.3,0.4c-0.1,0.1-0.3,0.3-0.6,0.4c-0.3,0.1-0.5,0.3-0.9,0.3
						c0.1,0-0.4,0-0.4,0c-0.2,0-0.5,0-0.7,0c-1-0.2-2-0.6-2.9-0.9c-0.7-0.3-1.6,0.2-1.8,0.9c-0.3,0.7-0.1,1.6,0.6,1.9
						c0.1,0.1,0.2,0.1,0.1,0c0,0,0.2,0.4,0.1,0.2c0,0.1,0.1,0.2,0.1,0.3c0-0.1,0-0.1,0,0c0,0.1,0,0.2,0,0.2c0-0.2,0-0.1,0,0.1
						c0,0-0.2,0.4-0.1,0.2c-0.1,0.2-0.1,0.2,0,0.1c-0.1,0.1-0.2,0.2-0.3,0.3c-0.1,0.1-0.4,0.2-0.7,0.3c-0.2,0-0.5,0-0.7,0
						c-0.4-0.1-0.7-0.2-1.1-0.4c-0.8-0.5-1.4-1.2-1.9-1.9c-0.8-1.1-2.7-0.2-2.7,1.1c0,0.3-0.1,0.6-0.5,0.8c-0.5,0.3-1.2,0.3-1.9,0.2
						c-1.2-0.1-2.7-0.4-3.8-0.9C24,206.3,23.8,203.7,24.4,201.3c0.2-0.8-0.3-1.7-1.1-1.9c-0.8-0.2-1.7,0.3-1.9,1.1
						c-0.4,1.8-0.6,3.9,0.1,5.7c0.7,2.1,2.2,3.4,4.2,4.2c0.9,0.3,1.7,0.6,2.6,0.7c1.1,0.2,2.2,0.4,3.3,0.3c2.2-0.2,4.3-1.8,4.3-4.2
						c-0.9,0.4-1.8,0.7-2.7,1.1c1.8,2.4,4.8,4.1,7.8,2.7c2.6-1.3,3.2-5.4,0.4-6.9c-0.4,0.9-0.8,1.9-1.2,2.8c2.6,1,5.6,1.8,8.1-0.1
						c1.1-0.8,1.8-2.1,1.7-3.5c-0.1-1.6-0.9-2.9-1.9-4.1c-0.5,0.9-1,1.7-1.5,2.6c1.1,0.2,2.3,0.6,3.4,0.7c1.5,0.2,2.4-0.7,2.9-1.9
						c0.6-1.5,0.8-3.3,0.6-4.9c-0.4-3.5-2.2-6.8-5.2-8.8c-3.2-2.1-7.2-1.9-10.8-1.2c-3.4,0.7-7,2-9.7,4.3c-3.1,2.6-5.4,6.4-6.4,10.4
						C20.9,202.4,23.9,203.3,24.4,201.3z"/>
				</g>
			</g>
		</g>
		<g>
			<g>
				<path class="st4" d="M86.1,91.2c-0.7,4.2-1.3,8.4-2,12.7c-0.4,2.3-0.8,4.7-2.2,6.6c-1.6,2.1-4.3,3.2-6.9,3.8
					c-4.1,0.9-8.4,0.8-12.5-0.2c-2-0.5-4.1-1.4-5.1-3.2c-0.6-1.1-0.8-2.4-0.9-3.6c-0.4-4.2-0.8-8.3-1.2-12.5"/>
			</g>
			<g>
				<g>
					<path class="st1" d="M84.6,90.8c-0.7,4.3-1.3,8.6-2,12.9c-0.3,1.7-0.5,3.5-1.4,5c-0.8,1.4-2,2.4-3.5,3.1
						c-1.5,0.7-3.3,1.1-5,1.3c-2,0.3-4.1,0.3-6.1,0.1c-1.8-0.2-3.8-0.5-5.5-1.3c-1.4-0.6-2.4-1.5-2.7-3c-0.2-1-0.3-2.1-0.4-3.1
						c-0.1-1.2-0.2-2.5-0.4-3.7c-0.2-2.5-0.5-4.9-0.7-7.4c-0.1-0.8-0.7-1.6-1.6-1.6c-0.8,0-1.6,0.7-1.6,1.6c0.2,2.4,0.5,4.8,0.7,7.1
						c0.2,2.3,0.4,4.7,0.7,7c0.3,2.1,1.3,3.9,3.2,5.1c1.7,1.1,3.7,1.6,5.7,2c4.3,0.8,9,0.7,13.2-0.7c1.9-0.6,3.7-1.5,5.1-3
						c1.4-1.5,2.3-3.4,2.7-5.4c0.6-2.4,0.8-4.9,1.2-7.3c0.4-2.7,0.8-5.3,1.2-8c0.1-0.8-0.2-1.7-1.1-1.9C85.8,89.5,84.8,90,84.6,90.8
						L84.6,90.8z"/>
				</g>
			</g>
		</g>
		<g>
			<g>
				<path class="st4" d="M105.9,79c1.4,0.6,3,0.9,4.6,0.9c6.5,0,11.9-5.3,11.9-11.8c0-6.5-5.3-11.9-11.8-11.9c-2.5,0-4.7,0.7-6.6,2"
					/>
			</g>
			<g>
				<g>
					<path class="st1" d="M105.5,80.5c3.6,1.5,7.6,1.3,11.1-0.4c3-1.5,5.4-4.2,6.6-7.3c2.5-6.5-0.9-14.2-7.3-16.9
						c-4.1-1.8-8.9-1.4-12.7,1.1c-0.7,0.5-1,1.4-0.6,2.1c0.4,0.7,1.4,1,2.1,0.6c2.7-1.8,6.1-2.2,9-1.3c1.1,0.3,2.4,1.1,3.3,1.8
						c1.1,0.9,1.9,1.8,2.6,3.1c2.6,4.7,0.9,10.9-3.7,13.7c-0.6,0.4-1.2,0.7-1.8,0.9c-0.7,0.2-1.7,0.5-2.1,0.5
						c-1.9,0.2-3.8-0.1-5.6-0.8c-0.8-0.3-1.7,0.3-1.9,1.1C104.2,79.5,104.8,80.2,105.5,80.5L105.5,80.5z"/>
				</g>
			</g>
		</g>
		<g>
			<g>
				<path class="st4" d="M35.3,78.7c-1.4,0.6-3,0.9-4.6,0.9c-6.5,0-11.8-5.3-11.8-11.9S24.2,55.9,30.7,56c2.5,0,4.7,0.8,6.6,2"/>
			</g>
			<g>
				<g>
					<path class="st1" d="M34.9,77.2c-2.9,1.2-6.1,1.1-8.8-0.2c-2.3-1.2-4.2-3.3-5.1-5.7c-0.9-2.6-0.8-5.4,0.3-7.8
						c0.3-0.6,0.6-1.1,0.9-1.6c0.3-0.5,0.8-1,1.3-1.5c0.5-0.5,0.9-0.8,1.4-1.1c0.5-0.3,1.3-0.8,1.7-1c3.2-1.3,6.9-1,9.9,1
						c0.7,0.5,1.7,0.1,2.1-0.6c0.4-0.8,0.1-1.7-0.6-2.1c-3.3-2.2-7.5-2.8-11.3-1.7c-3.2,1-6,3.2-7.7,6.1c-1.7,3-2.2,6.7-1.4,10.1
						c0.8,3.3,3,6.1,5.8,8c3.6,2.3,8.2,2.7,12.1,1.1c0.8-0.3,1.3-1,1.1-1.9C36.6,77.6,35.6,76.9,34.9,77.2L34.9,77.2z"/>
				</g>
			</g>
		</g>
		<g>
			<g>
				<circle class="st4" cx="70.3" cy="61.7" r="41.4"/>
			</g>
			<g>
				<g>
					<path class="st1" d="M27.4,61.5c0,8.8,2.7,17.6,7.8,24.8c5,7.1,12.1,12.6,20.3,15.6c8.4,3.1,17.8,3.5,26.4,1.1
						c8.3-2.3,15.9-7.2,21.5-13.9c5.6-6.8,9.1-15.2,9.8-24c0.7-8.9-1.4-17.9-6-25.5c-4.4-7.4-11.1-13.4-18.9-16.9
						c-8.2-3.8-17.5-4.8-26.4-3.1c-8.5,1.7-16.4,6.1-22.4,12.3c-6,6.3-10.1,14.4-11.5,23C27.6,57,27.4,59.3,27.4,61.5
						c0,2,3.1,2,3.1,0c0-8.3,2.6-16.3,7.5-23.1c1.1-1.5,2.4-3.1,3.8-4.5c0.7-0.7,1.5-1.4,2.2-2.1c0.4-0.3,0.7-0.6,1.1-0.9
						c0.4-0.3,0.8-0.6,1.1-0.9c3.2-2.4,6.9-4.4,10.5-5.7c8-2.9,16.6-3.2,24.6-0.8c4,1.1,7.5,2.8,11,5.1c3.3,2.2,6.3,4.9,8.9,8
						c5.1,6.2,8.3,14.2,8.8,22.1c0.6,8.4-1.4,16.6-5.7,23.8c-4.2,6.9-10.4,12.3-17.8,15.7c-7.5,3.4-16.3,4.3-24.3,2.6
						c-8-1.7-15.2-5.7-20.7-11.6c-2.8-2.9-5-6.1-6.9-9.8c-1.8-3.6-3-7.6-3.7-11.7c-0.1-0.8-0.2-1.8-0.3-2.8
						c-0.1-1.1-0.1-2.2-0.1-3.3C30.5,59.5,27.4,59.5,27.4,61.5z"/>
				</g>
			</g>
		</g>
		<g>
			<circle class="st5" cx="94.3" cy="71.4" r="8.6"/>
		</g>
		<g>
			<circle class="st5" cx="45.2" cy="71.2" r="8.6"/>
		</g>
		<g>
			<circle class="st1" cx="84.1" cy="60.7" r="3.2"/>
		</g>
		<g>
			<circle class="st1" cx="55.8" cy="60.2" r="3.2"/>
		</g>
		<g>
			<g>
				<path class="st1" d="M70.7,58.5c-1-0.6-2.2-0.4-3,0.4c-0.6,0.5-1,1.4-1.1,2.2c-0.3,1.6-0.1,3.2,0.7,4.6c0.4,0.7,1.4,1,2.1,0.6
					c0.7-0.5,1-1.4,0.6-2.1c-0.1-0.1-0.1-0.3-0.2-0.4c0.1,0.1,0.1,0.2,0.2,0.4c-0.2-0.4-0.3-0.9-0.4-1.4c0,0.1,0,0.3,0.1,0.4
					c-0.1-0.5-0.1-0.9,0-1.4c0,0.1,0,0.3-0.1,0.4c0.1-0.4,0.1-0.8,0.3-1.1c-0.1,0.1-0.1,0.2-0.2,0.4c0.1-0.2,0.1-0.3,0.2-0.4
					c-0.1,0.1-0.2,0.2-0.2,0.3c0.1-0.1,0.2-0.2,0.3-0.3c-0.1,0.1-0.2,0.2-0.3,0.2c0.1-0.1,0.2-0.1,0.3-0.1c-0.1,0.1-0.2,0.1-0.4,0.2
					c0.1,0,0.1,0,0.2-0.1c-0.1,0-0.3,0-0.4,0.1c0.1,0,0.2,0,0.3,0c-0.1,0-0.3,0-0.4-0.1c0.1,0,0.1,0,0.2,0.1
					c-0.1-0.1-0.2-0.1-0.4-0.2c0,0,0.1,0,0.1,0.1c0.7,0.4,1.7,0.2,2.1-0.6C71.6,59.9,71.4,59,70.7,58.5L70.7,58.5z"/>
			</g>
		</g>
		<g>
			<g>
				<path class="st9" d="M43.9,52.8c1.1-0.3,2.1-0.7,3-0.9c9.7-3,18.8-7.9,26.5-14.5c-0.4,2.9,2.3,5.4,5.1,6s5.7-0.3,8.5-1.2
					c1.5,4.7,7.3,7.3,11.8,5.4c-0.9,0.4,9.5,13.5,13.7,13c3.2-0.4,4.6-7.2,5-9.8c0.6-4,0.2-8.1-1.2-11.9
					c-2.5-7.1-7.8-12.9-14.1-16.8c-3.3-2.1-7-3.7-10.8-4.3c-1.8-0.3-3.7-0.3-5.4-1.1c-1.1-0.5-2-1.4-3.1-2.1
					c-4.2-2.9-9.8-2.1-14.6-2c-5.8,0.2-11.4,1.9-16.7,4.2c-5.4,2.3-10.5,5.2-15.2,8.6c-4.9,3.5-7.8,5.5-13.9,5.6
					c-2.4,0.1-5.1,0.6-6.5,2.6s0.2,5.6,2.5,5c-2,0.8-3.3,3.2-2.6,5.2c0.7,2,3.4,3.1,5.2,1.9c-2.1,1.6-2,5-0.3,7.1
					C25.3,58.2,36.8,55.1,43.9,52.8z"/>
			</g>
			<g>
				<g>
					<path class="st1" d="M44.4,54.3c4.3-1.3,8.5-2.8,12.6-4.6c4-1.8,7.8-4,11.4-6.5c2.1-1.5,4.2-3,6.1-4.7
						c-0.9-0.4-1.8-0.7-2.7-1.1c-0.4,3.3,2.2,6,5,7.1c3.4,1.4,7.3,0.2,10.6-0.9c-0.6-0.4-1.3-0.7-1.9-1.1c1.8,5.4,8.4,8.7,13.7,6.5
						c-0.4-0.9-0.8-1.9-1.2-2.8c-1.6,0.9-0.5,2.8,0.2,3.8c1.1,1.6,2.3,3,3.5,4.4c1.4,1.6,2.9,3.1,4.5,4.5c1.4,1.2,3,2.4,4.7,2.9
						c5,1.4,7-5.7,7.7-9.2c1.3-6.6,0.2-13.4-3.1-19.3c-3.2-5.7-8.3-10.4-14-13.6c-3.2-1.8-6.7-3.2-10.4-3.7
						c-1.6-0.2-3.3-0.3-4.8-1.1c-1.4-0.8-2.6-2-4.1-2.7c-3-1.5-6.4-1.7-9.8-1.6c-3.6,0.1-7.1,0.2-10.6,0.9
						c-7.3,1.5-14.3,4.7-20.7,8.5c-3,1.8-5.7,3.8-8.6,5.7c-1.2,0.8-2.4,1.5-3.7,2.1c-0.3,0.1-1,0.4-1.5,0.6
						c-0.7,0.2-1.4,0.4-2.1,0.5c-2.9,0.5-6.3,0-9,1.9c-1.4,1-2.3,2.3-2.4,4c-0.1,1.4,0.4,2.7,1.3,3.8c0.9,1.1,2.3,1.5,3.7,1.3
						c-0.4-0.9-0.8-1.9-1.2-2.8c-2.8,1.2-4.4,4.8-3,7.6c1.2,2.6,4.8,3.7,7.2,2.2c-0.6-0.8-1.3-1.6-1.9-2.4c-2,1.6-2.5,4.6-1.6,7
						c0.8,2.2,2.5,3.8,4.6,4.7c4.3,1.9,9.4,1.2,13.9,0.2C39.4,55.8,41.9,55.1,44.4,54.3c1.9-0.6,1.1-3.6-0.8-3
						c-3.9,1.2-8.1,2.4-12.1,2.7c-1,0.1-2.1,0.1-3.1,0.1c-0.4,0-0.9-0.1-1.3-0.1c-0.5-0.1,0.2,0-0.1,0c-0.1,0-0.2,0-0.3-0.1
						c-0.3,0-0.5-0.1-0.8-0.2c-0.4-0.1-0.8-0.2-1.2-0.4c-0.1,0-0.2-0.1-0.3-0.1c0.3,0.1,0,0-0.1,0c-0.2-0.1-0.4-0.2-0.6-0.3
						c-0.2-0.1-0.4-0.2-0.5-0.3c-0.1-0.1-0.2-0.1-0.2-0.2c0.2,0.2,0,0,0,0c-0.3-0.3-0.7-0.7-0.9-0.9c-0.6-0.8-0.8-1.7-0.8-2.6
						c0-0.9,0.3-1.6,1.1-2.3c0.6-0.5,0.6-1.5,0.1-2c-0.5-0.6-1.3-0.8-2-0.4c-0.1,0-0.6,0.3-0.3,0.2c-0.1,0-0.6,0.1-0.3,0.1
						c-0.2,0-0.4,0-0.6,0c0.3,0-0.3-0.1-0.4-0.1c-0.2-0.1-0.2-0.1-0.1,0c-0.1,0-0.2-0.1-0.3-0.1c-0.1-0.1-0.2-0.1-0.3-0.2
						c0.1,0.1,0.1,0.1-0.1,0c-0.3-0.3-0.4-0.4-0.6-0.8c0.1,0.2-0.1-0.4-0.1-0.4c0,0.2,0-0.4,0-0.5c0-0.2,0.1-0.7,0.3-0.9
						c0.4-0.8,0.9-1.2,1.7-1.6c0.7-0.3,0.9-1.3,0.6-1.9c-0.3-0.7-1.1-1.1-1.8-0.9c0.3-0.1-0.1,0-0.1,0c0.3,0,0,0-0.1,0
						c-0.1,0-0.3-0.1,0,0c-0.1,0-0.4-0.3-0.1,0c-0.1-0.1-0.1-0.1-0.2-0.2c0,0-0.3-0.4-0.1-0.1c-0.1-0.1-0.1-0.2-0.2-0.4
						c-0.2-0.3,0,0.2-0.1-0.2c-0.1-0.2-0.1-0.5-0.2-0.7c0,0.4,0-0.6,0-0.4c0,0.2,0.2-0.7,0.1-0.4c0.1-0.3,0.3-0.5,0.4-0.6
						c0.8-0.9,1.9-1.2,3.1-1.4c1.2-0.2,2.7-0.1,4.1-0.3c2.8-0.3,5.3-1.2,7.7-2.6c2.6-1.5,4.9-3.4,7.4-5c5.7-3.7,11.9-6.9,18.5-8.9
						c3.3-1,6.7-1.6,10.2-1.8c2.9-0.1,5.9-0.4,8.8,0c1.3,0.2,2.7,0.5,3.8,1.1c1.4,0.7,2.5,1.8,3.8,2.6c1.5,0.8,3.2,1.1,4.9,1.3
						c1.6,0.2,3.2,0.5,4.7,1c5.7,1.8,11,5.6,14.9,10.1c4,4.6,6.6,10.4,6.7,16.5c0,2.3-0.3,4.7-0.9,6.9c-0.1,0.5-0.3,1.1-0.5,1.6
						c-0.1,0.2-0.2,0.5-0.3,0.7c-0.1,0.1-0.1,0.3-0.2,0.4c0.1-0.2-0.1,0.1-0.1,0.2c-0.2,0.5-0.4,0.9-0.7,1.3
						c-0.1,0.1-0.1,0.2-0.2,0.3c-0.2,0.3,0.2-0.2-0.1,0.1c-0.2,0.2-0.3,0.4-0.5,0.5c0.3-0.3-0.2,0.1-0.3,0.1c-0.3,0.2,0.3,0,0,0
						c-0.1,0-0.2,0-0.2,0.1c-0.2,0.1,0.3,0-0.1,0c-0.5,0,0.3,0.1-0.1,0c-0.1,0-0.3-0.1-0.4-0.1c-0.1,0-0.6-0.2-0.1,0
						c-0.3-0.2-0.6-0.3-1-0.5c-0.3-0.2-0.7-0.4-1-0.7c-0.2-0.1-0.3-0.2-0.5-0.4c0.3,0.2,0,0,0,0c-0.1-0.1-0.2-0.2-0.3-0.3
						c-0.8-0.6-1.5-1.3-2.2-2c-1.4-1.3-2.7-2.8-3.9-4.3c-0.3-0.3-0.5-0.7-0.8-1c0.2,0.3-0.1-0.1-0.2-0.2c-0.1-0.2-0.2-0.3-0.4-0.5
						c-0.3-0.5-0.7-1-1-1.5c0-0.1-0.1-0.2-0.1-0.2c-0.2-0.3,0.1,0.2,0,0.1c0-0.1,0-0.1,0-0.2c0.1,0.5,0,1.2-0.7,1.6
						c0.7-0.4,0.9-1.3,0.6-1.9c-0.3-0.6-1.1-1.2-1.8-0.9c-1.1,0.5-1.9,0.6-3,0.6c-0.8,0-2.1-0.3-2.8-0.7c-1.1-0.5-1.8-1-2.5-1.8
						c-0.7-0.7-1.2-1.6-1.5-2.5c-0.3-0.8-1.1-1.4-1.9-1.1c-2.6,0.8-5.6,1.9-8.4,1.1c-1-0.3-1.8-0.9-2.5-1.7
						c-0.6-0.8-0.9-1.6-0.8-2.6c0.1-0.6-0.4-1.2-1-1.4c-0.6-0.2-1.2-0.1-1.7,0.3c-6.5,5.4-13.9,9.8-21.9,12.7
						c-2.3,0.8-4.6,1.6-6.9,2.3C41.6,51.9,42.4,54.9,44.4,54.3z"/>
				</g>
			</g>
		</g>
		<g>
			<g>
				<path class="st1" d="M37.6,307.3c3.2,1.8,7.1,2,10.4,0.5c3-1.3,5.3-4.1,6.2-7.2c0.6-1.9-2.4-2.7-3-0.8c-0.7,2.3-2.4,4.2-4.6,5.3
					c-2.3,1.1-5.2,0.9-7.5-0.4C37.4,303.6,35.8,306.3,37.6,307.3L37.6,307.3z"/>
			</g>
		</g>
		<g>
			<g>
				<path class="st1" d="M59.6,72.1c6.1,4.1,14.7,4,20.8-0.1c0.7-0.5,1-1.4,0.6-2.1c-0.4-0.7-1.4-1-2.1-0.6
					c-5.3,3.6-12.4,3.6-17.7,0.1C60.4,69,59.4,69.3,59,70C58.6,70.7,58.9,71.7,59.6,72.1L59.6,72.1z"/>
			</g>
		</g>
	</g>
</g>
</svg>
