<?xml version="1.0" encoding="utf-8"?>
<!-- Generator: Adobe Illustrator 25.4.1, SVG Export Plug-In . SVG Version: 6.00 Build 0)  -->
<svg version="1.1" id="레이어_1" xmlns="http://www.w3.org/2000/svg" xmlns:xlink="http://www.w3.org/1999/xlink" x="0px"
	 y="0px" viewBox="0 0 500 485" style="enable-background:new 0 0 500 485;" xml:space="preserve">
<style type="text/css">
	.st0{fill:#006D3C;}
	.st1{fill:#231815;}
	.st2{fill:#FFFFFF;}
	.st3{fill:#FFD8C7;}
	.st4{fill:#0E0E0E;}
	.st5{fill:#1BDDAA;}
	.st6{fill:#686867;}
	.st7{fill:#FFD976;}
	.st8{fill:#FFB9A0;}
	.st9{fill:#714038;}
	.st10{fill:#D18ADE;}
	.st11{fill:#54453F;}
</style>
<g>
	<g>
		<g>
			<path class="st0" d="M306,320.1H119.4c-3.7,0-6.8-3-6.8-6.8V183.1c0-3.7,3-6.8,6.8-6.8H306c3.7,0,6.8,3,6.8,6.8v130.2
				C312.7,317,309.7,320.1,306,320.1z"/>
			<path class="st1" d="M306,322H119.4c-4.8,0-8.7-3.9-8.7-8.7V183.1c0-4.8,3.9-8.7,8.7-8.7H306c4.8,0,8.7,3.9,8.7,8.7v130.2
				C314.6,318.1,310.8,322,306,322z M119.4,178.2c-2.7,0-4.9,2.2-4.9,4.9v130.2c0,2.7,2.2,4.9,4.9,4.9H306c2.7,0,4.9-2.2,4.9-4.9
				V183.1c0-2.7-2.2-4.9-4.9-4.9H119.4z"/>
		</g>
		<g>
			<path class="st2" d="M223.5,226.5c2-4.5,4.1-8.9,6.1-13.4c-1.2-0.2-2.3-0.3-3.5-0.5c4.1,9.7,7.3,19.7,9.8,29.9
				c0.6,2.4,4.2,1.4,3.7-1c-2.5-10.2-5.8-20.2-9.8-29.9c-0.3-0.7-0.8-1.3-1.6-1.4c-0.7-0.1-1.6,0.2-1.9,0.9c-2,4.5-4.1,8.9-6.1,13.4
				c-0.4,0.9-0.3,2,0.7,2.6C221.7,227.7,223.1,227.4,223.5,226.5L223.5,226.5z"/>
			<path class="st2" d="M231.1,247.7c5-2.2,10-4.4,14.9-6.6c0.9-0.4,1.2-1.8,0.7-2.6c-0.6-1-1.7-1.1-2.6-0.7c-5,2.2-10,4.4-14.9,6.6
				c-0.9,0.4-1.2,1.8-0.7,2.6C229.1,248,230.2,248.1,231.1,247.7L231.1,247.7z"/>
			<path class="st2" d="M247.4,271.6c0.1-1.8,1.5-3.6,3.3-3.9c2.1-0.3,4,1,4.5,3c0.6,2.1,0,4.5-0.9,6.5c-1.3,2.7-2.9,5.2-3.9,8
				c-1.2,3.5-0.9,7.2-0.2,10.8c0.2,0.8,1,1.4,1.8,1.4c3.5-0.1,6.4-2.1,9.3-3.9c3-1.8,6.1-3.1,9.5-3.9c2.4-0.6,1.4-4.3-1-3.7
				c-3.4,0.9-6.6,2.2-9.7,3.9c-2.5,1.4-5.1,3.7-8.1,3.8c0.6,0.5,1.2,0.9,1.8,1.4c-0.7-3.2-0.8-6.5,0.5-9.5c1.3-3,3.3-5.7,4.2-8.8
				c0.9-2.9,1.1-6.3-0.6-8.9c-1.7-2.8-5.1-4.2-8.3-3.6c-3.5,0.7-6.1,4-6.2,7.5C243.5,274,247.3,274,247.4,271.6L247.4,271.6z"/>
			<path class="st2" d="M264.7,228c1.1-1.5,3.2-2.3,5-2.3c1.8,0,3.7,0.6,5.1,1.8c1.5,1.3,2.5,2.8,3,4.7c0.4,1.7,0,3.7-0.9,5.3
				c-1.1,1.9-2.8,3.4-4.8,4c-0.9,0.3-1.5,1.1-1.4,2.1c0.1,0.9,0.9,1.7,1.9,1.6c4.5-0.4,9.3,1.3,11.6,5.3c2.2,3.7,1.8,8.3-1.4,11.1
				c-1.6,1.3-3.9,2-5.8,1.7c-1-0.2-2,0.3-2.3,1.3c-0.3,0.9,0.3,2.1,1.3,2.3c5.7,1.1,11.5-2.6,13-8.2c1.6-5.9-1.4-12.2-6.6-15.2
				c-2.9-1.7-6.4-2.4-9.8-2.1c0.2,1.2,0.3,2.5,0.5,3.7c5.4-1.6,9.2-7.2,8.5-12.8c-0.7-5.6-5.6-10.2-11.3-10.4
				c-3.5-0.1-6.8,1.4-8.9,4.2c-0.6,0.8-0.1,2.1,0.7,2.6C263.1,229.2,264.1,228.8,264.7,228L264.7,228z"/>
		</g>
		<g>
			<path class="st2" d="M141.3,212.5c2.4,0,4.8,0.3,7.1,0.9c-0.5-0.6-0.9-1.2-1.4-1.8c0.6,4.7,0,9.4-1.7,13.8
				c-0.4,1,0.4,2.1,1.3,2.3c1.1,0.3,2-0.4,2.3-1.3c1.8-4.7,2.4-9.9,1.8-14.8c-0.1-0.8-0.5-1.6-1.4-1.8c-2.7-0.7-5.4-1-8.1-1
				C138.8,208.7,138.8,212.5,141.3,212.5L141.3,212.5z"/>
			<path class="st2" d="M154.1,208.3c0.8,6.6,0.9,13.3,0,19.8c-0.1,1,0.2,2,1.3,2.3c0.9,0.2,2.2-0.3,2.3-1.3
				c0.9-6.9,1-13.9,0.1-20.9c-0.1-1-0.8-1.9-1.9-1.9C155,206.4,153.9,207.3,154.1,208.3L154.1,208.3z"/>
			<path class="st2" d="M157.3,221c2.5,0.2,5,0.4,7.5,0.6c1,0.1,1.9-0.9,1.9-1.9c0-1.1-0.8-1.8-1.9-1.9c-2.5-0.2-5-0.4-7.5-0.6
				c-1-0.1-1.9,0.9-1.9,1.9C155.5,220.2,156.3,220.9,157.3,221L157.3,221z"/>
			<path class="st2" d="M169.4,236.3c0,1.7,0,3.5-0.1,5.2c-0.1,0.9-0.1,1.7-0.2,2.6c-0.1,0.8-0.3,1.6-0.2,2.4c0.2,2.3,2.7,2.6,4.5,3
				c1.7,0.5,3.4,0.9,5.1,1.4c1,0.3,2.1-0.3,2.3-1.3c0.3-1-0.3-2.1-1.3-2.3c-1.5-0.4-3-0.8-4.4-1.2c-0.7-0.2-1.4-0.4-2.2-0.6
				c-0.3-0.1-0.7-0.3-1-0.3c1,0,0.7,1.7,0.7,0.8c0-0.2,0-0.4,0.1-0.6c0.4-3,0.5-6.1,0.5-9.2c0-1-0.9-1.9-1.9-1.9
				C170.2,234.4,169.3,235.3,169.4,236.3L169.4,236.3z"/>
			<path class="st2" d="M185.7,236.8c0.4,7.2-0.1,14.4-1.5,21.4c-0.2,1,0.3,2,1.3,2.3c0.9,0.3,2.1-0.3,2.3-1.3
				c1.5-7.4,2.1-14.9,1.6-22.4c-0.1-1-0.8-1.9-1.9-1.9C186.6,234.9,185.6,235.8,185.7,236.8L185.7,236.8z"/>
			<path class="st2" d="M188.3,247.8c2.2,0.1,4.4,0.1,6.6,0.2c1,0,1.9-0.9,1.9-1.9c0-1.1-0.8-1.9-1.9-1.9c-2.2-0.1-4.4-0.1-6.6-0.2
				c-1,0-1.9,0.9-1.9,1.9C186.5,246.9,187.3,247.7,188.3,247.8L188.3,247.8z"/>
			<path class="st2" d="M160.1,266.3c-1.3-0.4-2.6-0.7-3.9-0.9c-1.4-0.2-3-0.3-3.9,1.2c-0.6,1.1-1,2.5-1.4,3.7
				c-0.4,1.2-0.8,2.3-1.3,3.5c-0.4,1.2-1.2,2.6-0.9,3.9c0.3,1.5,1.4,2.2,2.7,2.7c2.3,0.9,4.7,1.7,7.2,2.3c1,0.3,2.1-0.3,2.3-1.3
				c0.3-1-0.3-2.1-1.3-2.3c-1.9-0.5-3.8-1.1-5.7-1.7c-0.5-0.2-1-0.3-1.5-0.5c0.2,0.1-0.1,0-0.1-0.1c-0.1-0.1-0.1-0.1,0,0
				c-0.2-0.2-0.2-0.2,0,0.1c0.1,0.1,0.2,0.3,0.1,0.5c0-0.1,0-0.1,0.1-0.2c0.1-0.2,0.2-0.5,0.3-0.7c0.2-0.5,0.4-1,0.5-1.5
				c0.7-1.9,1.4-3.9,2.1-5.8c0-0.1,0.2-0.6,0.2-0.4c-0.1,0.1,0,0.1,0.1-0.1c-0.9,0.4-1.2,0.5-0.7,0.6c0.2,0.1,0.8,0.1,1.1,0.2
				c1,0.2,2.1,0.4,3.1,0.8c1,0.3,2.1-0.4,2.3-1.3C161.7,267.6,161.1,266.6,160.1,266.3L160.1,266.3z"/>
			<path class="st2" d="M168.4,268c0.2,6.6-0.3,13.1-1.5,19.6c-0.2,1,0.3,2,1.3,2.3c0.9,0.3,2.1-0.3,2.3-1.3
				c1.3-6.8,1.8-13.7,1.7-20.6C172.1,265.5,168.3,265.5,168.4,268L168.4,268z"/>
			<path class="st2" d="M170.7,279.5c2.5,0.1,5,0,7.4-0.2c1-0.1,1.9-0.8,1.9-1.9c0-1-0.8-2-1.9-1.9c-2.5,0.2-5,0.3-7.4,0.2
				c-1,0-1.9,0.9-1.9,1.9C168.8,278.6,169.6,279.5,170.7,279.5L170.7,279.5z"/>
		</g>
	</g>
	<g>
		<g>
			<g>
				<path class="st3" d="M198.6,136.4c1.6-3.5-1.3-7.2-2.8-10.8c-1.2-2.6-1.6-5.4-1.4-8.2c0.2-2.3,2-5.2,4.7-4.7
					c2.9,0.6,2.8,4.4,5.3,5.8c1.3-4.3,4.1-8.3,8-11.3c1.8-1.3,4.2-2.6,6.5-1.8c3,1,3.1,4.5,2.6,7.2c2.1-1.2,5.1-2.4,7-1
					c2,1.4,0.8,4.1-0.4,6.1c1.9-0.9,4.7-0.4,5.9,1.1s0.9,3.8-0.8,5c3.2-0.3,5.8,2.6,5.7,5.2c-0.1,2.7-2,5-4,7.1
					c-3.6,3.7-7.8,7.2-13,9.3c-5.2,2.1-11.5,2.6-16.6,0.4"/>
			</g>
			<g>
				<g>
					<path class="st4" d="M200.4,136.9c1.1-2.6,0.3-5.4-0.8-7.8c-1.1-2.4-2.5-4.7-3.1-7.3c-0.3-1.3-0.4-2.6-0.3-3.9
						c0-0.1,0.1-0.6,0-0.4c0,0.2,0-0.1,0-0.1c0-0.2,0.1-0.4,0.2-0.7c0.1-0.5,0.2-0.6,0.5-1.1c0.2-0.3,0.3-0.5,0.7-0.8
						c-0.3,0.2,0.5-0.2,0.1-0.1c0.1,0,0.7-0.2,0.4-0.1c0.1,0,0.2,0,0.3,0c0.3,0-0.2,0,0.1,0c0.1,0,0.6,0.2,0.3,0.1
						c0.2,0.1,0.4,0.3,0.6,0.5c-0.1-0.2,0.1,0.1,0.1,0.1c0.1,0.1,0.2,0.2,0.2,0.4c0.1,0.2,0.2,0.4,0.3,0.6c0.2,0.4,0.4,0.8,0.7,1.3
						c0.6,1.1,1.4,2,2.5,2.6c1.1,0.7,2.4,0,2.8-1.1c1.3-4.3,4.3-8.5,8.2-10.8c0.9-0.5,1.9-1,2.9-1.1c0.3,0,0.5,0,0.8,0.1
						c0.3,0.1,0.4,0.1,0.5,0.2c0.1,0,0.6,0.4,0.3,0.2c0.1,0.1,0.5,0.6,0.3,0.3c0.1,0.1,0.2,0.3,0.3,0.5c0.1,0.2,0.1,0.2,0,0
						c0,0.1,0.1,0.2,0.1,0.3c0.1,0.2,0.1,0.4,0.2,0.6c0,0.1,0,0.1,0,0c0,0.1,0,0.3,0,0.4c0,0.4,0,0.9,0,1.3c0,0.3,0,0.5-0.1,0.8
						c0-0.4-0.1,0.4-0.1,0.4c-0.3,1.6,1.3,3,2.8,2.1c0.9-0.5,1.9-1,2.9-1.2c0.7-0.2,1.5-0.2,2,0.1c-0.1,0,0.2,0.2,0.3,0.3
						c-0.1-0.1-0.1-0.1,0,0.1c-0.1-0.1-0.1-0.1,0,0c0,0.1,0,0.1,0,0c0,0.1,0,0.3,0,0.4c0,0.5,0.1-0.2,0,0.3
						c-0.2,0.9-0.6,1.7-1.2,2.6c-0.5,0.7-0.3,1.7,0.3,2.3c0.6,0.6,1.5,0.6,2.3,0.3c0.4-0.2,1.2-0.3,1.8-0.2c0.6,0.1,1.2,0.4,1.6,0.7
						c0.7,0.7,0.6,1.7-0.2,2.3c-0.7,0.5-1.1,1.3-0.9,2.1c0.2,0.8,1,1.5,1.8,1.4c1.2-0.1,2.1,0.2,2.8,1c0.3,0.3,0.3,0.3,0.4,0.5
						c0.1,0.1,0.4,0.7,0.3,0.6c0.1,0.2,0.2,0.5,0.2,0.8c0.1,0.4,0,0.2,0,0.1c0,0.2,0,0.4,0,0.6c-0.3,2.8-3,5.2-4.9,7
						c-4.5,4.3-9.8,7.8-16.1,8.8c-3.4,0.6-7,0.3-10.2-1c-1-0.4-2.1,0.4-2.3,1.3c-0.3,1.1,0.4,1.9,1.3,2.3c7.1,2.8,15.4,1.2,21.9-2.5
						c3.2-1.8,6-4.2,8.6-6.7c2.6-2.6,5.6-5.7,5.6-9.6c0-4-3.7-7.3-7.6-7c0.3,1.2,0.6,2.4,1,3.5c1.3-0.9,2.2-2.2,2.4-3.8
						c0.2-1.5-0.2-3-1.2-4.2c-2-2.3-5.6-2.6-8.2-1.4c0.9,0.9,1.7,1.7,2.6,2.6c1.6-2.5,2.9-6.2,0.1-8.4c-2.8-2.2-6.6-0.9-9.3,0.7
						c0.9,0.7,1.9,1.4,2.8,2.1c0.3-1.9,0.5-3.9-0.1-5.8c-0.8-2.2-2.5-3.7-4.8-4c-2.6-0.4-5.1,0.8-7.1,2.4c-2,1.5-3.7,3.3-5.2,5.2
						c-1.6,2.1-2.7,4.5-3.5,7c0.9-0.4,1.9-0.8,2.8-1.1c-0.1-0.1-0.2-0.1-0.3-0.2c0.2,0.2,0,0,0,0c-0.1-0.1-0.5-0.5-0.3-0.3
						c-0.3-0.4-0.5-0.8-0.7-1.2c-0.5-0.9-1-1.8-1.7-2.6c-1.8-2-4.9-2.3-7-0.7c-2.2,1.6-2.9,4.3-2.9,6.9c0,3.2,0.9,6.3,2.3,9.2
						c1.3,2.5,3.2,5.3,2,8c-0.4,0.9,0.4,2.1,1.3,2.3C199.2,138.6,200,137.9,200.4,136.9L200.4,136.9z"/>
				</g>
			</g>
		</g>
		<g>
			<g>
				<path class="st5" d="M86.1,394.4c-7.8,1.9-16.1,1.4-23.6-1.3c-1.1-0.4-2.2-0.8-2.9-1.7c-0.9-1.1-1-2.5-1.1-3.9
					c-0.5-8.4-2.5-20.9,5.6-26.5c3.3-2.3,7.8-2.1,11.5-0.7c3.2,1.2,6.2,3.3,7.6,6.4c1.8,4.2,1.1,8.5,3.8,12.5
					c1.4,2.1,3.2,3.9,4.3,6.1c1.1,2.2,1.3,5.2-0.5,7c-0.9,0.9-2.2,1.4-3.5,1.7C87,394.1,86.5,394.3,86.1,394.4z"/>
			</g>
			<g>
				<g>
					<path class="st4" d="M85.6,392.5c-4.1,1-8.3,1.3-12.5,0.9c-2-0.2-4-0.5-6-1c-1-0.2-1.9-0.5-2.9-0.8c-0.9-0.3-1.8-0.5-2.5-1
						c-1.2-0.8-1.2-2.4-1.3-3.7c-0.1-1.4-0.2-2.8-0.3-4.2c-0.2-3.1-0.4-6.2-0.1-9.3c0.1-1.3,0.3-2.6,0.7-4.1
						c0.1-0.3,0.2-0.6,0.3-0.9c0.1-0.2,0.1-0.4,0.2-0.6c0,0,0.2-0.6,0.1-0.3c0.3-0.6,0.6-1.3,1-1.9c0.6-1,1.6-2.1,2.5-2.8
						c1.4-1,2.9-1.6,4.6-1.7c3.3-0.2,6.9,0.9,9.5,3c1.3,1,2.2,2.3,2.8,3.8c0.6,1.8,0.9,3.8,1.3,5.7c0.4,2.3,1.1,4.6,2.4,6.5
						c1.2,1.9,2.8,3.5,4,5.4c0.5,0.8,0.7,1.5,0.9,2.4c0.1,0.6,0,1.6-0.2,2.1C89.5,391.8,87.3,392.1,85.6,392.5
						c-2.4,0.6-1.4,4.2,1,3.7c2.1-0.5,4.5-1.1,5.9-2.9c1.5-1.8,1.8-4,1.4-6.2c-0.4-2.1-1.5-4-2.8-5.7c-1.3-1.7-2.9-3.4-3.6-5.5
						c-1.5-4-1.1-8.7-3.8-12.2c-2.5-3.3-6.6-5.4-10.7-6.1c-4.3-0.7-8.5,0.2-11.7,3.3c-2.5,2.4-3.9,5.6-4.6,8.9
						c-0.7,3.4-0.7,6.9-0.5,10.4c0.1,1.6,0.2,3.2,0.3,4.8c0.1,1.8,0.1,3.8,0.6,5.6c0.9,2.7,3.2,3.7,5.7,4.6c2.5,0.9,5.1,1.4,7.8,1.8
						c5.4,0.7,10.8,0.5,16-0.8C89,395.6,88,392,85.6,392.5z"/>
				</g>
			</g>
		</g>
		<g>
			<g>
				<path class="st5" d="M124.5,368.5c1.2,3.9,4.9,6.5,8.7,8.2c3.7,1.7,7.8,3,10.9,5.6c1.8,1.6,3.3,4,2.6,6.2
					c-0.9,2.9-4.7,3.7-7.8,3.8c-8.5,0.4-17,0.1-25.4-0.8c-3.5-0.4-7.5-1.1-9.3-4.2c-0.9-1.5-1-3.3-1.1-5c-0.3-5.8-0.3-11.5,0.1-17.3
					"/>
			</g>
			<g>
				<g>
					<path class="st4" d="M122.6,369c2,6.2,8.1,8.7,13.6,11.1c2.7,1.1,5.8,2.5,7.6,4.8c0.7,1,1.2,2.1,0.9,3.1c0,0-0.1,0.3,0,0.1
						c-0.1,0.1-0.1,0.2-0.2,0.3c-0.2,0.3-0.1,0.2,0,0.1c-0.1,0.1-0.2,0.2-0.2,0.3c-0.1,0.1-0.2,0.2-0.3,0.3c-0.2,0.2,0.2-0.1-0.1,0
						c-0.3,0.2-0.6,0.3-0.9,0.5c-0.3,0.2,0.4-0.1-0.2,0.1c-0.1,0-0.3,0.1-0.4,0.1c-0.3,0.1-0.5,0.2-0.8,0.2
						c-0.6,0.1-1.1,0.2-1.6,0.3c-1.6,0.2-3.3,0.2-5,0.2c-3.7,0.1-7.4,0-11.2-0.1c-3.6-0.2-7.2-0.4-10.7-0.8
						c-2.2-0.2-5.1-0.7-6.7-2.3c-1-0.9-1.4-2.4-1.5-3.9c-0.2-2-0.2-4-0.3-6c-0.1-4.1,0-8.2,0.3-12.4c0.1-1-0.9-1.9-1.9-1.9
						c-1.1,0-1.8,0.9-1.9,1.9c-0.3,3.9-0.4,7.8-0.3,11.7c0,2,0.1,4,0.2,6c0.1,1.9,0.4,3.7,1.3,5.4c1.5,2.8,4.5,4.1,7.5,4.8
						c3.6,0.7,7.3,0.9,11,1.1c3.9,0.2,7.9,0.3,11.8,0.3c3.4,0,6.9,0.1,10.2-0.7c3-0.8,5.6-2.8,5.8-6.1c0.2-3.6-2.8-6.5-5.6-8.3
						c-3.2-2-6.9-3.1-10.2-4.8c-2.8-1.4-5.5-3.5-6.5-6.4c-0.3-1-1.3-1.6-2.3-1.3C123,367,122.3,368.1,122.6,369L122.6,369z"/>
				</g>
			</g>
		</g>
		<g>
			<g>
				<path class="st6" d="M141,224.6c1.3,9.6,3.4,18.4,4,28.1c0.7,11.4,1,22.8,0.7,34.3c-0.6,22.4-3.2,44.8-7.9,66.8
					c-0.7,3.2-1.5,6.6-3.9,8.9c-1.7,1.7-4.2,2.7-5,5c-0.4,1-0.3,2.3-1,3.1c-0.9,1.1-2.5,1.2-3.9,1.1c-6.6-0.2-13.2-0.4-19.8-0.7
					c-1.1,0-2.3-0.1-3.1-0.8c-3-2.5-5.4-11.5-7.6-15.2c-2.3-3.9-4.6-7.7-4.7-12.4c-0.3-8.2,3.5-15.8,3-24.3
					c-1.7-27.5-5.5-55-8.3-82.5"/>
			</g>
			<g>
				<g>
					<path class="st4" d="M139.2,225.1c0.7,5.2,1.7,10.4,2.5,15.6c0.8,5.2,1.3,10.5,1.6,15.7c0.6,11,0.8,22.1,0.4,33.1
						c-0.4,10.9-1.2,21.8-2.5,32.6c-1.3,10.6-3,21.3-5.3,31.7c-0.5,2-1,4.1-2.1,5.9c-1.1,1.8-2.8,2.7-4.3,4c-0.8,0.7-1.5,1.5-2,2.5
						c-0.2,0.5-0.4,1.1-0.6,1.7c-0.1,0.4-0.2,1-0.3,1.4c-0.1,0.1-0.1,0.2-0.2,0.3c0.1-0.1-0.3,0.1-0.1,0c-0.5,0.2-0.7,0.2-1.3,0.2
						c-1.2,0-2.5-0.1-3.7-0.1c-5.6-0.2-11.1-0.4-16.7-0.6c-0.4,0-1,0-1.3-0.1c-0.2,0-0.4-0.1-0.6-0.1c0,0-0.5-0.3-0.3-0.1
						c-0.2-0.2-0.4-0.4-0.6-0.7c-0.1-0.2,0,0.1,0.1,0.1c0-0.1-0.1-0.1-0.1-0.2c-0.1-0.2-0.3-0.4-0.4-0.6c-0.9-1.4-1.7-3.1-2.2-4.5
						c-1.4-3.4-2.6-6.9-4.5-10.1c-1.1-1.9-2.2-3.9-2.9-6c-0.8-2.2-0.9-4.5-0.8-6.8c0.3-4.8,1.7-9.4,2.5-14.1
						c0.4-2.5,0.6-5.1,0.5-7.6c-0.2-2.8-0.4-5.5-0.6-8.3c-0.8-11.1-2-22.1-3.2-33.1c-1.2-11-2.5-22-3.7-32.9
						c-0.3-2.7-0.6-5.4-0.8-8.1c-0.1-1-0.8-1.9-1.9-1.9c-0.9,0-2,0.9-1.9,1.9c1.1,11.3,2.5,22.6,3.7,33.9
						c1.3,11.3,2.5,22.6,3.5,33.9c0.2,2.8,0.5,5.6,0.7,8.4c0.2,2.7,0.5,5.5,0.5,8.2c-0.1,4.9-1.5,9.6-2.4,14.5
						c-0.4,2.5-0.8,5-0.7,7.6c0.1,2.6,0.7,5.1,1.7,7.5c0.9,2.2,2.2,4.3,3.4,6.3c0.4,0.7,0.7,1.4,1,2c0.3,0.7,0.6,1.4,0.9,2.2
						c1.4,3.5,2.6,7.3,5,10.2c0.6,0.7,1.2,1.3,2,1.6c1.2,0.5,2.5,0.6,3.8,0.6c2.9,0.1,5.8,0.2,8.6,0.3c2.8,0.1,5.7,0.2,8.5,0.3
						c2.4,0.1,5.2,0.5,7.2-1.3c0.9-0.9,1.3-2,1.5-3.2c0.2-1,0.4-1.5,1.1-2.2c1.5-1.5,3.4-2.5,4.8-4.3c1.4-1.8,2.2-4.1,2.7-6.3
						c0.7-2.6,1.1-5.2,1.6-7.8c1.1-5.5,2-10.9,2.8-16.4c1.7-11.1,2.8-22.3,3.5-33.5c0.7-11.2,0.8-22.5,0.4-33.8
						c-0.2-5.6-0.4-11.3-1-16.9c-0.6-5.4-1.5-10.7-2.4-16c-0.4-2.6-0.9-5.3-1.2-7.9c-0.1-1-1.4-1.6-2.3-1.3
						C139.4,223.1,139,224.1,139.2,225.1L139.2,225.1z"/>
				</g>
			</g>
		</g>
		<g>
			<g>
				<path class="st6" d="M110.9,261.3c-3.5,16.8-9.3,32.2-11,49.6c-1.2,12.5-2.5,25-3.7,37.5c-0.6,5.7-1.5,12.1-5.9,15.6
					c-1.1,0.9-2.4,1.5-3.2,2.7c-0.8,1.2-1.1,2.8-2.3,3.7c-0.9,0.7-2,0.8-3.1,0.9c-6.2,0.5-12.4,0.5-18.5-0.2
					c-1.5-0.2-3.1-0.4-4.3-1.4c-1.5-1.2-1.9-3.3-2.6-5.1c-1.6-4.4-5.5-6.7-7.3-10.9c-2.4-5.8-2.9-13.2-3.2-19.4
					c-0.8-13.6,0.7-27.2,1.9-40.7c1.8-20.6,6.1-41.2,13.9-60.4"/>
			</g>
			<g>
				<g>
					<path class="st4" d="M109,260.8c-1.9,9.1-4.5,18-6.8,26.9c-1.1,4.5-2.2,9-3,13.6c-0.8,4.7-1.3,9.5-1.8,14.3c-1,10-2,20-2.9,30
						c-0.4,3.9-0.6,7.6-1.8,11.4c-0.5,1.5-1.3,3.1-2.3,4.3c-1.3,1.5-3.1,2.3-4.3,3.7c-0.7,0.8-1.1,1.7-1.6,2.6
						c-0.3,0.7-0.6,1.3-1.3,1.6c-0.8,0.3-1.9,0.3-2.7,0.4c-1.3,0.1-2.7,0.2-4,0.2c-2.5,0.1-4.9,0.1-7.4,0c-2.3-0.1-4.6-0.2-6.9-0.6
						c-0.7-0.1-1.5-0.3-2.1-0.8c-0.5-0.5-0.9-1.2-1.1-1.9c-0.7-1.9-1.3-3.7-2.4-5.4c-1.1-1.6-2.4-3.1-3.6-4.6
						c-1.1-1.3-2-2.9-2.5-4.6c-1.4-4-1.9-8.3-2.3-12.5c-0.4-4.6-0.6-9.2-0.6-13.8c0-10,1-20,1.9-30c1.7-18.9,5.1-37.5,11.6-55.4
						c0.8-2.1,1.6-4.3,2.4-6.4c0.4-1-0.4-2.1-1.3-2.3c-1.1-0.3-2,0.4-2.3,1.3c-7.3,18.1-11.5,37.4-13.5,56.8
						c-1.1,10.1-2,20.3-2.4,30.4c-0.2,5.1-0.1,10.1,0.2,15.2c0.3,4.4,0.6,8.9,1.5,13.2c0.5,2.2,1.1,4.3,2,6.4c0.8,1.8,2,3.4,3.2,4.9
						c1.2,1.5,2.4,2.8,3.3,4.5c0.9,1.7,1.2,3.6,2.1,5.2c1.2,2.1,3.2,3.2,5.5,3.5c2.4,0.4,4.9,0.5,7.4,0.6c2.6,0.1,5.2,0.1,7.7,0
						c1.1,0,2.3-0.1,3.4-0.2c1.3-0.1,2.6-0.1,3.8-0.5c1.2-0.3,2.2-1,3-2c0.6-0.7,0.9-1.6,1.3-2.4c0.9-1.7,2.9-2.5,4.2-3.8
						c2.8-2.8,4.2-6.7,4.9-10.5c0.8-4.5,1.1-9.2,1.5-13.8c0.5-5.1,1-10.2,1.5-15.3c0.5-5,0.9-10,1.5-15c0.5-4.7,1.3-9.4,2.3-14
						c2-9.2,4.7-18.2,6.9-27.4c0.6-2.3,1.1-4.6,1.6-6.9c0.2-1-0.3-2.1-1.3-2.3C110.4,259.2,109.2,259.8,109,260.8L109,260.8z"/>
				</g>
			</g>
		</g>
		<g>
			<g>
				<path class="st2" d="M187.3,137c2.3-2,4.8-5,7.2-5.5c2.3-0.5,4.7,1.2,6.7,2.9c7.5,6.4,20.5,14.4,14.4,25
					c-6.8,11.6-15.9,22-25.5,30.9c-4.4,4-9.1,7.9-14.6,9.8c-4.7,1.7-9.8,2-14.8,1.9c-13.4-0.2-31.6-2.8-40.8-15.6
					c-9-12.5-21.7-25.9-18.5-42.6c2-10,10.2-17.6,19.6-18.3c10.9-0.8,21.2,6.6,30.9,13c2.8,1.9,5.7,3.7,8.8,4.6c3.4,1,7,1,10.4,0.5
					c5.1-0.8,10-2.5,14.4-5.1C186.1,138,186.7,137.5,187.3,137z"/>
			</g>
			<g>
				<g>
					<path class="st4" d="M188.7,138.3c1-0.9,2-1.9,3-2.8c0.9-0.8,1.8-1.6,2.9-2.1c0.2-0.1,0.8-0.2,1.2-0.2c0.5,0.1,1,0.3,1.5,0.5
						c1.1,0.6,2.1,1.4,3.1,2.3c3.3,2.7,6.7,5.3,9.8,8.3c1.5,1.5,2.7,2.8,3.7,4.5c0.2,0.4,0.5,0.8,0.7,1.2c0.1,0.1,0.1,0.2,0.2,0.3
						c0.1,0.3-0.1-0.2,0,0.1c0.1,0.2,0.2,0.5,0.2,0.7c0.1,0.4,0.3,0.9,0.3,1.3c0,0.1,0,0.2,0.1,0.4c0-0.1,0-0.3,0,0
						c0,0.2,0,0.5,0,0.7c0,0.2,0,0.5,0,0.7c0,0.1-0.1,0.6,0,0.5c0,0.2-0.2,1-0.3,1.4c-0.3,1-0.8,1.9-1.4,2.9c-1.5,2.5-3,4.9-4.7,7.2
						c-3.3,4.7-7,9.1-10.9,13.3c-3.8,4.1-7.8,8.1-12.1,11.8c-4.2,3.6-8.8,6.5-14.2,7.8c-5.1,1.2-10.4,1-15.6,0.7
						c-8.5-0.5-17.5-2-25-6.2c-3.8-2.1-7.1-4.8-9.6-8.3c-2.9-4-6-7.9-8.8-12c-5.5-7.8-10.6-16.7-9.8-26.5c0.7-8.9,6.7-17,15.4-19.2
						c2.2-0.6,4.5-0.6,6.9-0.4c2.6,0.3,5.2,1.1,7.6,2c5.3,2.1,10.1,5.3,14.7,8.4c5,3.3,9.9,7,16,7.7c5.8,0.8,12-0.6,17.4-2.8
						C183.7,141.6,186.4,140.3,188.7,138.3c0.8-0.7,0.7-2,0-2.7c-0.8-0.8-1.9-0.7-2.7,0c-2.1,1.8-5,3-7.6,4c-2.7,1-5.6,1.8-8.5,2.1
						c-3,0.3-6.1,0.3-9-0.6c-2.8-0.9-5.4-2.6-7.8-4.2c-5-3.3-10-6.8-15.4-9.4c-5.2-2.5-10.9-4.4-16.7-4c-10,0.7-18.3,8.4-21,17.9
						c-1.4,5.1-1.3,10.6,0,15.7c1.3,5,3.7,9.7,6.5,14c2.8,4.4,6,8.5,9.1,12.6c1.5,2,2.9,4.1,4.6,6.1c1.6,1.8,3.4,3.4,5.3,4.8
						c7.6,5.6,17.3,7.8,26.5,8.8c4.9,0.5,9.9,0.7,14.8,0.4c3.2-0.2,6.3-0.8,9.3-1.9c2.8-1,5.3-2.4,7.7-4.1
						c4.8-3.4,9.1-7.5,13.2-11.7c4.2-4.3,8.2-8.8,11.9-13.6c1.8-2.4,3.6-4.8,5.2-7.3c1.5-2.3,3.2-4.7,4.1-7.4
						c1.5-4.2,0.2-8.7-2.4-12.2c-2.7-3.7-6.3-6.6-9.8-9.5c-1.9-1.5-3.7-3.1-5.6-4.5c-2.5-1.9-5.5-2.7-8.4-1.1
						c-2.4,1.3-4.2,3.5-6.2,5.3c-0.8,0.7-0.7,2,0,2.7C186.8,139.1,187.9,139,188.7,138.3z"/>
				</g>
			</g>
		</g>
		<g>
			<g>
				<path class="st2" d="M62.5,133.6c-14.4,6.2-28.1,14.5-38.3,26.1c-13.3,15.1-23.1,33.9-20.3,54.6c1,7.4,3.5,14.8,8.7,20.1
					c4.2,4.4,10,7.1,16.1,7.9c2,0.3,4.1,0.4,5.8,1.5c1.4,0.9,2.4,2.2,3.5,3.4c5.2,5.2,13.8,5.5,19.8,1.9c4.7-2.8,13.3-7.2,13.1-13.6
					c-0.1-3.8-3.6-6.5-5.6-9.3c-2.7-3.6-3.8-7.6-5.3-11.9c-1.5-4.3-3-8.7-3.8-13.3c-3.1-20,4.3-35.1,12.3-52.6"/>
			</g>
			<g>
				<g>
					<path class="st4" d="M61.6,132c-9.3,4-18.3,8.9-26.3,15c-8,6.2-14.9,13.6-20.6,21.9C9,176.9,4.7,186,2.7,195.6
						c-2,9.7-1.7,20.3,2,29.6c1.9,4.7,4.6,9.1,8.5,12.3c3.9,3.2,8.6,5.4,13.5,6.4c2.3,0.4,5,0.3,7,1.7c1,0.7,1.7,1.6,2.5,2.5
						c0.8,0.9,1.7,1.6,2.7,2.3c3.8,2.6,8.5,3.4,13,2.8c4-0.6,7.5-2.7,10.9-4.8c3.3-2.1,6.9-4.5,8.7-8.1c1-1.9,1.4-4,1.1-6.1
						c-0.4-2.3-1.8-4.3-3.3-6c-1.5-1.8-2.9-3.3-4-5.3c-1.2-2.2-2-4.6-2.8-6.9c-1.8-5.3-3.8-10.6-4.6-16.3
						c-0.7-5.1-0.7-10.3-0.1-15.3c1.3-9.8,5.1-19,9.1-27.9c1.1-2.4,2.2-4.7,3.2-7.1c0.4-0.9,0.3-2-0.7-2.6c-0.8-0.5-2.2-0.3-2.6,0.7
						c-4.1,9.1-8.5,18.2-11.1,27.9c-2.6,10-3.1,20.6-0.5,30.6c0.7,2.7,1.6,5.3,2.5,7.9c0.9,2.4,1.6,4.9,2.6,7.3
						c1,2.5,2.2,4.8,3.8,6.8c1.3,1.6,2.7,3,3.8,4.7c0.5,0.8,0.9,1.6,1,2.4c0.1,0.5,0,0.9,0,1.4c0-0.3,0,0.1,0,0.2
						c0,0.2-0.1,0.5-0.2,0.7c-0.1,0.2-0.1,0.4-0.2,0.6c-0.1,0.2,0,0,0,0c0,0.1-0.1,0.2-0.1,0.2c-0.2,0.4-0.4,0.8-0.7,1.2
						c-0.4,0.6-0.9,1.2-1.6,1.8c-2.5,2.4-5.7,4.2-8.8,6c-1.7,1-3.3,1.7-5.3,2.1c-1.7,0.3-3.9,0.4-5.6,0.1c-2.1-0.4-3.8-1-5.5-2.2
						c-1.8-1.3-3.2-3.4-5-4.7c-2.1-1.5-4.7-1.6-7.2-2c-2.2-0.4-4.5-1-6.6-1.9c-4.3-1.8-8.1-4.8-10.7-8.6c-5.3-7.8-6.7-18-5.9-27.3
						c0.8-9.3,4.1-18.2,8.8-26.2c4.8-8.2,10.9-15.9,18-22.2c7.3-6.5,15.8-11.7,24.6-16c2.2-1.1,4.4-2,6.6-3c0.9-0.4,1.2-1.8,0.7-2.6
						C63.6,131.7,62.5,131.6,61.6,132L61.6,132z"/>
				</g>
			</g>
		</g>
		<g>
			<g>
				<path class="st7" d="M49.6,177.8c0.3,9,0.6,18,0.9,27c0.2,8.7,0.4,17.3,0.7,26c0.1,5.9-1.9,16.7,3.1,21.1c1.6,1.4,3.7,2,5.7,2.5
					c28.3,7.1,58.1,0.9,86.7-5.4c1-0.2,2.2-0.5,2.9-1.3c0.6-0.7,0.8-1.8,0.9-2.7c2.4-19.3,2.3-38.9-0.2-58.2
					c-2.2-16.6-4.9-36.1-13.3-50.8c-4.2-7.2-10.7-13.3-18.7-15.6c-4.3-1.2-8.9-1.3-13.4-1.1c-17.3,0.8-49.6,2.2-54.9,23.5
					c-0.9,3.7-0.8,7.5-0.7,11.3C49.2,162,49.4,169.9,49.6,177.8z"/>
			</g>
			<g>
				<g>
					<path class="st4" d="M47.7,177.8c0.5,17,1,34.1,1.5,51.1c0.1,5.7-0.8,11.5,0.2,17.1c0.4,2.6,1.5,5.4,3.5,7.2
						c2.9,2.5,7,3.2,10.6,3.9c16.2,3.3,32.8,2.6,49,0.3c8.1-1.2,16.2-2.7,24.2-4.4c2-0.4,4.1-0.9,6.1-1.3c1.9-0.4,3.8-0.7,5.6-1.3
						c1.9-0.7,3.2-2,3.6-4c0.4-2,0.5-4.1,0.7-6.1c1.7-16.8,1.6-33.7-0.3-50.5c-0.8-7.2-1.8-14.4-3.1-21.6c-1.3-7.1-2.9-14.2-5.3-21
						c-2.3-6.6-5.4-13-9.9-18.4c-4.4-5.1-10.3-9.2-16.9-10.7c-6.1-1.3-12.4-0.8-18.6-0.5c-4.9,0.3-9.9,0.7-14.8,1.4
						c-9.7,1.4-20,4-27.7,10.4c-3.6,3-6.4,7-7.8,11.6c-1.1,3.7-1.2,7.6-1.2,11.5c0.1,4.2,0.1,8.4,0.1,12.7
						C47.5,169.5,47.6,173.6,47.7,177.8c0.1,2.4,3.9,2.4,3.8,0c-0.3-8.3-0.3-16.5-0.5-24.8c-0.1-3.6-0.1-7.3,1-10.8
						c0.2-0.5,0.3-1,0.5-1.5c0.1-0.1,0.1-0.3,0.2-0.4c0.1-0.3-0.2,0.4,0-0.1c0.1-0.3,0.2-0.5,0.4-0.8c0.5-1,1-1.9,1.7-2.9
						c0.2-0.2,0.3-0.4,0.5-0.7c0.2-0.3,0-0.1,0,0c0.1-0.1,0.2-0.2,0.3-0.3c0.4-0.4,0.7-0.9,1.1-1.3c0.7-0.8,1.5-1.5,2.4-2.2
						c0.1-0.1,0.6-0.5,0.3-0.3c0.2-0.2,0.4-0.3,0.7-0.5c0.5-0.3,0.9-0.6,1.4-1c1-0.6,2-1.2,3-1.7c0.5-0.3,1-0.5,1.5-0.7
						c0.2-0.1,0.5-0.2,0.7-0.3c0.2-0.1,0.3-0.1,0.5-0.2c-0.3,0.1,0.1-0.1,0.2-0.1c1.1-0.4,2.2-0.9,3.3-1.2c2.3-0.8,4.7-1.4,7.1-1.9
						c2.4-0.5,4.9-1,7.3-1.3c0.3,0,0.6-0.1,0.8-0.1c-0.3,0,0.1,0,0.1,0c0.2,0,0.3,0,0.5-0.1c0.6-0.1,1.2-0.2,1.8-0.2
						c1.2-0.1,2.4-0.3,3.6-0.4c4.3-0.4,8.6-0.6,12.9-0.8c3.8-0.2,7.7-0.2,11.4,0.6c3.2,0.7,6.1,2,8.8,3.8c5.3,3.5,9,8.7,11.9,14.3
						c6.2,12.3,8.6,26.3,10.5,39.8c1,7.4,1.9,14.9,2.4,22.4c0.5,8.2,0.6,16.3,0.2,24.5c-0.2,4.1-0.5,8.3-0.9,12.4
						c-0.2,1.9-0.4,3.9-0.6,5.9c-0.1,0.5-0.1,1.2-0.5,1.6c-0.3,0.3-1.1,0.5-1.6,0.6c-7.8,1.8-15.6,3.4-23.4,4.8
						c-15.5,2.8-31.3,4.6-47.1,3.2c-3.8-0.4-7.7-0.9-11.5-1.7c-1.8-0.4-3.7-0.8-5.5-1.3c-1.4-0.4-2.8-1-3.8-2.1
						c-0.1-0.1-0.2-0.2-0.2-0.3c-0.4-0.4,0.2,0.3-0.1-0.2c-0.1-0.2-0.3-0.4-0.4-0.6c-0.2-0.3-0.3-0.5-0.4-0.8
						c-0.3-0.5,0.1,0.2-0.1-0.1c-0.1-0.2-0.1-0.3-0.2-0.5c-0.4-1.2-0.6-2.5-0.7-3.5c-0.3-2.8-0.1-5.6,0-8.4
						c0.4-7.1-0.1-14.2-0.3-21.2c-0.2-8.3-0.4-16.5-0.7-24.8c-0.1-4-0.3-8-0.4-11.9C51.5,175.3,47.7,175.3,47.7,177.8z"/>
				</g>
			</g>
		</g>
		<g>
			<g>
				<path class="st4" d="M46.5,202.7c-8.1-6-18.6-7.3-28.3-7.6c-2.4-0.1-2.4,3.7,0,3.8c9.2,0.3,18.9,1.4,26.4,7.1
					c0.8,0.6,2.1,0.1,2.6-0.7C47.7,204.3,47.3,203.3,46.5,202.7L46.5,202.7z"/>
			</g>
		</g>
		<g>
			<g>
				<path class="st3" d="M39.8,247.6c0-5.7,2.7-12.6,7.3-16.2c4.6-3.5,12.2-7.6,18.1-5.5c5.3,1.8,8.9,7.7,8.1,13.3
					c-0.1,0.4-0.1,0.7-0.4,1c-0.3,0.2-0.6,0.2-1,0.2c-1.2,0-2.5,0-3.7,0.1c1.2,0.9,2.4,2,2.6,3.5c0.3,1.9-1.3,3.6-3.1,4.2
					c-1.8,0.6-3.8,0.3-5.7,0.1c1.6,0.4,2.4,2.5,1.6,4c-0.8,1.5-2.6,2.1-4.2,2c-1.6-0.2-3.1-1.1-4.4-2.2c0.4,1.3-0.4,2.7-1.6,3.4
					c-1.1,0.7-2.5,0.9-3.9,0.9c-2.4,0.2-4.9,0.1-6.8-1.2C40.6,253.4,39.8,250.3,39.8,247.6z"/>
			</g>
			<g>
				<g>
					<path class="st4" d="M41.7,247.6c0-3.4,0.9-6.8,2.6-9.8c1.7-3.2,4.1-5.2,7.2-7c3.1-1.9,6.7-3.5,10.3-3.5c3.2,0,6.1,1.8,7.9,4.5
						c0.5,0.8,0.9,1.6,1.2,2.3c0.2,0.5,0.3,1,0.4,1.5c0.1,0.4,0.2,0.8,0.2,1c0,0.5,0.1,1,0,1.5c0,0.5-0.2,0.6-0.1,1
						c0.3-0.2,0.5-0.4,0.8-0.6c-0.2,0-0.4,0-0.6,0c-0.4,0-0.8,0-1.2,0c-0.7,0-1.5,0-2.2,0c-0.8,0-1.6,0.6-1.8,1.4
						c-0.2,0.9,0.2,1.6,0.9,2.1c0.6,0.4,1.3,1.1,1.6,1.7c0.3,0.7,0.1,1.2-0.4,1.8c-1.4,1.5-3.9,1.1-5.8,0.8c-1-0.1-2,0.3-2.3,1.3
						c-0.3,1,0.3,2.1,1.3,2.3c0.2,0.1,0.2,0.1,0.1,0c0.2,0.1,0.2,0.1,0.1,0c0.3,0.3-0.1-0.2,0.2,0.2c0.2,0.3,0-0.1,0.1,0.2
						c0,0.1,0.1,0.2,0.1,0.4c0-0.2,0-0.2,0,0.1c0,0.4,0.1-0.1,0,0.3c-0.1,0.3,0.1,0-0.1,0.3c-0.2,0.3-0.3,0.4-0.7,0.6
						c-0.5,0.3-1.3,0.4-2,0.2c-1-0.3-2-0.9-2.8-1.5c-0.7-0.5-1.5-0.8-2.3-0.3c-0.7,0.4-1.1,1.3-0.9,2.1c0.1,0.2,0.1,0.3,0,0.5
						c-0.1,0.3-0.2,0.4-0.5,0.7c-0.5,0.4-1.3,0.6-2,0.7c-1.6,0.2-3.5,0.3-5.1,0C42.5,253.5,41.7,250.5,41.7,247.6
						c0-2.4-3.8-2.4-3.8,0c0,2.3,0.4,4.7,1.6,6.7c1.3,2.1,3.4,3.5,5.9,3.8c1.2,0.2,2.5,0.2,3.7,0.2c1.3-0.1,2.7-0.2,3.9-0.6
						c2.6-0.9,4.6-3.4,3.9-6.2c-1.1,0.6-2.1,1.2-3.2,1.8c1.5,1.2,3.2,2.3,5.1,2.6c1.9,0.3,3.8-0.1,5.3-1.3c2.8-2.3,2.2-7.3-1.5-8.3
						c-0.3,1.2-0.7,2.4-1,3.7c3.6,0.5,7.6,0.8,10-2.5c1-1.4,1.5-3.2,0.9-4.8c-0.6-1.7-1.9-2.9-3.3-3.9c-0.3,1.2-0.6,2.4-1,3.5
						c1.4,0,2.8,0,4.1-0.1c1.6-0.2,2.6-1.2,2.9-2.8c0.3-2.2,0.1-4.4-0.6-6.4c-1.5-4.1-4.7-7.5-8.8-9c-4.4-1.5-9.3-0.1-13.3,1.9
						c-3.9,1.9-7.6,4.4-10.2,8c-2.8,3.9-4.3,8.9-4.4,13.7C37.9,250,41.7,250,41.7,247.6z"/>
				</g>
			</g>
		</g>
		<g>
			<g>
				<path class="st3" d="M72.4,107.9c1.1,5.1,2.1,10.2,3.2,15.3c0.6,2.8,1.2,5.7,3,7.9c2.1,2.5,5.4,3.6,8.6,4.2
					c5.1,0.9,10.3,0.5,15.2-1c2.4-0.7,4.9-1.9,6-4.1c0.7-1.4,0.8-3,0.9-4.5c0.2-5.1,0.5-10.2,0.7-15.2"/>
			</g>
			<g>
				<g>
					<path class="st4" d="M70.6,108.4c1.1,5.6,2.2,11.1,3.5,16.7c0.5,2.4,1.3,4.8,2.8,6.7c1.5,2,3.7,3.4,6.1,4.3
						c4.9,1.8,10.6,1.8,15.7,1c4.7-0.8,10.6-2.5,12.1-7.6c0.4-1.4,0.4-3,0.5-4.5c0.1-1.6,0.2-3.2,0.2-4.8c0.2-3.3,0.3-6.5,0.5-9.8
						c0-1-0.9-1.9-1.9-1.9c-1.1,0-1.8,0.9-1.9,1.9c-0.2,5.3-0.5,10.5-0.7,15.8c-0.1,2-0.5,3.7-2.1,4.8c-1.7,1.2-3.8,1.7-5.9,2.2
						c-4.5,1-9.5,1-14-0.2c-1.9-0.5-3.7-1.4-5-2.8c-1.4-1.5-2-3.5-2.4-5.5c-1.3-5.7-2.4-11.5-3.6-17.2c-0.2-1-1.4-1.6-2.3-1.3
						C70.9,106.3,70.4,107.4,70.6,108.4L70.6,108.4z"/>
				</g>
			</g>
		</g>
		<g>
			<g>
				<path class="st7" d="M124.6,141.8c3.7-3.7,8-5.6,10.6-10.6c1.8-3.5,2.2-8.1,0-11.3c-2.2-3.3-7.5-4.4-10.3-1.6
					c0.2-3.7-1.4-8.1-5-8.9c-2.2-0.5-4.5,0.5-6.4,1.9c-3.9,3.1-6.1,7.8-8.5,12.2c-4.2,7.8-9.3,13.7-18,9
					c-6.9-3.8-11.9-10.3-18.3-14.8c-6.2-4.4-13.3-9.1-20.8-8.1c-3.2,0.4-6.3,2-7.9,4.7c-1.6,2.7-1.3,6.7,1.3,8.6
					c-4-0.2-7.5,3.4-7.9,7.4s1.7,7.9,4.8,10.4c3.1,2.5,6.9,3.9,10.8,4.9c5.5,1.4,11.3,2.2,17,2.2"/>
			</g>
			<g>
				<g>
					<path class="st4" d="M125.9,143.1c2-2,4.4-3.6,6.5-5.5c2.3-2.1,4.1-4.5,5.2-7.4c1.1-2.8,1.3-6.2,0.2-9.1
						c-1-2.8-3.1-4.8-5.9-5.8c-2.9-1-6.2-0.5-8.4,1.7c1.1,0.4,2.2,0.9,3.2,1.3c0.2-3.7-1.2-8.2-4.7-10.1c-4.6-2.4-9.4,0.7-12.4,4.2
						c-2.9,3.4-4.7,7.4-6.9,11.3c-0.9,1.5-2,3.3-3,4.5c-0.6,0.7-1.1,1.3-1.8,1.9c-0.6,0.6-0.8,0.8-1.6,1.2c-0.2,0.1-0.4,0.2-0.6,0.3
						c-0.1,0-0.5,0.2-0.2,0.1c-0.4,0.2-0.7,0.3-1.1,0.4c-0.2,0-0.4,0.1-0.5,0.1c-0.1,0-0.2,0-0.3,0c0,0,0.3,0,0.1,0
						c-0.4,0-0.9,0.1-1.3,0c-0.2,0-0.4,0-0.6,0c-0.2,0,0,0,0,0c-0.1,0-0.2,0-0.3-0.1c-0.5-0.1-0.9-0.2-1.4-0.3
						c-0.9-0.3-1.8-0.7-2.7-1.2c-3.8-2.2-7-5.2-10.2-8.1c-3.4-3.1-6.9-6-10.7-8.6c-3.9-2.6-8.1-5-12.8-5.9
						c-4.6-0.9-9.5-0.3-13.1,2.7c-3.3,2.7-4.6,7.4-2.6,11.3c0.4,0.9,1.1,1.7,1.9,2.3c0.4-1.1,0.9-2.2,1.3-3.2c-3.5-0.2-6.7,2-8.4,5
						c-1.9,3.3-1.7,7.2-0.2,10.6c3.3,7.3,11.6,10.1,18.8,11.6c4.8,1,9.6,1.5,14.5,1.6c2.4,0,2.4-3.8,0-3.8c-3.7,0-7.4-0.3-11.1-1
						c-3.5-0.6-7-1.4-10.3-2.7c-2.8-1.1-5.5-2.8-7.3-5.2c-0.9-1.2-1.5-2.5-1.8-3.9c-0.3-1.3-0.3-2.6,0.1-3.8
						c0.8-2.6,3.2-4.6,5.8-4.5c1.5,0.1,2.7-2.2,1.3-3.2c-0.7-0.5-1-0.9-1.4-1.7c-0.2-0.6-0.4-1.3-0.3-2.1c0-0.7,0.1-1.2,0.4-2
						c-0.1,0.3,0.2-0.4,0.2-0.3c0.1-0.2,0.2-0.4,0.4-0.6c0.3-0.4,0.6-0.7,0.9-1c2.7-2.5,6.9-2.9,10.4-2.1c4.3,0.9,8.1,3.2,11.7,5.6
						c3.4,2.3,6.6,4.9,9.6,7.8c3.2,2.9,6.3,5.9,10,8.2c3.2,2,6.9,3.5,10.8,2.6c3.4-0.8,6-3.3,8-6c2.3-3.1,3.9-6.6,5.8-9.9
						c1.1-1.9,2.2-3.8,3.7-5.4c1.4-1.5,3.2-3,5.2-3.3c1-0.1,1.8,0.1,2.5,0.5c0.5,0.3-0.2-0.2,0.2,0.2c0.2,0.2,0.4,0.4,0.6,0.5
						c0.4,0.5-0.1-0.1,0.1,0.2c0.1,0.2,0.3,0.4,0.4,0.6c0.9,1.5,1.2,3.2,1.1,5.1c-0.1,1.7,2.1,2.4,3.2,1.3c0.4-0.4,0.4-0.4,0.9-0.7
						c0,0,0.4-0.2,0.2-0.1c-0.2,0.1,0.1,0,0.1,0c0.3-0.1,0.5-0.2,0.8-0.2c0.3-0.1-0.3,0,0.1,0c0.1,0,0.2,0,0.3,0c0.3,0,0.5,0,0.8,0
						c0,0,0.4,0,0.1,0c0.1,0,0.3,0,0.4,0.1c0.3,0.1,0.5,0.1,0.8,0.2c0.7,0.2,1.6,0.7,2.2,1.2c0.7,0.7,1.2,1.4,1.5,2.5
						c1.5,4.7-1.3,9.5-4.8,12.6c-2.1,1.8-4.4,3.4-6.3,5.3C121.5,142.2,124.2,144.8,125.9,143.1L125.9,143.1z"/>
				</g>
			</g>
		</g>
		<g>
			<g>
				<path class="st3" d="M47.6,96.9c-1.7,0.8-3.6,1.3-5.5,1.4c-8,0.4-14.7-5.7-15.2-13.6c-0.4-8,5.7-14.7,13.6-15.2
					c3-0.2,5.8,0.6,8.2,2"/>
			</g>
			<g>
				<g>
					<path class="st4" d="M46.7,95.3c-1.8,0.9-3.9,1.3-5.9,1.2c-1.4-0.1-3.2-0.5-4.4-1c-3-1.4-5.3-3.6-6.6-6.7
						c-0.2-0.4-0.5-1.5-0.7-2.2c-0.2-0.9-0.3-1.5-0.3-2.6c0-1.7,0.2-3.1,0.9-4.7c1.1-2.8,3.4-5.3,6.2-6.7c1.5-0.7,3.5-1.2,5.2-1.2
						c2.4,0,4.6,0.6,6.7,1.8c2.1,1.2,4-2,1.9-3.3c-4.1-2.4-9.3-3-13.9-1.4c-3.9,1.4-7.2,4.3-9.1,8c-1.9,3.8-2.3,8.3-1,12.3
						c1.3,3.9,4,7.3,7.6,9.3c4.7,2.6,10.3,2.6,15.2,0.3c0.9-0.4,1.2-1.8,0.7-2.6C48.7,95,47.6,94.9,46.7,95.3L46.7,95.3z"/>
				</g>
			</g>
		</g>
		<g>
			<g>
				<path class="st3" d="M133.6,92.4c1.8,0.6,3.7,0.9,5.7,0.8c8-0.4,14.1-7.2,13.6-15.2s-7.2-14.1-15.2-13.6c-3,0.2-5.7,1.2-7.9,2.9
					"/>
			</g>
			<g>
				<g>
					<path class="st4" d="M133.1,94.2c4.5,1.6,9.5,1.1,13.6-1.3c3.5-2.1,6.2-5.5,7.4-9.4c1.2-4.1,0.7-8.6-1.2-12.3
						c-1.9-3.6-5.3-6.4-9.1-7.8c-5-1.7-10.7-0.8-14.9,2.3c-0.8,0.6-1.2,1.6-0.7,2.6c0.5,0.8,1.8,1.3,2.6,0.7
						c1.7-1.3,3.5-2.1,5.6-2.5c1.8-0.3,3.5-0.2,5.1,0.2c3.1,0.8,5.9,2.7,7.6,5.3c3.6,5.6,2.2,13.2-3.1,17c-3.4,2.4-7.6,3.1-11.8,1.6
						c-1-0.3-2.1,0.4-2.3,1.3C131.4,92.9,132.1,93.9,133.1,94.2L133.1,94.2z"/>
				</g>
			</g>
		</g>
		<g>
			<g>
				<circle class="st3" cx="89.9" cy="73.7" r="50.4"/>
			</g>
			<g>
				<g>
					<path class="st4" d="M138.3,71.1c0.5,10.2-2,20.1-7.5,28.7c-5.2,8.2-12.9,14.8-22,18.7c-9.1,3.9-19.9,4.9-29.6,2.7
						c-9.7-2.2-18.4-7.2-25.1-14.5c-3.3-3.6-6-7.6-8.2-12.2c-1-2.2-1.9-4.4-2.6-6.9c-0.4-1.2-0.7-2.5-0.9-3.8
						c-0.2-1.1-0.5-2.6-0.6-3.5c-0.7-5.1-0.5-10.5,0.4-15.4c0.9-5,2.5-9.6,4.9-13.9c4.7-8.7,11.8-15.8,20.5-20.3
						c4.4-2.3,9.2-3.9,14.2-4.8c2.4-0.4,5-0.6,7.6-0.7c1.3,0,2.6,0,3.9,0.1c1.3,0.1,2.5,0.2,3.6,0.4c4.9,0.7,9.8,2.3,14.1,4.4
						c4.5,2.2,8.4,4.9,11.9,8.2c7.3,6.8,12.3,15.6,14.4,25.4C137.9,66.3,138.2,68.5,138.3,71.1c0.1,1,0.8,1.9,1.9,1.9
						c1,0,2-0.9,1.9-1.9c-0.6-10.9-4.5-21.3-11.3-29.9c-6.5-8.2-15.6-14.4-25.6-17.5c-10.4-3.2-21.8-3-32.1,0.5
						c-10.1,3.5-19,10-25.3,18.6c-6.3,8.5-9.9,19-10.2,29.7c-0.3,10.8,2.9,21.7,9,30.6c6,8.8,14.5,15.6,24.4,19.4
						c10.1,4,21.5,4.6,32,1.9c10.2-2.6,19.6-8.4,26.5-16.5c7-8.2,11.4-18.3,12.5-29c0.3-2.6,0.3-5.3,0.2-7.9c-0.1-1-0.8-1.9-1.9-1.9
						C139.2,69.2,138.3,70,138.3,71.1z"/>
				</g>
			</g>
		</g>
		<g>
			<circle class="st8" cx="61.3" cy="87" r="10.5"/>
		</g>
		<g>
			<circle class="st8" cx="121" cy="83.8" r="10.5"/>
		</g>
		<g>
			<circle class="st4" cx="73.1" cy="73.4" r="4"/>
		</g>
		<g>
			<circle class="st4" cx="107.5" cy="71.1" r="4"/>
		</g>
		<g>
			<g>
				<path class="st4" d="M91.3,73.2c0.1-0.1,0.1-0.1,0.2-0.1c-0.2,0.1-0.3,0.1-0.5,0.2C91.2,73.2,91.2,73.2,91.3,73.2
					c-0.1,0-0.3,0.1-0.5,0.1c0.1,0,0.2,0,0.3,0c-0.2,0-0.3,0-0.5-0.1c0.1,0,0.2,0,0.3,0.1c-0.2-0.1-0.3-0.1-0.5-0.2
					c0.1,0,0.2,0.1,0.3,0.2c-0.1-0.1-0.3-0.2-0.4-0.3c0.1,0.1,0.2,0.2,0.3,0.3c-0.1-0.1-0.2-0.3-0.3-0.4c0.1,0.2,0.2,0.4,0.3,0.6
					c-0.1-0.2-0.1-0.3-0.2-0.5c0.2,0.5,0.3,1,0.4,1.6c0-0.2,0-0.3-0.1-0.5c0.1,0.5,0.1,1.1,0,1.6c0-0.2,0-0.3,0.1-0.5
					c-0.1,0.5-0.2,1.1-0.4,1.6c0.1-0.2,0.1-0.3,0.2-0.5c0,0.1-0.1,0.2-0.1,0.3c-0.2,0.5-0.3,0.9-0.2,1.5c0.1,0.4,0.5,0.9,0.9,1.1
					c0.8,0.4,2.1,0.3,2.6-0.7c0.8-1.8,1.1-3.8,0.6-5.7c-0.2-0.9-0.6-1.9-1.3-2.5c-1-0.9-2.6-1.2-3.8-0.4c-0.4,0.3-0.7,0.6-0.9,1.1
					c-0.1,0.5-0.1,1.1,0.2,1.5C89.2,73.3,90.4,73.8,91.3,73.2L91.3,73.2z"/>
			</g>
		</g>
		<g>
			<g>
				<path class="st2" d="M100.6,97.8c1.6-2.9,3.3-8.9,1.5-12.2c-1.2-2.2-5.7-1.5-7.6-1.5c-3.7,0-7.4,0.6-11,1.6
					c-1.1,0.3-2.2,0.7-3,1.6c-1.1,1.4-0.9,3.4-0.3,5.1c1.7,5,4.4,10,9.7,10.7C94.2,103.7,98.3,101.9,100.6,97.8z"/>
			</g>
			<g>
				<g>
					<path class="st4" d="M102.3,98.7c1.2-2.1,1.9-4.4,2.3-6.7c0.4-2.4,0.5-5.2-0.8-7.4c-1.2-2.2-4-2.5-6.2-2.5
						c-2.4,0-4.9,0.1-7.4,0.4c-1.7,0.2-3.3,0.5-5,0.8c-1.5,0.3-3,0.7-4.4,1.4c-2.9,1.5-3.4,4.8-2.6,7.7c0.6,2.4,1.7,4.9,3.1,6.9
						c1.4,2.1,3.2,3.9,5.5,4.9c2.6,1.1,5.8,1.2,8.6,0.3C98.3,103.5,100.7,101.4,102.3,98.7c1.2-2.1-2.1-4-3.3-1.9
						c-1,1.8-2.4,3.1-4.3,3.9c-1.5,0.6-3.6,0.8-5.2,0.4c-1.8-0.4-3-1.3-4.3-2.8c-0.5-0.6-1.1-1.5-1.5-2.3c-0.5-0.9-0.9-1.8-1.2-2.6
						c-0.3-0.9-0.8-2-0.9-2.9c-0.1-0.9,0-1.7,0.6-2.2c0.6-0.5,1.8-0.8,2.7-1c1.4-0.4,2.8-0.6,4.1-0.8c2.2-0.3,4.5-0.4,6.7-0.5
						c0.9,0,1.7-0.1,2.6,0c0.1,0,0.6,0.1,0.5,0c-0.1,0,0.4,0.1,0.5,0.1c0.2,0,0.3,0.1,0.5,0.1c0.1,0,0.3,0.2,0,0
						c0.1,0,0.2,0.1,0.3,0.2c0.1,0,0.3,0.2,0,0c0.1,0.1,0.2,0.1,0.2,0.2c-0.2-0.3,0.1,0.2,0.1,0.3c-0.1-0.3,0.1,0.4,0.1,0.4
						c0.1,0.2,0.1,0.4,0.2,0.7c0.1,0.3,0-0.2,0,0.1c0,0.1,0,0.3,0,0.4c0,0.3,0,0.6,0,0.9c0,0.5-0.1,1.2-0.1,1.6
						c-0.3,2-1,4.2-1.9,5.8C97.8,98.9,101.1,100.8,102.3,98.7z"/>
				</g>
			</g>
		</g>
		<g>
			<g>
				<path class="st9" d="M121.7,60.6c-7.1-2.4-13.7-6.3-19.2-11.4c-2.4,5.3-8.3,8.6-14.1,8.9c-5.9,0.2-11.6-2.3-16.2-5.9
					c-0.7,4.5-3.8,8.5-8,10.3c-4.3,1.9-8.9,1.1-12.9-1c-2.2,5.6-5.7,12.9-12.7,12.8c-7.9-0.1-7.5-10.6-7.3-16.5
					c0.3-7.7,2.5-15.2,6.3-21.9c1-1.7,14.3-16.3,14.6-15.4C50.8,16.2,53,11.1,57,9.1c4-2,9.4-0.6,12,3.1c3.1-2.9,6.5-5.9,10.6-6.3
					s8.9,3.3,7.8,7.4c18.4-3.7,40.1,3.5,49.8,20.4c1.7,3,3,6.2,5.1,8.9c1.2,1.5,2.6,2.8,3.6,4.5c3,4.8,1.9,14.6-3.8,17.2
					C136.4,66.7,127,62.5,121.7,60.6z"/>
			</g>
			<g>
				<g>
					<path class="st4" d="M122.2,58.8c-6.8-2.3-13.1-6.1-18.4-10.9c-0.8-0.8-2.4-0.8-3,0.4c-1.6,3.5-4.7,6-8.3,7.2
						c-4.1,1.3-8.4,0.8-12.5-0.8c-2.3-0.9-4.6-2.3-6.5-3.8c-0.5-0.4-1.1-0.7-1.8-0.5c-0.6,0.2-1.2,0.7-1.3,1.3
						c-0.6,3.6-2.7,6.8-6,8.6c-3.9,2.2-8.3,1.5-12.2-0.4c-1.2-0.6-2.3-0.1-2.8,1.1c-1,2.4-2.4,5.6-4.1,7.7c-0.5,0.6-1,1.1-1.5,1.6
						c-0.6,0.5-0.9,0.8-1.6,1.2c-0.7,0.4-0.9,0.5-1.7,0.7c-0.8,0.2-1.2,0.3-2.1,0.2c-0.2,0-0.4,0-0.5,0c0.4,0,0,0-0.1,0
						c-0.3-0.1-0.6-0.1-0.9-0.2c-0.1,0-0.5-0.2-0.1,0c-0.1-0.1-0.2-0.1-0.3-0.2c-0.1-0.1-0.2-0.1-0.3-0.2c-0.1-0.1-0.6-0.5-0.2-0.1
						c-0.2-0.2-0.4-0.3-0.5-0.5c-0.1-0.1-0.2-0.2-0.3-0.3c0.3,0.3,0,0-0.1-0.1c-0.1-0.2-0.3-0.4-0.4-0.6c-0.1-0.1-0.1-0.3-0.2-0.4
						c0-0.1-0.3-0.7-0.1-0.3c-0.5-1.2-0.8-2.5-0.9-3.7c0.1,0.4,0-0.4-0.1-0.5c0-0.3-0.1-0.7-0.1-1.1c0-0.7-0.1-1.4-0.1-2.1
						c-0.1-7.3,1.1-14.6,4.2-21.3c0.6-1.4,1.3-2.8,2.1-4c0.1-0.2,0.3-0.5,0,0c0.1-0.1,0.2-0.2,0.2-0.3c0.2-0.3,0.5-0.6,0.7-0.9
						c1.4-1.7,2.9-3.3,4.3-4.9c1.8-2,3.6-3.9,5.5-5.8c0.7-0.7,1.4-1.4,2.1-2.1c0.1-0.1,0.2-0.2,0.4-0.3c0.1,0,0.1-0.1,0.2-0.1
						c0.3-0.3-0.4,0.2-0.1,0.1c0.1,0,0.2-0.1,0.2-0.1c-0.4,0.4-2,0.2-2.4-0.7c0.4,0.9,1.6,1.1,2.4,0.8c0.8-0.4,1.4-1.3,1.1-2.2
						c-0.5-1.8-0.4-3.7,0.3-5.3c0.8-1.8,2-3.1,3.7-4c3-1.5,7.4-0.3,9.4,2.5c0.7,1,2,1.3,3,0.4c2.7-2.5,6.1-5.8,10-5.8
						c1.4,0,2.9,0.6,4,1.6c0.2,0.1,0.3,0.3,0.4,0.4c0,0,0.3,0.4,0.2,0.3c0.1,0.2,0.2,0.3,0.3,0.5c0,0,0.3,0.5,0.1,0.3
						c0.1,0.2,0.1,0.4,0.2,0.6c0,0.1,0.1,0.6,0.1,0.3c0,0.2,0,0.5,0,0.7c0,0.1,0,0.1,0,0c0,0.1-0.1,0.3-0.1,0.4
						c-0.4,1.5,0.9,2.6,2.3,2.3c13.7-2.7,29.4,0.8,40.1,10.2c2.7,2.4,5,5.1,6.9,8.1c1.2,1.9,2.1,3.9,3.2,5.8c1.1,2.1,2.4,4.1,4,5.9
						c0.7,0.8,1.4,1.5,2,2.4c0.2,0.3,0.4,0.7,0.6,1c0.1,0.1,0.1,0.3,0.2,0.4c0.1,0.2,0.1,0.2,0,0c0,0.1,0.1,0.2,0.1,0.3
						c0.2,0.7,0.4,1.3,0.5,2c0,0.2,0.1,0.4,0.1,0.5c-0.1-0.4,0,0.2,0,0.2c0,0.4,0.1,0.9,0.1,1.3c0,0.4,0,0.8,0,1.1
						c0,0.2,0,0.4,0,0.6c0,0-0.1,0.6,0,0.3c-0.1,0.8-0.3,1.6-0.6,2.4c-0.3,0.8-0.3,1-0.7,1.7c-0.4,0.8-0.7,1.1-1.2,1.6
						c-0.1,0.1-0.2,0.2-0.4,0.4c-0.1,0-0.6,0.5-0.3,0.3c-0.3,0.2-0.7,0.5-1,0.6c-0.3,0.2-0.4,0.2-0.9,0.4c-0.2,0.1-0.4,0.1-0.6,0.1
						c-0.1,0-0.8,0.1-0.5,0.1c-2,0.3-3.9,0-5.8-0.4C129.8,61.7,126,60.1,122.2,58.8c-1-0.3-2.1,0.4-2.3,1.3c-0.3,1,0.4,2,1.3,2.3
						c3.6,1.2,7.1,2.7,10.8,3.6c3.8,0.9,8.2,1.4,11.7-0.5c3-1.7,4.9-5.1,5.5-8.4c0.7-3.4,0.5-7.2-1.1-10.4c-1-2-2.8-3.6-4.2-5.3
						c-1.5-1.9-2.5-4-3.6-6.1c-1.9-3.7-4.2-7.1-7.1-10.2c-5.4-5.7-12.5-9.8-20-12.2c-7.6-2.4-15.7-3-23.5-1.9
						c-0.9,0.1-1.9,0.3-2.8,0.5c0.8,0.8,1.6,1.6,2.3,2.3c1.3-5.1-3.4-9.2-8.1-9.7c-5.3-0.6-10,3.5-13.6,6.8c1,0.1,2,0.3,3,0.4
						C68.2,7.9,64,5.9,59.9,6.4C55.4,6.9,52,9.9,50.5,14c-0.8,2.2-0.8,4.7-0.1,7c1.2-0.5,2.3-1,3.5-1.5c-0.5-1.2-2.1-1.1-3.1-0.5
						c-0.7,0.5-1.3,1-1.9,1.6c-1.7,1.6-3.4,3.4-5,5.1c-1.8,1.9-3.5,3.8-5.2,5.7c-1.2,1.4-2.4,2.8-3.3,4.4c-2.3,4.2-3.9,8.7-4.9,13.3
						c-0.8,3.8-1.1,7.8-1.2,11.7c0,5.4,0.6,13.4,7,15c4,1,8.2-0.7,10.9-3.6c2.7-2.9,4.4-6.6,5.8-10.3c-0.9,0.4-1.9,0.8-2.8,1.1
						c5,2.5,10.7,3.2,15.8,0.5c4.1-2.2,7.1-6.4,7.9-11c-1.1,0.3-2.1,0.6-3.2,0.8c4.3,3.4,9.2,5.8,14.6,6.4c4.7,0.5,9.7-0.7,13.6-3.6
						c2.2-1.6,4-3.7,5.1-6.1c-1,0.1-2,0.3-3,0.4c5.8,5.3,12.6,9.4,20.1,11.9c1,0.3,2.1-0.4,2.3-1.3
						C123.8,60.1,123.1,59.2,122.2,58.8z"/>
				</g>
			</g>
		</g>
		<g>
			<g>
				<path class="st4" d="M132.6,375.8c-2.8,0.2-5.4,0.9-7.9,2.1c-0.9,0.4-1.2,1.8-0.7,2.6c0.6,0.9,1.6,1.1,2.6,0.7
					c0.2-0.1,0.3-0.1,0.5-0.2c0.1,0,0.1-0.1,0.2-0.1c0.1-0.1,0.1,0-0.2,0.1c0.2-0.2,0.6-0.2,0.8-0.3c0.5-0.2,1.1-0.4,1.6-0.5
					c0.6-0.1,1.1-0.3,1.7-0.4c0,0,0.4-0.1,0.4-0.1c-0.3,0-0.3,0-0.1,0c0.1,0,0.2,0,0.3,0c0.3,0,0.6-0.1,0.9-0.1
					c1-0.1,1.9-0.8,1.9-1.9C134.5,376.7,133.7,375.7,132.6,375.8L132.6,375.8z"/>
			</g>
		</g>
		<g>
			<g>
				<path class="st4" d="M80.8,377.6c-4.4-1-9.1-0.8-13.4,0.6c-1,0.3-1.6,1.3-1.3,2.3c0.3,1,1.4,1.6,2.3,1.3
					c3.7-1.2,7.6-1.5,11.4-0.6c1,0.2,2.1-0.3,2.3-1.3C82.4,379,81.9,377.8,80.8,377.6L80.8,377.6z"/>
			</g>
		</g>
		<g>
			<g>
				<path class="st4" d="M206.2,126.2c1.6,1.7,2.9,3.6,4,5.8c0.4,0.9,0.8,2,1.1,3c0.3,1.2,0.5,2.2,0.6,3.2c0.1,1,0.8,1.9,1.9,1.9
					c1,0,2-0.9,1.9-1.9c-0.5-5.6-2.9-10.7-6.7-14.7c-0.7-0.7-2-0.7-2.7,0C205.5,124.2,205.5,125.4,206.2,126.2L206.2,126.2z"/>
			</g>
		</g>
	</g>
	<g>
		<g>
			<g>
				<path class="st3" d="M310.2,255.4c-2.8-0.2-6,1.7-6,4.5c-2.5-0.6-5.2,0.4-6.7,2.4c-1.5,2-1.7,4.9-0.5,7.1
					c-0.6-1.1-6.7,9.8-6,12.2c0.4,1.5,1.4,2.7,2.3,3.9c1.1,1.3,2.2,2.6,3.7,3.4c1.5,0.8,3.5,0.9,4.8-0.1c0.3-0.2,0.6-0.5,1-0.6
					c0.6-0.1,1.1,0.3,1.6,0.7c1.2,1,2.5,1.9,3.9,2.6c11.9,5.5,28.7-10.1,20.7-22C324.7,263.3,318.3,256,310.2,255.4z"/>
			</g>
			<g>
				<g>
					<path class="st4" d="M310.2,253.5c-3.8-0.2-7.7,2.4-7.9,6.4c0.8-0.6,1.6-1.2,2.4-1.8c-3.1-0.7-6.5,0.4-8.6,2.9
						c-2.1,2.7-2.4,6.4-0.8,9.4c1.1-0.6,2.2-1.3,3.3-1.9c-0.9-1.4-2.7-1.1-3.7,0c-0.8,0.9-1.5,2-2.1,3c-1.4,2.4-2.9,5.1-3.6,7.9
						c-0.4,1.6-0.3,3,0.5,4.5c0.6,1.1,1.4,2.1,2.2,3.1c0.7,0.9,1.5,1.8,2.4,2.5c2,1.6,4.6,2.6,7.1,1.7c0.3-0.1,0.7-0.3,1-0.5
						c0.1-0.1,0.9-0.5,0.9-0.6c0,0-0.5,0-0.5,0.1c0,0,0.6,0.5,0.7,0.5c1,0.8,2.1,1.6,3.2,2.2c6.6,3.4,14.3,1.2,19.7-3.5
						c5.3-4.6,8.3-12,5.5-18.7c-0.7-1.7-1.9-3.2-3-4.7c-1.3-1.8-2.7-3.5-4.3-5.1c-3.1-3.1-6.8-5.8-11-7
						C312.4,253.8,311.3,253.6,310.2,253.5c-1-0.1-1.9,0.9-1.9,1.9c0,1.1,0.9,1.8,1.9,1.9c3.4,0.3,6.8,2,9.5,4.3
						c2.9,2.4,5.3,5.3,7.4,8.4c0.4,0.7,0.9,1.3,1.2,2c0.1,0.2,0.2,0.3,0.2,0.5c-0.1-0.4,0.1,0.2,0.1,0.2c0.1,0.4,0.3,0.8,0.4,1.2
						c0.1,0.3,0.1,0.6,0.2,0.9c0.1,0.6,0-0.4,0,0.2c0,0.2,0,0.3,0,0.5c0,0.7,0,1.5-0.1,2.2c0.1-0.4,0,0.1,0,0.2
						c0,0.2-0.1,0.3-0.1,0.5c-0.1,0.3-0.2,0.7-0.3,1c-0.1,0.3-0.2,0.7-0.3,1c0,0.1-0.1,0.2-0.1,0.3c0.1-0.4-0.1,0.3-0.2,0.3
						c-0.3,0.6-0.6,1.3-1,1.9c-0.5,0.8-0.7,1.1-1.2,1.6c-0.5,0.6-1,1.1-1.5,1.6c-0.2,0.2-0.4,0.4-0.7,0.6c-0.1,0.1-0.3,0.2-0.4,0.4
						c-0.1,0.1-0.2,0.2-0.3,0.2c0.1-0.1,0.1-0.1-0.1,0c-1.2,0.9-2.5,1.7-3.9,2.3c0.4-0.2-0.2,0.1-0.2,0.1c-0.1,0.1-0.3,0.1-0.4,0.2
						c-0.3,0.1-0.6,0.2-0.9,0.3c-0.7,0.2-1.5,0.4-2.3,0.5c0.4-0.1-0.1,0-0.2,0c-0.2,0-0.3,0-0.5,0c-0.3,0-0.7,0-1,0
						c-0.3,0-0.7,0-1-0.1c0,0-0.6-0.1-0.2,0c-0.2,0-0.3-0.1-0.5-0.1c-1.9-0.4-3-0.9-4.6-1.9c-0.9-0.6-1.6-1.5-2.6-1.9
						c-0.5-0.3-1.1-0.4-1.7-0.4c-0.9,0-1.4,0.6-2.2,1c-1.3,0.8-3,0-4.2-1.1c-1.3-1.2-2.9-2.9-3.6-4.6c-0.1-0.2-0.1-0.4-0.2-0.6
						c-0.1-0.2,0,0.5,0,0.1c0-0.1,0-0.2,0-0.3c0-0.3-0.1,0.5,0,0c0.1-0.5,0.2-1,0.4-1.6c0.1-0.3,0.2-0.6,0.4-1
						c0.1-0.1,0.1-0.3,0.2-0.4c-0.2,0.4,0.1-0.2,0.1-0.3c0.3-0.7,0.6-1.4,1-2.1c0.6-1.2,1.3-2.4,2-3.6c0.2-0.2,0.3-0.5,0.5-0.7
						c0.1-0.1,0.1-0.2,0.2-0.3c-0.4,0.5-0.1,0.1,0,0c0,0,0.3-0.3,0.3-0.4c0,0.2-0.5,0.3-0.2,0.2c-0.8,0.4-1.8,0.2-2.3-0.7
						c1.3,2,4.4,0.3,3.3-1.9c-0.8-1.5-0.7-3.6,0.4-5c1.1-1.5,3.1-2.1,4.7-1.8c1.2,0.3,2.3-0.5,2.4-1.8c0-0.1,0-0.3,0-0.1
						c0-0.2,0.1-0.3,0.1-0.5c0,0,0.1-0.2,0.2-0.4c0.2-0.3,0.6-0.7,0.9-0.9c1-0.6,1.8-0.8,2.9-0.8c1,0.1,1.9-0.9,1.9-1.9
						C312,254.4,311.2,253.6,310.2,253.5z"/>
				</g>
			</g>
		</g>
		<g>
			<path class="st2" d="M305.6,280.5l-6.9,1.6c-2.1,0.5-3.2-1.5-1.7-3.2l4.7-5.4l33-20.5l4,7L305.6,280.5z"/>
			<path class="st4" d="M298.1,284.1c-1.3,0-2.5-0.6-3.2-1.7c-0.9-1.4-0.6-3.2,0.6-4.7l4.7-5.4c0.1-0.1,0.3-0.3,0.4-0.4l33-20.5
				c0.4-0.3,1-0.4,1.5-0.2c0.5,0.1,0.9,0.5,1.2,0.9l4,7c0.5,0.9,0.2,2-0.6,2.5l-33,20.5c-0.2,0.1-0.4,0.2-0.6,0.2l-6.9,1.6
				C298.8,284,298.5,284.1,298.1,284.1z M305.6,280.5L305.6,280.5L305.6,280.5z M302.9,275l-4.5,5.2c0,0,0,0-0.1,0.1l6.5-1.5
				l31.2-19.4l-2.1-3.7L302.9,275z"/>
		</g>
		<g>
			<g>
				<path class="st3" d="M329.5,276.8c0.2-4.3-3.4-8.4-7.6-8.7c-4.4-0.3-7.1,1.6-11.7,0.4c-2.2-0.6-4.6-1-6.6,0
					c-0.3,0.2-0.7,0.4-0.9,0.7c-0.3,0.3-0.4,0.8-0.4,1.2c-0.3,2.2,1.3,4.1,3.2,5.4c1.8,1.2,3.9,2,5.6,3.4c1.5,1.2,2.5,2.9,3.9,4.3
					c1.9,2.1,4.5,3.6,7.2,4.4"/>
			</g>
			<g>
				<g>
					<path class="st4" d="M331.4,276.8c0.2-4.4-2.7-8.4-6.7-10c-4.1-1.7-8.2,0.4-12.2,0.1c-1.1-0.1-2.1-0.4-3.2-0.7
						c-1.2-0.2-2.4-0.4-3.6-0.3c-1.3,0.1-2.6,0.5-3.6,1.3c-1.1,0.9-1.7,2.1-1.7,3.5c-0.1,2.4,1.4,4.6,3.2,6c1.8,1.5,4.1,2.2,6,3.7
						c2,1.5,3.2,3.8,5,5.4c2,1.8,4.4,3.1,7,3.9c2.3,0.7,3.4-3,1-3.7c-1.8-0.5-3.4-1.3-4.9-2.5c-1.5-1.2-2.7-2.9-4-4.3
						c-1.4-1.6-3.1-2.7-4.9-3.6c-1.5-0.8-3.3-1.7-4.2-3.2c-0.3-0.5-0.6-1.2-0.5-1.7c0.1-0.6,0.8-0.7,1.4-0.8
						c1.9-0.3,3.7,0.5,5.5,0.8c2,0.3,3.8,0.1,5.8-0.2c1.8-0.3,3.4-0.6,5.3-0.4c1.4,0.2,2.9,1.1,3.9,2.3c1.1,1.2,1.6,2.9,1.6,4.5
						c0,1,0.9,1.9,1.9,1.9C330.6,278.7,331.4,277.8,331.4,276.8L331.4,276.8z"/>
				</g>
			</g>
		</g>
		<g>
			<g>
				<path class="st2" d="M386.9,272.9c-4,9-14.6,14.6-24.3,12.9c-5.2-0.9-9.9-3.6-14-6.8c-6-4.5-12.9-10.5-19.9-7.9
					c-4.9,1.8-7.5,7.2-9,12.2c-1.6,5.1-2.6,10.6-1.5,15.9c1.8,8.7,8.9,15.1,15.7,20.8c5.8,4.8,11.8,9.6,18.8,12.3
					c16.4,6.2,35-0.2,49.4-10.1"/>
			</g>
			<g>
				<g>
					<path class="st4" d="M385.2,272c-2.3,5.2-6.9,9.2-12.2,11.1c-2.8,1-5.4,1.4-8.3,1.2c-3-0.2-6.3-1.3-9.1-2.8
						c-6.1-3.2-10.9-8.6-17.3-11.4c-3.2-1.4-6.7-1.9-10.1-0.8c-3.1,1.1-5.4,3.3-7.1,6c-1.7,2.7-2.8,5.7-3.6,8.7
						c-1,3.7-1.8,7.6-1.7,11.5c0.2,7,3.7,13.1,8.4,18.2c2.2,2.4,4.7,4.7,7.3,6.8c2.8,2.4,5.7,4.7,8.7,6.9c5.7,4.2,12.1,7.5,19.2,8.7
						c13.8,2.3,27.8-2.4,39.5-9.5c1.4-0.9,2.8-1.8,4.2-2.7c0.8-0.6,1.2-1.7,0.7-2.6c-0.5-0.8-1.7-1.3-2.6-0.7
						c-10.7,7.4-23.5,13-36.7,12.3c-6.7-0.3-12.9-2.6-18.5-6.1c-3-1.9-5.8-4-8.5-6.2c-2.5-2.1-5.1-4.2-7.4-6.4
						c-4.4-4.2-8.5-9-9.8-15.1c-0.8-3.5-0.5-7.2,0.3-10.7c0.7-3.1,1.5-6.3,2.9-9c1.2-2.5,2.8-4.7,5.2-6c2.5-1.3,5.4-1,8,0
						c3,1.2,5.7,3.2,8.3,5.1c2.8,2.1,5.4,4.2,8.5,5.9c5.8,3.2,12.3,4.6,18.8,3c5.8-1.4,11-4.9,14.4-9.8c0.8-1.2,1.5-2.4,2.1-3.7
						c0.4-0.9,0.3-2-0.7-2.6C387,270.8,385.7,271,385.2,272L385.2,272z"/>
				</g>
			</g>
		</g>
		<g>
			<g>
				<path class="st7" d="M424,426c0,0.2,0,0.4,0,0.6c0.4,4.7,1.3,9.5,3.4,13.7c2,4,4.9,6.4,8.4,9.1c3.3,2.5,7.2,3.5,10.5,5.9
					c3.7,2.8,7.7,7.5,12.9,6.9c3.9-0.4,6.6-4.3,7.1-8.1c0.4-3.9-0.9-7.7-2.5-11.2c-2.5-5.8-5.1-11.6-8.6-16.9
					c-2.7-4.1-5.2-7.8-9.6-10c-3.3-1.7-3.8-1.3-7,0.7c-2.6,1.6-5.4,2.9-8.3,3.9C426.9,421.7,423.8,421.5,424,426z"/>
			</g>
			<g>
				<g>
					<path class="st4" d="M422.1,426c0.3,5.4,1.4,10.9,4,15.7c1.1,2.1,2.6,4,4.4,5.6c1.7,1.6,3.6,3.2,5.7,4.5
						c2.1,1.3,4.4,2.3,6.6,3.4c2,1.1,3.5,2.3,5.2,3.8c3.5,2.9,7.6,5.9,12.4,4.9c4.7-1,7.6-5.9,7.9-10.4c0.4-5.6-2.4-11-4.6-15.9
						c-2.2-4.9-4.7-9.7-7.8-14.2c-2.7-4-5.8-7.6-10.3-9.6c-1-0.4-2-0.8-3.1-0.8c-1.1,0-2,0.4-3,0.9c-2.3,1.2-4.4,2.6-6.8,3.7
						c-1.9,0.8-3.9,1.4-5.8,2c-1.7,0.5-3.4,1.4-4.1,3.1C422.2,423.7,422.1,424.8,422.1,426c0,1,0.8,1.9,1.9,1.9c1,0,1.9-0.9,1.9-1.9
						c0-0.2,0-0.5,0-0.7c0-0.1,0.1-0.6,0-0.3c0-0.2,0.1-0.4,0.2-0.6c0.1-0.2,0,0,0,0.1c0-0.1,0.1-0.2,0.1-0.3
						c0.1-0.3-0.1,0.1,0.1-0.1c0.1-0.1,0.2-0.2,0.3-0.3c-0.2,0.2,0,0,0.1,0c0.2-0.1,0.4-0.2,0.5-0.3c-0.3,0.1,0,0,0.1,0
						c0.2-0.1,0.3-0.1,0.5-0.2c0.4-0.1,0.7-0.2,1.1-0.3c0.9-0.2,1.8-0.5,2.6-0.8c2.4-0.9,4.7-1.9,7-3.2c1-0.5,1.9-1.2,2.8-1.7
						c0.2-0.1,0.3-0.2,0.5-0.3c-0.3,0.1,0.2-0.1,0.3-0.1c0.1,0,0.5-0.1,0.3-0.1c-0.2,0,0.3,0,0.4,0c-0.3,0,0,0,0.2,0.1
						c0.2,0.1,0.4,0.1,0.6,0.2c0.4,0.2,0.9,0.4,1.4,0.7c0.9,0.5,1.7,1,2.5,1.6c1.5,1.3,2.8,2.8,4,4.4c2.8,3.9,5.2,8.1,7.3,12.4
						c1.1,2.3,2.1,4.6,3.1,6.9c1,2.2,1.9,4.5,2.3,6.9c0.4,2.2,0.4,4.2-0.4,6.2c-0.6,1.5-1.7,2.9-3.1,3.7c-1.4,0.8-3.1,0.7-4.8,0.1
						c-1.5-0.5-3.2-1.7-4.5-2.8c-1.6-1.3-3.1-2.7-4.8-3.9c-1.9-1.3-4-2.2-6-3.2c-3.7-1.8-7.2-4.5-9.8-7.8c-2.8-3.6-4.1-8.3-4.7-12.8
						c-0.2-1.1-0.3-2.3-0.3-3.5c-0.1-1-0.8-1.9-1.9-1.9C423,424.1,422,424.9,422.1,426z"/>
				</g>
			</g>
		</g>
		<g>
			<g>
				<path class="st10" d="M374.9,383.5c-16.5,0.7-31.4,0.7-46.2,9.4c-8.3,4.9-15.3,12.7-17.1,22.1c-1.8,9.6,2.4,19.7,9.1,26.9
					c6.7,7.2,15.7,11.8,24.8,15.2c17.8,6.7,37,9.5,56,8.2c2.6-0.2,5.4-0.5,7.5-2.1c8-6.1,4.8-18.8,9.6-26.7
					c4.8-7.9,15.2-10.1,21.1-17.1c5.7-6.7,7.3-16.7,3.9-24.8"/>
			</g>
			<g>
				<g>
					<path class="st4" d="M374.9,381.6c-10,0.4-20.1,0.6-29.9,2.9c-9.5,2.2-18.9,6.5-25.9,13.4c-6.7,6.6-10.8,15.7-9.5,25.2
						c1.3,9.9,7,18.6,14.7,24.7c8,6.4,17.7,10.4,27.4,13.5c10.5,3.3,21.4,5.3,32.3,6c5.4,0.3,10.9,0.3,16.3,0
						c2.5-0.2,5.1-0.3,7.4-1.2c2.2-0.9,3.9-2.4,5.3-4.3c4.7-6.3,3.4-14.9,6.1-22c0.2-0.5,0.2-0.5,0.4-1c0.2-0.4,0.4-0.8,0.6-1.2
						c0.5-0.9,1-1.5,1.6-2.2c1.3-1.5,2.8-2.7,4.4-3.8c3.4-2.4,7.1-4.2,10.4-6.7c3.6-2.7,6.6-6.2,8.4-10.4c1.9-4.3,2.7-9.1,2.1-13.8
						c-0.3-2.3-0.8-4.5-1.6-6.6c-0.4-0.9-1.3-1.6-2.3-1.3c-0.9,0.2-1.7,1.4-1.3,2.3c3.1,7.7,1.8,17.2-3.9,23.5
						c-5.3,5.9-13.7,8.2-19,14.3c-2.6,3-3.9,6.5-4.7,10.3c-0.7,3.7-1,7.4-1.9,11.1c-0.5,1.8-1,3.1-1.9,4.7c-0.8,1.3-2.1,2.8-3.7,3.5
						c-2,0.9-4.3,1-6.4,1.1c-2.6,0.2-5.3,0.2-7.9,0.2c-10.5,0-21-1.3-31.2-3.8c-9.6-2.4-19.2-5.6-27.8-10.6
						c-7.9-4.6-14.9-11.2-18.2-19.8c-1.6-4.2-2.4-8.7-1.7-13.2c0.6-4.1,2.3-7.9,4.7-11.4c5.2-7.3,13.4-12.2,21.7-15
						c9-3.1,18.4-3.8,27.8-4.2c2.4-0.1,4.9-0.2,7.3-0.3c1,0,1.9-0.8,1.9-1.9C376.7,382.5,375.9,381.5,374.9,381.6L374.9,381.6z"/>
				</g>
			</g>
		</g>
		<g>
			<g>
				<path class="st7" d="M405.6,440.1c0,0.2,0,0.4,0,0.6c-0.1,4.7,0.2,9.6,1.9,14c1.6,4.2,4.2,6.9,7.3,10c3,2.9,6.8,4.3,9.8,7.1
					c3.4,3.2,6.8,8.3,12.1,8.3c3.9,0,7.1-3.5,7.9-7.3c0.9-3.8-0.1-7.7-1.2-11.4c-1.8-6-3.8-12.1-6.7-17.8c-2.2-4.3-4.4-8.3-8.4-11
					c-3.1-2-3.7-1.7-7-0.1c-2.8,1.3-5.7,2.3-8.7,3C409,436.2,405.9,435.6,405.6,440.1z"/>
			</g>
			<g>
				<g>
					<path class="st4" d="M403.7,440.1c-0.3,5.5,0.3,11.2,2.4,16.2c1,2.2,2.3,4.2,3.9,6.1c1.6,1.8,3.4,3.6,5.3,5.1
						c1.9,1.5,4.1,2.6,6.1,4c1.7,1.2,3.1,2.7,4.5,4.2c2.9,3.1,6.6,6.3,11.1,6c4.8-0.3,8.5-4.5,9.4-9c1.2-5.7-1-11.4-2.7-16.7
						c-1.7-5.3-3.7-10.4-6.3-15.4c-2.2-4.3-5-8.2-9.3-10.6c-1.9-1.1-3.8-1.3-5.8-0.4c-2.5,1-4.9,2.2-7.4,3c-2,0.6-4.1,0.9-6.1,1.3
						c-1.7,0.3-3.4,1.2-4.3,2.8C404,437.9,403.8,439,403.7,440.1c-0.1,1,0.9,1.9,1.9,1.9c1.1,0,1.8-0.9,1.9-1.9c0-0.4,0-0.5,0.2-1
						c0-0.1,0.1-0.2,0.1-0.3c0.1-0.3-0.1,0.2,0,0c0.1-0.1,0.3-0.5,0.1-0.2c0.1-0.1,0.2-0.2,0.3-0.3c0.2-0.2-0.2,0.1,0.1,0
						c0.1-0.1,0.3-0.1,0.4-0.2c-0.4,0.2,0.1,0,0.3-0.1c1.5-0.5,3.1-0.6,4.6-0.9c2.6-0.6,5.1-1.5,7.5-2.5c0.9-0.4,2-1,2.8-1.3
						c0.2-0.1,0.4-0.1,0.5-0.2c0.1,0,0.6-0.2,0.4-0.1c-0.2,0,0.2,0,0.3,0c0.1,0,0.2,0,0.2,0c-0.2,0-0.2-0.1,0,0
						c0.7,0.3,1.5,0.7,2.3,1.3c0.8,0.6,1.6,1.2,2.3,1.9c1.4,1.4,2.5,3.1,3.5,4.8c2.4,4.2,4.3,8.6,5.9,13.1c0.8,2.4,1.6,4.9,2.4,7.3
						c0.7,2.4,1.4,4.8,1.5,7.3c0.1,2.2-0.2,4.3-1.3,6c-0.8,1.4-2.2,2.6-3.6,3.1c-1.6,0.5-3.2,0.1-4.6-0.6c-1.6-0.9-2.8-2-4.1-3.3
						c-1.3-1.3-2.6-2.8-4-4c-1.7-1.5-3.7-2.7-5.7-3.9c-3.5-2.2-6.7-5.3-8.9-8.7c-2.5-4-3.2-8.8-3.4-13.4c0-1.3,0-2.5,0-3.8
						c0-1-0.9-1.9-1.9-1.9C404.6,438.2,403.8,439.1,403.7,440.1z"/>
				</g>
			</g>
		</g>
		<g>
			<g>
				<path class="st2" d="M419.1,411.7c5.9-1.2,11.8-2.8,17.5-4.5c3.3-1,6.7-2,9.3-4.2c4.3-3.5,5.9-9.2,6.5-14.7
					c1.3-13.4-1.9-26.1-4.1-39.3c-3.3-19.5-4.9-45.7-17.3-61.9c-11.2-14.7-29.9-18.4-45.8-9c-10.2,6-16.9,15.7-19,27.3
					c-4.2,22.5-5.8,44.8-7.1,67.6c-0.2,3.4-0.4,6.9,0,10.3c2,15.3,16.7,26.6,31.9,29.4C400.3,414.4,409.7,413.6,419.1,411.7z"/>
			</g>
			<g>
				<g>
					<path class="st4" d="M419.6,413.5c3.7-0.8,7.4-1.7,11-2.7c3.5-1,7.1-1.9,10.5-3.2c3.2-1.2,6.1-2.8,8.2-5.5
						c2-2.5,3.3-5.5,4.1-8.6c1.7-6.9,1.4-14.4,0.6-21.4c-0.8-7.5-2.4-14.9-3.7-22.3c-2-11.7-3.2-23.6-5.8-35.3
						c-2.6-11.4-6.5-23.1-14.6-31.8c-7.7-8.4-19.1-13.1-30.5-11.7c-11.8,1.4-22.7,8.5-29.1,18.5c-3.3,5.1-5.2,10.8-6.3,16.7
						c-1.4,7.6-2.5,15.2-3.4,22.9c-1.8,15.1-2.8,30.3-3.6,45.5c-0.2,3.6-0.2,7.2,0.5,10.8c0.5,2.8,1.5,5.4,2.8,7.9
						c2.6,5.1,6.6,9.4,11.1,12.8c4.6,3.4,9.9,6,15.5,7.5c6.9,1.9,14.3,2.2,21.5,1.5C412.1,414.9,415.9,414.3,419.6,413.5
						c1-0.2,1.6-1.4,1.3-2.3c-0.3-1-1.3-1.5-2.3-1.3c-12.8,2.6-26.7,3.1-38.5-2.8c-9.4-4.7-17.3-12.8-19-23.4
						c-0.5-3.2-0.3-7-0.1-10.4c0.2-3.7,0.4-7.4,0.7-11.1c0.5-7.3,1-14.6,1.7-21.9c0.7-7.3,1.5-14.5,2.6-21.7c0.5-3.7,1.1-7.3,1.8-11
						c0.5-2.9,1.2-5.8,2.2-8.5c3.7-10.2,12.2-18.6,22.5-22.3c4.9-1.8,10.3-2.4,15.3-1.7c5.3,0.8,10,2.7,14.4,5.8
						c9,6.4,13.9,17,17,27.4c3.3,11.1,4.7,22.7,6.4,34.1c0.9,6.3,2.1,12.6,3.2,18.9c1.3,7,2.3,14.1,2.2,21.3
						c0,5.7-0.5,12.4-4.2,17.1c-1.9,2.4-4.5,3.8-7.4,4.8c-3.3,1.2-6.8,2.1-10.2,3c-3.5,0.9-6.9,1.8-10.4,2.5c-1,0.2-1.6,1.4-1.3,2.3
						C417.5,413.3,418.6,413.7,419.6,413.5z"/>
				</g>
			</g>
		</g>
		<g>
			<g>
				<path class="st3" d="M410.1,258.7c2.2,2.5,3.3,5.6,4.1,8.8c1,4,1.4,8.2-0.1,12c-2.4,6.3-9.5,9.6-16.2,10.3
					c-2.5,0.2-5.1,0.2-7.4-0.7c-3.9-1.6-6.6-5.4-7.9-9.4c-1.3-4-1.3-8.4-1.3-12.6"/>
			</g>
			<g>
				<g>
					<path class="st4" d="M408.8,260c1.5,1.7,2.4,3.8,3,5.9c0.7,2.4,1.3,4.9,1.3,7.4c0.1,2.3-0.3,4.7-1.3,6.6
						c-0.9,1.6-2.1,3.1-3.5,4.1c-3.2,2.4-7.2,3.6-10.9,3.9c-2.3,0.2-4.8,0.1-6.9-1c-1.7-0.9-3.2-2.3-4.2-3.9c-3.1-4.7-3-10.6-3.1-16
						c0-2.4-3.8-2.4-3.8,0c0,5.7,0.1,11.8,3,16.9c1.2,2.2,2.9,4.1,5,5.6c2.3,1.6,5.1,2.2,7.9,2.3c4.8,0.1,10-1.2,14-3.9
						c2-1.3,3.7-2.9,5.1-4.9c1.5-2.3,2.3-4.9,2.5-7.6c0.3-3.3-0.3-6.6-1.2-9.7c-0.9-3.1-2.2-6-4.2-8.4c-0.7-0.8-2-0.7-2.7,0
						C408,258.1,408.1,259.3,408.8,260L408.8,260z"/>
				</g>
			</g>
		</g>
		<g>
			<g>
				<circle class="st3" cx="390" cy="231" r="51.9"/>
			</g>
			<g>
				<g>
					<path class="st4" d="M336.3,231c0,11.1,3.5,22.1,9.9,31.1c6.3,8.9,15.2,15.7,25.5,19.4c10.5,3.9,22.3,4.3,33.1,1.2
						c10.4-2.9,19.9-9.1,26.8-17.5c7-8.6,11.3-19.1,12.2-30.2c0.9-11.1-1.8-22.4-7.6-31.9c-5.6-9.2-14-16.7-23.8-21.2
						c-10.3-4.7-22-6-33.1-3.7c-10.6,2.1-20.5,7.6-28,15.5c-7.5,7.9-12.6,18-14.3,28.8C336.5,225.4,336.3,228.2,336.3,231
						c0,2.4,3.8,2.4,3.8,0c0-5.4,0.8-10.3,2.4-15.5c1.5-4.8,3.8-9.3,6.8-13.5c5.7-8,14.2-14.5,23.4-17.9c10-3.6,20.8-4,30.9-1.2
						c5,1.4,9.4,3.4,13.8,6.3c4.1,2.7,7.9,6.1,11.1,10c6.4,7.7,10.5,17.7,11.2,27.8c0.8,10.5-1.6,20.9-7.1,29.9
						c-2.6,4.3-5.7,8.1-9.6,11.5c-3.7,3.3-8,6.1-12.6,8.2c-2.1,1-4.6,1.9-7.1,2.6c-2.5,0.7-5.2,1.2-7.5,1.5
						c-2.7,0.3-5.4,0.4-8.2,0.3c-2.7-0.1-5.1-0.4-7.7-0.9c-10.1-2.1-19.1-7.1-26.2-14.5c-7-7.4-11.7-16.7-13.3-26.9
						c-0.4-2.3-0.6-5.1-0.6-7.6C340,228.6,336.3,228.6,336.3,231z"/>
				</g>
			</g>
		</g>
		<g>
			<circle class="st4" cx="351" cy="230.8" r="4.1"/>
		</g>
		<g>
			<circle class="st8" cx="373.1" cy="249" r="12.1"/>
		</g>
		<g>
			<g>
				<path class="st3" d="M343.2,244.7c-2.1,0.1-4.2-0.6-5.7-2.1c-1.5-1.5-2.2-3.7-1.7-5.7c0.5-2,2.2-3.8,4.2-4.1"/>
			</g>
			<g>
				<g>
					<path class="st4" d="M343.2,242.8c-0.4,0-0.8,0-1.1,0c-0.6,0,0.3,0.1-0.2,0c-0.2,0-0.4-0.1-0.6-0.1c-0.2,0-0.4-0.1-0.5-0.2
						c0,0-0.5-0.2-0.3-0.1c0.1,0.1-0.3-0.2-0.4-0.2c-0.1-0.1-0.3-0.2-0.4-0.2c0,0-0.5-0.3-0.2-0.1c-0.1-0.1-0.3-0.2-0.4-0.4
						c-0.1-0.1-0.3-0.3-0.4-0.4c-0.4-0.4,0.1,0.3-0.2-0.2c-0.2-0.3-0.4-0.6-0.5-0.9c-0.1-0.1-0.1-0.1,0,0c0-0.1-0.1-0.2-0.1-0.3
						c-0.1-0.2-0.1-0.3-0.2-0.5c0-0.1-0.1-0.3-0.1-0.4c-0.1-0.4,0,0.2,0-0.2c0-0.2,0-0.4,0-0.5c0,0,0.1-0.6,0-0.2
						c0-0.3,0.1-0.7,0.3-1c-0.1,0.3,0,0,0-0.1c0.1-0.2,0.2-0.3,0.2-0.4c0.1-0.1,0.2-0.2,0.2-0.4c-0.2,0.3,0.1-0.1,0.1-0.1
						c0.1-0.1,0.2-0.2,0.4-0.4c0,0,0.5-0.3,0.1-0.1c0.3-0.2,0.6-0.4,0.9-0.5c-0.3,0.1-0.1,0,0.1,0c0.2-0.1,0.4-0.1,0.6-0.1
						c1-0.2,1.6-1.4,1.3-2.3c-0.3-1-1.3-1.5-2.3-1.3c-1.9,0.4-3.6,1.7-4.6,3.3c-1.1,1.7-1.3,3.8-0.9,5.8c1,4.2,5.1,6.8,9.2,6.6
						c1,0,1.9-0.8,1.9-1.9C345,243.7,344.3,242.8,343.2,242.8L343.2,242.8z"/>
				</g>
			</g>
		</g>
		<g>
			<g>
				<path class="st11" d="M347.7,181c-0.8,0.7-1.5,1.5-2.1,2.4c-3.2,4-4.9,9-6.4,13.9c-1.7,5.4-3.2,10.9-2.6,16.5
					c6.3,1.4,12.5,2.8,18.8,4.3c1.8-3.5,3.5-7,5.3-10.5c0.4,3.3,0.8,6.6,1.2,9.9c0.1,0.9,0.2,1.9,0.8,2.6c0.5,0.7,1.4,1,2.2,1.3
					c3.5,1.3,7.2,2.2,10.8,2.8c0.8,0.1,1.7,0.2,2.3-0.3c0.6-0.4,0.8-1.1,0.9-1.8c0.5-1.9,1-3.9,1.5-5.8c2.2,2.9,1.1,7.4,3.6,10
					c0.7,0.8,1.7,1.2,2.7,1.7c4.5,2.2,11,3.5,12,8.7c0.7,3.6-0.6,7.5-0.4,11.2c0.4,8.1,7.7,14.9,14.7,18.2
					c6.6,3.1,18.8,4.7,25.1-0.4c3.6-2.9,2-4,2.5-7.7c0.6-4.1,1.6-5,4.4-8.4c19.8-25.3,7.7-71.1-24.9-78.9c-7.4-1.8-15-0.6-22.2-2.1
					c-7.7-1.6-14.9-2.9-22.7-1.2c-6.6,1.4-13,4.1-18.9,7.5C353.2,176.6,350.2,178.5,347.7,181z"/>
			</g>
			<g>
				<g>
					<path class="st4" d="M346.4,179.6c-4.3,4.3-6.7,9.8-8.5,15.5c-1.9,6-3.9,12.3-3.2,18.7c0.1,0.8,0.5,1.6,1.4,1.8
						c6.3,1.4,12.5,2.8,18.8,4.3c0.8,0.2,1.8-0.1,2.1-0.9c1.8-3.5,3.5-7,5.3-10.5c-1.2-0.3-2.4-0.6-3.5-1c0.3,2.8,0.7,5.7,1,8.5
						c0.2,1.3,0.2,2.7,0.7,3.9c0.5,1.3,1.5,2.2,2.8,2.8c2.5,1.1,5.1,1.8,7.8,2.4c1.3,0.3,2.6,0.6,3.9,0.8c1.4,0.2,2.9,0.4,4.1-0.4
						c1.3-0.9,1.7-2.4,2-3.9c0.4-1.6,0.8-3.3,1.2-4.9c-1.2,0.2-2.3,0.3-3.5,0.5c0.7,0.9,0.9,1.7,1.2,2.9c0.2,1.2,0.4,2.3,0.7,3.5
						c0.3,1.3,0.9,2.6,1.7,3.6c0.9,1.1,2.2,1.8,3.5,2.5c1,0.5,2.1,0.9,3.2,1.4c1.1,0.4,1.7,0.7,2.8,1.2c1,0.5,2,1,2.8,1.6
						c0,0,0.2,0.2,0.1,0.1c-0.2-0.1,0.1,0.1,0.2,0.1c0.2,0.2,0.4,0.3,0.5,0.5c0.5,0.5,0.5,0.5,0.8,1c0.5,0.8,0.7,1.7,0.8,2.8
						c0.1,1.5-0.1,3.1-0.3,4.6c-0.3,2.9-0.5,5.7,0.3,8.6c1.4,5.2,5.2,9.5,9.4,12.7c3.8,2.9,8.1,4.8,12.7,5.7c4.7,1,9.8,1.3,14.5-0.1
						c2.3-0.6,4.4-1.7,6.2-3.3c1.7-1.5,2.6-3.2,2.6-5.5c0-2.1,0-3.9,0.8-5.9c0.1-0.3-0.1,0.2,0,0c0.1-0.1,0.1-0.2,0.2-0.3
						c0.1-0.2,0.2-0.4,0.3-0.5c0.3-0.4,0.6-0.9,0.9-1.3c0.2-0.3,0.5-0.7,0.9-1.1c0.5-0.6,0.9-1.2,1.4-1.8c4.7-6.2,7.7-13.7,8.9-21.4
						c1.3-7.9,0.8-16.1-1.2-23.9c-2-7.7-5.6-15.1-10.6-21.2c-5-6.1-11.5-10.9-19-13.6c-5.3-1.9-10.8-2.3-16.3-2.5
						c-3.1-0.1-6.3-0.2-9.4-0.7c-3.2-0.6-6.4-1.3-9.6-1.7c-3.1-0.4-6.2-0.6-9.4-0.4c-3.2,0.2-6.4,0.9-9.5,1.8
						c-6,1.7-11.7,4.4-17,7.6C351.1,175.7,348.6,177.5,346.4,179.6c-1.8,1.7,0.9,4.4,2.7,2.7c4.2-4.1,9.6-6.9,14.9-9.3
						c5.4-2.4,11.2-4.2,17.1-4.5c3-0.1,5.9,0.1,8.9,0.5c3.1,0.5,6.1,1.2,9.2,1.7c6.1,0.9,12.4,0.3,18.6,1.4c2.1,0.4,4.2,1,6.2,1.7
						c0.5,0.2,0.9,0.3,1.4,0.5c0.1,0,0.2,0.1,0.3,0.1c0.3,0.1-0.2-0.1,0,0c0.2,0.1,0.5,0.2,0.7,0.3c0.8,0.4,1.7,0.8,2.5,1.2
						c1.6,0.9,3.2,1.9,4.7,3c0.2,0.1,0.3,0.2,0.5,0.4c0.2,0.2-0.2-0.2,0,0c0.1,0.1,0.1,0.1,0.2,0.2c0.4,0.3,0.8,0.6,1.2,1
						c0.7,0.6,1.4,1.2,2,1.9c1.3,1.3,2.6,2.6,3.7,4.1c0.1,0.2,0.3,0.4,0.4,0.6c0,0,0.2,0.3,0,0c0.1,0.1,0.1,0.1,0.2,0.2
						c0.3,0.4,0.6,0.8,0.9,1.2c0.5,0.8,1.1,1.5,1.5,2.3c1,1.6,1.9,3.2,2.7,4.9c0.4,0.8,0.8,1.7,1.2,2.6c0.1,0.3,0.1,0.1,0,0
						c0,0.1,0.1,0.2,0.1,0.3c0.1,0.2,0.2,0.4,0.3,0.7c0.2,0.5,0.3,0.9,0.5,1.4c1.3,3.6,2.2,7.3,2.8,11.1c0,0.2,0.1,0.4,0.1,0.6
						c0.1,0.4,0,0.1,0,0c0,0.1,0,0.2,0,0.4c0.1,0.5,0.1,1,0.2,1.5c0.1,0.9,0.2,1.9,0.2,2.8c0.1,1.9,0.1,3.8,0,5.7
						c-0.4,7.2-2.3,14.5-6,20.8c-0.9,1.6-2,3.2-3.1,4.6c0.2-0.3-0.4,0.5-0.4,0.5c-0.2,0.2-0.4,0.4-0.5,0.7c-0.4,0.5-0.8,1-1.2,1.6
						c-0.6,0.7-1.1,1.5-1.5,2.3c-1,2.1-1.4,4.5-1.3,6.8c0,0.4,0,0.8,0,1.1c0,0.2,0,0.4,0,0.6c0,0,0,0.3,0,0c0-0.3,0,0.1,0,0.1
						c0,0.1-0.2,0.6,0,0.2c-0.1,0.2-0.2,0.3-0.3,0.5c0,0-0.2,0.3-0.1,0.2c0.1-0.2-0.1,0.1-0.1,0.2c-0.2,0.2-0.5,0.5-0.7,0.7
						c-1.4,1.2-3.2,2.1-5.1,2.6c-2.1,0.5-4.1,0.7-6.4,0.6c-2.4-0.1-4.3-0.3-6.6-0.9c-1-0.2-2.1-0.5-3.1-0.9
						c-0.5-0.2-0.9-0.3-1.4-0.5c0,0-0.4-0.2-0.2-0.1c0.2,0.1-0.1,0-0.1,0c-0.3-0.1-0.5-0.2-0.8-0.4c-4.3-2-8.2-5.1-10.8-9.1
						c-1.3-2-2.2-4.1-2.5-6.4c-0.4-2.7,0.3-5.7,0.5-8.5c0.2-2.7-0.2-5.4-2-7.6c-1.3-1.6-3.2-2.8-5-3.7c-1-0.5-2.1-0.9-3.2-1.4
						c-0.5-0.2-0.9-0.4-1.4-0.6c-0.4-0.2-0.2-0.1-0.1,0c-0.1-0.1-0.2-0.1-0.4-0.2c-0.2-0.1-0.5-0.2-0.7-0.3
						c-0.6-0.3-1.2-0.6-1.8-0.9c-0.2-0.1-0.4-0.2-0.6-0.4c-0.1-0.1-0.2-0.2-0.4-0.4c0,0-0.3-0.3-0.2-0.2c-0.6-0.8-0.8-1.7-1-2.8
						c-0.4-2.2-0.6-4.6-2-6.5c-0.5-0.6-1.1-1-1.9-0.9c-0.7,0.1-1.4,0.6-1.6,1.4c-0.4,1.5-0.8,3.1-1.2,4.6c-0.2,0.6-0.4,1.4-0.5,1.9
						c0,0.1-0.2,0.2-0.1,0.2c0.1-0.1-0.4,0-0.5,0c-1.3-0.1-2.7-0.5-4-0.8c-1.4-0.3-2.8-0.7-4.1-1.1c-1.2-0.4-2.5-0.7-3.6-1.2
						c-0.9-0.5-0.9-1.4-1-2.4c-0.4-3.1-0.7-6.2-1.1-9.3c-0.1-0.8-0.5-1.6-1.4-1.8c-0.8-0.2-1.8,0.1-2.1,0.9c-1.8,3.5-3.5,7-5.3,10.5
						c0.7-0.3,1.4-0.6,2.1-0.9c-6.3-1.4-12.5-2.8-18.8-4.3c0.5,0.6,0.9,1.2,1.4,1.8c-0.7-6,1.1-11.8,3-17.4
						c1.7-5.2,3.7-10.2,7.6-14.1C350.8,180.6,348.1,177.9,346.4,179.6z"/>
				</g>
			</g>
		</g>
		<g>
			<g>
				<path class="st3" d="M394.6,256.3c1.8,0.8,3.7,1.2,5.8,1.2c8.2,0,14.8-6.6,14.8-14.8c0-8.2-6.6-14.8-14.8-14.8
					c-3.1,0-5.9,0.9-8.3,2.5"/>
			</g>
			<g>
				<g>
					<path class="st4" d="M394.1,258.1c4.5,1.8,9.7,1.6,14-0.6c3.8-1.9,6.6-5.3,8.1-9.3c3-8.3-1.3-17.7-9.4-21
						c-5.1-2.1-11.1-1.5-15.7,1.5c-0.9,0.6-1.2,1.7-0.7,2.6c0.5,0.8,1.7,1.2,2.6,0.7c3.4-2.3,7.5-2.8,11.2-1.7
						c3.1,0.9,5.7,3.1,7.4,5.9c3.4,5.9,1.4,13.7-4.3,17.3c-3.6,2.3-8,2.6-12.2,0.9c-0.9-0.4-2.1,0.4-2.3,1.3
						C392.4,256.9,393.1,257.7,394.1,258.1L394.1,258.1z"/>
				</g>
			</g>
		</g>
		<g>
			<g>
				<path class="st3" d="M317,420.3c4.7-1.1,12-0.1,15.4-4.2c3.7-4.5,6.4-11.9,3.5-17.4c-1.3-2.5-3.5-3.6-5.4-5.6
					c-3-3.1-5.1-6.2-9.1-8.2c-1.8-0.9-4-1.7-5.9-0.9c-2.3,0.9-3.5,3.4-5.6,4.7c-3.8,2.3-11.6,2.4-11.2,8.7c0.2,2.1,2.2,4.1,4.3,3.7
					c-1.7,0.9-2.7,2.9-2.3,4.8s2.2,3.3,4.1,3.4c-0.9,1.3-0.9,3.1-0.1,4.4c0.9,1.3,2.6,2,4.1,1.7c0.1,1.9,0.3,4,1.9,5.1
					C312.5,421.6,314.9,420.8,317,420.3z"/>
			</g>
			<g>
				<g>
					<path class="st4" d="M317.5,422.1c1.5-0.3,2.4-0.4,4-0.5c1.7-0.1,3.3-0.3,5-0.6c1.5-0.3,3-0.7,4.4-1.4c1.5-0.8,2.7-1.9,3.7-3.3
						c4.2-5.6,6.6-14.5,1.8-20.5c-1.1-1.3-2.5-2.3-3.7-3.4c-1.4-1.2-2.5-2.7-3.8-4c-2.6-2.8-5.9-5.7-9.8-6.5c-2-0.4-4.1-0.2-5.8,0.9
						c-1.4,1-2.5,2.4-3.7,3.6c-0.4,0.3-0.8,0.6-1.3,0.8c-0.1,0.1-0.9,0.4-0.5,0.2c-0.3,0.1-0.6,0.2-0.9,0.3
						c-1.1,0.4-2.2,0.7-3.3,1.2c-2.8,1.1-5.6,2.6-6.5,5.7c-1.2,4.2,1.9,8.8,6.5,8.1c-0.5-1.2-1-2.3-1.5-3.5
						c-2.4,1.3-3.7,4.2-3.1,6.9c0.6,2.7,3.2,4.6,5.9,4.8c-0.5-1-1.1-1.9-1.6-2.9c-1.3,1.9-1.3,4.6,0.1,6.5c1.4,2,3.8,2.8,6.1,2.3
						c-0.8-0.6-1.6-1.2-2.4-1.8c0.1,2.5,0.6,5.2,2.8,6.8C312.1,423.5,315,422.7,317.5,422.1c2.4-0.6,1.4-4.2-1-3.7
						c-1.3,0.3-3.4,1.1-4.6,0.4c-0.5-0.3-0.7-0.8-0.8-1.4c-0.2-0.8-0.2-1.4-0.3-2.2c-0.1-1.3-1.2-2.1-2.4-1.8
						c-0.6,0.1-1.5-0.2-1.9-0.8c-0.6-0.8-0.5-1.7,0.1-2.5c0.8-1.3-0.3-2.8-1.6-2.9c-2.4-0.2-3-3.5-0.8-4.7c0.8-0.5,1.1-1.5,0.8-2.4
						c-0.4-0.9-1.3-1.3-2.2-1.1c0.2,0-0.2,0-0.3,0c-0.3,0,0.3,0.1-0.2-0.1c-0.2-0.1-0.3-0.1-0.5-0.3c-0.4-0.3-0.8-0.8-0.9-1.4
						c-0.1-0.2-0.1-0.2-0.1-0.5c0-0.2,0-0.3,0-0.5c0-0.1,0.1-0.5,0-0.1c0-0.2,0.1-0.5,0.2-0.7c0-0.1,0.2-0.4,0-0.1
						c0.1-0.1,0.1-0.3,0.2-0.4c0.1-0.1,0.4-0.6,0.3-0.4c-0.2,0.2,0.1-0.1,0.1-0.1c0.1-0.1,0.1-0.1,0.2-0.2c0.1-0.1,0.7-0.5,0.3-0.3
						c0.2-0.1,0.4-0.3,0.6-0.4c0.4-0.3,0.9-0.5,1.4-0.7c0.1,0,0.4-0.2,0.1,0c0.1,0,0.2-0.1,0.3-0.1c0.3-0.1,0.6-0.2,0.9-0.4
						c2-0.7,4.2-1.2,6-2.5c1.3-0.9,2.3-2.2,3.4-3.3c0.5-0.5,0.8-0.7,1.4-1c0.4-0.2,1.2-0.3,1.8-0.2c3.2,0.5,5.9,3,8,5.2
						c1.1,1.2,2.2,2.4,3.3,3.6c1.1,1.1,2.3,2,3.4,3.1c4.5,4.2,2.5,11.2-0.5,15.8c-0.4,0.7-0.8,1.2-1.3,1.8c-0.5,0.6-0.7,0.7-1.4,1.1
						c-1.1,0.6-2.4,1-3.9,1.2c-1.3,0.2-2.9,0.3-4.4,0.5c-1.5,0.1-3.1,0.3-4.6,0.6c-1,0.2-1.6,1.4-1.3,2.3
						C315.5,421.8,316.5,422.3,317.5,422.1z"/>
				</g>
			</g>
		</g>
		<g>
			<g>
				<path class="st2" d="M390.4,302.3c-6.4-3.3-14.6-1.8-20.4,2.3c-5.9,4.2-9.8,10.6-12.7,17.2s-4.8,13.6-7.6,20.3
					c-4.6,10.9-12,20.9-19.6,29.7c-8,9.2-11.4,17-4.3,28.6c2.6,4.4,6.2,8.6,11.1,10c5.1,1.4,10.5-0.7,15.2-3.2
					c17.9-9.6,33.7-26.6,42.4-44.9"/>
			</g>
			<g>
				<g>
					<path class="st4" d="M391.4,300.7c-6.8-3.5-15.2-2.3-21.5,1.8c-6.3,4.1-10.6,10.5-13.7,17.3c-3.5,7.8-5.6,16.2-9.2,24
						c-3.4,7.3-7.9,14.1-13,20.5c-4.6,5.8-10.3,11.1-12.8,18.1c-1.1,3.1-1.3,6.4-0.8,9.6c0.6,3.7,2.3,7.2,4.3,10.3
						c2,3.1,4.3,6,7.4,8c3.4,2.3,7.5,2.9,11.5,2.2c4-0.7,7.8-2.6,11.3-4.6c3.2-1.8,6.2-3.8,9.2-6c12.1-9,22.5-20.6,29.8-33.9
						c0.8-1.5,1.7-3.1,2.4-4.7c0.4-0.9,0.3-2-0.7-2.6c-0.8-0.5-2.2-0.2-2.6,0.7c-6.1,12.9-15.2,24.3-26.1,33.5
						c-5.4,4.5-11.3,8.7-17.7,11.7c-3.2,1.5-6.9,2.8-10.5,2.2c-3.3-0.5-5.9-2.5-8-5c-2.2-2.5-4.1-5.6-5.4-8.8
						c-0.6-1.5-1-3.1-1.3-4.6c0,0.3,0-0.4,0-0.4c0-0.1,0-0.3,0-0.4c0-0.4,0-0.7,0-1.1c0-0.3,0-0.7,0-1c0-0.2,0-0.4,0.1-0.6
						c0-0.4,0,0.1,0-0.3c1-6.4,5.7-11.3,9.8-16.2c5.1-6.1,9.8-12.5,13.7-19.4c1.9-3.5,3.6-7.1,5.1-10.8c1.5-3.9,2.8-7.9,4.3-11.9
						c2.4-6.7,5.4-13.6,10.5-18.8c4.6-4.7,11.1-7.9,17.7-6.9c1.5,0.2,3,0.7,4.4,1.4c0.9,0.5,2.1,0.2,2.6-0.7
						C392.5,302.5,392.3,301.2,391.4,300.7L391.4,300.7z"/>
				</g>
			</g>
		</g>
		<g>
			<g>
				<path class="st11" d="M432.6,194.7c-2.9-10.5,5.4-22.1,15.9-24.5c10.5-2.4,21.8,3.2,28.3,11.9s8.8,20.1,8.6,31
					c-0.1,7.3-1.3,14.7,0,21.9c1.4,8.4,6.2,16.1,13,21c-6.7,4-15.1,3.1-22.6,0.8c-16.7-5.1-31.8-17.4-37.5-34"/>
			</g>
			<g>
				<g>
					<path class="st4" d="M434.4,194.2c-1-3.6-0.5-7.5,1.1-10.9c1.7-3.6,4.3-6.6,7.6-8.7c7.2-4.6,16.4-3.5,23.7,0.9
						c8,4.8,12.9,13.1,15.2,22.1c1.2,4.7,1.7,9.6,1.7,14.5c0,5.7-0.8,11.4-0.6,17.1c0.1,5.2,1.2,10.2,3.4,15c2,4.2,4.8,8.1,8.3,11.2
						c0.9,0.8,1.9,1.6,2.9,2.3c0-1.1,0-2.2,0-3.3c-4.3,2.5-9.4,2.9-14.2,2.2c-4.8-0.7-9.6-2.3-13.9-4.2c-8.5-3.8-16.1-9.4-21.9-16.8
						c-3.1-3.9-5.7-8.6-7.3-13.3c-0.3-1-1.3-1.6-2.3-1.3c-0.9,0.3-1.7,1.4-1.3,2.3c3.3,9.4,9.4,17.6,17.1,23.8
						c3.9,3.2,8.2,5.9,12.7,8c4.7,2.2,9.6,4,14.7,4.9c6.2,1.1,12.8,0.9,18.3-2.4c1.3-0.8,1.1-2.5,0-3.3c-7.8-5.8-12.2-15-12.6-24.6
						c-0.2-5.9,0.6-11.7,0.6-17.6c0-5.2-0.5-10.4-1.7-15.4c-2.4-9.7-7.7-18.7-16.2-24.2c-7.8-5-18.2-6.7-26.7-2.2
						c-7.6,4-13.3,12.7-12.5,21.4c0.1,1.1,0.3,2.3,0.6,3.4C431.4,197.5,435.1,196.5,434.4,194.2L434.4,194.2z"/>
				</g>
			</g>
		</g>
		<g>
			<g>
				<path class="st4" d="M341.6,427.7c11.1,4.4,22.2,8.7,34.1,10.3c10.5,1.4,21.3,1.1,31.8-0.6c5.5-0.9,11-2.3,16.2-4.5
					c0.9-0.4,1.6-1.3,1.3-2.3c-0.2-0.9-1.4-1.7-2.3-1.3c-9.3,3.9-19.5,5.4-29.6,5.8c-10.6,0.4-21-0.8-31.1-3.8
					c-6.6-2-13-4.6-19.4-7.1c-1-0.4-2.1,0.4-2.3,1.3C340,426.5,340.6,427.4,341.6,427.7L341.6,427.7z"/>
			</g>
		</g>
		<g>
			<g>
				<path class="st4" d="M348.4,250c5.2,3.3,12.6,2.4,16.8-2.2c0.7-0.8,0.7-1.9,0-2.7c-0.7-0.7-2-0.8-2.7,0c-0.9,0.9-1.5,1.5-2.7,2
					c-0.1,0.1-0.3,0.1-0.5,0.2c0.2-0.1,0,0-0.1,0c-0.3,0.1-0.6,0.2-0.9,0.3c-0.3,0.1-0.6,0.2-0.9,0.2c-0.2,0-0.3,0.1-0.5,0.1
					c0,0-0.5,0.1-0.2,0c-0.6,0.1-1.2,0.1-1.8,0.1c-0.3,0-0.6,0-0.9-0.1c-0.4,0,0.4,0.1-0.2,0c-0.1,0-0.3,0-0.4-0.1
					c-0.6-0.1-1.2-0.3-1.8-0.5c-0.3-0.1,0.2,0.1-0.1,0c-0.2-0.1-0.3-0.1-0.5-0.2c-0.3-0.2-0.6-0.3-0.9-0.5c-0.9-0.6-2.1-0.2-2.6,0.7
					C347.2,248.4,347.5,249.5,348.4,250L348.4,250z"/>
			</g>
		</g>
	</g>
</g>
</svg>
