<svg width="56" height="30" viewBox="0 0 56 30" fill="none" xmlns="http://www.w3.org/2000/svg">
<g clip-path="url(#clip0_183:14630)">
<path d="M28.4207 20.0002C28.4207 20.8002 30.2276 25.3336 31.1311 27.5002C30.9504 27.6668 31.5648 28.1 35.4678 28.5C39.3707 28.9 38.9009 26 38.1781 24.5C38.7202 24.1667 40.238 23.5 41.9727 23.5C44.141 27.5 46.3093 28 50.1038 27C53.8984 26 53.8984 24 53.3563 23.5C52.8142 23 49.5617 21.5 48.4776 20.0002C56.6087 15.0005 53.3563 11 52.2721 9C48.3692 1.8 37.9974 3.33333 33.2994 5C33.2994 4.66675 33.0826 3.70024 32.2153 2.50024C31.1311 1.00024 25.7103 4.50024 24.6262 5.50024C23.542 6.50024 24.0841 9.50024 24.6262 10.5002C25.1683 11.5002 28.4207 19.0002 28.4207 20.0002Z" fill="#00CDB6"/>
<path d="M35.5178 29.3222C34.0412 29.4187 32.0245 29.3705 30.8039 28.5934C29.3216 27.6501 28.73 24.4689 28.5092 22.6565C28.4126 22.2859 28.3103 21.8181 28.2054 21.3377C27.8613 19.7626 27.5054 18.1339 26.7119 16.5411C23.9725 11.0428 21.8088 6.69981 25.032 4.53178L25.4153 4.26788C27.2594 2.99681 29.3495 1.55556 30.9688 1.44979C32.0221 1.38499 33.2554 1.79221 33.7701 2.84099C33.893 3.02754 33.996 3.37011 34.1044 3.80211C35.638 3.38771 37.2156 3.13016 38.8091 3.03403L39.192 3.01169C49.1431 2.79993 52.0445 6.10324 53.5745 9.36238C54.1225 10.6909 54.4556 11.899 54.3441 13.5756C54.2033 15.6908 52.8658 17.4183 52.4592 17.8975C51.8287 18.7667 50.9297 19.6035 49.8003 20.3669C50.7243 21.3133 51.5447 21.705 52.2733 22.0524C52.8418 22.3235 53.3788 22.5797 53.7928 23.0401C54.0155 23.2906 54.1706 23.5871 54.2451 23.9049C54.3195 24.2226 54.3112 24.5524 54.2207 24.8665C53.9346 25.978 52.7984 27.0023 51.1023 27.6769C49.793 28.1625 48.686 28.4265 47.6998 28.491C46.0338 28.5998 44.9873 28.1083 44.1833 27.6129C43.2735 27.0524 42.3531 25.7579 41.6809 24.8127C41.515 24.5794 41.3181 24.3022 41.1939 24.146C41.0522 24.1287 40.9089 24.126 40.7666 24.1377C40.1427 24.199 39.5314 24.3425 38.9508 24.5637C39.2096 25.8365 39.2649 26.7651 39.1126 27.3591C38.8575 28.3546 37.7749 29.0396 36.8857 29.1791C36.6784 29.2113 36.1685 29.2797 35.5178 29.3222ZM31.1297 2.87878C29.9041 2.95884 27.8395 4.38198 26.3319 5.4215L25.94 5.6913C23.8473 7.09891 25.4012 10.5018 28.1094 15.9377C28.9791 17.6833 29.37 19.473 29.715 21.0517C29.8172 21.5198 29.9169 21.9757 30.0252 22.4147C30.3412 24.9679 31.0127 26.9886 31.673 27.4089C32.3307 27.8274 33.6924 28.0031 35.41 27.8909C35.9905 27.8529 36.4455 27.7924 36.6306 27.7637C37.0055 27.7051 37.5278 27.363 37.6142 27.026C37.6605 26.8454 37.7336 26.258 37.4139 24.7103C37.3637 24.4299 37.4068 24.1419 37.5372 23.8848L37.5364 23.8809L37.5454 23.87C37.6291 23.7112 37.7541 23.5743 37.909 23.4718C38.4685 23.0852 39.9376 22.7537 40.6591 22.7066C41.0851 22.6639 41.5158 22.7131 41.9181 22.8503L42.0442 22.8982L42.145 22.9834C42.3452 23.152 42.5523 23.4391 42.9657 24.0206C43.531 24.8158 44.3847 26.0168 45.0336 26.4162C45.6091 26.7708 46.3291 27.1422 47.5922 27.0597C48.4058 27.0065 49.389 26.7676 50.5148 26.3507C52.3119 25.6356 52.6589 24.7778 52.7227 24.5324C52.7555 24.4359 52.7626 24.3335 52.7432 24.2339C52.7239 24.1343 52.6787 24.0407 52.6117 23.9611C52.3986 23.724 52.0334 23.5499 51.5713 23.3294C50.7677 22.946 49.6671 22.421 48.4865 21.149C48.3171 20.9672 48.1661 20.7714 48.0352 20.5638L47.6611 19.9713L48.2805 19.5984C49.5596 18.8278 50.5477 17.9709 51.2172 17.0508C51.9437 16.1918 52.7162 14.8373 52.8064 13.4873C52.9012 12.0646 52.6253 11.0628 52.1495 9.9075C50.8379 7.11427 48.2679 4.25407 39.252 4.44563L38.9168 4.46578C37.1719 4.57321 35.4485 4.88428 33.7869 5.39169L33.6861 5.42098L33.5805 5.42397C32.9201 5.44236 32.7912 4.90361 32.6771 4.42832C32.6211 4.19426 32.4899 3.64611 32.4058 3.50408C32.1607 3.01392 31.581 2.85095 31.1304 2.87853L31.1297 2.87878Z" fill="black"/>
<path d="M41.813 11.5995C41.813 11.0055 41.2959 10.5239 40.6581 10.5239C40.0202 10.5239 39.5032 11.0055 39.5032 11.5995V14.775C39.5032 15.369 40.0202 15.8506 40.6581 15.8506C41.2959 15.8506 41.813 15.369 41.813 14.775V11.5995Z" fill="black"/>
<path d="M48.0825 11.5995C48.0825 11.0055 47.5655 10.5239 46.9276 10.5239C46.2898 10.5239 45.7727 11.0055 45.7727 11.5995V14.775C45.7727 15.369 46.2898 15.8506 46.9276 15.8506C47.5655 15.8506 48.0825 15.369 48.0825 14.775V11.5995Z" fill="black"/>
</g>
<path d="M3.06926 23.2564C10.0265 27.928 17.0363 26.6627 19.6716 25.4462C18.881 28.3657 21.2529 29.8261 24.4152 29.8261C30.1075 29.2421 31.0035 24.7165 30.74 22.5267C32.0576 22.2834 34.6929 20.9208 34.6929 17.4171C34.6929 13.0375 31.5305 13.7674 29.1588 13.7674C29.9494 11.5776 27.5776 7.19769 25.9964 5.73781C22.0435 2.08812 10.9752 -0.101701 4.65044 5.00787C-1.67427 10.1174 -0.883683 18.1468 3.06926 23.2564Z" fill="#FF9100"/>
<g clip-path="url(#clip1_183:14630)">
<path d="M23.8631 29.8252C22.261 29.8252 20.8769 29.4183 20.1777 29.0697C19.1368 28.579 18.5619 27.5933 18.581 26.3726C17.9845 26.5147 17.3806 26.6261 16.7719 26.7063C15.9345 26.8086 15.092 26.867 14.2482 26.8812L13.8494 26.8845C10.8983 26.8845 8.16851 26.3458 6.36078 25.4063C4.04369 24.1695 2.44399 22.544 1.31958 20.2866C0.0787334 17.6619 -0.914466 13.5773 1.36593 8.95214C3.9731 4.24472 7.965 2.11021 14.3244 2.0033L14.8423 1.99902L15.337 2.00272C22.8579 2.38485 26.3119 5.77434 27.1914 6.80374C28.7517 8.63926 29.6444 10.9197 29.7322 13.2938C30.1441 13.1876 30.5681 13.1315 30.9944 13.1266C31.7274 13.117 32.4423 13.3468 33.0232 13.7789C33.9391 14.5709 34.1676 15.2764 34.4571 16.1697C35.1297 18.6116 34.3445 20.6572 32.2551 21.9583C31.8084 22.273 31.3193 22.5274 30.8014 22.7144C30.807 23.0909 30.805 23.4192 30.8034 23.6797L30.8021 23.8946C30.7946 26.6697 29.3451 28.6179 26.7207 29.381C25.9194 29.6609 25.0757 29.8104 24.2239 29.8235L23.8631 29.8252ZM20.0252 25.9891C19.94 26.4933 19.9234 27.4354 20.8094 27.8533C21.2425 28.0691 22.4171 28.4643 23.8635 28.4642L24.2123 28.4629C24.9231 28.45 25.6265 28.3222 26.2936 28.0848C28.3534 27.4857 29.3895 26.077 29.3953 23.891L29.3965 23.6713C29.3988 23.3164 29.4019 22.8308 29.3838 22.2687L29.3678 21.7711L29.8537 21.6058C30.5513 21.3684 31.1005 21.1071 31.4423 20.8497C33.0724 19.8314 33.6149 18.396 33.1064 16.5479C32.855 15.775 32.7122 15.3337 32.1303 14.8282C31.8012 14.5969 31.4023 14.4771 30.9955 14.4872C30.5796 14.4872 30.0955 14.5834 29.432 14.7982C29.1313 15.8743 28.3974 17.6166 26.7129 18.6079C24.9822 19.5496 23.1624 19.885 21.3925 20.0171C20.9454 20.0456 20.4759 20.0723 19.9786 20.0891C18.1876 20.1268 17.0389 20.0445 14.8832 19.706L14.6676 19.6683C13.8784 19.552 13.1007 19.3713 12.343 19.1281C11.3517 18.8026 10.2068 18.3659 9.26627 17.6065C9.12301 17.4909 9.03312 17.325 9.0164 17.1453C8.99967 16.9656 9.05748 16.7868 9.17709 16.6484C9.29673 16.5099 9.46837 16.423 9.65427 16.4068C9.84017 16.3907 10.0251 16.4465 10.1684 16.5621C10.93 17.1768 11.8837 17.5402 12.8009 17.8413C13.4839 18.0602 14.1851 18.2223 14.8967 18.3258C15.0556 18.3511 15.1605 18.372 15.1983 18.3828C17.8392 18.7917 19.8046 18.7167 21.5836 18.6032C23.2045 18.4824 24.3847 18.3317 25.8743 17.5218C25.8855 17.5137 26.0395 17.4129 26.0908 17.3735C27.9173 16.0614 28.0438 14.7397 28.2816 13.7581C28.2995 13.6854 28.3162 13.6212 28.3319 13.5644C28.3068 11.4123 27.5222 9.33289 26.1079 7.67045C25.3203 6.74883 22.2127 3.71437 15.2904 3.36226L14.8437 3.35954L14.3505 3.36362C8.56235 3.46081 4.94559 5.37422 2.62327 9.56636C0.59132 13.6891 1.48528 17.3607 2.59541 19.709C3.58077 21.6871 4.99385 23.1219 7.03585 24.2117C8.61504 25.0322 11.1653 25.5237 13.851 25.5237L14.2251 25.5206C15.0159 25.5072 15.8053 25.4524 16.59 25.3567C17.4795 25.2395 18.357 25.0491 19.213 24.7877L20.3673 24.4342L20.0252 25.9891ZM22.4454 14.0369V11.0241C22.4454 10.7534 22.5566 10.4939 22.7546 10.3025C22.9526 10.1111 23.2212 10.0036 23.5012 10.0036C23.7812 10.0036 24.0497 10.1111 24.2477 10.3025C24.4457 10.4939 24.5569 10.7534 24.5569 11.0241V14.0369C24.5569 14.3075 24.4457 14.5671 24.2477 14.7584C24.0497 14.9498 23.7812 15.0573 23.5012 15.0573C23.2212 15.0573 22.9526 14.9498 22.7546 14.7584C22.5566 14.5671 22.4454 14.3075 22.4454 14.0369ZM16.7143 14.0369V11.0241C16.7143 10.7534 16.8255 10.4939 17.0235 10.3025C17.2215 10.1111 17.49 10.0036 17.77 10.0036C18.05 10.0036 18.3185 10.1111 18.5165 10.3025C18.7145 10.4939 18.8257 10.7534 18.8257 11.0241V14.0369C18.8257 14.3075 18.7145 14.5671 18.5165 14.7584C18.3185 14.9498 18.05 15.0573 17.77 15.0573C17.49 15.0573 17.2215 14.9498 17.0235 14.7584C16.8255 14.5671 16.7143 14.3075 16.7143 14.0369Z" fill="black"/>
</g>
<defs>
<clipPath id="clip0_183:14630">
<rect width="32.5246" height="30" fill="white" transform="translate(23)"/>
</clipPath>
<clipPath id="clip1_183:14630">
<rect width="34.6929" height="27.8261" fill="white" transform="translate(0 2)"/>
</clipPath>
</defs>
</svg>
