<svg width="230" height="127" viewBox="0 0 230 127" fill="none" xmlns="http://www.w3.org/2000/svg">
<path d="M41.5295 108.781C58.0342 112.639 76.8073 109.138 84.1308 106.905C82.2553 110.745 81.2907 119.123 92.4367 121.909C106.369 125.392 113.603 123.517 122.177 118.426C132.091 107.441 129.947 100.207 132.359 91.9009C142.54 87.0781 145.755 82.7912 147.631 71.538C144.684 49.5675 135.574 53.3186 126.464 55.9979C128.179 50.8536 124.321 40.2792 122.177 35.635C120.748 30.0085 111.728 16.5583 87.0781 7.77011C56.2658 -3.21513 28.4008 12.057 19.827 18.7553C11.2532 25.4537 -1.87553 48.4958 3.21519 69.3946C8.30591 90.2933 20.8987 103.958 41.5295 108.781Z" fill="#FF9100" stroke="black"/>
<path d="M129.411 3.21519C123.838 4.07258 114.229 13.218 110.12 17.6835C125.392 32.1519 125.66 46.0844 129.411 55.1941C141.736 51.979 147.631 61.8925 147.363 73.9494C147.149 83.595 137.628 90.1147 132.894 92.1688L129.411 98.0633C129.411 101.814 130.108 110.71 132.894 116.283C136.378 123.249 144.951 121.641 156.74 120.838C168.53 120.034 160.759 105.298 161.295 102.618C161.831 99.9389 167.19 98.3313 170.405 98.0633C173.62 97.7954 176.835 100.475 184.07 109.317C191.304 118.158 200.413 118.694 211.667 116.283C222.92 113.871 228.546 105.298 225.331 100.475C222.116 95.652 213.542 92.1688 206.308 83.595C223.188 75.557 227.207 57.6055 225.331 42.0654C213.274 -2.14341 152.989 12.057 142.004 14.4684C143.88 4.82279 136.378 2.14346 129.411 3.21519Z" fill="#00CDB6" stroke="black"/>
<path d="M103.831 126.972C98.3003 127.032 92.8248 125.872 87.7948 123.572C85.6134 122.507 83.861 120.73 82.8277 118.533C82.286 117.41 81.8925 116.222 81.657 114.997C81.4049 113.69 81.2907 112.36 81.3163 111.028L80.8833 111.137C78.3777 111.754 75.7919 112.395 72.9736 112.933C69.3306 113.397 65.665 113.665 61.9931 113.734H60.2572C49.0215 114.086 37.859 111.807 27.6604 107.08C18.0352 101.988 10.3334 93.8966 5.72337 84.032C2.49386 77.0648 0.586655 69.5583 0.0987984 61.8945C-0.173838 57.2807 0.118308 52.6507 0.968742 48.1077C1.96623 42.8796 3.63859 37.8032 5.94386 33.006C10.8299 23.1956 18.5103 15.0507 28.0172 9.59766C38.6309 4.18065 50.4202 1.47434 62.3339 1.72005H64.5869H66.7397C75.0773 2.09578 83.3267 3.58978 91.2665 6.16198C97.0063 8.0398 102.477 10.6584 107.539 13.9514C107.675 13.8512 107.819 13.7549 107.968 13.6627L109.407 12.5924C117.06 6.92368 125.744 0.497321 132.463 0.0282723C132.759 0.0282723 133.06 0.000209616 133.357 0.000209616C135.497 -0.0118401 137.609 0.495787 139.51 1.47952C140.476 1.98551 141.357 2.63727 142.124 3.41183C142.926 4.22749 143.578 5.17727 144.052 6.21811C144.706 7.59083 145.175 9.04399 145.448 10.5398C151.83 8.68293 158.398 7.53216 165.031 7.10809L166.635 7.00787C167.878 6.97981 169.112 6.96377 170.315 6.96377C174.714 6.95047 179.111 7.16457 183.489 7.60521C187.16 7.97466 190.803 8.57857 194.397 9.41325C197.428 10.1193 200.401 11.0574 203.289 12.2195C205.766 13.2227 208.152 14.4407 210.417 15.8597C214.264 18.2652 217.646 21.3454 220.399 24.952C222.8 28.1524 224.797 31.6372 226.344 35.3272C227.487 38.1803 228.365 41.1327 228.966 44.1469C229.575 47.4331 229.766 50.783 229.535 54.1171C228.812 61.1496 226.091 67.8281 221.694 73.3642C218.669 77.6576 214.92 81.391 210.613 84.3968C213.509 87.5855 217.017 90.1583 220.928 91.9617C223.309 92.9822 225.453 94.4835 227.226 96.3716C228.147 97.4847 228.789 98.8022 229.096 100.214C229.404 101.626 229.369 103.09 228.994 104.486C227.929 107.416 226.211 110.065 223.969 112.233C221.728 114.4 219.022 116.028 216.057 116.994C211.562 118.912 206.798 120.129 201.934 120.602C201.292 120.646 200.655 120.67 200.034 120.67C195.491 120.707 191.052 119.314 187.345 116.689C183.205 113.159 179.7 108.946 176.982 104.233L176.958 104.197C176.256 103.135 175.459 101.932 174.954 101.242C174.616 101.194 174.276 101.171 173.935 101.174C173.691 101.174 173.426 101.174 173.133 101.202C170.527 101.479 167.973 102.124 165.548 103.119C166.033 105.558 166.36 108.026 166.527 110.507C166.663 112.213 166.561 113.929 166.222 115.607C165.577 117.672 164.375 119.519 162.748 120.945C161.121 122.372 159.133 123.322 157.001 123.693L156.532 123.773C154.21 124.199 151.867 124.501 149.513 124.679C148.39 124.759 147.296 124.795 146.257 124.795C141.802 125.039 137.375 123.946 133.545 121.656C131.707 120.25 130.213 118.445 129.175 116.376C127.652 118.404 125.794 120.158 123.683 121.564C121.398 123.07 118.901 124.226 116.274 124.996C112.789 126.263 109.118 126.94 105.41 127L103.831 126.972ZM85.1809 104.021C85.6561 103.985 86.1335 104.048 86.5833 104.205C87.0331 104.362 87.4455 104.611 87.7948 104.935C88.6727 105.989 88.4923 107.047 88.1956 108.795C88.1475 109.072 88.0994 109.353 88.0513 109.661C87.649 111.285 87.7678 112.993 88.3909 114.546C89.014 116.098 90.1099 117.414 91.5231 118.309C95.3751 120.105 99.5943 120.974 103.843 120.846H105.362C108.515 120.864 111.651 120.371 114.647 119.387C117.204 118.793 119.588 117.61 121.606 115.931C123.625 114.252 125.223 112.124 126.273 109.717C126.609 108.988 126.982 108.174 127.379 107.312C127.564 106.892 127.868 106.535 128.254 106.285C128.639 106.035 129.089 105.903 129.548 105.905H129.66C129.971 105.886 130.283 105.935 130.573 106.048C130.863 106.162 131.125 106.337 131.34 106.562C131.949 107.323 132.443 108.169 132.807 109.072V109.124C133.442 110.838 134.225 112.494 135.149 114.071C135.646 114.981 136.318 115.785 137.125 116.436C139.911 117.973 143.079 118.679 146.253 118.473C147.151 118.473 148.106 118.437 149.088 118.369C151.223 118.206 153.348 117.93 155.454 117.543L155.967 117.455C156.871 117.275 157.718 116.88 158.436 116.302C159.154 115.724 159.721 114.98 160.088 114.135C160.454 110.665 160.173 107.156 159.258 103.788C159.049 102.54 159.229 101.258 159.776 100.116L159.804 100.08C160.171 99.3279 160.733 98.6883 161.431 98.2277C163.133 97.221 164.976 96.4763 166.9 96.0188C168.8 95.4752 170.745 95.1036 172.713 94.9083C173.137 94.8802 173.554 94.8642 173.951 94.8642C175.309 94.8315 176.66 95.0643 177.928 95.5497L178.445 95.7622L178.846 96.1391C180.14 97.5556 181.281 99.105 182.25 100.761C184.562 104.742 187.463 108.351 190.853 111.465C193.532 113.408 196.765 114.436 200.074 114.396C200.543 114.396 201.028 114.396 201.521 114.344C205.708 113.905 209.806 112.838 213.676 111.181C221.169 107.974 222.612 104.141 222.873 103.042C223.011 102.606 223.041 102.142 222.959 101.691C222.878 101.241 222.687 100.817 222.404 100.457C221.146 99.2551 219.677 98.2968 218.07 97.6304C213.155 95.3211 208.788 91.9937 205.257 87.8686C204.555 87.0589 203.928 86.1867 203.385 85.2627L201.85 82.6529L204.391 81.0092C209.18 78.0701 213.333 74.2031 216.607 69.6358C220.266 65.0579 222.559 59.5397 223.221 53.7163C223.578 48.2453 222.643 42.7672 220.491 37.7245C215.207 25.6375 205.117 13.2699 170.343 13.2699C169.213 13.2699 168.042 13.2699 166.867 13.31L165.472 13.3982C158.22 13.8762 151.056 15.2635 144.149 17.5274L143.748 17.6557H143.315H143.183C140.585 17.6557 140.064 15.3104 139.603 13.2458C139.335 11.8448 138.958 10.4669 138.476 9.1246C138.004 8.23858 137.291 7.50455 136.419 7.0078C135.547 6.51105 134.552 6.27197 133.549 6.31833C133.413 6.31833 133.272 6.31833 133.148 6.31833C128.045 6.67112 119.458 13.0253 113.183 17.6677L112.871 17.8962C111.459 19.2812 110.17 20.7862 109.018 22.3943C108.982 22.3662 105.21 19.5158 102.319 17.8441C91.4044 11.6039 79.1154 8.16079 66.5473 7.82169H64.6029H62.4581C37.2538 8.28272 21.5147 16.898 11.4081 35.7681C7.96005 42.8816 6.15875 50.6804 6.13793 58.5854C6.1171 66.4905 7.8773 74.2987 11.2878 81.4302C15.3523 90.1088 22.1364 97.2251 30.611 101.699C39.9194 105.907 50.0672 107.928 60.2773 107.609H61.9049C65.346 107.548 68.7814 107.302 72.1959 106.871C74.9593 106.443 77.6933 105.843 80.3822 105.075C81.5328 104.774 82.7194 104.462 84.0424 104.137C84.4218 104.065 84.8068 104.026 85.1929 104.021H85.1809Z" fill="#573300"/>
<path d="M177.904 48.3042C177.904 45.6517 175.755 43.5015 173.104 43.5015C170.452 43.5015 168.303 45.6517 168.303 48.3042V62.4759C168.303 65.1283 170.452 67.2786 173.104 67.2786C175.755 67.2786 177.904 65.1283 177.904 62.4759V48.3042Z" fill="#573300"/>
<path d="M203.966 48.3042C203.966 45.6517 201.817 43.5015 199.166 43.5015C196.514 43.5015 194.365 45.6517 194.365 48.3042V62.4759C194.365 65.1283 196.514 67.2786 199.166 67.2786C201.817 67.2786 203.966 65.1283 203.966 62.4759V48.3042Z" fill="#573300"/>
<path d="M125.535 111.268C127.235 107.986 128.063 104.322 127.94 100.628L127.996 99.121C127.996 97.5174 128.02 95.3365 127.94 92.8069L127.872 90.5659L129.985 89.8202C132.448 89.0416 134.778 87.894 136.896 86.4166C140.185 84.5527 142.714 81.5904 144.037 78.0492C145.361 74.508 145.396 70.6138 144.137 67.0493C143.564 64.0883 142.078 61.3811 139.887 59.308C138.455 58.2663 136.718 57.7266 134.948 57.7726C132.528 57.8816 130.142 58.3839 127.884 59.2599L127.612 59.3521L126.653 59.7049C126.653 59.7049 124.857 60.4626 124.473 60.5749C124.307 60.6407 124.127 60.6614 123.952 60.6347C123.776 60.6081 123.61 60.5351 123.472 60.4233C123.333 60.3114 123.227 60.1648 123.164 59.9984C123.101 59.832 123.084 59.6518 123.114 59.4764C123.19 58.382 123.286 56.2693 123.286 56.2693C123.838 45.6841 120.405 35.2761 113.664 27.0961C111.543 24.6019 109.128 22.3728 106.472 20.4572L112.983 17.8193C114.94 19.4465 116.748 21.2442 118.387 23.1913C125.176 31.4546 129.061 41.7206 129.444 52.4086C131.236 51.9304 133.081 51.6772 134.936 51.6549C138.123 51.6143 141.23 52.6496 143.756 54.5935C146.907 57.443 149.088 61.2067 149.994 65.3576C151.61 70.1424 151.541 75.3361 149.798 80.0762C148.055 84.8163 144.743 88.8176 140.412 91.4158C138.468 92.8323 136.34 93.9774 134.086 94.8194C134.11 96.5152 134.086 97.9905 134.086 99.1651V100.131C134.111 103.398 133.606 106.647 132.591 109.753L125.571 111.665L125.535 111.268Z" fill="#573300"/>
<path d="M77.7641 40.7925C78.9826 40.7925 80.1512 41.2765 81.0128 42.1381C81.8744 42.9997 82.3584 44.1683 82.3584 45.3868V58.9491C82.3584 60.1675 81.8744 61.3361 81.0128 62.1977C80.1512 63.0593 78.9826 63.5433 77.7641 63.5433C76.5457 63.5433 75.3771 63.0593 74.5155 62.1977C73.6539 61.3361 73.1699 60.1675 73.1699 58.9491V45.3868C73.1699 44.1683 73.6539 42.9997 74.5155 42.1381C75.3771 41.2765 76.5457 40.7925 77.7641 40.7925V40.7925Z" fill="#573300"/>
<path d="M102.704 40.7925C103.923 40.7925 105.091 41.2765 105.953 42.1381C106.814 42.9997 107.298 44.1683 107.298 45.3868V58.9491C107.298 60.1675 106.814 61.3361 105.953 62.1977C105.091 63.0593 103.923 63.5433 102.704 63.5433C101.486 63.5433 100.317 63.0593 99.4554 62.1977C98.5938 61.3361 98.1098 60.1675 98.1098 58.9491V45.3868C98.1098 44.1683 98.5938 42.9997 99.4554 42.1381C100.317 41.2765 101.486 40.7925 102.704 40.7925V40.7925Z" fill="#573300"/>
<path d="M87.3586 84.5146C79.931 84.7247 72.502 84.1476 65.1959 82.7929L64.2596 82.6212C60.8271 82.099 57.445 81.2865 54.1498 80.1926C49.3046 78.7516 44.7653 76.4329 40.7578 73.3518C40.1345 72.8313 39.7434 72.0844 39.6707 71.2756C39.598 70.4667 39.8496 69.6621 40.3701 69.0387C40.8907 68.4154 41.6375 68.0243 42.4464 67.9516C43.2552 67.8789 44.0598 68.1305 44.6832 68.651C48.1162 71.2521 51.9967 73.2023 56.1325 74.4051C59.1043 75.39 62.1549 76.1188 65.251 76.5837C65.9447 76.6958 66.3971 76.7922 66.5632 76.8385C75.7478 78.2857 85.0738 78.6174 94.338 77.8262C100.562 77.9185 106.704 76.4095 112.177 73.444C112.797 73.11 113.389 72.7244 113.945 72.2914C116.593 70.4077 118.811 67.9835 120.452 65.179C122.094 62.3746 123.122 59.2537 123.468 56.0226C124.331 52.3835 124.58 53.4453 126.249 53.4511C127.057 53.451 127.832 53.7714 128.405 54.3422C128.977 54.913 129.3 55.6874 129.303 56.4958C129.321 57.0125 127.58 71.1962 116.646 77.8507C109.498 81.6569 101.592 83.8241 93.5025 84.1951C91.5621 84.3192 89.5213 84.4388 87.3586 84.5146Z" fill="#573300"/>
</svg>
