<svg width="34" height="30" viewBox="0 0 34 30" fill="none" xmlns="http://www.w3.org/2000/svg">
<g clip-path="url(#clip0_79:4699)">
<path d="M5.90375 20.0002C5.90375 20.8002 7.71067 25.3336 8.61413 27.5002C8.43345 27.6668 9.04784 28.1 12.9508 28.5C16.8537 28.9 16.3839 26 15.6612 24.5C16.2032 24.1667 17.7211 23.5 19.4557 23.5C21.624 27.5 23.7923 28 27.5869 27C31.3814 26 31.3814 24 30.8393 23.5C30.2972 23 27.0448 21.5 25.9606 20.0002C34.0918 15.0005 30.8393 11 29.7552 9C25.8522 1.8 15.4805 3.33333 10.7825 5C10.7825 4.66675 10.5657 3.70024 9.69833 2.50024C8.61418 1.00024 3.19337 4.50024 2.10921 5.50024C1.02506 6.50024 1.56714 9.50024 2.10921 10.5002C2.65129 11.5002 5.90375 19.0002 5.90375 20.0002Z" fill="#00CDB6"/>
<path d="M13.0008 29.3222C11.5243 29.4187 9.50755 29.3705 8.28689 28.5934C6.80462 27.6501 6.21302 24.4689 5.99224 22.6565C5.89561 22.2859 5.79331 21.8181 5.6884 21.3377C5.3443 19.7626 4.98844 18.1339 4.19491 16.5411C1.45554 11.0428 -0.708128 6.69981 2.51505 4.53178L2.89837 4.26788C4.74247 2.99681 6.83255 1.55556 8.4518 1.44979C9.50514 1.38499 10.7384 1.79221 11.2532 2.84099C11.3761 3.02754 11.479 3.37011 11.5874 3.80211C13.1211 3.38771 14.6986 3.13016 16.2922 3.03403L16.675 3.01169C26.6261 2.79993 29.5276 6.10324 31.0575 9.36238C31.6055 10.6909 31.9386 11.899 31.8271 13.5756C31.6863 15.6908 30.3489 17.4183 29.9423 17.8975C29.3118 18.7667 28.4128 19.6035 27.2833 20.3669C28.2073 21.3133 29.0277 21.705 29.7564 22.0524C30.3248 22.3235 30.8618 22.5797 31.2758 23.0401C31.4986 23.2906 31.6537 23.5871 31.7281 23.9049C31.8026 24.2226 31.7942 24.5524 31.7037 24.8665C31.4177 25.978 30.2814 27.0023 28.5853 27.6769C27.2761 28.1625 26.169 28.4265 25.1828 28.491C23.5168 28.5998 22.4703 28.1083 21.6663 27.6129C20.7565 27.0524 19.8361 25.7579 19.1639 24.8127C18.998 24.5794 18.8012 24.3022 18.6769 24.146C18.5352 24.1287 18.3919 24.126 18.2496 24.1377C17.6257 24.199 17.0144 24.3425 16.4338 24.5637C16.6926 25.8365 16.7479 26.7651 16.5956 27.3591C16.3405 28.3546 15.2579 29.0396 14.3687 29.1791C14.1614 29.2113 13.6515 29.2797 13.0008 29.3222ZM8.6127 2.87878C7.3871 2.95884 5.32257 4.38198 3.81491 5.4215L3.42299 5.6913C1.33038 7.09891 2.88426 10.5018 5.59246 15.9377C6.46213 17.6833 6.85307 19.473 7.19799 21.0517C7.3002 21.5198 7.39996 21.9757 7.50826 22.4147C7.8242 24.9679 8.49574 26.9886 9.15606 27.4089C9.81371 27.8274 11.1754 28.0031 12.893 27.8909C13.4736 27.8529 13.9286 27.7924 14.1136 27.7637C14.4886 27.7051 15.0108 27.363 15.0972 27.026C15.1435 26.8454 15.2166 26.258 14.897 24.7103C14.8468 24.4299 14.8898 24.1419 15.0202 23.8848L15.0194 23.8809L15.0284 23.87C15.1121 23.7112 15.2371 23.5743 15.392 23.4718C15.9515 23.0852 17.4206 22.7537 18.1421 22.7066C18.5681 22.6639 18.9989 22.7131 19.4011 22.8503L19.5272 22.8982L19.628 22.9834C19.8283 23.152 20.0353 23.4391 20.4488 24.0206C21.014 24.8158 21.8677 26.0168 22.5166 26.4162C23.0921 26.7708 23.8121 27.1422 25.0752 27.0597C25.8889 27.0065 26.8721 26.7676 27.9978 26.3507C29.7949 25.6356 30.142 24.7778 30.2057 24.5324C30.2385 24.4359 30.2456 24.3335 30.2262 24.2339C30.2069 24.1343 30.1617 24.0407 30.0947 23.9611C29.8816 23.724 29.5165 23.5499 29.0543 23.3294C28.2507 22.946 27.1501 22.421 25.9695 21.149C25.8002 20.9672 25.6491 20.7714 25.5183 20.5638L25.1441 19.9713L25.7636 19.5984C27.0426 18.8278 28.0307 17.9709 28.7003 17.0508C29.4267 16.1918 30.1993 14.8373 30.2894 13.4873C30.3842 12.0646 30.1084 11.0628 29.6325 9.9075C28.3209 7.11427 25.751 4.25407 16.7351 4.44563L16.3998 4.46578C14.655 4.57321 12.9315 4.88428 11.27 5.39169L11.1691 5.42098L11.0636 5.42397C10.4031 5.44236 10.2743 4.90361 10.1602 4.42832C10.1041 4.19426 9.97295 3.64611 9.88878 3.50408C9.64371 3.01392 9.06399 2.85095 8.61346 2.87853L8.6127 2.87878Z" fill="black"/>
<path d="M19.2959 11.5995C19.2959 11.0055 18.7788 10.5239 18.141 10.5239C17.5032 10.5239 16.9861 11.0055 16.9861 11.5995V14.775C16.9861 15.369 17.5032 15.8506 18.141 15.8506C18.7788 15.8506 19.2959 15.369 19.2959 14.775V11.5995Z" fill="black"/>
<path d="M25.5656 11.5995C25.5656 11.0055 25.0485 10.5239 24.4107 10.5239C23.7728 10.5239 23.2557 11.0055 23.2557 11.5995V14.775C23.2557 15.369 23.7728 15.8506 24.4107 15.8506C25.0485 15.8506 25.5656 15.369 25.5656 14.775V11.5995Z" fill="black"/>
</g>
<defs>
<clipPath id="clip0_79:4699">
<rect width="32.5246" height="30" fill="white" transform="translate(0.483032)"/>
</clipPath>
</defs>
</svg>
