<svg width="15" height="15" viewBox="0 0 15 15" fill="none" xmlns="http://www.w3.org/2000/svg">
<path d="M14.5348 4.13668L13.1918 5.47913C13.1259 5.54481 13.0366 5.5817 12.9435 5.5817C12.8504 5.5817 12.761 5.54481 12.6952 5.47913L9.45456 2.24621C9.38873 2.18051 9.35175 2.09141 9.35175 1.99851C9.35175 1.90561 9.38873 1.81651 9.45456 1.75081L10.8041 0.40836C11.0674 0.146831 11.4238 0 11.7953 0C12.1668 0 12.5232 0.146831 12.7865 0.40836L14.5348 2.15894C14.6653 2.28866 14.7688 2.44278 14.8394 2.61247C14.91 2.78216 14.9463 2.96408 14.9463 3.14781C14.9463 3.33154 14.91 3.51346 14.8394 3.68315C14.7688 3.85284 14.6653 4.00696 14.5348 4.13668ZM8.29416 2.9046L0.629347 10.5538L0.0105533 14.0934C-0.00891266 14.2041 -0.00137246 14.3178 0.0325359 14.4249C0.0664443 14.532 0.125723 14.6295 0.205356 14.7089C0.284989 14.7883 0.382632 14.8475 0.490024 14.8813C0.597416 14.9151 0.711396 14.9227 0.822318 14.9032L4.3717 14.2834L12.0391 6.6342C12.1049 6.5685 12.1419 6.4794 12.1419 6.3865C12.1419 6.2936 12.1049 6.20451 12.0391 6.1388L8.79717 2.9046C8.73087 2.83877 8.64114 2.80181 8.5476 2.80181C8.45405 2.80181 8.36432 2.83877 8.29802 2.9046H8.29416ZM3.62297 9.89921C3.58482 9.8615 3.55453 9.81662 3.53386 9.76717C3.51318 9.71771 3.50254 9.66466 3.50254 9.61108C3.50254 9.5575 3.51318 9.50445 3.53386 9.455C3.55453 9.40554 3.58482 9.36066 3.62297 9.32296L8.12563 4.83101C8.20358 4.76158 8.30521 4.72454 8.40966 4.72749C8.51411 4.73044 8.61347 4.77315 8.68736 4.84687C8.76125 4.92058 8.80406 5.0197 8.80702 5.12391C8.80998 5.22811 8.77285 5.32949 8.70326 5.40726L4.2006 9.89921C4.1628 9.93727 4.11782 9.96749 4.06824 9.98811C4.01867 10.0087 3.9655 10.0194 3.91179 10.0194C3.85808 10.0194 3.8049 10.0087 3.75533 9.98811C3.70576 9.96749 3.66077 9.93727 3.62297 9.89921ZM2.57064 12.348H3.97032V13.4055L2.08692 13.734L1.17867 12.8267L1.50801 10.9478H2.57064V12.348Z" fill="black" fill-opacity="0.5"/>
</svg>
