<svg width="24" height="24" viewBox="0 0 24 24" fill="none" xmlns="http://www.w3.org/2000/svg">
<path d="M12 3.11133C9.58368 3.11133 7.625 5.07001 7.625 7.48633C7.625 9.4398 10.4844 13.0002 11.5799 14.2926C11.8017 14.5544 12.1986 14.5544 12.4201 14.2926C13.5156 13.0002 16.375 9.4398 16.375 7.48633C16.375 5.07001 14.4163 3.11133 12 3.11133ZM12 8.94466C11.1944 8.94466 10.5417 8.29188 10.5417 7.48633C10.5417 6.68077 11.1944 6.02799 12 6.02799C12.8056 6.02799 13.4583 6.68077 13.4583 7.48633C13.4583 8.29188 12.8056 8.94466 12 8.94466ZM2.69861 10.6096C2.49242 10.6921 2.31567 10.8344 2.19115 11.0183C2.06663 11.2022 2.00005 11.4191 2 11.6412V20.3329C2 20.7259 2.39688 20.9947 2.76181 20.8488L7.55556 18.6669V10.5738C7.24861 10.019 6.99757 9.47869 6.81771 8.96202L2.69861 10.6096ZM12 15.5999C11.5115 15.5999 11.0493 15.3853 10.7323 15.011C10.0497 14.2054 9.32361 13.2881 8.66667 12.3471V18.6665L15.3333 20.8888V12.3474C14.6764 13.2881 13.9507 14.2058 13.2677 15.0113C12.9507 15.3853 12.4885 15.5999 12 15.5999ZM21.2382 8.70716L16.4444 10.8891V20.8891L21.3014 18.9464C21.5076 18.864 21.6844 18.7216 21.8089 18.5377C21.9334 18.3539 22 18.1369 22 17.9148V9.22313C22 8.83008 21.6031 8.56133 21.2382 8.70716Z" fill="#573300"/>
</svg>
