<svg width="24" height="24" viewBox="0 0 24 24" fill="none" xmlns="http://www.w3.org/2000/svg">
<circle cx="11.5" cy="11.5" r="9.5" fill="#573300"/>
<path fill-rule="evenodd" clip-rule="evenodd" d="M11.5 2.81818C9.80088 2.81818 8.13992 3.29804 6.72715 4.19707C5.31438 5.0961 4.21326 6.37392 3.56304 7.86895C2.91281 9.36398 2.74269 11.0091 3.07417 12.5962C3.40565 14.1833 4.22385 15.6412 5.42531 16.7854C6.62677 17.9297 8.15753 18.7089 9.824 19.0246C11.4905 19.3403 13.2178 19.1783 14.7876 18.559C16.3574 17.9397 17.6991 16.8911 18.6431 15.5456C19.5871 14.2001 20.0909 12.6182 20.0909 11C20.0909 9.92555 19.8687 8.86162 19.437 7.86895C19.0052 6.87629 18.3724 5.97433 17.5747 5.21458C16.777 4.45483 15.8299 3.85216 14.7876 3.44098C13.7453 3.02981 12.6282 2.81818 11.5 2.81818ZM5.66652 2.6853C7.39323 1.58649 9.4233 1 11.5 1C12.8789 1 14.2443 1.25866 15.5182 1.7612C16.7921 2.26375 17.9496 3.00035 18.9246 3.92893C19.8996 4.85752 20.6731 5.95991 21.2007 7.17316C21.7284 8.38642 22 9.68678 22 11C22 12.9778 21.3842 14.9112 20.2304 16.5557C19.0767 18.2002 17.4368 19.4819 15.5182 20.2388C13.5996 20.9957 11.4884 21.1937 9.45155 20.8078C7.41475 20.422 5.54383 19.4696 4.07538 18.0711C2.60693 16.6725 1.6069 14.8907 1.20176 12.9509C0.796614 11.0111 1.00455 9.00043 1.79927 7.17316C2.59399 5.3459 3.9398 3.78412 5.66652 2.6853Z" fill="#573300"/>
<path fill-rule="evenodd" clip-rule="evenodd" d="M11.4995 4.63623C12.0266 4.63623 12.454 5.04324 12.454 5.54532V10.438L15.7445 12.0049C16.2161 12.2295 16.4072 12.7755 16.1714 13.2246C15.9357 13.6737 15.3623 13.8557 14.8908 13.6312L11.0726 11.813C10.7492 11.659 10.5449 11.3442 10.5449 10.9999V5.54532C10.5449 5.04324 10.9723 4.63623 11.4995 4.63623Z" fill="white"/>
</svg>
