<svg width="14" height="16" viewBox="0 0 14 16" fill="none" xmlns="http://www.w3.org/2000/svg">
<path d="M7 8C9.07129 8 10.75 6.32129 10.75 4.25C10.75 2.17871 9.07129 0.5 7 0.5C4.92871 0.5 3.25 2.17871 3.25 4.25C3.25 6.32129 4.92871 8 7 8ZM9.625 8.9375H9.13574C8.48535 9.23633 7.76172 9.40625 7 9.40625C6.23828 9.40625 5.51758 9.23633 4.86426 8.9375H4.375C2.20117 8.9375 0.4375 10.7012 0.4375 12.875V14.0938C0.4375 14.8701 1.06738 15.5 1.84375 15.5H12.1562C12.9326 15.5 13.5625 14.8701 13.5625 14.0938V12.875C13.5625 10.7012 11.7988 8.9375 9.625 8.9375Z" fill="#573300"/>
</svg>
