<svg width="30" height="26" viewBox="0 0 30 26" fill="none" xmlns="http://www.w3.org/2000/svg">
<path d="M26.5104 0.604004H19.4271C17.9606 0.604004 16.7708 1.79378 16.7708 3.26025V10.3436C16.7708 11.8101 17.9606 12.9998 19.4271 12.9998H23.8542V16.5415C23.8542 18.495 22.2659 20.0832 20.3125 20.0832H19.8698C19.1338 20.0832 18.5417 20.6753 18.5417 21.4113V24.0675C18.5417 24.8035 19.1338 25.3957 19.8698 25.3957H20.3125C25.2044 25.3957 29.1667 21.4334 29.1667 16.5415V3.26025C29.1667 1.79378 27.9769 0.604004 26.5104 0.604004ZM10.5729 0.604004H3.48958C2.02311 0.604004 0.833328 1.79378 0.833328 3.26025V10.3436C0.833328 11.8101 2.02311 12.9998 3.48958 12.9998H7.91666V16.5415C7.91666 18.495 6.32845 20.0832 4.37499 20.0832H3.93229C3.19628 20.0832 2.60416 20.6753 2.60416 21.4113V24.0675C2.60416 24.8035 3.19628 25.3957 3.93229 25.3957H4.37499C9.26692 25.3957 13.2292 21.4334 13.2292 16.5415V3.26025C13.2292 1.79378 12.0394 0.604004 10.5729 0.604004Z" fill="#573300"/>
</svg>
