<svg width="12" height="12" viewBox="0 0 12 12" fill="none" xmlns="http://www.w3.org/2000/svg">
<path d="M11.2982 3.22318L10.2542 4.26918C10.203 4.32036 10.1336 4.3491 10.0612 4.3491C9.98882 4.3491 9.9194 4.32036 9.8682 4.26918L7.3492 1.75018C7.29803 1.69899 7.26928 1.62957 7.26928 1.55718C7.26928 1.4848 7.29803 1.41538 7.3492 1.36418L8.3982 0.318182C8.60286 0.114407 8.8799 0 9.1687 0C9.45751 0 9.73455 0.114407 9.9392 0.318182L11.2982 1.68218C11.3996 1.78326 11.48 1.90334 11.5349 2.03556C11.5898 2.16778 11.618 2.30953 11.618 2.45268C11.618 2.59584 11.5898 2.73759 11.5349 2.86981C11.48 3.00202 11.3996 3.12211 11.2982 3.22318ZM6.4472 2.26318L0.489203 8.22318L0.00820331 10.9812C-0.00692797 11.0674 -0.00106684 11.156 0.0252908 11.2395C0.0516484 11.323 0.0977268 11.3989 0.159627 11.4608C0.221527 11.5227 0.297427 11.5687 0.380905 11.5951C0.464382 11.6215 0.552981 11.6273 0.639203 11.6122L3.3982 11.1292L9.3582 5.16918C9.40938 5.11799 9.43812 5.04857 9.43812 4.97618C9.43812 4.9038 9.40938 4.83438 9.3582 4.78318L6.8382 2.26318C6.78667 2.21189 6.71692 2.18309 6.6442 2.18309C6.57149 2.18309 6.50174 2.21189 6.4502 2.26318H6.4472ZM2.8162 7.71318C2.78654 7.6838 2.763 7.64883 2.74693 7.6103C2.73086 7.57177 2.72259 7.53043 2.72259 7.48868C2.72259 7.44693 2.73086 7.4056 2.74693 7.36706C2.763 7.32853 2.78654 7.29356 2.8162 7.26418L6.3162 3.76418C6.37679 3.71009 6.45579 3.68123 6.53698 3.68353C6.61817 3.68583 6.69541 3.71911 6.75285 3.77654C6.81028 3.83398 6.84356 3.91121 6.84586 3.9924C6.84816 4.0736 6.8193 4.15259 6.7652 4.21318L3.2652 7.71318C3.23582 7.74284 3.20085 7.76639 3.16232 7.78246C3.12379 7.79852 3.08245 7.8068 3.0407 7.8068C2.99895 7.8068 2.95762 7.79852 2.91909 7.78246C2.88055 7.76639 2.84558 7.74284 2.8162 7.71318ZM1.9982 9.62118H3.0862V10.4452L1.6222 10.7012L0.916203 9.99418L1.1722 8.53018H1.9982V9.62118Z" fill="#573300"/>
</svg>
