<svg width="14" height="14" viewBox="0 0 14 14" fill="none" xmlns="http://www.w3.org/2000/svg">
<path d="M9.76059 4.88005C9.76059 5.07309 9.70335 5.26179 9.59611 5.42229C9.48886 5.58279 9.33643 5.70789 9.15809 5.78176C8.97975 5.85563 8.78351 5.87496 8.59419 5.8373C8.40486 5.79964 8.23095 5.70668 8.09446 5.57019C7.95796 5.43369 7.86501 5.25979 7.82735 5.07046C7.78969 4.88114 7.80902 4.68489 7.88289 4.50655C7.95676 4.32821 8.08186 4.17578 8.24236 4.06854C8.40286 3.96129 8.59156 3.90405 8.78459 3.90405C9.04345 3.90405 9.29169 4.00688 9.47473 4.18992C9.65777 4.37295 9.76059 4.6212 9.76059 4.88005Z" fill="black"/>
<path d="M5.20591 4.88005C5.20591 5.07309 5.14867 5.26179 5.04142 5.42229C4.93418 5.58279 4.78175 5.70789 4.60341 5.78176C4.42506 5.85563 4.22882 5.87496 4.0395 5.8373C3.85017 5.79964 3.67627 5.70668 3.53977 5.57019C3.40327 5.43369 3.31032 5.25979 3.27266 5.07046C3.235 4.88114 3.25433 4.68489 3.3282 4.50655C3.40207 4.32821 3.52717 4.17578 3.68767 4.06854C3.84817 3.96129 4.03687 3.90405 4.22991 3.90405C4.48876 3.90405 4.73701 4.00688 4.92004 4.18992C5.10308 4.37295 5.20591 4.6212 5.20591 4.88005Z" fill="black"/>
<path d="M6.501 1.30088e-05C5.2143 0.00119946 3.95682 0.383836 2.88754 1.09956C1.81826 1.81527 0.985178 2.83194 0.493598 4.02105C0.00201893 5.21015 -0.125986 6.5183 0.125766 7.78014C0.377517 9.04198 0.997721 10.2009 1.90798 11.1103C2.81824 12.0197 3.97768 12.6388 5.23976 12.8894C6.50183 13.14 7.80986 13.0108 8.99851 12.5181C10.1872 12.0254 11.2031 11.1914 11.9178 10.1215C12.6325 9.05154 13.014 7.79372 13.014 6.50701C13.0149 5.65174 12.847 4.80469 12.52 4.01441C12.1929 3.22414 11.7131 2.50618 11.1081 1.90169C10.503 1.2972 9.78463 0.818054 8.99406 0.491726C8.20348 0.165399 7.35628 -0.00169804 6.501 1.30088e-05V1.30088e-05ZM6.508 11.712C5.47855 11.712 4.47222 11.4067 3.61626 10.8348C2.7603 10.2629 2.09316 9.44997 1.69921 8.49888C1.30526 7.54779 1.20218 6.50124 1.40302 5.49157C1.60385 4.4819 2.09958 3.55445 2.82751 2.82652C3.55544 2.09859 4.48289 1.60286 5.49256 1.40203C6.50223 1.20119 7.54878 1.30427 8.49987 1.69822C9.45096 2.09217 10.2639 2.75931 10.8358 3.61527C11.4077 4.47123 11.713 5.47756 11.713 6.50701C11.7137 7.19073 11.5795 7.86786 11.3181 8.49966C11.0568 9.13146 10.6734 9.70551 10.19 10.189C9.7065 10.6724 9.13245 11.0558 8.50065 11.3171C7.86885 11.5785 7.19172 11.7127 6.508 11.712V11.712ZM6.508 9.11201C6.05274 9.11085 5.60576 8.99016 5.21178 8.76202C4.8178 8.53388 4.49063 8.20629 4.263 7.81201H3.176C3.43724 8.48312 3.89506 9.05968 4.48952 9.46619C5.08398 9.8727 5.78735 10.0902 6.5075 10.0902C7.22766 10.0902 7.93103 9.8727 8.52549 9.46619C9.11994 9.05968 9.57777 8.48312 9.839 7.81201H8.752C8.52408 8.20558 8.1969 8.53248 7.80314 8.76007C7.40938 8.98766 6.9628 9.10798 6.508 9.10901V9.11201Z" fill="black"/>
</svg>
