<svg width="12" height="13" viewBox="0 0 12 13" fill="none" xmlns="http://www.w3.org/2000/svg">
<path d="M1.614 1.11401H9.414C9.8419 1.11454 10.2521 1.28476 10.5547 1.58733C10.8573 1.8899 11.0275 2.30012 11.028 2.72801V10.528C11.0275 10.9559 10.8573 11.3661 10.5547 11.6687C10.2521 11.9713 9.8419 12.1415 9.414 12.142H1.614C1.40178 12.1418 1.1917 12.0997 0.995737 12.0182C0.799775 11.9368 0.621776 11.8175 0.471902 11.6673C0.322028 11.517 0.203215 11.3387 0.122246 11.1426C0.0412772 10.9464 -0.000261567 10.7362 1.23927e-06 10.524V2.72401C0.00158708 2.29681 0.172269 1.88762 0.474724 1.58591C0.777179 1.28421 1.1868 1.11454 1.614 1.11401ZM9.414 11.138C9.49463 11.138 9.57447 11.1221 9.64897 11.0913C9.72346 11.0604 9.79115 11.0152 9.84816 10.9582C9.90518 10.9012 9.95041 10.8335 9.98126 10.759C10.0121 10.6845 10.028 10.6046 10.028 10.524V2.72401C10.0275 2.64338 10.0111 2.56364 9.97974 2.48935C9.94839 2.41505 9.90273 2.34766 9.84534 2.29102C9.78795 2.23437 9.71997 2.18959 9.64528 2.15922C9.57058 2.12885 9.49063 2.11349 9.41 2.11401H1.61C1.44785 2.11507 1.2927 2.18023 1.17842 2.29526C1.06414 2.41029 0.999998 2.56586 1 2.72801V10.528C1 10.6909 1.06469 10.847 1.17984 10.9622C1.29498 11.0773 1.45116 11.142 1.614 11.142L9.414 11.138Z" fill="black"/>
<path d="M7.74023 3.228C7.60763 3.228 7.48045 3.17532 7.38668 3.08155C7.29291 2.98779 7.24023 2.86061 7.24023 2.728V0.5C7.24023 0.367392 7.29291 0.240215 7.38668 0.146447C7.48045 0.0526785 7.60763 0 7.74023 0C7.87284 0 8.00002 0.0526785 8.09379 0.146447C8.18756 0.240215 8.24023 0.367392 8.24023 0.5V2.728C8.24023 2.86061 8.18756 2.98779 8.09379 3.08155C8.00002 3.17532 7.87284 3.228 7.74023 3.228Z" fill="black"/>
<path d="M3.28418 3.228C3.15157 3.228 3.02439 3.17532 2.93063 3.08155C2.83686 2.98779 2.78418 2.86061 2.78418 2.728V0.5C2.78418 0.367392 2.83686 0.240215 2.93063 0.146447C3.02439 0.0526785 3.15157 0 3.28418 0C3.41679 0 3.54397 0.0526785 3.63773 0.146447C3.7315 0.240215 3.78418 0.367392 3.78418 0.5V2.728C3.78418 2.86061 3.7315 2.98779 3.63773 3.08155C3.54397 3.17532 3.41679 3.228 3.28418 3.228Z" fill="black"/>
<path d="M10.524 5.45496H0.5C0.367392 5.45496 0.240215 5.40228 0.146447 5.30851C0.0526785 5.21474 0 5.08756 0 4.95496C0 4.82235 0.0526785 4.69517 0.146447 4.6014C0.240215 4.50763 0.367392 4.45496 0.5 4.45496H10.524C10.6566 4.45496 10.7838 4.50763 10.8776 4.6014C10.9713 4.69517 11.024 4.82235 11.024 4.95496C11.024 5.08756 10.9713 5.21474 10.8776 5.30851C10.7838 5.40228 10.6566 5.45496 10.524 5.45496Z" fill="black"/>
</svg>
