<svg width="93" height="32" viewBox="0 0 93 32" fill="none" xmlns="http://www.w3.org/2000/svg">
<g clip-path="url(#clip0_236_16059)">
<path d="M66.3579 7.68254H68.1179C68.4779 7.69587 68.6979 7.78921 68.7779 7.96254C68.8446 8.08921 68.8779 8.27587 68.8779 8.52254V10.7225C68.8779 10.9359 68.7846 11.1392 68.5979 11.3325C68.0379 11.9125 67.1979 12.2025 66.0779 12.2025C65.0846 12.2025 64.2213 11.8292 63.4879 11.0825C62.7546 10.3292 62.3879 9.42254 62.3879 8.36254C62.3879 7.30254 62.7613 6.41921 63.5079 5.71254C64.2546 4.99921 65.1346 4.64254 66.1479 4.64254C66.9346 4.64254 67.6779 4.90254 68.3779 5.42254C68.5579 5.55587 68.6479 5.70587 68.6479 5.87254C68.6479 6.03254 68.5713 6.21921 68.4179 6.43254C68.1579 6.78587 67.9213 6.96254 67.7079 6.96254C67.5813 6.96254 67.3779 6.87254 67.0979 6.69254C66.8179 6.50587 66.4846 6.41254 66.0979 6.41254C65.5913 6.41254 65.1413 6.59254 64.7479 6.95254C64.3546 7.30587 64.1579 7.77254 64.1579 8.35254C64.1579 8.92587 64.3579 9.41587 64.7579 9.82254C65.1579 10.2225 65.6113 10.4225 66.1179 10.4225C66.4846 10.4225 66.8146 10.3625 67.1079 10.2425V9.15254H66.3179C66.1113 9.15254 65.9646 9.12587 65.8779 9.07254C65.7913 9.01921 65.7346 8.94254 65.7079 8.84254C65.6813 8.73587 65.6679 8.59587 65.6679 8.42254C65.6679 8.24254 65.6813 8.09921 65.7079 7.99254C65.7413 7.88587 65.7979 7.81254 65.8779 7.77254C65.9979 7.71254 66.1579 7.68254 66.3579 7.68254ZM73.1166 4.68254C74.1033 4.68254 74.9599 5.03921 75.6866 5.75254C76.4133 6.46587 76.7766 7.35254 76.7766 8.41254C76.7766 9.46587 76.4299 10.3659 75.7366 11.1125C75.0433 11.8525 74.1899 12.2225 73.1766 12.2225C72.1633 12.2225 71.2999 11.8559 70.5866 11.1225C69.8799 10.3892 69.5266 9.51587 69.5266 8.50254C69.5266 7.94921 69.6266 7.43254 69.8266 6.95254C70.0266 6.46587 70.2933 6.05921 70.6266 5.73254C70.9599 5.40587 71.3433 5.14921 71.7766 4.96254C72.2099 4.77587 72.6566 4.68254 73.1166 4.68254ZM71.2966 8.45254C71.2966 9.04587 71.4866 9.52921 71.8666 9.90254C72.2533 10.2692 72.6833 10.4525 73.1566 10.4525C73.6299 10.4525 74.0566 10.2725 74.4366 9.91254C74.8166 9.55254 75.0066 9.06921 75.0066 8.46254C75.0066 7.85587 74.8133 7.36921 74.4266 7.00254C74.0466 6.63587 73.6199 6.45254 73.1466 6.45254C72.6733 6.45254 72.2466 6.63921 71.8666 7.01254C71.4866 7.37921 71.2966 7.85921 71.2966 8.45254ZM80.8705 4.68254C81.8572 4.68254 82.7139 5.03921 83.4405 5.75254C84.1672 6.46587 84.5305 7.35254 84.5305 8.41254C84.5305 9.46587 84.1839 10.3659 83.4905 11.1125C82.7972 11.8525 81.9439 12.2225 80.9305 12.2225C79.9172 12.2225 79.0539 11.8559 78.3405 11.1225C77.6339 10.3892 77.2805 9.51587 77.2805 8.50254C77.2805 7.94921 77.3805 7.43254 77.5805 6.95254C77.7805 6.46587 78.0472 6.05921 78.3805 5.73254C78.7139 5.40587 79.0972 5.14921 79.5305 4.96254C79.9639 4.77587 80.4105 4.68254 80.8705 4.68254ZM79.0505 8.45254C79.0505 9.04587 79.2405 9.52921 79.6205 9.90254C80.0072 10.2692 80.4372 10.4525 80.9105 10.4525C81.3839 10.4525 81.8105 10.2725 82.1905 9.91254C82.5705 9.55254 82.7605 9.06921 82.7605 8.46254C82.7605 7.85587 82.5672 7.36921 82.1805 7.00254C81.8005 6.63587 81.3739 6.45254 80.9005 6.45254C80.4272 6.45254 80.0005 6.63921 79.6205 7.01254C79.2405 7.37921 79.0505 7.85921 79.0505 8.45254ZM86.0744 4.76254L87.9244 4.77254C88.8911 4.77254 89.7411 5.12254 90.4744 5.82254C91.2078 6.51587 91.5744 7.37254 91.5744 8.39254C91.5744 9.40587 91.2144 10.2759 90.4944 11.0025C89.7811 11.7292 88.9144 12.0925 87.8944 12.0925H86.0644C85.6578 12.0925 85.4044 12.0092 85.3044 11.8425C85.2244 11.7025 85.1844 11.4892 85.1844 11.2025V5.64254C85.1844 5.48254 85.1878 5.36587 85.1944 5.29254C85.2078 5.21921 85.2411 5.13254 85.2944 5.03254C85.3878 4.85254 85.6478 4.76254 86.0744 4.76254ZM87.9244 10.3225C88.4044 10.3225 88.8378 10.1459 89.2244 9.79254C89.6111 9.43254 89.8044 8.98254 89.8044 8.44254C89.8044 7.90254 89.6144 7.45254 89.2344 7.09254C88.8611 6.72587 88.4211 6.54254 87.9144 6.54254H86.9544V10.3225H87.9244Z" fill="white"/>
<path d="M68.809 22.9162C68.909 23.1562 68.959 23.3296 68.959 23.4362C68.959 23.6896 68.7523 23.9029 68.339 24.0762C68.1256 24.1696 67.9523 24.2163 67.819 24.2163C67.6923 24.2163 67.5856 24.1863 67.499 24.1262C67.419 24.0596 67.359 23.9929 67.319 23.9262C67.2523 23.7996 66.9923 23.1962 66.539 22.1162L66.229 22.1362H64.969V23.2662C64.969 23.4196 64.9623 23.5362 64.949 23.6162C64.9423 23.6896 64.9123 23.7762 64.859 23.8762C64.7656 24.0562 64.5056 24.1462 64.079 24.1462C63.6123 24.1462 63.339 24.0229 63.259 23.7762C63.219 23.6629 63.199 23.4896 63.199 23.2562V17.7062C63.199 17.5529 63.2023 17.4396 63.209 17.3662C63.2223 17.2862 63.2556 17.1962 63.309 17.0962C63.4023 16.9162 63.6623 16.8262 64.089 16.8262H66.249C66.8356 16.8262 67.4056 17.0396 67.959 17.4662C68.2256 17.6729 68.4456 17.9529 68.619 18.3062C68.7923 18.6596 68.879 19.0529 68.879 19.4862C68.879 20.2396 68.629 20.8596 68.129 21.3462C68.2756 21.6996 68.5023 22.2229 68.809 22.9162ZM64.969 20.3662H66.249C66.4423 20.3662 66.6356 20.2929 66.829 20.1462C67.0223 19.9996 67.119 19.7796 67.119 19.4862C67.119 19.1929 67.0223 18.9729 66.829 18.8262C66.6356 18.6729 66.4356 18.5962 66.229 18.5962H64.969V20.3662ZM72.8499 16.7362C73.8366 16.7362 74.6932 17.0929 75.4199 17.8062C76.1466 18.5196 76.5099 19.4062 76.5099 20.4662C76.5099 21.5196 76.1632 22.4196 75.4699 23.1662C74.7766 23.9062 73.9232 24.2763 72.9099 24.2763C71.8966 24.2763 71.0332 23.9096 70.3199 23.1762C69.6132 22.4429 69.2599 21.5696 69.2599 20.5562C69.2599 20.0029 69.3599 19.4862 69.5599 19.0062C69.7599 18.5196 70.0266 18.1129 70.3599 17.7862C70.6932 17.4596 71.0766 17.2029 71.5099 17.0162C71.9432 16.8296 72.3899 16.7362 72.8499 16.7362ZM71.0299 20.5062C71.0299 21.0996 71.2199 21.5829 71.5999 21.9562C71.9866 22.3229 72.4166 22.5062 72.8899 22.5062C73.3632 22.5062 73.7899 22.3262 74.1699 21.9662C74.5499 21.6062 74.7399 21.1229 74.7399 20.5162C74.7399 19.9096 74.5466 19.4229 74.1599 19.0562C73.7799 18.6896 73.3532 18.5063 72.8799 18.5063C72.4066 18.5063 71.9799 18.6929 71.5999 19.0662C71.2199 19.4329 71.0299 19.9129 71.0299 20.5062ZM80.8957 17.3462L83.5957 22.9262C83.7091 23.1529 83.7657 23.3229 83.7657 23.4362C83.7657 23.6762 83.5724 23.8929 83.1857 24.0862C82.9591 24.1996 82.7791 24.2563 82.6457 24.2563C82.5191 24.2563 82.4124 24.2263 82.3257 24.1663C82.2457 24.1062 82.1857 24.0429 82.1457 23.9762C82.1124 23.9096 82.0624 23.8096 81.9957 23.6762L81.4757 22.5962H78.7057L78.1857 23.6762C78.1191 23.8096 78.0657 23.9062 78.0257 23.9662C77.9924 24.0262 77.9324 24.0896 77.8457 24.1562C77.7657 24.2163 77.6591 24.2463 77.5257 24.2463C77.3991 24.2463 77.2224 24.1896 76.9957 24.0762C76.6091 23.8896 76.4157 23.6762 76.4157 23.4362C76.4157 23.3229 76.4724 23.1529 76.5857 22.9262L79.2857 17.3362C79.3591 17.1829 79.4691 17.0596 79.6157 16.9662C79.7691 16.8729 79.9291 16.8262 80.0957 16.8262C80.4557 16.8262 80.7224 16.9996 80.8957 17.3462ZM80.0857 19.7462L79.4257 21.1162H80.7557L80.0857 19.7462ZM85.2022 16.8162L87.0522 16.8262C88.0189 16.8262 88.8689 17.1762 89.6022 17.8762C90.3356 18.5696 90.7022 19.4262 90.7022 20.4462C90.7022 21.4596 90.3422 22.3296 89.6222 23.0562C88.9089 23.7829 88.0422 24.1462 87.0222 24.1462H85.1922C84.7856 24.1462 84.5322 24.0629 84.4322 23.8962C84.3522 23.7562 84.3122 23.5429 84.3122 23.2562V17.6962C84.3122 17.5362 84.3156 17.4196 84.3222 17.3462C84.3356 17.2729 84.3689 17.1862 84.4222 17.0862C84.5156 16.9062 84.7756 16.8162 85.2022 16.8162ZM87.0522 22.3762C87.5322 22.3762 87.9656 22.1996 88.3522 21.8462C88.7389 21.4862 88.9322 21.0362 88.9322 20.4962C88.9322 19.9562 88.7422 19.5062 88.3622 19.1462C87.9889 18.7796 87.5489 18.5962 87.0422 18.5962H86.0822V22.3762H87.0522Z" fill="white"/>
<path d="M25.9 31.6721C24.5205 31.6871 23.1547 31.3976 21.9 30.8241C21.3559 30.5584 20.9188 30.1149 20.661 29.5671C20.5259 29.2869 20.4278 28.9905 20.369 28.6851C20.3061 28.3589 20.2776 28.0271 20.284 27.6951L20.176 27.7221C19.551 27.8761 18.906 28.0361 18.203 28.1701C17.2943 28.286 16.3799 28.3528 15.464 28.3701H15.031C12.2284 28.4578 9.44397 27.8894 6.90001 26.7101C4.4991 25.4401 2.57794 23.4217 1.42801 20.9611C0.622439 19.2231 0.146702 17.3507 0.0250106 15.4391C-0.0429962 14.2882 0.0298772 13.1333 0.242011 12.0001C0.490826 10.6959 0.907982 9.42969 1.48301 8.23305C2.7018 5.78593 4.61759 3.75427 6.98901 2.39405C9.63651 1.04283 12.5773 0.367762 15.549 0.429052H16.111H16.648C18.7278 0.522774 20.7855 0.89544 22.766 1.53705C24.1977 2.00546 25.5623 2.65864 26.825 3.48005C26.859 3.45505 26.895 3.43105 26.932 3.40805L27.291 3.14105C29.2 1.72705 31.366 0.124052 33.042 0.00705229C33.116 0.00705229 33.191 5.22868e-05 33.265 5.22868e-05C33.799 -0.00295342 34.3257 0.12367 34.8 0.369052C35.0408 0.495268 35.2607 0.657843 35.452 0.851052C35.652 1.05451 35.8148 1.29142 35.933 1.55105C36.096 1.89347 36.2131 2.25594 36.281 2.62905C37.8731 2.16588 39.5113 1.87883 41.166 1.77305L41.566 1.74805C41.876 1.74105 42.184 1.73705 42.484 1.73705C43.5814 1.73373 44.6782 1.78714 45.77 1.89705C46.6857 1.98921 47.5946 2.13985 48.491 2.34805C49.2472 2.52416 49.9887 2.75818 50.709 3.04805C51.327 3.29828 51.922 3.6021 52.487 3.95605C53.4467 4.5561 54.2902 5.32441 54.977 6.22405C55.576 7.02237 56.0741 7.89162 56.46 8.81205C56.7451 9.52375 56.964 10.2602 57.114 11.0121C57.2658 11.8318 57.3135 12.6674 57.256 13.4991C57.0755 15.2532 56.3967 16.9191 55.3 18.3001C54.5456 19.371 53.6102 20.3023 52.536 21.0521C53.2583 21.8474 54.1333 22.4892 55.109 22.9391C55.7029 23.1936 56.2377 23.5681 56.68 24.0391C56.9098 24.3167 57.0697 24.6453 57.1464 24.9975C57.2232 25.3496 57.2144 25.715 57.121 26.0631C56.8554 26.794 56.4267 27.4549 55.8676 27.9955C55.3084 28.536 54.6335 28.9422 53.894 29.1831C52.7726 29.6615 51.5845 29.965 50.371 30.0831C50.211 30.0941 50.052 30.1001 49.897 30.1001C48.764 30.1093 47.6567 29.7619 46.732 29.1071C45.6994 28.2265 44.8251 27.1756 44.147 26.0001L44.141 25.9911C43.966 25.7261 43.767 25.4261 43.641 25.2541C43.5569 25.2419 43.472 25.2362 43.387 25.2371C43.326 25.2371 43.26 25.2371 43.187 25.2441C42.5369 25.3129 41.8998 25.4739 41.295 25.7221C41.4159 26.3305 41.4974 26.9461 41.539 27.5651C41.573 27.9905 41.5475 28.4187 41.463 28.8371C41.302 29.3522 41.0022 29.8129 40.5965 30.1688C40.1907 30.5246 39.6947 30.7617 39.163 30.8541L39.046 30.8741C38.4668 30.9803 37.8823 31.0558 37.295 31.1001C37.015 31.1201 36.742 31.1291 36.483 31.1291C35.3716 31.1899 34.2673 30.9173 33.312 30.3461C32.8536 29.9953 32.4809 29.545 32.222 29.0291C31.842 29.5349 31.3787 29.9724 30.852 30.3231C30.282 30.6986 29.6591 30.9871 29.004 31.1791C28.1347 31.4951 27.2189 31.6641 26.294 31.6791L25.9 31.6721ZM21.248 25.9471C21.3665 25.9381 21.4856 25.9537 21.5978 25.993C21.71 26.0322 21.8129 26.0942 21.9 26.1751C22.119 26.4381 22.074 26.7021 22 27.1381C21.988 27.2071 21.976 27.2771 21.964 27.3541C21.8636 27.759 21.8933 28.1852 22.0487 28.5724C22.2041 28.9595 22.4775 29.2879 22.83 29.5111C23.7909 29.9591 24.8433 30.1759 25.903 30.1441H26.282C27.0686 30.1485 27.8507 30.0256 28.598 29.7801C29.236 29.632 29.8305 29.3367 30.334 28.9179C30.8375 28.4991 31.2362 27.9684 31.498 27.3681C31.582 27.1861 31.675 26.9831 31.774 26.7681C31.8202 26.6632 31.896 26.5741 31.9921 26.5118C32.0882 26.4494 32.2004 26.4165 32.315 26.4171H32.343C32.4206 26.4123 32.4982 26.4245 32.5706 26.4529C32.6429 26.4812 32.7083 26.5249 32.762 26.5811C32.9138 26.7708 33.0371 26.9817 33.128 27.2071V27.2201C33.2863 27.6476 33.4817 28.0605 33.712 28.4541C33.8361 28.6811 34.0036 28.8816 34.205 29.0441C34.9 29.4273 35.6901 29.6035 36.482 29.5521C36.706 29.5521 36.944 29.5431 37.189 29.5261C37.7216 29.4854 38.2517 29.4166 38.777 29.3201L38.905 29.2981C39.1305 29.2533 39.3418 29.1547 39.5208 29.0105C39.6999 28.8663 39.8413 28.6808 39.933 28.4701C40.0243 27.6043 39.9541 26.7292 39.726 25.8891C39.6737 25.5777 39.7188 25.2578 39.855 24.9731L39.862 24.9641C39.9536 24.7765 40.0938 24.6169 40.268 24.5021C40.6924 24.2509 41.1523 24.0652 41.632 23.9511C42.1061 23.8155 42.5914 23.7228 43.082 23.6741C43.188 23.6671 43.292 23.6631 43.391 23.6631C43.7297 23.6549 44.0666 23.713 44.383 23.8341L44.512 23.8871L44.612 23.9811C44.9348 24.3344 45.2194 24.7209 45.461 25.1341C46.0378 26.1271 46.7613 27.0272 47.607 27.8041C48.2752 28.2886 49.0817 28.545 49.907 28.5351C50.024 28.5351 50.145 28.5351 50.268 28.5221C51.3125 28.4125 52.3346 28.1465 53.3 27.7331C55.169 26.9331 55.529 25.9771 55.594 25.7031C55.6286 25.5942 55.6361 25.4784 55.6157 25.366C55.5953 25.2536 55.5477 25.1478 55.477 25.0581C55.1633 24.7583 54.7968 24.5193 54.396 24.3531C53.1702 23.777 52.0808 22.947 51.2 21.9181C51.0248 21.7161 50.8685 21.4985 50.733 21.2681L50.35 20.6171L50.984 20.2071C52.1786 19.4739 53.2146 18.5093 54.031 17.3701C54.9439 16.2281 55.5159 14.8517 55.681 13.3991C55.77 12.0344 55.5367 10.6679 55 9.41005C53.682 6.39505 51.165 3.31005 42.491 3.31005C42.209 3.31005 41.917 3.31005 41.624 3.32005L41.276 3.34205C39.4669 3.4613 37.6799 3.80735 35.957 4.37205L35.857 4.40405H35.749H35.716C35.068 4.40405 34.938 3.81905 34.823 3.30405C34.7563 2.95459 34.6623 2.61088 34.542 2.27605C34.4244 2.05504 34.2465 1.87194 34.0289 1.74803C33.8114 1.62412 33.5631 1.56449 33.313 1.57605C33.279 1.57605 33.244 1.57605 33.213 1.57605C31.94 1.66405 29.798 3.24905 28.233 4.40705L28.155 4.46405C27.8028 4.80952 27.4813 5.18493 27.194 5.58605C27.185 5.57905 26.244 4.86805 25.523 4.45105C22.8004 2.89448 19.735 2.03564 16.6 1.95105H16.115H15.58C9.29301 2.06605 5.36701 4.21505 2.84601 8.92205C1.98593 10.6964 1.53661 12.6418 1.53142 14.6136C1.52623 16.5855 1.96529 18.5332 2.81601 20.3121C3.82987 22.4769 5.5221 24.2519 7.63601 25.3681C9.95793 26.4175 12.4892 26.9217 15.036 26.8421H15.442C16.3004 26.827 17.1573 26.7656 18.009 26.6581C18.6983 26.5512 19.3803 26.4016 20.051 26.2101C20.338 26.135 20.634 26.0571 20.964 25.9761C21.0586 25.958 21.1547 25.9483 21.251 25.9471H21.248Z" fill="white"/>
<path d="M44.3771 12.0486C44.3771 11.3869 43.8409 10.8506 43.1796 10.8506C42.5182 10.8506 41.9821 11.3869 41.9821 12.0486V15.5836C41.9821 16.2452 42.5182 16.7816 43.1796 16.7816C43.8409 16.7816 44.3771 16.2452 44.3771 15.5836V12.0486Z" fill="white"/>
<path d="M50.878 12.0486C50.878 11.3869 50.3419 10.8506 49.6805 10.8506C49.0192 10.8506 48.483 11.3869 48.483 12.0486V15.5836C48.483 16.2452 49.0192 16.7816 49.6805 16.7816C50.3419 16.7816 50.878 16.2452 50.878 15.5836V12.0486Z" fill="white"/>
<path d="M31.314 27.7553C31.7379 26.9366 31.9445 26.0228 31.914 25.1013L31.928 24.7253C31.928 24.3253 31.934 23.7813 31.914 23.1503L31.897 22.5913L32.424 22.4053C33.0382 22.2111 33.6195 21.9248 34.148 21.5563C34.9684 21.0914 35.599 20.3525 35.9292 19.4691C36.2594 18.5858 36.2682 17.6144 35.954 16.7253C35.8111 15.9867 35.4404 15.3114 34.894 14.7943C34.5367 14.5345 34.1036 14.3998 33.662 14.4113C33.0584 14.4385 32.4633 14.5638 31.9 14.7823L31.832 14.8053L31.593 14.8933C31.593 14.8933 31.145 15.0823 31.049 15.1103C31.0077 15.1267 30.9629 15.1319 30.919 15.1252C30.8751 15.1186 30.8338 15.1004 30.7993 15.0725C30.7648 15.0446 30.7383 15.008 30.7226 14.9665C30.7069 14.925 30.7026 14.8801 30.71 14.8363C30.729 14.5633 30.753 14.0363 30.753 14.0363C30.8906 11.3959 30.0344 8.79975 28.353 6.75931C27.8238 6.13715 27.2214 5.58113 26.559 5.10331L28.183 4.44531C28.6711 4.85119 29.1222 5.29962 29.531 5.78531C31.2245 7.84652 32.1936 10.4073 32.289 13.0733C32.736 12.954 33.1963 12.8909 33.659 12.8853C34.4539 12.8752 35.229 13.1334 35.859 13.6183C36.645 14.3291 37.1891 15.2679 37.415 16.3033C37.8181 17.4968 37.8009 18.7924 37.3661 19.9747C36.9314 21.1571 36.1053 22.1552 35.025 22.8033C34.54 23.1566 34.0091 23.4423 33.447 23.6523C33.453 24.0753 33.447 24.4433 33.447 24.7363V24.9773C33.4531 25.7922 33.3272 26.6027 33.074 27.3773L31.323 27.8543L31.314 27.7553Z" fill="white"/>
<path d="M19.398 10.1748C19.7019 10.1748 19.9934 10.2955 20.2083 10.5105C20.4232 10.7254 20.544 11.0169 20.544 11.3208V14.7038C20.544 15.0077 20.4232 15.2992 20.2083 15.5141C19.9934 15.7291 19.7019 15.8498 19.398 15.8498C19.094 15.8498 18.8025 15.7291 18.5876 15.5141C18.3727 15.2992 18.252 15.0077 18.252 14.7038V11.3208C18.252 11.0169 18.3727 10.7254 18.5876 10.5105C18.8025 10.2955 19.094 10.1748 19.398 10.1748V10.1748Z" fill="white"/>
<path d="M25.619 10.1748C25.923 10.1748 26.2145 10.2955 26.4294 10.5105C26.6443 10.7254 26.765 11.0169 26.765 11.3208V14.7038C26.765 15.0077 26.6443 15.2992 26.4294 15.5141C26.2145 15.7291 25.923 15.8498 25.619 15.8498C25.3151 15.8498 25.0236 15.7291 24.8087 15.5141C24.5938 15.2992 24.473 15.0077 24.473 14.7038V11.3208C24.473 11.0169 24.5938 10.7254 24.8087 10.5105C25.0236 10.2955 25.3151 10.1748 25.619 10.1748V10.1748Z" fill="white"/>
<path d="M21.7912 21.0814C19.9385 21.1338 18.0854 20.9899 16.2629 20.652L16.0294 20.6091C15.1732 20.4788 14.3295 20.2762 13.5076 20.0033C12.299 19.6439 11.1667 19.0655 10.1671 18.2969C10.0116 18.1671 9.91402 17.9808 9.89588 17.779C9.87775 17.5773 9.9405 17.3766 10.0703 17.2211C10.2002 17.0656 10.3865 16.968 10.5882 16.9499C10.79 16.9318 10.9907 16.9945 11.1462 17.1244C12.0025 17.7732 12.9705 18.2597 14.0021 18.5597C14.7434 18.8053 15.5044 18.9872 16.2767 19.1031C16.4497 19.1311 16.5626 19.1551 16.604 19.1667C18.895 19.5277 21.2213 19.6104 23.5322 19.413C25.0846 19.4361 26.6168 19.0597 27.9819 18.3199C28.1367 18.2366 28.2842 18.1404 28.4229 18.0324C29.0834 17.5626 29.6367 16.9579 30.0462 16.2583C30.4556 15.5588 30.712 14.7803 30.7983 13.9743C31.0136 13.0666 31.0759 13.3314 31.492 13.3329C31.6936 13.3328 31.8871 13.4128 32.0299 13.5552C32.1727 13.6975 32.2532 13.8907 32.2538 14.0924C32.2583 14.2212 31.8241 17.7592 29.0966 19.4191C27.3137 20.3686 25.3417 20.9092 23.3238 21.0017C22.8397 21.0327 22.3307 21.0625 21.7912 21.0814Z" fill="white"/>
</g>
<defs>
<clipPath id="clip0_236_16059">
<rect width="92.798" height="31.672" fill="white"/>
</clipPath>
</defs>
</svg>
