<svg width="14" height="16" viewBox="0 0 14 16" fill="none" xmlns="http://www.w3.org/2000/svg">
<path d="M0.4375 14.0939C0.4375 14.8702 1.06738 15.5001 1.84375 15.5001H12.1562C12.9326 15.5001 13.5625 14.8702 13.5625 14.0939V6.12512H0.4375V14.0939ZM9.8125 8.35168C9.8125 8.15832 9.9707 8.00012 10.1641 8.00012H11.3359C11.5293 8.00012 11.6875 8.15832 11.6875 8.35168V9.52356C11.6875 9.71692 11.5293 9.87512 11.3359 9.87512H10.1641C9.9707 9.87512 9.8125 9.71692 9.8125 9.52356V8.35168ZM9.8125 12.1017C9.8125 11.9083 9.9707 11.7501 10.1641 11.7501H11.3359C11.5293 11.7501 11.6875 11.9083 11.6875 12.1017V13.2736C11.6875 13.4669 11.5293 13.6251 11.3359 13.6251H10.1641C9.9707 13.6251 9.8125 13.4669 9.8125 13.2736V12.1017ZM6.0625 8.35168C6.0625 8.15832 6.2207 8.00012 6.41406 8.00012H7.58594C7.7793 8.00012 7.9375 8.15832 7.9375 8.35168V9.52356C7.9375 9.71692 7.7793 9.87512 7.58594 9.87512H6.41406C6.2207 9.87512 6.0625 9.71692 6.0625 9.52356V8.35168ZM6.0625 12.1017C6.0625 11.9083 6.2207 11.7501 6.41406 11.7501H7.58594C7.7793 11.7501 7.9375 11.9083 7.9375 12.1017V13.2736C7.9375 13.4669 7.7793 13.6251 7.58594 13.6251H6.41406C6.2207 13.6251 6.0625 13.4669 6.0625 13.2736V12.1017ZM2.3125 8.35168C2.3125 8.15832 2.4707 8.00012 2.66406 8.00012H3.83594C4.0293 8.00012 4.1875 8.15832 4.1875 8.35168V9.52356C4.1875 9.71692 4.0293 9.87512 3.83594 9.87512H2.66406C2.4707 9.87512 2.3125 9.71692 2.3125 9.52356V8.35168ZM2.3125 12.1017C2.3125 11.9083 2.4707 11.7501 2.66406 11.7501H3.83594C4.0293 11.7501 4.1875 11.9083 4.1875 12.1017V13.2736C4.1875 13.4669 4.0293 13.6251 3.83594 13.6251H2.66406C2.4707 13.6251 2.3125 13.4669 2.3125 13.2736V12.1017ZM12.1562 2.37512H10.75V0.968872C10.75 0.71106 10.5391 0.500122 10.2812 0.500122H9.34375C9.08594 0.500122 8.875 0.71106 8.875 0.968872V2.37512H5.125V0.968872C5.125 0.71106 4.91406 0.500122 4.65625 0.500122H3.71875C3.46094 0.500122 3.25 0.71106 3.25 0.968872V2.37512H1.84375C1.06738 2.37512 0.4375 3.005 0.4375 3.78137V5.18762H13.5625V3.78137C13.5625 3.005 12.9326 2.37512 12.1562 2.37512Z" fill="#573300"/>
</svg>
