<svg width="13" height="13" viewBox="0 0 13 13" fill="none" xmlns="http://www.w3.org/2000/svg">
<path d="M12.75 6.5C12.75 9.95255 9.95154 12.75 6.5 12.75C3.04846 12.75 0.25 9.95255 0.25 6.5C0.25 3.04947 3.04846 0.25 6.5 0.25C9.95154 0.25 12.75 3.04947 12.75 6.5ZM6.5 7.76008C5.85975 7.76008 5.34073 8.27911 5.34073 8.91935C5.34073 9.5596 5.85975 10.0786 6.5 10.0786C7.14025 10.0786 7.65927 9.5596 7.65927 8.91935C7.65927 8.27911 7.14025 7.76008 6.5 7.76008ZM5.39937 3.5931L5.58632 7.02051C5.59506 7.1809 5.72767 7.30645 5.88828 7.30645H7.11172C7.27233 7.30645 7.40494 7.1809 7.41368 7.02051L7.60063 3.5931C7.61008 3.41986 7.47215 3.27419 7.29866 3.27419H5.70131C5.52782 3.27419 5.38992 3.41986 5.39937 3.5931Z" fill="#AB9980"/>
</svg>
