<svg width="38" height="38" viewBox="0 0 38 38" fill="none" xmlns="http://www.w3.org/2000/svg">
<path d="M32.9946 20.8985C33.537 19.98 33.8438 19.0003 33.8438 17.8159C33.8438 15.0936 31.5419 12.5229 28.5359 12.5229H26.2796C26.5839 11.7306 26.827 10.7831 26.827 9.64443C26.827 5.1422 24.4959 3.16699 20.9346 3.16699C17.1243 3.16699 17.3416 9.0385 16.4964 9.88379C15.0895 11.2907 13.4277 13.9935 12.2436 15.042H6.13542C5.04236 15.042 4.15625 15.9281 4.15625 17.0212V31.8649C4.15625 32.958 5.04236 33.8441 6.13542 33.8441H10.0938C11.0149 33.8441 11.7889 33.2148 12.0097 32.3628C14.7625 32.4247 16.6521 34.833 23.0066 34.833C23.4531 34.833 23.9479 34.8337 24.3809 34.8337C29.1505 34.8337 31.3071 32.3954 31.3661 28.9376C32.1898 27.798 32.6216 26.2705 32.4385 24.7943C33.048 23.6531 33.2836 22.2992 32.9946 20.8985ZM29.1754 24.2278C29.9522 25.5347 29.2533 27.2838 28.3132 27.7884C28.7895 30.8054 27.2242 31.8643 25.0278 31.8643H22.6887C18.2579 31.8643 15.3887 29.5252 12.0729 29.5252V18.0107H12.7483C14.5023 18.0107 16.9528 13.6263 18.5955 11.9829C20.3495 10.2289 19.7651 7.30531 20.9346 6.13574C23.8582 6.13574 23.8582 8.17552 23.8582 9.64443C23.8582 12.0671 22.1042 13.1525 22.1042 15.4916H28.5359C29.8415 15.4916 30.8694 16.6612 30.875 17.8308C30.8806 18.9997 30.0821 20.1693 29.4976 20.1693C30.3319 21.0695 30.5102 22.9671 29.1754 24.2278ZM9.59896 29.8857C9.59896 30.7056 8.93439 31.3701 8.11458 31.3701C7.29478 31.3701 6.63021 30.7056 6.63021 29.8857C6.63021 29.0659 7.29478 28.4014 8.11458 28.4014C8.93439 28.4014 9.59896 29.0659 9.59896 29.8857Z" fill="#573300"/>
</svg>
