<svg width="24" height="22" viewBox="0 0 24 22" fill="none" xmlns="http://www.w3.org/2000/svg">
<path d="M10.484 0C12.5575 0 14.5845 0.582514 16.3086 1.67388C18.0327 2.76524 19.3764 4.31644 20.17 6.13132C20.9635 7.94619 21.1711 9.94323 20.7666 11.8699C20.362 13.7965 19.3635 15.5663 17.8973 16.9553C16.4311 18.3444 14.563 19.2903 12.5293 19.6736C10.4956 20.0568 8.38765 19.8601 6.47195 19.1084C4.55625 18.3566 2.91887 17.0836 1.76687 15.4503C0.614876 13.8169 0 11.8966 0 9.93221C0.0042318 7.29926 1.11015 4.77529 3.07537 2.91351C5.04058 1.05172 7.70477 0.00400907 10.484 0ZM10.484 17.0233C11.9642 17.0233 13.4111 16.6075 14.6418 15.8284C15.8725 15.0494 16.8317 13.9421 17.3982 12.6466C17.9647 11.3512 18.113 9.92562 17.8243 8.55029C17.5356 7.17498 16.8229 5.91164 15.7763 4.92003C14.7298 3.92842 13.3964 3.25308 11.9447 2.9794C10.493 2.70572 8.98823 2.846 7.62069 3.38248C6.25315 3.91897 5.08424 4.82758 4.26177 5.99342C3.43929 7.15925 3.0002 8.52996 3 9.93221C3.00212 11.8121 3.79126 13.6144 5.19429 14.9438C6.59733 16.2732 8.49968 17.021 10.484 17.0233Z" fill="#573300"/>
<path d="M21.7147 21.9931C21.5177 21.9932 21.3226 21.9565 21.1406 21.8851C20.9585 21.8138 20.7931 21.7091 20.6537 21.5772L15.7687 16.9493C15.4955 16.6813 15.3443 16.3223 15.3477 15.9497C15.3511 15.5771 15.5089 15.2207 15.787 14.9572C16.0651 14.6938 16.4413 14.5443 16.8346 14.5411C17.2279 14.5378 17.6068 14.6811 17.8897 14.9399L22.7757 19.5678C22.9853 19.7666 23.128 20.0198 23.1857 20.2954C23.2434 20.571 23.2137 20.8566 23.1001 21.1161C22.9866 21.3757 22.7943 21.5975 22.5478 21.7536C22.3012 21.9097 22.0113 21.993 21.7147 21.9931Z" fill="#573300"/>
</svg>
