<svg width="15" height="16" viewBox="0 0 15 16" fill="none" xmlns="http://www.w3.org/2000/svg">
<path d="M13.9984 4.2326L12.7049 5.60618C12.6415 5.67338 12.5555 5.71113 12.4658 5.71113C12.3761 5.71113 12.2901 5.67338 12.2267 5.60618L9.10564 2.29829C9.04224 2.23107 9.00662 2.1399 9.00662 2.04485C9.00662 1.9498 9.04224 1.85863 9.10564 1.79141L10.4053 0.417829C10.6589 0.150236 11.0022 0 11.36 0C11.7178 0 12.0611 0.150236 12.3146 0.417829L13.9984 2.209C14.124 2.34172 14.2237 2.49942 14.2917 2.67304C14.3597 2.84667 14.3947 3.03281 14.3947 3.2208C14.3947 3.40879 14.3597 3.59493 14.2917 3.76855C14.2237 3.94218 14.124 4.09987 13.9984 4.2326ZM7.98806 2.97195L0.606121 10.7985L0.0101639 14.4202C-0.00858374 14.5334 -0.00132181 14.6498 0.0313352 14.7594C0.0639922 14.869 0.121083 14.9687 0.197777 15.05C0.274471 15.1312 0.368511 15.1918 0.47194 15.2264C0.575368 15.261 0.685142 15.2687 0.791971 15.2488L4.21036 14.6145L11.5948 6.78803C11.6582 6.72081 11.6938 6.62964 11.6938 6.53459C11.6938 6.43954 11.6582 6.34838 11.5948 6.28115L8.47251 2.97195C8.40866 2.90459 8.32224 2.86678 8.23215 2.86678C8.14206 2.86678 8.05563 2.90459 7.99178 2.97195H7.98806ZM3.48927 10.1287C3.45252 10.0902 3.42335 10.0442 3.40344 9.99364C3.38353 9.94304 3.37328 9.88876 3.37328 9.83394C3.37328 9.77912 3.38353 9.72483 3.40344 9.67423C3.42335 9.62363 3.45252 9.57771 3.48927 9.53913L7.82575 4.94302C7.90083 4.87199 7.9987 4.83409 8.0993 4.83711C8.1999 4.84013 8.29559 4.88383 8.36675 4.95925C8.43791 5.03468 8.47915 5.1361 8.482 5.24272C8.48484 5.34934 8.44909 5.45307 8.38206 5.53264L4.04558 10.1287C4.00917 10.1677 3.96585 10.1986 3.91811 10.2197C3.87036 10.2408 3.81915 10.2517 3.76742 10.2517C3.71569 10.2517 3.66448 10.2408 3.61674 10.2197C3.56899 10.1986 3.52567 10.1677 3.48927 10.1287ZM2.47577 12.6343H3.8238V13.7163L2.0099 14.0525L1.13517 13.1241L1.45236 11.2016H2.47577V12.6343Z" fill="black" fill-opacity="0.5"/>
</svg>
