<svg width="14" height="14" viewBox="0 0 14 14" fill="none" xmlns="http://www.w3.org/2000/svg">
<path d="M12.2383 0.333008H1.76207C0.973079 0.333008 0.333496 0.972591 0.333496 1.76158V12.2378C0.333496 13.0268 0.973079 13.6663 1.76207 13.6663H12.2383C13.0272 13.6663 13.6668 13.0268 13.6668 12.2378V1.76158C13.6668 0.972591 13.0272 0.333008 12.2383 0.333008ZM12.2383 12.2378H1.76207V1.76158H12.2383V12.2378ZM11.1709 5.0436L6.0343 10.139C5.89427 10.2779 5.66814 10.277 5.52924 10.1369L2.82742 7.41325C2.68853 7.27322 2.68942 7.04709 2.82948 6.90816L3.50564 6.23744C3.64567 6.09854 3.8718 6.09944 4.0107 6.2395L5.79022 8.03345L9.99713 3.86036C10.1372 3.72146 10.3633 3.72235 10.5022 3.86238L11.1729 4.53851C11.3118 4.67857 11.3109 4.9047 11.1709 5.0436Z" fill="#573300"/>
</svg>
