<svg width="1920" height="1371" viewBox="0 0 1920 1371" fill="none" xmlns="http://www.w3.org/2000/svg">
<g clip-path="url(#clip0_81:29767)">
<path d="M136.77 408.641C124.078 394.029 108.764 372.556 107.88 353.241C106.806 329.787 137.844 296.751 156.44 279.143C159.834 275.003 164.281 269.987 168.845 264.835C183.808 247.942 199.282 230.474 210.907 208.739C251.048 133.699 282.756 74.4251 332.421 89.7944L338.391 91.5738C367.151 100.107 399.746 109.78 413.665 125.803C422.674 136.261 427.803 152.583 420.085 166.814C418.959 169.673 415.925 173.64 411.932 178.421C428.639 190.944 443.932 205.251 457.54 221.087L460.801 224.898C541.418 327.072 527.181 385.274 502.644 428.771C492.046 445.714 481.12 459.395 461.436 472.377C436.604 488.762 406.705 489.377 398.134 489.175C383.425 489.926 366.97 487.598 349.527 482.244C346.174 499.889 348.235 511.768 350.064 522.31C351.491 530.538 352.84 538.311 350.929 546.521C348.85 555.451 342.769 562.515 333.805 566.412C319.09 572.809 298.664 569.584 277.767 557.566C262.026 547.989 250.359 538.652 241.884 528.895C227.564 512.409 224.85 497.326 224.084 484.745C223.219 470.507 230.503 449.963 235.821 434.962C237.134 431.258 238.692 426.865 239.472 424.243C238.551 422.617 237.456 421.096 236.204 419.708C230.332 412.947 221.263 406.753 217.144 404.336C204.901 417.786 194.919 426.203 187.058 429.627C173.887 435.368 157.687 429.84 149.137 421.723C147.14 419.827 142.363 415.08 136.77 408.641ZM398.904 139.544C388.37 127.416 356.173 117.863 332.66 110.885L326.553 109.068C294.309 99.0899 268.355 144.057 228.669 218.24C215.925 242.062 198.923 261.257 183.922 278.193C179.475 283.213 175.143 288.102 171.07 292.942C144.914 317.798 127.526 341.874 128.003 352.321C128.479 362.725 137.217 378.438 151.977 395.431C156.968 401.177 161.224 405.424 163.001 407.11C166.607 410.532 174.551 413.1 179.009 411.157C181.4 410.116 188.559 405.924 203.415 389.511C206.166 386.619 209.736 384.637 213.645 383.83L213.682 383.787L213.879 383.786C216.319 383.32 218.837 383.471 221.205 384.224C229.941 386.805 245.213 399.352 251.414 406.491C255.755 411.488 258.464 416.189 259.698 420.861L260.155 422.585L259.992 424.358C259.67 427.868 258.083 432.46 254.811 441.689C250.338 454.306 243.579 473.371 244.192 483.516C244.741 492.523 246.234 503.179 257.092 515.679C264.086 523.73 274.493 531.989 288.026 540.226C310.177 552.962 322.525 549.35 325.778 547.936C328.837 546.604 330.695 544.593 331.316 541.951C332.3 537.724 331.383 532.439 330.222 525.75C328.203 514.117 325.44 498.186 330.427 475.114C331.134 471.811 332.142 468.58 333.44 465.462L337.143 456.546L346.205 459.869C364.905 466.727 382.289 469.813 397.873 469.041C413.224 469.377 434.491 466.023 450.339 455.561C467.043 444.54 476.112 433.201 485.333 418.475C506.351 381.197 518.23 330.202 445.195 237.633L442.333 234.301C427.41 216.979 410.369 201.6 391.613 188.525L390.492 187.719L389.628 186.641C384.226 179.894 389.256 173.998 393.693 168.796C395.878 166.236 400.996 160.238 401.928 158.158C405.498 151.46 402.773 144.025 398.914 139.557L398.904 139.544Z" fill="#FFF7E8"/>
<path d="M388.136 303.386C390.547 306.586 391.588 310.613 391.03 314.58C390.472 318.547 388.361 322.131 385.161 324.541L349.543 351.374C346.343 353.785 342.317 354.826 338.349 354.268C334.382 353.71 330.799 351.599 328.388 348.399C325.978 345.199 324.937 341.172 325.495 337.205C326.053 333.238 328.164 329.655 331.364 327.244L366.981 300.411C370.181 298 374.208 296.959 378.175 297.517C382.142 298.075 385.726 300.186 388.136 303.386Z" fill="#FFF7E8"/>
<path d="M437.476 368.877C439.886 372.077 440.927 376.104 440.369 380.071C439.811 384.038 437.7 387.621 434.5 390.032L398.883 416.865C395.683 419.276 391.656 420.317 387.689 419.759C383.722 419.201 380.138 417.089 377.728 413.89C375.317 410.69 374.276 406.663 374.834 402.696C375.392 398.728 377.503 395.145 380.703 392.735L416.321 365.901C419.521 363.491 423.547 362.45 427.515 363.008C431.482 363.566 435.065 365.677 437.476 368.877Z" fill="#FFF7E8"/>
<path d="M1972.68 1093.62C1951.46 1113.41 1927.92 1124.94 1914.21 1128.8C1894.15 1134.93 1873.94 1128.52 1858.59 1111.56C1852.51 1120.87 1845.93 1129.86 1838.89 1138.48C1829.11 1150.22 1818.7 1161.43 1807.7 1172.06L1802.47 1177.03C1763.38 1213.48 1720.34 1239.81 1684.38 1249.27C1637.88 1260.94 1595.92 1258.42 1552.18 1241.38C1502.2 1220.74 1436.84 1177.03 1407.94 1085.48C1382.32 988.762 1407.92 910.201 1490.79 830.176L1497.59 823.722L1504.19 817.662C1608.7 729.992 1697.76 733.782 1722.58 737.024C1766.7 742.905 1807.67 763.129 1839.17 794.581C1843.27 788.038 1848.17 782.031 1853.76 776.698C1863.34 767.512 1875.75 761.832 1888.97 760.578C1911.22 760.119 1923.26 766.964 1938.52 775.63C1978.63 800.787 1994.37 838.518 1983.32 882.159C1982.15 889.757 1978.89 899.451 1973.73 910.476C1978.61 915.566 1982.78 920.092 1986.09 923.681L1988.82 926.641C2024.19 964.765 2029.89 1009.37 2004.87 1052.24C1997.92 1065.15 1990.47 1076.56 1977.45 1089.14L1972.68 1093.62L1972.68 1093.62ZM1872.82 1088.47C1878.14 1096.43 1889.95 1109.55 1907.03 1104.34C1915.52 1101.94 1936.13 1092.85 1955.29 1074.98L1959.89 1070.66C1970.43 1060.48 1976.43 1051.27 1982.64 1039.77C2002.26 1006.11 1997.99 974.011 1970.13 943.978L1967.33 940.955C1962.83 936.063 1956.67 929.369 1949.24 921.888L1942.67 915.267L1946.99 906.998C1953.2 895.13 1957.14 884.762 1958.37 877.02C1966.95 842.93 1955.79 816.558 1925.44 797.51C1912.24 790.021 1904.7 785.74 1890.53 786.003C1883.64 786.772 1877.13 789.763 1871.14 795.346C1865.63 800.485 1860.45 807.779 1854.41 818.924C1864.18 837.383 1876.72 870.328 1867.07 904.715C1856.18 938.998 1836.36 966.072 1814.6 989.741C1809.04 995.657 1803.17 1001.82 1796.8 1008.19C1773.55 1030.83 1757.28 1043.89 1724.4 1065.88L1721.07 1068.02C1714.85 1072.17 1700.27 1081.87 1683.38 1089.33C1666.08 1097.12 1645.34 1105.28 1623.17 1106.49C1619.8 1106.68 1616.49 1105.51 1613.97 1103.26C1611.45 1101 1609.93 1097.84 1609.75 1094.46C1609.56 1091.09 1610.72 1087.78 1612.98 1085.26C1615.24 1082.74 1618.4 1081.22 1621.78 1081.04C1639.72 1080.05 1657 1073.25 1672.99 1066.05C1687.96 1059.43 1700.78 1050.9 1706.94 1046.8C1709.37 1045.18 1711.03 1044.17 1711.66 1043.86C1751.87 1016.84 1776.95 991.537 1799.06 968.006C1818.99 946.329 1832.69 929.688 1842.07 900.187C1842.12 899.941 1842.87 896.657 1843.05 895.482C1850.47 854.938 1835.27 835.272 1825.87 818.879C1825.18 817.661 1824.58 816.573 1824.06 815.599C1796.23 786.418 1759.26 767.615 1719.28 762.302C1697.07 759.401 1617.12 756.207 1520.93 836.885L1514.98 842.366L1508.5 848.515C1433.07 921.35 1409.61 992.243 1432.42 1078.38C1458.2 1159.97 1516.95 1199.25 1561.67 1217.72C1600 1232.65 1637.05 1234.86 1678.03 1224.58C1709.43 1216.32 1749.5 1191.55 1785.08 1158.38L1790 1153.71C1800.3 1143.76 1810.06 1133.26 1819.23 1122.26C1829.51 1109.66 1838.7 1096.22 1846.7 1082.06L1857.47 1062.96L1872.82 1088.47ZM1752.13 894.775L1713.63 853.486C1710.17 849.777 1708.33 844.846 1708.51 839.778C1708.68 834.71 1710.87 829.919 1714.58 826.461C1718.28 823.002 1723.22 821.159 1728.28 821.336C1733.35 821.513 1738.14 823.696 1741.6 827.405L1780.1 868.693C1783.56 872.402 1785.41 877.333 1785.23 882.401C1785.05 887.47 1782.87 892.26 1779.16 895.719C1775.45 899.177 1770.52 901.021 1765.45 900.844C1760.38 900.667 1755.59 898.484 1752.13 894.775ZM1676.22 965.566L1637.72 924.278C1634.26 920.569 1632.41 915.638 1632.59 910.569C1632.77 905.501 1634.95 900.711 1638.66 897.252C1642.37 893.794 1647.3 891.95 1652.37 892.127C1657.44 892.304 1662.23 894.487 1665.69 898.196L1704.19 939.485C1707.65 943.194 1709.49 948.124 1709.31 953.193C1709.14 958.261 1706.95 963.051 1703.24 966.51C1699.54 969.969 1694.6 971.812 1689.54 971.635C1684.47 971.458 1679.68 969.275 1676.22 965.566Z" fill="#FFF7E8"/>
</g>
<defs>
<clipPath id="clip0_81:29767">
<rect width="1920" height="1371" fill="white"/>
</clipPath>
</defs>
</svg>
