<svg width="41" height="31" viewBox="0 0 41 31" fill="none" xmlns="http://www.w3.org/2000/svg">
<path d="M17.3441 29.1852C15.8691 28.1712 15.28 24.7522 15.061 22.8042C14.961 22.4042 14.8611 21.9042 14.7611 21.3872C14.4717 19.6161 13.9728 17.8856 13.275 16.2322C10.549 10.3232 8.39507 5.6552 11.6051 3.32619L11.9861 3.04319C13.8221 1.67719 15.9041 0.129192 17.5161 0.0161914C18.078 -0.0445022 18.6451 0.0663018 19.1429 0.334031C19.6407 0.601761 20.0459 1.01388 20.305 1.51619C20.462 1.84397 20.574 2.19144 20.638 2.54919C22.165 2.1044 23.736 1.82809 25.3231 1.72519L25.7041 1.70119C35.6121 1.47519 38.504 5.0262 40.023 8.5292C40.6259 9.95875 40.8882 11.5089 40.789 13.0572C40.6176 14.7522 39.9665 16.3631 38.9121 17.7012C38.1892 18.7318 37.2932 19.6294 36.264 20.3542C36.9549 21.1172 37.7922 21.7334 38.726 22.1662C39.2979 22.4122 39.8126 22.7738 40.238 23.2282C40.4597 23.4981 40.6141 23.8169 40.6882 24.1583C40.7623 24.4996 40.754 24.8537 40.664 25.1912C40.4097 25.8972 39.9979 26.5359 39.4599 27.059C38.9219 27.5821 38.2719 27.9758 37.5591 28.2102C36.4815 28.6745 35.3386 28.9693 34.171 29.0842C32.929 29.1974 31.6876 28.8626 30.671 28.1402C29.6748 27.2865 28.8323 26.2685 28.18 25.1302C28.015 24.8792 27.819 24.5822 27.695 24.4132C27.5538 24.3946 27.4109 24.3916 27.269 24.4042C26.6476 24.4702 26.0389 24.6244 25.461 24.8622C25.7048 25.8429 25.7595 26.8611 25.622 27.8622C25.468 28.3606 25.1794 28.8068 24.7881 29.1517C24.3967 29.4967 23.9178 29.727 23.404 29.8172C23.198 29.8522 22.6901 29.9252 22.0421 29.9712C21.7081 29.9952 21.3421 30.0102 20.9701 30.0102C19.7076 30.0849 18.45 29.7988 17.3441 29.1852V29.1852ZM17.675 1.55019C16.455 1.63619 14.399 3.16519 12.898 4.2812L12.508 4.57119C10.424 6.0832 11.97 9.7412 14.666 15.5832C15.415 17.3468 15.9522 19.193 16.2661 21.0832C16.3661 21.5832 16.4661 22.0762 16.5741 22.5482C16.8881 25.2922 17.556 27.4642 18.213 27.9152C19.3755 28.4496 20.6697 28.6301 21.9341 28.4342C22.5121 28.3932 22.965 28.3292 23.149 28.2982C23.3643 28.2551 23.566 28.1604 23.7367 28.0223C23.9073 27.8842 24.0419 27.7068 24.129 27.5052C24.2159 26.6703 24.1481 25.8265 23.929 25.0162C23.8792 24.7149 23.9222 24.4056 24.0521 24.1292V24.1292L24.061 24.1172C24.1441 23.9466 24.2686 23.7995 24.4231 23.6892C25.269 23.2286 26.2013 22.9487 27.161 22.8672C27.5853 22.8215 28.0145 22.8746 28.415 23.0222L28.541 23.0732L28.6411 23.1652C28.9518 23.5071 29.2257 23.8809 29.4581 24.2802C30.0107 25.2372 30.7045 26.1053 31.5161 26.8552C32.2519 27.3904 33.1586 27.6367 34.0641 27.5472C35.0668 27.4415 36.0479 27.1849 36.9741 26.7862C38.7631 26.0182 39.11 25.0962 39.174 24.8322C39.2067 24.7286 39.2137 24.6186 39.1945 24.5117C39.1754 24.4047 39.1307 24.304 39.0641 24.2182C38.7636 23.9299 38.4123 23.6996 38.028 23.5392C36.85 22.984 35.8032 22.1851 34.957 21.1952C34.7886 20.9996 34.6383 20.789 34.508 20.5662L34.1361 19.9292L34.753 19.5292C35.9005 18.821 36.8947 17.8904 37.6771 16.7922C38.5586 15.6926 39.1077 14.3642 39.26 12.9632C39.3454 11.6475 39.1218 10.33 38.607 9.1162C37.307 6.1162 34.7441 3.04019 25.7671 3.24419L25.4331 3.2662C23.6954 3.38134 21.9791 3.71531 20.325 4.2602L20.2251 4.2912H20.1251C19.4671 4.3112 19.3391 3.7322 19.2251 3.2212C19.1607 2.88375 19.0704 2.55177 18.955 2.22819C18.8443 2.01568 18.6753 1.83922 18.4676 1.71963C18.26 1.60004 18.0224 1.54229 17.7831 1.55319C17.7391 1.54719 17.707 1.54819 17.675 1.55019V1.55019ZM32.243 14.3292V10.9152C32.2426 10.7637 32.2722 10.6136 32.3298 10.4735C32.3874 10.3334 32.4721 10.206 32.5789 10.0987C32.6858 9.99131 32.8129 9.90608 32.9527 9.84783C33.0926 9.78958 33.2425 9.75946 33.394 9.7592C33.5454 9.75959 33.6953 9.78981 33.8351 9.84811C33.9748 9.90642 34.1017 9.99168 34.2085 10.099C34.3153 10.2064 34.3998 10.3337 34.4574 10.4737C34.5149 10.6138 34.5444 10.7638 34.544 10.9152V14.3292C34.5444 14.4806 34.5149 14.6306 34.4574 14.7707C34.3998 14.9107 34.3153 15.038 34.2085 15.1454C34.1017 15.2527 33.9748 15.338 33.8351 15.3963C33.6953 15.4546 33.5454 15.4848 33.394 15.4852C33.2425 15.4849 33.0926 15.4548 32.9527 15.3966C32.8129 15.3383 32.6858 15.2531 32.5789 15.1457C32.4721 15.0384 32.3874 14.911 32.3298 14.7709C32.2722 14.6308 32.2426 14.4807 32.243 14.3292V14.3292ZM25.998 14.3292V10.9152C25.9976 10.7638 26.0271 10.6138 26.0847 10.4737C26.1423 10.3337 26.2268 10.2064 26.3336 10.099C26.4404 9.99168 26.5673 9.90642 26.707 9.84811C26.8467 9.78981 26.9966 9.75959 27.148 9.7592C27.2995 9.75959 27.4493 9.78981 27.5891 9.84811C27.7288 9.90642 27.8557 9.99168 27.9625 10.099C28.0693 10.2064 28.1538 10.3337 28.2114 10.4737C28.269 10.6138 28.2985 10.7638 28.2981 10.9152V14.3292C28.2985 14.4806 28.269 14.6306 28.2114 14.7707C28.1538 14.9107 28.0693 15.038 27.9625 15.1454C27.8557 15.2527 27.7288 15.338 27.5891 15.3963C27.4493 15.4546 27.2995 15.4848 27.148 15.4852C26.9965 15.4849 26.8466 15.4548 26.7068 15.3966C26.5669 15.3383 26.4399 15.2531 26.333 15.1457C26.2261 15.0384 26.1414 14.911 26.0837 14.7709C26.0261 14.6308 25.9966 14.4807 25.997 14.3292H25.998Z" fill="#573300"/>
<rect x="6.75" y="7.5" width="13.5" height="14.625" fill="white"/>
<path d="M9.33053 21.1859C8.94865 20.804 9.14772 20.9117 8.22665 20.6652C7.80874 20.5531 7.44136 20.3378 7.10914 20.0798L5.11538 24.9682C4.92247 25.4415 5.28281 25.9557 5.79344 25.9363L8.10888 25.848L9.70142 27.5302C10.053 27.9011 10.67 27.7855 10.8629 27.3122L13.1502 21.704C12.6738 21.9695 12.1452 22.125 11.5985 22.125C10.7416 22.125 9.93653 21.7915 9.33053 21.1859V21.1859ZM21.8846 24.9682L19.8908 20.0798C19.5586 20.3382 19.1912 20.5531 18.7733 20.6652C17.8474 20.913 18.0504 20.8049 17.6694 21.1859C17.0634 21.7915 16.2579 22.125 15.401 22.125C14.8543 22.125 14.3257 21.969 13.8493 21.704L16.1366 27.3122C16.3296 27.7855 16.947 27.9011 17.2981 27.5302L18.8911 25.848L21.2065 25.9363C21.7171 25.9557 22.0775 25.4411 21.8846 24.9682V24.9682ZM16.62 20.1915C17.2915 19.5081 17.3684 19.567 18.3246 19.3064C18.935 19.1399 19.4123 18.6543 19.5757 18.0329C19.9044 16.7849 19.8192 16.9356 20.7161 16.0225C21.163 15.5676 21.3375 14.9045 21.174 14.2831C20.8457 13.036 20.8453 13.21 21.174 11.9615C21.3375 11.3402 21.163 10.6771 20.7161 10.2222C19.8192 9.30906 19.9044 9.45935 19.5757 8.21177C19.4123 7.5904 18.935 7.10481 18.3246 6.93826C17.0995 6.60384 17.2471 6.69129 16.3493 5.77769C15.9024 5.32286 15.2507 5.14489 14.6403 5.31144C13.4156 5.64541 13.5865 5.64585 12.3596 5.31144C11.7492 5.14489 11.0975 5.32242 10.6506 5.77769C9.75372 6.69085 9.90137 6.60384 8.67576 6.93826C8.06537 7.10481 7.58813 7.5904 7.42466 8.21177C7.0964 9.45935 7.18121 9.30906 6.2843 10.2222C5.83739 10.6771 5.66249 11.3402 5.8264 11.9615C6.15467 13.2078 6.15511 13.0338 5.8264 14.2827C5.66293 14.9041 5.83739 15.5672 6.2843 16.0225C7.18121 16.9356 7.09596 16.7849 7.42466 18.0329C7.58813 18.6543 8.06537 19.1399 8.67576 19.3064C9.65924 19.5745 9.73262 19.5323 10.3799 20.1915C10.9613 20.7834 11.867 20.8893 12.5657 20.4472C12.8451 20.2698 13.1692 20.1756 13.5002 20.1756C13.8312 20.1756 14.1553 20.2698 14.4347 20.4472C15.133 20.8893 16.0386 20.7834 16.62 20.1915ZM9.35426 12.9828C9.35426 10.6524 11.2105 8.76327 13.5 8.76327C15.7895 8.76327 17.6457 10.6524 17.6457 12.9828C17.6457 15.3132 15.7895 17.2024 13.5 17.2024C11.2105 17.2024 9.35426 15.3132 9.35426 12.9828V12.9828Z" fill="#573300"/>
</svg>
