<svg width="12" height="14" viewBox="0 0 12 14" fill="none" xmlns="http://www.w3.org/2000/svg">
<path d="M8.48339 4.47819L7.61104 3.58815L3.24706 8.03972C2.8999 8.39398 2.7049 8.87444 2.70494 9.3754C2.70498 9.87636 2.90007 10.3568 3.24729 10.711C3.59451 11.0652 4.06541 11.2641 4.55642 11.2641C5.04742 11.2641 5.51829 11.065 5.86545 10.7108L11.1018 5.36823C11.678 4.77736 12.001 3.97742 12 3.14389C11.999 2.31035 11.6739 1.51126 11.0962 0.921886C10.5185 0.332515 9.73526 0.000981512 8.91829 2.17582e-06C8.10132 -0.00097716 7.31732 0.328678 6.73825 0.916662L1.24013 6.52629L1.22853 6.53766C0.435501 7.364 -0.00595124 8.47621 6.06077e-05 9.63269C0.00607246 10.7892 0.459063 11.8965 1.26064 12.7143C2.06221 13.532 3.14763 13.994 4.28113 13.9999C5.41463 14.0059 6.50466 13.5553 7.31446 12.7461L7.32561 12.7343L11.0786 8.90564L10.2053 8.0156L6.45237 11.8438L6.44122 11.8552C6.15629 12.146 5.81801 12.3766 5.44569 12.5341C5.07338 12.6915 4.67432 12.7725 4.2713 12.7726C3.45737 12.7727 2.67673 12.443 2.1011 11.8558C1.52548 11.2687 1.20203 10.4723 1.2019 9.64191C1.20177 8.81147 1.52499 8.015 2.10043 7.4277L2.11247 7.41633L7.61104 1.80716C7.78294 1.63175 7.98702 1.4926 8.21162 1.39765C8.43622 1.30271 8.67696 1.25383 8.92008 1.25381C9.1632 1.25379 9.40394 1.30262 9.62856 1.39753C9.85318 1.49243 10.0573 1.63155 10.2292 1.80693C10.4011 1.98231 10.5375 2.19053 10.6306 2.41969C10.7236 2.64885 10.7715 2.89446 10.7716 3.14251C10.7716 3.39056 10.7237 3.63619 10.6307 3.86536C10.5377 4.09454 10.4013 4.30278 10.2294 4.47819L4.99176 9.82026C4.87608 9.93834 4.71916 10.0047 4.55552 10.0048C4.39188 10.0048 4.23493 9.93851 4.11919 9.82048C4.00345 9.70246 3.93841 9.54235 3.93836 9.3754C3.93832 9.20844 4.00329 9.0483 4.11897 8.93022L8.48339 4.47819Z" fill="black" fill-opacity="0.5"/>
</svg>
