<?xml version="1.0" encoding="utf-8"?>
<!-- Generator: Adobe Illustrator 26.0.1, SVG Export Plug-In . SVG Version: 6.00 Build 0)  -->
<svg version="1.1" id="레이어_1" xmlns="http://www.w3.org/2000/svg" xmlns:xlink="http://www.w3.org/1999/xlink" x="0px"
	 y="0px" viewBox="0 0 1980 772" style="enable-background:new 0 0 1980 772;" xml:space="preserve">
<style type="text/css">
	.st0{fill:#FFFFFF;}
	.st1{fill:#FFF9E3;}
	.st2{fill:#FFEFCB;}
</style>
<rect y="0.39" class="st0" width="1979.82" height="770.8"/>
<g>
	<path class="st1" d="M1108.52,3.99c-5.3,4.9-10.5,9.7-15.8,14.5c-5.7,5.1-13.6,5-19.6-0.1c-5-4.3-6.1-12.1-2.6-18h-233.4
		c2.6,3.8,5.6,7.3,8.6,10.8c6,6.7,12.7,12.9,19.6,18.7c7.5,6.3,15.2,6.1,22.3-0.5c5.8-5.4,10.7-11.6,15.3-17.9
		c5.5-7.5,13.1-9.9,21.7-6.3c3.7,1.6,7.4,3.5,10.8,5.6c7.3,4.4,14.3,9.3,19.9,15.9c4.7,5.5,7,11.6,4.7,18.9
		c-1.5,5.1-2.7,10.2-3.7,15.4c-1.5,8.4-3.6,16.9-4.6,25.4c-1.7,15.1,3.5,27.9,14.4,38.5c7.5,7.3,16.3,12.7,25.4,17.7
		c8.2,4.4,16.7,8.1,25.9,9.5c5.6,0.8,11.2,0.9,16.6-1.3c4.7-1.9,6.6-4.8,6.1-9.8c-0.4-3.6-1.2-7.3-2.2-10.8
		c-2.7-9.7-5.1-19.5-5.6-29.7c-0.7-13.2,0.4-26.1,5.5-38.6c1.9,0.5,3.8,0.9,5.6,1.5c20.7,5.9,41.7,7.4,63,3.5
		c12.4-2.3,24.2-6.1,34.6-13.3c11.6-8,20.9-18.2,28.1-30.3c4.4-7.4,8-15,10.8-22.8h-67.5C1111.12,1.59,1109.82,2.79,1108.52,3.99z"
		/>
	<path class="st1" d="M288.32,630.89c6.8-2.3,10.3-7.6,10.3-15.7c0-7.9-1.3-15.7-2.8-23.4c-1.8-9.1,1.7-16.3,10.1-20.2
		c3.7-1.7,7.6-3,11.5-4.2c8.2-2.4,16.6-4.2,25.2-3.8c7.2,0.3,13.2,2.7,17.1,9.4c2.7,4.6,5.7,8.9,8.8,13.2c5,7,9.8,14.3,15.5,20.8
		c9.9,11.5,22.9,16.4,38,15.6c10.4-0.5,20.4-3.3,30.2-6.7c8.8-3,17.2-6.7,24.6-12.6c4.4-3.6,8.2-7.7,10.3-13.1
		c1.8-4.7,1-8.1-3.1-11.1c-3-2.2-6.2-4.1-9.4-5.7c-9-4.6-17.8-9.5-25.6-16c-10.2-8.4-18.9-18-24.6-30.2c1.6-1.1,3.2-2.1,4.9-3.1
		c18.4-11.2,33.8-25.6,45.3-43.9c6.7-10.6,11.9-21.9,13.7-34.4c2-13.9,0.8-27.7-3.2-41.2c-5.8-19.6-15.4-36.9-30.4-50.9
		c-13.1-12.3-28.7-20-45.7-25.4c-19.8-6.2-40.2-8.8-60.9-9.8c-14.3-0.7-28.5-0.8-42.8,0.7c-18.5,1.9-36.6,5.7-54.2,11.4
		c-5.2,1.7-9.6-0.2-11.9-5.1c-0.6-1.4-1.1-2.9-1.5-4.4c-1.1-4.4-2.1-8.9-3.3-13.3c-1.1-4.4-3.8-7.5-8-9.4c-4.4-2-8.8-2.1-13.4-0.9
		c-7.7,2-14.5,5.7-21.3,9.7c-3.5,2.1-6.9,4.2-10.2,6.4v37.8C181.72,458.59,222.02,556.59,288.32,630.89z M400.92,414.49
		c0-7.6,5.6-13.8,12.9-14.5c7.7-0.7,14.3,4.2,15.8,11.7c0.2,1.1,0.2,2.2,0.2,3.3c0,6.9,0,13.9,0,20.8c0,7.2,0,14.3-0.1,21.5
		c-0.1,7.6-5.5,13.4-13.3,14.3c-6.9,0.8-13.6-4.1-15.3-11.2c-0.3-1.1-0.4-2.3-0.4-3.4C400.92,442.79,400.92,428.69,400.92,414.49z
		 M322.32,435.59c0-7.1,0-14.1,0.1-21.2c0-8.3,6.4-14.7,14.5-14.7s14.5,6.4,14.6,14.7c0,14.2,0,28.4-0.1,42.5
		c0,8.2-6.6,14.7-14.6,14.6c-8.1,0-14.5-6.6-14.4-14.8C322.22,449.69,322.32,442.59,322.32,435.59z"/>
	<path class="st1" d="M1763.42,385.79c-3.2-1.7-6.7-3.1-10.2-4.2c-9.6-3.2-19-6.7-27.7-11.9c-11.3-6.8-21.4-14.9-28.9-26.1
		c1.5-1.3,2.9-2.6,4.3-3.8c16.5-13.9,29.5-30.4,38.1-50.3c5-11.5,8.4-23.5,8.3-36.1c-0.1-14.1-3.4-27.5-9.4-40.2
		c-8.7-18.4-20.8-34.1-37.8-45.6c-14.8-10.1-31.5-15.4-49-18.1c-20.5-3.1-41.1-2.6-61.6-0.4c-14.2,1.5-28.3,3.5-42.2,7.2
		c-18,4.7-35.3,11.2-51.9,19.5c-4.9,2.5-9.5,1.3-12.5-3.3c-0.9-1.3-1.5-2.7-2.1-4.1c-1.8-4.2-3.5-8.5-5.3-12.7
		c-1.8-4.1-4.9-6.8-9.3-8c-4.6-1.3-9.1-0.7-13.4,1.2c-7.3,3.1-13.5,7.8-19.5,12.8c-12.8,10.6-24.4,22.5-36,34.3
		c-3.4,3.5-5.4,7.7-6.5,12.5c-1.7,7.7-0.5,15.2,1.6,22.7c2.9,10.3,7.5,19.9,12.5,29.3c10.4,19.5,22.5,38,34.6,56.4
		c6.8,10.4,13.6,20.7,19.1,31.8c6.8,13.8,12.2,28.1,17.5,42.5c2.4,6.6,5,13.1,7.2,19.7c2.9,8.6,5.4,17.4,8.5,25.9
		c3.5,9.7,7.8,19,13.4,27.7c4.1,6.4,9.7,10,17.4,10.9c8.3,0.9,16.5,0.4,24.7-0.7c9-1.3,17.8-3.3,26.4-5.9c9.4-2.8,13.5-9.2,12-18.8
		c-1.2-7.8-3.6-15.3-6.3-22.7c-3.1-8.8-0.9-16.4,6.9-21.5c3.4-2.2,7-4.2,10.7-5.9c7.8-3.6,15.7-6.7,24.3-7.6
		c7.2-0.8,13.5,0.7,18.3,6.6c3.3,4.1,7,7.9,10.7,11.7c6.1,6.2,11.9,12.6,18.5,18.2c11.6,9.8,25.1,12.7,40,9.6
		c10.2-2.1,19.7-6.4,28.9-11.2c8.2-4.3,16-9.3,22.3-16.2c3.8-4.2,7-8.8,8.2-14.5C1769.22,391.39,1767.92,388.19,1763.42,385.79z
		 M1601.42,302.09c-8,1.2-15.3-4.3-16.5-12.4c-1.1-7-2.1-14-3.2-20.9c-1.1-7-2.1-14-3.2-20.9c-1.2-8.2,4.1-15.5,12.1-16.7
		s15.4,4.1,16.6,12.3c2.2,14,4.3,28,6.4,42C1614.82,293.49,1609.32,300.89,1601.42,302.09z M1680.32,289.99
		c-6.7,1.8-14.1-2-16.8-8.7c-0.4-1.1-0.7-2.2-0.9-3.3c-2.2-14-4.3-28-6.4-42c-1.1-7.5,3.5-14.5,10.6-16.3c7.5-1.9,14.8,1.9,17.4,9.2
		c0.4,1,0.6,2.1,0.7,3.2c1.1,6.9,2.1,13.7,3.1,20.6c1.1,7.1,2.2,14.2,3.2,21.3C1692.32,281.39,1687.82,287.99,1680.32,289.99z"/>
	<path class="st1" d="M1830.53,508.39c-20.2,22.3-32.2,48.9-36.4,78.8c-2.5,18.3-2.1,36.5,1.7,54.6c6.1,28.5,20.4,52.3,42.5,71.2
		c14.2,12.2,31,20.1,48.3,27c13,5.1,26.3,9,39.9,12.1c16.1,3.6,32.3,5.7,48.8,5.4c1.4,0,2.9-0.1,4.3-0.1v-64.9
		c-1.6-0.6-3.2-1.2-4.8-1.8c-10.6-4.2-21.1-8.8-31.6-13.5c-16.2-7.2-31-16.6-44.4-28.2c-5.6-4.8-10.6-10.2-14.8-16.3
		c-3-4.3-2-9.8,2.1-12.7c4-2.9,9.6-2,12.5,2.1c4.8,6.8,10.7,12.5,17.3,17.6c11.1,8.7,23.2,15.7,35.9,21.6
		c9.1,4.3,18.4,8.1,27.9,11.5v-207.7c-14.7-3-29.6-4.6-44.8-4.5C1893.03,461.09,1858.32,477.69,1830.53,508.39z"/>
	<path class="st1" d="M1885.32,758.69c-21-7.8-41.1-17.4-58.5-31.8c-12.6-10.4-22.8-22.9-31.2-36.8c-15.3-25.4-21.3-53.3-21-82.6
		c0.1-11.8,1.3-23.5,3.9-35c0.1-0.3,0-0.7,0-1c1.5-5.5,3.1-11.1,4.6-16.6c0.2-0.4,0.4-0.8,0.6-1.2c1.9-4.9,3.6-9.8,5.8-14.5
		c10.5-23,25.1-42.8,44.6-59.1c25-20.9,53.3-33.7,85.8-36.7c20.2-1.9,40.1-0.2,59.9,3.5v-282.6c-5.1,6.5-11.3,12.1-18.9,16.5
		c-9.4,5.5-19.5,8.3-30.3,9.2c-9.8,0.8-19.6,1-29.4-0.7c-11.1-2-21.9-5.3-32.1-10.1c-8.6-4.1-16.7-8.8-23.8-15.3
		c-9.5-8.7-12.9-19.6-11.3-32.2c0.3-2.3,0.8-4.6,1.3-7.1c-2.8-0.2-5.5-0.3-8.3-0.5c-13.4-0.8-26.5-3.1-39.5-6.1
		c-11.6-2.7-23-6-34.1-10.1c-21-7.8-41.1-17.4-58.5-31.8c-12.6-10.4-22.8-22.9-31.2-36.8c-7.4-12.4-12.7-25.3-16-38.7h-447.2
		c-0.8,2.5-1.6,5-2.5,7.5c-5,13.8-11.8,26.6-20.9,38.1c-17,21.7-39.1,35-66.3,39.7c-18.9,3.3-37.8,3.8-56.7-0.1
		c-0.6-0.1-1.2-0.2-2-0.3c-0.8,8.4-0.6,16.5,1.1,24.5c1.5,6.9,3.4,13.7,5.1,20.5c1.2,4.8,2,9.8,1.4,14.7c-1.4,12.3-8.4,20-19.7,24.2
		c-9.5,3.5-19.3,3.1-29,1.2c-11.4-2.3-21.8-7.1-31.9-12.7c-10.6-6-20.6-12.8-29-21.7c-8.4-9-13.9-19.6-16.5-31.7
		c-2.1-9.4-1.7-18.8,0.1-28.1c2.3-11.4,5-22.7,7.6-34c0.4-1.7,0.1-2.8-1.1-4c-6-6.2-13.1-10.7-20.7-14.5c-1-0.5-1.3,0.1-1.7,0.7
		c-3.7,4.6-7.4,9.2-11.3,13.6c-4.1,4.7-8.6,9.1-14.1,12.1c-8.2,4.5-16.8,4.4-25.5,2c-5.8-1.6-10.7-4.9-15.2-8.7
		c-8.1-7-15.9-14.3-22.9-22.5c-5.4-6.4-10.3-13.1-14.1-20.6h-157.4c6.8,10.5,12.1,21.8,15.9,33.8c1.2,3.7,2.1,7.5,3.2,11.3
		c2.8-1.1,5.6-2.2,8.4-3.2c10.8-3.6,21.5-3.9,32,1c7.3,3.3,13.1,8.5,17.7,15c7.9,11.2,13.5,23.4,15.5,37c2.9,19.8-2.9,37-16.2,51.8
		c-5.9,6.6-12.3,12.8-19.9,17.4c-0.8,0.5-0.8,1-0.6,1.8c1.3,7.3,2.9,14.5,3.8,21.8c2.1,17.3-0.6,33.8-10.4,48.6
		c-6,9-13.8,16.1-23.1,21.6c-8.4,5.1-17.1,9.6-26.6,12.4c-10.9,3.1-22,5-33.3,5.2c-9.5,0.2-18.9-0.5-28.1-3.2
		c-12.4-3.6-20.3-11.9-24.4-23.9c-0.8-2.2-1.3-4.5-2-6.9c-2.6,1.1-5.1,2.2-7.6,3.2c-12.3,5.2-25.2,8.9-38.2,12
		c-11.6,2.7-23.3,4.8-35.1,6c-22.3,2.4-44.6,2.6-66.5-2.6c-15.9-3.8-30.6-10.4-44.3-19.2c-25-16-42.7-38.3-55.5-64.8
		c-5.1-10.6-9.2-21.6-12.1-33.1c-0.1-0.3-0.3-0.6-0.4-0.9c-1.1-5.6-2.2-11.3-3.2-16.9c0-0.4,0-0.9,0-1.3c-0.4-5.2-1.1-10.4-1.3-15.6
		c-0.8-25.2,3.5-49.5,13.8-72.8c5.7-13,12.7-25,21.1-35.7h-158.2v290c8.4-5.1,17.1-9.7,26.7-11.9c12.3-2.9,23.9-1.1,34.1,6.9
		c6.5,5.1,9.7,12.1,11.6,19.9c0.3,1.2,0.6,2.3,0.9,3.7c0.6-0.1,1.1-0.2,1.6-0.4c17.2-4.8,34.8-7.9,52.6-9.4
		c14.2-1.1,28.3-0.8,42.5-0.1c12,0.6,23.8,1.8,35.6,3.9c20.8,3.6,40.9,9.5,59.3,20.1c20.7,11.9,35.9,28.9,46.8,49.9
		c6.7,13,11.5,26.7,13.8,41.2c4.4,27.2-0.9,52.5-15.8,75.7c-10.4,16.1-22.9,30.3-38.6,41.6c-0.5,0.3-1,0.7-1.6,1.2
		c5.6,6.2,11.7,11.7,18.8,15.9c6.1,3.6,12.3,6.8,18.5,10.2c4.4,2.4,8.5,5.2,11.8,9c8.1,9.3,9,19.8,4.4,30.9
		c-3.9,9.4-10.8,16.3-18.8,22.1c-9.4,6.9-20,11.2-31,14.8c-11.6,3.8-23.4,6.5-35.6,6.6c-12.3,0.1-23.8-3.1-34.5-9.4
		c-8.3-4.9-15-11.5-20.5-19.2c-6.8-9.4-13.3-19.1-19.9-28.7c-1-1.4-2-2-3.7-1.9c-8.6,0.2-16.8,2.4-24.7,5.4c-1,0.4-0.8,1-0.7,1.7
		c0.8,5.8,1.8,11.7,2.4,17.5c0.6,6.2,0.8,12.5-0.7,18.6c-2.1,8.7-7.6,14.8-14.9,19.4c76.2,77.7,182.4,125.9,299.8,125.9h97.8
		c-0.6-0.6-1.1-1.2-1.6-1.8c-8.1-9.3-13.1-20.1-15.3-32.3c-1.7-9.5-1-18.8,1.2-28.1c2.7-11.3,5.9-22.5,8.9-33.7
		c0.4-1.6,0.2-2.8-0.9-4c-5.7-6.4-12.7-11.2-20.1-15.3c-0.9-0.5-1.3,0.1-1.8,0.6c-3.9,4.4-7.7,8.9-11.8,13.2
		c-4.3,4.5-9,8.7-14.6,11.5c-8.3,4.2-16.9,3.8-25.6,0.9c-5.7-1.9-10.5-5.3-14.8-9.3c-7.9-7.3-15.3-14.9-21.9-23.4
		c-5.8-7.4-10.9-15.3-14.6-24.1c-4.5-10.6-4.3-21.1,0.1-31.6c4.2-10.2,10-19.3,16.5-28.1c6.7-9.2,14.2-17.7,21.8-26.1
		c3.5-3.9,6.5-8.2,9.6-12.4c7.9-10.5,15.9-20.8,23.6-31.5c8.7-12,14.9-25.4,21-38.9c9.1-19.9,18.5-39.7,29.5-58.7
		c6.2-10.6,12.8-20.8,21-30c6.7-7.4,14.1-13.9,23.4-18c8.6-3.8,17.6-5,26.7-3c17.2,3.7,34.3,7.6,51,13.2c9.4,3.1,18.7,6.8,26.8,12.7
		c10.2,7.5,16.3,17.5,16.9,30.4c0.3,8.2-2.9,15.2-7.6,21.7c-0.7,1-1.4,2-2.2,3.1c0.5,0.3,0.9,0.7,1.3,1c14.9,10,28.6,21.3,41.3,34
		c10.1,10,19,21,27.6,32.3c7.3,9.5,14.1,19.3,20.2,29.6c10.8,18.2,19.3,37.2,23.2,58.1c4.4,23.5,1.4,46.1-7.6,68
		c-5.5,13.6-12.9,26.1-22.4,37.2c-17.8,21-40.5,33.4-67.8,37.1c-19,2.5-37.9,2.3-56.7-2.4c-0.6-0.1-1.2-0.3-2-0.4
		c-1.1,8.3-1.3,16.5,0.1,24.6c1.2,6.9,2.8,13.8,4.2,20.7c0.2,1.1,0.4,2.1,0.6,3.2h544.5c-0.4-0.8-0.7-1.6-1.1-2.4
		c-9.3-19.9-18.4-39.8-25.7-60.5c-4.1-11.5-7.6-23.3-9.3-35.4c-1.4-9.9-1.5-19.8,1.4-29.5c2.7-9,7.6-16.6,15-22.3
		c13.9-10.7,28-21.3,43.1-30.4c8.5-5.2,17.2-9.9,27-12.2c12.3-2.9,23.9-1.2,34.1,6.8c6.5,5,9.7,12.1,11.6,19.9
		c0.3,1.2,0.6,2.3,0.9,3.7c0.6-0.1,1.1-0.2,1.6-0.4c17.2-4.9,34.8-8,52.6-9.5c14.1-1.2,28.3-0.9,42.5-0.2c12,0.6,23.8,1.8,35.7,3.8
		c20.8,3.5,40.9,9.4,59.3,19.9c20.7,11.9,36,28.8,47,49.8c6.8,13,11.5,26.7,13.9,41.1c3.4,20.4,1.3,39.6-6.2,57.8h236.5
		c-4-0.8-8-1.6-12-2.5C1907.82,766.19,1896.42,762.89,1885.32,758.69z M1348.92,499.09c-1.7,13.6-5.8,26.4-13.5,37.8
		c-11.2,16.6-27.1,25.4-46.9,27.3c-8.8,0.9-17.7,1.1-26.4-0.6c-0.9-0.2-1.3,0.2-1.7,0.9c-3.9,6.2-7.6,12.7-11.9,18.6
		c-10.2,14.2-23.3,24.5-40.5,28.8c-10.5,2.6-21.1,2.5-31.7,0.4c-9.6-2-19.1-4.5-28-8.9c-10.1-5-19.6-11.1-28.1-18.6
		c-7.1-6.3-13.6-13.1-18.6-21.3c-6.7-11-7-22.4-1.9-34.1c0.9-2.1,2.1-4.2,3.2-6.4c-2.6-0.9-5.2-1.8-7.8-2.8
		c-12.6-4.5-24.6-10.4-36.3-16.9c-10.4-5.8-20.4-12.2-30-19.2c-18-13.3-34.6-28.1-47.3-46.8c-9.2-13.5-15.6-28.3-19.8-44.1
		c-7.6-28.7-5.7-57.1,2.7-85.2c3.4-11.3,7.8-22.2,13.4-32.6c0.2-0.3,0.2-0.7,0.3-1c3-4.9,6-9.8,9-14.7c0.3-0.3,0.6-0.6,0.9-1
		c3.2-4.1,6.2-8.4,9.6-12.4c16.5-19.1,36-34.2,59.2-44.4c29.8-13.1,60.5-17.5,92.6-11.4c22,4.2,42.5,12.5,62.2,22.9
		c2.6,1.4,5.1,2.7,7.7,4c6.4,3.9,12.7,7.8,19.1,11.7c1.5,1.2,3,2.4,4.6,3.5c24,17.5,45,37.9,61.6,62.7c10.7,16,19,33.1,24,51.7
		c3.8,14,4.7,28.2,3.7,42.6c-1.2,17.4-5.5,34.1-12.8,50c-1.6,3.5-3.5,6.9-5.2,10.5c2.8,1.1,5.6,2.1,8.3,3.4
		c10.4,4.6,18.5,11.7,23,22.3C1349.12,483.39,1349.92,491.19,1348.92,499.09z M1743.22,446.09c-10.9,5.5-22.1,10-34.2,11.9
		c-12.2,2-24,0.6-35.5-4c-9-3.5-16.5-9.1-23.2-15.8c-8.2-8.2-16.1-16.8-24-25.3c-1.2-1.2-2.3-1.6-3.9-1.3
		c-8.5,1.5-16.2,4.9-23.6,9.1c-0.9,0.5-0.6,1.1-0.4,1.8c1.7,5.6,3.5,11.3,5,17c1.6,6,2.7,12.2,2.2,18.5c-0.8,9.3-5.7,16.4-12.6,22.2
		c-4.6,3.9-10,6.1-15.7,7.7c-10.3,2.9-20.8,5.2-31.4,6.4c-9.4,1.1-18.8,1.2-28.2-0.2c-11.4-1.8-20.2-7.4-26.9-16.7
		c-6.4-8.9-11.2-18.7-15.3-28.8c-4.3-10.5-7.6-21.4-10.7-32.3c-1.5-5-3.6-9.8-5.5-14.7c-4.8-12.2-9.4-24.5-14.4-36.6
		c-5.7-13.7-13.8-26-22-38.3c-12.1-18.2-24.1-36.6-34.5-55.9c-5.8-10.8-11-21.9-14.5-33.6c-2.8-9.6-4.4-19.3-3-29.4
		c1.3-9.3,5-17.5,11.5-24.3c12.2-12.7,24.5-25.2,38-36.5c7.6-6.4,15.6-12.3,24.9-16.1c11.8-4.8,23.5-4.7,34.7,1.6
		c7.2,4,11.4,10.5,14.5,17.9c0.5,1.1,0.9,2.2,1.5,3.5c0.5-0.2,1-0.4,1.5-0.6c16.3-7.4,33.2-13.2,50.6-17.3c13.8-3.3,27.9-5.1,42-6.6
		c11.9-1.2,23.8-1.8,35.8-1.6c21.1,0.4,41.8,3.1,61.7,10.8c22.2,8.6,39.9,23,53.9,42.2c8.6,11.8,15.4,24.7,19.9,38.6
		c8.5,26.2,7.2,52-4.1,77.2c-7.8,17.5-18,33.5-31.8,47c-0.4,0.4-0.8,0.9-1.4,1.4c6.5,5.3,13.3,9.7,21,12.8
		c6.5,2.6,13.2,4.9,19.8,7.3c4.7,1.7,9.2,3.8,13,7.1c9.4,8,11.9,18.2,9,29.9c-2.4,9.9-8.2,17.7-15.2,24.7
		C1763.32,434.99,1753.53,440.89,1743.22,446.09z"/>
	<path class="st1" d="M786.32,767.09c-2.3-9.8-4.3-19.7-4.4-29.9c-0.2-13.2,1.5-26.1,7-38.4c1.9,0.6,3.7,1.1,5.6,1.7
		c20.5,6.7,41.4,9.1,62.8,6c12.4-1.8,24.4-5.2,35.1-11.9c11.9-7.5,21.6-17.3,29.3-29.2c11.1-17.1,18-35.6,19-56.1
		c0.8-17.9-3.4-34.9-10.4-51.2c-8.1-19.1-19.4-36.3-32-52.7c-8.7-11.3-17.9-22.3-28.3-32.1c-13.5-12.8-28.1-24.1-43.9-33.9
		c-4.7-2.9-6.1-7.4-3.8-12.4c0.6-1.4,1.5-2.7,2.3-4c2.6-3.7,5.4-7.4,8-11.1s3.2-7.8,2-12.1c-1.3-4.6-4.2-8.1-8-10.8
		c-6.5-4.5-13.8-7.4-21.2-9.9c-15.7-5.3-31.9-8.9-48.1-12.6c-4.7-1.1-9.4-0.6-14,1c-7.5,2.6-13.2,7.6-18.5,13.3
		c-7.2,7.9-13,16.8-18.3,26c-11.1,19.1-20.5,39.1-29.8,59.1c-5.2,11.2-10.4,22.5-17.1,33c-8.2,13-17.5,25.1-27,37.1
		c-4.3,5.5-8.5,11.1-13,16.5c-5.8,7-11.9,13.7-17.6,20.8c-6.4,8.1-12.1,16.6-16.6,26c-3.3,6.9-3.4,13.5-0.1,20.5
		c3.6,7.5,8.3,14.3,13.6,20.7c5.8,7,12.1,13.4,18.9,19.4c7.3,6.5,14.9,6.7,22.3,0.4c6-5.2,11.1-11.2,16.1-17.3
		c5.8-7.3,13.5-9.3,21.9-5.4c3.7,1.7,7.2,3.8,10.6,6c7.2,4.7,14,9.9,19.3,16.7c4.4,5.7,6.5,11.8,4,19.1c-1.7,5-3.1,10.1-4.3,15.3
		c-2.1,8.4-4.5,16.8-5.8,25.3c-2.3,15,2.4,28,12.8,39c4.4,4.7,9.4,8.7,14.7,12.3h57.8C786.92,769.99,786.62,768.49,786.32,767.09z
		 M878.82,608.39c5.5,5.4,6.1,13.6,1.3,19.6c-0.7,0.9-1.5,1.6-2.3,2.3c-5.3,4.5-10.6,9-15.9,13.5c-5.5,4.6-10.9,9.3-16.4,13.9
		c-5.9,4.9-13.8,4.5-19.5-0.9c-5.1-4.7-5.7-13-1.4-18.9c0.7-0.9,1.5-1.8,2.4-2.5c10.8-9.2,21.6-18.4,32.4-27.5
		C865.12,603.09,873.52,603.29,878.82,608.39z M774.22,596.09c-5.2-6.2-4.4-15.3,1.9-20.6c5.4-4.6,10.8-9.1,16.2-13.7
		c5.4-4.6,10.8-9.1,16.2-13.7c6.3-5.3,15.3-4.7,20.6,1.5s4.5,15.2-1.7,20.6c-10.8,9.2-21.6,18.4-32.4,27.5
		C788.62,602.99,779.42,602.29,774.22,596.09z"/>
	<path class="st1" d="M328.32,63.09c-8.3,28.9-7.2,58.1,2.3,86.8c5.8,17.5,14.3,33.7,25.8,48.2c18.1,22.9,41.5,37.8,69.6,45
		c18.1,4.6,36.7,4.3,55.2,2.8c13.9-1.2,27.6-3.6,41.1-6.9c16-3.9,31.5-9.2,46.2-16.8c6.1-3.1,12.1-6.4,18.4-9.8
		c-0.1,4.7-0.2,9.2-0.3,13.7c-0.1,4.9-0.5,9.8,0.8,14.7c2.1,8.2,7,13.6,15.5,15.3c16,3.3,31.8,2,47.4-2.1c7.8-2.1,14.9-5.7,21.8-9.7
		c20.5-11.7,29.9-29.2,27.2-52.6c-1.3-11-3.9-21.7-6-32.6c-0.5-2.7-0.7-2.6,1.6-4c0.8-0.5,1.6-0.9,2.4-1.4
		c9.5-5.3,17.9-12,24.8-20.5c7.6-9.3,11.5-19.9,10.5-32c-1.1-12.7-6.2-23.8-13.9-33.7c-6.6-8.6-15.4-11.6-26-8.7
		c-5.4,1.5-10.4,4-15.3,6.6c-0.9,0.5-1.2,1.1-1.3,2c-0.8,9.4-2.8,18.6-6.2,27.4c-4.2,10.8-10.3,20.4-19.2,27.9
		c-9.8,8.3-20.8,14.7-32.6,19.9c-13.9,6.1-28.4,10.2-43.1,13.6c-12.1,2.8-24.2,5.2-36.6,6.2c-11.4,0.9-22.9,1.4-34.3,1.9
		c-17.7,0.7-35.1-1.1-52.3-5.6c-7.2-1.9-14.1-4.4-20.5-8.1c-4.6-2.6-6.1-7.8-3.7-12.3c2.4-4.3,7.7-6,12.2-3.6
		c7.3,4,15.1,6.4,23.2,8.1c13.8,2.9,27.7,3.8,41.8,3.5c16.3-0.4,32.5-1.9,48.5-4.7c15.5-2.8,30.8-6.5,45.9-11.1
		c11.5-3.5,22.3-8.3,32.1-15.3c12.5-9,21.1-20.8,25.5-35.6c2.1-7.3,2.3-14.9,2.4-22.5c0-1.7,0.4-3.5,0-5.2c-1.7-8.6-4.4-16.9-8-24.9
		c-4.3-9.7-9.6-18.6-16-26.6h-271.1C347.22,17.39,335.32,38.39,328.32,63.09z M590.82,17.99c7.1-1.1,13.8,3.6,15.2,10.6
		c2.6,13.2,5.1,26.4,7.6,39.5c1.3,7-3.3,13.9-10.2,15.4c-7.1,1.6-14.1-2.6-16-9.6c-0.1-0.4-0.3-0.9-0.4-1.3
		c-1.2-6.4-2.5-12.9-3.7-19.3h0.1c-1.3-6.8-2.8-13.6-3.9-20.5C578.42,25.69,583.62,19.09,590.82,17.99z M518.52,31.89
		c7.3-1.5,14.4,3.1,15.9,10.5c1.4,6.6,2.5,13.2,3.8,19.7c1.2,6.5,2.6,13,3.7,19.5c1,5.5-0.8,10.2-5.4,13.4
		c-4.6,3.3-9.6,3.5-14.6,0.7c-3.6-2-5.7-5.2-6.5-9.2c-2.5-12.9-5-25.8-7.4-38.7C506.52,40.39,511.22,33.29,518.52,31.89z"/>
	<path class="st1" d="M1961.22,53.69c-12.5,3.1-25.2,4-38.1,3.4c-15.1-0.6-30-3.4-44.7-6.9c-12.1-2.8-24-6.1-35.6-10.6
		c-10.6-4.2-21.1-8.8-31.6-13.5c-15-6.7-28.9-15.3-41.5-25.7h-103.5c7,24.3,20.5,44.9,40.1,61.6c14.2,12.2,31,20.1,48.3,27
		c13,5.1,26.3,9,39.9,12.1c16.1,3.6,32.3,5.7,48.8,5.4c6.8-0.1,13.7-0.4,20.9-0.6c-2.2,4.2-4.3,8.2-6.3,12.2
		c-2.2,4.4-4.8,8.6-5.8,13.5c-1.7,8.3,0.2,15.3,7.1,20.6c12.9,10,27.6,15.9,43.4,19.1c7.9,1.6,15.9,1.5,23.8,1
		c23.5-1.4,39.7-13,47.7-35.1c2.2-6,3.9-12.2,5.5-18.4v-73.1C1974.03,49.29,1967.92,52.09,1961.22,53.69z"/>
	<path class="st1" d="M1801.03,0.39c6.1,3.6,12.4,6.9,18.8,9.9c14.8,6.9,29.9,12.7,45.6,17.3c15.2,4.4,30.5,7.8,46.1,10.4
		c11.8,2,23.7,2.5,35.6,0.5c12.4-2,23.4-6.9,32.6-14.9V0.39H1801.03z"/>
	<path class="st1" d="M1516.22,756.69c0-7.1,0-14.1,0-21.2c0-7.1,0-14.1,0-21.2c0-8.3,6.3-14.7,14.5-14.7c8.1,0,14.6,6.4,14.6,14.6
		c0,14.2,0,28.4,0,42.5c0,7.8-5.9,14-13.3,14.6h75.9c-5.9-0.6-11.1-5-12.6-11.2c-0.3-1.1-0.4-2.3-0.4-3.4c0-14.2,0-28.3,0-42.5
		c0-7.6,5.6-13.9,12.9-14.5c7.7-0.7,14.3,4.1,15.8,11.7c0.2,1.1,0.2,2.2,0.2,3.3c0,6.9,0,13.9,0,20.8c0,7.2,0,14.3,0,21.5
		c-0.1,7.6-5.5,13.4-13.3,14.3c-0.1,0-0.2,0-0.3,0h63.2c4.3-8.2,7.6-16.9,8.9-26.3c2-13.9,0.7-27.7-3.3-41.2
		c-5.8-19.5-15.5-36.8-30.5-50.8c-13.1-12.2-28.8-20-45.8-25.2c-19.8-6.2-40.2-8.7-60.9-9.6c-14.3-0.6-28.5-0.8-42.8,0.8
		c-18.5,2-36.5,5.8-54.2,11.5c-5.2,1.7-9.6-0.2-11.9-5.1c-0.7-1.4-1.1-2.9-1.5-4.4c-1.1-4.4-2.1-8.9-3.3-13.3
		c-1.2-4.4-3.9-7.5-8-9.4c-4.4-2-8.8-2-13.4-0.8c-7.6,2-14.5,5.7-21.2,9.7c-14.3,8.5-27.5,18.6-40.7,28.5c-3.9,2.9-6.5,6.8-8.3,11.3
		c-2.8,7.4-2.8,15-1.8,22.7c1.3,10.6,4.4,20.8,8,30.8c7.4,20.8,16.6,40.9,25.8,61c1.5,3.2,3,6.5,4.4,9.7h156.7
		C1522.03,770.79,1516.22,764.49,1516.22,756.69z"/>
	<path class="st1" d="M1317.82,471.19c-5-2.6-10.3-4.1-15.8-5.5c-1-0.3-1.6,0-2.3,0.6c-7,6.4-14.6,11.9-23.1,16
		c-10.4,5.1-21.3,8.1-33,7.6c-12.9-0.5-25.3-3.2-37.5-7.3c-14.4-4.8-27.8-11.6-41-19c-10.8-6.1-21.4-12.5-31.2-20.1
		c-9.1-7-17.8-14.4-26.6-21.7c-13.6-11.4-25.2-24.5-34.8-39.4c-4-6.2-7.4-12.8-9.7-19.8c-1.6-5,0.8-9.9,5.5-11.6
		c4.7-1.6,9.8,0.8,11.4,5.5c2.7,7.9,6.9,14.9,11.7,21.7c8.2,11.4,17.9,21.5,28.5,30.8c12.3,10.7,25.2,20.5,39,29.2
		c13.3,8.4,27.2,16,41.4,22.8c10.8,5.2,22.1,9,34,10.4c15.3,1.8,29.6-1.1,42.8-9.1c6.5-4,11.7-9.5,17-15c1.2-1.3,2.6-2.4,3.5-3.8
		c4.5-7.5,8.2-15.5,10.9-23.8c6.6-20,8.4-40.4,4.5-61.2c-3.2-16.7-10-32-18.8-46.4c-16.8-27.7-39.6-49.6-66-67.9
		c-6.8-4.8-14.1-8.8-21.4-12.9c-15-8.4-30.7-15.1-47.3-19.7c-40.4-11.2-78.4-4.9-113.6,16.8c-25.6,15.8-44.5,38-56.8,65.6
		c-7.5,16.9-12.2,34.5-13.5,52.9c-2.1,29.1,5.1,55.9,21,80.2c10.3,15.6,24.2,27.9,38.9,39.3c11,8.5,22.8,16,35,22.7
		c14.5,7.9,29.5,14.5,45.4,18.8c6.6,1.8,13.3,3.4,20.2,5.2c-3.3,3.4-6.4,6.7-9.4,9.9c-3.4,3.6-7,6.9-9.3,11.4
		c-4,7.5-4,14.7,1.1,21.8c9.6,13.2,22.1,22.9,36.4,30.4c7.1,3.7,14.8,5.8,22.6,7.6c23,5.2,41.8-1.4,55.6-20.5
		c6.5-8.9,11.8-18.7,17.6-28.1c1.4-2.3,1.3-2.4,3.9-1.8c0.9,0.2,1.8,0.4,2.7,0.6c10.6,2.5,21.3,3.3,32.1,1.6
		c11.9-1.8,21.9-6.9,29.3-16.5c7.8-10.1,11.5-21.8,12.5-34.3C1332.12,484.49,1327.72,476.29,1317.82,471.19z M1229.72,411.29
		c0.2-0.4,0.4-0.8,0.6-1.2c3.4-5.6,6.9-11.2,10.3-16.8c0,0,0.1,0,0.1,0.1c3.6-5.9,7.1-12,11-17.8c4-6,12.3-7.3,18.3-3.3
		c5.9,3.9,7.8,12,4.1,18c-7,11.4-14,22.9-21.1,34.3c-3.7,6-11.8,8-17.9,4.5C1228.82,425.49,1226.42,417.59,1229.72,411.29z
		 M1168.12,371.99c6.9-11.2,13.8-22.4,20.7-33.6c4-6.4,12.1-8.5,18.5-4.6c6.4,3.8,8.5,12,4.6,18.5c-3.4,5.8-7,11.4-10.5,17.1
		c-3.5,5.6-6.8,11.3-10.4,16.9c-3,4.7-7.5,7-13.1,6.3s-9.5-3.9-11.3-9.3C1165.42,379.29,1166.02,375.49,1168.12,371.99z"/>
	<path class="st2" d="M1701.12,713.59c-2.4-14.5-7.2-28.1-13.9-41.1c-11-21.1-26.3-38-47-49.8c-18.5-10.6-38.5-16.4-59.3-19.9
		c-11.8-2-23.7-3.2-35.7-3.8c-14.2-0.7-28.3-1-42.5,0.2c-17.8,1.5-35.4,4.7-52.6,9.5c-0.5,0.1-1,0.2-1.6,0.4
		c-0.3-1.4-0.6-2.5-0.9-3.7c-1.9-7.8-5.2-14.8-11.6-19.9c-10.2-7.9-21.7-9.7-34.1-6.8c-9.8,2.3-18.5,7-27,12.2
		c-15.1,9.1-29.1,19.7-43.1,30.4c-7.4,5.7-12.3,13.3-15,22.3c-2.9,9.7-2.8,19.6-1.4,29.5c1.7,12.2,5.2,23.9,9.3,35.4
		c7.3,20.7,16.4,40.6,25.7,60.5c0.4,0.8,0.7,1.6,1.1,2.4h21.3c-1.5-3.3-2.9-6.5-4.4-9.7c-9.2-20.1-18.4-40.1-25.8-61
		c-3.5-10-6.6-20.2-8-30.8c-1-7.7-1-15.3,1.8-22.7c1.7-4.5,4.4-8.4,8.3-11.3c13.3-10,26.5-20,40.7-28.5c6.7-4,13.6-7.7,21.2-9.7
		c4.6-1.2,9.1-1.1,13.4,0.8c4.1,1.9,6.8,5,8,9.4s2.2,8.9,3.3,13.3c0.4,1.5,0.9,3,1.5,4.4c2.3,5,6.7,6.8,11.9,5.1
		c17.7-5.7,35.7-9.6,54.2-11.5c14.2-1.5,28.5-1.4,42.8-0.8c20.7,0.9,41.1,3.5,60.9,9.6c17,5.3,32.6,13,45.8,25.2
		c15,14,24.7,31.3,30.5,50.8c4,13.5,5.3,27.3,3.3,41.2c-1.3,9.4-4.6,18.1-8.9,26.3h21.5
		C1702.42,753.19,1704.53,733.99,1701.12,713.59z"/>
	<path class="st2" d="M1530.72,771.49c0.4,0,0.8,0,1.3-0.1h-2.4C1529.92,771.39,1530.32,771.49,1530.72,771.49z"/>
	<path class="st2" d="M1545.32,756.79c0-14.2,0-28.4,0-42.5c0-8.2-6.5-14.6-14.6-14.6s-14.5,6.5-14.5,14.7c0,7.1,0,14.1,0,21.2
		c0,7.1,0,14.1,0,21.2c0,7.8,5.8,14.1,13.4,14.7h2.4C1539.42,770.79,1545.22,764.49,1545.32,756.79z"/>
	<path class="st2" d="M1610.22,771.39h-2.4C1608.62,771.49,1609.42,771.49,1610.22,771.39z"/>
	<path class="st2" d="M1623.82,757.09c0.1-7.2,0-14.3,0-21.5c0-6.9,0-13.9,0-20.8c0-1.1,0-2.2-0.2-3.3c-1.5-7.6-8.1-12.4-15.8-11.7
		c-7.3,0.7-12.9,6.9-12.9,14.5c0,14.2,0,28.3,0,42.5c0,1.1,0.1,2.3,0.4,3.4c1.5,6.1,6.7,10.6,12.6,11.2h2.4c0.1,0,0.2,0,0.3,0
		C1618.32,770.49,1623.72,764.69,1623.82,757.09z"/>
	<path class="st2" d="M1777.82,372.09c-3.8-3.3-8.3-5.4-13-7.1c-6.6-2.4-13.3-4.6-19.8-7.3c-7.6-3.1-14.5-7.5-21-12.8
		c0.6-0.6,1-1,1.4-1.4c13.8-13.5,23.9-29.4,31.8-47c11.3-25.2,12.6-51,4.1-77.2c-4.5-13.9-11.3-26.7-19.9-38.6
		c-14-19.2-31.7-33.6-53.9-42.2c-19.8-7.7-40.5-10.4-61.7-10.8c-12-0.2-23.9,0.4-35.8,1.6c-14.1,1.5-28.1,3.3-42,6.6
		c-17.4,4.2-34.3,9.9-50.6,17.3c-0.5,0.2-1,0.4-1.5,0.6c-0.5-1.3-1-2.4-1.5-3.5c-3.1-7.4-7.3-13.9-14.5-17.9
		c-11.3-6.3-23-6.3-34.7-1.6c-9.3,3.8-17.2,9.7-24.9,16.1c-13.5,11.3-25.9,23.8-38,36.5c-6.5,6.7-10.2,15-11.5,24.3
		c-1.4,10,0.2,19.8,3,29.4c3.5,11.8,8.7,22.8,14.5,33.6c10.4,19.3,22.3,37.7,34.5,55.9c8.2,12.3,16.3,24.6,22,38.3
		c5,12.1,9.6,24.4,14.4,36.6c1.9,4.9,4,9.7,5.5,14.7c3.2,10.9,6.5,21.8,10.7,32.3c4.1,10.1,8.9,19.9,15.3,28.8
		c6.7,9.3,15.5,14.9,26.9,16.7c9.4,1.5,18.8,1.3,28.2,0.2c10.6-1.2,21.1-3.5,31.4-6.4c5.7-1.6,11.1-3.9,15.7-7.7
		c6.9-5.9,11.8-12.9,12.6-22.2c0.5-6.3-0.6-12.4-2.2-18.5c-1.5-5.7-3.3-11.3-5-17c-0.2-0.7-0.5-1.3,0.4-1.8
		c7.4-4.2,15.2-7.5,23.6-9.1c1.6-0.3,2.7,0.1,3.9,1.3c7.9,8.5,15.8,17.1,24,25.3c6.7,6.7,14.3,12.2,23.2,15.8
		c11.5,4.6,23.3,6,35.5,4c12.1-2,23.3-6.4,34.2-11.9c10.3-5.2,20.1-11.1,28.4-19.4c7.1-7,12.8-14.9,15.2-24.7
		C1789.62,390.29,1787.12,380.09,1777.82,372.09z M1768.22,396.29c-1.2,5.7-4.3,10.3-8.2,14.5c-6.3,6.9-14.1,11.9-22.3,16.2
		c-9.2,4.8-18.6,9.1-28.9,11.2c-14.8,3.1-28.4,0.2-40-9.6c-6.6-5.6-12.4-12-18.5-18.2c-3.7-3.8-7.4-7.6-10.7-11.7
		c-4.9-6-11.2-7.4-18.3-6.6c-8.6,0.9-16.6,4-24.3,7.6c-3.7,1.7-7.3,3.6-10.7,5.9c-7.8,5.1-10,12.7-6.9,21.5
		c2.7,7.4,5.1,14.9,6.3,22.7c1.5,9.6-2.6,16-12,18.8c-8.7,2.6-17.5,4.6-26.4,5.9c-8.2,1.1-16.4,1.6-24.7,0.7
		c-7.6-0.8-13.2-4.4-17.4-10.9c-5.6-8.7-9.9-18-13.4-27.7c-3.1-8.5-5.5-17.3-8.5-25.9c-2.3-6.6-4.8-13.1-7.2-19.7
		c-5.3-14.4-10.7-28.7-17.5-42.5c-5.5-11.2-12.3-21.5-19.1-31.8c-12.1-18.4-24.2-36.9-34.6-56.4c-5-9.4-9.6-19-12.5-29.3
		c-2.1-7.4-3.3-15-1.6-22.7c1-4.7,3.1-9,6.5-12.5c11.6-11.8,23.2-23.7,36-34.3c6-5,12.3-9.7,19.5-12.8c4.3-1.9,8.8-2.5,13.4-1.2
		c4.3,1.2,7.5,3.9,9.3,8c1.8,4.2,3.5,8.5,5.3,12.7c0.6,1.4,1.3,2.8,2.1,4.1c3.1,4.5,7.6,5.7,12.5,3.3c16.6-8.3,33.9-14.8,51.9-19.5
		c13.8-3.6,28-5.7,42.2-7.2c20.6-2.2,41.1-2.7,61.6,0.4c17.6,2.7,34.2,8,49,18.1c17,11.6,29.1,27.2,37.8,45.6
		c6,12.7,9.3,26.1,9.4,40.2c0.1,12.7-3.3,24.6-8.3,36.1c-8.6,19.9-21.6,36.4-38.1,50.3c-1.5,1.2-2.9,2.6-4.3,3.8
		c7.5,11.2,17.6,19.4,28.9,26.1c8.7,5.2,18.1,8.7,27.7,11.9c3.5,1.2,7,2.5,10.2,4.2C1767.92,388.19,1769.22,391.39,1768.22,396.29z"
		/>
	<path class="st2" d="M1607.22,243.29c-1.3-8.1-8.6-13.5-16.6-12.3c-8,1.3-13.3,8.6-12.1,16.7c1,7,2.1,14,3.2,20.9
		c1.1,7,2.1,14,3.2,20.9c1.2,8.1,8.5,13.6,16.5,12.4c7.9-1.2,13.4-8.6,12.2-16.7C1611.53,271.39,1609.42,257.39,1607.22,243.29z"/>
	<path class="st2" d="M1688.12,252.59c-1-6.9-2.1-13.7-3.1-20.6c-0.2-1.1-0.4-2.2-0.7-3.2c-2.7-7.2-9.9-11-17.4-9.2
		c-7.1,1.8-11.7,8.8-10.6,16.3c2.1,14,4.2,28,6.4,42c0.2,1.1,0.5,2.3,0.9,3.3c2.7,6.7,10.1,10.6,16.8,8.7c7.6-2.1,12.1-8.6,11-16.2
		C1690.22,266.79,1689.12,259.69,1688.12,252.59z"/>
	<path class="st2" d="M802.22,747.49c-1.4-8.1-1.2-16.2-0.1-24.6c0.8,0.2,1.4,0.3,2,0.4c18.7,4.6,37.6,4.9,56.7,2.4
		c27.4-3.7,50-16,67.8-37.1c9.5-11.2,16.8-23.7,22.4-37.2c9-22,12-44.6,7.6-68c-3.9-20.9-12.4-40-23.2-58.1
		c-6.1-10.3-12.9-20.1-20.2-29.6c-8.6-11.2-17.6-22.2-27.6-32.3c-12.7-12.6-26.4-24-41.3-34c-0.4-0.3-0.8-0.6-1.3-1
		c0.8-1.1,1.5-2.1,2.2-3.1c4.7-6.5,8-13.5,7.6-21.7c-0.5-12.9-6.7-22.9-16.9-30.4c-8.1-5.9-17.3-9.6-26.8-12.7
		c-16.7-5.6-33.9-9.5-51-13.2c-9.1-2-18.1-0.8-26.7,3c-9.3,4.1-16.7,10.6-23.4,18c-8.2,9.1-14.9,19.4-21,30
		c-11,19-20.4,38.8-29.5,58.7c-6.2,13.4-12.4,26.8-21,38.9c-7.7,10.6-15.7,21-23.6,31.5c-3.2,4.2-6.1,8.5-9.6,12.4
		c-7.6,8.4-15.1,16.9-21.8,26.1c-6.5,8.8-12.3,18-16.5,28.1c-4.4,10.6-4.6,21-0.1,31.6c3.7,8.8,8.8,16.7,14.6,24.1
		c6.6,8.4,14.1,16.1,21.9,23.4c4.4,4.1,9.1,7.5,14.8,9.3c8.6,2.8,17.2,3.3,25.6-0.9c5.6-2.8,10.3-7,14.6-11.5
		c4.1-4.3,7.9-8.8,11.8-13.2c0.5-0.5,0.8-1.1,1.8-0.6c7.5,4.1,14.4,9,20.1,15.3c1.1,1.2,1.4,2.4,0.9,4c-3.1,11.2-6.2,22.4-8.9,33.7
		c-2.2,9.2-2.9,18.6-1.2,28.1c2.2,12.2,7.2,23,15.3,32.3c0.5,0.6,1.1,1.2,1.6,1.8h29.7c-5.3-3.6-10.2-7.6-14.7-12.3
		c-10.4-11-15.1-24-12.8-39c1.3-8.5,3.7-16.9,5.8-25.3c1.3-5.1,2.6-10.3,4.3-15.3c2.5-7.3,0.5-13.4-4-19.1
		c-5.3-6.8-12.1-12-19.3-16.7c-3.4-2.2-6.9-4.3-10.6-6c-8.4-3.9-16.1-1.8-21.9,5.4c-4.9,6.2-10.1,12.2-16.1,17.3
		c-7.4,6.3-15,6.2-22.3-0.4c-6.7-6-13.1-12.5-18.9-19.4c-5.3-6.4-10-13.1-13.6-20.7c-3.3-6.9-3.2-13.6,0.1-20.5
		c4.5-9.4,10.1-17.9,16.6-26c5.7-7.1,11.8-13.8,17.6-20.8c4.4-5.4,8.6-11,13-16.5c9.5-12,18.8-24.2,27-37.1
		c6.6-10.5,11.8-21.7,17.1-33c9.3-20,18.7-40,29.8-59.1c5.4-9.2,11.1-18.1,18.3-26c5.2-5.7,11-10.7,18.5-13.3c4.6-1.6,9.3-2.1,14-1
		c16.2,3.7,32.4,7.3,48.1,12.6c7.4,2.5,14.7,5.4,21.2,9.9c3.9,2.7,6.7,6.2,8,10.8c1.2,4.3,0.6,8.4-2,12.1s-5.4,7.4-8,11.1
		c-0.9,1.3-1.7,2.6-2.3,4c-2.3,5-0.9,9.5,3.8,12.4c15.8,9.8,30.4,21.1,43.9,33.9c10.4,9.9,19.5,20.8,28.3,32.1
		c12.6,16.4,23.9,33.6,32,52.7c7,16.4,11.2,33.3,10.4,51.2c-0.9,20.5-7.9,39.1-19,56.1c-7.7,11.8-17.4,21.7-29.3,29.2
		c-10.7,6.7-22.7,10.1-35.1,11.9c-21.4,3.1-42.3,0.7-62.8-6c-1.8-0.6-3.7-1.1-5.6-1.7c-5.6,12.3-7.2,25.2-7,38.4
		c0.1,10.2,2.1,20,4.4,29.9c0.3,1.4,0.6,2.8,0.9,4.3h19.8c-0.2-1.1-0.4-2.1-0.6-3.2C805.02,761.29,803.42,754.49,802.22,747.49z"/>
	<path class="st2" d="M794.82,597.69c10.8-9.1,21.6-18.3,32.4-27.5c6.3-5.3,7-14.4,1.7-20.6c-5.3-6.2-14.3-6.8-20.6-1.5
		c-5.4,4.6-10.8,9.1-16.2,13.7c-5.4,4.6-10.8,9.1-16.2,13.7c-6.3,5.3-7.1,14.4-1.9,20.6C779.42,602.29,788.62,602.99,794.82,597.69z
		"/>
	<path class="st2" d="M824.52,637.99c-4.3,5.9-3.7,14.1,1.4,18.9c5.7,5.4,13.7,5.8,19.5,0.9c5.5-4.6,10.9-9.3,16.4-13.9
		c5.3-4.5,10.6-9,15.9-13.5c0.8-0.7,1.7-1.5,2.3-2.3c4.8-6.1,4.2-14.2-1.3-19.6c-5.2-5.1-13.6-5.3-19.4-0.4
		c-10.8,9.1-21.6,18.3-32.4,27.5C826.02,636.29,825.22,637.09,824.52,637.99z"/>
	<path class="st2" d="M317.02,626.19c1.5-6.1,1.3-12.4,0.7-18.6c-0.6-5.9-1.6-11.7-2.4-17.5c-0.1-0.7-0.3-1.4,0.7-1.7
		c8-3,16.2-5.1,24.7-5.4c1.6,0,2.7,0.5,3.7,1.9c6.5,9.6,13,19.3,19.9,28.7c5.6,7.7,12.2,14.3,20.5,19.2c10.7,6.3,22.1,9.5,34.5,9.4
		c12.2-0.1,24-2.8,35.6-6.6c11-3.6,21.6-7.9,31-14.8c8-5.9,15-12.8,18.8-22.1c4.6-11.1,3.7-21.6-4.4-30.9c-3.3-3.8-7.4-6.6-11.8-9
		c-6.2-3.4-12.5-6.6-18.5-10.2c-7.1-4.2-13.1-9.6-18.8-15.9c0.6-0.5,1.1-0.9,1.6-1.2c15.7-11.2,28.2-25.4,38.6-41.6
		c15-23.2,20.3-48.4,15.8-75.7c-2.3-14.5-7.1-28.1-13.8-41.2c-10.9-21.1-26.2-38-46.8-49.9c-18.4-10.6-38.5-16.5-59.3-20.1
		c-11.8-2-23.7-3.3-35.6-3.9c-14.2-0.7-28.3-1.1-42.5,0.1c-17.8,1.4-35.4,4.6-52.6,9.4c-0.5,0.1-1,0.2-1.6,0.4
		c-0.3-1.4-0.6-2.5-0.9-3.7c-1.9-7.8-5.1-14.8-11.6-19.9c-10.2-8-21.7-9.8-34.1-6.9c-9.6,2.2-18.3,6.8-26.7,11.9v23
		c3.4-2.2,6.8-4.4,10.2-6.4c6.7-4,13.6-7.7,21.3-9.7c4.6-1.2,9.1-1.1,13.4,0.9c4.1,1.9,6.8,5,8,9.4c1.2,4.4,2.1,8.9,3.3,13.3
		c0.4,1.5,0.9,3,1.5,4.4c2.3,5,6.7,6.8,11.9,5.1c17.7-5.7,35.8-9.5,54.2-11.4c14.2-1.5,28.5-1.3,42.8-0.7c20.6,1,41,3.6,60.9,9.8
		c17,5.3,32.6,13.1,45.7,25.4c15,14,24.6,31.3,30.4,50.9c4,13.5,5.2,27.3,3.2,41.2c-1.8,12.5-7,23.8-13.7,34.4
		c-11.6,18.3-26.9,32.7-45.3,43.9c-1.6,1-3.2,2.1-4.9,3.1c5.7,12.2,14.5,21.8,24.6,30.2c7.8,6.5,16.6,11.4,25.6,16
		c3.3,1.7,6.5,3.6,9.4,5.7c4,3,4.8,6.4,3.1,11.1c-2,5.5-5.9,9.5-10.3,13.1c-7.3,5.9-15.8,9.6-24.6,12.6c-9.8,3.4-19.8,6.1-30.2,6.7
		c-15.1,0.8-28.1-4.1-38-15.6c-5.6-6.5-10.4-13.8-15.5-20.8c-3.1-4.3-6.1-8.7-8.8-13.2c-3.9-6.6-9.9-9-17.1-9.4
		c-8.7-0.4-17,1.4-25.2,3.8c-3.9,1.1-7.8,2.5-11.5,4.2c-8.4,3.9-11.9,11.1-10.1,20.2c1.5,7.7,2.7,15.5,2.8,23.4
		c0,8.1-3.5,13.4-10.3,15.7c4.5,5,9.1,9.9,13.8,14.7C309.42,640.89,314.92,634.79,317.02,626.19z"/>
	<path class="st2" d="M336.72,471.49c8,0,14.6-6.4,14.6-14.6c0.1-14.2,0.1-28.4,0.1-42.5c0-8.2-6.5-14.7-14.6-14.7
		s-14.5,6.4-14.5,14.7c0,7.1,0,14.1-0.1,21.2c0,7.1,0,14.1-0.1,21.2C322.22,464.89,328.62,471.49,336.72,471.49z"/>
	<path class="st2" d="M416.52,471.69c7.8-0.9,13.3-6.7,13.3-14.3c0.1-7.2,0.1-14.3,0.1-21.5c0-6.9,0-13.9,0-20.8
		c0-1.1,0-2.2-0.2-3.3c-1.5-7.6-8.1-12.4-15.8-11.7c-7.3,0.7-12.9,6.9-12.9,14.5c-0.1,14.2-0.1,28.3-0.1,42.5c0,1.1,0.1,2.3,0.4,3.4
		C402.92,467.49,409.62,472.39,416.52,471.69z"/>
	<path class="st2" d="M851.42,43.39c4.5,3.9,9.4,7.1,15.2,8.7c8.7,2.5,17.3,2.6,25.5-2c5.5-3.1,10-7.4,14.1-12.1
		c3.9-4.4,7.5-9.1,11.3-13.6c0.4-0.5,0.8-1.2,1.7-0.7c7.6,3.8,14.7,8.4,20.7,14.5c1.1,1.2,1.4,2.3,1.1,4c-2.6,11.3-5.3,22.6-7.6,34
		c-1.8,9.3-2.2,18.7-0.1,28.1c2.7,12.1,8.1,22.7,16.5,31.7c8.4,8.9,18.4,15.7,29,21.7c10.1,5.7,20.5,10.5,31.9,12.7
		c9.8,1.9,19.5,2.3,29-1.2c11.3-4.2,18.3-11.9,19.7-24.2c0.6-5-0.2-9.9-1.4-14.7c-1.7-6.8-3.6-13.6-5.1-20.5
		c-1.7-8-1.8-16.2-1.1-24.5c0.8,0.1,1.4,0.2,2,0.3c18.9,3.9,37.8,3.4,56.7,0.1c27.2-4.8,49.3-18,66.3-39.7
		c9-11.5,15.9-24.3,20.9-38.1c0.9-2.5,1.7-5,2.5-7.5h-20.4c-2.7,7.8-6.4,15.4-10.8,22.8c-7.2,12.1-16.5,22.3-28.1,30.3
		c-10.4,7.2-22.2,11-34.6,13.3c-21.3,3.9-42.3,2.4-63-3.5c-1.9-0.5-3.7-1-5.6-1.5c-5.1,12.5-6.2,25.4-5.5,38.6
		c0.5,10.1,2.9,19.9,5.6,29.7c1,3.5,1.8,7.2,2.2,10.8c0.6,5-1.4,7.9-6.1,9.8c-5.4,2.2-11,2.2-16.6,1.3c-9.3-1.4-17.8-5-25.9-9.5
		c-9.1-4.9-17.9-10.4-25.4-17.7c-10.7-10.4-16-23.3-14.3-38.4c1-8.6,3-17,4.8-25.5c1.1-5.2,2.2-10.4,3.7-15.4
		c2.2-7.4-0.1-13.4-4.7-18.9c-5.6-6.6-12.6-11.5-19.9-15.9c-3.5-2.1-7.1-4-10.8-5.6c-8.6-3.6-16.2-1.2-21.7,6.3
		c-4.7,6.3-9.6,12.5-15.3,17.9c-7.1,6.6-14.7,6.8-22.3,0.5c-7-5.8-13.6-11.9-19.6-18.7c-3.1-3.4-6-7-8.6-10.8h-22.7
		c3.8,7.5,8.7,14.2,14.1,20.6C835.52,29.09,843.32,36.49,851.42,43.39z"/>
	<path class="st2" d="M1073.12,18.39c5.9,5.1,13.9,5.2,19.6,0.1c5.3-4.8,10.6-9.7,15.8-14.5c1.3-1.2,2.6-2.4,3.9-3.6h-41.9
		C1067.02,6.29,1068.12,14.09,1073.12,18.39z"/>
	<path class="st2" d="M1323.03,453.69c-2.7-1.2-5.5-2.2-8.3-3.4c1.8-3.5,3.6-6.9,5.2-10.5c7.3-15.9,11.6-32.5,12.8-50
		c1-14.4,0-28.6-3.7-42.6c-5-18.6-13.3-35.7-24-51.7c-16.6-24.8-37.6-45.2-61.6-62.7c-1.6-1.1-3.1-2.3-4.6-3.5
		c-6.4-3.9-12.7-7.8-19.1-11.7c-2.6-1.3-5.1-2.7-7.7-4c-19.7-10.4-40.2-18.7-62.2-22.9c-32.1-6.1-62.9-1.7-92.6,11.4
		c-23.2,10.2-42.8,25.3-59.2,44.4c-3.4,3.9-6.4,8.2-9.6,12.4c-0.3,0.4-0.6,0.7-0.9,1c-3,4.9-6,9.8-9,14.7c-0.1,0.3-0.2,0.7-0.3,1
		c-5.6,10.4-10.1,21.3-13.4,32.6c-8.4,28.2-10.4,56.6-2.7,85.2c4.2,15.7,10.6,30.6,19.8,44.1c12.7,18.7,29.3,33.5,47.3,46.8
		c9.6,7.1,19.6,13.4,30,19.2c11.7,6.5,23.7,12.4,36.3,16.9c2.6,0.9,5.2,1.8,7.8,2.8c-1.1,2.2-2.3,4.3-3.2,6.4
		c-5,11.7-4.8,23.1,1.9,34.1c5,8.2,11.5,15,18.6,21.3c8.5,7.5,17.9,13.6,28.1,18.6c8.9,4.4,18.4,6.9,28,8.9
		c10.6,2.2,21.2,2.3,31.7-0.4c17.2-4.3,30.3-14.6,40.5-28.8c4.3-6,8-12.4,11.9-18.6c0.4-0.7,0.8-1,1.7-0.9
		c8.8,1.7,17.6,1.5,26.4,0.6c19.8-2,35.6-10.8,46.9-27.3c7.7-11.4,11.9-24.2,13.5-37.8c1-7.9,0.2-15.7-2.9-23.1
		C1341.53,465.39,1333.42,458.39,1323.03,453.69z M1331.22,495.19c-1,12.5-4.8,24.2-12.5,34.3c-7.4,9.6-17.5,14.7-29.3,16.5
		c-10.8,1.6-21.5,0.9-32.1-1.6c-0.9-0.2-1.8-0.4-2.7-0.6c-2.6-0.6-2.5-0.5-3.9,1.8c-5.8,9.4-11.1,19.2-17.6,28.1
		c-13.8,19.1-32.6,25.7-55.6,20.5c-7.8-1.8-15.5-3.9-22.6-7.6c-14.4-7.5-26.8-17.2-36.4-30.4c-5.1-7.1-5.1-14.3-1.1-21.8
		c2.3-4.4,5.9-7.8,9.3-11.4c3.1-3.3,6.2-6.5,9.4-9.9c-7-1.8-13.6-3.4-20.2-5.2c-15.9-4.3-31-10.9-45.4-18.8
		c-12.2-6.7-24-14.2-35-22.7c-14.7-11.4-28.6-23.7-38.9-39.3c-16-24.3-23.1-51.1-21-80.2c1.3-18.4,6-36.1,13.5-52.9
		c12.3-27.6,31.2-49.8,56.8-65.6c35.3-21.7,73.3-28,113.6-16.8c16.6,4.6,32.3,11.3,47.3,19.7c7.3,4.1,14.6,8.2,21.4,12.9
		c26.4,18.4,49.2,40.3,66,67.9c8.8,14.4,15.6,29.7,18.8,46.4c3.9,20.7,2.2,41.2-4.5,61.2c-2.8,8.3-6.4,16.3-10.9,23.8
		c-0.9,1.5-2.3,2.6-3.5,3.8c-5.2,5.5-10.4,11-17,15c-13.2,8-27.5,11-42.8,9.1c-12-1.4-23.2-5.2-34-10.4
		c-14.2-6.8-28.1-14.4-41.4-22.8c-13.8-8.7-26.7-18.5-39-29.2c-10.6-9.3-20.3-19.3-28.5-30.8c-4.8-6.7-9-13.8-11.7-21.7
		c-1.7-4.8-6.8-7.2-11.4-5.5c-4.8,1.6-7.2,6.6-5.5,11.6c2.3,7,5.7,13.6,9.7,19.8c9.7,14.9,21.3,28,34.8,39.4
		c8.8,7.4,17.6,14.7,26.6,21.7c9.8,7.6,20.4,14,31.2,20.1c13.2,7.4,26.6,14.2,41,19c12.2,4.1,24.7,6.8,37.5,7.3
		c11.7,0.5,22.6-2.5,33-7.6c8.5-4.2,16.1-9.6,23.1-16c0.7-0.7,1.3-0.9,2.3-0.6c5.4,1.4,10.7,2.9,15.8,5.5
		C1327.72,476.29,1332.12,484.49,1331.22,495.19z"/>
	<path class="st2" d="M1178.02,392.49c5.6,0.7,10-1.6,13.1-6.3c3.6-5.6,6.9-11.2,10.4-16.9c3.5-5.7,7.1-11.4,10.5-17.1
		c3.8-6.5,1.7-14.6-4.6-18.5c-6.4-3.8-14.5-1.8-18.5,4.6c-6.9,11.2-13.8,22.4-20.7,33.6c-2.1,3.5-2.7,7.3-1.4,11.2
		C1168.52,388.59,1172.32,391.79,1178.02,392.49z"/>
	<path class="st2" d="M1235.12,429.09c6.2,3.5,14.2,1.6,17.9-4.5c7.1-11.4,14.1-22.8,21.1-34.3c3.7-6.1,1.9-14.1-4.1-18
		c-6-4-14.3-2.7-18.3,3.3c-3.9,5.8-7.3,11.8-11,17.8c0,0-0.1,0-0.1-0.1c-3.4,5.6-6.9,11.2-10.3,16.8c-0.2,0.4-0.4,0.8-0.6,1.2
		C1226.42,417.59,1228.82,425.49,1235.12,429.09z"/>
	<path class="st2" d="M305.02,108.79c0.2,5.2,0.8,10.4,1.3,15.6c0,0.4,0,0.9,0,1.3c1.1,5.6,2.2,11.3,3.2,16.9
		c0.1,0.3,0.4,0.6,0.4,0.9c2.8,11.5,6.9,22.5,12.1,33.1c12.8,26.5,30.5,48.7,55.5,64.8c13.7,8.8,28.5,15.4,44.3,19.2
		c22,5.2,44.2,5,66.5,2.6c11.8-1.2,23.5-3.3,35.1-6c13-3.1,25.8-6.8,38.2-12c2.5-1.1,5-2.1,7.6-3.2c0.7,2.4,1.2,4.7,2,6.9
		c4.2,12,12.1,20.3,24.4,23.9c9.2,2.7,18.6,3.3,28.1,3.2c11.3-0.2,22.4-2,33.3-5.2c9.5-2.7,18.2-7.3,26.6-12.4
		c9.3-5.5,17.1-12.6,23.1-21.6c9.8-14.8,12.5-31.3,10.4-48.6c-0.9-7.3-2.5-14.5-3.8-21.8c-0.1-0.8-0.2-1.3,0.6-1.8
		c7.7-4.6,14-10.8,19.9-17.4c13.2-14.8,19-32,16.2-51.8c-2-13.6-7.6-25.9-15.5-37c-4.6-6.5-10.5-11.7-17.7-15
		c-10.5-4.8-21.2-4.5-32-1c-2.8,0.9-5.6,2.1-8.4,3.2c-1.1-3.8-2-7.6-3.2-11.3c-3.9-12-9.2-23.3-15.9-33.8h-22
		c6.3,8.1,11.6,17,16,26.6c3.6,8,6.3,16.3,8,24.9c0.3,1.7,0,3.5,0,5.2c-0.1,7.6-0.3,15.2-2.4,22.5c-4.3,14.8-12.9,26.6-25.5,35.6
		c-9.8,7-20.6,11.8-32.1,15.3c-15.1,4.6-30.4,8.3-45.9,11.1c-16,2.9-32.2,4.4-48.5,4.7c-14.1,0.3-28-0.6-41.8-3.5
		c-8.1-1.7-15.9-4.1-23.2-8.1c-4.5-2.4-9.8-0.7-12.2,3.6c-2.4,4.4-0.8,9.7,3.7,12.3c6.5,3.6,13.4,6.2,20.5,8.1
		c17.1,4.4,34.6,6.3,52.3,5.6c11.4-0.5,22.9-1,34.3-1.9c12.4-1,24.5-3.4,36.6-6.2c14.7-3.4,29.2-7.5,43.1-13.6
		c11.8-5.2,22.8-11.6,32.6-19.9c8.9-7.5,15-17.1,19.2-27.9c3.5-8.8,5.4-18,6.2-27.4c0.1-1,0.4-1.5,1.3-2c4.9-2.6,9.9-5.1,15.3-6.6
		c10.7-2.9,19.4,0.2,26,8.7c7.7,9.9,12.8,21.1,13.9,33.7c1,12.1-3,22.6-10.5,32c-6.9,8.5-15.3,15.2-24.8,20.5
		c-0.8,0.4-1.6,0.9-2.4,1.4c-2.3,1.3-2.2,1.3-1.6,4c2.1,10.8,4.8,21.6,6,32.6c2.7,23.4-6.7,41-27.2,52.6c-7,4-14,7.6-21.8,9.7
		c-15.6,4.2-31.4,5.4-47.4,2.1c-8.5-1.8-13.4-7.1-15.5-15.3c-1.2-4.8-0.9-9.8-0.8-14.7c0.1-4.5,0.2-9,0.3-13.7
		c-6.3,3.4-12.3,6.7-18.4,9.8c-14.7,7.6-30.2,12.9-46.2,16.8c-13.5,3.3-27.2,5.7-41.1,6.9c-18.5,1.5-37.1,1.8-55.2-2.8
		c-28.2-7.1-51.6-22.1-69.6-45c-11.5-14.5-19.9-30.7-25.8-48.2c-9.5-28.7-10.6-57.8-2.3-86.8c6.9-24.8,18.8-45.8,35.7-62.8h-24.1
		c-8.4,10.7-15.4,22.7-21.1,35.7C308.62,59.29,304.32,83.59,305.02,108.79z"/>
	<path class="st2" d="M515.42,86.49c0.8,4,2.9,7.2,6.5,9.2c5,2.8,10,2.6,14.6-0.7c4.6-3.3,6.4-7.9,5.4-13.4
		c-1.1-6.5-2.5-13-3.7-19.5c-1.3-6.6-2.5-13.2-3.8-19.7c-1.5-7.4-8.6-12-15.9-10.5c-7.3,1.5-11.9,8.5-10.5,15.9
		C510.42,60.69,512.92,73.59,515.42,86.49z"/>
	<path class="st2" d="M583.42,53.29h-0.1c1.2,6.4,2.5,12.9,3.7,19.3c0.1,0.5,0.2,0.9,0.4,1.3c1.8,6.9,8.9,11.1,16,9.6
		c6.9-1.5,11.6-8.4,10.2-15.4c-2.5-13.2-5-26.4-7.6-39.5c-1.4-7-8.1-11.7-15.2-10.6c-7.2,1.1-12.4,7.7-11.3,14.8
		C580.62,39.59,582.12,46.39,583.42,53.29z"/>
	<path class="st2" d="M1915.92,639.69c-6.5-5.1-12.4-10.8-17.3-17.6c-2.9-4.1-8.5-5-12.5-2.1c-4.1,2.9-5,8.3-2.1,12.7
		c4.2,6.1,9.2,11.5,14.8,16.3c13.4,11.6,28.2,21,44.4,28.2c10.5,4.6,21,9.3,31.6,13.5c1.6,0.6,3.2,1.2,4.8,1.8v-19.6
		c-9.5-3.4-18.8-7.3-27.9-11.5C1939.03,655.39,1927.03,648.39,1915.92,639.69z"/>
	<path class="st2" d="M1979.72,757.39c-1.4,0-2.9,0.1-4.3,0.1c-16.5,0.3-32.8-1.8-48.8-5.4c-13.6-3-27-7-39.9-12.1
		c-17.3-6.8-34-14.8-48.3-27c-22.1-18.9-36.4-42.7-42.5-71.2c-3.8-18.1-4.3-36.3-1.7-54.6c4.2-29.9,16.1-56.5,36.4-78.8
		c27.8-30.7,62.6-47.3,104.5-47.7c15.1-0.2,30,1.4,44.8,4.5v-18.4c-19.8-3.7-39.7-5.4-59.9-3.5c-32.5,3-60.9,15.8-85.8,36.7
		c-19.5,16.3-34.1,36.1-44.6,59.1c-2.2,4.7-3.9,9.7-5.8,14.5c-0.2,0.4-0.4,0.8-0.6,1.2c-1.5,5.5-3.1,11.1-4.6,16.6c0,0.3,0,0.7,0,1
		c-2.5,11.5-3.8,23.2-3.9,35c-0.2,29.4,5.7,57.2,21,82.6c8.4,14,18.7,26.4,31.2,36.8c17.4,14.4,37.5,24,58.5,31.8
		c11.2,4.1,22.5,7.5,34.1,10.1c4,0.9,8,1.8,12,2.5h48.3v-13.8H1979.72z"/>
	<path class="st2" d="M1911.53,37.99c-15.6-2.6-30.9-6-46.1-10.4c-15.7-4.5-30.8-10.4-45.6-17.3c-6.5-3-12.8-6.3-18.8-9.9h-31.3
		c12.6,10.5,26.5,19.1,41.5,25.7c10.5,4.6,21,9.3,31.6,13.5c11.5,4.6,23.5,7.8,35.6,10.6c14.7,3.4,29.5,6.2,44.7,6.9
		c12.8,0.5,25.6-0.4,38.1-3.4c6.7-1.7,12.9-4.4,18.5-8v-22c-9.3,7.9-20.2,12.8-32.6,14.9C1935.22,40.49,1923.32,39.99,1911.53,37.99
		z"/>
	<path class="st2" d="M1694.82,75.89c17.4,14.4,37.5,24,58.5,31.8c11.2,4.1,22.5,7.5,34.1,10.1c13,3,26.2,5.3,39.5,6.1
		c2.7,0.2,5.5,0.3,8.3,0.5c-0.5,2.5-1,4.8-1.3,7.1c-1.6,12.6,1.8,23.5,11.3,32.2c7,6.5,15.2,11.2,23.8,15.3
		c10.2,4.8,21,8.1,32.1,10.1c9.8,1.8,19.6,1.5,29.4,0.7c10.8-0.9,21-3.7,30.3-9.2c7.6-4.4,13.8-10,18.9-16.5v-45.6
		c-1.6,6.2-3.3,12.4-5.5,18.4c-8,22.1-24.2,33.8-47.7,35.1c-8,0.5-16,0.6-23.8-1c-15.9-3.2-30.6-9-43.4-19.1
		c-6.9-5.4-8.8-12.3-7.1-20.6c1-4.9,3.5-9.1,5.8-13.5c2.1-4,4.1-8,6.3-12.2c-7.2,0.2-14,0.5-20.9,0.6c-16.5,0.3-32.8-1.8-48.8-5.4
		c-13.6-3-27-7-39.9-12.1c-17.3-6.8-34-14.8-48.3-27c-19.6-16.7-33-37.3-40.1-61.6h-18.7c3.4,13.4,8.6,26.3,16,38.7
		C1672.03,53.09,1682.22,65.49,1694.82,75.89z"/>
</g>
</svg>
