<svg width="214" height="23" viewBox="0 0 214 23" fill="none" xmlns="http://www.w3.org/2000/svg">
<line x1="23" y1="12.5" x2="194" y2="12.5" stroke="#FFBF26"/>
<circle cx="13" cy="12" r="11" fill="#FFBF26"/>
<path d="M14.4304 6.885C14.4304 6.54 14.2804 6.375 13.9354 6.375H12.3604L9.76539 8.475V10.785L12.3604 8.685V16.425H9.85539V18.15H16.6804V16.425H14.4304V6.885Z" fill="white"/>
<circle cx="107" cy="12" r="10.5" fill="white" stroke="#FFBF26"/>
<path d="M103.249 17.64C103.249 17.985 103.399 18.15 103.744 18.15H111.019V16.425H105.829L108.604 13.59C109.714 12.375 110.884 10.95 110.884 9.435C110.884 7.53 109.579 6.165 107.149 6.165C104.974 6.165 103.564 7.53 103.354 9.495H105.424C105.604 8.565 106.264 7.89 107.209 7.89C108.109 7.89 108.814 8.565 108.814 9.45C108.814 10.725 107.719 11.835 106.684 12.975L103.249 16.575V17.64Z" fill="#FFBF26"/>
<circle cx="201" cy="12" r="10.5" fill="white" stroke="#FFBF26"/>
<path d="M199.829 13.02H200.459C201.944 13.02 202.859 13.77 202.814 14.88C202.769 15.825 202.064 16.65 201.044 16.65C199.889 16.65 199.304 16.02 199.139 15.075H197.039C197.159 17.055 198.749 18.39 200.954 18.39C203.489 18.39 204.884 17.01 204.884 14.985C204.884 13.815 204.224 12.465 202.754 12.105C204.014 11.7 204.749 10.545 204.749 9.435C204.749 7.59 203.414 6.165 201.029 6.165C198.854 6.165 197.489 7.395 197.279 9.36H199.364C199.529 8.415 200.084 7.875 201.074 7.875C201.974 7.875 202.664 8.58 202.664 9.54C202.664 10.5 201.929 11.28 200.459 11.28H199.829V13.02Z" fill="#FFBF26"/>
</svg>
