<?xml version="1.0" encoding="utf-8"?>
<!-- Generator: Adobe Illustrator 25.4.1, SVG Export Plug-In . SVG Version: 6.00 Build 0)  -->
<svg version="1.1" id="레이어_1" xmlns="http://www.w3.org/2000/svg" xmlns:xlink="http://www.w3.org/1999/xlink" x="0px"
	 y="0px" viewBox="0 0 1920 2364" style="enable-background:new 0 0 1920 2364;" xml:space="preserve">
<style type="text/css">
	.st0{fill:#FFF9E3;}
	.st1{fill:#FFFFFF;}
	.st2{fill:#FFF8DF;enable-background:new    ;}
</style>
<g>
	<g>
		<rect x="-1" y="3" class="st0" width="1922" height="2364"/>
	</g>
	<g>
		<path class="st1" d="M13.8,2029.2c6.7,6,13.3,12,19.2,18.8c7.3,8.4,13.7,17.5,20,26.6c2.9,4.2,5.9,8.3,8.7,12.5
			c3.6,5.5,7,11.2,10.7,16.6c4.2,6.2,9,11.9,14.5,17c4.1,3.7,8.7,5.2,14.2,4.4c6-0.9,11.7-2.7,17.2-5c6.1-2.5,11.9-5.6,17.5-8.9
			c6.1-3.7,7.8-8.9,5-15.4c-2.3-5.3-5.4-10.1-8.6-14.8c-3.8-5.6-3.6-11.3,0.9-16.3c2-2.2,4.2-4.2,6.4-6.1c4.8-4,9.8-7.6,15.7-9.8
			c4.9-1.9,9.6-2,14.1,1.3c3.1,2.3,6.4,4.3,9.6,6.3c5.4,3.2,10.7,6.7,16.3,9.4c9.9,4.8,19.9,4.3,29.8-0.6
			c6.8-3.4,12.6-8.1,18.2-13.1c5-4.5,9.5-9.4,12.7-15.5c1.9-3.6,3.3-7.5,3.1-11.7c-0.2-3.7-1.7-5.7-5.2-6.5
			c-2.6-0.6-5.3-0.9-7.9-1.1c-7.3-0.5-14.6-1.2-21.6-3.3c-9.2-2.7-17.7-6.6-25.1-13c0.8-1.2,1.5-2.4,2.3-3.5
			c9-12.8,15.1-26.7,17.5-42.2c1.4-9,1.6-18-0.8-26.8c-2.7-9.9-7.4-18.7-14-26.5c-9.5-11.3-20.8-20.1-34.8-25.1
			c-12.2-4.4-24.9-5.1-37.7-3.7c-15,1.6-29.3,5.7-43.3,11c-9.7,3.7-19.2,7.7-28.3,12.7c-11.7,6.6-22.7,14.3-32.8,23.2
			c-3,2.6-6.4,2.6-9.4,0c-0.8-0.7-1.6-1.6-2.3-2.5c-2-2.6-4-5.3-6-7.9c-2-2.6-4.7-3.9-8-3.9c-0.9,0-1.7,0.1-2.6,0.2v109.8
			C3.9,2020.2,8.8,2024.7,13.8,2029.2z M155.4,1919.6c4.9-2.7,10.7-1.3,13.9,3.3c0.5,0.6,0.8,1.4,1.1,2.1c2,4.6,4,9.3,6,13.9
			c2,4.8,4.1,9.5,6.1,14.3c2.1,5.1,0.2,10.5-4.8,13.3c-4.4,2.5-10.2,1.2-13.4-3.1c-0.5-0.7-0.9-1.4-1.2-2.2
			c-4.1-9.4-8.1-18.9-12.2-28.3C148.8,1927.9,150.7,1922.1,155.4,1919.6z M104.1,1941.5c5.4-2.3,11.5,0.1,13.9,5.6
			c4.1,9.4,8.1,18.9,12.2,28.3c2.3,5.5-0.2,11.7-5.5,13.9c-5.4,2.3-11.5-0.2-13.9-5.7c-2-4.7-4-9.4-6.1-14.1s-4-9.4-6.1-14.1
			C96.3,1950,98.7,1943.9,104.1,1941.5z"/>
		<path class="st1" d="M1899.3,1445.3c-10.4-5.9-20.4-12.3-29.5-20.1c-7.7-6.6-14.6-14-20.2-22.5c-5.1-7.7-7.5-16.3-8.2-25.5
			c-0.6-7.5,0-14.9,1.5-22.2c0.2-0.7,0.1-1.3-0.5-1.8c-3.1-3.1-6.3-6.1-10.1-8.5c-7.4-4.6-14.7-4.3-21.7,0.7
			c-8,5.8-14.5,13.1-18.1,22.4c-3.5,8.9-2.9,17.8,0.7,26.6c3.3,8,8.1,14.9,14.2,21.1c0.5,0.5,1,1.1,1.5,1.6c1.5,1.5,1.3,1.5,0.3,3.4
			c-4,7.7-8.5,15.3-11.9,23.3c-7.3,17.1-4.2,32.5,8.7,46c4.4,4.6,8.9,8.9,14.3,12.3c10.9,6.7,22.5,11.2,35.4,12.3
			c6.9,0.6,11.7-2.4,15.2-8.1c2-3.4,2.9-7.2,3.9-10.9c1-3.4,1.9-6.8,2.9-10.4c4,4,7.8,7.9,11.7,11.6c9,8.6,19,15.9,29.7,22.3v-63.4
			C1912.3,1452.5,1905.7,1449,1899.3,1445.3z"/>
		<path class="st1" d="M1870.9,1330.2c-4.5,5.3-8.5,10.9-11.7,17.1c-0.6,1.2-0.8,2.6-1.2,3.9c-1.6,5.8-3.2,11.5-3.3,17.6
			c-0.1,12.2,3.7,23.1,11.2,32.7c5.8,7.5,12.9,13.6,20.8,18.8c10.4,6.9,21.1,13.2,32.2,18.8v-78.8c-0.9,1.7-1.8,3.4-2.7,5.1
			c0,0,0,0,0.1,0c-2.4,4.6-4.8,9.2-7.2,13.8c-0.2,0.3-0.4,0.6-0.6,0.9c-3,4.8-9.2,6.4-14.3,3.6c-4.9-2.7-6.8-9-4.3-14
			c4.9-9.4,9.8-18.8,14.7-28.2c2.6-5,8.8-7,13.9-4.6c0.1,0.1,0.2,0.1,0.3,0.2v-37.5c-2.9,0.7-5.7,1.6-8.5,2.7
			C1894.8,1308.2,1881.7,1317.6,1870.9,1330.2z"/>
		<path class="st1" d="M-1,689.3c3.3,4.4,7.7,8.3,13.2,11.7c5.4,3.3,10.9,6.4,17,8.2c12.2,3.7,24.6,5.1,37.4,2.9
			c6.8-1.2,10.8-5.3,12.6-11.7c1.1-3.8,0.9-7.7,1-11.6c0.1-3.5,0.1-7.1,0.2-10.8c4.9,2.8,9.6,5.6,14.3,8.2c11.4,6.4,23.5,11,36,14.5
			c10.6,3,21.4,5.2,32.3,6.5c14.6,1.7,29.2,2.4,43.7-0.7c22.4-4.9,41.3-16.1,56.2-33.7c9.4-11.2,16.5-23.7,21.6-37.4
			c8.3-22.4,9.9-45.4,4.1-68.4c-7.9-31.8-25.9-56.3-54.9-72.3c-11.9-6.6-24.5-11.4-37.6-15c-6.4-1.7-12.7-3.5-19.2-4.5
			c-25-4.2-50-4.4-74.8,1.9c-12.9,3.3-25.3,8.2-36.3,15.9C52,502.5,41.7,515,34.4,530c-3,6.2-5.4,12.7-7,19.5
			c-0.3,1.3-0.1,2.7-0.1,4.1c-0.1,6-0.2,12,1.3,17.8c3,11.8,9.5,21.4,19.2,28.8c7.6,5.8,16,9.9,25,12.9c11.8,4,23.8,7.4,36,10
			c12.6,2.7,25.3,4.3,38.2,5c11.1,0.6,22.1,0.3,33.1-1.6c6.4-1.1,12.7-2.8,18.6-5.8c3.6-1.8,7.8-0.3,9.5,3.2
			c1.8,3.6,0.4,7.7-3.3,9.6c-5.2,2.7-10.7,4.5-16.4,5.8c-13.7,3.1-27.5,4.1-41.4,3c-9-0.7-18.1-1.4-27-2.4
			c-9.7-1.1-19.3-3.3-28.7-5.9c-11.5-3.1-22.9-6.7-33.7-11.9c-9.1-4.4-17.7-9.8-25.2-16.6c-6.9-6.2-11.4-13.9-14.5-22.5
			c-2.5-7.1-3.8-14.4-4.2-21.8c0-0.8-0.3-1.2-1-1.6c-3.4-1.9-6.7-3.8-10.4-5.1c-2.2,19.8-3.3,40-3.3,60.4V689.3z M91,536.4
			c-1,5.4-2.4,10.7-3.6,16.1c0,0,0.1,0,0.1,0c-1.1,5.1-2.3,10.1-3.4,15.2c-0.1,0.4-0.2,0.7-0.3,1c-1.6,5.4-7.3,8.6-12.9,7.1
			c-5.4-1.4-8.9-7-7.7-12.4c2.3-10.3,4.7-20.7,7-31c1.3-5.5,6.7-9,12.3-7.9C88.1,525.5,92,530.8,91,536.4z M147.1,550.1
			c-2.3,10.1-4.6,20.3-6.9,30.4c-0.7,3.2-2.5,5.6-5.4,7.1c-4,2.1-7.9,1.8-11.5-0.9c-3.5-2.7-4.8-6.4-3.9-10.8
			c1.1-5.1,2.3-10.2,3.4-15.3c1.2-5.2,2.3-10.3,3.5-15.5c1.4-5.8,7.1-9.2,12.8-7.9C144.9,538.7,148.4,544.3,147.1,550.1z"/>
		<path class="st1" d="M717.5,2366.8c6-8.3,9.8-17.5,11.7-27.6c2.8-14.5,2.4-28.8-2.6-42.9c-4.3-12.3-11.8-22.5-20.9-31.6
			c-10.7-10.6-22.9-19.1-35.9-26.6c-9-5.2-18.1-10.1-27.7-13.8c-12.5-4.9-25.4-8.5-38.7-10.8c-3.9-0.7-6.1-3.3-5.9-7.3
			c0-1.1,0.2-2.2,0.5-3.3c0.7-3.2,1.6-6.4,2.3-9.7c0.7-3.2,0-6.1-2-8.7c-2.1-2.7-5-4.3-8.3-5c-5.6-1.3-11.2-1.2-16.9-0.9
			c-12,0.7-23.9,2.7-35.7,4.7c-3.5,0.6-6.5,2.2-9.1,4.5c-4.3,3.8-6.8,8.7-8.8,13.9c-2.7,7.3-4.1,14.8-5.2,22.5
			c-2.3,15.9-3.1,31.8-3.9,47.8c-0.4,9-0.9,17.9-2.5,26.8c-1.9,10.9-4.9,21.6-8,32.3c-1.4,4.9-2.7,9.8-4.2,14.6
			c-2,6.3-4.3,12.5-6.1,18.8c-0.2,0.8-0.5,1.6-0.7,2.4h228.5C717.4,2366.9,717.4,2366.9,717.5,2366.8z M639.8,2301
			c-4.7,9.1-9.5,18.2-14.3,27.3c-2.8,5.3-9.1,7.2-14.3,4.5c-5.2-2.7-7.1-9-4.4-14.3c2.4-4.5,4.7-9.1,7.1-13.6
			c2.4-4.5,4.7-9.1,7.1-13.6c2.8-5.3,9-7.3,14.2-4.6C640.6,2289.5,642.6,2295.8,639.8,2301z M691.1,2325.5c-0.2,0.8-0.6,1.5-0.9,2.2
			c-2.3,4.5-4.7,8.9-7,13.4c-2.4,4.6-4.8,9.2-7.2,13.8c-2.6,4.9-8,6.8-13.4,4.7c-4.7-1.8-7.4-7.2-6.1-12.3c0.2-0.8,0.5-1.6,0.9-2.3
			c4.7-9.1,9.5-18.2,14.3-27.3c2.6-4.9,8.3-7,13.2-5C690,2314.8,692.6,2320.1,691.1,2325.5z"/>
		<path class="st1" d="M1889.3,1515.6c-1.7-1.4-3.3-2.8-5-4.2c-1.1,1.7-2,3.3-3.1,4.8c-5.9,8.1-13.7,12.6-23.9,12.5
			c-7.5,0-14.8-1.7-22-4c-8.5-2.7-16.5-6.6-24-11.5c-6.6-4.2-12.1-9.6-17.4-15.4c-5.8-6.3-10.1-13.4-12.6-21.6
			c-4-13.4-2.4-26.5,3.1-39.2c2.3-5.3,5.2-10.4,7.8-15.6c0.3-0.5,0.4-0.9-0.1-1.5c-4.7-5.2-8.2-11.3-11.2-17.7
			c-6.7-14.2-7.2-28.5-0.5-42.9c4.6-9.9,11.6-17.9,20.1-24.5c5-3.9,10.6-6.5,16.8-7.4c9-1.3,17.1,1.4,24.5,6.5
			c1.9,1.4,3.8,2.8,5.7,4.3c1.7-2.6,3.2-5.3,5-7.8c7.8-11.4,17.3-21.1,28.7-28.9c9.4-6.5,19.4-11.6,30.4-14.8
			c2.4-0.7,4.9-1.3,7.3-1.8V69H544.9C268.8,69,40.6,274,4.1,540.1c1.1,0.3,2.3,0.7,3.4,1.1c2.2,0.8,4.4,1.8,6.6,2.7
			c0.9-3,1.8-5.9,2.8-8.8c4.7-13,11.4-24.8,20.4-35.3c7.4-8.7,15.8-16.2,25.7-22c13.1-7.7,27.2-12.8,42.1-16
			c23-4.9,46.2-4.8,69.4-1.4c1.5,0.2,3,0.4,4.5,0.6c5.8,1.3,11.5,2.6,17.3,3.9c2.2,0.7,4.4,1.3,6.6,2c16.9,5,33.1,11.6,47.8,21.4
			c21.5,14.3,36.5,33.7,46,57.6c7.5,18.6,10.2,37.9,8.9,57.8c-0.3,4.1-0.9,8.2-1.4,12.3c0,0.3,0,0.7,0,1.1c-1,4.4-2,8.8-3,13.3
			c-0.1,0.2-0.3,0.5-0.4,0.7c-2.5,9-6.1,17.6-10.4,25.8c-10.8,20.5-25.4,37.7-45.5,49.7c-11.1,6.6-22.9,11.4-35.5,14
			c-17.5,3.5-35.1,2.7-52.6,0.3c-9.3-1.3-18.5-3.2-27.5-5.7c-10.2-2.8-20.2-6.1-29.8-10.5c-2-0.9-3.9-1.8-5.9-2.7
			c-0.6,1.9-1.1,3.7-1.7,5.4c-3.6,9.4-10.1,15.7-19.9,18.2c-7.3,1.9-14.8,2.2-22.3,1.8c-8.9-0.5-17.6-2.2-26.1-5
			C16,719.8,9.3,716,2.8,711.8c-1.3-0.8-2.5-1.7-3.8-2.6v1182.6c3-0.3,6.2,0,9.4,0.9c5.7,1.5,9.9,5.3,13.4,9.9
			c0.5,0.7,1.1,1.4,1.7,2.2c0.3-0.3,0.7-0.5,0.9-0.7c10.1-8.2,20.9-15.3,32.3-21.4c9.1-4.8,18.6-8.7,28.2-12.3
			c8.1-3,16.4-5.6,24.8-7.7c14.9-3.6,29.9-5.5,45.2-3.7c17.2,2,32.2,8.9,45.5,19.7c8.2,6.7,15.3,14.5,21,23.4
			c10.8,16.8,14.5,35.1,11.2,54.9c-2.3,13.7-6.5,26.8-13.7,38.7c-0.2,0.4-0.4,0.8-0.7,1.3c5.5,2.5,11.1,4.4,17,5.2
			c5.1,0.7,10.2,1,15.2,1.5c3.6,0.3,7.1,1,10.4,2.6c8,3.9,11.7,10.6,11.8,19.3c0.1,7.3-2.5,13.9-6.2,20.1
			c-4.3,7.3-10.1,13.2-16.4,18.8c-6.6,5.8-13.7,11-21.8,14.6c-8.2,3.6-16.7,4.8-25.6,3.7c-6.9-0.9-13.3-3.3-19.2-6.8
			c-7.2-4.3-14.3-8.9-21.5-13.4c-1-0.7-1.9-0.7-3-0.2c-5.6,2.6-10.5,6.4-14.9,10.7c-0.6,0.5-0.2,0.9,0.1,1.3c2.2,3.7,4.5,7.2,6.6,11
			c2.2,3.9,4.1,8.1,4.9,12.6c1.1,6.7-1,12.5-4.8,17.9c-2.5,3.6-5.9,6.1-9.6,8.3c-6.7,3.9-13.6,7.4-20.8,10.2
			c-6.4,2.5-12.9,4.3-19.8,5c-8.3,0.8-15.5-1.5-21.9-6.8c-6.1-5.1-11.3-11.1-16-17.4c-4.9-6.6-9.2-13.6-13.4-20.7
			c-1.9-3.2-4.3-6.2-6.5-9.3c-5.6-7.7-11-15.5-16.8-23c-6.5-8.6-14.5-15.7-22.4-22.8c-1.6-1.5-3.3-2.9-4.9-4.4V2367h475.4
			c0.2-0.8,0.4-1.6,0.6-2.4c2-8,4.7-15.7,7.5-23.5c1.3-3.6,2.1-7.3,3.1-10.9c2.4-9.2,5-18.3,7.2-27.5c2.5-10.4,3-21.1,3.5-31.8
			c0.7-15.9,1.6-31.7,3.8-47.5c1.2-8.8,2.9-17.5,5.9-25.9c2.5-6.8,5.7-13.2,10.8-18.5c4.7-4.9,10.4-8.1,17.1-9.3
			c12.5-2.2,25.1-4.3,37.9-5.1c7.2-0.5,14.4-0.6,21.4,1.2c8.9,2.3,15.7,7.3,19.6,15.8c2.5,5.4,2.2,11,0.8,16.7
			c-0.2,0.8-0.4,1.7-0.7,2.7c0.4,0.1,0.8,0.2,1.2,0.3c12.7,2.7,25,6.5,37,11.5c9.5,4,18.5,8.9,27.3,14.1c7.5,4.4,14.7,9.1,21.6,14.4
			c12.2,9.2,23.1,19.7,31.4,32.7c9.3,14.6,13.5,30.6,13.5,47.8c0,10.6-1.5,21-4.9,31.1c-1.6,5-3.7,9.7-6.1,14.1h1185v-831.7
			c-1.2-0.6-2.3-1.3-3.5-1.9C1906.4,1528.1,1897.5,1522.4,1889.3,1515.6z"/>
		<path class="st2" d="M26.3,2062.1c5.7,7.6,11.2,15.3,16.8,23c2.2,3.1,4.6,6.1,6.5,9.3c4.2,7.1,8.5,14.1,13.4,20.7
			c4.7,6.4,9.8,12.3,16,17.4c6.4,5.3,13.6,7.6,21.9,6.8c6.9-0.7,13.4-2.5,19.8-5c7.2-2.8,14.1-6.3,20.8-10.2
			c3.7-2.2,7.1-4.7,9.6-8.3c3.8-5.4,5.9-11.2,4.8-17.9c-0.8-4.5-2.7-8.6-4.9-12.6c-2.1-3.7-4.4-7.3-6.6-11c-0.3-0.4-0.6-0.8-0.1-1.3
			c4.4-4.3,9.3-8.1,14.9-10.7c1.1-0.5,1.9-0.4,3,0.2c7.1,4.5,14.2,9.1,21.5,13.4c5.9,3.5,12.2,6,19.2,6.8c8.9,1.1,17.4-0.1,25.6-3.7
			c8.1-3.6,15.2-8.8,21.8-14.6c6.3-5.5,12.1-11.5,16.4-18.8c3.7-6.2,6.3-12.8,6.2-20.1c-0.1-8.7-3.8-15.4-11.8-19.3
			c-3.3-1.6-6.8-2.2-10.4-2.6c-5.1-0.5-10.2-0.8-15.2-1.5c-5.9-0.8-11.5-2.6-17-5.2c0.3-0.5,0.5-0.9,0.7-1.3
			c7.2-12,11.4-25,13.7-38.7c3.3-19.7-0.5-38-11.2-54.9c-5.7-8.9-12.8-16.7-21-23.4c-13.3-10.9-28.3-17.8-45.5-19.7
			c-15.3-1.8-30.3,0.1-45.2,3.7c-8.4,2-16.7,4.6-24.8,7.7c-9.6,3.6-19.1,7.4-28.2,12.3c-11.4,6.1-22.2,13.2-32.3,21.4
			c-0.3,0.2-0.6,0.5-0.9,0.7c-0.6-0.8-1.1-1.5-1.7-2.2c-3.5-4.6-7.7-8.4-13.4-9.9c-3.3-0.9-6.4-1.1-9.4-0.9v14.2
			c0.8-0.1,1.7-0.2,2.6-0.2c3.3,0.1,6,1.4,8,3.9c2,2.6,4,5.3,6,7.9c0.7,0.9,1.4,1.7,2.3,2.5c3,2.6,6.4,2.6,9.4,0
			c10.1-8.9,21.1-16.6,32.8-23.2c9-5.1,18.6-9.1,28.3-12.7c14-5.3,28.3-9.4,43.3-11c12.8-1.3,25.4-0.7,37.7,3.7
			c14,5,25.4,13.8,34.8,25.1c6.5,7.8,11.3,16.6,14,26.5c2.4,8.9,2.2,17.8,0.8,26.8c-2.4,15.5-8.5,29.5-17.5,42.2
			c-0.8,1.1-1.6,2.3-2.3,3.5c7.3,6.5,15.9,10.4,25.1,13c7.1,2.1,14.3,2.8,21.6,3.3c2.7,0.2,5.3,0.5,7.9,1.1c3.5,0.8,5,2.9,5.2,6.5
			c0.2,4.2-1.1,8-3.1,11.7c-3.2,6-7.7,10.9-12.7,15.5c-5.6,5.1-11.4,9.8-18.2,13.1c-9.8,4.9-19.9,5.4-29.8,0.6
			c-5.6-2.7-10.9-6.2-16.3-9.4c-3.3-2-6.6-4-9.6-6.3c-4.5-3.3-9.2-3.2-14.1-1.3c-5.9,2.2-10.9,5.8-15.7,9.8
			c-2.3,1.9-4.5,3.9-6.4,6.1c-4.5,5-4.7,10.8-0.9,16.3c3.2,4.7,6.3,9.5,8.6,14.8c2.8,6.5,1.1,11.7-5,15.4
			c-5.6,3.4-11.4,6.4-17.5,8.9c-5.5,2.3-11.2,4.1-17.2,5c-5.5,0.8-10.1-0.7-14.2-4.4c-5.5-5.1-10.3-10.8-14.5-17
			c-3.7-5.4-7-11.1-10.7-16.6c-2.8-4.2-5.8-8.3-8.7-12.5c-6.3-9.1-12.7-18.2-20-26.6c-5.9-6.8-12.5-12.8-19.2-18.8
			c-4.9-4.5-9.9-8.9-14.8-13.5v19.1c1.6,1.5,3.3,2.9,4.9,4.4C11.9,2046.3,19.8,2053.5,26.3,2062.1z"/>
		<path class="st2" d="M104.7,1969.6c2,4.7,4,9.4,6.1,14.1c2.4,5.5,8.5,8,13.9,5.7c5.4-2.3,7.8-8.5,5.5-13.9
			c-4-9.4-8.1-18.9-12.2-28.3c-2.4-5.5-8.5-7.9-13.9-5.6c-5.4,2.3-7.8,8.4-5.4,13.9C100.6,1960.2,102.7,1964.9,104.7,1969.6z"/>
		<path class="st2" d="M163.1,1961.2c0.3,0.8,0.7,1.5,1.2,2.2c3.1,4.2,9,5.6,13.4,3.1c4.9-2.8,6.9-8.2,4.8-13.3
			c-2-4.8-4.1-9.6-6.1-14.3c-2-4.6-4-9.3-6-13.9c-0.3-0.7-0.7-1.5-1.1-2.1c-3.2-4.6-9-5.9-13.9-3.3c-4.7,2.5-6.6,8.3-4.4,13.4
			C155,1942.4,159,1951.8,163.1,1961.2z"/>
		<path class="st2" d="M745,2321.8c0-17.2-4.1-33.2-13.5-47.8c-8.3-13-19.2-23.5-31.4-32.7c-6.9-5.2-14.1-10-21.6-14.4
			c-8.9-5.2-17.9-10.1-27.3-14.1c-12-5-24.3-8.9-37-11.5c-0.4-0.1-0.7-0.2-1.2-0.3c0.2-1,0.4-1.8,0.7-2.7c1.4-5.6,1.7-11.3-0.8-16.7
			c-3.9-8.5-10.7-13.5-19.6-15.8c-7-1.8-14.2-1.7-21.4-1.2c-12.7,0.8-25.3,2.9-37.9,5.1c-6.7,1.2-12.4,4.4-17.1,9.3
			c-5.1,5.3-8.3,11.6-10.8,18.5c-3,8.4-4.7,17.1-5.9,25.9c-2.2,15.7-3.1,31.6-3.8,47.5c-0.5,10.7-1,21.4-3.5,31.8
			c-2.2,9.2-4.8,18.4-7.2,27.5c-1,3.7-1.8,7.4-3.1,10.9c-2.8,7.7-5.5,15.5-7.5,23.5c-0.2,0.8-0.4,1.6-0.6,2.4h14.5
			c0.2-0.8,0.4-1.6,0.7-2.4c1.9-6.3,4.2-12.5,6.1-18.8c1.5-4.8,2.8-9.7,4.2-14.6c3.1-10.7,6-21.3,8-32.3c1.6-8.9,2-17.8,2.5-26.8
			c0.8-16,1.6-32,3.9-47.8c1.1-7.6,2.5-15.2,5.2-22.5c1.9-5.2,4.5-10.2,8.8-13.9c2.6-2.3,5.7-3.9,9.1-4.5c11.9-1.9,23.7-4,35.7-4.7
			c5.7-0.3,11.3-0.4,16.9,0.9c3.3,0.8,6.2,2.3,8.3,5c2,2.6,2.7,5.5,2,8.7c-0.7,3.2-1.6,6.4-2.3,9.7c-0.3,1.1-0.4,2.2-0.5,3.3
			c-0.2,4,2,6.6,5.9,7.3c13.3,2.2,26.2,5.9,38.7,10.8c9.7,3.8,18.8,8.6,27.7,13.8c13,7.5,25.2,16,35.9,26.6
			c9.1,9.1,16.6,19.3,20.9,31.6c5,14,5.4,28.4,2.6,42.9c-1.9,10-5.7,19.3-11.7,27.6c0,0.1-0.1,0.1-0.1,0.2H734
			c2.4-4.4,4.5-9.1,6.1-14.1C743.5,2342.8,745,2332.5,745,2321.8z"/>
		<path class="st2" d="M635.3,2286.8c-5.2-2.7-11.5-0.7-14.2,4.6c-2.4,4.5-4.7,9.1-7.1,13.6c-2.4,4.5-4.7,9.1-7.1,13.6
			c-2.7,5.3-0.8,11.6,4.4,14.3c5.2,2.7,11.5,0.7,14.3-4.5c4.8-9.1,9.5-18.2,14.3-27.3C642.6,2295.8,640.6,2289.5,635.3,2286.8z"/>
		<path class="st2" d="M684.8,2312.7c-4.9-2-10.6,0.1-13.2,5c-4.8,9.1-9.5,18.2-14.3,27.3c-0.4,0.7-0.7,1.5-0.9,2.3
			c-1.3,5.1,1.4,10.5,6.1,12.3c5.3,2,10.8,0.1,13.4-4.7c2.4-4.6,4.8-9.2,7.2-13.8c2.3-4.5,4.7-8.9,7-13.4c0.4-0.7,0.7-1.4,0.9-2.2
			C692.6,2320.1,690,2314.8,684.8,2312.7z"/>
		<path class="st2" d="M1889.3,1496.7c-3.9-3.7-7.7-7.6-11.7-11.6c-1,3.6-1.9,7-2.9,10.4c-1,3.7-1.9,7.5-3.9,10.9
			c-3.5,5.7-8.3,8.7-15.2,8.1c-12.8-1.1-24.5-5.7-35.4-12.3c-5.4-3.3-10-7.7-14.3-12.3c-12.9-13.5-16-28.9-8.7-46
			c3.4-8,7.9-15.6,11.9-23.3c1-1.9,1.1-1.8-0.3-3.4c-0.5-0.5-1-1.1-1.5-1.6c-6-6.2-10.9-13.1-14.2-21.1c-3.6-8.8-4.2-17.7-0.7-26.6
			c3.7-9.4,10.1-16.6,18.1-22.4c6.9-5,14.3-5.3,21.7-0.7c3.8,2.4,7,5.4,10.1,8.5c0.6,0.6,0.7,1.1,0.5,1.8
			c-1.5,7.3-2.1,14.7-1.5,22.2c0.8,9.1,3.2,17.7,8.2,25.5c5.6,8.5,12.4,15.9,20.2,22.5c9.1,7.8,19.2,14.1,29.5,20.1
			c6.4,3.7,13,7.2,19.7,10.2v-16.3c-11.1-5.6-21.9-11.9-32.2-18.8c-7.9-5.2-15-11.3-20.8-18.8c-7.5-9.6-11.3-20.5-11.2-32.7
			c0-6,1.7-11.8,3.3-17.6c0.4-1.3,0.5-2.8,1.2-3.9c3.2-6.1,7.2-11.8,11.7-17.1c10.9-12.6,24-22.1,39.6-27.8c2.8-1,5.6-1.9,8.5-2.7
			v-14.5c-2.4,0.5-4.9,1.1-7.3,1.8c-11,3.1-21,8.3-30.4,14.8c-11.3,7.9-20.9,17.5-28.7,28.9c-1.7,2.5-3.3,5.2-5,7.8
			c-1.9-1.4-3.7-2.9-5.7-4.3c-7.3-5.2-15.4-7.8-24.5-6.5c-6.2,0.9-11.9,3.5-16.8,7.4c-8.5,6.7-15.5,14.6-20.1,24.5
			c-6.7,14.3-6.2,28.7,0.5,42.9c3,6.3,6.4,12.4,11.2,17.7c0.5,0.5,0.4,0.9,0.1,1.5c-2.6,5.2-5.5,10.3-7.8,15.6
			c-5.5,12.7-7.2,25.7-3.1,39.2c2.5,8.2,6.8,15.3,12.6,21.6c5.2,5.7,10.8,11.2,17.4,15.4c7.5,4.8,15.5,8.7,24,11.5
			c7.1,2.3,14.4,3.9,22,4c10.2,0.1,18-4.4,23.9-12.5c1.1-1.5,2-3.1,3.1-4.8c1.7,1.4,3.4,2.8,5,4.2c8.2,6.7,17,12.5,26.2,17.7
			c1.2,0.7,2.3,1.3,3.5,1.9v-16.4C1908.3,1512.6,1898.3,1505.3,1889.3,1496.7z"/>
		<path class="st2" d="M1918.7,1337.1c-5.1-2.4-11.3-0.4-13.9,4.6c-4.9,9.4-9.8,18.8-14.7,28.2c-2.6,5-0.7,11.2,4.3,14
			c5,2.8,11.3,1.2,14.3-3.6c0.2-0.3,0.4-0.6,0.6-0.9c2.4-4.6,4.8-9.2,7.2-13.8c0,0,0,0-0.1,0c0.9-1.7,1.8-3.4,2.7-5.1v-23.1
			C1918.9,1337.2,1918.8,1337.2,1918.7,1337.1z"/>
		<path class="st2" d="M23.5,722.2c8.5,2.8,17.2,4.5,26.1,5c7.5,0.4,14.9,0.1,22.3-1.8c9.9-2.5,16.3-8.8,19.9-18.2
			c0.7-1.7,1.1-3.5,1.7-5.4c2,0.9,4,1.8,5.9,2.7c9.6,4.4,19.6,7.7,29.8,10.5c9.1,2.5,18.2,4.4,27.5,5.7c17.5,2.5,35.1,3.2,52.6-0.3
			c12.6-2.5,24.4-7.4,35.5-14c20.1-12,34.7-29.1,45.5-49.7c4.3-8.3,7.9-16.8,10.4-25.8c0.1-0.3,0.2-0.5,0.4-0.7c1-4.4,2-8.8,3-13.3
			c0-0.4,0-0.7,0-1.1c0.5-4.1,1.2-8.2,1.4-12.3c1.3-19.9-1.5-39.2-8.9-57.8c-9.6-23.9-24.5-43.3-46-57.6
			c-14.8-9.8-30.9-16.4-47.8-21.4c-2.2-0.6-4.4-1.3-6.6-2c-5.8-1.3-11.5-2.6-17.3-3.9c-1.5-0.2-3-0.3-4.5-0.6
			c-23.2-3.3-46.4-3.4-69.4,1.4c-14.9,3.1-29,8.2-42.1,16c-9.9,5.8-18.3,13.3-25.7,22c-9,10.5-15.7,22.3-20.4,35.3
			c-1,2.9-1.9,5.8-2.8,8.8c-2.2-0.9-4.4-1.9-6.6-2.7c-1.1-0.4-2.3-0.8-3.4-1.1c-0.7,4.8-1.2,9.6-1.8,14.4c3.6,1.3,7,3.2,10.4,5.1
			c0.7,0.4,0.9,0.9,1,1.6c0.4,7.5,1.7,14.8,4.2,21.8c3.1,8.6,7.6,16.4,14.5,22.5c7.6,6.8,16.1,12.2,25.2,16.6
			c10.8,5.2,22.1,8.8,33.7,11.9c9.5,2.6,19,4.8,28.7,5.9c9,1,18,1.7,27,2.4c13.9,1.1,27.8,0.1,41.4-3c5.7-1.3,11.2-3.1,16.4-5.8
			c3.7-1.9,5.1-6,3.3-9.6c-1.7-3.5-5.9-5-9.5-3.2c-5.9,2.9-12.1,4.7-18.6,5.8c-11,1.9-22,2.3-33.1,1.6c-12.9-0.7-25.6-2.3-38.2-5
			c-12.2-2.6-24.2-6-36-10c-9-3.1-17.4-7.1-25-12.9c-9.7-7.4-16.1-17-19.2-28.8c-1.5-5.9-1.4-11.8-1.3-17.8c0-1.4-0.2-2.8,0.1-4.1
			c1.6-6.8,3.9-13.2,7-19.5c7.3-15,17.6-27.5,31.3-37c11-7.7,23.3-12.6,36.3-15.9c24.8-6.3,49.8-6.1,74.8-1.9
			c6.5,1.1,12.9,2.8,19.2,4.5c13.1,3.6,25.7,8.4,37.6,15c29,16,47,40.5,54.9,72.3c5.8,23.1,4.2,46-4.1,68.4
			c-5.1,13.7-12.2,26.2-21.6,37.4c-14.9,17.6-33.7,28.8-56.2,33.7c-14.4,3.1-29.1,2.4-43.7,0.7c-10.9-1.3-21.7-3.5-32.3-6.5
			c-12.5-3.5-24.6-8.1-36-14.5c-4.7-2.6-9.4-5.4-14.3-8.2c-0.1,3.7-0.1,7.3-0.2,10.8c-0.1,3.9,0.1,7.8-1,11.6
			c-1.9,6.4-5.9,10.5-12.6,11.7c-12.7,2.2-25.1,0.8-37.4-2.9c-6.1-1.8-11.6-4.9-17-8.2c-5.5-3.4-9.9-7.3-13.2-11.7v19.9
			c1.2,0.9,2.5,1.8,3.8,2.6C9.3,716,16,719.8,23.5,722.2z"/>
		<path class="st2" d="M139.2,537.3c-5.7-1.4-11.4,2.1-12.8,7.9c-1.2,5.1-2.4,10.3-3.5,15.5c-1.2,5.1-2.4,10.2-3.4,15.3
			c-0.9,4.3,0.4,8.1,3.9,10.8c3.6,2.7,7.5,3,11.5,0.9c2.9-1.5,4.7-3.9,5.4-7.1c2.3-10.1,4.6-20.3,6.9-30.4
			C148.4,544.3,144.9,538.7,139.2,537.3z"/>
		<path class="st2" d="M82.4,524.5c-5.5-1.1-11,2.5-12.3,7.9c-2.4,10.3-4.7,20.7-7,31c-1.2,5.5,2.2,11,7.7,12.4
			c5.6,1.4,11.2-1.7,12.9-7.1c0.1-0.3,0.2-0.7,0.3-1c1.2-5,2.3-10.1,3.4-15.2c0,0-0.1,0-0.1,0c1.2-5.4,2.6-10.7,3.6-16.1
			C92,530.8,88.1,525.5,82.4,524.5z"/>
	</g>
	<g>
		<path class="st2" d="M1703.2,1108.3c2.7,5.5,5.9,10.4,10,14.8c3.5,3.7,7.3,7.2,10.9,10.8c2.6,2.5,4.9,5.3,6.4,8.6
			c3.8,8.1,2.4,15.6-3,22.4c-4.5,5.8-10.7,9.2-17.5,11.7c-7.9,2.9-16.2,3.9-24.5,4.2c-8.8,0.3-17.6-0.1-26.1-2.4
			c-8.6-2.4-16-6.8-22.2-13.3c-4.8-5-8.2-10.9-10.6-17.4c-2.9-7.9-5.5-15.9-8.2-23.9c-0.4-1.2-1-1.8-2.2-2.1
			c-6-1.5-12.2-1.6-18.3-1.1c-0.8,0.1-0.7,0.6-0.8,1.1c-0.6,4.2-1.1,8.5-1.8,12.7c-0.8,4.5-1.9,8.8-4.1,12.8
			c-3.3,5.9-8.7,9.1-15,10.9c-4.2,1.2-8.4,1-12.7,0.4c-7.7-1.2-15.2-2.8-22.6-5.2c-6.5-2.1-12.7-4.8-18.5-8.6
			c-7-4.6-11.1-10.9-12.7-19.1c-1.6-7.8-1.8-15.7-1.4-23.6c0.4-8.2,1.4-16.4,2.6-24.5c0.5-3.7,0.6-7.6,0.8-11.3
			c0.5-9.5,1.2-19,1.5-28.4c0.4-10.7-1.3-21.3-3-31.9c-2.5-15.7-4.9-31.4-5.9-47.2c-0.6-8.9-0.7-17.7,0.6-26.5
			c1-7.2,2.9-14.1,6.8-20.3c3.6-5.7,8.6-10.1,14.9-12.6c11.8-4.7,23.7-9.3,36-12.6c6.9-1.9,14-3.5,21.2-3.1
			c9.2,0.4,16.9,3.9,22.4,11.5c3.5,4.8,4.4,10.4,4.2,16.2c0,0.9-0.1,1.7-0.1,2.8c0.4,0,0.8,0,1.2,0c13,0,25.8,1.3,38.5,3.8
			c10.1,2,19.9,5,29.6,8.3c8.2,2.8,16.3,6,24.1,9.7c13.8,6.6,26.6,14.6,37.4,25.7c12.1,12.4,19.4,27.2,22.8,44
			c2.1,10.4,2.7,20.9,1.5,31.4c-2.3,19.9-10.9,36.4-25.9,49.7c-10.4,9.2-21.9,16.7-35.1,21.4
			C1704.2,1107.9,1703.8,1108.1,1703.2,1108.3z M1685.6,1099.2c1.4-0.4,2.7-0.9,4-1.2c15.1-4.2,28.6-11.2,40.2-21.7
			c6.8-6.1,12.6-12.9,16.3-21.3c4.2-9.3,6-19.2,5.9-29.4c-0.2-14.8-3.5-28.7-11.2-41.5c-6.7-11.1-16.1-19.6-26.9-26.7
			c-12.6-8.2-26.3-14-40.5-18.8c-9.8-3.3-19.7-6.2-30-7.9c-13.3-2.3-26.6-3.2-40.1-2.7c-4,0.1-6.6-2-7.3-5.9
			c-0.2-1.1-0.2-2.2-0.2-3.3c0.1-3.3,0.3-6.6,0.3-9.9c0.1-3.3-1.2-6-3.7-8.1c-2.6-2.2-5.8-3.2-9.2-3.2c-5.7-0.1-11.3,1.1-16.7,2.6
			c-11.6,3.1-22.8,7.5-34.1,11.8c-3.3,1.3-5.9,3.5-8,6.3c-3.4,4.6-4.9,9.9-5.8,15.4c-1.2,7.7-1,15.4-0.6,23.1
			c1,16,3.4,31.8,5.9,47.6c1.4,8.9,2.8,17.7,3,26.7c0.3,11.1-0.4,22.2-1.3,33.2c-0.4,5.1-0.6,10.1-1.2,15.2
			c-0.7,6.5-1.7,13.1-2.2,19.6c-0.6,7.4-0.6,14.9,0.5,22.3c0.8,5.5,3.4,9.5,8.2,12.4c5.2,3.1,10.7,5.3,16.5,7
			c6.3,1.9,12.7,3.2,19.2,4.1c7,1,11.7-2,13.6-8.8c1.5-5.5,2.2-11.2,2.7-16.9c0.6-6.7,4.4-11.1,11-12.1c2.9-0.5,5.9-0.6,8.8-0.7
			c6.2-0.1,12.4,0.3,18.3,2.3c5,1.7,8.7,4.5,10.1,9.9c1,3.7,2.2,7.3,3.5,10.9c2.1,5.9,4.1,11.9,6.7,17.5c4.7,10,12.8,15.9,23.5,18.3
			c7.4,1.7,14.9,1.7,22.4,1.3c6.7-0.4,13.4-1.3,19.6-4c3.8-1.6,7.3-3.7,9.7-7.1c2.2-3,2.3-5.5,0.1-8.3c-1.6-2.1-3.5-4-5.5-5.9
			c-5.4-5-10.5-10.1-14.7-16.2C1691.4,1117.2,1687.2,1108.8,1685.6,1099.2z"/>
		<path class="st2" d="M1632.3,1015.3c1.4-4.9,2.8-9.8,4.2-14.8c1.6-5.7,7.3-9,13-7.4c5.6,1.6,8.9,7.3,7.3,13.1
			c-2.8,9.9-5.6,19.8-8.4,29.6c-1.6,5.7-7.5,8.9-13.1,7.3c-5.6-1.6-8.8-7.4-7.2-13.1C1629.5,1025.1,1630.9,1020.2,1632.3,1015.3z"/>
		<path class="st2" d="M1707.3,1036.6c-1.4,5-2.8,10-4.3,15c-1.6,5.3-6.5,8.3-12.1,7.3c-5-0.8-8.7-5.5-8.4-10.8
			c0-0.8,0.2-1.7,0.4-2.5c2.8-9.9,5.6-19.8,8.4-29.6c1.5-5.3,6.7-8.5,11.9-7.6c5.5,1,9.1,5.7,8.7,11.3c-0.1,0.8-0.3,1.6-0.5,2.3
			C1710.1,1027,1708.7,1031.8,1707.3,1036.6z"/>
	</g>
	<g>
		<path class="st2" d="M1501.4,1548.7c5.7,2,11.5,3.3,17.4,3.5c5.1,0.2,10.2,0,15.3,0c3.6,0,7.2,0.3,10.6,1.6
			c8.4,3.1,12.6,9.4,13.5,18.1c0.8,7.3-1.2,14.1-4.2,20.6c-3.6,7.6-8.8,14.1-14.5,20.2c-6.1,6.4-12.6,12.3-20.3,16.6
			c-7.8,4.4-16.2,6.3-25.2,6.1c-7-0.2-13.5-2.1-19.7-5c-7.6-3.6-15.1-7.5-22.6-11.3c-1.1-0.6-2-0.5-3,0.1c-5.4,3.1-9.8,7.3-13.8,12
			c-0.5,0.6-0.1,0.9,0.2,1.3c2.5,3.4,5.2,6.8,7.6,10.3c2.6,3.7,4.9,7.6,6,12c1.8,6.5,0.2,12.6-3.1,18.3c-2.2,3.8-5.3,6.7-8.8,9.2
			c-6.3,4.5-12.8,8.7-19.8,12.1c-6.1,3.1-12.5,5.5-19.2,6.8c-8.2,1.6-15.6,0-22.4-4.7c-6.6-4.5-12.2-10-17.5-15.8
			c-5.5-6.1-10.4-12.7-15.3-19.3c-2.2-3.1-4.9-5.8-7.4-8.7c-6.3-7.1-12.4-14.4-18.8-21.4c-7.3-7.9-15.9-14.3-24.5-20.6
			c-12.8-9.4-25.5-18.9-37.3-29.6c-6.6-5.9-12.9-12.2-18.2-19.3c-4.3-5.8-7.8-12.1-9.3-19.2c-1.4-6.7-0.9-13.2,1.8-19.4
			c5.1-11.7,10.4-23.2,16.9-34.3c3.6-6.2,7.5-12.3,12.9-17.1c6.8-6.1,14.8-9,24-7.5c5.9,1,10.4,4.3,14.3,8.6c0.6,0.6,1.2,1.3,1.9,2
			c0.3-0.3,0.6-0.5,0.9-0.8c9.3-9.1,19.3-17.2,30.2-24.3c8.6-5.7,17.7-10.4,26.9-14.9c7.8-3.8,15.8-7.1,24-10
			c14.5-5,29.3-8.2,44.7-7.9c17.3,0.4,32.9,5.8,47.2,15.4c8.8,5.9,16.6,13,23.1,21.3c12.3,15.8,17.7,33.6,16.3,53.6
			c-1,13.9-4,27.2-10,39.9C1501.8,1547.7,1501.6,1548.1,1501.4,1548.7z M1482.4,1554.5c0.7-1.2,1.3-2.5,2-3.7
			c7.8-13.5,12.5-28,13.5-43.7c0.6-9.1-0.1-18.1-3.3-26.7c-3.6-9.6-9.1-17.9-16.4-25.1c-10.5-10.4-22.6-18-37-21.7
			c-12.6-3.2-25.2-2.7-37.9-0.2c-14.7,3-28.6,8.4-42.1,15c-9.3,4.5-18.4,9.4-26.9,15.3c-11.1,7.7-21.2,16.4-30.5,26.1
			c-2.7,2.9-6.1,3.2-9.3,0.9c-0.9-0.7-1.7-1.4-2.5-2.2c-2.3-2.4-4.4-4.9-6.7-7.3c-2.2-2.4-5.1-3.4-8.3-3.2c-3.5,0.3-6.3,1.8-8.8,4.1
			c-4.2,3.9-7.3,8.7-10.1,13.6c-6.1,10.4-11,21.4-16,32.3c-1.5,3.2-1.8,6.6-1.3,10.1c0.7,5.7,3.4,10.5,6.7,15
			c4.5,6.3,10,11.7,15.8,16.8c11.9,10.7,24.7,20.3,37.6,29.8c7.2,5.4,14.4,10.7,20.9,17c8,7.7,15.2,16.1,22.4,24.6
			c3.3,3.9,6.6,7.7,9.8,11.6c4.1,5.1,8,10.5,12.2,15.5c4.8,5.7,10,11,16,15.6c4.4,3.4,9.1,4.4,14.5,3.1c5.9-1.4,11.4-3.8,16.7-6.6
			c5.8-3.1,11.3-6.7,16.6-10.5c5.7-4.2,7-9.6,3.5-15.8c-2.8-5-6.3-9.5-9.9-13.9c-4.3-5.2-4.6-10.9-0.6-16.3c1.8-2.4,3.7-4.6,5.8-6.6
			c4.4-4.4,9.1-8.4,14.7-11.2c4.7-2.3,9.3-2.9,14.1,0c3.3,2,6.7,3.7,10.2,5.3c5.7,2.7,11.2,5.6,17.1,7.8c10.3,3.8,20.3,2.4,29.6-3.4
			c6.4-4,11.8-9.2,16.9-14.8c4.5-5,8.6-10.3,11.2-16.6c1.6-3.8,2.6-7.7,2-11.9c-0.5-3.6-2.2-5.5-5.8-6c-2.6-0.4-5.3-0.4-8-0.4
			c-7.3,0.2-14.6,0.1-21.8-1.3C1499.2,1563.3,1490.3,1560.2,1482.4,1554.5z"/>
		<path class="st2" d="M1385.6,1532c-2.4-4.5-4.9-9-7.3-13.5c-2.9-5.3-1.1-11.5,4.1-14.4c5.1-2.8,11.5-1,14.4,4.2
			c4.9,9,9.9,18,14.7,27.1c2.8,5.2,0.9,11.6-4.2,14.4c-5.1,2.8-11.5,0.9-14.3-4.4C1390.5,1541,1388.1,1536.5,1385.6,1532z"/>
		<path class="st2" d="M1454.1,1494.7c2.5,4.6,5,9.1,7.5,13.7c2.6,4.9,1.2,10.5-3.5,13.7c-4.1,2.9-10.1,2.1-13.6-1.8
			c-0.6-0.6-1-1.3-1.4-2.1c-4.9-9-9.9-18-14.8-27c-2.6-4.8-1.2-10.8,3.2-13.7c4.6-3.1,10.5-2.3,14.1,1.9c0.5,0.6,0.9,1.3,1.3,2
			C1449.3,1485.8,1451.7,1490.2,1454.1,1494.7z"/>
	</g>
	<g>
		<path class="st2" d="M1827.2,387.1c5.1,3.4,10.3,6.1,16,7.8c4.9,1.4,9.9,2.6,14.8,3.8c3.5,0.9,6.9,2.1,9.9,4.2
			c7.3,5.1,9.9,12.3,8.6,20.9c-1,7.3-4.6,13.4-9.2,18.9c-5.4,6.5-12,11.5-19.1,16c-7.5,4.7-15.2,8.8-23.8,11
			c-8.6,2.3-17.3,2.1-25.9-0.3c-6.7-1.9-12.6-5.4-17.9-9.7c-6.5-5.4-12.8-11-19.1-16.5c-0.9-0.8-1.8-1-2.9-0.7
			c-6,1.7-11.3,4.7-16.4,8.2c-0.6,0.4-0.4,0.9-0.2,1.3c1.6,4,3.3,7.9,4.8,11.9c1.6,4.2,2.8,8.6,2.9,13.2c0.1,6.8-2.9,12.2-7.5,16.9
			c-3,3.1-6.8,5.1-10.8,6.7c-7.2,2.8-14.6,5.2-22.2,6.8c-6.7,1.4-13.4,2.2-20.3,1.9c-8.3-0.5-15.1-3.9-20.6-10.1
			c-5.3-6-9.4-12.7-13.1-19.7c-3.8-7.3-7-14.9-10-22.5c-1.4-3.5-3.3-6.8-5-10.2c-4.3-8.5-8.5-17-13-25.4
			c-5.1-9.5-11.8-17.8-18.6-26.1c-10.1-12.3-20-24.7-28.8-37.9c-4.9-7.4-9.5-15-12.8-23.2c-2.7-6.7-4.6-13.6-4.3-21
			c0.3-6.8,2.4-13,6.5-18.3c7.9-10,15.9-19.9,24.8-29c5-5.1,10.3-10,16.8-13.4c8.1-4.3,16.6-5.1,25.1-1.3c5.4,2.4,9,6.8,11.7,11.9
			c0.4,0.8,0.8,1.5,1.3,2.4c0.4-0.2,0.7-0.4,1-0.6c11.2-6.5,23-11.8,35.2-16.1c9.7-3.4,19.7-5.7,29.8-7.7c8.5-1.7,17.1-3,25.7-3.7
			c15.3-1.2,30.4-0.7,45.2,3.4c16.7,4.6,30.4,13.8,41.9,26.6c7.1,7.9,12.9,16.7,17.1,26.4c8,18.3,8.9,37,2.5,56
			c-4.4,13.2-10.6,25.4-19.6,36.1C1827.8,386.3,1827.5,386.6,1827.2,387.1z M1807.3,388c1-1,1.9-2.1,2.9-3.1
			c10.9-11.2,19.1-24.1,23.9-39c2.8-8.7,4.4-17.5,3.4-26.6c-1.1-10.1-4.4-19.6-9.7-28.3c-7.6-12.7-17.5-23.1-30.5-30.2
			c-11.4-6.2-23.8-8.9-36.6-9.6c-15-0.8-29.8,1.1-44.5,4.1c-10.1,2.1-20.2,4.6-29.9,8.2c-12.6,4.7-24.6,10.6-36,17.8
			c-3.4,2.1-6.7,1.6-9.3-1.5c-0.7-0.9-1.3-1.8-1.8-2.8c-1.6-2.9-3.1-5.9-4.7-8.7c-1.6-2.9-4-4.6-7.3-5.1c-3.4-0.6-6.6,0.1-9.6,1.8
			c-5,2.8-9.2,6.6-13.2,10.6c-8.5,8.5-16,18-23.5,27.3c-2.2,2.7-3.4,6-3.8,9.4c-0.7,5.7,0.7,11,2.8,16.2c2.8,7.2,6.8,13.8,11.1,20.2
			c8.9,13.3,18.9,25.8,29,38.2c5.7,7,11.3,13.9,16,21.6c5.8,9.4,10.8,19.4,15.6,29.4c2.2,4.6,4.5,9.1,6.6,13.7
			c2.7,6,5.1,12.1,7.9,18.1c3.2,6.7,7,13.2,11.7,19c3.4,4.3,7.7,6.5,13.3,6.6c6,0.1,11.9-0.9,17.8-2.3c6.4-1.5,12.6-3.7,18.7-6.1
			c6.6-2.7,9.1-7.6,7.3-14.4c-1.4-5.5-3.7-10.8-6.2-16c-2.9-6.1-1.8-11.7,3.4-16c2.3-1.9,4.8-3.5,7.3-5c5.3-3.2,10.9-5.9,17-7.2
			c5.1-1.1,9.8-0.5,13.7,3.5c2.7,2.7,5.6,5.2,8.6,7.7c4.8,4,9.5,8.2,14.6,11.8c9,6.3,19,7.4,29.5,4.1c7.2-2.3,13.7-6,20-10.1
			c5.6-3.7,10.9-7.8,15-13.3c2.5-3.3,4.4-6.9,4.8-11.1c0.4-3.6-0.8-5.9-4.1-7.2c-2.5-1-5.1-1.7-7.7-2.3c-7.1-1.6-14.2-3.5-20.8-6.6
			C1821.4,400.7,1813.6,395.6,1807.3,388z"/>
		<path class="st2" d="M1719.2,342.3c-1.3-5-2.5-9.9-3.8-14.9c-1.5-5.8,1.8-11.4,7.5-12.9c5.7-1.5,11.4,1.9,12.9,7.7
			c2.6,9.9,5.1,19.9,7.6,29.9c1.4,5.8-2,11.5-7.6,12.9c-5.7,1.4-11.3-2-12.8-7.8C1721.7,352.2,1720.4,347.2,1719.2,342.3z"/>
		<path class="st2" d="M1794.7,323.1c1.3,5,2.6,10.1,3.8,15.1c1.3,5.4-1.5,10.4-6.8,12.4c-4.7,1.8-10.3-0.4-12.7-5.1
			c-0.4-0.7-0.7-1.5-0.9-2.3c-2.5-9.9-5.1-19.9-7.6-29.9c-1.3-5.3,1.5-10.7,6.5-12.5c5.3-1.9,10.8,0.3,13.2,5.4
			c0.3,0.7,0.6,1.5,0.8,2.3C1792.2,313.3,1793.5,318.2,1794.7,323.1z"/>
	</g>
	<g>
		<path class="st2" d="M691.6,374.6c3.7,4.8,7.9,9,12.7,12.4c4.2,2.9,8.6,5.6,12.9,8.3c3,2,5.9,4.2,8,7.1c5.3,7.2,5.5,14.8,1.6,22.6
			c-3.3,6.6-8.6,11.2-14.7,15c-7.2,4.5-15,7.1-23.2,9.1c-8.6,2.1-17.2,3.5-26.1,2.9c-8.9-0.6-17-3.5-24.4-8.5
			c-5.8-3.9-10.2-9.1-13.9-14.9c-4.5-7.1-8.6-14.5-12.9-21.7c-0.6-1.1-1.4-1.5-2.5-1.6c-6.2-0.3-12.2,0.9-18.2,2.6
			c-0.7,0.2-0.6,0.7-0.6,1.2c0.3,4.3,0.7,8.5,0.8,12.8c0.1,4.5,0,9-1.4,13.4c-2.1,6.4-6.6,10.7-12.5,13.7c-3.9,2-8,2.7-12.4,2.9
			c-7.8,0.4-15.5,0.3-23.2-0.5c-6.8-0.8-13.5-2.1-19.9-4.7c-7.8-3.1-13.1-8.5-16.3-16.1c-3.1-7.3-4.9-15-6.2-22.8
			c-1.3-8.1-1.9-16.3-2.4-24.5c-0.2-3.8-0.9-7.5-1.5-11.3c-1.4-9.4-2.7-18.8-4.3-28.2c-1.8-10.6-5.6-20.6-9.4-30.6
			c-5.6-14.8-11.2-29.7-15.4-45.1c-2.3-8.6-4.2-17.2-4.8-26.1c-0.5-7.2,0-14.4,2.6-21.2c2.4-6.4,6.4-11.6,12-15.3
			c10.6-7,21.4-13.9,32.7-19.7c6.4-3.3,13-6.2,20.2-7.4c9.1-1.5,17.3,0.4,24.3,6.7c4.4,4,6.4,9.3,7.4,15c0.1,0.9,0.3,1.7,0.5,2.7
			c0.4-0.1,0.8-0.1,1.2-0.2c12.7-2.6,25.5-4,38.5-4.1c10.3-0.1,20.5,0.9,30.7,2.1c8.6,1,17.1,2.5,25.6,4.6
			c14.9,3.7,29,8.9,41.8,17.5c14.3,9.7,24.5,22.7,31.3,38.5c4.2,9.8,6.9,19.9,7.9,30.5c1.8,19.9-3.3,37.9-15.3,53.9
			c-8.3,11.1-18.1,20.8-30,28.1C692.4,374.1,692.1,374.3,691.6,374.6z M672.5,369.3c1.2-0.7,2.4-1.4,3.7-2
			c13.9-7.2,25.7-16.8,35-29.4c5.4-7.3,9.7-15.2,11.7-24.2c2.2-10,2-20-0.2-29.9c-3.2-14.4-9.2-27.4-19.4-38.3
			c-8.8-9.5-19.7-16-31.7-20.7c-14-5.5-28.6-8.4-43.5-10.2c-10.3-1.2-20.6-2.1-31-1.7c-13.4,0.5-26.7,2.3-39.8,5.5
			c-3.9,0.9-6.9-0.6-8.3-4.3c-0.4-1-0.7-2.1-0.9-3.2c-0.6-3.3-1.1-6.5-1.7-9.8c-0.6-3.2-2.4-5.6-5.3-7.2c-3-1.7-6.3-1.9-9.6-1.3
			c-5.6,1.1-10.8,3.4-15.9,5.9c-10.8,5.4-20.8,12-31,18.5c-3,1.9-5.1,4.6-6.6,7.8c-2.4,5.2-2.8,10.7-2.5,16.3
			c0.4,7.7,2.1,15.2,4.1,22.7c4.2,15.5,9.8,30.4,15.4,45.4c3.2,8.4,6.3,16.8,8.4,25.6c2.6,10.8,4.1,21.8,5.5,32.8
			c0.6,5,1.4,10,1.9,15.1c0.7,6.5,1,13.1,1.8,19.7c0.9,7.4,2.5,14.7,5,21.8c1.9,5.2,5.3,8.6,10.5,10.5c5.7,2,11.6,3,17.6,3.5
			c6.5,0.6,13.1,0.5,19.6,0.1c7.1-0.4,11-4.3,11.5-11.3c0.4-5.7-0.1-11.4-0.8-17.1c-0.8-6.7,2-11.7,8.3-14.1c2.7-1,5.6-1.8,8.5-2.4
			c6.1-1.3,12.2-2.2,18.4-1.5c5.2,0.6,9.4,2.6,11.9,7.6c1.7,3.4,3.7,6.7,5.7,10c3.3,5.3,6.4,10.8,10.1,15.8
			c6.6,8.8,15.7,13,26.7,13.2c7.6,0.1,14.9-1.4,22.2-3.3c6.5-1.7,12.8-4,18.4-7.9c3.4-2.4,6.4-5.1,8.1-9c1.5-3.3,1.1-5.8-1.6-8.2
			c-2-1.7-4.3-3.2-6.5-4.6c-6.3-3.8-12.4-7.8-17.7-12.9C681.8,385.8,676,378.4,672.5,369.3z"/>
		<path class="st2" d="M603.3,297.9c0.4-5.1,0.7-10.2,1.1-15.3c0.4-6,5.4-10.3,11.2-9.9c5.9,0.4,10.2,5.4,9.8,11.3
			c-0.7,10.2-1.5,20.5-2.3,30.7c-0.4,5.9-5.5,10.3-11.3,9.8c-5.8-0.4-10.1-5.5-9.7-11.4C602.5,308.1,602.9,303,603.3,297.9z"/>
		<path class="st2" d="M681.1,303.6c-0.4,5.2-0.7,10.4-1.1,15.5c-0.5,5.5-4.7,9.4-10.4,9.6c-5,0.2-9.6-3.7-10.5-8.9
			c-0.1-0.8-0.2-1.7-0.1-2.5c0.7-10.2,1.5-20.5,2.2-30.7c0.4-5.5,4.8-9.7,10.1-9.8c5.6-0.1,10.1,3.7,10.8,9.3c0.1,0.8,0.1,1.6,0,2.4
			C681.8,293.6,681.4,298.6,681.1,303.6z"/>
	</g>
	<g>
		<path class="st2" d="M496.7,921.1c-8.8-10.8-14.9-23.1-19.1-36.4c-6.1-19.1-5-37.7,3.3-55.9c4.4-9.7,10.3-18.3,17.5-26.2
			c11.6-12.7,25.5-21.6,42.2-26c14.9-3.9,30-4.2,45.3-2.8c8.6,0.8,17.2,2.2,25.7,4.1c10,2.2,20,4.6,29.7,8.1
			c12.2,4.4,23.9,9.9,35,16.6c0.3,0.2,0.7,0.4,1,0.6c0.5-0.9,0.9-1.7,1.3-2.4c2.8-5.1,6.4-9.4,11.9-11.7c8.6-3.6,17-2.7,25.1,1.7
			c6.4,3.5,11.6,8.4,16.6,13.6c8.8,9.2,16.7,19.3,24.4,29.4c4.1,5.4,6.1,11.6,6.3,18.4c0.2,7.3-1.7,14.2-4.6,20.9
			c-3.5,8.2-8.1,15.7-13.1,23.1c-9,13.1-19.1,25.3-29.4,37.5c-6.9,8.2-13.7,16.4-19,25.8c-4.6,8.3-8.9,16.8-13.3,25.2
			c-1.8,3.4-3.7,6.7-5.1,10.1c-3.2,7.6-6.4,15.1-10.3,22.4c-3.8,7-8,13.6-13.3,19.5c-5.6,6.2-12.4,9.5-20.7,9.8
			c-6.9,0.3-13.6-0.6-20.3-2.1c-7.6-1.7-14.9-4.2-22.1-7.1c-4-1.6-7.7-3.7-10.7-6.8c-4.5-4.8-7.5-10.3-7.3-17
			c0.1-4.6,1.4-8.9,3.1-13.1c1.5-4,3.3-7.9,5-11.8c0.2-0.5,0.5-0.9-0.1-1.3c-5-3.6-10.3-6.7-16.3-8.5c-1.1-0.3-2-0.2-2.9,0.7
			c-6.4,5.5-12.8,11-19.3,16.3c-5.4,4.3-11.3,7.7-18,9.5c-8.7,2.4-17.3,2.4-25.9,0c-8.5-2.4-16.3-6.5-23.7-11.3
			c-7-4.6-13.6-9.7-18.9-16.2c-4.5-5.6-8-11.8-9-19.1c-1.1-8.6,1.5-15.8,8.9-20.8c3-2,6.4-3.2,9.9-4.1c5-1.2,10-2.3,14.9-3.6
			c5.7-1.6,11-4.2,16.1-7.5C497.2,921.8,497,921.4,496.7,921.1z M494.4,939.9c-6.7,3-13.8,4.8-20.9,6.3c-2.6,0.6-5.2,1.3-7.7,2.2
			c-3.4,1.3-4.6,3.5-4.2,7.2c0.4,4.2,2.3,7.8,4.7,11.1c4,5.5,9.2,9.7,14.8,13.5c6.2,4.2,12.7,8,19.9,10.4
			c10.4,3.4,20.4,2.5,29.5-3.7c5.2-3.5,9.9-7.7,14.8-11.6c3-2.4,5.9-4.9,8.7-7.6c4-3.9,8.6-4.4,13.7-3.3c6.1,1.4,11.6,4.2,16.9,7.4
			c2.5,1.5,5,3.2,7.2,5.1c5.2,4.3,6.2,10,3.2,16c-2.5,5.1-4.9,10.3-6.4,15.9c-1.9,6.8,0.6,11.7,7.1,14.5c6,2.5,12.2,4.7,18.6,6.4
			c5.8,1.5,11.7,2.5,17.7,2.5c5.6,0,9.9-2.1,13.4-6.4c4.7-5.8,8.6-12.2,11.9-18.9c2.9-5.9,5.4-12,8.2-18c2.2-4.6,4.5-9.1,6.8-13.6
			c5-9.9,10-19.8,16-29.2c4.8-7.6,10.6-14.5,16.3-21.4c10.2-12.3,20.4-24.6,29.5-37.8c4.4-6.4,8.4-12.9,11.4-20.1
			c2.1-5.2,3.6-10.5,3-16.2c-0.4-3.5-1.5-6.7-3.7-9.5c-7.4-9.5-14.8-19-23.1-27.6c-3.9-4.1-8.1-8-13-10.8c-3-1.7-6.1-2.5-9.5-1.9
			c-3.2,0.5-5.7,2.2-7.3,5c-1.6,2.9-3.2,5.8-4.8,8.7c-0.5,1-1.2,1.9-1.9,2.8c-2.6,3-6,3.5-9.3,1.3c-11.3-7.3-23.2-13.4-35.8-18.3
			c-9.7-3.7-19.7-6.4-29.8-8.6c-14.6-3.2-29.4-5.3-44.4-4.7c-12.9,0.5-25.3,3-36.8,9.1c-13.2,7-23.2,17.2-30.9,29.8
			c-5.4,8.7-8.8,18.1-10,28.2c-1.1,9.1,0.4,18,3.1,26.7c4.6,15,12.6,28,23.4,39.3c1,1,1.9,2.1,2.8,3.1
			C511,930.9,503.1,936,494.4,939.9z"/>
		<path class="st2" d="M606.2,878.9c1.3-4.9,2.7-9.9,4-14.8c1.5-5.8-1.7-11.5-7.4-13c-5.7-1.5-11.4,1.7-13,7.5
			c-2.7,9.9-5.4,19.8-8,29.8c-1.5,5.7,1.8,11.5,7.4,13c5.7,1.5,11.4-1.8,12.9-7.6C603.5,888.8,604.8,883.8,606.2,878.9z"/>
		<path class="st2" d="M530.9,858.7c-1.3,5-2.7,10-4,15.1c-1.4,5.3,1.3,10.4,6.6,12.5c4.7,1.9,10.3-0.3,12.8-4.9
			c0.4-0.7,0.7-1.5,0.9-2.3c2.7-9.9,5.4-19.8,8-29.8c1.4-5.3-1.3-10.8-6.3-12.6c-5.3-2-10.8,0.2-13.3,5.2c-0.4,0.7-0.6,1.5-0.8,2.3
			C533.5,848.9,532.2,853.8,530.9,858.7z"/>
	</g>
	<g>
		<path class="st2" d="M963.7,2055.9c-8.8-10.9-14.8-23.2-19-36.4c-6-19.1-4.9-37.7,3.4-55.9c4.4-9.7,10.3-18.3,17.5-26.1
			c11.6-12.7,25.6-21.6,42.3-25.9c14.9-3.9,30-4.2,45.3-2.7c8.6,0.8,17.2,2.3,25.6,4.1c10,2.2,20,4.7,29.7,8.2
			c12.2,4.4,23.9,10,35,16.6c0.3,0.2,0.7,0.4,1,0.6c0.5-0.9,0.9-1.7,1.3-2.4c2.8-5.1,6.4-9.4,11.9-11.7c8.6-3.6,17-2.7,25.1,1.7
			c6.4,3.5,11.6,8.4,16.6,13.6c8.8,9.2,16.6,19.3,24.4,29.4c4.1,5.4,6.1,11.6,6.3,18.4c0.2,7.3-1.8,14.2-4.6,20.9
			c-3.5,8.2-8.1,15.7-13.2,23c-9,13.1-19.2,25.3-29.4,37.4c-6.9,8.2-13.8,16.4-19,25.8c-4.6,8.3-8.9,16.7-13.4,25.1
			c-1.8,3.4-3.7,6.6-5.2,10.1c-3.2,7.6-6.5,15.1-10.4,22.4c-3.8,7-8,13.6-13.4,19.5c-5.6,6.1-12.4,9.5-20.7,9.8
			c-6.9,0.3-13.6-0.6-20.3-2.2c-7.6-1.7-14.9-4.3-22.1-7.2c-4-1.6-7.7-3.7-10.7-6.9c-4.5-4.8-7.4-10.3-7.3-17.1
			c0.1-4.6,1.4-8.9,3.1-13.1c1.5-4,3.3-7.9,5-11.8c0.2-0.5,0.5-0.9-0.1-1.3c-5-3.6-10.3-6.7-16.3-8.5c-1.1-0.3-2-0.2-2.9,0.6
			c-6.4,5.5-12.8,11-19.4,16.2c-5.4,4.3-11.3,7.6-18,9.5c-8.7,2.3-17.3,2.4-25.9-0.1c-8.5-2.4-16.3-6.5-23.6-11.4
			c-7-4.6-13.6-9.7-18.8-16.3c-4.5-5.6-8-11.8-8.9-19.1c-1.1-8.6,1.6-15.8,9-20.8c3-2,6.4-3.2,9.9-4c5-1.2,10-2.2,14.9-3.6
			c5.7-1.6,11-4.2,16.1-7.5C964.2,2056.6,963.9,2056.2,963.7,2055.9z M961.4,2074.7c-6.7,3-13.8,4.8-20.9,6.3
			c-2.6,0.6-5.2,1.2-7.7,2.2c-3.4,1.3-4.6,3.5-4.3,7.2c0.4,4.2,2.3,7.8,4.7,11.1c4,5.5,9.2,9.7,14.7,13.5
			c6.2,4.2,12.7,8.1,19.8,10.5c10.4,3.4,20.4,2.5,29.6-3.6c5.2-3.5,9.9-7.6,14.8-11.6c3-2.4,5.9-4.9,8.7-7.5c4-3.9,8.6-4.4,13.7-3.3
			c6.1,1.4,11.6,4.2,16.9,7.5c2.5,1.5,5,3.2,7.2,5.1c5.2,4.3,6.2,10,3.2,16c-2.5,5.1-4.9,10.3-6.4,15.9c-1.9,6.8,0.6,11.7,7.1,14.5
			c6,2.6,12.2,4.8,18.6,6.4c5.8,1.5,11.7,2.5,17.7,2.5c5.6,0,9.9-2.1,13.4-6.4c4.8-5.8,8.6-12.2,11.9-18.9c2.9-5.9,5.4-12,8.2-17.9
			c2.2-4.6,4.6-9.1,6.8-13.6c5-9.9,10.1-19.8,16.1-29.1c4.9-7.6,10.6-14.5,16.4-21.3c10.3-12.3,20.5-24.6,29.6-37.8
			c4.4-6.3,8.5-12.9,11.4-20c2.1-5.2,3.6-10.5,3-16.2c-0.4-3.5-1.5-6.7-3.6-9.5c-7.4-9.5-14.7-19-23.1-27.7c-3.9-4.1-8-8-13-10.8
			c-3-1.7-6.1-2.5-9.5-2c-3.2,0.5-5.7,2.2-7.3,5c-1.7,2.9-3.2,5.8-4.8,8.7c-0.6,1-1.2,1.9-1.9,2.8c-2.6,3-6,3.5-9.3,1.3
			c-11.3-7.4-23.2-13.5-35.7-18.3c-9.7-3.8-19.7-6.4-29.8-8.7c-14.6-3.3-29.4-5.3-44.4-4.8c-12.9,0.5-25.3,2.9-36.8,9
			c-13.2,6.9-23.2,17.2-31,29.7c-5.4,8.7-8.9,18.1-10.1,28.2c-1.1,9.1,0.4,18,3,26.7c4.6,15,12.5,28,23.3,39.3c1,1,1.9,2.1,2.8,3.1
			C978,2065.7,970.1,2070.8,961.4,2074.7z"/>
		<path class="st2" d="M1073.2,2013.9c1.3-4.9,2.7-9.9,4-14.8c1.6-5.8-1.7-11.5-7.3-13c-5.7-1.6-11.4,1.7-13,7.5
			c-2.7,9.9-5.4,19.8-8.1,29.7c-1.5,5.7,1.8,11.5,7.4,13c5.7,1.5,11.4-1.8,12.9-7.6C1070.6,2023.8,1071.9,2018.8,1073.2,2013.9z"/>
		<path class="st2" d="M998,1993.5c-1.4,5-2.8,10-4.1,15c-1.4,5.3,1.3,10.4,6.6,12.5c4.7,1.9,10.3-0.3,12.8-4.9
			c0.4-0.7,0.7-1.5,0.9-2.3c2.7-9.9,5.4-19.8,8.1-29.7c1.4-5.3-1.3-10.8-6.3-12.6c-5.2-2-10.8,0.2-13.3,5.2
			c-0.4,0.7-0.6,1.5-0.8,2.3C1000.6,1983.8,999.3,1988.7,998,1993.5z"/>
	</g>
	<g>
		<path class="st2" d="M1162.3,34.5c1.3-0.7,2.7-1.4,4-2.2c20.4-11.6,42-20.1,65.2-23.9c15-2.5,30-2.9,45-0.5
			c11.3,1.8,21.9,5.8,31.9,11.2c12.2,6.5,22.8,15,31.8,25.4c2,2.3,3.9,4.8,5.8,7.2c1.7-1.7,3.4-3.3,5.1-4.9c6.7-6,14.4-9.5,23.5-9.3
			c6.3,0.2,12.2,2.1,17.6,5.4c9.2,5.6,17.1,12.8,22.8,22c8.3,13.5,9.4,27.8,4.4,42.6c-2.2,6.6-4.9,13.1-9,18.8
			c-0.4,0.6-0.3,1,0.1,1.5c3.2,4.9,6.6,9.6,9.6,14.6c6.9,11.9,10.1,24.7,7.6,38.5c-1.5,8.4-5,16-10,22.9
			c-4.6,6.3-9.4,12.3-15.5,17.3c-6.9,5.7-14.4,10.5-22.5,14.1c-6.8,3.1-13.9,5.5-21.4,6.5c-10.1,1.2-18.4-2.3-25.2-9.7
			c-1.2-1.4-2.3-2.9-3.6-4.4c-1.5,1.6-3,3.2-4.5,4.7c-7.3,7.6-15.5,14.3-23.9,20.6c-7.5,5.6-15.4,10.7-23.6,15.3
			c-15.4,8.7-31.5,15.8-49.1,18.9c-12.7,2.2-25.4,2-38.2-0.1c-23.1-3.8-42.9-14.5-60.5-29.7c-7-6.1-13.4-12.8-19.1-20.3
			c-0.2-0.2-0.4-0.4-0.6-0.6c-2.5-3.8-5.1-7.5-7.6-11.3c-0.1-0.3-0.2-0.7-0.4-1c-1.9-3.6-4-7.2-5.8-10.9
			c-8.4-18.1-12.9-37-12.7-57.1c0.2-25.7,7.1-49.3,21.9-70.4c10.2-14.5,22.8-26.6,36.7-37.4c1.8-1.4,3.6-2.8,5.4-4.2
			C1152.5,41.1,1157.4,37.8,1162.3,34.5z M1333.2,200.7c1.4,3.5,2.7,6.7,4.1,10c1.5,3.6,2.7,7.3,5.1,10.4c4.1,5.3,9.3,7.7,16,6.3
			c12.6-2.6,23.7-8.4,33.7-16.3c5-3.9,9-8.8,12.8-13.8c11.2-14.9,12.5-30.5,3.3-46.7c-4.3-7.6-9.6-14.6-14.5-21.8
			c-1.2-1.8-1.3-1.7-0.1-3.4c0.4-0.6,0.9-1.2,1.3-1.8c5.3-6.8,9.3-14.3,11.6-22.6c2.6-9.1,2.2-18-2.3-26.5
			c-4.7-8.9-11.9-15.4-20.6-20.2c-7.5-4.1-14.8-3.6-21.6,1.8c-3.5,2.8-6.3,6.1-9.1,9.6c-0.5,0.6-0.5,1.1-0.3,1.9
			c2.4,7.1,3.8,14.4,4,21.8c0.3,9.2-1.1,18-5.3,26.2c-4.6,9.1-10.5,17.2-17.4,24.6c-8.1,8.8-17.4,16.3-27,23.3
			c-7.9,5.8-16,11.4-24.6,16c-8,4.2-16.1,8.2-24.3,12.1c-12.6,6.1-25.8,10.2-39.7,12.3c-5.8,0.9-11.6,1.2-17.4,0.6
			c-4.1-0.4-6.9-3.8-6.5-7.7c0.4-3.9,3.7-6.8,7.7-6.4c6.5,0.6,13-0.1,19.4-1.4c10.9-2.2,21.3-5.9,31.4-10.5
			c11.7-5.4,23-11.5,33.7-18.6c10.4-6.9,20.3-14.4,29.9-22.4c7.2-6.1,13.6-13,18.5-21.1c6.3-10.4,8.8-21.7,7.3-33.8
			c-0.7-6-3-11.5-5.3-17.1c-0.5-1.3-0.8-2.7-1.6-3.8c-3.9-5.7-8.5-10.9-13.6-15.6c-12.3-11.3-26.4-19.2-42.6-23.1
			c-13-3.2-26.3-3.2-39.5-1.6c-25.4,3.1-48.6,12.4-70.4,25.5c-5.6,3.4-11,7.3-16.3,11.2c-10.9,8.1-20.9,17.2-29.6,27.7
			c-21.2,25.4-29,54.8-24.8,87.3c3,23.6,12.9,44.4,28.8,62.2c9.7,10.9,20.9,20,33.7,26.9c20.3,11,41.9,14.5,64.6,10.9
			c14.6-2.3,28-8.3,40.9-15.2c9.7-5.2,18.9-11.2,27.7-17.8c10.4-7.8,20-16.5,28.3-26.6C1326.4,209.4,1329.7,205.1,1333.2,200.7z"/>
		<path class="st2" d="M1250.9,106.9c2.9,4.3,5.9,8.6,8.8,13c2.4,3.7,2.6,7.6,0.3,11.4c-2.3,3.8-5.9,5.5-10.4,5.1
			c-3.2-0.3-5.8-2-7.6-4.7c-5.8-8.6-11.7-17.2-17.5-25.8c-3.3-4.9-2.1-11.5,2.7-14.8c4.8-3.3,11.4-2.2,14.8,2.7
			C1245,98.1,1248,102.5,1250.9,106.9z"/>
		<path class="st2" d="M1281,86.3c-3.1-4.6-6.3-9-9.2-13.7c-3-4.8-1.3-11.2,3.6-14.2c4.8-3,11.1-1.7,14.3,2.9
			c6,8.8,11.9,17.5,17.8,26.3c3.1,4.7,1.9,11.1-2.6,14.4c-4.7,3.4-11.1,2.5-14.6-1.9c-0.2-0.3-0.5-0.6-0.7-0.9
			C1286.7,95,1283.8,90.7,1281,86.3C1280.9,86.4,1280.9,86.4,1281,86.3z"/>
	</g>
	<g>
		<path class="st2" d="M1112.4,541.1c1.4-0.5,2.9-0.9,4.3-1.4c22.2-7.7,44.9-12.3,68.4-11.9c15.2,0.2,30,2.5,44.4,7.6
			c10.8,3.8,20.5,9.6,29.4,16.7c10.8,8.6,19.7,18.8,26.8,30.7c1.6,2.6,3,5.4,4.5,8.1c2-1.3,3.9-2.7,5.9-3.9c7.7-4.7,15.9-6.8,24.8-5
			c6.2,1.3,11.6,4.3,16.3,8.4c8.1,7.2,14.6,15.6,18.5,25.8c5.7,14.7,4.3,29-3.2,42.8c-3.4,6.1-7.2,12-12.3,16.9
			c-0.5,0.5-0.4,0.9-0.2,1.5c2.3,5.4,4.8,10.6,6.8,16.1c4.7,13,5.5,26.1,0.6,39.3c-3,8-7.8,14.9-13.9,20.8
			c-5.6,5.4-11.5,10.4-18.3,14.2c-7.8,4.3-16,7.7-24.7,9.9c-7.3,1.8-14.6,3-22.2,2.5c-10.2-0.6-17.7-5.5-23-14c-1-1.6-1.8-3.2-2.7-5
			c-1.8,1.3-3.5,2.6-5.3,3.8c-8.6,6.2-17.8,11.3-27.2,16c-8.4,4.2-17.1,7.8-25.9,10.9c-16.7,5.8-33.8,9.9-51.7,9.8
			c-12.9-0.1-25.4-2.6-37.5-6.9c-22.1-7.9-39.7-21.9-54.2-40c-5.8-7.3-10.9-15-15.2-23.3c-0.1-0.2-0.3-0.4-0.5-0.7
			c-1.8-4.1-3.7-8.3-5.5-12.4c-0.1-0.3-0.1-0.7-0.2-1c-1.3-3.9-2.7-7.8-3.7-11.8c-5.1-19.3-6.1-38.7-2.3-58.4
			c4.8-25.3,15.7-47.2,34.1-65.4c12.6-12.4,27.2-22.1,42.8-30.2c2-1.1,4-2.1,6.1-3.2C1101.6,545.9,1107,543.5,1112.4,541.1z
			 M1251,735.1c0.8,3.7,1.5,7.1,2.2,10.6c0.8,3.8,1.4,7.6,3.2,11.1c3.1,5.9,7.8,9.2,14.7,9.1c12.9-0.3,24.8-4.1,36.1-10.1
			c5.6-3,10.4-7,15.1-11.3c13.7-12.6,17.8-27.8,11.6-45.3c-2.9-8.2-6.9-16-10.4-24c-0.9-2-1-1.9,0.6-3.4c0.5-0.5,1.1-1,1.6-1.5
			c6.4-5.8,11.7-12.4,15.5-20.2c4.2-8.5,5.3-17.4,2.4-26.5c-3.1-9.6-9-17.2-16.7-23.5c-6.6-5.4-13.9-6.2-21.6-2.1
			c-3.9,2.1-7.3,4.9-10.6,7.8c-0.6,0.5-0.7,1-0.6,1.8c1.1,7.4,1.2,14.8,0.1,22.2c-1.3,9.1-4.3,17.5-9.9,24.9
			c-6.1,8.1-13.4,15-21.6,21.1c-9.6,7.2-20,12.9-30.8,18.2c-8.8,4.3-17.7,8.3-27.1,11.3c-8.6,2.8-17.3,5.2-26.1,7.6
			c-13.5,3.7-27.2,5.4-41.2,5c-5.8-0.2-11.6-0.9-17.2-2.6c-4-1.2-6.1-4.9-5.1-8.8c1-3.8,4.9-6,8.7-5c6.3,1.7,12.8,2.2,19.3,2.1
			c11.1-0.2,22-2,32.8-4.8c12.5-3.2,24.7-7.2,36.5-12.3c11.5-4.9,22.6-10.5,33.4-16.7c8.2-4.7,15.7-10.3,22-17.5
			c8.1-9.2,12.6-19.8,13.3-32c0.3-6-0.9-11.9-2.1-17.7c-0.3-1.3-0.3-2.8-0.9-4c-2.8-6.3-6.4-12.2-10.6-17.8
			c-10.1-13.3-22.5-23.6-37.8-30.3c-12.3-5.4-25.3-7.8-38.6-8.6c-25.5-1.4-50,3.6-73.8,12.5c-6.2,2.3-12.1,5.2-18,8.1
			c-12.2,6-23.6,13.2-34.1,22c-25.4,21.2-38.3,48.8-40,81.5c-1.2,23.7,4.8,46,17.2,66.4c7.6,12.5,17,23.4,28.4,32.5
			c18,14.4,38.6,21.8,61.6,22.3c14.8,0.3,29-3.2,43-7.7c10.5-3.4,20.6-7.6,30.5-12.6c11.6-5.9,22.6-12.7,32.6-21.1
			C1242.7,742.5,1246.7,738.9,1251,735.1z"/>
		<path class="st2" d="M1186.7,628.2c2.1,4.8,4.3,9.5,6.3,14.3c1.7,4.1,1.2,8-1.8,11.3c-3,3.4-6.8,4.4-11.1,3.1
			c-3.1-0.9-5.3-3-6.6-5.9c-4.2-9.5-8.4-19-12.6-28.5c-2.4-5.4-0.1-11.7,5.3-14.1c5.4-2.4,11.6-0.1,14.1,5.3
			C1182.5,618.4,1184.6,623.3,1186.7,628.2z"/>
		<path class="st2" d="M1219.9,613.3c-2.2-5-4.6-10-6.6-15.1c-2.1-5.3,0.8-11.2,6.1-13.4c5.2-2.1,11.3,0.3,13.6,5.4
			c4.3,9.7,8.6,19.4,12.9,29.1c2.3,5.1-0.1,11.2-5.1,13.7c-5.2,2.5-11.3,0.5-14-4.5c-0.2-0.3-0.4-0.6-0.5-1
			C1224.1,622.8,1222,618.1,1219.9,613.3C1219.9,613.3,1219.9,613.3,1219.9,613.3z"/>
	</g>
	<g>
		<path class="st2" d="M945.1,1069.5c1.5,0.2,3,0.3,4.5,0.4c23.4,1.8,46,6.7,67.5,16.5c13.8,6.3,26.5,14.3,37.6,24.7
			c8.4,7.8,14.9,17,20.3,27.1c6.5,12.2,10.5,25.2,12.2,38.9c0.4,3,0.6,6.1,0.8,9.2c2.3-0.4,4.7-0.9,7-1.2c8.9-1.2,17.3,0.1,24.7,5.4
			c5.1,3.7,8.9,8.6,11.6,14.3c4.5,9.8,7.1,20.1,6.6,31c-0.7,15.8-7.7,28.3-20.1,37.9c-5.6,4.3-11.4,8.1-18,10.6
			c-0.7,0.3-0.8,0.7-0.8,1.3c0,5.8,0.2,11.7-0.2,17.5c-0.9,13.8-5.4,26.1-15.2,36.2c-6,6.1-13.1,10.5-21.1,13.4
			c-7.3,2.7-14.7,5-22.5,5.7c-8.9,0.8-17.8,0.7-26.6-0.8c-7.4-1.3-14.6-3.1-21.3-6.6c-9.1-4.6-14-12.2-15.5-22.1
			c-0.3-1.8-0.3-3.7-0.5-5.7c-2.2,0.5-4.3,0.9-6.4,1.4c-10.3,2.2-20.8,3.3-31.4,3.8c-9.4,0.4-18.8,0.3-28.1-0.4
			c-17.7-1.4-35-4.5-51.3-11.7c-11.8-5.2-22.2-12.5-31.6-21.4c-17.1-16.1-27.5-36-33.6-58.4c-2.4-9-4-18.1-4.5-27.5
			c0-0.3-0.1-0.5-0.2-0.8c0-4.5,0-9.1-0.1-13.6c0.1-0.3,0.2-0.7,0.2-1c0.4-4.1,0.7-8.2,1.3-12.3c3.1-19.7,10-37.9,21.3-54.5
			c14.5-21.2,33.4-37,57.5-46.2c16.5-6.3,33.7-9.3,51.3-10.5c2.3-0.2,4.6-0.3,6.8-0.5C933.2,1069.5,939.1,1069.5,945.1,1069.5z
			 M994.2,1302.8c-0.8,3.7-1.5,7.1-2.2,10.6c-0.8,3.8-1.8,7.6-1.5,11.5c0.4,6.7,3.4,11.6,9.8,14.2c11.9,4.9,24.4,6.2,37.1,5.3
			c6.3-0.5,12.4-2.3,18.3-4.3c17.6-6.1,27.4-18.4,28.8-36.9c0.6-8.7,0.1-17.5,0.1-26.2c0-2.2-0.1-2.2,1.9-2.9
			c0.7-0.2,1.4-0.5,2.1-0.7c8.2-2.7,15.7-6.7,22.3-12.3c7.2-6.1,11.9-13.8,12.8-23.3c1-10-1.3-19.4-5.8-28.2
			c-3.9-7.6-10.2-11.3-18.9-10.6c-4.4,0.4-8.7,1.6-12.9,2.9c-0.8,0.2-1.1,0.6-1.3,1.4c-2,7.2-4.9,14-8.8,20.4
			c-4.9,7.8-11,14.3-19,18.8c-8.9,5-18.3,8.4-28.2,10.7c-11.7,2.7-23.5,3.8-35.5,4.3c-9.8,0.4-19.6,0.5-29.3-0.5
			c-9-0.9-18-2.2-26.9-3.5c-13.8-2-27.1-6-39.8-11.9c-5.3-2.5-10.3-5.5-14.8-9.2c-3.2-2.7-3.6-7-1.1-10.1c2.5-3,6.9-3.6,10-1
			c5.1,4.1,10.8,7.2,16.9,9.7c10.3,4.2,21,7,31.9,8.8c12.7,2.1,25.5,3.3,38.4,3.4c12.5,0.1,24.9-0.6,37.3-1.9
			c9.4-1,18.5-3.2,27.2-7.2c11.1-5.2,19.4-13.1,25-24c2.7-5.4,3.9-11.3,5.1-17.1c0.3-1.3,0.8-2.7,0.8-4c-0.1-6.9-1-13.8-2.6-20.5
			c-3.9-16.2-11.2-30.6-22.5-42.9c-9.1-9.9-20-17.3-31.9-23.4c-22.8-11.6-47.3-16.8-72.6-18.1c-6.6-0.3-13.2-0.1-19.8,0.2
			c-13.6,0.6-26.9,2.6-40,6.5c-31.8,9.3-54.7,29.3-69.3,58.6c-10.6,21.3-14.1,44-10.8,67.7c2,14.5,6.2,28.2,13,41.2
			c10.7,20.4,26.7,35.4,47.5,45.1c13.4,6.2,27.9,8.7,42.5,10.2c11,1.1,21.9,1.3,33,0.7c13-0.7,25.8-2.6,38.3-6.3
			C983.6,1306.2,988.8,1304.5,994.2,1302.8z"/>
		<path class="st2" d="M978.2,1179c0,5.2,0.1,10.4,0,15.6c-0.1,4.4-2.1,7.8-6.2,9.7c-4.1,1.9-8,1.3-11.4-1.6
			c-2.5-2.1-3.7-4.9-3.7-8.1c-0.1-10.4-0.1-20.8-0.1-31.2c0-6,4.6-10.7,10.5-10.8c5.9-0.1,10.7,4.5,10.8,10.5
			C978.3,1168.4,978.2,1173.7,978.2,1179z"/>
		<path class="st2" d="M1014.6,1178.7c0-5.5-0.2-11,0-16.5c0.2-5.7,5.2-10,10.9-9.8c5.6,0.2,10.2,4.8,10.2,10.4
			c0.1,10.6,0.1,21.2,0.1,31.8c0,5.6-4.6,10.3-10.2,10.5c-5.7,0.2-10.6-4.1-11-9.7c0-0.4-0.1-0.7-0.1-1.1
			C1014.6,1189.1,1014.6,1183.9,1014.6,1178.7C1014.6,1178.7,1014.6,1178.7,1014.6,1178.7z"/>
	</g>
	<g>
		<path class="st2" d="M347,1251.5c1.9,1.2,3.9,2.4,5.8,3.6c15.1,9.1,29,19.7,40.8,32.9c17.2,19.3,26.7,41.9,29.9,67.4
			c2.5,19.9,0.2,39.2-6.1,58.2c-1.3,3.9-3,7.7-4.5,11.5c-0.1,0.3-0.2,0.7-0.3,1c-2.1,4-4.2,8-6.3,12.1c-0.2,0.2-0.4,0.4-0.5,0.6
			c-4.7,8-10.3,15.4-16.6,22.3c-15.7,17.1-34.1,30-56.7,36.5c-12.4,3.6-25,5.2-37.9,4.5c-17.8-1-34.6-6.3-50.9-13.1
			c-8.7-3.6-17.1-7.8-25.2-12.5c-9.1-5.3-18-11-26.2-17.7c-1.7-1.4-3.3-2.8-5-4.2c-1.1,1.7-2,3.3-3.1,4.8
			c-5.9,8.1-13.7,12.6-23.9,12.5c-7.5,0-14.8-1.7-22-4c-8.5-2.7-16.5-6.6-24-11.5c-6.6-4.2-12.1-9.6-17.4-15.4
			c-5.8-6.3-10.1-13.4-12.6-21.6c-4-13.4-2.4-26.5,3.1-39.2c2.3-5.3,5.2-10.4,7.8-15.6c0.3-0.5,0.4-0.9-0.1-1.5
			c-4.7-5.2-8.2-11.3-11.2-17.7c-6.7-14.2-7.2-28.5-0.5-42.9c4.6-9.9,11.6-17.9,20.1-24.5c5-3.9,10.6-6.5,16.8-7.4
			c9-1.3,17.1,1.4,24.5,6.5c1.9,1.4,3.8,2.8,5.7,4.3c1.7-2.6,3.2-5.3,5-7.8c7.8-11.4,17.3-21.1,28.7-28.9
			c9.4-6.5,19.4-11.6,30.4-14.8c14.7-4.2,29.6-5.5,44.8-4.7c23.5,1.2,45.9,7.1,67.5,16.3c1.4,0.6,2.8,1.1,4.2,1.7
			C336.5,1246,341.7,1248.7,347,1251.5z M192.3,1439.7c9.4,9,19.9,16.6,31.2,23.2c9.5,5.6,19.3,10.5,29.6,14.5
			c13.7,5.4,27.6,9.8,42.4,10.4c23,1,44-5,62.9-18.3c12-8.4,22-18.7,30.4-30.6c13.7-19.5,21.1-41.4,21.4-65.1
			c0.4-32.7-10.7-61-34.7-83.8c-9.9-9.4-20.8-17.3-32.6-24.1c-5.7-3.3-11.5-6.6-17.4-9.3c-23.1-10.4-47.3-17-72.8-17.2
			c-13.4-0.1-26.5,1.5-39.1,6.1c-15.6,5.8-28.8,15.2-39.6,27.8c-4.5,5.2-8.5,10.9-11.7,17.1c-0.6,1.2-0.8,2.6-1.2,3.9
			c-1.6,5.8-3.2,11.5-3.3,17.6c-0.1,12.2,3.7,23.1,11.2,32.7c5.8,7.5,12.9,13.6,20.8,18.8c10.4,6.9,21.1,13.2,32.3,18.8
			c11.5,5.8,23.4,10.6,35.7,14.6c10.6,3.4,21.3,5.9,32.4,6.8c6.5,0.6,13,0.5,19.4-0.9c3.9-0.8,7.6,1.7,8.4,5.5
			c0.8,3.9-1.6,7.5-5.6,8.4c-5.7,1.3-11.5,1.7-17.4,1.5c-14-0.5-27.6-3.1-40.8-7.6c-8.6-3-17.1-5.9-25.5-9.2
			c-9.1-3.6-17.8-8.1-26.3-13c-10.4-5.9-20.4-12.3-29.5-20.1c-7.7-6.6-14.6-14-20.2-22.5c-5.1-7.7-7.5-16.3-8.2-25.5
			c-0.6-7.5,0-14.9,1.5-22.2c0.2-0.7,0.1-1.3-0.5-1.8c-3.1-3.1-6.3-6.1-10.1-8.5c-7.4-4.6-14.7-4.3-21.7,0.7
			c-8,5.8-14.5,13.1-18.1,22.4c-3.5,8.9-2.9,17.8,0.7,26.6c3.3,8,8.1,14.9,14.2,21.1c0.5,0.5,1,1.1,1.5,1.6c1.5,1.5,1.3,1.5,0.3,3.4
			c-4,7.7-8.5,15.3-11.9,23.3c-7.3,17.1-4.2,32.5,8.7,46c4.4,4.6,8.9,8.9,14.3,12.3c10.9,6.7,22.5,11.2,35.4,12.3
			c6.9,0.6,11.7-2.4,15.2-8.1c2-3.4,2.9-7.2,3.9-10.9c1-3.4,1.9-6.8,2.9-10.4C184.6,1432.1,188.4,1435.9,192.3,1439.7z"/>
		<path class="st2" d="M251.5,1325.4c-2.4,4.6-4.9,9.2-7.2,13.9c-2,4-1.7,7.9,1,11.4c2.8,3.5,6.5,4.8,10.9,3.8
			c3.2-0.7,5.5-2.6,7-5.5c4.8-9.2,9.6-18.4,14.4-27.6c2.7-5.3,0.8-11.7-4.4-14.4c-5.2-2.8-11.6-0.9-14.4,4.4
			C256.4,1316,254,1320.7,251.5,1325.4z"/>
		<path class="st2" d="M219.3,1308.5c2.5-4.9,5.2-9.7,7.6-14.7c2.4-5.1,0-11.3-5.2-13.7c-5.1-2.4-11.3-0.4-13.9,4.6
			c-4.9,9.4-9.8,18.8-14.7,28.2c-2.6,5-0.7,11.2,4.3,14c5,2.8,11.3,1.2,14.3-3.6c0.2-0.3,0.4-0.6,0.6-0.9
			C214.6,1317.7,217,1313.1,219.3,1308.5C219.4,1308.5,219.3,1308.5,219.3,1308.5z"/>
	</g>
	<g>
		<path class="st2" d="M1700.1,1948.9c1.9,1.3,3.8,2.5,5.7,3.8c14.8,9.6,28.4,20.5,39.8,34.1c16.6,19.8,25.4,42.7,27.8,68.3
			c1.9,20-0.9,39.2-7.8,58c-1.4,3.9-3.2,7.6-4.8,11.4c-0.1,0.3-0.2,0.7-0.3,1c-2.2,4-4.4,7.9-6.6,11.9c-0.2,0.2-0.4,0.4-0.6,0.6
			c-5,7.9-10.8,15.1-17.3,21.8c-16.2,16.6-35,28.9-57.7,34.7c-12.5,3.2-25.2,4.5-38,3.3c-17.8-1.6-34.4-7.3-50.5-14.6
			c-8.6-3.9-16.8-8.3-24.8-13.3c-9-5.6-17.7-11.5-25.6-18.5c-1.6-1.4-3.2-2.9-4.9-4.3c-1.1,1.6-2.1,3.2-3.2,4.7
			c-6.1,8-14.1,12.2-24.3,11.8c-7.5-0.3-14.8-2.1-21.8-4.6c-8.4-3-16.3-7.1-23.7-12.2c-6.5-4.4-11.8-10-16.9-15.9
			c-5.6-6.5-9.7-13.7-11.9-22c-3.6-13.6-1.6-26.6,4.3-39c2.5-5.3,5.5-10.3,8.3-15.4c0.3-0.5,0.4-0.9,0-1.5
			c-4.6-5.4-7.8-11.6-10.6-18c-6.2-14.4-6.3-28.7,0.8-42.9c4.9-9.7,12.1-17.5,20.8-23.9c5.1-3.7,10.8-6.2,17-6.9
			c9.1-1,17.1,1.9,24.2,7.3c1.9,1.4,3.7,3,5.5,4.5c1.7-2.6,3.4-5.2,5.2-7.6c8.1-11.1,18-20.5,29.5-28c9.6-6.2,19.7-11,30.8-13.8
			c14.8-3.7,29.8-4.6,44.9-3.4c23.5,1.9,45.7,8.5,67,18.3c1.4,0.6,2.8,1.2,4.2,1.8C1689.8,1943.1,1695,1946,1700.1,1948.9z
			 M1539.9,2132.4c9.1,9.3,19.4,17.2,30.5,24.1c9.3,5.9,19,11.1,29.1,15.4c13.5,5.8,27.3,10.6,42.1,11.7
			c22.9,1.7,44.2-3.7,63.4-16.4c12.2-8,22.6-18,31.3-29.7c14.3-19.1,22.3-40.7,23.4-64.5c1.4-32.7-8.9-61.3-32.2-84.9
			c-9.6-9.7-20.3-17.9-31.8-25.1c-5.6-3.5-11.2-6.9-17.2-9.8c-22.8-11.1-46.7-18.4-72.3-19.4c-13.4-0.5-26.5,0.7-39.3,4.9
			c-15.8,5.3-29.2,14.4-40.5,26.6c-4.7,5.1-8.8,10.7-12.2,16.7c-0.7,1.2-0.9,2.6-1.3,3.9c-1.8,5.7-3.6,11.4-3.8,17.5
			c-0.5,12.2,3,23.2,10.2,33.1c5.6,7.7,12.5,14,20.3,19.5c10.2,7.2,20.7,13.8,31.7,19.8c11.3,6.2,23.1,11.3,35.2,15.6
			c10.5,3.8,21.1,6.5,32.2,7.8c6.5,0.8,13,0.9,19.4-0.3c3.9-0.7,7.5,1.9,8.2,5.8c0.7,3.9-1.8,7.5-5.9,8.3
			c-5.7,1.1-11.6,1.3-17.4,0.9c-14-0.9-27.5-3.9-40.6-8.9c-8.5-3.2-16.9-6.4-25.2-10c-9-3.8-17.5-8.7-25.9-13.8
			c-10.2-6.3-20.1-12.9-28.9-21c-7.5-6.8-14.2-14.4-19.5-23.1c-4.8-7.9-7-16.6-7.5-25.7c-0.4-7.5,0.4-14.8,2.2-22.1
			c0.2-0.7,0.1-1.3-0.5-1.8c-3-3.2-6.2-6.3-9.9-8.8c-7.3-4.9-14.6-4.7-21.7,0c-8.2,5.5-14.8,12.6-18.8,21.9
			c-3.8,8.8-3.4,17.7-0.1,26.6c3,8.1,7.7,15.2,13.5,21.5c0.5,0.5,1,1.1,1.4,1.6c1.4,1.6,1.3,1.5,0.2,3.4c-4.3,7.6-9,15-12.6,22.9
			c-7.8,16.9-5.2,32.4,7.3,46.2c4.2,4.7,8.6,9.2,13.9,12.7c10.7,7,22.2,11.9,35,13.4c6.8,0.8,11.8-2,15.4-7.6
			c2.1-3.3,3.1-7.1,4.2-10.8c1.1-3.4,2.1-6.8,3.2-10.3C1532.4,2124.6,1536.1,2128.5,1539.9,2132.4z"/>
		<path class="st2" d="M1602.5,2020c-2.5,4.6-5.2,9.1-7.6,13.7c-2.1,3.9-1.9,7.8,0.7,11.4c2.6,3.6,6.4,5,10.8,4.2
			c3.2-0.6,5.6-2.5,7.2-5.3c5.1-9.1,10.2-18.1,15.2-27.2c2.9-5.2,1.2-11.6-3.9-14.5c-5.1-2.9-11.6-1.2-14.5,3.9
			C1607.6,2010.7,1605.1,2015.3,1602.5,2020z"/>
		<path class="st2" d="M1570.8,2002.1c2.7-4.8,5.5-9.5,8-14.4c2.6-5,0.3-11.3-4.8-13.9c-5-2.6-11.3-0.8-14,4.1
			c-5.2,9.2-10.4,18.5-15.5,27.7c-2.7,4.9-1,11.2,3.8,14.1c4.9,2.9,11.2,1.5,14.4-3.2c0.2-0.3,0.4-0.6,0.6-0.9
			C1565.9,2011.1,1568.4,2006.6,1570.8,2002.1C1570.9,2002.1,1570.9,2002.1,1570.8,2002.1z"/>
	</g>
	<g>
		<path class="st2" d="M674.9,1573.2c2.2-0.7,4.4-1.4,6.5-2.1c16.8-5.4,33.9-9.1,51.6-9.3c25.8-0.4,49.1,7.2,70.5,21.5
			c16.7,11.1,29.8,25.5,40,42.6c2.1,3.5,3.9,7.3,5.8,10.9c0.2,0.3,0.4,0.6,0.6,0.9c1.7,4.2,3.3,8.4,5,12.6c0,0.3,0,0.6,0.1,0.8
			c3,8.8,4.9,17.9,6,27.2c2.7,23.1,0.4,45.4-9.5,66.7c-5.4,11.7-12.4,22.3-21.4,31.6c-12.4,12.8-27.4,22.1-43.2,30
			c-8.4,4.2-17.1,7.8-25.9,10.9c-10,3.5-20.1,6.4-30.5,8.2c-2.1,0.4-4.3,0.7-6.4,1.1c0.6,1.9,1.2,3.6,1.6,5.4
			c2.3,9.8,0.6,18.6-6.1,26.3c-5,5.7-11,10.1-17.4,14c-7.6,4.7-15.8,8.1-24.4,10.7c-7.5,2.2-15.2,2.9-23,3.1
			c-8.5,0.2-16.8-1.1-24.6-4.6c-12.8-5.7-21.6-15.5-27.6-28c-2.5-5.2-4.5-10.7-6.7-16.1c-0.2-0.6-0.4-0.9-1.2-0.9
			c-7.1,0.2-13.9-1.2-20.7-3.1c-15.1-4.2-26.3-13.2-32.8-27.7c-4.5-9.9-5.9-20.4-5.4-31.2c0.3-6.3,2-12.2,5.4-17.5
			c4.9-7.7,12.2-12,20.9-14.2c2.3-0.6,4.6-1,6.9-1.5c-0.9-3-1.9-5.9-2.6-8.9c-3.5-13.3-4.6-26.9-3.1-40.6
			c1.2-11.3,3.9-22.3,8.7-32.7c6.4-13.8,15.2-26,25.7-37c16.3-17,35.4-30.1,56.5-40.4c1.4-0.7,2.7-1.4,4.1-2.1
			C663.9,1577.5,669.4,1575.3,674.9,1573.2z M716.1,1813.3c13-1.2,25.6-4.2,37.9-8.4c10.4-3.5,20.6-7.8,30.3-12.9
			c13-6.8,25.5-14.5,35.6-25.3c15.7-16.7,25-36.6,27.3-59.5c1.5-14.5,0.3-28.9-3.3-43c-5.8-23.2-17.5-43-35.3-58.8
			c-24.5-21.7-53.2-31.8-86.1-28.6c-13.6,1.3-26.7,4.4-39.5,8.9c-6.2,2.2-12.5,4.4-18.4,7.1c-23,10.7-43.8,24.6-60.6,43.9
			c-8.8,10-16.2,21-20.9,33.6c-5.9,15.6-7.3,31.7-4.9,48.2c1,6.9,2.7,13.5,5.3,20c0.5,1.2,1.5,2.3,2.2,3.4c3.3,5,6.6,10,11.2,14
			c9.2,8.1,19.9,12.3,32.1,12.9c9.5,0.5,18.8-0.9,27.9-3.4c12-3.4,23.8-7.4,35.3-12.1c11.9-4.9,23.3-10.8,34.3-17.4
			c9.5-5.8,18.4-12.3,26.4-20c4.7-4.6,8.9-9.5,12.1-15.3c1.9-3.5,6.2-4.7,9.7-2.8c3.5,1.9,4.7,6.1,2.7,9.8
			c-2.8,5.2-6.3,9.8-10.3,14.1c-9.5,10.2-20.4,18.9-32.5,25.9c-7.8,4.5-15.7,9.1-23.7,13.3c-8.7,4.6-17.8,8.1-27,11.4
			c-11.3,3.9-22.7,7.4-34.5,9.2c-10,1.5-20.1,1.9-30.2,0.6c-9.2-1.2-17.3-5-24.7-10.4c-6.1-4.4-11.3-9.7-15.8-15.6
			c-0.5-0.6-0.9-0.9-1.7-0.8c-4.4,0.3-8.8,0.8-13,2.1c-8.3,2.6-12.9,8.3-13.7,16.8c-0.9,9.9,0.4,19.5,5.1,28.4
			c4.5,8.5,11.6,13.8,20.6,16.8c8.2,2.7,16.6,3.6,25.2,3.1c0.7,0,1.5-0.1,2.2-0.1c2.1-0.1,2,0,2.8,2c3.2,8.1,6,16.4,9.8,24.3
			c8.1,16.7,21.8,24.5,40.4,23.5c6.3-0.3,12.6-0.9,18.6-2.8c12.2-3.9,23.2-9.7,32.5-18.7c4.9-4.8,5.9-10.4,3.8-16.8
			c-1.2-3.8-3.6-6.9-5.7-10.1c-2-3-3.9-5.9-6-9C705.4,1814.1,710.8,1813.8,716.1,1813.3z"/>
		<path class="st2" d="M668.4,1693.7c1.9,4.8,3.8,9.7,5.8,14.5c1.7,4.1,4.9,6.4,9.3,6.7c4.5,0.2,7.9-1.8,10-5.7
			c1.5-2.9,1.6-5.9,0.4-8.9c-3.8-9.7-7.7-19.3-11.5-29c-2.2-5.5-8.3-8.2-13.8-6.1c-5.5,2.1-8.2,8.2-6.1,13.7
			C664.5,1683.9,666.5,1688.8,668.4,1693.7z"/>
		<path class="st2" d="M634.6,1707c-2-5.1-3.9-10.3-6.1-15.3c-2.3-5.2-8.5-7.3-13.8-5c-5.2,2.3-7.7,8.3-5.6,13.5
			c3.9,9.9,7.8,19.7,11.7,29.6c2.1,5.2,8.1,7.8,13.3,5.9c5.4-2,8.3-7.7,6.6-13.1c-0.1-0.3-0.2-0.7-0.3-1
			C638.5,1716.6,636.6,1711.8,634.6,1707C634.6,1707,634.6,1707,634.6,1707z"/>
	</g>
</g>
</svg>
